<svg width="1280" xmlns="http://www.w3.org/2000/svg" height="1280" viewBox="0 0 1024 1024">
<path d="m490.45,73.48c63.82-3.36 128.4,7.28 187.55,31.53 76.96,31.96 145.59,85.22 193,154.01 40.64,57.17 67.5,124.29 75.99,194.01 9.06,69.04 2.63,140.33-20.98,205.97-27.95,78.15-78.49,148.07-143.94,199.09-59.88,46.53-131.69,78.09-207.05,87.99-30.42,4.69-61.28,4.34-91.96,3.68-68.97-4.12-136.88-25.02-196-60.81-61.38-36.51-113.86-88.05-150.62-149.35-67.48-108.79-81.52-247.88-40.83-368.88 27.41-79.77 77.86-151.7 144.24-203.84 33.75-26.01 70.68-48.12 110.44-63.6 44.52-18.07 92.28-27.29 140.16-29.8m-25.99,131.07c-44.03,6.25-86.5,22.79-123.44,47.49-77.18,49.88-129.76,135.98-138.63,227.48-3.57,38.95-.31,78.56 9.78,116.36 17.78,63.25 56.24,120.48 108.15,160.77 54.08,42.43 122.67,67.11 191.65,65.4 .06-207.05 .03-414.1 .02-621.15-15.89,.45-31.8,1.26-47.53,3.65Z"/>
</svg>
