<svg width="1280" xmlns="http://www.w3.org/2000/svg" height="1280" viewBox="0 0 1024 1024">
<path d="m504.45,73.61c85.08-2.34 170.77,21.49 242.3,67.66 97.47,60.95 168.95,162.08 193.64,274.39 13.49,64.68 14.48,132.47-.87,196.92-18.03,79.75-60.5,153.15-117.75,211.19-43.24,42.55-95.11,76.33-151.67,98.32-67.68,26.24-142.03,34.19-213.96,25.69-66.72-8.12-131.37-32.3-187.15-69.76-70.37-45.98-126.04-113.32-159.87-190.11-31.54-71.45-41.92-151.56-33.2-228.96 12.61-111.42 71.38-216.21 158.05-286.97 48.14-38.85 104.11-68.25 164-84.06 34.72-9.2 70.59-13.75 106.48-14.31m-254.42,584.37c17.92,.08 35.84,.08 53.76-.08 19.2-30.46 39.51-60.2 58.48-90.8 99.56-.23 199.13-.06 298.69-.08 19.84,30.23 39.38,60.66 59.17,90.93 17.94,.09 35.89,.1 53.84,.04-87.61-131.27-174.58-262.96-262.2-394.23-87.13,131.49-174.74,262.66-261.74,394.22Z"/>
<path d="m397.37,530.83c37.33-58.86 76.47-116.6 114.43-175.07 38.25,58.32 77.01,116.32 114.63,175.05-76.35,.33-152.71,.29-229.06,.02Z"/>
</svg>
