<svg width="1280" xmlns="http://www.w3.org/2000/svg" height="1280" viewBox="0 0 1024 1024">
<path d="m19.09,114.16c7.74-4.74 17.08-5.15 25.89-5.21 211.68,.12 423.36,.01 635.04,.06 5.98,.17 12.02,.12 17.98,.85 15.25,.83 29.22,12.82 32.29,27.77 1.64,18.41 .38,36.92 .78,55.37-.16,12.29 .68,24.72-1.15,36.91-4.79,15.92-21.31,27.2-37.89,26.15-203.34-.13-406.69-.03-610.03-.06-16.51-.13-33.07,.76-49.55-.66-16.32-.9-29.28-15.25-32.45-30.66v-84.12c2.32-10.99 9.18-20.94 19.09-26.4Z"/>
<path d="m0,359.47c4.01-17.89 20.97-33 39.97-30.49 278.34,.04 556.69,.01 835.03,.02 14.93,.13 29.91-.8 44.82,.53 11.71,1.1 21.82,9.27 27.24,19.41 5.44,10.12 3.69,22.05 4.06,33.06-.52,19.93 .8,39.91-.67,59.81-.84,19.16-19.6,34.57-38.42,33.26-278.34-.15-556.69-.03-835.03-.07-16.33-.29-32.8,1.23-49.02-1.12-14.42-2.71-24.6-15.68-27.98-29.37v-85.04Z"/>
<path d="m0,579.32c3.16-15.75 16.72-29.88 33.19-30.89 14.92-1.02 29.87-.38 44.81-.44 215,.02 430,0 645,.01 16.51,.14 33.07-.77 49.56,.61 11.5,.85 21.58,8.8 27.29,18.48 6.06,9.8 4.96,21.91 5.25,32.9-.36,20.68 .77,41.43-.94,62.06-.77,13.24-10.6,24.42-22.25,29.84-8.14,3.41-17.28,2.81-25.89,3.15-235.02-.09-470.03-.02-705.04-.04-11.63-.68-25.17,.76-34.88-7.12-8.33-5.59-13.96-14.72-16.1-24.43v-84.13Z"/>
<path d="m17.99,773.01c5.81-3.94 13.08-5.1 19.97-5.09 303.34,.18 606.69,.03 910.04,.08 16.29,.33 32.76-1.36 48.94,1.24 14.12,2.89 23.51,15.96 27.06,29.24v85.03c-3.39,13.69-13.56,26.66-27.98,29.37-14.57,2.2-29.37,.94-44.02,1.14-293.33-.04-586.67-.04-880,0-14.66-.2-29.46,1.06-44.02-1.14-14.42-2.71-24.6-15.68-27.98-29.37v-85.04c2.9-10.13 8.49-20.23 17.99-25.46Z"/>
</svg>
