<svg width="1280" xmlns="http://www.w3.org/2000/svg" height="1280" viewBox="0 0 1024 1024">
<path d="m21.06,113.13c8.2-4.43 17.92-3.91 26.92-4.19 308.35,.13 616.7,.03 925.04,.05 10.62,.55 22.31-.48 31.9,5.13 10.01,5.29 16.34,15.65 19.08,26.39v84.17c-3.36,17.15-18.97,31.96-37.04,31.04-71.64,.72-143.31,.05-214.96,.28-241.68,.05-483.35-.1-725.02,.08-10.03-.52-21.5,.46-29.88-6.21-8.98-5.49-14.87-15.04-17.1-25.19v-84.12c2.44-11.72 10.17-22.24 21.06-27.43Z"/>
<path d="m22.58,331.54c12.95-4.69 26.98-2.02 40.42-2.6 296.67,.13 593.33,.05 890,.04 14.62,.24 29.43-1.19 43.94,1.25 14.12,2.91 23.52,15.97 27.06,29.25v85.03c-3.38,13.7-13.56,26.66-27.98,29.38-14.57,2.2-29.37,.93-44.02,1.13-293.33-.03-586.67-.03-880,0-14.66-.2-29.46,1.07-44.02-1.13-14.42-2.72-24.6-15.68-27.98-29.38v-85.03c3.23-11.9 10.75-23.23 22.58-27.94Z"/>
<path d="m17.1,554.13c8.38-6.67 19.85-5.71 29.88-6.21 311.68,.21 623.37-.02 935.05,.11 19.65-2.33 38.42,12.05 41.97,31.29v84.13c-2.15,9.71-7.77,18.84-16.1,24.43-9.71,7.88-23.26,6.44-34.88,7.12-308.34,.03-616.69-.08-925.04,.06-9-.29-18.72,.24-26.92-4.19-10.89-5.19-18.62-15.71-21.06-27.43v-84.12c2.23-10.16 8.12-19.7 17.1-25.19Z"/>
<path d="m17.99,773.01c5.81-3.93 13.07-5.11 19.97-5.09 303.34,.18 606.69,.03 910.04,.08 16.29,.34 32.76-1.36 48.94,1.23 14.12,2.91 23.52,15.97 27.06,29.25v85.03c-3.38,13.7-13.56,26.66-27.98,29.38-14.57,2.2-29.37,.92-44.02,1.13-293.33-.03-586.67-.03-880,0-14.66-.21-29.46,1.07-44.02-1.13-14.42-2.72-24.6-15.68-27.98-29.38v-85.03c2.89-10.14 8.49-20.24 17.99-25.47Z"/>
</svg>
