<svg width="1280" xmlns="http://www.w3.org/2000/svg" height="1280" viewBox="0 0 1024 1024">
<path d="m315.36,112.42c7.25-2.52 14.95-3.72 22.62-3.51 211.68,.2 423.36,.04 635.04,.08 10.62,.55 22.31-.48 31.9,5.13 10,5.29 16.34,15.65 19.08,26.39v84.17c-3.44,18.37-21.1,32.89-39.97,31.34-203.34-.05-406.69-.01-610.03-.02-14.99-.06-29.99,.49-44.97-.22-16.66,.42-32.5-12.73-35.68-28.94-.82-27.27-.45-54.61-.23-81.89-.39-14.21 9.24-27.41 22.24-32.53Z"/>
<path d="m73.23,365.03c-.65-20.52 19.41-38.52 39.74-36.08 280.01,.1 560.02,.05 840.03,.03 14.62,.22 29.43-1.18 43.94,1.26 14.12,2.89 23.51,15.96 27.06,29.23v85.04c-2.96,11.72-10.56,22.75-21.99,27.49-7.09,3.58-15.35,2.57-22.99,3.06-275-.14-550.01-.02-825.02-.06-16.52-.15-33.09,.76-49.58-.58-12.47-1.21-23.16-10.4-28.35-21.5-4.18-10.46-3.04-21.95-3.21-32.92 .38-18.32-.42-36.66 .37-54.97Z"/>
<path d="m219.78,580.82c1.42-18.35 18.93-33.39 37.2-32.73 241.68-.2 483.37-.07 725.05-.06 19.65-2.33 38.41,12.05 41.97,31.28v84.13c-2.9,14.56-14.54,27.16-29.16,30.32-12.83,2.15-25.92,1.05-38.84,1.3-228.34-.15-456.68,0-685.02-.07-9.37-.36-19.06,.02-28.12-2.82-9.25-3.59-16.54-11.42-20.76-20.26-3.94-9.4-2.93-19.99-3.2-29.91 .38-20.39-.8-40.84 .88-61.18Z"/>
<path d="m17.99,773.01c5.81-3.93 13.08-5.1 19.97-5.09 303.34,.18 606.69,.03 910.04,.08 16.29,.32 32.76-1.36 48.94,1.24 14.12,2.89 23.51,15.96 27.06,29.23v85.04c-3.38,13.69-13.57,26.66-27.99,29.37-16.22,2.34-32.69,.83-49.01,1.12-291.67,.01-583.33-.03-875,.02-14.66-.2-29.46,1.06-44.01-1.14-14.43-2.71-24.61-15.68-27.99-29.37v-85.04c2.9-10.13 8.49-20.23 17.99-25.46Z"/>
</svg>
