<svg width="1280" xmlns="http://www.w3.org/2000/svg" height="1280" viewBox="0 0 1024 1024">
<path d="m329.43,109.53c6.51-.4 13.03-.59 19.57-.58 111.67,.08 223.34,.07 335.02,.01 10.14,0 21.08,.5 29.9,6.14 10.24,6.18 17.34,17.72 17.03,29.86 .24,25.02 .01,50.04 .08,75.07 1.11,19.14-17.29,36.2-36.04,35.79-121.66,.38-243.35,.15-365.01,.12-15.99,.56-31.24-10.89-35.92-26.02-1.79-10.52-.94-21.3-1.12-31.92 .45-19.86-.77-39.76 .61-59.59 2.94-16.63 19.13-29.13 35.88-28.88Z"/>
<path d="m102.42,329.58c13.16-1.14 26.39-.52 39.58-.59 256.68,.03 513.35-.01 770.03,.01 16.32-1.7 31.78,9.84 37.14,24.87 2.68,10.13 1.66,20.76 1.91,31.13-.45,18.96 .58,37.96-.36,56.9-1.54,19.78-21.02,35.42-40.7,33.11-266.68-.06-533.36,.07-800.04-.07-18.24,.66-35.41-14.83-36.56-33.07-1.18-19.93-.02-39.92-.5-59.87 .15-11.73-1.47-24.55 5.06-35.04 5.52-8.44 14.23-15.79 24.44-17.38Z"/>
<path d="m251.4,548.54c13.17-1.12 26.4-.47 39.6-.55 158.34,.02 316.68,.01 475.03,0 15.94-.75 31.79,10.07 36.64,25.33 2.7,9.63 2.14,19.77 2.39,29.68-.25,18.89 .44,37.81-.38,56.7-.52,13.49-9.5,25.63-21.38,31.58-9.48,4.07-20.26,3.08-30.29,3.72-161.67,.03-323.35-.05-485.02,.03-8.13-.24-16.6,.16-24.4-2.55-13.1-5.1-23.56-17.78-23.98-32.14-1.25-25.09-.56-50.24-.51-75.35 .28-17.71 14.44-34.63 32.3-36.45Z"/>
<path d="m17.99,773.01c5.82-3.93 13.08-5.09 19.97-5.08 303.34,.15 606.69,.04 910.04,.06 16.29,.3 32.77-1.33 48.94,1.27 14.13,2.84 23.49,15.95 27.06,29.21v85.05c-3.4,13.67-13.55,26.68-27.99,29.34-16.22,2.36-32.69,.87-49.01,1.15-301.68,.02-603.37-.09-905.05,.05-8.18-.15-16.82-.67-24.01-4.99-9.25-5.57-15.27-15.27-17.94-25.55v-85.06c2.91-10.12 8.5-20.22 17.99-25.45Z"/>
</svg>
