<svg width="1280" xmlns="http://www.w3.org/2000/svg" height="1280" viewBox="0 0 1024 1024">
<path d="m330.11,100.98c3.4-17.08 20.7-29.17 37.85-28.06 218.68,.18 437.36,.03 656.04,.08v732c-36.56,.07-73.11-.14-109.66,.05-.17,25.15-6.59,50.32-19.11,72.18-21.09,34.93-56.02,62.75-96.65,70.34-26.58,5.3-54.56,4.08-80.19-4.98-44.16-16.05-80.08-54.22-92.17-99.77-3.28-12.32-4.16-25.09-4.48-37.77-73.1-.06-146.19-.14-219.28,.04-.42,24.89-6.56,49.8-18.86,71.52-21.74,36.5-58.65,65.18-101.22,71.72-27.29,4.86-55.96,2.46-81.7-7.99-43.2-18.05-77.98-57.22-87.67-103.39-2.25-10.47-2.77-21.22-3.33-31.87-24.41-.51-48.84,.57-73.22-.42-17.72-.03-32.65-14.33-36.46-31.14v-11.01c2-8.8 6.71-17.03 13.71-22.8 6.05-5.58 14.38-7.41 22.16-9.16 .32-72.19 .05-144.38 .1-216.56 .14-12.76 .27-25.63 2.82-38.18 4.65-17.21 12.55-33.99 25.4-46.61 36.09-35.92 72.09-71.92 108.01-108 19.54-20.63 48.82-30.12 76.78-29.25 26.66-.08 53.31,.23 79.97,.01 .09-52.32 .12-104.64-.04-156.96 .11-11.33-.69-22.79 1.2-34.02m299.65,47.79c-4.02,3.25-7.7,7.78-7.7,13.2-.27,43.33 .11,86.66-.09,129.99-40.34,.17-80.67-.08-121,.04-6.99,0-15.15,.08-20.31,5.66-6.26,5.9-5.69,15.47-5.77,23.32 .2,30.02 .09,60.03 .04,90.05 .3,8.06-.5,17.84 6.45,23.58 5.53,4.89 13.73,4.17 20.59,4.47 40-.09 80-.14 120-.05 .14,41-.07,82 .02,123 .31,5.42-.48,12 3.67,16.3 5.22,7.44 15.3,6.72 23.32,6.78 31.68-.25 63.37,.01 95.05-.1 5.3-.45 11.45,.45 16.06-2.89 4.16-3.1 7.87-7.66 7.85-13.09 .28-43.33-.13-86.66 .11-129.98 38.32-.14 76.64-.03 114.96,.01 8.45-.49 18.2,1.08 25.31-4.74 3.44-3.46 5.93-8.31 5.53-13.33 .51-33.33-.13-66.67 .26-100-.41-7.77 1.36-17.24-4.84-23.26-5.2-6.11-14.06-5.37-21.24-5.75-40-.06-80,.12-120-.01-.13-41 .04-82 0-123-.45-5.04 .63-10.81-3.03-14.98-3.81-6.36-11.96-8.64-18.97-8.06-33.35,.13-66.71-.01-100.06,.07-5.36,.49-11.5-.48-16.21,2.77m-406,223.99c-34.07,33.93-67.93,68.08-102.07,101.94-4.5,4.89-9.68,9.96-11.16,16.67-.76,6.83-.55,13.73-.67,20.6 73.03,.05 146.07,.06 219.1,0 .07-48.65 .08-97.29-.01-145.92-29.98,.07-59.96-.39-89.93,.13-5.91-.52-11.3,2.46-15.26,6.58m27.7,358.79c-31.89,.82-60.41,25.96-67.08,56.8-2.94,15.48-1.71,32.06 4.72,46.55 5.79,12.06 15.02,22.39 25.88,30.12 20.49,15.02 49.1,15.65 71.91,5.85 14.43-6.99 26.54-18.72 34.11-32.84 14.43-27.35 9.11-64.11-13.64-85.39-14.38-14.83-35.29-22.85-55.9-21.09m512-.01c-27.74,.85-53.37,19.8-63.63,45.34-10.58,26.27-4.97,59.57 16.35,78.94 11.39,12 27.17,20.27 43.85,21.06 13.9,1.12 28.36-.63 40.91-7 14.1-7.56 26.05-19.42 33.05-33.87 13.22-27.08 7.54-62.62-14.63-83.37-14.38-14.84-35.29-22.82-55.9-21.1Z"/>
</svg>
