<svg width="1280" xmlns="http://www.w3.org/2000/svg" height="1280" viewBox="0 0 1024 1024">
<path d="m450.98,11.95c7.65-4.31 16.66-2.79 25.02-3.12 25.01,.34 50.02,.02 75.03,.07 7.01,.4 14.55-.39 20.99,3.03 42.58,19.92 75.8,60.68 83.64,107.4 3.44,19.18 2.57,38.96-1.34,58-6.65,29.94-23.39,57.43-46.37,77.64-6.97,6.45-15.66,10.86-22.48,17.39-1.53,30.76 .08,61.76-.45,92.62 36.65,.35 73.31-.52 109.96,.24 12.07-.24 23.72,6.62 30,16.8 6.92,9.39 6,21.96 6.17,32.97-.45,21.53 .71,43.1-.75,64.6-1.56,17.29-17.99,31.71-35.35,31.25-36.67,.64-73.36-.15-110.03,.18-.01,123.33-.09,246.66 .04,369.99 71.24-10.1 141.74-33.29 200.86-75.11 23.74-16.21 44.08-36.91 61.98-59.31-17.62-18.22-35.91-35.77-53.66-53.85-6.2-6.35-12.53-15.57-7.13-24.61 4.13-11.44 17.9-11.22 27.87-11.22 60.01,.19 120.03,0 180.05,.09 8.33,.59 19.14-.51 24.67,7.27 4.48,5.14 3.05,12.51 3.46,18.71-.29,61.68-.18,123.36-.05,185.05-.64,6.22 .72,13.14-2.08,18.99-4.74,7.66-15.65,9.6-23.67,6.63-5.87-3.17-10.45-8.25-15.19-12.81-14.35-14.67-29-29.03-43.35-43.68-12.52,14.63-25.62,28.83-40.18,41.46-50.56,45.88-111.98,78.23-176.04,100.94-68.8,23.86-141.81,35.34-214.6,34.49-66.21-.58-132.62-9.9-195.67-30.45-71.21-23.43-139.39-59.03-194.39-110.54-12.4-11.16-22.96-24.11-34.48-36.12-14.14,14.37-28.55,28.46-42.63,42.89-4.49,4.49-8.84,9.2-13.98,12.99-3.83,2.79-8.98,1.85-13.38,1.73-6.07-.62-9.65-6.14-13.47-10.24v-215.2c3.06-4.51 6.63-9.38 12.18-10.79 7.14-1.7 14.53-1.27 21.81-1.45 56.68,.24 113.35,.14 170.03,.04 7.66,.25 15.55-.15 22.95,2.26 6.98,2.35 9.97,10.23 10.78,16.93-.09,6.84-5.57,12.03-9.89,16.74-17.8,17.62-35.63,35.21-53.15,53.11 36.13,49.15 89.82,82.16 145.68,104.64 37.69,15.1 77.42,24.73 117.55,30.52 .12-123.37 .05-246.73 .04-370.09-36.68-.33-73.36,.46-110.03-.18-15.04,.55-28.92-9.98-33.78-23.94-3.35-9.63-2.05-19.94-2.31-29.9 .47-19.95-.73-39.93 .63-59.85 1.21-17.62 17.9-32.5 35.49-31.99 36.66-.58 73.34,.1 110.01-.17-.06-31.14 .28-62.28-.25-93.42-18.4-11.05-34.79-25.65-46.81-43.52-22.51-31.29-30.38-71.86-23.42-109.56 7.59-46.63 41.21-86.7 83.47-106.54m54.46,97.55c-19.89,3.01-35.12,24.75-29.44,44.53 2.72,13.01 13.6,23.18 26.11,26.89 13.75,3.63 29.41-1.37 37.95-12.87 8.08-9.47 10.12-23.37 5.82-34.97-5.63-16.08-23.51-27.01-40.44-23.58Z"/>
</svg>
