<svg width="1280" xmlns="http://www.w3.org/2000/svg" height="1280" viewBox="0 0 1024 1024">
<path d="m341.13,47.93c-6.28-8.5 10.05-17.06 13.67-7.79 14.54,24.92 27.94,50.51 41.63,75.9 9.65-3.53 19.12-7.55 28.9-10.74 57.75-17.71 121.18-17.89 178.39,2.07 7.69,2.64 15.24,5.7 22.83,8.64 13.88-25.32 27.5-50.78 41.49-76.02 3.48-7.58 17.78-2.86 14.61,5.75-1.39,4.3-3.55,8.3-5.61,12.3-12.18,21.65-23.76,43.63-35.49,65.52 32.55,17.35 62.44,40.58 84.82,70.1 13.99,18.26 26.09,38.13 34.21,59.72 10.38,25.77 14.53,53.61 15.05,81.27-176.25,.81-352.53,.13-528.79,.34-.14-34.53 7.79-69.07 23.2-99.98 24.01-47.88 63.91-87.4 111.77-111.39-13.33-25.35-27.7-50.16-40.68-75.69m43.34,147.66c-10.64,3-17.87,15.8-14.53,26.43 1.98,12.13 16.44,20.21 27.94,15.89 8.91-3.04 16.68-11.99 15.1-21.88 .6-14.2-15.19-25.13-28.51-20.44m240.95-.12c-8.9,2.79-16.34,11.89-15.4,21.5-.59,15.09 17.33,27.24 30.97,20 11.75-4.59 16.33-20.38 10.06-31.01-4.33-9.51-15.95-13.26-25.63-10.49Z"/>
<path d="m162.44,344.5c21.83-2.9 44.3,8.81 55.53,27.51 8.39,11.8 8.89,27.05 9.06,40.98-.04,76.67-.05,153.35 0,230.02 .14,13.22-2.26,27-10.03,38-9.79,15.08-26.9,25.47-45.03,25.89-28.23,2.84-56.37-18.69-61.3-46.55-1.58-12.38-1.69-24.89-1.71-37.35 .11-70.01 0-140.01 .04-210.01 .37-10.32 .09-21.14 4.15-30.84 7.81-20.23 27.26-36.31 49.29-37.65Z"/>
<path d="m849.44,344.5c31.69-4.32 64.03,22.2 64.38,54.52 .45,83.33 .04,166.67 .19,250 .58,23.49-15.47,45.39-36.86,54.19-9.54,3.45-19.81,4.35-29.87,3.58-24.74-3.49-46.72-24.29-49.63-49.45-1.18-13.41-.6-26.9-.67-40.34 .03-71.67 .06-143.35-.04-215.02-.85-28.8 23.81-55.51 52.5-57.48Z"/>
<path d="m249.01,355.02c174.99-.03 349.98-.03 524.97,0 .05,126.66-.02,253.33 .04,380 .67,27.23-18.59,53.82-44.92,61.08-19.72,4.29-40.08,2.56-60.09,2.9-.08,41.68 .07,83.35 0,125.02-.02,12.85-2.29,26.35-10.07,36.93-6.13,9.55-15.46,16.59-25.57,21.5-22.73,9.73-51.68,4.28-67.63-15.19-10.57-10.9-15.04-26.31-14.69-41.24-.21-42.34 .06-84.68-.06-127.01-26.33-.03-52.66-.03-78.98,0-.04,43.33-.01,86.67 .05,130.01 .69,25.5-18.51,49.64-42.95,56.1-11.77,2.51-24.5,3.27-35.83-1.46-11.41-4.02-20.91-12.3-28-21.93-7.69-10.15-10.32-23.21-10.23-35.71-.53-42.34 .95-84.71-1.16-127.02-15.64-.3-31.37,.84-46.96-.8-27.59-1.23-52.81-23.96-56.55-51.37-1.35-6.85-1.3-13.88-1.43-20.82 .12-123.66 0-247.33 .06-370.99Z"/>
</svg>
