<svg width="1280" xmlns="http://www.w3.org/2000/svg" height="1280" viewBox="0 0 1024 1024">
<path d="m372.7,239.7c5.75-5.48 11.4-13.24 20.35-12.71 7.28-1.08 12.76,4.92 17.7,9.27 86.03,85.97 171.97,172.03 258.03,257.97 4.15,4.84 9.91,9.72 9.29,16.82 1.48,5.9-2.51,10.82-6.28,14.73-88.07,87.94-176.05,175.97-264.02,264-4.05,3.74-8.84,7.83-14.81,7.23-7.41,.46-12.73-5.75-17.73-10.23-8.31-8.37-16.92-16.47-24.73-25.31-4.63-5.22-6.21-13.55-2.75-19.75 5.58-7.63 12.97-13.69 19.5-20.47 69.68-69.77 139.54-139.36 209.1-209.24-74.54-74.91-149.43-149.49-224.11-224.26-6.6-5.84-8.61-16.43-3.06-23.62 6.95-8.95 15.83-16.15 23.52-24.43Z"/>
</svg>
