<svg width="1280" xmlns="http://www.w3.org/2000/svg" height="1280" viewBox="0 0 1024 1024">
<path d="m500.23,240.22c4.71-4.64 12.51-5.49 18.43-2.85 8.6,5.1 15.01,12.96 22.1,19.87 82.48,82.52 164.99,165.01 247.5,247.5 5.52,5.26 10.98,13.36 7.74,21.22-1.49,5.8-6.32,9.65-10.2,13.84-8.13,7.87-15.87,16.14-24.11,23.89-3.11,3-7.41,4.57-11.75,4.36-6.33,1.85-10.93-3.17-15.17-6.81-74.54-74.32-148.73-149.01-223.42-223.19-74.92,75.18-150.12,150.09-225.08,225.24-6.3,6.63-17.4,6.56-24.14,.61-10.05-8.58-19.02-18.34-28.34-27.69-5.61-5.79-9.37-14.36-5.81-22.24 4.48-7.29 11.43-12.59 17.26-18.73 85.01-85 170.04-169.97 254.99-255.02Z"/>
<path d="m497.8,461.79c5.53-6.69 15.88-8.6 23.1-3.65 6.25,4.65 11.3,10.68 16.86,16.1 78.98,79.02 158,158 236.99,237.01 5.92,6.06 12.32,11.67 17.83,18.14 4.95,5.52 6.03,14.51 1.25,20.49-6.47,8.42-14.84,15.13-22.04,22.91-5.3,5.03-9.9,11.32-16.89,14.13-4.47,1.54-9.78,1.7-13.81-1.04-8.8-6.03-15.75-14.23-23.34-21.63-68.82-68.74-137.48-137.64-206.4-206.27-73.86,74.26-148.1,148.15-222.09,222.28-5.9,7.17-17.27,10.71-25.14,4.57-8.94-6.96-16.13-15.86-24.42-23.53-5.38-5.83-13.57-11.27-12.72-20.34-1.38-6.95 4.07-12.1 8.22-16.74 87.63-87.38 174.97-175.06 262.6-262.43Z"/>
</svg>
