<svg width="1280" xmlns="http://www.w3.org/2000/svg" height="1280" viewBox="0 0 1024 1024">
<path d="m254.69,357.69c5.65-5.39 11.5-12.72 20.31-11.72 9.18,.6 15.13,8.92 21.3,14.73 71.71,71.85 143.44,143.67 215.36,215.31 73.34-73.78 147.14-147.1 220.55-220.8 4.66-4.95 10.54-9.74 17.84-9.21 6.69-.64 11.39,5.04 15.77,9.18 8.77,9.21 18.26,17.73 26.73,27.23 3.81,4.1 5.37,10.38 3.71,15.74-3.39,8.34-11.01,13.75-16.99,20.12-84.04,83.96-168.03,167.97-252,252.01-3.97,3.7-8.2,8.51-14.31,7.77-7.28,1.64-12.91-3.8-17.74-8.26-82.93-83.07-165.97-166.03-248.98-249.03-6.5-6.83-14.47-12.73-18.65-21.38-.85-5.43-2.16-12.12 2.53-16.29 7.46-9.14 16.49-16.83 24.57-25.4Z"/>
</svg>
