<svg width="1280" xmlns="http://www.w3.org/2000/svg" height="1280" viewBox="0 0 1024 1024">
<path d="m623.35,228.37c5.59-2.06 12.8-2.43 17.53,1.79 9.22,7.36 16.83,16.48 25.42,24.54 5.02,5.51 12.66,10.77 11.66,19.3 .73,5.51-2.39,10.2-6.19,13.77-74.62,74.61-149.31,149.15-223.81,223.88 71.81,71.31 143.11,143.15 214.83,214.56 5.59,5.82 12.44,11.07 15.09,19.02 .12,4.18 .73,9.11-1.89,12.75-7.14,10.04-16.79,17.89-25.18,26.84-6.06,5.68-12.47,13.42-21.78,12.14-8.73-1.19-14.34-9.03-20.33-14.66-85.38-85.62-171-171.01-256.44-256.56-8.39-6.64-8.6-20.91-.03-27.51 85.53-85.47 171.03-170.96 256.5-256.5 4.85-4.43 8.75-10.18 14.62-13.36Z"/>
</svg>
