<svg width="1280" xmlns="http://www.w3.org/2000/svg" height="1280" viewBox="0 0 1024 1024">
<path d="m262.7,239.7c5.75-5.48 11.4-13.24 20.35-12.72 7.28-1.08 12.75,4.93 17.69,9.28 81.52,81.48 163,163 244.51,244.49 7.1,7.24 14.93,13.87 20.74,22.27 2.76,3.97 2.09,9.28 1.92,13.84-2.95,7.43-9.84,12.22-15.13,17.92-85.06,84.94-170.04,169.96-255.01,255-5.28,6.22-14.59,9.58-22.11,5.56-7.97-5.16-14.18-12.5-20.95-19.05-5.23-5.44-10.94-10.49-15.51-16.51-4.64-6.46-4.65-16.51 1.6-21.97 75.03-75.41 150.54-150.35 225.53-225.79-74.51-74.94-149.41-149.5-224.09-224.26-6.62-5.84-8.59-16.44-3.07-23.64 6.96-8.94 15.85-16.13 23.53-24.42Z"/>
<path d="m490.8,231.8c6.94-7.64 20.28-6.02 26.43,1.96 88.39,88.28 176.65,176.71 265.06,264.97 4.97,5.3 7.78,13.87 4,20.58-5.63,8.82-13.82,15.5-21.04,22.94-82.49,82.51-165.02,164.98-247.48,247.52-5.04,5.55-13.34,9.21-20.68,6.17-7.94-3.55-13.18-10.87-19.36-16.67-6.03-6.3-12.65-12.03-18.35-18.63-4.98-5.9-5.72-15.7-.24-21.53 5.98-7.62 13.38-13.94 20.11-20.86 68.66-68.78 137.55-137.33 206.08-206.23-71.02-71.43-142.38-142.52-213.61-213.74-6.66-7.2-16.33-13.34-16.64-24.29 .41-8.71 7.6-14.09 13.11-19.79 7.69-7.32 14.83-15.19 22.61-22.4Z"/>
</svg>
