<svg width="1280" xmlns="http://www.w3.org/2000/svg" height="1280" viewBox="0 0 1024 1024">
<path d="m500.21,240.21c5.9-5.55 11.4-14.23 20.8-13.18 7.35-.96 12.4,5.27 17.3,9.65 8.35,8.64 17.18,16.82 25.3,25.69 6.88,6.79 5.77,19.51-1.84,25.4-74.62,74.6-149.3,149.16-223.82,223.87 74.3,73.84 148.15,148.13 222.33,222.09 6.25,5.69 10.35,14.75 6.46,23-7.03,10.73-17.25,18.77-25.93,28.09-6.07,5.67-12.46,13.44-21.78,12.13-8.73-1.17-14.34-9.03-20.33-14.65-85.37-85.63-171-171-256.44-256.56-8.39-6.64-8.61-20.91-.03-27.51 86.01-85.98 172.06-171.94 257.98-258.02Z"/>
<path d="m726.28,233.28c6.05-7 17.87-9.08 25.01-2.57 10.88,9.37 21.09,19.61 30.67,30.32 5.19,5.12 7.6,13.52 4.31,20.28-5.59,8.84-13.81,15.5-21.02,22.94-69.18,69.27-138.54,138.36-207.61,207.74 71.07,71.39 142.4,142.52 213.64,213.73 5.84,6.45 14.41,11.78 16.13,20.92 2.22,12.33-9.98,19.76-17.14,27.63-8.57,7.36-14.9,18.2-25.92,22.14-8.41,2.93-15.6-3.19-21.13-8.62-86.95-87.05-173.94-174.07-261.01-261-5.45-5.13-8.94-13.38-6.14-20.68 3.1-7.36 9.8-12.24 15.14-17.9 85.11-84.89 169.98-170.03 255.07-254.93Z"/>
</svg>
