<svg width="1280" xmlns="http://www.w3.org/2000/svg" height="1280" viewBox="0 0 1024 1024">
<path d="m493.22,356.22c5.15-4.47 10.18-10.92 17.83-10.26 6.28-1.08 11.48,3.3 15.73,7.25 85.46,85.54 170.92,171.08 256.52,256.49 4.64,5.04 10.85,9.35 12.67,16.34 2.4,5.86 0,12.47-4.05,16.92-5.65,6.96-12.41,12.9-18.64,19.32-6.01,5.75-11.52,12.56-19.51,15.64-12.68,2.95-20.68-8.56-28.55-16.14-71.26-71.3-142.44-142.68-213.89-213.79-74.33,74.78-149.12,149.11-223.55,223.79-3.56,3.75-8.33,6.78-13.78,6.18-8.04,1.12-13.2-5.78-18.32-10.65-8.25-8.73-17.25-16.74-25.26-25.69-4.18-3.94-3.79-10.27-3.3-15.45 3.21-8.7 10.94-14.43 17.1-20.95 83.05-82.95 166.05-165.96 249-249Z"/>
</svg>
