<svg width="1280" xmlns="http://www.w3.org/2000/svg" height="1280" viewBox="0 0 1024 1024">
<path d="m654.05,42.1c13.22-2.15 26.74-.92 40.09-1.06 3.38,28.47-3.01,56.92-12.53,83.6-9.7,28.27-25.96,53.94-45.85,76.12-14.74,17.1-32.23,31.92-51.84,43.13-24.22,13.86-52.71,15.92-79.91,18.24 1.18-35.18 7.07-70.61 21.04-103.1 10.99-25.47 25.67-49.85 45.91-69.06 23.59-21.99 52.61-37.7 83.09-47.87Z"/>
<path d="m608.33,263.54c27.5-8.76 55.8-15.64 84.7-17.33 33.53-1.76 67.52,4.65 98.04,18.7 36.55,16.23 66.49,44.36 91.29,75.23-25.62,23.07-52.24,46.07-70.32,75.88-31.47,48.51-39.19,110.36-25.06,165.99 8.66,35.06 26.89,67.31 50.64,94.36 19.19,22.54 44.43,39.87 72.4,49.59-11.49,35.15-26.65,69.05-44.77,101.28-19.13,32.66-39.68,64.73-65.03,92.97-20.95,23.8-46.43,45.07-76.91,55.17-25.78,8.74-53.79,4.1-79.25-3.5-23.8-5.89-46.07-16.67-70.05-21.88-27.61-6.66-56.96-8.83-84.68-1.67-18.31,3.98-35.72,10.94-53.04,17.93-22.71,8.8-46.6,16.37-71.25,15.57-19.15-.43-37.48-7.62-53.93-16.99-33.23-19.78-59.01-49.53-81.3-80.64-41.39-59.73-73.53-125.93-94.52-195.51-23.01-79.36-29.53-165.03-9.29-245.7 10.92-43.67 30.98-85.37 60.42-119.59 23.82-28.68 55.25-51.52 90.84-63.08 22.16-7.11 45.52-10.04 68.75-9.39 25.71-.09 50.94,5.44 75.82,11.34 30.72,7.96 60.99,18.36 92.62,22.14 12.54,1.75 24.98-1.15 37.13-3.89 19.3-4.28 38.07-10.55 56.75-16.98Z"/>
</svg>
