<svg width="1280" xmlns="http://www.w3.org/2000/svg" height="1280" viewBox="0 0 1024 1024">
<path d="m67.43,73.6c14.83-1.22 29.72-.49 44.57-.6 276.67-.04 553.34,.08 830.01-.06 7.64,.41 15.92-.55 22.99,3.08 12.7,5.64 22.9,18.49 21.94,32.94 .23,46.68-.09,93.37 .13,140.05-.42,7.33 .56,15.28-3.08,21.99-5.54,12.21-18.27,21.38-31.95,20.94-283.34,.15-566.69,0-850.04,.08-11.63-.06-23.28,.48-34.89-.39-17.4-2.16-30.66-18.75-30.65-36.05-1.14-43.17-.08-86.39-.51-129.59 .55-10.59-.96-22.17 4.18-31.93 5.11-10.61 15.46-19.02 27.3-20.46Z"/>
<path d="m103.43,329.57c14.82-1.17 29.71-.46 44.57-.57 255.01-.02 510.03,.05 765.04-.04 12.63-.53 25.36,6.24 31.91,17.08 5.39,7.09 5.81,16.4 6.04,24.93 .06,180.02-.07,360.04 .07,540.05 1.12,16.61-10.26,33-26.15,37.85-8.48,1.95-17.27,1.88-25.9,2.12-260.01,.04-520.01-.03-780.02,.04-9.86-.03-20.34-.5-28.78-6.25-8.92-6.13-16.02-15.84-16.83-26.9-.95-13.28-.28-26.6-.38-39.88-.03-170.01 .07-340.02-.06-510.02-1.36-18.04 12.44-35.99 30.49-38.41m328,110c-17.84,3.2-32.1,21.83-28.96,40.02 1.9,17.5 18.12,31.63 35.52,32.3 41.66,.39 83.34-.12 125.01,.19 10.7-.2 21.61,.54 32.12-1.93 10.62-2.96 19.55-11.13 23.75-21.29 6.68-15.18 .97-34.7-13.13-43.6-11.36-8.6-26.47-5.94-39.74-6.34-44.85,.61-89.75-.81-134.57,.65Z"/>
</svg>
