<svg width="1280" xmlns="http://www.w3.org/2000/svg" height="1280" viewBox="0 0 1024 1024">
<path d="m479.65,11.64c3.3-3.31 6.97-7.51 12.34-6.49 14.92-.54 29.85-.17 44.78,.02 45.92,46.09 91.93,92.11 138.03,138.03 8.37,8.27 18.44,17.11 19.55,29.62 3.57,20.38-14.24,42.05-35.31,41.09-24.67,.46-49.36-.13-74.03,.1-.02,195.33-.02,390.65 0,585.98 26.88,.4 53.8-.79 80.66,.5 14.78,2.79 27.26,16.02 28.68,31.12 2.48,11.64-3.37,23.21-11.56,31.16-48.74,48.61-97.36,97.34-146.05,145.99-12.51,12.73-34.9,13.9-48.02,1.54-17.37-15.26-33.06-32.31-48.96-49.06-33.49-33.51-67.04-66.97-100.52-100.5-12.54-11.51-13.57-32.5-3.18-45.7 5.83-8.4 15.44-14.89 25.95-14.81 25.34-.94 50.71,.39 76.05-.31 1.64-10.23 .9-20.63 1.01-30.92-.32-184.89 .28-369.79-.3-554.67-27.13-1.09-54.33,.65-81.44-.86-14.67-3.24-26.38-16.75-28.17-31.59-.79-9.45 1.35-19.59 8.26-26.49 20.51-21.79 42.81-41.88 62.9-64.08 26.28-26.72 53.11-52.89 79.33-79.67Z"/>
</svg>
