<svg width="1280" xmlns="http://www.w3.org/2000/svg" height="1280" viewBox="0 0 1024 1024">
<path d="m490.45,73.5c71.11-3.8 143.19,9.92 207.55,40.5 65.75,31.05 124.12,78.17 167.04,136.97 45.86,62.01 75.53,136.16 82.89,213.07 3.94,44.38 3.55,89.59-5.47,133.36-12.89,67.85-43.27,131.99-85.88,186.2-39.87,51.07-91.55,92.69-149.56,121.44-61.81,31.7-131.75,46.34-201.04,45.23-75.3,.11-150.4-20.84-215.19-59.08-33.87-19.53-64.77-43.97-92.49-71.48-59.46-61.51-102.09-139.96-117.62-224.34-7.37-41.65-10.03-84.28-5.82-126.42 9.46-109.04 63.33-212.66 144.85-285.25 34.13-30.09 72.76-55.15 114.3-73.72 49.2-22.02 102.66-33.9 156.44-36.48m-5.2,153.74c-85.49,85.52-171.02,171-256.5,256.53-14.46,12.72-15.97,37.2-2.9,51.38 13.66,14.33 28.05,27.95 41.88,42.12 6.88,6.82 13.28,14.52 22.15,18.88 13.96,5.83 31.6,3.2 41.87-8.4 35.77-35.59 71.21-71.52 107.15-106.94 .28,95.74-.05,191.49 .14,287.23-.91,19.55 17.53,37.18 36.92,36.01 23.35-.05 46.71,.05 70.07-.07 13.06,1.14 26.25-5.81 32.97-16.96 5.3-7.15 5.78-16.46 6-24.99 .12-93.42-.2-186.84 .14-280.25 34.85,34.5 69.37,69.35 104.11,103.98 8.53,8.72 20.68,15.99 33.34,13.78 10.36-.98 19.09-7.6 26.21-14.74 12.95-13.05 25.91-26.09 38.99-39.01 5.99-6.07 12.52-12.06 15.85-20.11 3.52-7.8 2.75-16.59 1.51-24.79-2.46-10.59-11.67-17.73-18.87-25.17-82.56-82.44-165.04-164.97-247.51-247.5-13.25-15.44-39.66-15.71-53.52-.98Z"/>
</svg>
