<svg width="1280" xmlns="http://www.w3.org/2000/svg" height="1280" viewBox="0 0 1024 1024">
<path d="m471.18,21.18c5.76-5.42 10.74-12.16 17.86-15.82 15.46-1.18 31.12-1.01 46.59,.28 7.25,4.42 12.62,11.21 18.68,17.06 43.34,43.66 87.03,86.98 130.44,130.57 12.09,11.65 13.57,32.46 3.17,45.67-6.18,8.42-16.03,15.41-26.9,14.91-25.27,.7-50.56-.34-75.83,.44-.45,73.23-.08,146.47-.18,219.7 73.25-.16 146.5,.38 219.75-.28 .74-25.55-.44-51.13 .52-76.68-.26-10.54 6.53-20.01 14.78-25.94 12.98-10.24 33.44-9.03 45.15,2.67 48.62,48.39 96.93,97.1 145.62,145.43 6.23,6.13 11.43,13.61 13.17,22.3v11.02c-1.74,8.69-6.94,16.17-13.17,22.3-48.69,48.33-97,97.04-145.62,145.43-11.71,11.7-32.17,12.91-45.15,2.67-8.25-5.94-15.04-15.4-14.78-25.94-.96-25.55 .22-51.13-.52-76.68-73.25-.66-146.5-.12-219.75-.28 .1,73.23-.27,146.47 .18,219.7 25.27,.77 50.56-.26 75.83,.44 10.87-.5 20.72,6.48 26.9,14.91 10.4,13.2 8.92,34.02-3.17,45.67-45.42,45.58-91.09,90.93-136.45,136.57-6.96,6.73-13.16,14.73-22.13,18.92-7.04,2.66-14.81,3.07-22.19,1.9-7.91-1.37-14.18-6.95-19.79-12.29-45.92-46.09-91.85-92.17-138.04-137.98-7.45-7.24-15.66-15.5-16.52-26.46-3.32-17.6 9.27-35.94 26.24-40.47 27.53-2.31 55.24-.1 82.84-1.16 .66-73.25 .12-146.5 .28-219.75-73.23,.1-146.47-.27-219.7,.18-.78,25.27 .26,50.56-.44,75.83 .5,10.87-6.49,20.72-14.91,26.9-13.21,10.4-34.02,8.92-45.67-3.17-48.11-47.89-95.86-96.16-144.13-143.9-6.83-6.21-12.17-14.24-14.14-23.34v-11.02c1.74-7.64 5.62-14.76 11.17-20.3 48.64-48.37 97.09-96.94 145.55-145.49 6.74-7.19 16.29-11.87 26.28-11.47 19.96-.63 38.59,18.55 36.03,38.74 .26,23.61-.39,47.23 .26,70.84 73.23,.45 146.47,.07 219.7,.18-.16-73.25 .38-146.5-.28-219.75-27.6-1.07-55.31,1.15-82.84-1.16-16.69-4.46-29.18-22.29-26.38-39.64 .47-9.25 6.45-16.91 12.67-23.26 43.12-42.89 86.14-85.87 129.02-129Z"/>
</svg>
