<svg width="1280" xmlns="http://www.w3.org/2000/svg" height="1280" viewBox="0 0 1024 1024">
<path d="m490.45,73.5c64.54-3.41 129.92,7.46 189.55,32.51 63.98,26.71 121.63,68.59 166.57,121.4 48.75,58.13 83.54,128.51 96.72,203.44 13.17,75.81 8.62,155.29-17.52,227.93-23.51,65.67-62.85,125.55-113.56,173.42-46.42,43.23-102.15,76.46-162.27,96.69-42.51,13.92-87.21,20.94-131.91,21.44-66.76,1.69-133.71-12.81-194-41.41-71.12-34.11-133.71-86.79-177.07-152.89-22.27-33.18-40.32-69.27-52.61-107.32-13.41-40.18-19.69-82.47-21.28-124.7-1.54-46.61 4.62-93.36 17.69-138.11 29.91-99.66 96.17-188.24 184.24-243.88 63.88-41.87 139.25-65.17 215.45-68.52m4,128.08c-89.99,3.73-176.6,50.47-230.46,122.41-46.33,60.3-69.16,138.17-61.77,213.94 5.16,75.64 40.95,148.06 96.03,199.82 57.15,54.22 135.64,86.58 214.75,84.36 91.9,1.47 182.57-42.73 239.95-114.16 44.86-54.97 71.02-125.74 69.16-196.95 .52-28.13-3.58-56.18-10.71-83.34-20.02-70.82-65.91-134.14-127.38-174.69-55.19-37.43-123.03-55.8-189.57-51.39Z"/>
<path d="m455.84,292.71c32.01-1.7 64.12-.2 96.17-.78 9.52,.77 21.41-1.76 28.52,6.5 4.71,4.5 4.32,11.6 4.48,17.54 .03,65.34-.07,130.67 .01,196.01 36.67,.17 73.35-.17 110.02,.06 10.74-1.09 20.09,10.08 17.54,20.53-1.12,8.55-8.8,13.87-14.28,19.73-27.76,27.9-56.17,55.19-83.04,83.96-28.49,28.51-57.07,56.93-85.45,85.55-4.94,4.62-10.52,9.89-17.86,9.21-6.3,1.1-11.47-3.3-15.72-7.23-58.96-59.05-117.95-118.07-177.02-177.01-3.38-4.03-8.08-7.88-8.63-13.43-.96-7.08 2.08-14.65 7.75-18.98 4.25-2.92 9.81-1.89 14.64-2.38 35.23-.27 70.47,.5 105.7-.32 .81-66.89 .04-133.8 .35-200.7-1.16-9.56 7.15-18.68 16.82-18.26Z"/>
</svg>
