<svg width="1280" xmlns="http://www.w3.org/2000/svg" height="1280" viewBox="0 0 1024 1024">
<path d="m490.45,73.5c76.32-4.11 153.75,12.09 221.57,47.46 54.95,28.24 104.11,68.01 142.63,116.37 48.35,60.85 81.45,134.34 91.43,211.65 4.56,30.39 4.48,61.21 3.59,91.86-4.51,81.07-33.32,160.29-80.64,226.15-53.62,75.98-132.54,133.16-220.65,162.42-42.36,13.69-86.86,20.52-131.35,20.86-77.74,1.92-155.81-18.26-223.06-57.21-60.76-34.74-113.46-83.87-150.95-143.07-36.46-55.63-59.87-119.85-66.95-186.04-11.41-92.37 7.25-188.36 53.77-269.07 27.4-47.6 63.19-90.56 106.12-124.92 36.26-28.78 76.61-52.73 120.04-68.96 42.87-16.6 88.62-25.11 134.45-27.5m4.01,128.08c-35.5,1.79-70.73,9.47-103.43,23.48-36.76,15.49-70.22,38.42-98.8,66.17-25.27,26.02-46.9,55.82-62.21,88.78-19.9,41.96-29.94,88.56-29.03,135 .81,36.43 6.59,73.05 19.87,107.1 14.36,37.75 36.3,72.67 63.9,102.13 52.1,55.83 125.22,91.93 201.55,97.43 25.97,.92 52.14,1.03 77.83-3.48 70.29-11.38 136-48.72 182.41-102.62 48.78-56 77.51-130.03 75.55-204.57 .53-28.13-3.57-56.18-10.7-83.34-20.33-71.98-67.41-136.21-130.39-176.66-54.57-36.22-121.23-53.7-186.55-49.42Z"/>
<path d="m481.22,315.21c7.3-6.84 21.3-5.83 26.77,2.79 4.36,4.58 3.8,11.17 4.03,16.97 .08,34.67-.13,69.35 0,104.02 66.66,.09 133.33-.11 200,.06 9.96-1.33 19.87,7.87 18.94,17.91 .03,36.67 .23,73.36-.1,110.03 .94,10.21-9.04,18.68-18.88,17.85-66.64,.44-133.3-.02-199.95,.19-.15,36.67 .09,73.34-.01,110.01-.17,7.65-5.15,15.31-12.89,17.15-8.16,2.89-16.25-1.89-21.9-7.41-59.45-59.55-118.99-119.02-178.48-178.52-5.77-4.89-6.8-13.02-5.6-20.11 2.49-6.86 8.74-11.28 13.55-16.45 58.26-58.07 116.39-116.28 174.52-174.49Z"/>
</svg>
