<svg width="1280" xmlns="http://www.w3.org/2000/svg" height="1280" viewBox="0 0 1024 1024">
<path d="m462.24,110.25c26.28-26.3 73.83-25.58 99.98,.52 120.56,120.44 241,241.01 361.54,361.47 8.79,8.92 18.65,17.28 24.33,28.71 10.79,20.1 12.09,45.46 1.88,66.05-7.95,17.33-23.36,29.27-36.23,42.74-12.36,11.62-22.95,25.63-38.1,33.86-21.6,11.58-49.23,11.4-70.59-.63-15.17-9.83-25.86-24.87-39.7-36.33-47.98-47.4-95.35-95.42-143.23-142.92-.3,130.1-.01,260.2-.14,390.29-.05,16.36-1.1,34.11-11.22,47.77-8.84,11.7-20.94,21.42-35.06,25.84-13.23,5.26-27.79,4.18-41.7,4.45-21.66-.33-43.32,.37-64.97-.27-25.05-1.12-50.55-15.41-61.06-38.78-4.67-9.22-5.89-19.8-5.98-30-.05-133.07 .13-266.14-.08-399.21-9.9,9.8-19.91,19.5-30.16,28.94-44.97,45.02-90.06,89.94-134.95,135.05-8.51,8.87-18.56,16.86-30.43,20.61-15.87,4.97-33.56,5.27-49.22-.58-19.37-7.39-32.43-24.14-46.89-38.09-12.18-12.81-26.58-23.99-35.14-39.8-6.55-11.05-8.76-24.23-8.21-36.94-.36-18.64 8.97-36.26 21.82-49.26 124.53-124.47 249.02-248.99 373.51-373.49Z"/>
</svg>
