<svg width="1280" xmlns="http://www.w3.org/2000/svg" height="1280" viewBox="0 0 1024 1024">
<path d="m174.28,329.9c11.42-2.55 24.73,.1 33.01,8.82 6.72,6.18 12.04,14.83 11.55,24.26 .68,25.2-.1,50.41 .08,75.61 33.35,.99 66.72,.13 100.08,.41 153.33,.02 306.67-.05 460,.04 8.68-.08 17.36-.3 26.05-.67 .28-25.45-.72-50.9 .25-76.33-.37-11.13 7.18-20.71 15.8-26.9 9.62-7.37 23.24-7.62 34.25-3.5 6.21,3.07 11.49,7.76 16.44,12.57 41.94,42.05 83.93,84.07 125.99,126.01 10.37,10.57 23.08,20.78 26.22,36.07v11.27c-2.22,8.72-7.49,16.34-13.68,22.74-46.56,46.44-93.18,92.84-139.46,139.56-7.27,7.5-16.43,14.51-27.34,14.63-18.96,2.05-38.26-14.33-38.29-33.53-.8-25.3 .07-50.63-.25-75.94-195.32-.03-390.64-.03-585.96,0-.29,25 .43,50.01-.13,75 .21,17.74-15.77,33.76-33.38,34.42-11.11,1.56-21.63-3.98-29.27-11.66-47.53-47.47-94.88-95.15-142.59-142.44-6.31-6.31-11.32-14.13-13.65-22.77v-11.28c2.06-9.05 7.03-17.18 13.77-23.51 45.39-45.61 91.09-90.93 136.42-136.6 6.97-6.76 14.2-14.14 24.09-16.28Z"/>
</svg>
