<svg width="1280" xmlns="http://www.w3.org/2000/svg" height="1280" viewBox="0 0 1024 1024">
<path d="m490.45,73.48c66.33-3.46 133.55,8.11 194.54,34.55 86.32,37.06 160.49,102.26 207.1,183.94 17.71,30.28 31.67,62.7 41.62,96.34 19.46,70.01 22.85,144.85 7.68,216.03-14.36,68.34-46.14,132.74-90.47,186.59-48.12,58.62-111.78,104.31-182.63,131.33-50.91,19.63-105.78,28.8-160.29,27.81-144.05,1.8-285.05-76.52-363.02-197.05-36.11-54.42-60.06-117.1-68.04-182-6.2-46.75-5.44-94.51 3.31-140.88 18.86-103.49 77.52-198.87 160.17-263.7 30.26-23.46 63.31-43.45 98.54-58.51 47.78-20.86 99.5-31.85 151.49-34.45m14.15,144.06c-8.4,.84-15.36,6.18-21.36,11.71-81,80.99-161.98,162.02-243,242.99-8.07,8.28-17.79,15.91-22.01,27.05-3.58,12.44-2,27.45 7.52,36.95 86.48,86.52 173.02,172.99 259.49,259.52 13.79,15.01 40.02,13.71 53.57-.95 16.76-17.23 34.21-33.79 50.79-51.19 13.52-13.73 12.6-37.94-.91-51.32-35.47-35.89-71.48-71.24-106.88-107.18 95.39-.41 190.79,.21 286.17-.29 19.62,.44 38.13-17.85 36.01-37.8-.27-26.79 .82-53.64-.62-80.39-3.57-16-19.76-28.89-36.35-27.72-95.21-.04-190.43,.46-285.64-.24 35.78-37.29 73.19-73.02 109.25-110.04 12.45-12.65 12.31-34.67 .07-47.35-17.86-18.13-35.99-36.02-53.94-54.06-8.1-8.66-20.7-11.8-32.16-9.69Z"/>
</svg>
