<svg width="1280" xmlns="http://www.w3.org/2000/svg" height="1280" viewBox="0 0 1024 1024">
<path d="m100.98,73.95c5.6-1.01 11.34-.82 17.01-1.01 81.68,.16 163.36-.03 245.04,.09 10.39-.63 21.43,2.4 28.53,10.4 6.87,8.19 11.54,18.63 11.33,29.48-.89,8.92-5.91,16.66-12.1,22.87-27.28,27.27-54.68,54.44-81.82,81.86 67.87,67.37 135.15,135.33 203.03,202.69 64.3-63.81 128.06-128.16 192.31-192.02 3.27-3.65 7.81-6.52 9.75-11.2-28.06-29.61-57.84-57.63-86.21-86.96-17.67-21.61 2.05-59.42 30.11-57.08 85.02-.2 170.05,.03 255.08-.11 13.42-.61 26.73,7.15 32.97,19.02 5.48,8.58 4.65,19.3 5.05,29.01-.09,80.01-.1,160.01 0,240.02 .15,9.75-1.27,20.36-8.36,27.71-12.5,15.98-39.43,18.3-53.45,3.04-27.55-27.56-55.15-55.07-82.61-82.73-67.82,67.48-135.4,135.21-202.99,202.92 67.28,67.63 134.78,135.06 202.35,202.4 23.4-23.05 46.49-46.41 69.73-69.62 7.06-6.92 13.6-14.62 22.06-19.92 12.89-7 29.07-3.53 40.18,5.23 10.92,7.41 13.24,21.71 12.99,33.94 .09,83.34 .03,166.7 .03,250.05-.07,15.28-10.74,29.79-25.13,34.76-7.73,2.2-15.91,2.03-23.85,2.26-78.34-.07-156.68-.1-235.02,.01-9.76-.18-20.79,.22-28.9-6.2-14.92-10.23-22.67-32.99-12.09-48.86 6.67-9.21 15.33-16.67 23.25-24.75 21.67-21.77 43.55-43.35 65.1-65.24-67.31-67.59-134.78-135.03-202.34-202.36-67.79,67.53-135.47,135.18-202.98,202.99 25.71,25.4 51.06,51.16 76.78,76.55 5.42,5.57 11.51,10.98 14.85,18.14 5.63,14.61-1.04,31.19-11.84,41.5-9.64,7.94-22.96,8.27-34.81,8.21-81.68-.16-163.36,.11-245.03-.12-18.59-.5-36.24-16.83-35.79-35.93-.52-85 .06-170.02-.28-255.02-.55-12.44 4.97-25.66 16.08-32.02 11.65-7.75 28.42-10.08 39.93-.87 11.32,9.63 21.1,20.9 31.83,31.17 19.11,18.67 37.38,38.24 56.99,56.39 67.63-67.45 135.2-134.97 202.61-202.63-67.53-67.79-135.18-135.47-202.99-202.98-27.47,27.64-55.03,55.2-82.63,82.7-10.03,10.19-26.68,13.44-39.6,7.17-9.16-4.21-17.78-11.49-20.52-21.54-1.76-6.64-1.52-13.56-1.69-20.35 .23-83.35-.07-166.7 .13-250.05 .78-15.59 12.86-29.48 27.93-33.01Z"/>
</svg>
