<svg width="1280" xmlns="http://www.w3.org/2000/svg" height="1280" viewBox="0 0 1024 1024">
<path d="m406.84,134.88c10.6-25.98 36.6-46.36 65.2-46.62 26.63-.5 53.29-.43 79.93-.07 27.49,.5 52.32,19.74 63.63,44.17 6.18,13.64 5.91,28.99 6.38,43.63 .13,128.73-.16,257.47 .14,386.2 50.39-49.96 100.39-100.32 150.63-150.44 11.5-11.27 22.2-24.08 37.24-30.82 21.37-9.68 47.67-9.05 67.91,3.21 14.36,8.5 24.91,21.73 36.84,33.12 11.97,12.7 26.62,23.57 34.23,39.74 14.07,26.51 9.6,61.83-11.74,83.22-101.94,102.06-203.99,204.01-305.98,306.03-14.99,14.36-28.51,30.14-43.5,44.5-15.26,14.88-29.3,32.37-49.89,40.12-24.87,8.87-55.44,4.97-74.59-14.15-121.57-121.42-242.98-243.01-364.54-364.45-9.64-9.76-20.45-19.17-25.96-32.06-11.3-25.8-6.95-58.16 12.61-78.84 15.17-15.83 30.98-31.03 46.35-46.65 26.33-26.38 73.91-27.73 100.5-.96 56.63,56.41 112.91,113.17 169.67,169.45 .22-125.07 .06-250.14 .08-375.21 .25-17.71-1.8-36.24 4.86-53.12Z"/>
</svg>
