<svg width="1280" xmlns="http://www.w3.org/2000/svg" height="1280" viewBox="0 0 1024 1024">
<path d="m490.45,73.5c71.84-3.85 144.71,10.2 209.56,41.48 55.99,26.67 106.35,65.2 146.56,112.43 48.75,58.13 83.54,128.51 96.72,203.44 13.39,77.05 8.47,157.91-18.84,231.48-23.59,64.3-62.47,122.86-112.24,169.88-41.28,38.47-89.97,68.95-142.51,89.5-40.31,15.85-83.22,24.65-126.38,27.67-37.3,2.18-74.97,1.09-111.76-5.8-111.4-20.11-213.68-85.86-278.58-178.55-24.11-34.74-44.13-72.51-57.42-112.72-14.21-41.24-20.87-84.8-22.49-128.3-1.54-46.61 4.62-93.36 17.69-138.11 29.91-99.66 96.17-188.24 184.24-243.88 63.88-41.87 139.25-65.17 215.45-68.52m4.01,128.08c-35.5,1.79-70.73,9.47-103.43,23.48-36.76,15.49-70.22,38.42-98.8,66.17-33.04,33.85-59.5,74.55-74.67,119.48-14.88,42.35-19.58,88.03-14.87,132.61 5.84,68.05 36.57,133.14 83.54,182.45 52.35,55.41 125.6,91 201.82,95.99 26.9,.95 53.99,.68 80.52-4.3 74.01-13.21 142.45-55.05 188.37-114.51 42.42-54.2 66.97-122.89 65.17-191.95 .46-31.09-4.3-62.19-13.23-91.94-22.52-71.24-71.17-134.05-135.21-172.72-53.12-33.05-116.8-48.85-179.21-44.76Z"/>
<path d="m512.13,328.01c-.95-9.31 7.72-17.61 16.9-17.01 8.28-1.3 14.34,5.07 19.75,10.21 57.95,58.05 115.94,116.08 174.02,174 3.97,4.45 9.05,9.24 8.28,15.84 1.37,7.41-4,13.42-8.76,18.26-32.64,32.36-65.04,64.97-97.57,97.44-28.07,27.93-55.7,56.33-84.6,83.39-7.77,5.55-20.12,2.93-25.14-5.14-3.67-4.15-2.63-9.96-3.05-14.97-.03-35 .14-70 .01-105-66.67-.14-133.34,.1-200.01-.08-10.14,.78-19.82-8.02-19.54-18.31-1.08-31.53-.05-63.11-.49-94.65 .49-9.7-1.47-21.96 7.22-28.81 3.91-4.59 10.39-4.1 15.82-4.21 65.57-.15 131.15,.41 196.72-.25 .88-36.9-.17-73.81 .44-110.71Z"/>
</svg>
