<svg width="1280" xmlns="http://www.w3.org/2000/svg" height="1280" viewBox="0 0 1024 1024">
<path d="m486.25,86.26c21.7-20.99 57.33-25.9 83.76-11.21 9.97,5.6 18.31,13.56 26.28,21.67 11.41,11.58 22.97,23.02 34.51,34.48 22.21,21.07 27.71,57.31 13.69,84.36-7.99,14.98-20.98,26.27-32.74,38.19-49.32,49.4-98.8,98.64-148.02,148.13 135.1,.29 270.2,.02 405.29,.13 21.82,.87 42.66,13.69 52.81,33.1 14.54,23.57 9.27,52.67 10.16,78.89-.88,20.51 2.91,41.97-4.39,61.7-4.16,13.74-13.66,25.3-24.59,34.31-14.99,11.6-34.97,11.58-53,11.97-128.73,.13-257.47-.15-386.2,.14 48.18,48.82 97.18,96.86 145.29,145.76 12.06,14.91 29.44,25.67 37.22,43.8 10.31,24.98 7.27,56.69-12.12,76.51-16.4,16.27-31.61,33.71-48.55,49.44-21.89,21.48-58.18,25.31-84.69,10.44-6.86-3.44-12.74-8.52-18.22-13.81-122.97-123.03-246-246-368.99-369.01-9.8-10.07-18.06-22.29-20.76-36.3-2.61-12.01-3.12-24.78 .5-36.64 3.92-15.79 14.39-28.87 25.72-40.1 15.8-15.53 31.11-31.58 47.52-46.48 106.56-106.44 212.99-213.01 319.52-319.47Z"/>
</svg>
