<svg width="1280" xmlns="http://www.w3.org/2000/svg" height="1280" viewBox="0 0 1024 1024">
<path d="m490.45,73.5c73.32-3.89 147.75,10.75 213.57,43.46 75.27,36.65 140.04,95.06 183.03,167.01 42.9,69.08 64.71,150.78 63.03,232.03 1.68,144.79-77.67,286.17-199.13,363.97-53.17,34.6-113.76,58.13-176.81,66.24-35.3,4.85-71.13,5.09-106.61,2.39-81.4-7.66-160.06-39.47-224.53-89.6-55.92-42.54-100.21-99.52-129.98-163-19.92-42.42-32.44-88.25-37.27-134.85-10.73-91.5 8.05-186.38 54.09-266.27 27.39-47.6 63.19-90.56 106.12-124.92 36.26-28.78 76.61-52.73 120.04-68.96 42.87-16.6 88.62-25.11 134.45-27.5m4.01,128.08c-41.77,2.02-83.12,12.54-120.49,31.36-72.29,35.45-129.43,100.16-155.88,176.18-15.26,42.8-20.19,89.06-15.4,134.2 5.84,68.05 36.57,133.14 83.54,182.45 52.35,55.4 125.6,91.01 201.82,95.99 26.9,.95 53.99,.68 80.52-4.3 70.48-12.6 136.03-51.13 181.66-106.23 46.56-55.4 73.77-127.61 71.87-200.23 .53-28.13-3.57-56.18-10.7-83.34-20.33-71.98-67.41-136.21-130.39-176.66-54.57-36.22-121.23-53.7-186.55-49.42Z"/>
<path d="m496.74,299.74c4.9-5.76 12.7-8.04 20.1-6.61 5.33,1.81 9.5,5.72 13.45,9.57 59.36,59.64 119.07,118.94 178.4,178.6 9.31,9.5 3.34,28.54-10.13,30.13-37.81,1.44-75.7,.09-113.55,.59-.11,66.66 .12,133.33-.07,200 1.32,10.05-7.69,19.91-17.9,18.94-36.69,.11-73.38,.07-110.07,.02-9.54,1.26-18.68-7.38-17.81-16.99-.43-67.32 .01-134.66-.18-201.98-36.68-.12-73.35,.1-110.02,0-9.37-.11-18.98-8.05-17.9-18.02-.55-6.16 2.98-11.61 7.15-15.76 59.57-59.44 119.03-118.99 178.53-178.49Z"/>
</svg>
