<svg width="1280" xmlns="http://www.w3.org/2000/svg" height="1280" viewBox="0 0 1024 1024">
<path d="m440.18,84.16c22.02-20.03 57.25-23.13 82.85-8.18 10.98,6.26 19.3,16.02 28.23,24.76 116.49,116.51 232.98,233.02 349.5,349.5 8.7,8.94 18.88,17.21 24.15,28.82 12.9,26.55 8.79,61.35-12.17,82.68-124.98,125.02-250,250-374.98,375.02-21.51,21.27-57.08,26.38-83.76,12.23-11.63-5.69-20.69-15.25-29.78-24.21-10.85-11.15-22.15-21.86-32.91-33.09-11.99-12.55-19.49-29.34-20.14-46.74-1.86-20.55 6.7-41.18 21.11-55.67 55.56-55.8 111.45-111.27 166.94-167.14-131.74-.4-263.48,.11-395.22-.25-15.76,.06-32.43-2.64-45-12.89-17.1-13.26-27.19-34.52-27.74-56.04-.53-28.3-.37-56.62-.08-84.92 1.97-24.55 15.76-49.58 38.8-60.07 9.21-4.69 19.79-5.88 30-5.98 133.41-.05 266.82,.14 400.23-.09-50.79-51.24-102.01-102.07-152.96-153.15-11.56-11.88-25.25-22.75-31.26-38.77-5.72-15.53-7.01-33.03-1.87-48.92 4.48-16.91 17.56-29.46 29.61-41.33 12.23-11.78 23.58-24.47 36.45-35.57Z"/>
</svg>
