<svg width="1280" xmlns="http://www.w3.org/2000/svg" height="1280" viewBox="0 0 1024 1024">
<path d="m401.96,145.98c-.7-37.25 31.84-71.62 69.07-72.73 26.66-.59 53.33-.21 79.99-.22 28.64,.16 54.52,20.58 65.6,46.33 5.04,13.25 4.93,27.67 5.36,41.63 .1,53.35-.05,106.7 .03,160.05 51.84-29.38 103.26-59.47 155.07-88.89 24.54-12.65 55.83-9.64 77.71,7.06 9.72,7.14 16.36,17.43 22.28,27.74 7.31,12.97 15.02,25.71 22.4,38.64 6.4,11.14 14.13,21.86 17.33,34.5 9.81,30.77-4.32,67.31-32.58,83.12-50.92,29.5-101.85,58.97-152.78,88.45 43.18,25.6 86.87,50.36 130.24,75.66 15.5,9.28 33.15,16.87 43.99,32 10.4,14.25 14.64,32.2 14.24,49.64-1.24,14.15-7.31,27.32-14.64,39.3-11.97,19.78-22.97,40.16-35.32,59.72-15.5,24.7-47.66,35.49-75.56,29.64-12.95-2.62-24.07-10.21-35.41-16.57-45.73-25.93-91.05-52.58-136.82-78.43-.49,57.44 .16,114.9-.3,172.35-.08,14.9-3.92,30.08-12.42,42.45-8.74,12.33-20.6,22.69-34.7,28.4-16.53,6.1-34.45,5.09-51.74,5.23-16.96-.18-33.93,.28-50.87-.28-26.08-1.05-50.58-17.5-62.23-40.72-6.45-11.91-8.22-25.67-7.94-39.04 .05-56.32 .05-112.64 .04-168.97-49.64,28.72-99.39,57.23-149.11,85.8-24.78,16.15-59.3,14.68-83.14-2.58-8.75-6.31-15.52-14.92-20.72-24.28-11.69-20.84-24.27-41.18-35.93-62.04-10.56-18.52-11.98-41.65-4.65-61.59 5.36-15.83 17.11-29.13 31.54-37.37 50.64-29.54 101.67-58.44 152.09-88.36-44.64-25.97-89.43-51.67-134.04-77.68-11.07-6.38-22.63-12.21-32.24-20.75-15.77-14.66-23.01-36.98-21.76-58.19 .06-13.45 6.3-25.71 12.78-37.12 10.78-18.27 21.51-36.57 32.04-54.98 6.7-11.81 16.01-22.49 28.06-29.04 22.26-12.29 51-12.9 73.09,.14 50.6,29.11 101.14,58.36 151.86,87.28 .31-58.43 .06-116.87 .09-175.3Z"/>
</svg>
