<svg width="1280" xmlns="http://www.w3.org/2000/svg" height="1280" viewBox="0 0 1024 1024">
<path d="m496.69,73.68c3.65-1.89 8.71-2.11 11.94,.71 5.57,6.08 4.92,14.98 5.35,22.59 .06,132.68-.01,265.37 .03,398.05 3.58-4.4 7.22-8.76 11.22-12.8 134.86-134.81 269.72-269.63 404.5-404.52 3.88-3.22 8.61-6.18 13.92-5.43 3.72,1.76 6.98,5.18 7.64,9.37 1.72,9.68 1.58,19.55 1.75,29.35-.15,271.66 .1,543.34-.12,815-.91,7.87 .91,18.28-6.23,23.68-7.55,4.43-15.26-1.85-20.45-6.92-128.47-128.52-257-257-385.49-385.51-9.34-9.38-19.36-18.28-26.79-29.33 .04,135.03 .13,270.06-.04,405.09-.54,6.15-1.16,14.38-7.59,17.37-8.02,3.15-14.72-3.79-20.07-8.64-131.04-130.96-261.96-262.04-393.04-392.96-9.09-9.25-20.72-18.64-21.52-32.64-2.15-11.48 3.32-23.09 11.5-30.92 130.1-129.91 260.02-260 390.05-389.97 7.65-7.35 14.38-15.84 23.44-21.57Z"/>
</svg>
