<svg width="1280" xmlns="http://www.w3.org/2000/svg" height="1280" viewBox="0 0 1024 1024">
<path d="m482.45,72.55c35.8-1.54 71.95-1.14 107.22,5.85 40,7.37 78.97,20.37 115.35,38.57 32.15,15.64 62.66,34.89 89.93,58.08 58.95,49.1 102.71,115.1 129.24,186.82 14.34,38.05 22.09,78.33 25.19,118.8 1.88,38.42 .98,77.21-6.81,114.99-21.43,106.22-81.23,205.6-169.17,269.76-27.3,20.35-57.38,36.69-88.43,50.55-71.35,31.45-151.38,42.25-228.65,32.69-67.13-8.65-131.78-33.66-188.32-70.67-55.37-36.65-102.25-86.25-134.77-144.22-22.45-39.12-39.63-81.4-49.57-125.44-10.2-47.18-13.57-95.97-8.29-144.01 7.92-75.6 37.04-148.3 80.49-210.43 31.37-43.76 70.61-82.05 116.19-110.85 62.77-40.5 135.67-65.93 210.4-70.49m2.37,128.11c-46.73,3.6-92.48,18.24-132.49,42.68-73.96,43.76-127.85,119.85-144.93,204.05-9.19,42.35-8.13,86.54 .23,128.95 7.84,37.75 23.25,73.82 44.32,106.06 143.83-143.59 287.55-287.29 431.12-431.13-31.06-20.66-65.67-36.16-102.14-44.25-31.37-7.82-64.02-8.07-96.11-6.36m-71.07,501.09c-23.62,24.02-48.06,47.24-71.15,71.76 32.17,20.99 68.18,36.21 105.81,44.05 43.35,9.46 88.66,8.03 131.92-1.2 55.03-12.87 106.29-40.9 147.36-79.67 53.54-52.46 87.62-124.5 93.84-199.23 1.67-31.06 .58-62.42-6.06-92.88-7.55-36.25-22.65-70.67-42.69-101.72-119.82,119.49-239.33,239.28-359.03,358.89Z"/>
</svg>
