<svg width="1280" xmlns="http://www.w3.org/2000/svg" height="1280" viewBox="0 0 1024 1024">
<path d="m26.86,76.83c10.35-3.31 21.34-3.75 32.12-3.87 293.34,.07 586.68,.07 880.02-.01 19.29,.37 39.19-1.63 57.91,4.22 9.86,2.76 18.43,8.63 27.09,13.88v840.81c-7.46,5.59-15.5,10.68-24.38,13.69-21.08,7.22-43.74,5.2-65.62,5.49-291.67-.13-583.35,.06-875.02-.09-20.87,.17-42.53-4.99-58.98-18.36v-841.71c8.23-5.92 17.22-10.85 26.86-14.05m24.56,69.67c-5.67,.25-9.88,4.63-13.04,8.87-3.29,7.06-2.12,15.09-2.49,22.63 .37,226.66-.19,453.33 .28,679.99-.81,10.09 8.24,20.69 18.79,19.07 305.01-.25 610.03,.2 915.03-.22 11.25,.92 18.4-11.76 17.08-21.81-.29-230.01 .21-460.02-.24-690.02 .92-10.99-10.07-20.55-20.8-19.03-290.01,.04-580.02,.01-870.03,.02-14.86,.14-29.75-.6-44.58,.5Z"/>
<path d="m767.45,218.9c48.84,.22 97.69,.02 146.54,.11 .02,194.99 .02,389.98 0,584.98-49,.02-97.99,.02-146.99,0-.01-145 0-289.99 0-434.99 .34-50.03-.66-100.09 .45-150.1Z"/>
<path d="m329.01,292c48.66,0 97.32-.02 145.98,.01 .02,170.66 .02,341.32 0,511.99-48.66,0-97.32,.01-145.98-.01-.02-170.66-.02-341.32 0-511.99Z"/>
<path d="m548.01,439.01c49-.02 97.99-.02 146.99,0 0,121.66 .01,243.32-.01,364.98-49,.02-97.99,.02-146.99,0 0-121.66-.02-243.32 .01-364.98Z"/>
<path d="m109,585.01c49-.02 98-.03 147,0 0,72.99 0,145.99 0,218.98-49,.01-98,.02-147,0-.01-73 0-145.99 0-218.98Z"/>
</svg>
