<svg width="1280" xmlns="http://www.w3.org/2000/svg" height="1280" viewBox="0 0 1024 1024">
<path d="m0,110.02c12.02-.01 24.04,0 36.06-.06-.1,268.36-.1,536.72 0,805.08-12.02-.07-24.04-.05-36.06-.06v-804.96Z"/>
<path d="m53.97,110c6.02,.02 12.04,.01 18.05-.01-.03,268.01-.04,536.01 .01,804.01-6.02-.04-12.04-.02-18.05,.01 .03-268.01 .04-536.01-.01-804.01Z"/>
<path d="m107.97,110c6.02,.02 12.03,.01 18.05-.01-.03,268.01-.04,536.01 .01,804.01-6.02-.04-12.04-.02-18.05,.01 .03-268.01 .04-536.01-.01-804.01Z"/>
<path d="m197.97,110c6.01,.02 12.03,.01 18.05-.01-.05,200.01 0,400.01-.02,600.01-.24,67.96 .49,135.93-.37,203.88-5.89,.01-11.77,.08-17.65,.14 .02-268.01 .05-536.01-.01-804.02Z"/>
<path d="m269.97,109.97c11.69,.1 23.38,.09 35.07-.02-.08,268.03-.05,536.05-.01,804.08-11.69-.11-23.39-.1-35.07,.02 .08-268.03 .05-536.05 .01-804.08Z"/>
<path d="m358.97,110c6.01,.02 12.03,.01 18.05-.01-.03,268.01-.04,536.01 .01,804.01-6.03-.04-12.04-.02-18.05,.01 .03-268.01 .04-536.01-.01-804.01Z"/>
<path d="m394.97,110c6.01,.02 12.03,.01 18.05-.01-.03,268.01-.04,536.01 .01,804.01-6.03-.04-12.04-.02-18.05,.01 .03-268.01 .04-536.01-.01-804.01Z"/>
<path d="m430.97,110c6.01,.02 12.03,.01 18.05-.01-.03,268.01-.04,536.01 .01,804.01-6.03-.04-12.04-.02-18.05,.01 .03-268.01 .04-536.01-.01-804.01Z"/>
<path d="m502.97,109.97c12.02,.11 24.04,.11 36.07-.01-.07,268.02-.06,536.05-.01,804.07-12.03-.12-24.05-.12-36.07,.01 .07-268.02 .06-536.05 .01-804.07Z"/>
<path d="m591.97,109.96c12.35,.12 24.69,.13 37.05,0-.01,256.68-.08,513.36 .03,770.04-.54,11.22 1.47,22.82-.97,33.88-11.97,.41-24.11,1.07-35.98-.85-.26-267.68 .01-535.38-.13-803.07Z"/>
<path d="m663.97,109.96c12.34,.12 24.69,.13 37.05,0-.01,256.68-.08,513.36 .03,770.04-.54,11.22 1.47,22.82-.97,33.88-11.98,.41-24.11,1.07-35.98-.85-.26-267.68 .01-535.38-.13-803.07Z"/>
<path d="m735.97,109.96c12.34,.12 24.69,.13 37.05,0-.01,256.68-.08,513.36 .03,770.04-.54,11.22 1.47,22.82-.97,33.88-11.98,.41-24.11,1.07-35.98-.85-.26-267.68 .01-535.38-.13-803.07Z"/>
<path d="m789.97,109.96c12.34,.12 24.69,.13 37.05,0-.01,256.68-.08,513.36 .03,770.04-.54,11.22 1.47,22.82-.97,33.88-11.98,.41-24.11,1.07-35.98-.85-.26-267.68 .01-535.38-.13-803.07Z"/>
<path d="m879.97,109.96c18.02,.08 36.04,.12 54.06,0-.05,268.01-.05,536.02 0,804.03-17.98,.13-35.97,.02-53.94-.36-.23-267.89 .01-535.78-.12-803.67Z"/>
<path d="m951.97,110c5.99,.02 12.03,.01 18.05-.01-.03,268.01-.04,536.01 .01,804.01-6.04-.04-12.04-.02-18.05,.01 .03-268.01 .04-536.01-.01-804.01Z"/>
<path d="m987.94,109.96c12.01,.06 24.03,.05 36.06,.06v804.96c-12.03,.01-24.05-.01-36.06,.06 .1-268.36 .1-536.72 0-805.08Z"/>
</svg>
