<svg width="1280" xmlns="http://www.w3.org/2000/svg" height="1280" viewBox="0 0 1024 1024">
<path d="m103.43,146.58c14.82-1.17 29.71-.48 44.57-.58 255.01,.01 510.02-.01 765.03,0 18.59-1.06 36.21,14.97 37.42,33.42 1.28,19.83 .23,39.72 .64,59.58-.33,11.98 1.39,25.66-6.11,36.01-6.14,10.31-17.9,17.1-29.94,16.93-263.34,.21-526.69-.12-790.04,.16-11.32-.28-24.06,1.67-34-5.11-11.16-6.39-18.33-19.07-17.94-31.95-.37-21.68 .14-43.37-.19-65.05-.42-9.33 .54-19.29 5.87-27.24 5.64-8.29 14.58-14.91 24.69-16.17Z"/>
<path d="m102.43,439.58c14.82-1.21 29.71-.46 44.57-.58 255.01,.01 510.02-.01 765.03,0 13.18-1.28 26.2,5.81 33.04,16.98 6.18,8.61 5.73,19.92 6.01,30.01-.28,21.62 .42,43.26-.38,64.88-.45,10.5-6.51,19.85-14.44,26.39-7,6.48-17.09,7.81-26.23,7.74-265.02,.05-530.04-.1-795.06,.08-6.74-.12-13.73-.22-20-3.03-13.16-5.69-22.5-19.51-21.91-34.01-.17-25.03-.2-50.06-.01-75.08 .92-15.87 13.55-30.81 29.38-33.38Z"/>
<path d="m105.41,731.59c14.83-1.26 29.73-.46 44.59-.59 248.33-.05 496.67,.1 745-.07 10.01,.36 20.4-1.3 30.11,1.92 11.17,4.09 20.87,13.21 24.21,24.81 2.33,10.26 1.53,20.89 1.75,31.34-.32,18.28 .51,36.59-.43,54.86-.81,11.56-7.64,22.3-17.6,28.18-9.8,6.97-22.8,5.01-34.03,5.95-260.01,0-520.02,.04-780.03-.01-7.61-.47-15.71,.1-22.84-3.12-11.99-5.17-22.02-16.5-22.72-29.99-1.1-24.94-.13-49.93-.48-74.89-1.38-18.55 13.77-37.02 32.47-38.39Z"/>
</svg>
