<svg width="1280" xmlns="http://www.w3.org/2000/svg" height="1280" viewBox="0 0 1024 1024">
<path d="m365.32,110.08c182.89-.18 365.78-.05 548.67-.06 6.13,36.62 12.5,73.21 18.17,109.9-12.09,5.97-24.1,12.1-36.17,18.11-.01,141.66 .05,283.31-.02,424.97 .18,10.56-.76,21.24 .47,31.75 22.86,37.25 49.07,72.49 71.96,109.71 1.51,36.46 .15,73.02 .58,109.52-219.32,.03-438.65,.02-657.97,.01 .03-33.35-.09-66.69-.03-100.02 .4-4.76-.53-10.13 3.02-13.97 23.25-35.05 46.74-69.95 69.98-105.01-23.33-.01-46.65,0-69.98,.06-35.22,.75-70.74-6.94-102.21-22.87-53.99-28.3-97.3-78.55-113.18-137.84-6.07-23.24-7.76-47.4-7.66-71.34 .18-56.72-.13-113.43 .18-170.15-11.6-12.69-24.9-23.8-35.99-36.93 5.07-24.5 12.09-48.57 17.89-72.92 91.48-.17 182.96,.31 274.43-.22 5.71-24.29 12.17-48.4 17.86-72.7m-127.31,218.93c-.04,48 .03,96-.06,144-.36,12.68 1.41,25.95 8.09,36.98 11.92,23.07 37.09,38.27 62.94,38.96 25,.23 50-.03 75,.04 .03-73.33 .03-146.65 .01-219.98-48.66-.03-97.32-.02-145.98,0Z"/>
</svg>
