<svg width="1280" xmlns="http://www.w3.org/2000/svg" height="1280" viewBox="0 0 1024 1024">
<path d="m479.55,5.69c21.35-1.4 42.86-.92 64.25-.34 13.02,7.97 21.22,23.15 22.76,38.21 1.25,9.27-1.04,18.42-3.71,27.21 36.09,4.2 71.8,14.15 103.78,31.63 23.13,13.17 44.27,30.25 60.66,51.32 20.95,27.16 33.65,60.2 37.87,94.15 3.69,24.56 2.29,49.46 3.5,74.18 3.47,87.86 23.08,175.03 57.21,256.05 35.37,85.09 91.09,161.5 161.29,221.21 1.19,28.43-18.1,54.83-43.13,66.77-14.83,7.48-32,5.82-48.03,5.98-79.17,.02-158.34-.35-237.51,.18-.3,22.69-4.77,45.61-15.47,65.77-22.09,43.59-66.75,76.38-116.06,79.87-28.76,3.39-58.43-2.26-83.96-15.9-35.31-19.6-63.49-53.37-73.06-92.95-3.05-12-3.71-24.42-4.37-36.72-85.19-.71-170.39-.16-255.58-.25-37.78,1.74-73.24-32.31-73.14-70.1-.49-3.11 2.34-4.97 4.27-6.83 71.14-60.68 125.99-139.61 160.73-226.25 19.88-49.8 35.1-101.56 43.52-154.56 7.96-46.65 10.83-94.04 10.76-141.33 1.46-32.92 8.96-65.98 24.65-95.13 14.61-26.53 35.92-49.18 61.04-66.03 35.44-23.68 77.21-36.03 119.25-40.97-4.37-13.78-6.08-29.2 .17-42.68 4.29-8.53 9.55-17.91 18.31-22.49m-61.16,857.76c-9.23,1.21-7.67,13.11-6.49,19.56 3.8,50.81 52.67,93.79 103.71,89.61 6.97-1.79 7.68-13.56 1.41-16.57-8.09-1.83-16.49-1.91-24.61-3.58-25.98-6.01-47.41-26.06-57.51-50.43-4.23-10.58-4.33-22.07-5.85-33.17-.88-4.68-6.55-6.31-10.66-5.42Z"/>
</svg>
