<svg width="1280" xmlns="http://www.w3.org/2000/svg" height="1280" viewBox="0 0 1024 1024">
<path d="m479.54,5.7c21.36-1.42 42.87-.95 64.27-.34 13.01,7.96 21.22,23.14 22.74,38.2 1.25,9.27-1.01,18.42-3.71,27.21 36.33,4.23 72.28,14.26 104.41,31.98 26.11,15.04 49.92,35.04 66.69,60.29 24.7,35.83 33.67,80.03 33.98,122.95-.54,90.71 15.51,181.54 47.62,266.39 25.1,67.19 61.22,130.5 108.51,184.57 19.65,22.11 40.51,43.28 63.14,62.36 .95,21.76-10.42,42.38-26.54,56.33-7.9,6.3-16.63,12.1-26.68,14.19-11.35,3.2-23.29,3.05-34.97,3.22-80.25-.09-160.51-.06-240.76-.03-.1,20.93-3.9,42.13-13.2,61-13.82,29.29-37.43,53.82-66.05,68.93-17.51,9.33-37.19,14.18-56.94,15.36-27.95,2.46-56.48-3.85-81.03-17.38-22.91-13.21-42.43-32.25-56.01-54.95-13.38-21.79-19.1-47.57-19.23-72.96-83.27-.06-166.53,.01-249.79-.02-14.05,.11-28.62-1.9-40.89-9.18-21.86-12.38-38.7-36.07-38.19-61.86-.24-2.94 2.77-4.66 4.41-6.62 33.17-29.2 63.95-61.38 89.52-97.52 49.59-67.83 82.75-146.6 103.14-227.82 14.7-59.49 21.62-120.77 22.01-182-.61-36.98 6.44-74.59 23.45-107.62 14.56-27.64 36.5-51.16 62.38-68.55 35.43-23.7 77.22-35.97 119.23-41.04-4.69-14.45-6.05-30.84 1.16-44.69 4.3-7.69 9.18-16.29 17.33-20.4m11.91,135.87c-34.89,1.94-70.74,7.74-101.34,25.59-20.51,11.45-37.31,29.48-47.13,50.83-10.85,21.91-13.95,46.82-13.95,71-.25,97.8-16.81,195.85-51.57,287.39-30.59,81.89-77.28,157.51-135.59,222.55 246.76,.11 493.52,.13 740.28-.01-57.49-63.69-103.39-137.84-134.01-218.03-31.85-82.91-49.58-171.19-52.87-259.92-.5-25.67 .69-51.72-5.27-76.91-4.68-19.97-13.92-39.07-27.74-54.32-17.96-19.25-42.08-31.78-67.25-38.71-33.58-9.48-68.89-11.17-103.56-9.46m-76.09,722.62c-6.04,4.19-3.88,12.71-3.44,18.82 1.9,22.25 11.8,43.65 27.75,59.31 19.16,20.67 47.76,32.47 75.94,30.29 7.82-1.99 7.54-16.2-.72-17.27-9.93-1.04-20.06-1.34-29.58-4.69-27.9-10.04-50.64-35.48-54.69-65.23-1.11-5.97-.29-12.23-2.1-18.04-2.39-4.71-8.96-3.23-13.16-3.19Z"/>
</svg>
