<svg width="1280" xmlns="http://www.w3.org/2000/svg" height="1280" viewBox="0 0 1024 1024">
<path d="m492.45,46.59c97.44-2.92 195.81,6.98 289.56,34.41 38.18,11.59 76.42,26.61 107.01,52.97 11.36,10.05 23.16,22.27 24.63,38.16 1.22,13.03 .43,26.23-2.31,39.03-20.12,125.08-41.92,249.88-63.64,374.69-3.37,19.12-16.64,34.63-30.89,46.97-18.31,14.57-39.71,24.4-60.75,34.29-79.19,35.23-166.97,47-253.07,45.82-72.98-2.07-146.9-10.9-215.37-37.49-22.92-8.93-45.09-19.87-65.62-33.44-13.54-8.98-28.05-18.18-36.37-32.65-12.18-19.84-13.28-43.81-16.86-66.21-20.72-118.64-42.83-237.11-58.17-356.6-2.31-12.91 2.37-25.86 9.5-36.45 14.77-24.66 41.53-37.63 66.62-49.3 33.16-13.88 67.47-25.04 102.69-32.37 66.75-13.93 134.95-19.86 203.04-21.83m-152,78.91c-14.91,2.63-30.12,4.32-44.46,9.47-18.11,7.18-35.85,17.09-47.53,33.16 17.54,17.61 41.4,26.24 64.55,33.72 18.39,6.15 37.84,7.63 56.95,10.17 47.08,6.19 94.52,10.14 142.04,10.05 50.51,.03 100.97-3.88 150.96-11.08 18.09-2.44 36.5-4 53.76-10.34 21.35-7.04 42.95-16.02 58.78-32.54-16.74-19.81-41.08-31.58-65.92-37.63-64.64-13.28-130.61-19.87-196.58-20.54-57.82,.08-115.64,5.33-172.55,15.56m161,241.07c-41.07,3.29-79.48,28.48-99.37,64.49-19.09,31.85-23.5,72.33-10.45,107.22 7.54,21.79 22.9,40.06 40.38,54.71 16.31,13.93 36.29,23.46 57.31,27.67 34.8,6.32 72.76-2.32 100.01-25.32 18.82-15.78 34-36.24 42.8-59.24 14.73-39.89 7.27-87.43-19.92-120.31-14.82-17.53-34.2-30.78-55.17-39.88-17.48-7.3-36.59-11.62-55.59-9.34Z"/>
<path d="m510.42,430.61c26.98-1.81 52.56,17.34 62.04,42.01 3.05,11.78 4.09,24.33 2.55,36.42-4.92,23.4-25.43,40.15-47.06,47.85-21.3,8.27-43.84-2.22-60.61-15.26-20.55-19.3-25.22-52.82-12.43-77.68 9.44-21.24 33.44-32.04 55.51-33.34Z"/>
<path d="m211.9,705.89c3.1-2.4 6.62-4.18 10.02-6.11 32.14,21.37 66.74,39.05 102.95,52.41 80.1,29.96 167.44,37.4 252.14,28.8 78.41-8.99 155.04-35.49 221.07-78.95 4.46-3.53 10.19-.06 13.51,3.38 6.15,7.23 4.58,18.11 2.31,26.56-3.72,12.81-5.73,26.01-8.91,38.95-5.54,23.91-7.75,48.43-12.39,72.51-3.65,22.92-13.51,44.89-28.58,62.57-10.14,11.86-24.28,19.16-37.99,26.04-71.96,35.55-153.77,48.25-233.48,44.61-59.96-3.85-121-10.94-176.85-34.37-30.18-12.14-58.97-32.07-74.47-61.37-14-52.44-22.37-106.18-31.68-159.6-1.28-5.09-1.29-11.27 2.35-15.43Z"/>
</svg>
