<svg width="1280" xmlns="http://www.w3.org/2000/svg" height="1280" viewBox="0 0 1024 1024">
<path d="m224.41,73.5c6.52-.41 13.05-.6 19.59-.56 181.67,.16 363.34-.02 545.01,.09 26.76,0 53.46,7.08 76.79,20.16 40.45,23.38 72.27,63.37 81.4,109.66 4.49,24.1 3.78,48.75 3.81,73.15-.04,168.34 .02,336.67-.03,505.01 .34,26.07-4.38,52.51-15.99,75.99-10.45,22.37-26.91,41.48-45.69,57.31-13.86,11.77-30.02,20.61-46.99,27-21.48,7.88-44.61,9.64-67.31,9.72-178.34-.1-356.68,.04-535.01-.07-28.13,.28-56.41-6.22-81.12-19.77-38.3-21.94-69.2-58.47-80.45-101.56-7.26-27.62-5.21-56.4-5.42-84.63-.01-158.33 .01-316.67 0-475 .2-22.56-1.41-45.42 3.42-67.65 10.28-49.7 46.15-92.51 91.57-114.35 17.56-8.64 36.99-12.95 56.42-14.5m280.04,103.1c-49.61,1.26-99.32,5.24-148.06,14.84-32.15,6.38-63.41,16.92-92.98,31.03-14.47,8.47-28.58,19.08-37.03,33.9-3.64,6.72-4.8,14.6-3.82,22.17 10.92,93.22 30.39,185.15 45.07,277.8 3.13,15.8 10.44,31.52 23.39,41.62 24.5,18.36 52.83,30.98 81.95,40.08 53.36,16 109.56,20.52 165.04,18.79 62.44-2.26 125.78-15.77 179.98-47.85 17.59-10 33.59-26.41 36.78-47.11 16.13-90 31.8-180.08 45.67-270.45 1.89-14.23 3.11-31.07-7.36-42.48-17.21-19.28-40.92-31.26-64.78-40.23-34.72-12.45-71.02-20.02-107.43-25.54-38.55-5.15-77.54-7.86-116.42-6.57m-202.6,471.78c-6.65,.88-9.71,8-8.03,13.96 5.45,33.23 11.38,66.41 18.5,99.34 2.09,9.22 4.03,19.15 10.67,26.33 14.49,17.84 34.96,29.62 56.14,37.8 32.54,11.95 67.07,17.21 101.41,20.78 68.16,6.11 139.6-4.04 199.52-38.52 13.08-7.51 22.76-20 27.99-34.04 10.93-28.73 11.45-59.89 18.57-89.56 1.45-8.88 5.69-17.67 3.78-26.83-.87-4.57-4.73-8.76-9.4-9.4-9.86,4.67-18.66,11.37-28.38,16.36-56.43,30.01-120.69,45.39-184.62,43.48-69.26,.15-138.99-18.27-197.65-55.46-2.83-1.26-5.43-4.16-8.5-4.24Z"/>
<path d="m367.46,237.59c49.85-9.9 100.67-15.48 151.54-14.63 42.18,.19 84.16,5.27 125.67,12.4 21.42,3.09 43.05,12.15 57,29.21-15.48,14.88-36.1,22.68-56.66,27.44-73.32,11.72-148.24,15.11-222.06,6.08-21.1-2.79-42.59-4.85-62.63-12.51-13.98-4.59-27.22-11.35-38.54-20.82 10.78-14.89 28.1-23.32 45.68-27.17Z"/>
<path d="m502.44,407.51c26.25-3.22 52.06,8.75 71.77,25.28 28.65,24.36 38.15,68.41 21.95,102.36-7.24,15.36-18.04,29.12-31.39,39.63-25.94,19.12-62.99,23.43-91.82,8.32-27.37-13.74-49.34-40.43-52.43-71.54-6.89-49.12 32.37-99.57 81.92-104.05m1,46c-16,3.42-31.56,14.73-35.85,31.13-4.68,18.4-1.16,41.79 16.41,52.33 7.52,4.01 15.26,8.74 24.04,8.96 18.12,2.05 35.3-9.31 44.87-23.99 7.27-11.16 5.34-25.31 2.78-37.62-6.97-20.85-30.6-34.6-52.25-30.81Z"/>
</svg>
