<svg width="1280" xmlns="http://www.w3.org/2000/svg" height="1280" viewBox="0 0 1024 1024">
<path d="m373.01,77.95c51.97-1.75 103.95-4 155.94-4.64 26.67,1.28 53.38,.36 80.06,.78 29.43,.5 58.46,6.07 87.01,12.85 18.79,4.33 36.56,12.03 54.09,19.9 22.87,9.86 43.33,24.66 61.55,41.52 29.53,28.28 48.91,66.93 53.49,107.62 3.45,25.44 2.88,51.93-5.7,76.35-8.08,25.92-24.65,48.42-44.15,66.97-29.28,29.34-69.43,42.92-105.62,61.36 33.18,8.42 66,19.54 95.54,37.13 47.09,27.75 84.61,72.75 100.65,125.27 15.3,51.19 7.27,106.37-11.29,155.57-11.42,29.32-31.33,54.46-53.84,76.1-21.3,19.89-45.33,37.15-72.07,48.93-36.49,15.77-75.46,24.83-114.53,31.52-65.27,10.31-131.47,3.49-197.15,3.64-54.7-2.69-109.41,1.29-164.04,3.84-60.89,4.31-121.94,5.42-182.89,8.19 .09-17.94-.87-35.95 .94-53.82 35.3-7.4 71.86-10.17 105.75-23.27 5.28-2.05 6.8-8.26 9.3-12.74 6.95-13.87 7-29.62 8.33-44.7 3.93-56.35 2.28-112.88 2.64-169.32-2-66.98-.55-134.01-1.08-201.01-1.83-66.67-2.54-133.37-4.54-200.03-.92-26.21-.02-52.61-3.74-78.65-.96-7.72-4.19-15.73-11.42-19.56-12.75-6.38-27.32-6.69-41.23-7.89-20.67-1.82-41.24-4.46-61.82-7.05-.98-15.89-1.95-31.8-2.25-47.72 87.37-1.54 174.73-4.02 262.07-7.14m41,61.29c-.15,41.96 4.58,83.79 4.02,125.76 .97,32.32 1.7,64.68 .2,97-.18,26.95-1.06,53.97 .77,80.88 29.1,4.3 58.64,3.33 87.96,2.78 38.94-2.17 78.91-8.76 113.04-28.65 19.95-11.05 35.88-28.72 45.9-49.11 12-26.15 17.04-55.22 16.22-83.9 .42-17.42-1.97-34.9-7.72-51.36-14.42-39.06-47.12-70.64-86.1-84.92-33.83-12.65-70.38-16.6-106.32-15.61-22.81,.62-45.39,4.13-67.97,7.13m5.02,368.69c-.39,38.35 .79,76.73-.92,115.06-.23,30-.14,60.01-.05,90.02 1.9,45.75-.12,91.6 2.68,137.32 1.21,5.68 2.32,11.63 5.18,16.78 1.47,2.71 4.71,3.56 7.35,4.72 22.37,8.07 45.66,15.5 69.72,15.24 43.61,.34 88.54-4.77 128.3-23.78 15.96-8.29 31.44-18 44.05-30.95 18.73-18.24 30.9-42.26 37.81-67.26 8.56-30.62 9.11-62.74 7.19-94.26-2.16-25.07-6.89-50.61-19.47-72.73-12.24-21.75-28.14-41.66-47.88-57.07-18.87-14.91-41.67-24.08-65.05-29.03-44.88-9.94-91.2-9.64-136.91-8.76-10.79,.41-21.55,1.93-32,4.7Z"/>
</svg>
