<svg width="1280" xmlns="http://www.w3.org/2000/svg" height="1280" viewBox="0 0 1024 1024">
<path d="m201.43,80.67c12.11-1.68 24.36-1.67 36.57-1.72 190,.19 380-.14 570,.16 23.94,.01 48.8,11.74 60.83,33.01 5.61,9.22 8.55,20.04 8.19,30.85-.02,246.69-.06,493.37 .02,740.05-.01,25.63-19.16,48.96-43.11,56.81-12.9,4.46-27.04,4.02-40.29,1.61-12.3-2.89-23.52-9.78-32.38-18.69-64.18-61.49-128.16-123.17-192.23-184.77-19.39-18.15-37.9-37.23-57.68-54.95-73.47,71.3-147.6,141.93-221.25,213.06-12.41,10.89-23.1,23.64-36.12,33.85-15.88,12.46-37.56,16.99-57.15,12.34-16.94-4.66-32.79-14.95-41.93-30.2-7.52-11.43-9.29-25.67-8.94-39.07 .08-243.34 .04-486.69 .02-730.03-.07-17.86 8.51-35.45 22.01-46.99 9.79-7.44 21.04-13.85 33.44-15.32Z"/>
</svg>
