<svg width="1280" xmlns="http://www.w3.org/2000/svg" height="1280" viewBox="0 0 1024 1024">
<path d="m184.98,85.97c10.58-4.94 22.43-6.38 34.01-6.01 196.67,.08 393.35,.05 590.03,.01 24.28-.48 49.26,12.35 60.81,34.13 8.13,13.41 7.68,29.77 8.18,44.89-.01,236.67-.04,473.35 .01,710.02 .16,14.71-1.12,30.13-9.06,42.95-14.16,24.58-45.07,36.69-72.4,30.57-13.52-2.65-25.88-9.77-35.5-19.56-83.09-79.72-165.99-159.65-249.08-239.36-28.37,26.05-55.52,53.42-83.58,79.81-55.28,53.39-110.8,106.52-166.17,159.82-9.7,9.57-21.7,17.34-35.34,19.66-13.63,2.29-28.13,2.28-40.8-3.95-23.95-9.29-41.09-34.06-40.05-59.93-.11-245.01 .02-490.03-.06-735.04-.59-24.97 16.2-48.53 39-58.01m34.03,67.04c.11,236.47-.27,472.94 .19,709.41 9.66-7.67 17.48-17.36 26.81-25.4 69.6-66.74 139.12-133.55 208.73-200.28 18.71-18.25 38.09-35.8 56.49-54.37 35.73,32.33 69.72,66.55 104.79,99.6 62.63,60.06 125.1,120.3 187.91,180.18 .15-236.38 .05-472.76 .05-709.13-194.99-.04-389.98-.02-584.97-.01Z"/>
</svg>
