<svg width="1280" xmlns="http://www.w3.org/2000/svg" height="1280" viewBox="0 0 1024 1024">
<path d="m323.83,73.67c10.88-1.95 21.57,1.56 32.12,3.57 10.41-.79 20.44-4.77 31.03-4.19 138.34-.17 276.68,.07 415.02-.11 14.35,.09 29.23-.94 42.96,4.13 33.73,9.99 55.95,46.46 52.27,80.97-.69,10.98-4.28,21.44-7.38,31.89-52.08,172.28-104.18,344.54-156.28,516.81-7.96,24.21-16.59,48.65-30.96,69.91-6.02,9.55-15.8,15.63-25.97,19.96-23.56,8.7-48.98,7.43-73.64,8.39-160.01,.01-320.02,0-480.03,0-6-.48-12.06,1.57-16.76,5.22-8.82,9.16-5.38,23.57-.19,33.79 6.44,13.76 19.92,22.41 33.84,27.2 12.95,4.12 26.55,5.92 40.13,5.8 178.34,.02 356.68-.1 535.03,.07 11.77,.53 23.09-4.1 32.97-10.11 8.15-4.96 14.17-12.91 17.04-21.96 57.16-187.88 114.2-375.8 171.37-563.67 2.98-10.65 3.39-21.82 2.95-32.81 13.99,5.73 27.56,14.33 35.66,27.46 9.73,14.47 13.95,32.27 12.58,49.6-.67,12.24-5.16,23.77-8.57,35.42-50.61,166.69-101.22,333.38-151.8,500.08-8.81,33.48-33.54,61.45-64.18,76.98-18.3,9.93-39.42,13.22-60.03,12.96-171.67-.07-343.35-.02-515.02-.02-26.48,.23-52.59-8.08-74.93-22.09-23.97-15.46-45.46-35.55-59.25-60.79-15.06-27.08-23.04-60.28-13.26-90.51 2.94-16.19 5.81-32.71 4.77-49.23-.48-7.7-4.64-16.14-.29-23.38 5.65-11.21 14.3-20.48 20.87-31.1 11.96-19.42 21.28-40.31 29.55-61.52 6.98-19.26 15.76-38.89 14.21-59.84 .23-6.65-2.14-13.87 .73-20.19 4.66-8.69 11.75-15.69 16.92-24.05 10.7-16.79 17.91-35.45 25.06-53.96 6.34-17.61 13.29-35.51 14.3-54.4 .88-10.02-3.16-19.87-1.6-29.85 4.09-13.5 17.16-20.98 25.37-31.68 10.25-14.09 17.05-30.31 23.68-46.32 7.29-17.62 13.58-35.83 16.27-54.77 1.91-11.16-3.79-22.02-2.16-33.16 5.66-15.38 19.87-25.15 27.6-39.28 11.16-19.16 17.16-40.78 27.91-60.14 8.53-14.98 22.24-28.76 40.09-31.08m74.58,145.86c-8.63,1.46-17.03,7.18-20.24,15.54-4.32,9.65-6.42,20.1-10.13,29.98-1.63,5.97-5.27,11.88-3.44,18.3 .99,5.2 6.17,8.72 11.34,8.68 115.02-.05 230.06-.03 345.09-.02 5.77-.2 12.38,.31 16.94-4.04 12.87-8.34 14.07-24.95 18.94-38.07 2.12-8.07 8.18-16.83 3.1-24.91-2.98-6.14-11.21-5.7-16.97-6.03-101.68,.07-203.36,.04-305.04,.03-13.2,.07-26.42-.54-39.59,.54m-50.97,147.07c-6.48,1.94-12.23,6.37-15.48,12.34-3.89,7.72-5.93,16.17-8.7,24.32-2.31,7.5-5.39,14.86-6.26,22.73-1.37,7.82 7.04,13.18 13.96,13.02 111.68,.04 223.37-.11 335.05,.07 5.37-.17 10.82,0 16.16-.85 9.84-2.21 17.09-10.57 20.2-19.86 4.41-12.85 8.81-25.75 11.99-38.96 1.2-7.05-4.96-14.51-12.35-13.29-108.33-.34-216.68,.06-325.01-.18-9.86,.03-19.75-.41-29.56,.66Z"/>
</svg>
