<svg width="1280" xmlns="http://www.w3.org/2000/svg" height="1280" viewBox="0 0 1024 1024">
<path d="m315.38,78.54c9.38-1.74 19.12-.28 28.62-.64 118.35,.24 236.7,.04 355.05,.07 3.86,.72 8.69-.67 12.12,1.86 11.48,9.64 20.11,23.66 19.62,39.14 .77,31.66-.12,63.35 .22,95.02 63.33,.02 126.66,.03 190-.04 14.28,.21 29.15,.1 42.65,5.49 32.49,11.65 56.58,42.72 60.34,76.97v228.59c-341.33,0-682.67,0-1024,0v-228.51c3.63-34.41 27.82-65.32 60.34-77.05 13.47-5.59 28.34-5.38 42.65-5.52 63.34,.14 126.67,.07 190,.07 .02-25.67 .09-51.33-.12-76.99 .19-12.84-.92-26.38 4.85-38.3 4.19-7.9 9.8-15.61 17.66-20.16m50.62,62.46c-.01,24.33-.01,48.66 0,72.99 97.33,.02 194.66,.01 292,.01 .01-24.34 .01-48.66 0-72.99-97.33-.02-194.67-.01-292-.01Z"/>
<path d="m0,580c128,.01 255.99-.02 383.99,.01 .34,30.65-.55,61.32 .23,91.96-.53,20.18 18.94,37.31 38.75,35.99 56.68,.19 113.37-.09 170.05,.11 10.03-.49 21.44,.27 30-6.03 10.53-6.94 17.65-19.23 16.98-32 .26-30.01-.19-60.03 0-90.03 128-.02 256,0 384-.01v283.55c-2.39,17.15-8.6,34.21-20.08,47.4-13.1,16.33-31.52,28.87-52.35,32.58-21.33,3.51-43.05,2.28-64.57,2.49-260.01-.04-520.01-.02-780.01-.01-19.51-.18-40.03-.93-57.6-10.44-17.61-10.01-32.89-24.99-41.32-43.59-4.45-8.92-6.23-18.86-8.07-28.57v-283.41Z"/>
<path d="m439,580c48.66-.01 97.33-.01 145.99,.01 .02,24.32 .02,48.65 .01,72.99-48.67,0-97.33,.01-145.99-.01-.03-24.33-.02-48.66-.01-72.99Z"/>
</svg>
