<svg width="1280" xmlns="http://www.w3.org/2000/svg" height="1280" viewBox="0 0 1024 1024">
<path d="m472.11,68.09c26.79-5.31 54.8-5.96 81.48,.33 34.03,7.21 65.31,25.65 89.22,50.77 19.7,19.36 34.73,43.53 43.11,69.86 6.39,18.63 8.19,38.38 9.2,57.92-122.09,.06-244.18,.03-366.26,.02-.15-34.5 9.28-69.05 27.99-98.12 26.38-40 67.66-71.53 115.26-80.78Z"/>
<path d="m117.07,225.04c9.68-13.64 30.07-19.35 44.95-11.03 7.72,4.3 13.58,11.05 19.77,17.2 28.4,28.6 57.02,56.98 85.41,85.59 2.94,4.16 8.45,2.7 12.77,3.23 155.02,0 310.05-.15 465.07,.07 4.69,1.19 8.7-1.08 11.72-4.33 19.71-19.29 38.53-39.5 58.93-58.09 13.31-12.68 25.79-26.23 39.14-38.87 12.16-11.2 32.51-11.48 45.04-.69 14.82,10.55 18.99,33.3 8.52,48.25-6.34,7.94-14.08,14.61-21.14,21.88-27.43,27.57-55.15,54.85-82.39,82.6 .32,56.05 .04,112.1 .15,168.14 41.67,.13 83.34-.17 125.01,.07 20.1-1.16 39.76,16.46 39.03,36.92 .51,13.28-7.97,25.42-19.12,31.93-8.3,5.21-18.58,4.29-27.91,4.98-39.32,.33-78.64-.04-117.95,.12 1.05,55.23-9.16,111.68-35.49,160.65-.61,1.75-2.14,3.83-.86,5.63 4.67,6.54 10.93,11.73 16.51,17.48 33.53,33.47 67.03,66.98 100.52,100.48 12.47,11.4 15.08,31.89 5.32,45.77-7.27,12.45-22.45,18.88-36.52,16.54-9.05-1.2-16.6-6.97-22.86-13.24-26.37-26.63-52.97-53.04-79.44-79.57-10.3-10.07-20.06-20.69-30.83-30.26-11.98,11.44-26.38,19.87-40.36,28.61-39.35,24.8-85.46,39.27-132.04,40.08-.05-170.73 .01-341.45-.03-512.18-24.33-.01-48.66-.02-72.98,.01-.03,170.72 .02,341.45-.03,512.17-29.47-.07-58.68-6.44-86.11-16.99-33.66-14.36-65.45-33.73-92.6-58.35-34.86,39.29-69.43,78.85-104.46,117.98-11.75,13.85-34.41,16.27-48.78,5.13-17.1-11.69-19.76-38.67-5.97-53.9 38.25-43.49 77.27-86.32 115.22-130.07-15.32-31.38-25.27-65.31-29.27-100.01-2.72-18.54-2.86-37.29-4.09-55.94-38.31-.08-76.62-.02-114.93,.02-10.76-.09-22.55-.07-31.9-6.17-7.39-5.4-14.09-12.65-16.15-21.83-4.29-15.73 3.43-33.73 17.99-41.14 8.68-5.28 19.32-4.65 29.06-4.97 38.66,.06 77.33,.09 116,.05 .12-51.67-.19-103.33 .17-154.99-.27-4.26 .44-8.61-.52-12.78-1.79-3.06-4.39-5.51-6.8-8.05-20.67-20.34-41.06-40.95-61.58-61.43-11.33-11.33-24.11-21.31-33.87-34.12-9.12-12.26-8.9-30.65 .68-42.58Z"/>
</svg>
