<svg width="1280" xmlns="http://www.w3.org/2000/svg" height="1280" viewBox="0 0 1024 1024">
<path d="m121.44,5.5c9.82-.95 19.71-.53 29.56-.55 250,.23 500.01-.21 750,.21 11.15,5.45 13.31,20.64 13.07,31.81-.2,315.02 .05,630.05-.12,945.07 .69,18.24-15.29,35.23-33.38,36.41-14.83,1.11-29.72,.43-44.57,.55-228.34,.02-456.68-.04-685.02,.04-12.83,.63-26.32-4.34-33.87-15.12-9.16-9.88-7.29-24.61-8.11-36.91-.03-308.34 .06-616.68-.04-925.03-.11-12.79 1.05-28.41 12.48-36.48m61.58,62.5c-.04,292.33-.02,584.66-.01,876.99 72.99,.03 145.98,.01 218.97,.01 .11-40.68-.08-81.36 .01-122.03 .32-5.66-.53-12.59 4.17-16.82 4.85-5.67 12.54-8.02 19.82-7.26 56.68,.25 113.36,.02 170.05,.11 7.63-.14 17.73,.34 21.92,8.02 4.87,6.57 3.76,15.34 4.13,22.97-.12,38.33-.1,76.66-.07,115 72.99,.03 145.98,.01 218.97,.01 .04-292.33 .01-584.66 .02-876.99-219.33-.03-438.66-.01-657.98-.01Z"/>
<path d="m270.41,141.55c14.94-1.05 30.02-1.16 44.96,.11 6.28,1.67 12.15,7.12 13.05,13.76 1.13,13.15 .9,26.39 .41,39.57 .56,8.21-5.09,16.66-13.25,18.43-13.17,1.14-26.42,.78-39.63,.62-8.82,.9-18.13-5.24-19.52-14.24-.92-14.84-.93-29.76 .01-44.59 .95-7.02 7.22-12.44 13.97-13.66Z"/>
<path d="m416.42,141.58c13.15-1.13 26.39-.9 39.57-.41 8.21-.56 16.66,5.09 18.43,13.25 1.14,13.17 .78,26.42 .62,39.63 .89,8.82-5.25,18.13-14.24,19.52-14.84,.92-29.76,.92-44.59-.01-6.82-.9-11.93-6.8-13.54-13.2-1.3-13.4-.96-26.91-.5-40.35-.71-8.46 5.83-17.17 14.25-18.43Z"/>
<path d="m562.41,141.56c13.15-1.13 26.4-.87 39.58-.39 9.45-.64 19.14,6.86 19.3,16.66 1.19,12.58 1.16,25.29 .42,37.89-.46,7.83-5.91,16.51-14.12,17.73-14.79,1.08-29.66,.96-44.45,.21-4.5-.36-8.11-3.62-10.9-6.89-6.14-8.29-3.69-19.22-4.44-28.77 .77-9.86-2.01-21.23 4.47-29.74 2.74-2.95 5.94-6.16 10.14-6.7Z"/>
<path d="m709.42,141.58c14.69-1.1 29.49-1.13 44.19-.06 7.28,1.81 13.04,8.44 13.88,15.89 .98,13.39 .98,26.87 .08,40.27-1.2,6.89-6.07,14.09-13.21,15.65-13.42,1.28-26.94,.89-40.39,.62-10.02,1.3-19.19-7.71-19.44-17.49-.97-12.36-1-24.82-.24-37.18 .16-8.47 6.7-16.49 15.13-17.7Z"/>
<path d="m272.41,287.51c13.11-1 26.32-.93 39.45-.17 9.11,.87 17.82,9.07 16.97,18.67 .53,11.65 .51,23.33 0,34.98 .28,5.98-2.32,12.06-7.08,15.74-4.27,3.8-10.43,3.6-15.77,4.1-10.56,.41-21.17,.65-31.7-.12-6.68-.33-12.81-4.06-16.31-9.68-2.34-4.24-1.53-9.39-2-14-.17-11.9-.47-23.84 .47-35.71 1.58-7.35 8.69-12.86 15.97-13.81Z"/>
<path d="m418.41,287.51c13.11-1 26.31-.93 39.45-.17 9.11,.93 18.1,8.9 16.96,18.67 .47,13.54 .71,27.15-.26,40.67-1.69,7.68-9.34,13.52-17.1,13.79-12.36,.96-24.82,.99-37.18,.24-8.47-.17-16.49-6.7-17.7-15.13-1.12-13.16-.91-26.4-.44-39.58-.67-9.21 7.36-17.53 16.27-18.49Z"/>
<path d="m564.42,287.54c13.11-1.02 26.32-.96 39.46-.26 7.42,.35 15.13,5.6 16.63,13.14 2.31,11.7 1.58,23.75 1.51,35.6-.08,6.88-1.23,14.6-6.4,19.6-7.64,6.38-18.38,5.1-27.61,5.56-8.91-.18-17.96,.49-26.7-1.54-6.62-2.2-12.39-7.95-12.68-15.22-1.26-13.38-.98-26.88-.3-40.28 .78-8.19 7.72-15.9 16.09-16.6Z"/>
<path d="m711.39,287.51c13.11-1.05 26.32-.89 39.47-.18 8.87,.78 16.68,8.69 16.78,17.78 .88,13.13 .77,26.35-.14,39.48-.3,4.81-3.52,8.84-6.81,12.08-6.07,4.68-14.53,3.64-21.66,4.37-10.98-.24-22.42,1.45-33.01-2.11-7.02-2.24-10.99-9.47-11.48-16.47-1.02-12.28-1.02-24.67-.11-36.95 .3-9.01 7.52-17.9 16.96-18Z"/>
<path d="m274.37,433.43c12.09-.81 24.26-.92 36.35-.14 8.47,.16 16.49,6.7 17.7,15.13 1.1,14.69 1.13,29.49 .06,44.19-1.81,7.29-8.44,13.04-15.89,13.88-13.39,.98-26.88,.99-40.27,.08-6.89-1.19-14.1-6.07-15.65-13.21-1.28-13.42-.89-26.94-.62-40.39-1.35-10.35 8.24-19.61 18.32-19.54Z"/>
<path d="m420.42,433.5c12.07-.85 24.22-1.01 36.3-.21 7.83,.45 16.51,5.9 17.73,14.12 1.08,14.78 .96,29.65 .21,44.45-.36,4.5-3.63,8.1-6.89,10.9-8.28,6.14-19.22,3.67-28.77,4.44-9.87-.79-21.23,2.02-29.74-4.47-2.95-2.76-6.16-5.94-6.7-10.14-1.12-14.69-1.08-29.5-.01-44.18 1.35-8.44 9.22-15.18 17.87-14.91Z"/>
<path d="m567.42,433.51c11.45-.9 22.98-.93 34.46-.27 5.49,.56 11.53,2.29 15.2,6.7 5.89,7.68 4.62,17.99 5.1,27.05-.19,8.89 .49,17.96-1.54,26.7-2.22,7.35-8.97,12.81-16.75,12.95-13.14,.89-26.36,.77-39.48-.14-8.63-.93-15.94-8.85-16.04-17.61-.75-12.57-.89-25.22-.16-37.79 .46-9.9 9.24-18.13 19.21-17.59Z"/>
<path d="m713.37,433.43c12-.84 24.1-.92 36.12,0 8.68,.32 17.47,7.04 17.88,16.15 1.25,13.37 .97,26.87 .3,40.28-.46,5.69-4.08,10.98-8.78,14.08-8.91,4.5-19.3,2.79-28.89,3.27-10.29-.9-22.88,2.34-30.7-6.49-5.83-5.86-4.55-15.23-5.34-22.69 .23-10.98-1.45-22.42 2.11-33.01 2.33-7.32 10.03-11.22 17.3-11.59Z"/>
<path d="m270.43,580.59c14.93-1.1 30.01-1.21 44.94,.07 6.28,1.67 12.15,7.12 13.05,13.76 1.13,13.15 .89,26.39 .41,39.57 .71,8.46-5.83,17.17-14.25,18.43-14.69,1.12-29.49,1.1-44.17,.04-8.26-1.2-14.79-9.11-14.24-17.46-.49-13.32-.6-26.67 .04-39.98 1.1-7.09 6.94-13.58 14.22-14.43Z"/>
<path d="m416.42,580.58c14.68-1.13 29.48-1.11 44.17-.04 8.26,1.19 14.79,9.1 14.24,17.46 .48,13.31 .6,26.66-.04,39.98-1.11,7.08-6.94,13.58-14.22,14.43-13.15,1.13-26.39,.91-39.56,.43-8.23,.68-16.6-5.45-18.31-13.49-1.34-13.4-.99-26.91-.53-40.34-.71-8.46 5.83-17.17 14.25-18.43Z"/>
<path d="m562.41,580.55c13.17-1.06 26.42-.81 39.62-.53 5.77-.88 10.83,2.39 14.83,6.12 5.49,5.8 4.76,14.47 5.22,21.84-.34,11.3 1.52,23.08-2.1,34.04-3,6.32-9.63,11.55-16.99,10.8-13.55,.48-27.15,.7-40.67-.26-7.35-1.58-12.86-8.69-13.81-15.97-.98-13.39-1-26.88-.08-40.27 1.23-7.11 6.43-14.68 13.98-15.77Z"/>
<path d="m708.41,580.57c14.78-1.15 29.65-.96 44.45-.23 4.5,.36 8.09,3.61 10.9,6.89 6.14,8.29 3.67,19.21 4.44,28.77-.75,9.24 1.67,19.53-3.27,27.97-2.61,3.94-6.34,8.01-11.34,8.48-13.18,1.05-26.43,.8-39.62,.53-9.85,1.01-19.3-7.7-19.44-17.52-.97-12.36-1-24.82-.24-37.18 .29-8.01 6.13-16.08 14.12-17.71Z"/>
<path d="m272.41,726.51c13.11-1 26.32-.93 39.45-.17 9.11,.87 17.82,9.07 16.97,18.67 .53,11.64 .51,23.32 0,34.98 .28,5.98-2.32,12.06-7.08,15.74-4.27,3.8-10.43,3.59-15.77,4.1-10.56,.4-21.17,.65-31.7-.12-6.68-.33-12.81-4.06-16.31-9.68-2.34-4.24-1.53-9.41-2-14-.17-11.91-.47-23.85 .47-35.71 1.58-7.35 8.69-12.87 15.97-13.81Z"/>
<path d="m710.42,726.54c13.11-.99 26.33-1.07 39.47-.18 8.76,.12 16.68,7.42 17.61,16.05 .91,13.12 1.02,26.34 .14,39.48-.18,7.69-5.55,14.74-13.04,16.63-11.71,2.32-23.77,1.55-35.62,1.5-6.89-.08-14.61-1.23-19.6-6.4-6.39-7.64-5.11-18.38-5.56-27.61 .16-8.91-.49-17.96 1.54-26.7 2.16-6.57 7.95-12.28 15.06-12.77Z"/>
</svg>
