<svg width="1280" xmlns="http://www.w3.org/2000/svg" height="1280" viewBox="0 0 1024 1024">
<path d="m875.6,74.48c4.03-3.01 9.4-1.24 14-1.09 26.75,4.74 49.88,25.28 57.76,51.27 3.98,11.32 3.23,23.52 3.67,35.32 .01,68.23-.12,136.46 .03,204.69 8.29,.93 16.76,1.63 24.6,4.77 27.03,9.7 46.77,36.3 48.34,65v8.15c-2.01,28.05-20.87,54.26-47.32,64.09-8.2,3.07-16.96,4.01-25.6,4.86-.21,68.16-.02,136.32-.06,204.48-.31,15.82-.13,32.73-8.1,46.96-12.32,23.38-37.51,41.7-64.6,40.52-14.73-9.55-27.53-21.75-41.63-32.17-75.6-58.08-157.62-109.07-246.98-143.07-53.99-20.95-110.74-35-168.41-40.57-13.21-2.09-24.72,5.61-35.21,12.43-32.05,21.1-50.12,63.05-39.72,100.59 3.41,12.96 11.09,24.05 19.37,34.36-8.3,15.25-13.98,32.34-12.72,49.93-.38,14.55 5.97,28.21 14.03,39.96 18.83,27.75 45.42,48.77 71.39,69.47-7.29,13.16-17.58,24.7-30.52,32.49-20.69,12.99-44.92,18.91-68.88,22.21-33.6,4.59-68.26,.63-100.06-11.09-12.84-5.09-25.75-11.43-35.37-21.56-3.74-7.49-5.85-15.67-8.51-23.57-6.62-20.18-13.89-40.13-20.73-60.23-10.34-29.68-17.92-60.28-23.83-91.13-6.61-34.43-5.38-69.82-1.46-104.5 2.04-17.64 6.58-34.84 10.99-51.99-22.64-.24-45.28,.23-67.91-.25-15.23-.38-30.79-3.18-44.13-10.88-25.3-13.54-43.57-39.08-48.03-67.46v-137.05c3.33-16.47 9.88-32.57 21.34-45.09 17.16-20.62 43.66-33.38 70.64-32.41 90.01,.16 180.01,.03 270.02,.1 62.44-.1 124.78-9.93 184.35-28.56 108.82-34.03 207.92-93.92 297.35-163.77 10.88-8.09 20.82-17.39 31.9-25.21m-212.78,222.32c-71.12,32.49-146.87,56.07-224.8,64.28-.03,51.35-.05,102.69 .01,154.04 16.07,2.66 32.3,4.35 48.31,7.44 59.19,10.96 116.7,29.97 171.65,54.41 78.17,35.03 151.09,81.02 218.98,133.09-.08-181.5 .31-363.01-.2-544.52-66.59,50.85-137.66,96.35-213.95,131.26Z"/>
</svg>
