<svg width="1280" xmlns="http://www.w3.org/2000/svg" height="1280" viewBox="0 0 1024 1024">
<path d="m489.45,73.48c78.9-4.34 159.01,12.84 228.62,50.39 40.09,21.41 76.63,49.19 108.67,81.38 51.25,53.38 89.61,119.39 109.04,190.88 19.15,74.95 20.6,155.01 .22,229.87-18.26,69.47-54.86,133.78-103.78,186.22-41.99,44.96-93.69,80.66-150.26,104.73-67.58,28.67-142.54,38.46-215.43,31.63-74.38-7.17-146.6-34.35-207.45-77.68-70.95-49.23-125.78-120.51-157.17-200.8-27.94-72.64-35.47-152.78-23.53-229.57 16.15-102.81 71.48-198.32 150.93-265.21 46.46-38.2 100.11-68.23 158.03-84.93 33.19-9.76 67.6-15.06 102.11-16.91m5,73.08c-77.06,3.23-151.89,33.07-212.18,80.72-96.39,77.19-149.93,205.9-133.29,328.7 4.58,41.47 17.65,81.68 36.1,118.99 17.87,35.56 41.01,68.57 69.38,96.55 61.76,60.61 145.26,99.04 231.67,105.24 24.4,.58 48.96,.98 73.19-2.46 41.4-5.16 81.58-18.36 118.69-37.29 33.8-17.53 65.59-39.43 92.29-66.71 25-24.74 45.8-53.52 62.53-84.42 29.8-55.16 46.78-117.97 44.23-180.88-.4-79.36-30.02-157.24-78.39-219.69-25.95-33.68-58.52-62.04-94.73-84.24-62.39-38.31-136.13-58.89-209.49-54.51Z"/>
<path d="m502.46,219.52c33.95-1.29 68.14,3.15 100.52,13.53 37.33,11.71 71.72,32.11 100.9,58.06 31.88,28.31 59.01,62.59 76.26,101.75 22.01,48.45 27.53,103.02 22.45,155.61-4.36,37.58-16.13,74.35-34.91,107.22-32.81,55.44-82.55,101.57-142.08,126.84-39.19,16.55-82.18,23.13-124.58,21.6-57.67-.91-114.96-20.36-161.06-55.07-51.55-38.85-92.95-93.22-109.88-156.08-18.35-68.78-13.98-144.79 17.88-209 17.72-36.98 44.65-68.78 75.17-95.85 24.05-20.21 50.85-37.35 80.17-48.83 31.46-12.65 65.35-18.61 99.16-19.78m-12.01,74.08c-31.5,2.39-62.34,12.14-89.42,28.42-29.62,17.67-54.81,42.41-73.99,70.99-19.48,29.43-31.15,63.86-33.86,99.03-.8,23.7-.58,47.74 4.9,70.94 6.51,28.57 19.09,55.75 36.85,79.06 32.42,43.14 80.1,75.74 133.65,85.41 50.74,8.94 105.44,2.65 150.48-23.36 54.96-31.9 97.56-87.03 108.7-150.23 8.54-51 1.94-105.93-24.79-150.84-30.72-52.28-82.8-92.87-142.54-105.55-22.88-5.59-46.63-5.18-69.98-3.87Z"/>
<path d="m511.22,365.65c29.22-.95 58.49,8.02 82.47,24.68 21.72,15.53 40.35,35.97 51.54,60.4 15.88,35.28 17.13,76.91 3.71,113.19-16.48,42.26-53.1,76.81-97.06,88.87-22.29,5.59-45.91,7.21-68.55,2.84-46.75-8.55-87-42.66-106.29-85.64-10.68-23.88-12.68-50.67-10.63-76.47 4.55-43.7 31.65-83.41 68.59-106.51 22.43-14.78 49.52-21.37 76.22-21.36Z"/>
</svg>
