<svg width="1280" xmlns="http://www.w3.org/2000/svg" height="1280" viewBox="0 0 1024 1024">
<path d="m228.75,6.73c3.62-2.26 8.21-1.21 12.22-1.75 33.34-.11 66.69,.2 100.04-.12 4.35,.44 9.09-.72 13.29,.89 26.66,14.87 46.59,43.26 47.54,74.27 .55,20.31-.07,40.64 .19,60.95 72.98,.05 145.97,.05 218.96,.01 .17-21.67-.57-43.37 .97-65 2.05-21.82 13.12-42.14 29.23-56.8 6.99-5.65 13.95-14.28 23.82-13.99 34.99-.62 70,.14 105-.33 5.68,.35 12.35-1.25 17.01,3.11 22.95,14.37 40.44,38.65 43.14,66 1.82,22.28 .39,44.67 .87,67 24.99,.23 49.99-.25 74.99,.1 17.74,.19 35.27,7.52 47.8,20.1 11.23,10.17 19.69,23.73 22.21,38.81 2.17,14.56 1.96,29.34 2.01,44.02-.22,233.32 .23,466.65-.22,699.96 .84,34.4-25.7,67.15-59.5,73.29-8.01,1.46-16.2,1.58-24.31,1.75-263.34,.03-526.68-.05-790.02,.04-14.62,.1-29.64-2.91-42-11.04-15.68-10.07-28.46-25.63-33.13-43.89-2.68-12.51-2.74-25.39-2.89-38.11 .11-235-.07-470.01 .09-705.01-.11-16 2.67-32.56 12.03-45.91 10.02-14.12 23.96-26.28 40.92-31 10.65-3.31 21.96-2.97 32.99-3.15 20.32,.05 40.65,.15 60.98,.04 .32-21.6-.53-43.23 .32-64.82 2.45-28.9 20.94-54.72 45.45-69.42m41.66,61.81c-9.21,1.18-15.17,10.57-14.36,19.43-.11,53.36-.09,106.72-.01,160.07-1.4,9.25 4.63,19.22 14.07,20.7 15.14,.63 30.35,.78 45.47-.29 4.8-.44 8.3-4.23 11.12-7.77 2.69-5.86 2.3-12.41 2.41-18.66-.25-50.02-.03-100.04-.09-150.05-.4-4.65 .32-9.71-2.02-13.98-2.59-6.69-10.17-10.08-17.01-9.83-13.18-.45-26.42-.7-39.58,.38m438.01,.02c-7.96,1.22-14.06,9.44-13.37,17.4-.1,55.02-.11,110.06 .01,165.08-.84,8.72 6.24,17.2 14.96,17.75 13.31,.58 26.65,.51 39.98,.06 6.68,.56 13.45-3.68 16-9.84 2.91-5.19 1.81-11.35 2.12-17-.4-51.67 .22-103.34-.28-155 .59-8.63-5.42-17.17-14.16-18.56-15.05-.94-30.22-.96-45.26,.11m-598.4,292.46c-.04,194.65-.03,389.3 0,583.96 267.99,.04 535.97,.03 803.96,0 .04-194.65 .03-389.31 0-583.96-267.99-.04-535.97-.03-803.96,0Z"/>
</svg>
