<svg width="1280" xmlns="http://www.w3.org/2000/svg" height="1280" viewBox="0 0 1024 1024">
<path d="m228.76,6.73c3.63-2.21 8.2-1.2 12.21-1.74 33.34-.14 66.69,.2 100.04-.13 4.35,.43 9.08-.7 13.28,.9 26.68,14.84 46.6,43.25 47.54,74.26 .57,20.31-.03,40.64 .18,60.97 72.99,.02 145.99,.02 218.99,0 .13-21.67-.57-43.38 .96-65.01 2.05-21.83 13.13-42.13 29.22-56.8 6.99-5.66 13.96-14.26 23.82-13.98 34.99-.65 70.01,.14 105.01-.34 5.68,.36 12.34-1.22 17,3.11 22.97,14.36 40.45,38.66 43.15,66.01 1.79,22.28 .46,44.68 .85,67 25,.2 50-.26 75.01,.09 17.74,.2 35.27,7.52 47.8,20.1 11.46,10.36 19.99,24.26 22.36,39.67 2.39,17.61 1.76,35.44 1.84,53.16-.09,228.34 .07,456.68-.07,685.02 .2,16.88-3.41,34.47-13.79,48.16-10.95,14.67-26.69,26.7-45.05,29.91-14.87,2.7-30.09,1.72-45.11,1.95-256.67-.07-513.34-.07-770.01,0-14.62,.08-29.64-2.89-42-11.04-15.68-10.08-28.47-25.63-33.13-43.89-2.67-12.51-2.74-25.39-2.89-38.11 .07-233.33 .02-466.67 .02-700.01-.07-15.91 1.07-32.62 9.44-46.61 10.64-17.7 27.89-32.3 48.44-36.57 9.24-1.94 18.74-1.74 28.13-1.88 20.33,.04 40.66,.12 60.99,.06 .27-21.62-.54-43.24 .32-64.84 2.44-28.9 20.92-54.75 45.45-69.42m41.66,61.85c-9.6,1.44-15.87,12.09-14.49,21.39 .29,53.34-.28,106.69 .27,160.02-.84,8.4 5.45,16.33 13.43,18.35 14.92,1.28 30.01,1.17 44.95,.08 9.6-1.45 15.87-12.09 14.49-21.39-.08-50.02-.13-100.03 .01-150.04-.4-5.85 .43-12-1.42-17.66-2.86-6.78-10.16-11.81-17.66-11.17-13.19-.48-26.43-.72-39.58,.42m438.99-.03c-8.19,1.19-14.99,9.05-14.26,17.45-.25,54.99-.31,110.01 .03,165-1.06,10.16 9.02,18.72 18.78,17.93 13.45,.34 26.97,.69 40.39-.63 9.19-1.95 15.04-12.2 13.72-21.27-.08-50.02-.14-100.03 .02-150.04-.46-5.83 .51-12.02-1.47-17.63-3.09-6.65-10-11.88-17.62-11.19-13.19-.5-26.44-.73-39.59,.38m-599.4,292.46c-.02,54.66-.02,109.32 0,163.98 54.66,.02 109.32,.02 163.98,0 .02-54.66 .02-109.32 0-163.98-54.66-.02-109.32-.02-163.98,0m201,0c-.02,54.66-.02,109.32 0,163.98 60.66,.02 121.32,.02 181.98,0 .02-54.66 .02-109.32 0-163.98-60.66-.02-121.32-.02-181.98,0m219,0c-.02,54.66-.02,109.32 0,163.98 60.99,.02 121.98,.02 182.98,0 .02-54.66 .01-109.32 0-163.98-60.99-.02-121.99-.02-182.98,0m220,0c-.02,54.66-.02,109.32 0,163.98 54.66,.02 109.32,.02 163.98,0 .02-54.66 .02-109.32 0-163.98-54.66-.02-109.32-.02-163.98,0m-640,201c-.02,60.66-.02,121.32 0,181.98 54.66,.02 109.32,.02 163.98,0 .02-60.66 .02-121.32 0-181.98-54.66-.02-109.32-.02-163.98,0m201,0c-.02,60.66-.02,121.32 0,181.98 60.66,.02 121.32,.02 181.98,0 .02-60.66 .02-121.32 0-181.98-60.66-.02-121.32-.02-181.98,0m219,0c-.02,60.66-.02,121.32 0,181.98 60.99,.02 121.98,.02 182.98,0 .02-60.66 .01-121.32 0-181.98-60.99-.02-121.99-.02-182.98,0m220,0c-.02,60.66-.02,121.32 0,181.98 54.66,.02 109.32,.02 163.98,0 .02-60.66 .02-121.32 0-181.98-54.66-.02-109.32-.02-163.98,0m-640,219c-.02,54.66-.02,109.32 0,163.98 54.66,.02 109.32,.02 163.98,0 .02-54.66 .02-109.32 0-163.98-54.66-.02-109.32-.02-163.98,0m201,0c-.02,54.66-.02,109.32 0,163.98 60.66,.02 121.32,.02 181.98,0 .02-54.66 .02-109.32 0-163.98-60.66-.02-121.32-.02-181.98,0m219,0c-.02,54.66-.02,109.32 0,163.98 60.99,.02 121.98,.02 182.98,0 .02-54.66 .01-109.32 0-163.98-60.99-.02-121.99-.02-182.98,0m220,0c-.02,54.66-.02,109.32 0,163.98 54.66,.02 109.32,.02 163.98,0 .02-54.66 .02-109.32 0-163.98-54.66-.02-109.32-.02-163.98,0Z"/>
</svg>
