<svg width="1280" xmlns="http://www.w3.org/2000/svg" height="1280" viewBox="0 0 1024 1024">
<path d="m318.75,43.71c6.09-3.5 13.52-2.25 20.22-2.81 115.02,.16 230.04,.16 345.06,0 6.91,.5 14.6-.59 20.86,3.12 15.77,9.24 30.6,20.83 40.97,36.09 7.87,10.88 12.29,23.69 16.87,36.18 7.83,20.54 15.23,41.25 23.3,61.69 42.99,.17 85.99-.13 128.99,.04 15.81-.08 31.71,2.08 46.66,7.34 24.21,7.84 45.25,23.5 62.32,42.12v705.08c-18.16,19.36-40.6,35.46-66.27,43.02-16.35,5.24-33.65,6.56-50.72,6.45-256.67-.05-513.34-.05-770.01,0-22.36-.23-45.32,1.63-67-5.09-27.11-6.96-51.06-23.21-70-43.52v-706.92c24.76-27.55 59.75-46.18 96.99-48.41 46.77-.57 93.56,.58 140.32-.5 9.55-25.54 19.1-51.08 28.7-76.6 9.36-25.06 29.94-44.24 52.74-57.28m176.7,280.85c-18.04,1.04-36,3.74-53.44,8.52-40.62,10.71-77.47,33.33-107.68,62.26-24.62,24.34-45.76,52.67-59.23,84.72-12.8,30.92-19.96,64.39-19.22,97.94-.52,25.97 2.96,52.01 10.29,76.93 17.28,58.14 57.77,107.65 107.85,141.04 48.9,32.64 109.87,44.98 167.93,37.98 56.33-5.47 110.13-31.95 149.34-72.66 19.12-18.39 35.18-39.91 47.92-63.16 15.19-29 24.41-61.08 27.4-93.66 1.62-30.95 .52-62.4-7.71-92.44-13.66-52.67-46.72-99.2-88.95-132.99-48.2-39.98-112.24-59.18-174.5-54.48Z"/>
<path d="m505.46,415.56c23-1.53 46.28,2.82 67.65,11.28 45.35,18.82 82.35,58.18 96.48,105.43 11.72,42.64 8.16,90.32-14.46,128.82-23.85,40.3-64.2,71.91-110.79,80.28-16.54,3.32-33.54,2.96-50.3,2.48-26.85-2.78-53.08-12.17-75.21-27.7-13.48-9.61-25.42-21.28-36.15-33.84-36.14-43.09-44.79-105.63-26.52-158.19 17.71-47.75 58.15-86.9 106.95-101.93 13.73-4.16 28.05-5.9 42.35-6.63Z"/>
</svg>
