<svg width="1280" xmlns="http://www.w3.org/2000/svg" height="1280" viewBox="0 0 1024 1024">
<path d="m0,137.52c4.04-34.43 34.86-64.2 69.99-64.42 283.33-.26 566.67,.03 850.01-.14 18.87,.32 38.43-1.9 56.64,4.36 14.72,5.44 27.06,16.29 35.9,29.12 6.29,9.23 9.34,20.15 11.46,31v748.16c-2.38,14.15-7.4,28.42-17.33,39.09-10.28,11.87-24.11,21.39-39.8,24.14-10.13,2.2-20.57,2-30.86,2.22-288.34-.22-576.68,.19-865.01-.2-28-.5-54.41-18.93-65.25-44.61-2.66-6.71-4.69-13.65-5.75-20.79v-747.93m146.01-27.51c-.04,23.99-.03,47.98 .01,71.97 73.32,.04 146.64,.02 219.97,.01 .04-23.99 .03-47.98-.01-71.97-73.32-.05-146.64-.02-219.97-.01m331.28,36.13c-11.93,24.37-24.15,48.6-36.33,72.85-122.65,.04-245.3-.02-367.95,.02-.04,24.33-.03,48.65 0,72.98 292.66,.01 585.31,.03 877.97-.01 .04-48.66 .03-97.31 0-145.97-157.9,.06-315.8-.18-473.69,.13m21.16,184.39c-32.58,1.79-64.92,10.23-93.25,26.65-35.18,20.14-64.64,49.93-85.18,84.81-14.99,26.4-24.04,56.09-26.71,86.32-1.19,25.31-.53,50.99 5.65,75.7 7.7,32.56 23.93,62.94 46.07,87.97 20.27,22.83 44.13,43.06 71.96,56.05 25.21,12.39 53.05,19.09 81.05,20.77 33.94,1.35 68.69-3.04 100.01-16.72 30.83-13.06 57.95-33.98 79.92-59.12 32.47-36.31 51.92-84.16 53-132.94 1.15-29.49-2.49-59.4-12.81-87.14-13.54-37.34-38.64-69.78-69.2-94.83-41.43-34.8-96.75-51.5-150.51-47.52m-425.21,473.79c-.53,24.22-.16,48.44-.23,72.67 292.66,.02 585.32,.01 877.98,0-.08-24.24 .34-48.48-.3-72.71-93.9-.66-187.8-.09-281.69-.28-198.59,.21-397.18-.43-595.76,.32Z"/>
<path d="m503.44,403.5c34.15-2.37 69.18,7.72 96.22,28.87 28.25,21.5 49.53,52.99 55.71,88.24 3.4,19.6 4.19,40-.14,59.52-9.89,48.74-47.05,90.51-93.61,107.45-38.53,13.07-82.66,11-118.66-8.56-38.47-21.42-68.66-59.73-75.19-103.87-3.09-22.27-3.17-45.4 3.43-67.08 15.2-50.99 59.83-93.06 112.65-102.27 6.48-1.16 13.03-1.81 19.59-2.3m-.99,54.01c-46.89,3.6-87.4,49.68-80.95,97.07 3.85,13.69 25.06,16.49 32.51,4.44 3.46-5.51 2.88-12.21 3.73-18.36 2.46-22.8 21.5-43.2 44.44-46.16 7.99-1.49 17.38-.33 23.69-6.6 5.32-7.36 6.23-19.37-1-25.77-5.52-6.3-14.97-5.35-22.42-4.62Z"/>
</svg>
