<svg width="1280" xmlns="http://www.w3.org/2000/svg" height="1280" viewBox="0 0 1024 1024">
<path d="m377.73,82.74c11.02-8.3 25.68-11.77 39.19-8.69 9.16,2.76 16.33,9.47 22.77,16.25 11.91,13.74 25.64,25.73 37.77,39.26 11.01,12.18 23.55,22.92 34.17,35.47 9.55-9.92 19.65-19.32 28.79-29.63 11.74-12.59 24.52-24.16 35.92-37.07 7.9-8.07 15.42-17.2 25.74-22.28 13.11-5.59 28.66-3.06 40.54,4.37 7.97,5.03 13.1,13.58 15.32,22.58 9.27,36.02 18.49,72.06 27.39,108.17 35.34-9.71 70.51-20.07 105.77-30.09 10.84-3.12 23.45-2.83 32.86,3.97 10.5,7.15 19.83,18.4 20.45,31.63 .53,6.46-1.31,12.77-2.71,19.01-9.68,34.14-19.79,68.16-29.08,102.4 35.45,8.92 70.78,18.31 106.27,27.08 9.77,2.79 19.83,7.67 24.95,16.92 9.71,14.32 10.2,35.62-2.22,48.54-26.51,27.94-55.37,53.52-81.99,81.36 6.3,6.48 12.63,12.95 19.21,19.16 18.49,16.48 34.8,35.24 53.37,51.64 7.53,7.35 15.92,15.32 17.75,26.2 4.27,17.81-4.81,38.7-21.94,46.09-5.03,2.5-10.69,3.38-16.01,4.98-33.09,8.4-66.09,17.19-99.29,25.15 6.3,25.17 14.14,49.94 21.04,74.95 3.75,13.75 8.46,27.3 10.64,41.43 1.2,10.24-3.2,20.33-10.13,27.67-6.65,7.8-15.77,14.24-26.25,15.04-6.39,1.13-12.8-1.13-18.96-2.42-34.58-9.59-68.86-20.29-103.63-29.13-8.34,33.12-17.06,66.15-25.19,99.33-2.19,10.35-6.05,20.82-13.91,28.26-14.18,12.55-37.74,14.22-52.66,2.02-8.27-6.72-14.62-15.39-22.39-22.63-20.36-19.45-38.89-40.68-59.28-60.09-28.18,26.95-54.17,56.06-82.33,83.02-19.65,16.73-54.72,7.05-62.57-17.76-10.42-37.22-18.77-75.01-29.07-112.27-36.13,9.76-71.98,20.56-108.11,30.31-8.51,2.6-18.01,2.3-25.92-1.99-14.7-8.34-27.93-24.36-24.51-42.38 9.63-37.99 21.64-75.36 31.57-113.28-36.02-8.98-72-18.13-107.93-27.43-11.13-2.87-21.01-10.57-26.02-20.97-5.71-12.38-6.18-27.75 1.27-39.52 7.16-9.41 16.07-17.27 24.41-25.58 21.17-19.26 40.46-40.46 61.62-59.73-10.66-10.83-21.2-21.81-32.51-31.98-14.66-13.66-28.1-28.56-42.91-42.06-6.58-5.98-13.1-13.02-14.83-22.06-5.77-20.31 6.73-45.1 27.9-49.8 36.25-9.91 72.86-18.49 109.21-28.05-9.5-33.6-19.13-67.16-28.77-100.71-2.79-9.68-5.26-20.51-1.35-30.26 4.94-11.51 14.46-21.07 26-25.99 9.01-3.39 18.93-2.05 27.94,.64 25.6,7.63 51.42,14.52 77.07,21.98 8.7,2.52 17.38,5.13 26.26,6.97 9.17-36.24 18.08-72.56 27.72-108.69 1.76-7.43 6.07-14.12 11.59-19.31Z"/>
</svg>
