<svg width="1280" xmlns="http://www.w3.org/2000/svg" height="1280" viewBox="0 0 1024 1024">
<path d="m798.06,178.11c20.33-9.79 46.7-6.16 62.7,10.12 25.02,24.98 49.92,50.08 75.04,74.97 9.1,8.42 16.33,19.44 18.06,31.92 3.56,16.46-1.36,34.53-13.11,46.63-164.99,165.01-330.03,329.98-494.98,495.03-19.42,19.72-55.09,19.65-74.54,0-95.95-96.06-192-192.02-287.98-288.03-19.25-19.68-18.91-54.49 .54-73.95 25.34-25.65 51.05-50.96 76.43-76.58 7.27-7.43 15.9-14.25 26.19-16.72 15.6-3.41 33.4-2.35 46.48,7.64 15.59,11.59 27.6,27.06 41.34,40.63 44.87,44.69 89.48,89.63 134.41,134.26 121.84-122.28 244.14-244.12 366.08-366.31 7.18-7.15 14.05-15.11 23.34-19.61Z"/>
</svg>
