<svg width="1280" xmlns="http://www.w3.org/2000/svg" height="1280" viewBox="0 0 1024 1024">
<path d="m487.46,73.59c68.07-4.06 137.22,7.75 199.67,35.29 77.69,34.2 145.7,90.72 191.88,162.1 38.36,58.14 62.72,125.52 69.12,194.96 3.78,45.19 3.19,91.22-6.54,135.67-13.66,68.42-45.24,132.85-88.99,187.01-46.4,57.64-108.03,102.66-176.47,130.54-55.91,23.13-116.9,32.46-177.2,31.28-79.25-1.54-157.81-25.95-224.28-69.09-89.76-56.96-156.99-148.04-185.7-250.34-22.08-81.12-21.68-168.53 2.98-249.04 32.21-103.89 104.11-195.16 198.47-249.53 59.54-35.47 127.88-55.56 197.06-58.85m208.85,264.73c-46.07,45.24-90.8,91.89-137.58,136.41-32.96,33.17-66.24,66.02-99.08,99.31-43.42-43.15-86.6-86.54-129.89-129.81-9.96-10.61-26.63-12.81-39.67-7.12-7.42,3.51-12.59,10.03-18.44,15.53-15.12,13.87-29.41,28.61-43.9,43.13-11.18,10.71-13.73,28.27-7.77,42.25 6.59,11.34 16.66,19.99 25.77,29.23 61.5,61.51 123.02,122.99 184.49,184.52 7.91,8.3 18.75,15.33 30.71,14.18 11.37,.29 21.21-6.38 28.83-14.17 101.41-101.59 203.03-202.98 304.45-304.56 15.87-13.84 16.22-41.07 1.07-55.51-12.59-12.43-24.84-25.19-37.98-37.04-9.16-8.22-16.7-19.49-29.17-22.92-10.86-2.26-23.19-.92-31.84,6.57Z"/>
</svg>
