<svg width="1280" xmlns="http://www.w3.org/2000/svg" height="1280" viewBox="0 0 1024 1024">
<path d="m223.46,73.59c3.63-.15 10.89-.44 14.52-.59 183.35-.01 366.69,.03 550.03-.02 26.36-.01 52.78,6.48 75.96,19.09 41.02,23.22 73.64,63.26 82.99,109.98 3.04,15.11 3.78,30.57 4.04,45.94 0,176.67-.01,353.34 .01,530.02-.06,21.18-2.08,42.65-9.36,62.69-8.23,24.76-23.71,46.57-42.37,64.58-20.33,19.62-45.63,34.4-73.28,40.69-17.32,4.18-35.27,4.77-53,5.07-176.67-.08-353.34-.03-530.01-.03-25.29,.18-51.11-3.84-74-15.01-30.74-14.09-56.41-38.28-73.94-67.05-15.52-25.01-22-54.72-22.05-83.93 0-183.35-.01-366.69 0-550.04 .2-24.51 5.57-49.2 16.98-70.99 25.42-49.97 76.84-87.18 133.48-90.4m478.77,210.65c-42.47,42.52-84.99,85-127.48,127.51-26.5,26.84-53.79,52.9-79.48,80.51-18.82,18.63-37.32,37.57-56.27,56.06-36.6-36.17-72.82-72.73-109.23-109.09-7.87-7.52-14.93-16.86-25.64-20.4-10.95-3.8-23.91-1.99-33.03,5.29-5.68,4.25-10.34,9.65-15.37,14.61-14.48,14.52-28.94,29.07-43.55,43.45-4.77,4.66-9.17,9.85-12.09,15.9-3.23,6.93-2.17,14.92-1.51,22.28 1.57,7.77 6.79,14.29 12.15,19.91 62.54,62.46 125.02,124.98 187.51,187.49 7.9,7.77 15.23,16.47 25.15,21.8 8.2,4.18 18.03,4.27 26.73,1.6 10.52-3.37 17.47-12.53 25.15-19.89 109.47-109.53 218.96-219.04 328.5-328.5 7.51-7.87 16.86-14.93 20.4-25.64 4.52-12.81 .92-27.98-8.92-37.37-18.79-18.88-37.7-37.65-56.48-56.54-7.89-8.16-19.04-14.02-30.71-12.15-10.19-.02-18.82,6.41-25.83,13.17Z"/>
</svg>
