<svg width="1280" xmlns="http://www.w3.org/2000/svg" height="1280" viewBox="0 0 1024 1024">
<path d="m490.45,73.5c77.07-4.2 155.24,12.47 223.56,48.46 54.12,28.24 102.6,67.57 140.64,115.37 46.84,59.03 79.48,129.86 90.44,204.64 11.19,74.46 5.23,152.05-21.51,222.7-24.58,65.81-65.17,125.54-117.11,172.82-45.49,40.81-99.36,72.3-157.33,91.67-65.21,21.11-135.33,26.17-203.12,16.79-71.85-10.4-140.61-39.76-198.46-83.48-73.36-54.6-128.18-133.3-155.39-220.49-24.78-82.11-25.95-171.45-2.03-253.91 29.54-100.55 96.17-190.01 184.87-246.05 63.87-41.87 139.25-65.17 215.44-68.52m4.01,128.08c-90,3.73-176.61,50.47-230.47,122.41-46.33,60.29-69.16,138.17-61.77,213.94 5.16,75.64 40.95,148.06 96.03,199.82 57.15,54.22 135.64,86.58 214.75,84.36 55.26,.63 110.67-14.5 157.88-43.27 58-33.91 103.56-87.87 129.05-149.87 26.19-63.12 28.83-134.79 11.66-200.61-19.9-71.1-65.9-134.71-127.57-175.4-55.19-37.42-123.03-55.79-189.56-51.38Z"/>
<path d="m643.67,346.68c13.07-5.57 29.2-2.78 39.35,7.3 17.58,16.39 34.01,33.99 51.27,50.73 8.11,7.96 16.98,16.97 18.13,28.91 2.05,11.96-3.16,23.88-11.64,32.15-79.9,79.77-159.67,159.68-239.54,239.48-13.07,13.97-37.92,14.89-51,.51-56.45-56.55-113.06-112.96-169.46-169.56-13.58-12.49-13.18-35.95-.38-48.83 16.57-17.4 34.04-33.94 50.81-51.16 7.44-7.42 14.9-16.12 25.75-18.27 12.23-3.31 25.44,.99 34.26,9.81 28.02,27.77 55.66,55.93 83.78,83.6 46.4-46.04 92.47-92.43 138.75-138.6 9.56-9.11 17.93-19.98 29.92-26.07Z"/>
</svg>
