<svg width="1280" xmlns="http://www.w3.org/2000/svg" height="1280" viewBox="0 0 1024 1024">
<path d="m187.4,110.48c3.65-.13 10.94-.39 14.59-.51 158.34,.04 316.67,.07 475.01-.02 20.93-.56 41.75,4.2 61.13,11.86 5.98,2.76 13.35,6.03 14.91,13.2 3.51,8.47-1.71,16.75-7.72,22.3-9.39,8.95-18,18.76-27.93,27.12-5.79,4.6-13.3,2.52-19.83,1.2-15.59-3.6-31.71-2.5-47.56-2.67-150.01,.09-300.01,.02-450.02,.04-36.75-.56-71.25,24.78-84.42,58.61-7.75,18.84-5.27,39.55-5.57,59.39-.01,150 .08,300.01-.05,450.01-.93,24.26 10.23,47.87 27.72,64.34 15.69,16.07 37.76,25.83 60.32,25.6 160.01,.16 320.02-.07 480.03,.11 37.13,.94 71.64-25.26 84.57-59.41 4.32-12.05 5.51-24.93 5.43-37.64-.02-45.01 .06-90.02-.12-135.03-.08-4.96-.22-10.75 3.55-14.57 7.92-9.05 17.01-16.97 25.29-25.68 6.42-6.25 12.2-13.47 20.15-17.88 10.69-3.83 25.29,5.05 23.95,17.17 .47,59.98-.03,119.99 .22,179.99 .5,28.87-6.32,58.05-20.96,83.04-23.57,39.33-62.63,70.88-108.2,79.82-18.03,3.79-36.58,3.43-54.89,4.14-146.67-.03-293.34,.02-440.01-.02-17.84-.5-35.98-.05-53.42-4.48-24.31-5.41-47.25-16.74-66.24-32.86-32.42-26.19-55.27-64.86-59.47-106.61-1.55-20.3-2.14-40.68-1.89-61.04 .08-140-.01-280 .05-420.01 .44-17.57 .05-35.41 4.44-52.58 6.44-30.38 22.8-58.35 45.21-79.74 26.53-27.65 63.46-44.85 101.73-47.19Z"/>
<path d="m871.41,147.51c15.18-2.74 30.57,4.26 40.86,15.22 20.45,20.55 41.01,40.99 61.49,61.52 13.04,12.9 16.78,34.04 9.13,50.66-5.19,10.6-14.56,18.07-22.64,26.34-150.99,151.01-302.03,301.98-452.99,453.03-12.48,13.45-33.67,17-50.28,9.72-6.89-3.38-12.79-8.41-18.23-13.74-77.02-76.99-153.96-154.05-231.03-230.98-7.57-7.82-16.18-15.18-20.76-25.28-6.87-15.89-4.33-35.54 7.82-48.2 21.85-22.15 44.06-43.96 65.93-66.1 15.93-17.01 46.1-17.55 62.49-.91 50.73,50.38 101.01,101.22 151.8,151.55 122.77-122.35 245.1-245.14 367.78-367.56 7.68-7.8 17.54-14.11 28.63-15.27Z"/>
</svg>
