<svg width="1280" xmlns="http://www.w3.org/2000/svg" height="1280" viewBox="0 0 1024 1024">
<path d="m489.4,73.44c69.21-3.65 139.47,8.73 202.58,37.61 42.08,18.93 81.14,44.63 115.33,75.63 31.89,28.23 58.49,62.05 80.76,98.26 36.96,60.5 58.53,130.22 61.92,201.06 4.14,62.13-5.41,125.15-27.72,183.29-31.31,80.59-86.35,152.14-157.45,201.55-54.58,38.6-118.04,64.94-184.29,74.6-33.47,4.86-67.47,6.6-101.23,4.19-75.18-5.09-148.91-30.35-211.29-72.66-23.29-15.16-44.55-33.2-64.74-52.24-57.13-57.27-99.43-129.87-118.21-208.75-20.45-87.47-15.47-181.36 17.89-265.05 33.69-85.25 94.47-159.88 172.06-208.9 63.59-41.67 138.55-64.99 214.39-68.59m-183.94,289.11c-8.88,.85-16.47,6.14-22.65,12.26-16.7,16.29-32.95,33.05-49.61,49.39-5.22,5.48-10.94,10.84-14.15,17.82-6,13-3.8,29.98 7.18,39.74 87.02,86.98 174.04,173.98 261.01,261.01 12.83,13.66 36.55,13.38 49.51-.01 86.99-87.01 174-174.01 261.01-261.01 11.01-10.51 13.21-28.41 6.18-41.72-2.39-4.11-5.91-7.41-9.14-10.83-19.11-18.89-38.02-37.99-57.04-56.97-12.65-13.46-35.98-13.46-48.98-.46-59.01,58.75-117.65,117.91-176.79,176.54-58.77-58.33-117.12-117.1-175.76-175.56-7.95-7.96-19.54-12.35-30.77-10.2Z"/>
</svg>
