<svg width="1280" xmlns="http://www.w3.org/2000/svg" height="1280" viewBox="0 0 1024 1024">
<path d="m297.2,87.2c13.18-14.59 33.4-21.53 52.81-20.29 17.67-.41 35.03,7.19 47.25,19.83 91.48,91.52 182.99,183.01 274.49,274.51 27.15,25.15 52.63,52.04 79,78 12.61,13.07 27.44,24.91 35.27,41.73 5.85,11.68 6.67,25.16 5.86,37.99-.76,15.99-8.28,31.22-19.14,42.78-121.47,121.52-243.02,242.97-364.47,364.52-11.24,11.78-23.89,23.91-40.29,27.63-25.17,7.55-54.14,.76-72.28-18.59-15.35-16.66-33.46-30.59-47.98-48.03-18.95-22.79-22.01-57.73-6.66-83.22 4.15-6.67 9.17-12.74 14.69-18.31 91.4-91.49 182.97-182.81 274.28-274.4-89.28-88.84-178.13-178.12-267.3-267.08-6.52-6.47-13.68-12.51-18.65-20.34-18.16-25.82-17.08-64.01 3.93-87.93 15.58-17.06 32.63-32.71 49.19-48.8Z"/>
</svg>
