<svg width="1280" xmlns="http://www.w3.org/2000/svg" height="1280" viewBox="0 0 1024 1024">
<path d="m128.9,253.9c21.72-23.07 59.05-30.02 87.12-14.91 6.37,2.88 11.73,7.44 16.74,12.24 92.95,92.95 185.82,185.97 278.88,278.81 91.33-91.8 183.15-183.12 274.58-274.82 6.68-6.81 14.34-12.72 22.78-17.2 26.04-11.98 59.42-8.6 80.64,11.36 15.83,15.15 30.99,30.99 46.64,46.34 22.37,22.32 27.44,59.82 11.62,87.21-7.24,12.65-18.65,21.98-28.65,32.32-114.49,114.51-229.02,228.98-343.49,343.51-8.77,8.56-16.89,18.23-27.84,24.13-16.44,9.5-36.62,11.53-54.95,7.19-16.25-4.18-29.42-15.4-40.76-27.29-120.91-121.09-241.98-242.02-362.97-363.04-10.07-10.51-18.77-23.21-21.08-37.87-4.62-22.38 1.48-46.8 17.19-63.54 14.26-15.06 29.65-29.03 43.55-44.44Z"/>
</svg>
