<svg width="1280" xmlns="http://www.w3.org/2000/svg" height="1280" viewBox="0 0 1024 1024">
<path d="m490.45,73.48c72.6-3.85 146.21,10.53 211.64,42.37 72.46,35.18 135.82,89.88 178.89,158.16 35.82,54.98 59.17,118.16 66.44,183.45 8.79,70.69 .69,143.58-24.79,210.19-23.82,62.74-62.45,119.71-111.41,165.57-47.77,44.18-105.26,77.89-167.29,97.62-42.33,12.95-86.64,19.82-130.93,19.24-133.92,3.17-266.05-62.87-347.65-168.4-48.67-62.72-80.95-138.57-89.28-217.72-12.41-100.07 10.65-204.46 65.95-288.96 48.67-76.96 122.41-137.36 206.85-171.16 44.93-18.42 93.19-27.83 141.58-30.36m69.99,143.02c-8.48,1.05-15.81,6.33-21.7,12.24-81.99,82-163.96,164.04-246.01,245.98-6.74,6.97-14.68,13.26-18.81,22.26-5.9,12.76-3.59,29.49 6.81,39.29 82.04,81.95 164.01,163.99 246.02,245.98 7.26,7.06 13.78,15.03 22.32,20.64 13.34,8.68 32.09,5.26 43.14-5.68 19.09-18.92 38.08-37.94 57.02-56.99 9.53-8.94 15.09-22.88 11.25-35.77-1.8-10.59-10.48-18.04-17.68-25.25-54.64-54.37-108.99-109.03-163.6-163.43-2.02-1.69-4.55-4.68-1-6.53 54.09-53.92 107.98-108.04 162.09-161.95 7.85-7.96 16.79-15.84 20.14-26.91 2.88-11.86 .19-25.35-8.68-34.11-19.61-19.74-39.37-39.32-58.98-59.05-8.24-8.57-20.49-13.33-32.33-10.72Z"/>
</svg>
