<svg width="1280" xmlns="http://www.w3.org/2000/svg" height="1280" viewBox="0 0 1024 1024">
<path d="m461.79,250.79c26.44-26.58 73.9-26.3 100.41,0 121.63,121.37 242.97,243.04 364.58,364.43 12.62,12.06 24.65,26.26 28.25,43.82 5.62,22.81-.19,48.36-16.41,65.59-15.2,15.79-30.91,31.09-46.4,46.6-24.92,25.89-70.7,28.48-97.41,3.96-27.38-26.61-53.51-54.52-81.56-80.44-67.12-66.99-133.98-134.23-201.25-201.07-21.83,21.27-43.02,43.19-64.81,64.5-13.52,12.13-26.05,25.29-38.94,38.07-58.99,59.01-118.02,117.98-176.99,177.02-19.57,19.54-51.07,23.57-76.24,13.64-18.34-7.64-30.78-23.81-44.77-37.16-13.46-14.27-29.97-26.56-37.97-45.05-11.16-26.83-5.29-60.19 15.97-80.45 124.52-124.47 248.95-249.06 373.54-373.46Z"/>
</svg>
