<svg width="1280" xmlns="http://www.w3.org/2000/svg" height="1280" viewBox="0 0 1024 1024">
<path d="m490.45,73.48c77.8-4.15 156.79,12.72 225.58,49.46 40.93,21.4 78.13,49.64 110.71,82.31 46.7,48.52 82.45,107.62 103.42,171.63 22.14,71.04 26.85,147.68 12.46,220.74-14.2,73.86-48.78,143.34-97.63,200.38-45.53,53.11-104.1,94.83-168.86,121.16-65.66,27.16-138.12,35.26-208.6,29.45-66.72-6.55-131.94-28.6-188.53-64.61-110.03-67.79-187.23-186.94-202.38-315.47-12.24-91.85 5.14-187.57 50.34-268.57 23.23-41.64 52.91-79.69 87.96-112.04 42.35-38.25 91.79-68.84 145.41-88.5 41.6-15.65 85.82-23.56 130.12-25.94m-64.7,158.27c-17.39,17.59-35.22,34.78-52.33,52.63-8.2,8.4-13.19,20.16-10.89,32.02 1.5,13.75 13.22,22.65 22.2,31.87 54.53,54.59 109.28,108.96 163.59,163.77-58.55,58.88-117.4,117.45-176.08,176.21-13.26,12.66-13.48,35.96-.46,48.95 20.46,20.53 40.81,41.2 61.59,61.4 13.44,12.73 36.89,11.79 49.37-1.85 82.52-82.48 164.98-165.02 247.53-247.48 7.07-7.27 15.33-13.88 19.79-23.22 6.15-13.46 2.68-30.01-7.91-40.2-59.75-60.24-119.97-120.03-179.9-180.1-26.89-26.44-52.85-53.84-80.46-79.54-6.86-7.07-16.8-11.35-26.72-10.13-11.82-.3-21.49,7.75-29.32,15.67Z"/>
</svg>
