<svg width="1280" xmlns="http://www.w3.org/2000/svg" height="1280" viewBox="0 0 1024 1024">
<path d="m639.12,77.18c12.94-8.24 28.76-10.71 43.87-10.13 17.2,1.18 33.5,9.21 45.73,21.24 13.13,12.86 25.94,26.05 39.07,38.92 8.79,8.27 15.95,18.41 20.38,29.65 7.19,22 5.41,47.93-8.14,67.17-7.21,9.69-16.4,17.6-24.78,26.22-87.14,87.28-174.56,174.3-261.54,261.73 93.44,93.99 187.42,187.46 281.03,281.28 22.71,25.14 24.02,67.46 1.86,93.36-12.14,14.46-26.22,27.1-39.33,40.65-11.44,11.28-24.11,23.09-40.28,26.68-24.19,6.89-52.15,1.28-70.22-16.71-90.53-90.48-181.03-180.98-271.5-271.51-33.4-31.24-64.9-64.43-97.56-96.44-12.2-11.77-22.72-26.58-25.14-43.72-4.73-23.25 2.61-48.7 19.69-65.31 75.98-76.02 152-152 227.99-228.01 20.33-20.01 39.93-40.76 60.98-60.01 25.54-25.47 51.02-50.98 76.5-76.51 6.72-6.62 13-13.95 21.39-18.55Z"/>
</svg>
