<svg width="1280" xmlns="http://www.w3.org/2000/svg" height="1280" viewBox="0 0 1024 1024">
<path d="m489.4,73.44c65.16-3.38 131.27,7.26 191.44,32.74 76.35,32.07 144.02,85.61 190.98,154.01 40.81,57.87 67.6,125.82 75.6,196.28 9.08,72.58 .68,147.53-26.26,215.65-30.88,77.87-83.92,147.14-152.23,195.8-55.09,39.85-119.44,67.2-186.79,77.27-33.99,5.06-68.54,6.88-102.84,4.44-75.18-5.09-148.91-30.35-211.29-72.66-23.29-15.16-44.55-33.2-64.74-52.24-62.1-62.21-106.63-142.66-122.59-229.37-7.03-39.87-9.85-80.65-6.28-121.04 4.31-55.35 19.66-109.73 44.57-159.33 24.52-48.17 57.59-92.06 97.56-128.49 63.55-57.17 143.54-96.65 228.44-108.61 14.73-2.13 29.57-3.54 44.43-4.45m-5.17,209.8c-85.46,85.54-171.01,171-256.48,256.52-14.45,12.63-16.23,37.11-2.42,50.91 17.21,17.77 35.07,34.93 52.38,52.62 5.91,5.81 11.49,12.47 19.41,15.59 6.9,3.3 14.9,2.18 22.24,1.54 7.56-1.48 13.88-6.55 19.39-11.67 57.79-57.65 115.32-115.57 173.25-173.08 57.58,57.19 114.83,114.73 172.23,172.11 4.72,4.4 9.58,8.99 15.76,11.26 6.66,3.37 14.43,1.96 21.56,1.41 8.1-1.28 14.62-7.06 20.26-12.64 18.33-18.67 37.04-36.98 55.44-55.58 10.53-9.98 13.57-26.27 8.08-39.56-5.27-10.84-14.87-18.45-23.08-26.92-79.47-79.53-159.06-158.94-238.45-238.55-7.93-8.1-17.77-16.57-29.81-16.21-11.43-1.51-22.05,4.37-29.76,12.25Z"/>
</svg>
