<svg width="1280" xmlns="http://www.w3.org/2000/svg" height="1280" viewBox="0 0 1024 1024">
<path d="m490.45,73.5c71.84-3.82 144.71,10.19 209.56,41.48 77.17,36.72 143.67,96.07 187.42,169.62 42.66,68.95 64.32,150.4 62.65,231.4 1.52,134.15-66.45,265.59-173.23,345.87-55.6,41.74-120.86,71.35-189.71,82.37-38.31,6.51-77.42,7.3-116.12,4.66-67-5.89-132.58-27.68-189.62-63.34-28.92-17.5-55.27-38.96-79.61-62.34-61.34-61.97-105.26-141.85-121.11-227.85-7.37-41.65-10.03-84.28-5.82-126.42 9.39-108.34 62.66-211.3 143.25-283.85 34.53-30.71 73.71-56.26 115.9-75.12 49.21-22.02 102.66-33.9 156.44-36.48m4.01,128.08c-90,3.73-176.61,50.47-230.47,122.41-46.33,60.3-69.16,138.17-61.77,213.94 5.16,75.64 40.95,148.06 96.03,199.82 57.15,54.21 135.64,86.58 214.75,84.36 91.9,1.47 182.57-42.73 239.95-114.16 44.89-54.94 71.02-125.76 69.15-196.95 .53-28.13-3.57-56.18-10.7-83.34-20.33-71.98-67.41-136.21-130.39-176.66-54.57-36.22-121.23-53.7-186.55-49.42Z"/>
</svg>
