<svg width="1280" xmlns="http://www.w3.org/2000/svg" height="1280" viewBox="0 0 1024 1024">
<path d="m489.45,73.48c78.86-4.26 159.1,12.66 228.56,50.5 38.48,20.41 73.62,46.86 104.78,77.23 48.68,49.24 85.83,109.85 107.37,175.67 20.52,65.58 25.87,135.88 15.51,203.8-19.5,128.91-100.61,246.61-213.77,311.19-59.52,35.21-127.86,55-196.89,58.06-68.99,4.1-139.05-8.38-202.07-36.86-78.3-35.1-146.35-93.26-191.97-166.05-23.38-36.78-41.52-76.97-52.86-119.08-24.01-90.81-19.99-189.5 14.84-277.01 33.69-85.26 94.47-159.88 172.05-208.91 63.6-41.68 138.57-65.12 214.45-68.54Z"/>
</svg>
