<svg width="1280" xmlns="http://www.w3.org/2000/svg" height="1280" viewBox="0 0 1024 1024">
<path d="m490.45,73.5c71.84-3.82 144.71,10.19 209.56,41.48 55.35,26.37 105.23,64.31 145.17,110.84 53.52,63.01 90.27,140.91 100.9,223.16 4.56,30.39 4.48,61.21 3.59,91.86-4.32,76.98-30.44,152.39-73.71,216.14-38.82,58.04-91.83,106.47-153.18,139.81-61.08,34.28-130.83,52.42-200.8,53.37-68.06,2.46-136.47-12.08-197.95-41.24-72.21-34.62-135.6-88.42-179.05-155.9-24.85-37.44-43.98-78.7-56.03-122.01-23.72-87.19-21.54-181.77 9.04-267.01 32.57-90.67 95.47-170.45 177.01-221.98 63.88-41.87 139.25-65.16 215.45-68.52m4,128.08c-87.58,3.66-172.04,47.98-226.08,116.76-49.18,61.1-73.81,141.43-66.15,219.59 5.16,75.64 40.95,148.06 96.03,199.82 57.15,54.21 135.64,86.58 214.75,84.36 69.36,1.08 138.14-23.78 192.26-66.87 44.1-34.96 78.32-82.29 98.09-134.97 23.03-60.98 24.61-129.08 8.24-191.91-20.21-72.27-67.4-136.78-130.58-177.36-54.57-36.22-121.23-53.7-186.56-49.42Z"/>
<path d="m518.98,295.98c5.55-4.59 13.39-3.27 20-4 11.41,.35 23.24-1.65 34.39,1.65 7.25,2.41 12.13,9.78 11.45,17.39 .5,81.66-.07,163.33 .27,244.99-.53,6.96 1.03,14.78-3.13,20.95-3.99,7.23-13.51,8.52-20.93,8.06-58.35-.03-116.71-.01-175.06-.01-8.67,1.12-17.88-4.33-19.6-13.22-.87-14.92-.54-29.89-.33-44.82 .02-4.16 2.63-7.72 5.07-10.84 6.52-5.16 15.17-3.87 22.88-4.22 39.33,.13 78.66,.11 118,.07 .04-66.67 0-133.35-.02-200.03-.36-5.91 1.58-12.8 7.01-15.97Z"/>
</svg>
