<svg width="1280" xmlns="http://www.w3.org/2000/svg" height="1280" viewBox="0 0 1024 1024">
<path d="m269.98,139.97c42.15-21.43 89.78-31.8 137.03-30.1 77.08-.19 152.61,34.03 205.79,89.33 25.89,26.25 45.8,58.03 60,91.97 6.18-5.02 12.39-10.01 19.13-14.26 33.34-21.33 75.62-25.8 113.68-16.5 43.61,11.43 80.5,44.76 97.85,86.18 17.54,43.37 12.83,94.87-12.57,134.22 28.65,7.38 56.38,19.32 80.07,37.23 20.86,15.17 38.14,34.71 53.04,55.64v242.81c-28.98,40.61-69.84,73.98-118.13,88.29-22.6,6.82-46.33,9.23-69.86,9.24-206.67-.03-413.35-.04-620.02,.01-54.75,.04-109.58-18.27-152.39-52.61-24.88-19.52-46.39-43.21-63.6-69.73v-266.33c26.2-42.51 64.52-77.62 110.02-98.46-2.67-42.85 1.82-86.62 16.77-127.05 11.74-32.19 30.03-61.78 52.33-87.72 25.77-29.07 56.08-54.56 90.86-72.16m137.78,193.8c-5.66,4.64-6.08,12.45-5.84,19.2 .14,65 .08,130.01 .07,195.02-41.01,.14-82.03-.17-123.03,.06-2.26,.23-6.77,.68-9.02,.91-13.65,1.63-18.75,20.53-9.81,29.93 5.19,6.74 11.68,12.31 17.61,18.37 59.52,59.48 119.02,118.99 178.5,178.5 5.31,4.7 10.85,11.1 18.76,10.18 9.07,1.06 14.49-7.27 20.67-12.28 62.73-62.27 124.95-125.05 187.64-187.36 5.33-5.84 12.27-12.54 10.73-21.26 .64-10.89-11.16-17.92-21.02-16.97-41.66-.28-83.33,.08-125-.09-.07-65.34 0-130.68 .01-196.01-.5-4.33 .5-9.14-1.95-13.03-3.26-7.57-12.31-10.76-20.05-10.02-31.68,.07-63.36,.14-95.04,0-7.71,.53-17.18-1.26-23.23,4.85Z"/>
</svg>
