<svg width="1280" xmlns="http://www.w3.org/2000/svg" height="1280" viewBox="0 0 1024 1024">
<path d="m383.31,110.28c42.6-1.9 86.01,3.61 125.7,19.69 39.67,15.99 75.97,40.56 105.27,71.76 25.22,25.59 44.03,56.76 58.48,89.49 7.42-5.81 14.94-11.53 23.01-16.44 38.46-22.34 87.23-24.35 128.19-7.72 24.77,10.12 45.66,28.06 61.9,49.1 25.77,33.53 33.75,78.96 24.16,119.8-3.45,16.29-11.41,30.98-19.16,45.53 22.79,5.65 45.23,13.85 65.08,26.57 27.19,16.79 50.2,40 68.06,66.41v242.08c-19.41,27.66-44.2,51.85-73.39,69.05-26.71,15.87-57.15,25.32-88.1,27.77-18.81,1.19-37.67,1.77-56.51,1.67-193.34-.21-386.67,.21-580-.2-32.89,.17-66.03-4.25-96.92-15.87-53.29-20.01-98.29-59.26-129.08-106.77v-266.48c9.48-14.78 20.15-28.79 31.86-41.87 22.11-23.5 48.6-42.91 77.95-56.38-1.82-40.18 1.25-81.13 14.27-119.41 13.54-41.38 38.03-78.63 68.15-109.84 25.33-25.16 54.18-47.31 86.8-62.15 32.59-15.41 68.36-23.67 104.28-25.79Z"/>
</svg>
