<svg width="1280" xmlns="http://www.w3.org/2000/svg" height="1280" viewBox="0 0 1024 1024">
<path d="m279.87,135.83c39.36-18.02 82.87-26.99 126.15-25.83 34.89,.63 69.87,6.64 102.35,19.61 45.11,17.81 85.85,46.77 117.39,83.63 20.09,23.08 35.05,50.04 47.37,77.91 9.77-7.46 19.59-15.05 30.81-20.27 35.37-17.95 77.93-18.98 115.09-5.95 44.04,16.59 79.34,55.36 90.98,101.06 5.29,21.04 5.19,43.27 1.49,64.57-2.92,18.32-11.08,35.21-20.5,51 25.2,5.86 49.5,15.99 71.01,30.44 24.7,15.93 45.1,37.78 61.99,61.67v243.82c-28.74,40.22-69.28,73.07-116.99,87.53-29.05,9.19-59.83,9.68-90.01,10-191.67-.04-383.33-.03-575,0-28.79-.18-58-.54-86-8-64.86-15.45-120.25-60.12-156-115.57v-264.68c26.05-43.33 65.1-78.38 110.83-99.88-2.52-33.45 .12-67.33 8.12-99.92 10.71-42.77 32.68-82.28 61.58-115.42 27.96-31.1 61.08-58.34 99.34-75.72m173.32,189.36c-62.88,63.13-125.96,126.05-188.97,189.05-3.57,3.67-6.56,8.1-7.91,13.09-1.11,5.87 .92,12.1 4.85,16.51 4.27,3.8 10.18,5.37 15.82,5.09 41.66,.28 83.33-.08 125,.09 .02,62.66 .08,125.33-.06,187.99 .48,7.29-.91,15.38 3.15,21.95 3.07,5.17 8.7,9.21 14.89,9.06 36.67-.12 73.36,.25 110.03-.19 10.13,1.14 19.36-8.84 18.06-18.78-.06-66.68-.08-133.35-.04-200.03 42.32-.27 84.66,.36 126.97-.21 9.19,.74 17.9-6.3 19.58-15.24 1.54-7.08-2.19-14.15-7.27-18.85-65.56-65.44-131.05-130.97-196.52-196.5-3.98-3.75-8.98-7.53-14.73-7.23-9.92-.57-16.56,7.92-22.85,14.2Z"/>
</svg>
