<svg width="1280" xmlns="http://www.w3.org/2000/svg" height="1280" viewBox="0 0 1024 1024">
<path d="m297.27,77.41c29.32-8.14 62.35-5.51 88.44,10.87 25.77,16.09 46.05,42.46 51.1,72.85 2.16,12.95 3.23,26.35 .77,39.34-5.29,31.83-25.29,61-53.38,76.98-.43,94.59-.15,189.18-.14,283.77 29.51-13.14 60.08-23.75 90.95-33.21 34.08-10.41 67.77-22.72 99.08-39.89 19.99-11.08 34.88-29.14 46.71-48.33 16.16-26.42 18.68-58.4 19.05-88.59-12.46-8.95-25.46-17.98-33.97-31.1-24.18-33.2-27.75-80.17-8.09-116.32 11.07-19.79 27.96-36.47 48.27-46.66 16.85-8.71 36.18-11.24 54.94-10.99 33.28,1.34 65.3,19.33 83.98,46.88 12.94,17.84 19.82,39.93 19.15,61.98 1.77,38.65-20.85,76.11-53.82,95.46-1.38,24.6-2.71,49.36-8.45,73.42-7.53,33.69-21.09,66.39-41.84,94.14-17.18,23.28-38.66,43.38-62.99,59.04-27.17,18.23-57.8,30.24-88.36,41.47-34.38,12.88-70.13,21.87-103.97,36.21-17.27,7.5-35.79,14.93-47.75,30.22-13.06,17.34-13.26,40.14-12.99,60.83 16.33,9.94 30.87,23.24 40.16,40.13 15.52,26.49 19.03,59.79 9.7,89.02-13.76,43.68-57.51,76.95-103.81,75.19-45.41,2.61-88.64-29.07-104.15-71.02-5.78-16.6-7.26-34.53-5.64-51.97 4.28-33.13 24.27-64.22 53.54-80.66 .47-156.37 .24-312.75 .12-469.11-18.21-10.68-33.3-26.51-42.76-45.4-18.79-37.14-14.86-85.54 12.09-117.75 13.84-17.18 32.72-30.75 54.06-36.8m23.15,51.12c-22.45,3.14-41.86,22.13-45.29,44.57-4.12,20.62 5.41,43.23 22.97,54.78 15.26,11.28 36.55,11.82 53.81,5.03 14.13-6.53 25.04-19.33 29.91-34.05 3.45-12.83 2.85-26.88-2.54-39.1-10-21.72-35.01-35.87-58.86-31.23m367.02,72.97c-25.68,2.81-47.41,26.6-47.35,52.51-1.15,18.98 8.85,37.91 24.9,47.99 22.2,15.09 55.31,10.15 71.97-11.01 13.84-15.56 16.34-39.18 8-57.97-9.56-21.52-34.08-35.45-57.52-31.52m-365.01,584.99c-28.92,2.54-52.28,31.73-47.66,60.54 1.01,15.81 10.46,30.02 23.14,39.05 21.65,15.77 55.22,11.89 72.36-8.82 11.5-12.56 16.24-30.52 12.67-47.16-4.65-27.27-33.06-48.04-60.51-43.61Z"/>
</svg>
