<svg width="1280" xmlns="http://www.w3.org/2000/svg" height="1280" viewBox="0 0 1024 1024">
<path d="m595.45,120.48c12.81-1.78 24.63,4.61 36.9,7.08 10.14,1.85 22.25,7.44 22.49,19.48-1.4,9.95-4.9,19.41-7.65,29.04-66.69,230.99-133.49,461.94-200.19,692.92-2.5,8.68-4.46,17.58-8.19,25.85-3.64,6.92-11.82,10.55-19.43,8.74-12.03-3.26-24.1-6.44-36.07-9.89-9.66-2.87-16.33-13.27-12.8-23.31 70.36-243.57 140.73-487.16 211.14-730.72 1.81-7.53 5.45-16.99 13.8-19.19Z"/>
<path d="m257.7,235.68c4.58-4.12 9.59-9.31 16.35-8.73 8.29-.69 14.42,5.93 19.78,11.22 8.47,8.85 17.87,16.88 25.31,26.67 4.95,7.29 2.79,17.19-3.44,22.87-74.53,74.89-149.55,149.31-224.01,224.29 74.15,74.62 148.76,148.8 223.07,223.25 4.23,4.62 8.77,10.54 6.73,17.26-.99,7.26-7.63,11.73-12.15,16.82-9.69,8.97-17.93,19.72-29.22,26.79-5.84,2.32-12.92,.41-17.58-3.62-7.71-6.62-14.59-14.11-21.8-21.24-80.22-80.28-160.53-160.5-240.74-240.78v-36.95c85.85-86 171.93-171.78 257.7-257.85Z"/>
<path d="m737.83,231.82c6.75-7.43 19.73-6.08 25.96,1.38 86.65,86.86 173.51,173.51 260.21,260.32v36.84c-81.08,81.45-162.56,162.54-243.73,243.91-7.53,7.46-14.55,15.7-23.62,21.37-6.91,3.39-15.19,.16-20.42-4.84-9.54-9.47-19.17-18.87-28.41-28.62-4.19-4.07-6.86-10.43-4.81-16.2 1.5-8.47 9.33-13.33 14.68-19.29 71.61-71.5 143.3-142.93 214.61-214.73-67.52-67.9-135.4-135.45-203.05-203.21-7.56-7.77-15.89-14.86-22.59-23.41-2.34-3.79-5.13-8.15-4.21-12.81 .37-6.55 5.61-10.91 9.72-15.35 8.63-8.38 16.81-17.21 25.66-25.36Z"/>
</svg>
