<svg width="1280" xmlns="http://www.w3.org/2000/svg" height="1280" viewBox="0 0 1024 1024">
<path d="m122.15,119.14c8.45-8.71 21.28-10.27 32.83-10.21 210.01,.16 420.02,.02 630.03,.07 20.89,.67 41.99,.47 62.6,4.43 36.33,6.48 70.58,23.37 98.37,47.59 23.72,21.08 44.84,45.87 58,74.98 11.56,23.89 17.44,50.16 20.02,76.47v32.96c-1.06,8.32-2.29,16.63-3.64,24.91-4.14,24.7-13.25,48.47-26.06,69.96-31.16,50.76-81.91,91.01-140.89,103.17-27.88,6.62-56.79,4.94-85.18,5.68-.21,10.65-.29,21.32-1,31.96-3.55,40.88-30.12,77.68-65.35,97.75-19.85,11.53-43.08,16.19-65.86,16.12-128.34,.08-256.69-.06-385.03,.07-20.75,.03-42.05-1.43-61.4-9.59-45.22-18.77-79.55-64.74-79.53-114.44-.09-141.69-.12-283.38 .01-425.07-.42-10.3 4.28-20.21 12.08-26.81m645.93,99.95c-.14,73.27-.14,146.54 0,219.81 27.01,.06 55.46,2.29 80.83-8.98 30.79-13.79 55.28-42.19 62.69-75.33 3.42-13.01 2.75-26.64 1.78-39.92-4.16-41.58-35.76-78.33-75.37-90.6-22.61-7.16-46.62-4.87-69.93-4.98Z"/>
<path d="m0,768c329.03,.04 658.05-.08 987.08,.06-.22,9.88-.22,19.86-2.48,29.56-7.62,41.63-36.37,77.46-72.45,98.56-21.29,11.88-45.76,18.02-70.13,17.83-241.68,0-483.35-.06-725.03,.03-22.45,.22-45.47-2.53-66.07-11.93-19.66-8.31-36.6-21.93-50.92-37.58v-96.53Z"/>
</svg>
