<svg width="1280" xmlns="http://www.w3.org/2000/svg" height="1280" viewBox="0 0 1024 1024">
<path d="m118.46,73.57c3.63-.15 10.89-.45 14.52-.6 255.01,.06 510.03,.03 765.04,.01 46.46-.29 89.3,41.24 88.94,88 .11,233.34-.03,466.69 .07,700.04 .92,33.45-20.62,65.12-50.04,79.95-14,7.6-30.25,9.79-45.97,10-251.68,.1-503.35-.05-755.03,.07-13.05,.19-26.3-1.12-38.68-5.46-25.37-9.2-46.34-29.9-55.62-55.27-5.86-16.42-5-34.18-5.73-51.31 .15-221.67-.1-443.34 .13-665.01-.43-18.58 2.25-37.86 11.83-54.07 14.65-25.16 41-44.3 70.54-46.35m-8.42,145.46c0,213.65-.2,427.3 .1,640.94-.8,10.22 10.07,18.66 19.82,17.14 115-.27 230.01-.01 345.01-.14 .04-219.31 .07-438.61-.02-657.92-121.63-.09-243.27-.06-364.91-.02m438.99,0c-.06,219.31-.04,438.62-.01,657.94 115.67,.06 231.35,.04 347.02,.01 9.59,.88 18.84-8.34 17.81-18.01 .31-213.3 .11-426.62 .1-639.92-121.64-.1-243.28-.05-364.92-.02Z"/>
</svg>
