<svg width="1280" xmlns="http://www.w3.org/2000/svg" height="1280" viewBox="0 0 1024 1024">
<path d="m309.04,103.2c62.71-19.61 128.29-29.41 193.95-30.22 87.84-.49 176.55,12.82 258.31,45.75 70.16,28.06 136.52,69.17 186.09,126.88 21.85,24.93 40.51,52.85 53.65,83.35 13,29.53 20.45,61.39 22.96,93.52v32.04c-2.27,30.68-8.9,61.16-20.97,89.52-14.14,34.31-35.32,65.41-60.06,92.94-45.42,50.93-104,88.73-166.39,115.53-74.27,32.07-154.86,48.42-235.57,51.31-37.35,.73-74.8,.67-111.94-3.83-58.89,52.09-127.64,93.04-201.73,119.43-37.64,13.45-76.35,24.44-116,30.01-5.03,.64-10.13,1.52-15.23,1.19-15.3-.88-25.71-18.17-22.05-32.38 1.75-7.81 7.35-13.88 12.31-19.87 27.64-31.25 58.47-60.76 77.65-98.36 11.82-24.01 22.13-48.9 28.94-74.82-37.51-21.87-72.89-47.74-103.12-79.03-32.72-34.26-59.84-74.58-75.32-119.56-8.16-22.93-11.84-47.08-14.52-71.18v-32.84c2.76-25.3 6.99-50.64 16.02-74.53 17.16-46.77 46.29-88.56 81.19-123.84 24.71-24.08 51.86-45.8 81.58-63.41 40.59-24.91 84.88-43.37 130.25-57.6Z"/>
</svg>
