<svg width="1280" xmlns="http://www.w3.org/2000/svg" height="1280" viewBox="0 0 1024 1024">
<path d="m453.03,75.13c101.33-7.31 205.14,3.84 300.35,40.46 74.55,28.43 145.13,71.65 196.82,133.22 21.63,25.26 39.92,53.57 52.64,84.35 11.91,28.34 18.75,58.7 21.16,89.32v32.04c-3.54,55.76-24.49,109.87-58.13,154.35-46.89,63.87-113.68,110.83-185.86,142.13-109.6,48.29-232.48,61.43-350.92,48.99-58.91,52.07-127.65,93.04-201.74,119.43-40.19,14.31-81.59,26.02-124.05,30.98-13.28,2.49-26.75-7.35-29.35-20.38-2.44-9.88 2.13-20.1 8.77-27.3 27.52-31.95 58.97-61.26 79.23-98.74 12.74-25.2 23.8-51.45 30.99-78.81-38.09-22.22-74.07-48.54-104.54-80.56-30.47-32.27-56.04-69.73-71.53-111.49-9.65-24.86-14.01-51.31-16.87-77.7v-32.84c2.15-17.99 4.26-36.07 8.96-53.62 13.85-52.84 44.19-100.09 81.81-139.21 44.41-45.32 98.73-80.3 157.08-104.9 64.93-28.02 134.74-44.24 205.18-49.72m-194.03,125.89c-41.78,20.07-81.56,45.6-113.79,79.19-27.42,27.16-50.26,59.87-62.13,96.84-10.03,29.28-12.61,60.96-7.56,91.5 4.78,33.67 19.37,65.34 39.04,92.85 19.36,27.84 44.27,51.46 71.37,71.67 29.05,21.99 62.01,37.79 92.88,56.9-6.2,21.52-12.1,43.13-18.22,64.68-8.72,30.49-21.29,59.81-36.6,87.56 6.47-2.49 12.92-5.04 19.2-7.98 39.86-18.63 77.96-41.25 112.46-68.61 16.87-12.64 32.15-27.19 48.09-40.93 1.68-1.64 4.16-1.03 6.25-.94 15.35,1.8 30.69,3.63 46.07,5.03 91.08,7.7 184.5-2.65 270.05-35.65 60.43-23.16 118.12-56.82 161.88-105.13 25.56-27.98 46.12-61.17 56.19-97.91 13.69-49.52 5.98-103.85-18.58-148.72-12.47-21.97-27.61-42.58-45.82-60.15-34.3-35.76-76.75-62.92-121.67-83.36-74.39-34.29-156.37-50.85-238.11-51.91-89.52-.5-179.97,16.23-261,55.07Z"/>
</svg>
