<svg width="1280" xmlns="http://www.w3.org/2000/svg" height="1280" viewBox="0 0 1024 1024">
<path d="m206.9,145.89c52.52-21.03 108.6-33.07 165.1-35.75 21.77-.27 43.57-.54 65.33,.48 92.36,5.6 185.02,34.29 259,91.04 33.09,25.26 61.03,57.33 81.28,93.72 14.01,26.28 23.23,55.24 26.07,84.93 2.79,34.52-1.3,69.99-14.13,102.29-12.54,32.89-33.19,62.22-57.28,87.67-47.87,49.8-110.84,82.59-176.38,102.62-78.73,23.79-162.95,27.48-243.92,14.09-5.72-.95-12.39-1.29-16.93,3.05-24.47,16.88-50.56,31.41-77.9,43.1-36.85,15.92-75.52,27.93-115.3,33.75-4.88,.46-9.92,1.26-14.76,.01-11.8-2.87-17.98-18.96-11.08-28.9 6.38-10.63 15.84-18.82 24-27.99 21.02-23.49 41.13-48.74 51.87-78.78-11.36-6.85-22.44-14.15-33.28-21.77-34.91-24.69-64.75-56.59-86.81-93.22-18.17-30.2-28.69-64.65-31.78-99.7v-28.98c2.3-17.68 4.47-35.54 10.17-52.51 13.07-40.66 37.48-77.21 68.03-106.84 36.19-36.48 81.3-63.1 128.7-82.31Z"/>
<path d="m865.03,315.67c52.5,28.28 98.77,69.59 128.93,121.36 17.04,29.39 27.05,62.63 30.04,96.44v28.98c-2.67,23.62-6.79,47.31-16.25,69.27-26,62.82-77.58,112.08-135.66,145.76 4.79,11.61 10.08,23.06 16.61,33.82 7.29,11.47 15.9,22.04 24.34,32.68 10.64,13.25 23.8,24.36 33.68,38.23 9.01,10.35 1.92,28.53-11,31.44-14.94,.31-29.54-3.54-44.12-6.25-58.78-13.51-115.06-38.03-164.72-72.28-3.66-3.67-8.95-2.78-13.42-1.82-54.62,9.68-110.67,9.86-165.63,2.95-69.16-8.39-136.78-31.8-195.05-70.22 15.42,.24 30.78,1.94 46.21,1.98 74.93-.12 150.23-12.46 220.14-39.86 70.07-27.05 135.16-69.55 183.44-127.57 44.15-52.14 72.65-118.4 75.11-187.06 1.28-33.07-3.88-66.04-12.65-97.85Z"/>
</svg>
