<svg width="1280" xmlns="http://www.w3.org/2000/svg" height="1280" viewBox="0 0 1024 1024">
<path d="m362.88,110.67c61.33-3.32 123.47,1.13 182.8,17.64 49.92,13.98 98.19,35.22 140.31,65.67 22.33,15.96 42.96,34.42 60.27,55.77 23.16,27.43 41.41,59.4 50.72,94.2 16.43,59.65 5.95,125.78-27.04,177.99-22.29,36.3-53.29,66.55-87.83,91.18-26.37,18.34-55.07,33.13-84.81,45.18-85.22,34.67-179.8,43.53-270.61,30.96-10.7-.79-23.68-6.82-32.9,1.47-25.85,18.09-53.85,32.99-82.96,45.08-35.22,14.68-72.05,25.79-109.87,31.17-7.75,1.24-17.11,1.02-22.56-5.39-4.28-5.33-6.75-12.95-4.45-19.59 4.59-10.1 12.82-17.81 20.25-25.79 12.99-13.49 24.71-28.13 35.74-43.23 9.29-12.78 16.11-27.13 21.93-41.76-11.56-6.98-22.85-14.4-33.87-22.19-36.68-26.02-67.66-60.1-89.83-99.23-16.21-28.51-25.16-60.72-28.17-93.27v-28.98c2.3-17.68 4.47-35.54 10.17-52.51 13.28-41.34 38.31-78.4 69.53-108.34 27.02-27.09 59.35-48.32 93.32-65.64 59.09-29.23 124.12-46.1 189.86-50.39m-63.97,83.24c-44.88,10.43-88.55,27.54-127.25,52.75-33.69,22.6-64.02,51.92-82.43,88.47-14.5,28.21-19.61,61.25-13.75,92.46 7.68,42.11 33.84,78.65 65.63,106.32 30.5,27.49 68.21,44.58 102.76,66.1-6.21,15.78-13.53,31.13-19.17,47.12 18.26-10.05 35.34-22.05 52.24-34.19 3.46-2.08 6.98-5.72 11.41-4.5 34.78,7.02 70.03,13.23 105.65,12.62 61.47,1.54 123.48-9.02 180.3-32.76 52.93-21.89 102.68-56.31 133.43-105.55 16.01-25.75 25.53-56.26 23.24-86.77-.54-41.72-22.19-80.06-50.28-109.68-29.14-30.13-65.18-53.08-103.72-69.26-87.06-37.39-185.94-43.05-278.06-23.13Z"/>
<path d="m865.03,315.67c53.2,28.52 99.88,70.66 130.03,123.28 16.38,28.92 26.01,61.44 28.94,94.52v28.98c-2.68,24.14-7.05,48.31-16.84,70.69-26.31,62.09-77.35,111-135.07,144.34 12.79,34.54 36.76,63.24 61.89,89.53 6.09,6.71 12.75,13.31 16.27,21.83 3.45,13.36-9.27,29.17-23.72,24.59-61.05-7.98-119.86-30.07-172.85-61.11-10.3-5.83-19.76-12.98-29.89-19.06-3.14-1.88-7.07-.12-10.33,.04-54.67,9.71-110.76,9.8-165.78,2.99-69.09-8.53-136.67-31.83-194.9-70.26 90.31,6.62 182.57-5 267.09-38.17 69.79-27.05 134.6-69.47 182.7-127.28 44.37-52.32 72.83-118.96 75.15-187.89 1.14-32.8-3.99-65.48-12.69-97.02Z"/>
</svg>
