<svg width="1280" xmlns="http://www.w3.org/2000/svg" height="1280" viewBox="0 0 1024 1024">
<path d="m858.33,80.42c8.73-.61 14.79,6.23 20.49,11.75 19.28,19.72 39.08,38.94 58.39,58.63 8.12,6.83 7.8,20.4 .01,27.4-62.98,63.24-126.28,126.19-189.27,189.43 27.28,26.86 54.14,54.15 81.36,81.08 9.53,8.79 14.35,22.61 10.73,35.33-3.87,17.65-22.26,29.78-40.01,27.97-83.36-.08-166.72,.12-250.06-.09-19.65,1.07-38.21-16.17-37.81-35.93-.42-85 0-170.02-.2-255.03-.73-15.24 9.06-30.24 23.32-35.68 12.9-5.12 28.96-2.47 38.48,7.96 27.65,27.57 55.12,55.32 82.88,82.8 60.82-61.32 122.19-122.08 183.04-183.36 5.12-5.29 10.73-11.77 18.65-12.26Z"/>
<path d="m185.93,533.98c6.03-13.74 20.89-23.32 36.04-21.96 81.68-.1 163.36,.08 245.04-.08 7.65,.39 15.92-.54 22.99,3.08 13.02,5.77 22.56,19.44 21.94,33.94 .11,85.02 .1,170.06 .01,255.08 .71,16.65-11.82,32.34-27.91,36.01-12.7,3.4-26.48-1.27-35.27-10.8-27.21-27.03-54.14-54.33-81.41-81.29-59.83,60.3-120.16,120.11-180.06,180.33-5.61,5.49-10.78,12.01-18.52,14.58-4.22,.14-9.11,.74-12.75-1.89-10.06-7.13-17.92-16.76-26.78-25.23-13.85-14.14-28.27-27.73-41.86-42.12-5.67-4.96-8.03-12.79-5.86-20.05 1.74-3.98 4.8-7.2 7.68-10.36 62.32-62.24 124.66-124.47 186.82-186.87-27.26-26.87-54.16-54.1-81.31-81.08-11.13-10.15-15.36-27.49-8.79-41.29Z"/>
</svg>
