<svg width="1280" xmlns="http://www.w3.org/2000/svg" height="1280" viewBox="0 0 1024 1024">
<path d="m490.45,73.5c73.32-3.89 147.75,10.76 213.57,43.46 75.27,36.65 140.04,95.06 183.03,167.01 42.9,69.08 64.71,150.78 63.03,232.03 1.66,143.57-76.34,283.81-196.08,362-27.59,18.07-57.02,33.47-87.9,45.09-39.57,15.1-81.56,23.56-123.78,26.29-36.97,2.04-74.3,1.08-110.76-5.8-76.24-13.71-148.14-48.91-206.75-99.39-48.72-41.37-87.01-94.34-113.74-152.25-33.05-72.76-44.16-154.78-35.11-233.97 11.4-99.89 59.91-194.29 132.28-263.73 63.48-60.21 144.85-102.27 231.62-115.47 16.75-2.68 33.64-4.44 50.59-5.27m4.01,128.08c-35.5,1.79-70.73,9.47-103.42,23.48-36.77,15.49-70.23,38.42-98.81,66.17-25.27,26.02-46.9,55.82-62.21,88.77-19.9,41.97-29.94,88.57-29.03,135.01 .8,36.43 6.6,73.05 19.87,107.1 14.36,37.75 36.3,72.67 63.9,102.13 52.1,55.83 125.22,91.93 201.55,97.43 25.97,.92 52.14,1.03 77.83-3.48 71.23-11.54 137.76-49.72 184.27-104.79 47.66-55.71 75.62-128.83 73.69-202.4 .53-28.13-3.57-56.18-10.7-83.34-20.33-71.98-67.41-136.21-130.39-176.66-54.57-36.22-121.23-53.7-186.55-49.42Z"/>
<path d="m388,418.99c90.01-44.98 180-90 270.01-135-.12,103.24 .19,206.47-.15,309.71-59.05,29.24-117.89,58.89-176.86,88.3-38.67,19.05-76.91,39.01-115.84,57.51-.46-100.18 .11-200.36-.29-300.54 1.34-2.24-1.4-6.91 1.47-8.64 6.8-4.53 14.41-7.62 21.66-11.34m51.11,56.79c-.27,48.39-.02,96.79-.13,145.18 48.47-24.17 96.94-48.35 145.33-72.69-48.33-24.29-96.64-48.66-145.2-72.49Z"/>
</svg>
