<svg width="1280" xmlns="http://www.w3.org/2000/svg" height="1280" viewBox="0 0 1024 1024">
<path d="m0,90.96c15.41-11.73 34.52-18.49 53.98-17.91 303.35-.12 606.7,0 910.04-.06 9.69,.13 19.54,.47 28.94,3.15 11.42,2.34 21.31,8.87 31.04,14.95v840.77c-10.22,7.86-21.87,14.11-34.64,16.54-19.86,4-40.26,2.3-60.36,2.61-281.67,.01-563.33-.06-845,.03-20.9-.24-42.82,1.53-62.68-6.38-7.69-2.85-14.92-6.95-21.32-12.08v-841.62m49.81,55.77c-8.67,2.05-14.87,11.39-13.74,20.26-.2,41.66-.03,83.32-.05,124.98 316.99,.06 633.97,.03 950.96,.02-.09-42.32 .27-84.65-.14-126.97 .92-10.97-10.08-20.58-20.81-19.05-291.68,.06-583.35,.02-875.03,.03-13.72,.18-27.52-.73-41.19,.73m-13.78,365.29c.04,115.32-.23,230.65 .13,345.96-.81,10.08 8.25,20.72 18.8,19.09 305.01-.25 610.02,.16 915.03-.21 10.35,.91 17.86-10.31 16.96-19.84 .11-114.99 .04-230 .03-344.99-316.99-.05-633.97-.04-950.95-.01Z"/>
<path d="m109.02,731.02c45-.12 90,.13 135-.13 3.29,1.4 9.46-2.24 11.67,1.5 .75,23.18 .24,46.41 .29,69.61 .25,5.51-8.1,1.76-10.95,3.09-44.9-.39-89.81,.35-134.7-.34-.27-.27-.81-.81-1.08-1.08-.72-24.21-.05-48.44-.23-72.65Z"/>
<path d="m329.01,731.02c72.99-.04 145.98-.03 218.97-.01 .04,24.66 .05,49.31 .01,73.97-72.99,.03-145.98,.03-218.97,.01-.05-24.66-.05-49.32-.01-73.97Z"/>
</svg>
