<svg width="1280" xmlns="http://www.w3.org/2000/svg" height="1280" viewBox="0 0 1024 1024">
<path d="m188.65,40.65c7.13-5.77 16.87-4.23 25.34-4.71 30.01,.1 60.02,.04 90.03-.01 7.34-.2 15.24,.98 20.86,6.18 5.12,6.53 3.84,15.18 4.21,22.88-.13,39.33-.1,78.67-.09,118.01 161.73,.09 323.46-.18 485.19,.14 42.19-41.8 84.03-83.94 126.05-125.9 6.8-6.53 12.71-14.18 20.93-19.06 11.02-6.11 26.73,3.03 25.82,15.84 1.3,6.7-3.28,12.01-7.68,16.28-46.18,45.86-91.98,92.11-138.19,137.94-.28,162.25-.05,324.5-.11,486.76 43.34,.09 86.7-.12 130.05,0 8.94-.02 16.48,8.07 15.77,16.99 .41,36.67 .17,73.36 .11,110.04 .95,6.74-2.99,12.89-8.29,16.61-4.3,2.79-9.82,1.88-14.62,2.37-41.01,.08-82.02-.09-123.03-.01-.14,43.35 .21,86.7-.07,130.04-.35,8.83-8.99,16.75-17.88,15.89-36.7,.14-73.4,.19-110.09-.02-9.69,1.24-18.59-7.23-17.79-16.9-.51-43 .03-86.01-.17-129-165.02-.01-330.03-.02-495.04,.01-7.31,.01-14.63-5.51-16.28-12.66-1.38-13.41-.56-26.92-.7-40.36 .04-153 .01-306 .02-458.99-43.35-.16-86.7,.22-130.04-.09-9.11-.19-16.37-8.29-16.46-17.31-1.31-33.17-.02-66.42-.61-99.62 .19-8.06-.94-18.25 5.9-24.19 5.46-6.42 14.84-4.29 22.2-4.89 39.67,.14 79.34,.09 119,.09 .08-43.35-.06-86.7-.03-130.05-.11-4.72 2.67-8.91 5.69-12.3m140.35,288.36c.09,113.07-.19,226.15 .15,339.22 33.9-33.47 67.09-67.65 101.62-100.46 79.42-79.61 159.14-158.93 238.44-238.65-113.4-.27-226.8-.05-340.21-.11m25.79,365.87c113.4,.27 226.8,.05 340.2,.11-.08-113.41 .2-226.83-.14-340.25-113.42,113.31-226.86,226.61-340.06,340.14Z"/>
</svg>
