<svg width="1280" xmlns="http://www.w3.org/2000/svg" height="1280" viewBox="0 0 1024 1024">
<path d="m439.06,105.96c.85-17.59 17.48-32.76 34.96-32.73 24.99-.51 50-.34 75-.1 19.37-.56 36.91,17.41 35.92,36.83 .34,27.06-.14,54.12 .04,81.19 32.82,7.69 64.69,19.9 93.62,37.29 63.84,38.16 115.27,97.85 141,167.87 5.36,13.83 9.37,28.16 12.73,42.59 28.21,.5 56.44-.44 84.65,.34 17.48,.27 32.6,16.18 33.42,33.42 1.24,25.08 .54,50.24 .5,75.35-.21,14.53-9.59,28.26-22.74,34.21-8.01,3.03-16.75,2.78-25.15,2.89-23.62-.09-47.22-.24-70.83-.03-7.32,32.24-19.48,63.4-36.09,91.99-35.74,60.28-90.36,109.55-154.97,137.08-18.14,7.53-36.87,13.69-56.03,18.07-.49,28.25 .44,56.52-.29,84.77-.92,17.58-16.87,32.58-34.23,33.48-25.16,1.12-50.38,.5-75.55,.41-18-.35-35.52-15.42-35.78-33.9-.78-28.21 .16-56.44-.34-84.65-36.75-8.36-72.22-22.86-103.87-43.37-71.62-46.05-125.22-120.19-143.6-203.59-28.47-1.06-56.96,.24-85.43-.54-16.55-1.23-31.21-15.35-32.64-31.95-1.06-19.94 .01-39.92-.44-59.88 .3-8.66-.95-17.51 1.11-26.02 3.48-15.76 18.56-28.43 34.93-27.92 27.4-.36 54.8,.15 82.21-.05 10.47-46.01 30.75-89.8 59.81-127.03 24.66-31.2 54.05-59.09 88.1-79.88 30.51-19.15 64.39-32.9 99.55-40.7 .99-28.47-.1-56.96 .43-85.44m-172.42,332.93c23.3,.66 46.66-.86 69.92,.73 16.85,3.05 29.35,19.48 29.36,36.37 0,24.85 .7,49.74-.45,74.58-.89,17.36-15.9,33.3-33.48,34.23-21.78,.75-43.59-.2-65.38,.31 14.33,47.51 42.45,90.82 80.78,122.46 26.46,22.95 58.13,39.4 91.6,49.43 .24-21.02-.34-42.04 .07-63.04-.51-16.38 12.16-31.45 27.92-34.93 8.51-2.07 17.36-.82 26.02-1.11 19.96,.45 39.94-.62 59.88,.44 16.97,1.44 31.2,16.68 32.07,33.6 .41,21.65-.19,43.3 .03,64.96 22.88-7.02 45.02-16.71 65.03-29.9 51.06-32.57 89.77-83.91 106.92-142.02-20.66-.22-41.32,.33-61.97-.05-15.24,.6-29.84-9.78-34.81-24.04-3.51-9.61-1.93-19.95-2.23-29.91 .45-19.96-.62-39.95 .43-59.88 1.56-16.6 16.64-31.93 33.67-31.9 21.65-.72 43.32,.06 64.98-.22-23.48-81.48-90.47-148.64-171.9-172.33-.57,22.06 .65,44.16-.49,66.2-1.32,18.12-18.3,32.57-36.13,32.8-21.15,.77-42.34,.32-63.5,.23-9.78-.53-20.51-.06-28.93-5.98-9.26-6.07-16.8-16.5-16.82-27.94-.77-21.75 .13-43.52-.33-65.28-81.64,23.21-148.63,90.82-172.26,172.19Z"/>
</svg>
