<svg width="1280" xmlns="http://www.w3.org/2000/svg" height="1280" viewBox="0 0 1024 1024">
<path d="m157.17,55.07c286.66-.12 573.32-.1 859.98-.01-28.71,142.81-56.83,285.74-85.57,428.55-22.49,111.01-43.85,222.24-66.64,333.19-61.2,19.88-122.17,40.53-183.24,60.8-90.26,30.25-180.84,59.48-270.95,90.15-2.77,1.02-5.84,1.19-8.61,.11-131.76-50.39-263.49-100.88-395.3-151.15 13.25-67.93 27.38-135.69 40.44-203.65 56.63-.11 113.25-.1 169.88-.01-5.01,28.25-11.86,56.15-16.25,84.5 79.48,29.79 158.63,60.52 238.01,90.56 4.91,1.86 9.72-1.56 14.41-2.6 50.94-17.51 102.29-33.79 153.37-50.91 37.6-12.31 74.94-25.47 112.74-37.16 12.86-64.47 25.71-128.94 38.71-193.38-213.39-.15-426.77,.01-640.15-.08-16.69-.04-33.41,.49-50.09-.46 11.21-56.46 21.98-113.01 33.26-169.45 230.22-.2 460.45,.05 690.68-.13 7.47-36.29 14.43-72.69 21.96-108.97-230.07,.02-460.14,.11-690.21-.04 3.06-18.62 7.28-37.01 10.82-55.54 7.8-38.07 14.79-76.29 22.75-114.32Z"/>
</svg>
