<svg width="1280" xmlns="http://www.w3.org/2000/svg" height="1280" viewBox="0 0 1024 1024">
<path d="m119.98,4.99c17.38-.02 34.76,.03 52.14-.02 3.26,4.8 7.24,9.4 8.81,15.11 2.4,9.09 1.96,18.6 2.16,27.92-.23,73.34 .05,146.69-.18,220.03-.87,14.26 8.1,28.28 21.08,34.02 13.35,5.95 30.7,3.83 40.81-7.25 8.47-7.8 11.92-19.48 11.2-30.77 0-75.02 .04-150.03-.06-225.04 .3-8.11-.48-16.95 3.84-24.23 2.3-3.41 4.18-8.06 8.42-9.38 16.65-1.13 33.35-.06 50.03-.49 6.01,7.83 11.52,16.68 10.69,27.07 .17,76.68 .12,153.37-.02,230.05-.02,9.17 .35,19.34 6.19,26.92 6.27,8.57 15.85,16.03 26.94,15.95 19,3.1 38.32-12.99 39.54-32.01 .12-2.46 .37-7.38 .49-9.85-.11-76.68-.03-153.37-.09-230.06-.78-10.59 4.49-20.05 10.95-27.98 16.63,.27 33.28-.7 49.89,.4 10.4,5.81 12.46,19.74 12.26,30.59-.11,120.01-.11,240.03-.01,360.04 1.31,45.51-29.72,89.93-72.96,104.26-.26,149.92 0,299.84-.12,449.76-1.29,25.8-18.14,49.48-40.98,60.96-18.87,10.3-41.39,7.54-62,8.05-21.98-1.01-44.74,2.8-66.11-3.92-28.03-9.94-50.61-37.62-49.84-68.1-.12-148.66-.01-297.33-.05-446-13.83-5.93-27.51-13.03-38.31-23.7-19.5-18.19-32.88-43.54-34.55-70.35-.91-9.97-1.16-19.98-1.18-29.97 .06-111.67 .07-223.34-.01-335.02 .01-8.52 .36-17.32 3.73-25.29 2.04-4.13 4.71-7.9 7.3-11.7Z"/>
<path d="m661.85,7.71c6.59-3.02 14.05-2.49 21.14-2.78 73.41,.06 146.82,.2 220.23-.06 6,7.85 11.53,16.69 10.7,27.09 .21,296.68-.02,593.36 .12,890.04-.24,15.74 1.64,31.98-3.85,47.13-6.54,18.54-20.87,33.87-38.3,42.73-21.8,10.44-46.61,6.28-69.89,7.16-20.74-.81-42.62,3-62.21-5.76-25.56-11.34-45.64-37.48-44.78-66.24-.04-98 .01-196.01-.01-294.02-43.35-.14-86.7,.21-130.04-.07-5.84-.09-10.97-4.15-13.89-8.97-4.05-6.58-2.67-14.65-3.15-21.95 .2-148.34 0-296.68 .1-445.02 .1-29.93 7.38-59.92 21.72-86.24 20.74-36.52 53.22-66.76 92.11-83.04Z"/>
</svg>
