<svg width="1280" xmlns="http://www.w3.org/2000/svg" height="1280" viewBox="0 0 1024 1024">
<path d="m0,49.11c6.07-3.92 12.16-9.22 19.96-8.13 326.69,.05 653.39-.01 980.08,.03 9.23-1.28 17.38,3.18 23.96,9.11v767.57c-16.07,12.01-35.93,18.43-55.98,18.21-103.47,.31-206.95-.1-310.42,.18 .56,27.74 12.69,53.36 24.42,77.91 4.52,10.07 11.53,19.68 11.82,31.12 1.82,12.98-6.8,24.77-17,31.76-8.48,5.63-19.11,5.07-28.82,5.27-93.35-.37-186.71,.04-280.05-.19-20.1,2.28-39.74-15.69-38.86-35.91-.21-10.53 6.1-19.5 10.31-28.65 12.58-25.5 26.04-52.17 25.78-81.35-103.41-.15-206.82,.09-310.22-.1-19.66,.36-39.5-6.07-54.98-18.22v-768.61m48.4,56.36c-8.82,2.96-13.48,12.64-12.47,21.5 .28,156.67-.2,313.35 .23,470.02-.8,10.08 8.25,20.7 18.8,19.07 303.36-.12 606.72-.06 910.07-.03 4.21-.57 9.23,.63 12.98-2.01 6.63-4.17 9.89-12.33 9.06-19.99-.29-156.67 .23-313.35-.25-470.01 .83-10.15-8.17-20.67-18.77-19.07-303.36,.09-606.72,.07-910.08,.01-2.4,.13-7.18,.38-9.57,.51Z"/>
</svg>
