<svg width="1280" xmlns="http://www.w3.org/2000/svg" height="1280" viewBox="0 0 1024 1024">
<path d="m490.45,73.49c71.84-3.81 144.71,10.2 209.56,41.49 76.27,36.31 142.18,94.69 185.89,167.11 42.7,68.09 65.07,148.58 64.19,228.91 2.43,107.5-39.8,214.05-111.27,293.81-43.73,49.29-99.18,87.69-159.81,113.2-67.88,28.52-143.08,37.02-216.06,30.11-63.18-6.81-124.91-27.63-179.01-61.03-70.6-42.35-128.37-105.37-164.98-179.07-34.59-66.97-48.75-143.47-45.63-218.48 2.65-54.73 15.33-109.09 38.27-158.9 23.94-53.03 58.89-100.95 101.23-140.8 55.01-50.34 122.37-87.83 195.17-104.81 27.03-6.45 54.71-10.08 82.45-11.54m4,128.09c-41.76,2.02-83.11,12.54-120.48,31.36-72.29,35.45-129.43,100.16-155.88,176.18-15.26,42.8-20.19,89.06-15.4,134.2 5.84,68.05 36.57,133.14 83.54,182.45 52.35,55.4 125.59,91.01 201.82,95.99 26.9,.95 53.99,.68 80.52-4.3 68.61-12.25 132.55-49.11 177.98-101.88 48.78-56.01 77.51-130.04 75.55-204.58 .53-28.13-3.57-56.18-10.7-83.34-20.33-71.98-67.41-136.21-130.39-176.66-54.57-36.22-121.23-53.7-186.56-49.42Z"/>
<path d="m494.45,366.55c20.16-1.42 40.83-1.35 60.27,4.88 49.43,15.39 90.18,58.47 100.36,109.55 3.45,19.57 4.47,39.9 .37,59.44-7.85,43.32-37.78,81.25-76.41,101.65-19.6,10.54-41.89,15.32-64.03,15.87-26.95,1.27-54.18-5.8-77.32-19.62-36.04-22.15-64.25-59.28-70.21-101.77-3.24-25.45-2.66-52.07 6.9-76.19 18.88-49.79 66.43-89.03 120.07-93.81Z"/>
</svg>
