<svg width="1280" xmlns="http://www.w3.org/2000/svg" height="1280" viewBox="0 0 1024 1024">
<path d="m413,78c61.67-.1 123.34,.19 185.01-.15 4.15,.29 8.52-.46 12.63,.58 8.94,8.23 11.8,20.81 11.33,32.55 .1,83-.02,166.01 .04,249.01 48.33,.14 96.67-.19 145.01,.11 12.03-.04 24.73,5.16 31.03,15.85 8.36,12.15 10.18,30.42-.16,41.97-1.74,2.23-3.6,4.36-5.58,6.38-79.12,78.88-158.03,157.98-237.06,236.95-8.29,8.03-15.77,17.02-25.28,23.68-13.82,7.98-32.74,5.62-43.72-6.17-85.51-85.5-170.97-171.05-256.54-256.49-10.03-9.01-14.05-24.54-8.39-37 3.24-8.7 8.82-17.47 17.73-21.17 8.89-4.46 19.31-3.66 28.94-4.13 44.67,.01 89.33,.06 134,.02-.01-81.67 .08-163.33-.07-245 .15-7.06 .09-14.24 1.85-21.13 1.67-5.98 5.92-10.72 9.23-15.86Z"/>
<path d="m84.43,653.53c6.51-.46 13.04-.66 19.57-.61 81.67,.09 163.35,.2 245.03-.06 2.96,.6 7.05-.85 9.59,1.63 7.46,6.15 13.2,14.04 20.12,20.77 17.5,17.49 35.02,34.98 52.49,52.51 15.82,16.06 36.01,28.62 58.43,32.62 12.48,2.25 25.35,3.44 37.94,1.23 24.39-3.12 46.85-15.66 64.14-32.88 23.5-23.5 47.09-46.92 70.42-70.59 2.75-2.47 5.38-6.25 9.85-4.96 86.66-.47 173.34-.03 260.01-.21 25.57-1 50.67,18.94 54.37,44.46 1.72,11.77 1.62,23.69 1.66,35.56-.14,50 .02,100.01-.06,150.01-.06,12.59-1.38,25.77-8.42,36.59-7.04,9.61-16.03,18.47-27.44,22.61-11.05,3.26-22.69,3.62-34.12,3.78-265,.04-530.01-.04-795.01,.04-14.72-.17-29.58,.79-44.16-1.81-14.49-3.01-26.9-12.96-34.66-25.34-8.39-12.49-7.51-28.52-8.17-42.87-.03-53.34-.02-106.68-.01-160.02 .2-13 1.4-26.97 9.06-37.93 8.77-13.31 23.36-22.99 39.37-24.53m643,145.99c-17.97,1.52-33.29,18.31-32.55,36.48-.63,12.66 7.06,24.08 17.34,30.76 13.66,9.3 34.04,6.79 45.12-5.43 9.77-9.8 13.56-25 8.42-38.06-5.9-14.82-22.03-26.33-38.33-23.75m147.02-.05c-11.21,.6-21.15,7.52-27.33,16.61-9.96,13.93-7.26,34.94 5.58,46.23 6.46,5.51 14.48,10.23 23.31,9.65 21.98,2.36 42.2-20.24 37.8-41.86-2.66-18.23-20.91-33.02-39.36-30.63Z"/>
</svg>
