<svg width="1280" xmlns="http://www.w3.org/2000/svg" height="1280" viewBox="0 0 1024 1024">
<path d="m490.45,73.5c75.53-3.98 152.31,11.62 219.57,46.46 41.08,20.35 78.29,48 111.23,79.79 53.88,54.07 94.13,121.92 114.33,195.62 8.43,32.21 13.33,65.35 14.57,98.63 4.04,78.56-14.37,158.03-52.11,227.02-18.66,33.7-41.2,65.32-67.8,93.22-42.9,45.24-95.71,80.96-153.36,104.62-64.78,26.86-136.22,35.45-205.87,30.04-67.94-5.99-134.43-28.31-192.01-64.9-112.66-69.33-190.71-192.59-203.42-324.46-6.15-55.46-1.88-112.08 13.03-165.87 28.83-104.05 97.66-196.62 189.46-253.58 63.22-40.63 137.38-63.32 212.38-66.59m-66.77,74.41c19.85,27.07 40.03,53.92 58.34,82.08 29.48,43.98 56.46,89.59 81.97,135.98 34.01-12.91 66.74-29.15 97.64-48.34 37.26-22.89 71.7-51.49 97.76-86.82-28.77-25.56-61.2-47.13-96.41-62.76-74.51-33.35-160.21-39.48-239.3-20.14m-71.85,25.18c-104.66,48.33-183.31,148.12-206.8,260.87 116.68,.96 233.18-15.8 346.03-45-41.71-74.82-87.79-147.33-139.23-215.87m449.56,100.66c-8.09,10.68-16.71,20.96-26.51,30.13-20.53,20.68-42.82,39.62-66.87,56.1-36.33,24.11-74.6,45.6-115.23,61.57 8.16,21.14 19.59,40.89 27.48,62.16 1.41,3.54 2.49,7.29 4.64,10.49 .74,1.57 2.67,1.01 4.05,1 18.27-2.13 36.61-4.19 55.04-4.2 51.63-1.26 103.4,1.25 154.55,8.56 16.15,2.24 32.15,5.4 48.3,7.74-.79-12.8-1.15-25.62-2.68-38.35-7.08-71.43-36.61-140.33-82.77-195.2m-309.36,181.35c-91.08,24.41-184.86,38.54-279.04,42.79-25.31,1.53-50.68,1.36-76.02,2.23-2.22,77.91 20.09,156.42 64.11,220.83 9.83,14.11 19.76,28.3 31.92,40.55 22.25-38.48 49.16-74.4 81.24-105.26 24.33-25.29 51.23-48.23 80.74-67.28 33.99-22.59 69.07-43.82 106.28-60.73 16.41-7.61 33.81-12.68 50.98-18.2-8.64-21.59-19.57-42.16-29.54-63.14-10.38,2.14-20.46,5.42-30.67,8.21m156.56,99.21c1.78,6.06 4.01,11.96 6.16,17.91 28.6,81.48 51.67,165.03 66.64,250.12 85.21-56.7 144.84-150.11 160.71-251.21-30.8-8.8-62.25-15.39-94.06-19.16-46.34-5.51-93.28-4.09-139.45,2.34m-139.38,47.88c-52.82,26.69-104.55,57.32-147.26,98.76-32.6,30.65-62.04,65.66-80.72,106.66 26.07,19.36 53.78,36.71 83.73,49.44 34.29,14.88 71.01,24.04 108.18,27.71 29.24,2 58.78,2.36 87.87-1.69 33.38-4.05 65.99-13.4 96.98-26.31-16.85-97.4-44.82-192.63-80.06-284.9-23.45,8.82-46.74,18.21-68.72,30.33Z"/>
</svg>
