<svg width="1280" xmlns="http://www.w3.org/2000/svg" height="1280" viewBox="0 0 1024 1024">
<path d="m316.37,70.21c63.15,52.66 126.29,105.32 189.51,157.9 1.98,1.68 3.9,3.42 5.79,5.22-94.06,57.57-187.83,115.6-281.83,173.26 93.58,58.64 187.99,115.95 281.69,174.41-28.99,25.26-58.98,49.35-88.38,74.14-35.51,29.56-70.96,59.21-106.52,88.7-93.48-60.46-186.65-121.41-279.97-182.13 64.1-51.82 128.53-103.26 192.9-154.74-9.19-8.06-19.01-15.35-28.55-22.98-54.78-43.79-109.53-87.61-164.3-131.41 93.01-61.11 186.55-121.41 279.66-182.37Z"/>
<path d="m692.2,83.21c4.96-4.07 9.57-8.64 15-12.07 2.58-.13 4.59,1.8 6.76,2.88 90.96,59.63 182.15,118.93 273.27,178.32-63.89,52-128.97,102.56-192.84,154.59 64.3,51.49 128.48,103.14 192.87,154.53-92.86,61.25-186.4,121.48-279.34,182.62-65.1-54.6-130.58-108.75-195.99-162.98 94.04-58.17 188.21-116.11 282.21-174.34-67.27-41.35-134.51-82.76-201.77-124.15-26.41-16.47-53.23-32.35-79.43-49.11 1.81-2.66 4.16-4.9 6.61-6.98 57.67-47.62 115.06-95.6 172.65-143.31Z"/>
<path d="m316.43,778.79c65.46-54.17 130.48-108.87 196.24-162.66 65.45,54.33 130.85,108.73 196.62,162.67 27.75-18.48 55.8-36.5 83.68-54.79 .1,20.63 0,41.26 .01,61.9-92.88,55.02-185.33,110.78-278.05,166.03-1.75,1.12-3.86,.7-5.53-.33-92.33-55.74-185.26-110.49-277.4-166.57 .03-20.19-.19-40.37 .24-60.54 28.69,17.07 56.06,36.3 84.19,54.29Z"/>
</svg>
