<svg width="1280" xmlns="http://www.w3.org/2000/svg" height="1280" viewBox="0 0 1024 1024">
<path d="m504.45,145.56c14.2-3.69 27.93,3.52 37.31,13.67 133.46,133.54 267.01,267.01 400.49,400.53 4.54,5.34 11.89,12.24 8.46,19.93-3.87,7.82-14.44,6.94-21.68,7.33-278.35-.05-556.71,0-835.06-.02-6.45-.06-13.41-.09-18.87-4.11-1.73-2.68-3.94-5.98-2.59-9.27 3.79-10.33 12.9-17.16 20.22-24.89 130.54-130.46 261.03-260.97 391.5-391.5 5.54-5.51 12.41-10.26 20.22-11.67Z"/>
<path d="m104.39,660.51c2.4-.13 7.19-.39 9.58-.52 253.35,.03 506.69,0 760.03,.01 14.94,.1 29.9-.53 44.83,.44 10.74,.91 19.94,8.1 26.1,16.58 6.37,8.98 5.89,20.5 6.13,30.97-.16,45.01 .06,90.02-.09,135.04-.23,15.36-10.72,29.75-25.28,34.65-8.71,2.16-17.79,2.04-26.68,2.31-250,.03-500.01-.01-750.01,.02-13.48-.06-26.98,.4-40.44-.5-19.2-.37-36.67-17.91-35.49-37.48-.16-48.35-.11-96.72-.02-145.07-.62-17.64 13.88-34.38 31.34-36.45Z"/>
</svg>
