<svg width="1280" xmlns="http://www.w3.org/2000/svg" height="1280" viewBox="0 0 1024 1024">
<path d="m457.43,109.46c31.51-1.1 63.05-.13 94.57-.52 14.93,.14 31.33,0 44.02,9.05 13.51,9.14 24.73,24.1 24.76,41.03 .57,38.32 .08,76.67 .23,115 1.42,23.29-15.53,45.92-37.69,52.39-9.44,3.18-19.53,2.46-29.32,2.67-33.34-.26-66.68,.12-100.02-.13-21.6-.65-41.4-15.93-48.8-36.02-4.15-11.52-3.01-23.93-3.26-35.93 .37-31.66-.36-63.33 .29-94.98-.14-19.71 12.78-37.89 29.81-46.97 7.89-3.8 16.74-5.11 25.41-5.59Z"/>
<path d="m449.43,402.56c39.81-1.18 79.71-.52 119.55-.35 26.9-.11 51.55,23.79 51.92,50.76 .34,38.34-.07,76.7 .17,115.05 1.1,21.83-14.77,41.52-34.16,49.9-9.47,3.71-19.95,2.92-29.91,3.18-33.34-.26-66.68,.03-100.02-.09-28.4,1.78-54.89-23.64-54.75-52.04-.39-38.31-.46-76.65 .02-114.95 .2-25.57 21.89-48.79 47.18-51.46Z"/>
<path d="m446.44,695.63c39.82-1.52 79.73-.19 119.58-.67 22.85-1.94 43.8,14.42 52.2,34.89 3.34,9.3 2.64,19.42 2.88,29.15-.26,33.34 .03,66.68-.09,100.02 1.65,26.76-20.86,52.14-47.44,54.44-23.16,1.28-46.38,.22-69.57,.53-18.46-.3-36.98,.9-55.39-.72-16.02-1.55-29.93-12.15-38.52-25.35-7.17-10.38-8.36-23.66-8.14-35.91 .25-35-.32-70 .26-104.99-.11-24.72 20.05-47.46 44.23-51.39Z"/>
</svg>
