<svg width="1280" xmlns="http://www.w3.org/2000/svg" height="1280" viewBox="0 0 1024 1024">
<path d="m157.43,402.53c38.17-1.22 76.4-.28 114.59-.5 23.38-1.44 45.89,14.25 53.78,36.04 4.1,11.88 3.02,24.59 3.27,36.93-.22,31.67 .08,63.35-.07,95.02-.95,26.48-24.21,50.54-50.97,50.88-38.34,.34-76.7-.07-115.05,.17-22.09,1.1-42.06-15.15-50.21-34.92-5.32-19.24-3.39-39.44-3.79-59.15 .47-25.02-.98-50.09 .87-75.06 1.05-25.14 22.78-46.97 47.58-49.41Z"/>
<path d="m449.43,402.56c31.49-1.42 63.05-.08 94.57-.62 12.65,.23 25.58-.88 38.02,2 14.87,4.55 27.75,15.43 34.58,29.42 6.42,15.34 5.04,32.41 5.45,48.64-.39,28.47 .61,56.97-.52,85.44 .47,28.5-25.59,55.37-54.5,53.55-36.69,.07-73.37,.01-110.05,.02-28.41,1.79-54.84-23.64-54.79-52.03-.44-38.33-.16-76.67-.14-115 .75-25.47 21.99-48.68 47.38-51.42Z"/>
<path d="m742.41,402.5c39.83-1.05 79.73-.49 119.57-.3 26.89,.16 51.23,23.87 51.87,50.81 .37,38.33 .12,76.68 .11,115.01 .41,27.15-23.53,52.78-50.93,52.89-38.35,.32-76.7-.08-115.05,.17-28.4,.95-54.6-25.52-52.96-54.05-.08-36.69-.05-73.37-.01-110.06-1.53-26.82 20.75-52.05 47.4-54.47Z"/>
</svg>
