<svg width="1280" xmlns="http://www.w3.org/2000/svg" height="1280" viewBox="0 0 1024 1024">
<path d="m48.76,119.78c16.52-8.98 35.71-11.07 54.22-10.77 270.01-.02 540.02,0 810.03-.01 16.59,.45 33.7,.03 49.65,5.37 16.36,5.41 30.48,16.39 41.25,29.68 11.5,13.19 17.69,30.24 20.09,47.4v641.12c-3.61,29.89-22.42,57.34-49.1,71.3-13.85,7.87-30.12,10.42-45.88,10.15-280.01,0-560.03-.1-840.04,.05-31.61,.19-61.39-19.08-77.12-45.98-6.34-10.92-9.81-23.26-11.86-35.65v-640.85c1.89-9.7 3.59-19.65 8.07-28.57 8.34-18.38 23.34-33.23 40.69-43.24m37.66,63.76c-6.69,1.11-11.35,7.6-13.05,13.79-1.2,40.15 10.46,80.72 33.74,113.58 17.85,26.73 43.07,47.24 68.28,66.69 60.08,47.22 119.95,94.71 179.88,142.13 16.46,13.17 33.23,25.99 49.17,39.81 14.14,11.96 28.31,23.98 43.7,34.35 14.11,9.74 28.63,19.69 45.2,24.75 18.68,5.58 38.92,1.77 55.6-7.74 24.31-13.41 46.21-30.72 67.47-48.46 29.08-25.11 59.76-48.29 89.75-72.29 53.92-42.78 107.99-85.35 162.03-127.97 28.98-24.57 52.67-55.31 69.69-89.24 11.3-22.57 15.6-48.28 12.54-73.35-.94-7.57-6.07-16.08-14.37-16.55-271.68-.11-543.37,.02-815.05-.06-11.53,.07-23.09-.52-34.58,.56m-13.29,200.19c-.32,136.76-.01,273.51-.16,410.27 .02,9.95-.38,19.93 .34,29.88 .31,9.33 9.26,17.82 18.71,16.97 8.32,.37 16.65,.21 24.98,.19 271.66-.21 543.33,.21 814.98-.2 7.02,.85 12.89-3.81 16.65-9.21 3.29-7.07 2.11-15.11 2.48-22.62-.36-141.78 .17-283.56-.27-425.33-13.17,15.23-28.02,28.91-43.89,41.28-67.22,51.6-133.95,103.84-199.72,157.29-28.34,22.59-55.37,46.8-84.21,68.77-17.92,13.94-38.5,23.9-59.31,32.7-14.76,6.54-30.84,9.67-46.85,11.06-20.88,.21-41.8-4.2-60.82-12.82-20.83-9.09-41.28-19.65-59.04-33.96-19.25-14.63-37.54-30.45-56.14-45.87-61.65-50.9-124.5-100.33-187.72-149.25-27.67-21.84-57.18-41.92-80.01-69.15Z"/>
</svg>
