<svg width="1280" xmlns="http://www.w3.org/2000/svg" height="1280" viewBox="0 0 1024 1024">
<path d="m40.01,124.03c18.09-13.21 41.33-14.97 62.97-15.02 270.01-.03 540.02,.01 810.03-.02 16.33,.43 33.15,.06 48.88,5.22 32.97,11.44 58.27,42.42 62.11,77.23v21.1c-2.73,20.27-8.09,40.4-18.13,58.35-19.63,35.44-48.73,65.09-81.76,88.24-83.12,57.5-166.11,115.19-249.11,172.87-39.05,26.37-75.54,57.03-118.01,77.99-14.26,6.87-29.83,11.4-45.75,11.53-20.76-.14-40.21-8.83-58.02-18.72-16.93-9.75-33.34-20.4-49.17-31.83-97.56-69.8-196.8-137.18-295.06-205.95-21.62-14.53-42.23-30.94-59.17-50.84-22.99-26.31-44.58-56.28-49.82-91.71v-20.82c3.08-29.45 14.82-60.22 40.01-77.62Z"/>
<path d="m0,368.67c13.8,16.6 30.87,30.28 48,43.29 95.77,65.4 191.85,130.35 286.01,198.05 31.17,22.63 61.53,47.29 97.07,62.86 23.98,11.26 49.51,20.79 76.25,21.81 22.65,.26 45.12-4.76 66.04-13.29 23.36-9.41 46.1-20.71 66.62-35.41 37.21-26.02 73.53-53.3 110.95-79.04 66.01-46.14 132.37-91.78 199.07-136.92 26.92-17.42 53-36.87 73.99-61.31v463.87c-3.83,32.18-25.63,61.26-55.26,74.21-12.83,5.43-26.83,7.58-40.72,7.23-278.34-.01-556.69-.08-835.04,.04-19.49,.56-39.2-5.48-54.83-17.2-21.17-14.82-34.8-38.92-38.15-64.42v-463.77Z"/>
</svg>
