<svg width="1280" xmlns="http://www.w3.org/2000/svg" height="1280" viewBox="0 0 1024 1024">
<path d="m504.82,158.84c12.2-8.69 27.22-13.1 42.16-12.91 145.01,.22 290.03-.08 435.04,.14 14.68-.32 29.2,3.73 41.98,10.87v128.48c-166.26,189.93-332.41,379.96-498.77,569.81-10.3,11.25-24.46,19.16-39.68,21.09-17.42,2.2-35.04,1.6-52.55,1.71-130.01-.08-260.01-.01-390.02-.02-14.73,.04-29.84-1.73-42.98-8.86v-136.55c158.06-180.48 315.98-361.08 473.98-541.62 9.89-11.07 18.93-23.11 30.84-32.14m-281.13,428.86c-62.77,72.23-126.21,143.89-188.85,216.25 146.25-.02 292.5,.29 438.74-.15 63.76-72.98 127.52-145.97 191.5-218.75-143.04-.14-286.08,.04-429.12-.1-4.05,.59-9.39-1.06-12.27,2.75Z"/>
</svg>
