<svg width="1280" xmlns="http://www.w3.org/2000/svg" height="1280" viewBox="0 0 1024 1024">
<path d="m812.09,131.11c8.26-6.76 20.41-2.26 27.14,4.64 57.58,57.43 114.92,115.11 172.6,172.43 4.59,4.86 9.13,9.99 12.17,16v9.69c-5.62,10-14.9,17.23-22.73,25.4-55.04,54.97-110.05,109.97-165,165.03-9.64,12.09-32.88,3.75-31.14-12.26-.56-36.66 .17-73.34-.16-110.01-248.32-.07-496.65-.02-744.97-.02-15.22-.13-30.47,.7-45.66-.48-6.83-1.42-12.04-7.47-14.34-13.84v-117.43c2.46-6.04 6.49-12.25 13.32-13.79 15.19-1.24 30.46-.33 45.68-.48 233.33,.02 466.67,.01 700,.01 14.85-.12 29.73,.71 44.56-.37 .27-.27 .8-.8 1.07-1.07 1.38-36.48-.54-73.04 .59-109.53-.4-5.47 1.86-11.23 6.87-13.92Z"/>
<path d="m182.69,503.67c5.24-4.48 10.57-11.04 18.31-9.8 9.34-.66 18.65,7.48 17.72,17.17 .91,36.62-.13,73.28 .32,109.93 250.32,.03 500.64,.09 750.96-.03 13.8,.35 27.87-1.07 41.52,1.66 6.47,1.5 9.76,8.16 12.48,13.63v117.6c-3.02,6.34-8.08,12.52-15.44,13.58-16.49,1.38-33.05,.42-49.56,.59-246.66,.02-493.31-.04-739.97,.03-.36,36.65 .45,73.31-.21,109.96 1.06,11.31-11.51,20.29-22.01,17.34-5.51-1.93-9.82-6.23-14.1-10.01-52.39-52.62-104.97-105.05-157.47-157.56-8.89-9.17-19.36-17.35-25.24-28.96v-8.53c2.1-5.5 6.21-9.87 10.19-14.07 57.58-57.42 115.12-114.91 172.5-172.53Z"/>
</svg>
