<svg width="1280" xmlns="http://www.w3.org/2000/svg" height="1280" viewBox="0 0 1024 1024">
<path d="m490.45,73.48c77.8-4.15 156.79,12.72 225.58,49.47 40.93,21.39 78.14,49.63 110.71,82.3 46.52,48.32 82.15,107.14 103.17,170.85 21.96,69.89 26.91,145.25 13.55,217.32-12.12,66.02-40.28,128.83-80.67,182.37-68.72,91.75-174.75,155.45-288.65,170.42-30.71,4.64-61.87,4.22-92.83,3.47-69.06-4.47-137.09-25.65-196.11-61.87-57.08-34.24-106.47-81.57-142.19-137.82-37.21-56.89-60.83-122.73-67.43-190.45-10.13-89.07 7.7-181.23 51.38-259.59 22.42-40.19 50.86-77.03 84.32-108.65 56.65-52.51 126.87-90.79 202.39-107.64 25.25-5.5 50.98-8.79 76.78-10.18m-44.06,146.01c-5.88,.29-11.23,3.54-15.08,7.81-2.58,4.76-1.01,10.55-1.49,15.7 3.22,114.32 6.33,228.65 9.39,342.99-1.58,11.31 11.02,17.93 20.76,17.03 35-.15 70.01,.29 105.01-.21 9.07,.69 18.74-6.32 19.02-15.75 3.08-108.67 6.38-217.34 9.36-326.01 .35-9.95 1.12-19.92 .39-29.87-2.95-11.65-17.93-12.36-27.72-12.26-39.88,.5-79.79-.67-119.64,.57m7.01,439.02c-7.15,2.09-14.14,8.59-14.34,16.47-.15,36.68-.12,73.37-.01,110.06-.89,9.91 8.2,18.95 17.91,18.98 36.67-.11 73.36,.24 110.02-.18 6.89,.8 13.38-3.62 16.02-9.83 2.92-5.18 1.8-11.37 2.12-17-.41-33.33 .26-66.67-.28-100 .28-6.85-3.15-14.42-9.85-16.99-6.73-3.6-14.74-1.56-21.99-2.13-33.2,.63-66.44-.74-99.6,.62Z"/>
</svg>
