<svg width="1280" xmlns="http://www.w3.org/2000/svg" height="1280" viewBox="0 0 1024 1024">
<path d="m420.44,109.52c56.5-1.26 113.04-.11 169.57-.57 10.72,.31 22.82-.65 32,6.07 8.86,5.38 15.54,14.92 16.42,25.39 .89,10.53-.36,21.06-.55,31.6-4.08,112.48-8.27,224.95-12.26,337.43-1.28,26.04-1.5,52.13-3.25,78.15-.88,11.79-8.34,22.41-18.35,28.43-8.29,6.15-19.3,5.14-29,5.87-40.01,.34-80.02-.07-120.02,.18-9.21-.27-18.79,.54-27.69-2.36-10.29-3.68-18.88-11.76-23.43-21.66-3.05-7.96-2.75-16.67-3.26-25.02-5.08-142.69-10.43-285.38-15.53-428.06-.95-19.1 16.55-35.79 35.35-35.45Z"/>
<path d="m432.43,713.58c9.83-.88 19.71-.65 29.57-.65 40.01,.24 80.02-.1 120.02,.1 18.52-2.08 36.52,12.75 38.99,30.98 1.42,9.24 .88,18.66 1.06,27.99-.29,35 .21,70.02-.17,105.02-.21,14.52-9.6,28.25-22.75,34.21-9.63,3.51-20.1,2.69-30.15,2.88-43.34-.35-86.69,.12-130.02-.17-20.08,.77-38.04-17.85-36.88-37.91-.29-41.68-.03-83.37-.11-125.06-.85-17.56 12.84-35.07 30.44-37.39Z"/>
</svg>
