<svg width="1280" xmlns="http://www.w3.org/2000/svg" height="1280" viewBox="0 0 1024 1024">
<path d="m622.04,112.96c-3.16-20.08 14.82-40.14 34.97-39.78 85-.5 170.01,.06 255.02-.27 18.92-1.45 37.21,14.64 38.43,33.52 .82,9.83 .58,19.71 .6,29.57-.21,76.67 .11,153.35-.14,230.02-.21,12.59-7.83,23.99-18.09,30.84-13.14,8.32-32.14,6.85-43.03-4.65-27.95-27.6-55.48-55.64-83.43-83.26-61.35,61.79-123.15,123.14-184.59,184.83-5.16,4.81-11,11.09-18.74,10.27-7.36,.81-12.44-5.34-17.35-9.73-20.33-20.67-41.04-40.98-61.43-61.59-6.84-6.73-6.93-18.54 .54-24.92 60.37-60.62 120.97-121.04 181.47-181.54 2.84-2.95 5.7-5.9 8.39-9-26.22-26.43-52.56-52.73-78.97-78.96-7.05-6.62-14.03-15.08-13.65-25.35Z"/>
<path d="m407.75,524.72c6.21-6.39 17.19-7.88 23.84-1.27 21,19.95 40.93,41.05 61.73,61.23 5.01,4.99 11.48,10.41 10.7,18.36 1.02,7.28-4.91,12.77-9.27,17.71-61.9,61.99-123.97,123.82-185.79,185.89 28.25,27.89 56.2,56.07 84.3,84.11 15.1,15.34 10.01,43.55-8.32,54.16-8.95,6.41-20.48,5.9-30.93,6.15-81.67-.2-163.36,.1-245.03-.14-18.59-.5-36.24-16.83-35.79-35.93-.54-83.33 .08-166.67-.29-250.01-.05-9.17 .37-19.32 6.19-26.92 5.12-6.95 12.25-13.11 20.79-15.21 8.77-1.49 18.51-1.82 26.46,2.79 9.27,6.22 16.47,14.87 24.41,22.61 22.19,22.1 44.21,44.38 66.49,66.38 22.61-21.16 43.91-43.69 66.01-65.38 41.51-41.5 83.02-83.01 124.5-124.53Z"/>
</svg>
