<svg width="1280" xmlns="http://www.w3.org/2000/svg" height="1280" viewBox="0 0 1024 1024">
<path d="m668.91,77.97c109.71-.03 219.41,.2 329.12-.12 5.11,.66 11-.84 15.82,1.39 4.87,5.4 8.21,12.22 10.15,19.24v303.96c-3.43,17.79-20.52,32.82-39.07,30.84-9.42-.13-17.99-5.2-24.25-11.96-32.89-33.24-66.17-66.09-99.05-99.34-117.07,116.81-233.9,233.87-350.88,350.77-9.16,8.84-17.33,18.93-28.04,25.98-7.99,3.7-16.86,.16-22.46-5.95-19.09-18.92-37.88-38.16-57.1-56.94-4.74-5.33-10.97-10.68-11.76-18.18-.6-5.92 2.94-11.3 6.84-15.41 123.8-123.85 247.77-247.56 371.43-371.56-33.65-35.12-68.89-68.7-102.82-103.54-13.07-13.6-10.27-36.07 2.07-49.18Z"/>
<path d="m129.42,144.4c18.85-4.5 38.37-3.31 57.58-3.44 125.01,.1 250.03,0 375.04,.04 5.21,.48 11.42-.47 15.78,3.19 3.39,3.1 6.8,7 6.97,11.85 .69,14.82 .83,29.71-.39,44.5-.8,6.43-6.69,11.49-12.72,13.03-12.19,1.08-24.47,.38-36.68,.47-120-.13-240.01,.07-360.01-.11-13.17,.18-26.79,.12-39.34,4.69-35.69,11.86-62.86,47.41-62.58,85.37-.2,155 .04,310.01-.12,465.02 .14,12.25 .15,24.76 3.49,36.67 10.18,37.71 47.08,67.24 86.53,66.35 158.35-.05 316.71-.06 475.06,.01 17.39,.41 35.24-3.44 49.88-13.13 23.32-14.89 40.75-39.93 42.97-67.91 .52-63.31-.33-126.64 .31-189.95-.59-9.03 4.19-19.14 13.93-20.78 13.91-.95 27.91-.64 41.84-.05 4.47-.18 9.28,1.02 12.25,4.58 6.25,5.11 5.26,14 5.81,21.16-.06,56.68 .11,113.37-.12,170.05-.16,28.24-5.22,57.03-18.95,81.98-22.34,40.18-60.88,72.18-105.95,83.01-18.26,4.72-37.27,4.72-55.99,5-145.01,.02-290.01-.03-435.01,.02-19.4-.51-39.02-.22-58.17-3.79-43.14-8.03-80.69-36.17-104.89-72.19-15.24-22.28-23.11-48.87-25.94-75.53v-502.04c2.53-20.08 6.59-40.38 15.98-58.49 22.1-44.5 64.43-79.5 113.44-89.58Z"/>
</svg>
