<svg width="1280" xmlns="http://www.w3.org/2000/svg" height="1280" viewBox="0 0 1024 1024">
<path d="m224.39,73.47c14.85-.94 29.74-.37 44.61-.47 171.67-.03 343.34,.05 515.01-.04 27.69-.55 55.61,5.82 79.96,19.11 39.62,22.34 71.56,60.21 82.05,104.97 4.03,16.66 4.93,33.88 5.02,50.96-.12,180 .04,360.01-.08,540.01-.17,31.86-9.73,63.76-28.04,89.92-23.1,32.86-57.33,59.14-96.91,68.09-17.3,4.31-35.29,4.59-53.01,5.02-176.67-.1-353.34,.01-530.01-.06-25.3,.17-51.11-3.78-74-14.98-33.84-15.56-61.61-43.21-78.99-75.99-11.98-23.05-16.89-49.17-17-74.99 0-183.35-.01-366.69 0-550.04 .13-18.72 3.34-37.48 9.87-55.05 22.17-58.12 78.68-103.05 141.52-106.46m246.93,152.88c-9.47,7.27-14.12,19.11-15.03,30.72 .25,8.47 4.03,16.7 9.94,22.71 27.88,27.98 56.05,55.67 83.7,83.88-99.67,99.42-199.07,199.11-298.71,298.57-7.62,7.74-15.89,16.6-16.85,27.99-1.78,11.32 2.89,22.66 10.88,30.54 19.54,19.46 38.93,39.08 58.54,58.46 12.86,13.24 36.1,13.7 49.45,1.03 102.3-102.14 204.32-204.58 306.78-306.57 27.24,26.85 54.15,54.06 81.19,81.12 4.86,4.72 10.51,8.95 17.12,10.85 15.42,3.66 33.45-2.76 41.56-16.74 4.12-6.49 4.1-14.48 4.19-21.88-.19-90.02-.02-180.04-.08-270.06 1.63-14.23-7.7-27.7-19.96-33.98-10.84-5.48-23.37-3.88-35.04-4.05-83.34,.17-166.69-.04-250.02,.09-9.44,.33-20.26,.53-27.66,7.32Z"/>
</svg>
