<svg width="1280" xmlns="http://www.w3.org/2000/svg" height="1280" viewBox="0 0 1024 1024">
<path d="m654.33,129.29c5.38-2.42 11.61-.71 16.76,1.54 22.3,9.83 42.66,23.33 63.83,35.27 4.7,2.79 9.67,6.38 11.15,11.93 2.45,5.81-.61,11.65-3.24,16.73-13.09,23-25.92,46.14-38.77,69.28-72.62,130.42-145.17,260.86-217.64,391.36-39.76,71.56-80.02,142.84-119.46,214.57-5.23,8.77-8.64,19.68-18.28,24.75-5.57,2.27-11.82-.05-17.01-2.38-18.9-9.45-37.17-20.11-55.69-30.28-5.48-3-11.09-6.06-15.66-10.39-4.59-4.85-5.12-12.01-2.63-17.96 6.69-15.11 15.44-29.16 23.37-43.61-105.49-47.61-194.08-127.98-259.25-222.96-9.98-14.03-19.17-29.25-21.81-46.56v-17.07c1.94-10.66 4.9-21.39 11.06-30.45 26.04-40.03 55.79-77.67 89.17-111.84 41.53-41.73 88.44-78.13 139.57-107.41 48.79-27.52 101.64-48.21 156.6-59.4 47.54-10.42 96.53-12.98 145.05-10.89 24.63,1.21 49,5.11 73.39,8.54 9.82-16.43 18.83-33.34 28.1-50.08 2.77-4.94 5.82-10.47 11.39-12.69m-155.94,136.13c-24.21,1.92-48.28,8.33-69.38,20.58-27.62,15.25-50.43,38.28-67.1,64.92-14.66,24.45-22.81,52.67-23.73,81.15 .05,7.39-.25,15.87 4.89,21.88 5.06,7.9 14.41,12.87 23.87,12.03 12.26-.04 24.21-9.81 25.59-22.16 1.08-15.21 1.88-30.64 7.17-45.13 14.1-39.12 49.7-70.05 90.87-77.16 12.53-2.98 26.94,1.13 37.89-7.04 13.55-9.36 14.53-31.37 2.34-42.29-8.42-8.56-21.48-7.7-32.41-6.78m-425.21,246.36c58.95,92.32 143.13,169.89 243.87,214.23 9.61-16.22 18.22-33.01 27.52-49.41 5.57-10.4 11.92-20.4 16.84-31.16-47.92-34.47-82.72-86.34-97.39-143.44-12.11-44.47-10.26-92.25 2.54-136.36 5.36-19.24 14.49-37.05 23.4-54.82-89.41,44.81-163.06,117.2-216.78,200.96Z"/>
<path d="m789.84,343.38c12.38-20.95 23.77-42.47 35.9-63.56 35.58,24.18 68.91,51.68 99.04,82.4 32.75,32.44 62.23,68.35 86.33,107.7 6.47,10.54 11.04,22.19 12.89,34.46v15.1c-2.31,11.38-5.52,22.76-11.92,32.59-21.95,35.11-48.12,67.45-76.05,97.96-55.76,60.04-123.08,109.58-198.01,143-70.77,31.88-148.45,48.45-226.08,48.05 14.45-25.02 27.99-50.57 42.6-75.49 40.85-4.07 81.47-11.93 120.09-26.07 28.36-10.09 55.63-23.09 81.58-38.33 78.75-46.41 145.53-112.43 194.57-189.44-26.65-41.1-57.45-79.79-93.43-113.11-21.03-20.17-44.14-37.94-67.51-55.26Z"/>
<path d="m655.7,583.69c35.97-64.33 71.66-128.83 107.82-193.05 5.14,31.96 6.68,64.91-.03,96.76-16.02,84.94-78.22,159.85-159.51,189.82 16.61-31.51 34.57-62.3 51.72-93.53Z"/>
</svg>
