<svg width="1280" xmlns="http://www.w3.org/2000/svg" height="1280" viewBox="0 0 1024 1024">
<path d="m349.34,207.4c82.33-26.2 170.95-31.18 256-16.67 86.32,14.42 167.92,51.37 239.06,101.84 66.76,46.72 123.39,107.53 166.29,176.75 6.78,10.68 11.03,22.7 13.31,35.11v15.15c-2.39,11.32-5.87,22.55-11.92,32.49-44.18,72.66-103.79,136.01-174.09,183.91-65.72,45.36-140.03,79.09-218.58,94.46-70.44,13.54-143.64,14.65-214.02,.18-78.04-15.33-152.09-48.5-217.37-93.64-71.47-48.69-132.65-112.59-177.19-186.78-5.51-9.47-8.46-20.11-10.83-30.72v-14.94c3.55-24.14 18.61-43.98 31.98-63.56 35.39-50.94 78.69-96.36 128.02-133.97 56.89-43.5 120.83-78.34 189.34-99.61m149.06,58.02c-63.48,3.61-120.79,47.24-146.28,104.64-8.4,19.26-13,40.14-13.92,61.11-.07,7.07-.23,14.84 3.48,21.16 5.05,7.75 13.69,14.26 23.34,13.76 14.98,1.35 28.62-12.27 27.97-27.1 .5-17.74 3.71-35.51 11.39-51.63 17.45-34.64 51.59-61.53 90.57-66.36 9.77-1.3 20.02-.07 29.39-3.64 9.75-4.98 16.36-16.22 14.67-27.3 .09-9.51-6.54-18.08-14.66-22.43-8.17-3.7-17.3-2.81-25.95-2.21m-425.27,246.6c52.27,81.3 124.13,150.25 208.85,197.02 59.83,33.05 126.87,53.07 195.09,57.75 30.79,2.42 61.77,.96 92.44-2.37 66.49-7.55 131.18-29.88 188.38-64.56 42.07-25.19 80.92-55.71 115.38-90.59 28.87-29.9 55.02-62.43 77.72-97.25-5.45-8.49-11.08-16.85-17.08-24.94-51.4-73.44-119.79-135.8-200.05-176.23 5.04,10.39 10.72,20.48 15.1,31.18 23.57,55.66 24.68,119.46 6.96,176.92-18.84,57.9-60.34,107.17-111.55,139.45-44.49,27.82-98.2,39.97-150.37,35.71-24.83-1.64-49.64-6.21-72.9-15.21-42.44-16.16-79.8-44.48-108.4-79.6-45.47-53.32-64.44-126.85-54.14-195.81 3.7-32.75 15.93-63.84 31.59-92.62-89.48,44.9-163.41,117.17-217.02,201.15Z"/>
</svg>
