<svg width="1280" xmlns="http://www.w3.org/2000/svg" height="1280" viewBox="0 0 1024 1024">
<path d="m233.41,73.43c6.52-.31 13.05-.47 19.59-.47 176.67,.12 353.34-.06 530.01,.09 27.64,.08 55.56,5.78 80.02,18.94 41.63,23.16 74.92,63.53 84.21,110.85 4.73,23.07 3.68,46.76 3.77,70.16-.02,170-.02,340 .01,510.01 .39,27.49-5.67,55.2-18.39,79.63-21.87,39.79-59.4,71.83-103.78,83.15-27.39,7.02-55.88,4.99-83.85,5.21-168.34,.03-336.67-.06-505.01,.05-22.18,.29-44.57-3.34-65.1-11.9-40.52-17.22-73.82-50.75-90.62-91.46-7.94-19.86-11.27-41.36-11.3-62.68 .09-183.34-.03-366.68 .06-550.02 .01-35.65 12.52-71.21 35.18-98.77 16.37-19.22 35.61-36.65 58.79-47.19 20.49-10.44 43.6-14.63 66.41-15.6m413.86,102.79c-19.13,7.85-36.39,20.75-48.18,37.85-17.52,24.45-25.27,54.39-27.94,83.97-2.25,33.93-.69,67.96-1.16,101.94-25,.06-49.99-.02-74.98,.04-.02,41.65-.02,83.31 0,124.96 24.99,.06 49.98-.02 74.98,.03 .24,120.92-.42,241.85 .33,362.77 49.88,.52 99.78,.08 149.67,.21 .03-120.99-.02-241.98 .02-362.98 33.31-.07 66.61,.07 99.92-.05 4.46-41.64 8.95-83.28 13.07-124.95-37.67-.06-75.33,.04-112.99-.02 .27-25.19-.7-50.39 .51-75.55 1.08-10.52 3.21-22.04 11.45-29.46 8.68-6.19 19.73-7.2 30.05-7.81 23.31-.55 46.64,.04 69.97-.19 .02-41.66 .01-83.31 0-124.97-34.33,.03-68.67-.11-103,.02-27.65,.74-55.96,3.39-81.72,14.19Z"/>
</svg>
