<svg width="1280" xmlns="http://www.w3.org/2000/svg" height="1280" viewBox="0 0 1024 1024">
<path d="m461.99,73.99c34.94-23.4 77.67-31.09 119-32.86 49.66-.34 99.33-.03 149-.12 .02,53.99 .02,107.99 0,161.98-31.67,.14-63.34-.2-95.01,.09-13.46,.74-28,3-38.17,12.71-8.94,10.92-11.85,25.39-11.82,39.19-.09,31.33 .06,62.67 .02,94.01 48.73,.05 97.47-.04 146.21,.03-3.68,40.57-8.53,81.03-12.62,121.56-1.42,13.48-2.63,26.97-4.53,40.39-43.03,.09-86.04-.01-129.06,.04-.03,156.99 .01,313.98-.02,470.98-64.99,.02-129.99,.02-194.98,0-.24-156.89 .42-313.79-.33-470.67-32.55-.71-65.12-.13-97.67-.33-.02-53.99-.02-107.99 0-161.98 32.66-.04 65.32,.02 97.99-.02 0-31.66 .03-63.33-.03-94.99-1.14-44.01 5.58-89.4 26.37-128.69 11.42-20 26.12-38.68 45.65-51.32Z"/>
</svg>
