<svg width="1280" xmlns="http://www.w3.org/2000/svg" height="1280" viewBox="0 0 1024 1024">
<path d="m5.76,73.76c3.75-2.4 9.08-1.7 12.68,.75 10.14,7.41 18.39,16.98 27.31,25.74 126.52,126.48 252.96,253.04 379.54,379.47 5,5.04 9.43,10.6 13.73,16.26-.11-132.67 .13-265.34-.13-398.01 .44-7.64-.95-16.33 4.34-22.73 2.49-3.71 7.79-3.96 11.52-2 10.34,5.57 17.67,15 26.02,22.99 121.96,122.04 244,244 365.98,366.02 10.76,10.9 22.42,21.13 31.12,33.86 .31-114.04 .03-228.07 .14-342.11 .18-16.61-.81-33.25 .47-49.83 .45-11.98 9.48-21.73 19.46-27.25 10.52-5.45 22.67-3.82 34.06-4.05 19.94,.53 39.92-.74 59.84,.59 16.27,.97 28.55,14.92 32.16,30.03v816.15c-3.31,15.72-16.94,29.9-33.46,30.79-21.49,1.28-43.05,.42-64.56,.64-10.36-.56-22.19,.67-30.92-6.17-11.17-6.73-18.26-19.71-17-32.86-.2-128.06 .06-256.13-.11-384.2-11.77,14.52-25.63,27.11-38.71,40.4-125.45,125.55-251.06,250.95-376.45,376.56-3.91,4.33-9.68,7.21-15.65,6.13-4.8-.91-6.61-6.35-7.51-10.54-1.42-16.76-.47-33.6-.63-50.39-.04-120.72 .08-241.44-.06-362.16-10.95,13.66-23.93,25.47-36.19,37.91-119,119-237.99,238.01-357.01,356.99-8.66,8.31-16.4,17.65-25.87,25.08-3.17,3.23-8.26,4.13-12.46,2.76-4.58-2.19-6.14-7.51-7.41-12.01v-854.27c1.48-3.69 2.86-7.71 5.76-10.54Z"/>
</svg>
