<svg width="1280" xmlns="http://www.w3.org/2000/svg" height="1280" viewBox="0 0 1024 1024">
<path d="m569.91,72.86c4.09-1.87 9.5-.49 11.79,3.46 3.34,5.91 3.02,13.07 3.38,19.63-.22,133.36 .07,266.73-.16,400.1 3.12-4.81 6.79-9.23 10.82-13.3 133.49-133.52 267.06-266.96 400.48-400.54 5.17-4.56 10.56-11.23 18.38-9.73 5.9,.42 7.36,7.34 9.4,11.82v854.26c-1.24,4.3-2.63,9.31-6.79,11.68-3.19,.93-7.17,1.64-10.14-.33-9.58-6.59-17.07-15.59-25.32-23.66-123-123-246-246-369-369-9.47-9.55-19.47-18.65-27.78-29.26 .1,133.35-.07,266.71 .1,400.06-.31,6.35-.1,13.13-2.96,19.02-2.25,4.17-7.78,4.55-11.96,3.8-4.27-1.64-7.49-5.22-10.92-8.08-134.45-134.56-268.98-269.04-403.5-403.53-3.52-3.47-6.6-7.36-9.6-11.27-.27,128.35-.11,256.7-.07,385.04 1.15,14.37-8.27,27.87-20.75,34.27-10.09,4.45-21.57,3.32-32.3,3.79-19.87-.28-39.77,.61-59.61-.6-16.42-1.08-30.35-14.97-33.4-30.87v-816.13c3-11.68 10.51-22.85 21.98-27.52 10.14-4.32 21.32-2.88 32.02-3.1 19.94,.53 39.92-.72 59.84,.58 18.29,1.5 33.82,18.99 32.25,37.5-.24,128.36 .06,256.71-.18,385.07 9.59-13.28 21.88-24.18 33.35-35.76 125.45-125.55 251.05-250.96 376.45-376.55 4.27-4.18 8.88-8.07 14.2-10.85Z"/>
</svg>
