<svg width="1280" xmlns="http://www.w3.org/2000/svg" height="1280" viewBox="0 0 1024 1024">
<path d="m500.45,9.55c17.58-1.76 35.54,.04 52.26,5.82 25.04,7.9 46.33,25.1 62.25,45.67 25.67,33.15 31.28,79.61 17.8,118.86-7.99,23.41-23.86,43.46-43.07,58.76-32.17,26.15-77.84,32.57-117.05,20.72-41.96-13.55-76.52-49.85-85.8-93.26-7.13-33.95-2.2-71.47 18.12-100.15 21.18-31.81 57.01-54.22 95.49-56.42Z"/>
<path d="m357.97,292.92c17.27-8.69 37.01-10.16 56.03-9.96 68.34,.13 136.68-.08 205.02,.1 18.16-.4 36.21,4.34 52.31,12.62 20.17,11.35 36.82,28.19 49.62,47.36 48.8,72.91 97.34,145.99 146.06,218.96 5.44,8.02 9.87,17.1 9.92,27.02 3.09,22.53-10.57,45.65-31.01,54.92-14.41,6.44-31.73,7.08-46.14,.32-9.99-4.28-18.05-12.14-23.81-21.23-42.71-64.35-85.78-128.46-128.39-192.87-8.87-.06-17.72-.15-26.57-.2 .09,21.69-.23,43.38-.02,65.07 .49,3.76-.37,8.04 1.46,11.56 46.87,78.37 94.2,156.47 141.1,234.82 5.21,10.26 5.97,23.25 .28,33.47-5.81,10.9-17.09,19.88-29.85,19.88-37.55,.84-75.12-.34-112.66,.48-.73,51.92-.16,103.85-.25,155.78 1.39,29.39-22.24,56.85-50.74,62.25-14.28,2.58-28.91,1.52-43.33,1.77-21.81-.36-43.65,.63-65.44-.54-15.75-.77-30.77-8.07-41.42-19.64-12.56-11.66-18.58-28.92-18.08-45.84-.21-51.33 .04-102.67-.07-154.01-33.33-.02-66.67-.08-100,.1-8.35-.26-17.22,.57-24.99-3.13-12.16-6.22-21.75-18.81-21.14-32.98-.71-9.58 4.13-18.24 9.01-26.1 45.24-74.85 90.22-149.88 135.24-224.86 1.96-3.64 1.48-8.05 1.87-12 .27-22.02-.11-44.04 0-66.06-8.65,.03-17.29,.05-25.93,.01-43.42,64.96-86.69,130.02-130.05,195.02-11.78,19.01-36.25,27.58-57.67,22.66-23.03-5.25-41.73-26.85-42.17-50.72-1.3-12.93 3.58-25.49 10.8-35.97 48.07-71.96 96.05-143.98 144.02-216 14.7-21.29 33.08-41.15 56.99-52.06Z"/>
</svg>
