<svg width="1280" xmlns="http://www.w3.org/2000/svg" height="1280" viewBox="0 0 1024 1024">
<path d="m219,183.01c61-.06 122.01,.09 183.02-.13 12.83-.21 25.98,1.41 37.51,7.38-3.85,7.57-12.91,8.87-20.47,9.83-18.69,1.71-37.51,.7-56.25,1.01 53.5,65.76 108.66,130.17 162.36,195.78 1.78,1.69 3.21,4.38 5.88,4.81 14.92,1.51 30.49-1.32 45.07,3.05 33.88,10.03 67.95,19.41 101.86,29.33 10.07,3.08 20.43,5.31 30.95,6.13 57.11,5.02 114.19,10.42 171.3,15.43 13.55,1.05 26.91,3.76 40.11,6.97 34.83,8.44 69.95,16.45 103.66,28.81v41.4c-36.58,12.72-74.43,21.28-112.06,30.21-11.38,2.84-23.04,4.37-34.71,5.32-55.59,4.93-111.15,10.17-166.75,15.03-18.77,1.18-36.51,7.66-54.48,12.63-28.01,8-56.02,15.97-84,24.09-14.03,3.05-28.6,1.59-42.84,2.04-55.26,67.11-111.37,133.52-166.65,200.61 25.61,1.89 53.07-4.75 76.99,7.47-1.7,2.27-3.1,5.12-5.87,6.26-12.65,4.71-26.36,4.26-39.62,4.57-58.34-.07-116.68-.02-175.01-.05-.01-6.01 0-11.97 0-17.95 12.24-.04 24.48-.06 36.72-.29 .64-79.24 .11-158.5 .27-237.74-28.36,.24-56.72-.46-85.07,.04-6.77-1.39-10.91,4.79-14.87,9.01-30.44,36.17-61.63,71.71-92.07,107.89-3.16,3.41-5.63,7.72-9.71,10.16-18.01,2-36.19,.68-54.27,.87v-145.98c24.73-.31 49.5,.86 74.19-.87-3.74-2.37-7.51-4.9-12.07-5.27-20.66-3.03-41.59-4.31-62.12-8.2v-81.87c24.19-3.11 48.42-5.94 72.59-9.18 .19-1.53 .38-3.05 .57-4.57-24.39-.08-48.77-.03-73.16-.04v-145.98c16.66,.03 33.34-.64 49.99,.25 5.57-1.27 8.18,4.21 11.44,7.3 31.97,37.99 64.7,75.34 96.69,113.32 3.33,3.21 6.07,8.67 11.83,6.99 28.6,.57 57.22,.09 85.83-.17 .5-79.23 .09-158.47 .21-237.7-12.33-.02-24.66,0-36.99-.02-.01-5.99-.01-11.99 0-17.98Z"/>
</svg>
