<svg width="1280" xmlns="http://www.w3.org/2000/svg" height="1280" viewBox="0 0 1024 1024">
<path d="m192.38,73.48c2.4-.13 7.2-.38 9.6-.5 120.01,.01 240.02,.07 360.03-.03 24.95-.86 49.2,7.51 70.96,19.1 10.5,5.7 20.41,12.63 28.8,21.17 59.44,59.57 119.02,119 178.47,178.54 16.24,17.66 26.6,40 33.17,62.9 4.13,15.73 4.32,32.17 4.61,48.34-.06,161.67 .01,323.34-.03,485.01 .04,13.51-1.69,27.79-10.11,38.89-10.83,16.78-31.28,25.12-50.86,24.1-196.67,.03-393.35-.06-590.02,.05-15.39-.31-31.33,1.34-46.14-3.84-12.11-5.24-22.95-14.24-28.91-26.17-5.55-9.65-6.07-21.2-6-32.03 .14-255.01-.03-510.02 .08-765.03 1.16-24.86 21.52-47.41 46.35-50.5m26.64,72.54c-.03,243.65-.04,487.3 .01,730.95 194.98,.06 389.97,.03 584.95,.01 .03-145.98 .04-291.97 0-437.96-75.33-.04-150.66-.05-225.99,.03-10.47,.01-21.12-.54-31.14-3.83-19.63-7.93-35-27.57-34.83-49.19-.09-80 .04-160.01-.04-240.01-97.65-.03-195.3-.04-292.96,0m366.04,4.77c-.13,71.39-.05,142.79-.04,214.19 71.48-.04 142.97,.19 214.46-.12-3.27-9.35-7.37-18.71-14.71-25.62-58.03-57.98-116.04-115.98-174.01-174.02-7.13-6.99-16.32-11.32-25.7-14.43Z"/>
</svg>
