<svg width="1280" xmlns="http://www.w3.org/2000/svg" height="1280" viewBox="0 0 1024 1024">
<path d="m183.03,76.07c9.06-2.77 18.56-3.2 27.96-3.14 100.33,.18 200.66-.01 300.99,.09 .03,103.34 .06,206.67-.03,310-1.89,26.56 19.55,52.01 45.86,55.28 12.01,1.25 24.13,.62 36.19,.73 94.33-.05 188.66-.04 282.99-.01 .04,153.34-.03,306.68 .03,460.02-.03,27.34-24.68,51.82-52.06,51.73-208.32,.51-416.66,.12-624.98,.2-26.23,.45-50.7-21.34-53.42-47.4-1.14-14.84-.44-29.72-.56-44.57-.04-243.34 .08-486.68-.06-730.02-.92-23.18 15.09-45.75 37.09-52.91Z"/>
<path d="m585.03,74.96c20.48,4.04 40.79,10.91 57.94,23.1 9.66,6.44 18.12,14.48 26.3,22.67 56.41,56.59 113.06,112.94 169.43,169.57 20.26,20.42 32.01,47.73 37.19,75.73-96.95-.09-193.91,.02-290.87-.05-.03-97.01-.05-194.01 .01-291.02Z"/>
</svg>
