<svg width="1280" xmlns="http://www.w3.org/2000/svg" height="1280" viewBox="0 0 1024 1024">
<path d="m192.37,73.47c2.4-.12 7.2-.37 9.6-.49 120.02,.01 240.03,.07 360.04-.03 26.44-.89 52.04,8.49 74.79,21.23 9.65,5.69 18.75,12.39 26.48,20.54 51.92,52.07 103.99,104 155.97,156.03 12.17,12.53 25.92,23.91 34.8,39.21 12.7,21.2 22.08,45.09 23.17,70.01 .81,10.99 .83,22.01 .83,33.03-.22,160.32 .19,320.65-.2,480.96 .32,19.57-9.9,39.06-26.91,48.98-10.02,6.46-22.24,8-33.92,8.06-203.34,0-406.69,.01-610.04-.01-12.4-.09-25.63-1.46-35.91-9.08-16.18-10.01-26.03-28.88-25.03-47.89-.07-256.68-.05-513.36-.02-770.04 1.18-24.87 21.53-47.39 46.35-50.51m26.66,72.56c-.05,243.64-.06,487.29 .01,730.93 194.98,.08 389.96,.04 584.94,.02 .04-145.98 .03-291.97 0-437.95-70.66-.05-141.32-.06-211.98,.01-15.33-.16-31.22,1.27-45.91-4.12-19.52-7.68-34.68-27.53-34.13-48.9 .06-80 .06-160 .02-240-97.65-.04-195.3-.04-292.95,.01m366.02,4.76c-.11,71.4-.05,142.79-.03,214.19 71.47-.03 142.93,.16 214.4-.1-3.22-10.87-9.41-20.87-17.62-28.68-38.13-37.87-75.99-76.02-114.07-113.93-21.31-19.33-40.83-40.52-61.57-60.44-5.85-5.69-13.63-8.3-21.11-11.04Z"/>
<path d="m305.41,512.52c2.39-.13 7.17-.4 9.56-.54 131.68-.01 263.37,.11 395.06-.06 5.45-.43 11.39,.55 15.29,4.75 5.08,3.63 5.48,10.58 5.64,16.29 .28,12 .39,24.02-.1,36.03-.84,5.81-4.13,11.8-9.85,14.02-4.26,2.35-9.36,1.6-13.98,2.01-131.68-.08-263.37,.06-395.05-.07-7.15,.48-15.22-2.97-17.99-9.94-2.33-4.27-1.62-9.35-2.03-13.98-.12-11.8-.54-23.65 .71-35.39 1.48-6.09 6.23-12.22 12.74-13.12Z"/>
<path d="m306.41,658.53c2.39-.14 7.17-.41 9.56-.55 131.68,.08 263.37-.07 395.05,.07 7.14-.49 15.22,2.97 17.99,9.94 2.34,4.27 1.59,9.3 2.03,13.98 .15,11.79 .4,23.63-.63,35.4-.38,4.32-3.57,7.64-6.61,10.43-4.32,3.72-10.55,2.8-15.77,3.21-133.35-.07-266.71,.09-400.05-.07-9.45-.19-16.45-9.91-15.82-18.96-.44-13.18-.69-26.42 .37-39.57 1.05-7.05 6.84-12.83 13.88-13.88Z"/>
</svg>
