<svg width="1280" xmlns="http://www.w3.org/2000/svg" height="1280" viewBox="0 0 1024 1024">
<path d="m145.98,127.98c-.96-28.16 23.74-54.5 52.05-54.75 104.64-.53 209.3-.11 313.95-.2 .01,98.32 .1,196.65-.05,294.97 .32,12.41-1.48,25.46 3.89,37.13 6.38,14.02 18.21,26.15 33.12,30.89 13.98,4.1 28.69,2.83 43.06,3.03 95.32-.09 190.65-.06 285.97-.02 .1,143.32-.05,286.65 .07,429.97-.09,14.92 .68,30.15-3.35,44.7-3.45,11.47-12.14,20.45-21.4,27.59-13.17,9.92-30.62,9.36-46.28,9.75-198.34-.09-396.68-.02-595.02-.04-12.16-.13-24.82-.63-35.97-6.05-14.46-7.73-25.88-21.77-28.83-38.08-1.3-6.19-1.01-12.6-1.23-18.86 .09-253.34 .03-506.69 .02-760.03m160.45,457.6c-6.41,.81-12.2,5.98-13.38,12.42-2.15,9.83-.93,20.02-1.19,30.01 .46,8.16-.95,17.55 4.81,24.31 4.2,4.19 10.39,6.24 16.3,5.7 131.68-.04 263.37-.02 395.06-.01 5.21-.43 11.45,.51 15.77-3.21 3.4-3.1 6.84-6.97 7.03-11.81 .53-11.67 .37-23.35 .19-35.02-.49-4.65 .34-9.74-2-13.99-3.75-6.04-10.73-10.1-17.99-9.01-121.68,.04-243.35,.04-365.03,.02-13.19,.09-26.41-.59-39.57,.59m.99,145.92c-8.21,.74-15.03,8.3-15.16,16.58-.74,13.47-.69,27.03 .26,40.5 .75,7.82 7.34,15.23 15.45,15.36 131.68,.21 263.36-.1 395.04,.14 5.12,.04 10.23-.21 15.34-.77 6.71-1.32 11.92-7.58 12.44-14.33 .48-15.11 .84-30.29-.44-45.35-2.32-9.96-14.17-13.83-23.32-12.65-120.01,.02-240.02,.04-360.03,.01-13.19,.07-26.42-.51-39.58,.51Z"/>
<path d="m585.06,74.82c27.94,4.63 54.87,16.96 75.19,36.92 60,60 119.98,120.03 180.02,179.99 19.28,20.08 30.68,46.72 35.5,73.89-96.91,.86-193.83,.18-290.73,.34-.05-97.04-.1-194.09 .02-291.14Z"/>
</svg>
