<svg width="1280" xmlns="http://www.w3.org/2000/svg" height="1280" viewBox="0 0 1024 1024">
<path d="m24.33,41.41c13.51-5.36 28.37-5.17 42.66-5.45 296.67,.11 593.35-.01 890.03,.06 23.49-.59 48.46,3.62 66.98,19.12v913.87c-15.75,11.16-34.46,18.38-53.98,17.89-306.68,.21-613.37,.08-920.04,.06-18.13-.01-35.2-7.28-49.98-17.27v-915.46c7.53-5.26 15.59-9.91 24.33-12.82m40.11,69.21c-10.64,1.84-19.5,10.07-24.45,19.35-5.63,10.06-3.73,22.04-4.08,33.03 .49,19.95-.67,39.94 .5,59.87 .62,13.02 10.14,23.59 20.98,29.7 10.5,4.84 22.42,3.31 33.61,3.52 18.33-.36 36.67,.37 54.99-.26 16.68,.35 32.38-12.77 35.7-28.96 .76-27.28 .25-54.62 .26-81.91 .56-19.64-18.36-37.09-37.92-34.96-26.53,.29-53.1-.83-79.59,.62m219.98-.08c-15.76,2.9-28.83,18.2-28.36,34.42-.1,98.35-.1,196.73 0,295.08-.45,13.69 8.73,26.4 20.94,31.95 6.71,3.63 14.65,2.67 21.99,3.08 143.34-.18 286.69,0 430.03-.08 20.39,2.37 39.51-16.71 38.08-36.96-.2-86.68-.07-173.35-.09-260.03-.15-13.71 .71-27.5-.79-41.16-3.92-16.22-20.35-28.61-37.19-26.84-135.01-.02-270.02,.03-405.03-.01-13.19,.06-26.42-.52-39.58,.55m585.02,.08c-11.9,2.2-21.51,11.74-26.34,22.51-3.17,6.81-1.78,14.61-2.21,21.87 .32,21.68-.21,43.36 .16,65.04-.3,15.46 11,29.87 25.59,34.35 8.87,2.66 18.24,1.37 27.36,1.7 19.95-.49 39.93,.67 59.87-.51 19.05-1.17 34.58-19.67 33.19-38.56-.15-23.35 .17-46.71-.12-70.06 .83-19.94-17.59-39.12-37.91-36.94-26.53,.24-53.11-.83-79.59,.6m-802.05,218.89c-16.85,1.98-30.68,17.56-31.3,34.46-.43,21.67 .08,43.36-.18,65.04 .32,8.69-.44,18.16 4.08,26.01 6.15,12.55 19.96,20.91 33.98,20.07 21.68-.05 43.36-.11 65.04-.02 7.33-.42 15.26,.49 22-3.03 11.34-5.51 20.89-16.97 20.8-30.05 .58-23.33 .01-46.67 .27-70-.42-7.33 .61-15.29-3.16-21.95-3.26-7.55-9.86-13.11-16.91-17.02-9.04-5.38-20.02-3.59-30.01-4.11-21.53,.46-43.1-.7-64.61,.6m804.04,.06c-16.24,2.4-30.73,17.63-30.32,34.41-.28,25.02-.21,50.04-.06,75.06-.95,20.64 19.54,38.85 39.93,36.03 20.01,0 40.01-.16 60.03,.05 7.65-.17 15.56,.28 22.95-2.2 14.32-6.02 24.11-21.3 23.13-36.89-.19-23.36 .13-46.72-.15-70.07 .59-14.51-8.74-28.32-21.93-33.95-8.98-4.42-19.41-2.56-29.01-3.1-21.53,.47-43.08-.71-64.57,.66m-806.99,220.05c-17.24,3.29-29.6,21.11-28.5,38.36 .2,23.33-.33,46.67 .26,70-.66,18.94 16.06,36.17 34.79,36.9 24.99,.24 50,.34 75-.05 19.56,.42 38.15-17.87 35.99-37.8-.24-26.79 .85-53.64-.63-80.38-3.42-16.63-20.25-29.45-37.32-27.65-26.53,.29-53.11-.83-79.59,.62m219.98-.05c-16.56,2.98-29.61,19.54-28.52,36.4 .24,96.68 0,193.37 .12,290.06-2.11,19.38 15.11,36.86 33.94,37.92 145.02,.18 290.05-.09 435.07,.12 6.49-.09 13.15-.36 19.32-2.65 13.78-5.58 24.23-20.16 22.63-35.39 .05-96.69 .02-193.38 .01-290.06 2.04-20.37-17.73-39.4-37.97-37.03-133.34,.13-266.68,.03-400.02,.06-14.86,.13-29.75-.64-44.58,.57m585-.01c-15.83,2.72-28.88,18.25-28.38,34.41-.11,25.02-.19,50.05 .02,75.07-.38,13.43 7.99,26.12 19.91,31.97 10.06,5.63 22.03,3.72 33.03,4.07 19.95-.48 39.93,.68 59.87-.5 19.05-1.17 34.58-19.67 33.19-38.56-.15-23.35 .17-46.71-.12-70.06 .83-19.94-17.59-39.12-37.91-36.94-26.54,.19-53.11-.75-79.61,.54m-802.03,218.95c-17.88,2.09-32.24,19.44-31.31,37.46-.03,24.95-.64,49.95 .34,74.9 1.17,19.05 19.67,34.58 38.56,33.19 23.35-.15 46.71,.17 70.06-.12 19.94,.83 39.12-17.59 36.94-37.91 .2-21.69-.06-43.37 .1-65.04-.42-7.34 .61-15.29-3.16-21.95-3.26-7.55-9.86-13.12-16.91-17.02-9.04-5.38-20.02-3.59-30.01-4.11-21.53,.46-43.1-.7-64.61,.6m804.04,.07c-11.01,1.45-20.77,9.09-26.31,18.49-5.81,9.24-3.69,20.62-4.21,30.93 .46,21.62-.6,43.28 .44,64.89 1.61,18.64 20.55,32.31 38.62,31.2 23.35-.19 46.71,.13 70.07-.15 18.8,.87 36.02-15.22 36.91-33.9 .18-25.03 .15-50.06-.01-75.08 .59-14.51-8.74-28.32-21.93-33.95-8.98-4.42-19.41-2.57-29.01-3.1-21.52,.47-43.08-.73-64.57,.67Z"/>
</svg>
