<svg width="1280" xmlns="http://www.w3.org/2000/svg" height="1280" viewBox="0 0 1024 1024">
<path d="m130.32,112.36c9.91-3.06 20.39-3.25 30.67-3.38 236.67,.05 473.35-.01 710.03,.04 11.87,.02 25.3,1.87 33.28,11.68 10.22,11.72 14.54,31.07 4.68,44.26-7.58,10.3-17.38,18.64-26.23,27.79-86.91,87.1-174.19,173.83-260.88,261.14 .33,138.38-.01,276.75 .17,415.12 .11,8.47-.74,17.11-3.95,25.02-7.48,15.81-27.31,23.33-43.77,18.66-7.7-2.45-13.98-7.8-19.61-13.4-40.91-41.09-81.98-82.02-122.96-123.04-8.08-8.25-16.93-15.86-23.59-25.37-5.89-7.16-6-17.07-6.23-25.85 .16-88.36-.01-176.73 .12-265.08 1.65-5.38-2.64-8.85-5.73-12.26-91.67-91.33-182.98-183.04-274.62-274.4-3.68-4.01-7.79-7.92-10.1-12.92-7.07-17.46 1.47-40.13 18.72-48.01Z"/>
</svg>
