<svg width="1280" xmlns="http://www.w3.org/2000/svg" height="1280" viewBox="0 0 1024 1024">
<path d="m274.9,122.95c6.1-41.71 44.48-76.96 87.08-77.04 28.22-2.08 56.3,11.38 74.06,33.06 22.27,25.64 27.07,64.26 12.88,94.97 57.25,.1 114.51,.11 171.77,0 2.25-7.64 5.96-17.35 15.3-17.91 75.92-16.68 152.02-32.63 228.01-49.03 10.33-2.04 20.52-5.08 31.07-5.88 7.03-1.71 13.28,3.43 16.96,8.85 2.94,5.82 1.43,12.76 2.06,19.02-.35,58.33 .27,116.68-.28,175-.74,11.22-13.32,18.74-23.8,15.01-74.12-15.87-148.23-31.77-222.34-47.65-12.43-3.01-25.26-4.49-37.33-8.84-5.53-3.22-7.49-9.6-9.5-15.22-48.6-.66-97.21-.14-145.82-.28-.07,19.29-.08,38.57 .03,57.86 26.59,5.63 52.12,16.77 73.7,33.39 29.34,22.6 52.46,53.65 63.94,89 8.54,24.98 8.95,51.64 9.33,77.74-.03,141.67-.04,283.34 .01,425.02-.18,10.42-.18,21.85-6.15,30.89-6.13,8.53-15.04,16.07-25.99,16.73-11.62,.82-23.27,.33-34.89,.38-86.68-.09-173.35,.06-260.03-.05-20.12,2.25-39.65-15.67-38.89-35.93-.22-153.34 .03-306.7-.12-460.04-.71-65.32 38.61-128.58 96.13-158.87 10.06-5.63 21.1-9.18 31.89-13.13 .07-21 .05-42 0-63-13.88,.26-27.9-1.03-41.67,1.3-41.26,6.61-80.29,26.67-110.07,55.94-14.84,14.27-28.04,30.21-40.13,46.84-8.87,11.37-13.35,25.98-24.45,35.57-13.01,9.3-32.3,8.58-44.56-1.74-11.73-9.47-17.15-26.9-11.26-41.02 5.88-13.68 14.39-26 22.91-38.12 15.17-20.84 31.6-40.92 50.61-58.39 29.84-26.8 64.71-48.05 102.59-61.35-10.8-18.98-16.4-41.29-13.05-63.08m82.54-21.37c-15.93,3.27-29.01,18.97-28.48,35.44-.69,11.87 6.14,22.73 15.41,29.58 13.83,11.31 36,8.75 47.49-4.74 11.1-10.28 13.05-27.84 6.37-41.09-7.63-14.29-24.51-23.55-40.79-19.19Z"/>
</svg>
