<svg width="1280" xmlns="http://www.w3.org/2000/svg" height="1280" viewBox="0 0 1024 1024">
<path d="m479.09,4.77c5.86,.31 11.86-.42 17.68,.65 10.72,3.38 20.33,9.39 30.27,14.51 41.59,21.35 80.87,47.28 116.54,77.51 31.92,26.86 61.06,57.87 81.34,94.59 17.13,30.75 29.4,64.31 36.26,98.83 5.91,33.61 8.99,68.12 4.77,102.11-3.95,31.68-14.98,62.31-31.28,89.71-11.26,18.8-26.54,34.65-41.43,50.55-28.93,28.4-60.98,53.33-93.24,77.77-24.26,19.79-50.11,39.09-66.94,66.03-11.73,17.85-20.13,38.45-20.83,60.01-2.11,23.14 3.26,45.98 9.55,68.05 6.95,23.44 17.45,45.61 28.25,67.47-12.5-4.38-24.12-10.85-36.04-16.54-43.04-21.16-84.37-46.12-121.68-76.36-33.59-26.54-64.52-57.21-87.22-93.75-14.46-22.84-24.87-47.99-33.51-73.53-12.64-40.04-17.09-82.39-15.35-124.25 3.46-49.12 22.39-97.66 55.6-134.3 22.64-26.08 48.92-48.67 75.85-70.17 30.45-23.99 62.61-46.32 88.88-75.08 17.65-20.86 31.97-45.95 34.47-73.61 2.7-21.14-1.21-42.34-6.27-62.82-6.34-23.23-15.24-45.7-25.67-67.38Z"/>
<path d="m128.37,945.43c11.52-.86 23.08-.42 34.63-.45 243.34,.08 486.68-.06 730.02,.07 8.69-.21 17.89,4.92 20.3,13.6 1.31,15.27 1.08,30.71 .25,46.03-2.45,11.06-15.31,15.66-25.54,14.32-251.69,.03-503.38-.07-755.07,.05-8.79,.48-19.02-2.69-22.04-11.95-2.46-8.79-1.84-18.09-2.1-27.1 .35-8.34-.79-17.3 3.2-24.98 2.75-6.24 9.94-9.15 16.35-9.59Z"/>
</svg>
