<svg width="1280" xmlns="http://www.w3.org/2000/svg" height="1280" viewBox="0 0 1024 1024">
<path d="m21.11,124.1c8.9-28.16 35.98-50.36 65.92-51.04 24.84-2.17 49.91,10.56 64.01,30.89 14.7,19.84 16.94,47.43 8.1,70.16-5.66,14.79-17.42,26.5-30.87,34.49-.66,239.81-.04,479.63-.3,719.44 1.03,9.72-4.56,20.48-14.79,22.2-13.88,1.42-27.93,1.1-41.84,.32-5.79-.88-12.07-3.86-14.47-9.47-2.34-3.92-1.46-8.77-1.9-13.06 .01-239.59 .12-479.18-.05-718.77-14.52-8.59-27.13-21.14-32.71-37.35-4.85-15.36-6.06-32.32-1.1-47.81Z"/>
<path d="m451.46,146.57c47.05-2.55 94.53,3.93 139.24,18.77 35.95,12.04 70.98,26.68 105.4,42.54 13.25,6.4 26.9,12.83 41.74,14.35 25.26,4.25 50.96-.14 75.35-6.95 26.91-8.15 53.38-18.27 77.84-32.25 19.53-11.12 39.39-21.65 59.7-31.26 7.76-3.31 15.95-7.04 24.6-5.18 17.02,3.21 31.62,19.5 29.66,37.38 .08,145.02-.12,290.04 .11,435.06 .2,7.51-1.3,15.75-6.82,21.25-4.96,5.92-11.69,9.87-18.31,13.66-42.83,23.6-87.76,43.77-134.91,57.07-28.24,7.36-57.38,12.3-86.64,11.59-33.97-.81-66.56-12.11-97.36-25.69-11.92-5.03-23.31-11.18-34.65-17.36-19.14-10.47-39.83-17.63-60.46-24.48-45.9-14.35-95.31-15.7-142.39-6.64-69.4,13.15-134.88,41.42-197.15,74.02-5.26,2.94-10.53,6.06-16.47,7.39-14.43,4.26-31.01-1.96-39.17-14.6-5.79-7.35-6.68-17.21-6.77-26.21-.01-138.35 .01-276.7-.01-415.05-.63-11.16 3.86-22.29 12.18-29.8 10.81-9.59 24.07-15.69 36.8-22.23 39.41-21.04 80.52-38.98 122.91-53.11 37.44-12.04 76.25-20.24 115.58-22.27Z"/>
</svg>
