<svg width="1280" xmlns="http://www.w3.org/2000/svg" height="1280" viewBox="0 0 1024 1024">
<path d="m23.23,118.27c10.6-25.29 35.92-44.6 63.79-45.19 24.84-2.21 49.92,10.54 64.02,30.87 18.09,24.49 17.69,61.02-1.09,85.02-5.55,8.17-13.6,14.14-21.63,19.71-.79,239.78-.03,479.58-.37,719.36-.25,6.01-.63,13.13-5.42,17.49-4.36,4.8-11.46,5.11-17.49,5.45-11.8,.31-23.65,.51-35.41-.6-7.72-1.2-15.36-8.01-14.46-16.38-.49-241.56 .13-483.14-.31-724.7-14.31-9.26-26.93-22.23-32.53-38.62-5.98-16.81-6.06-35.88 .9-52.41Z"/>
<path d="m451.45,146.57c41.52-2.1 83.43,2.33 123.5,13.53 44.84,13.26 87.98,31.62 130,52 10.16,5.44 21.38,8.45 32.71,10.32 33.66,5.12 67.46-3.59 99.03-14.68 31.47-11.58 61.64-26.54 90.51-43.56 10.43-6.05 20.79-12.41 32.02-16.89 15.09-4.77 32.45,2.54 40.66,15.79 7.1,10.15 5.18,23.31 6.11,34.91 .04,136.67-.03,273.35 .04,410.03-.06,9.1-.31,18.51-3.96,27.03-3.9,7.5-10.35,13.51-18.04,16.99-58.33,30.99-119.79,59.31-185.89,68.16-31.67,4.48-64.48,3.22-95.13-6.35-22.25-6.64-42.55-18.14-63.01-28.85-18.47-8.83-36.75-18.29-56.29-24.62-31.44-10.62-64.4-17.73-97.71-17.49-33.55-.89-66.7,5.79-99.08,13.91-52.39,14.32-103.51,33.87-151.23,59.91-11.03,5.88-21.41,14.94-34.69,14.39-12.35,.52-24.13-6.01-30.89-16.18-6.8-8.69-5.61-20.61-6.16-30.91 .09-136.68 .06-273.36 .01-410.03-.55-13.16 5.34-27.19 17.02-33.98 20.84-12.81 42.81-23.66 64.87-34.18 29.94-13.71 59.93-27.61 91.42-37.47 37.08-11.48 75.33-19.86 114.18-21.78m-111.77,98c-35.57,12.67-69.6,29.29-102.67,47.43 .04,114.07-.14,228.15 .09,342.23 31.24-14.44 63.23-27.29 95.92-38.05 40.73-12.75 82.58-23.04 125.3-25.79 41.57-2.07 83.95,.02 123.99,12.18 27.48,9.19 54.55,19.76 80.55,32.58 18.88,8.59 36.83,19.22 56.12,26.9 14.42,5.02 29.71,7.82 45.02,7.08 27.95,.48 55.44-5.89 81.94-14.23 29.64-10.25 58.56-22.77 86.05-37.89 .02-117.34 .01-234.68 0-352.02-27.97,15.49-57.53,28.16-88,37.86-32.17,9.63-65.81,16.24-99.54,13.62-23.25-1.3-46.34-6.55-67.42-16.53-36.31-18.04-73.68-34.09-112.28-46.55-29.05-8.95-59.36-13.62-89.74-14.3-46.22-.27-92.12,9.39-135.33,25.48Z"/>
</svg>
