<svg width="1280" xmlns="http://www.w3.org/2000/svg" height="1280" viewBox="0 0 1024 1024">
<path d="m23.23,118.27c10.6-25.28 35.92-44.61 63.79-45.19 24.84-2.22 49.92,10.54 64.01,30.87 18.1,24.48 17.71,61.03-1.09,85.01-5.54,8.18-13.58,14.17-21.63,19.71-.77,239.78-.02,479.58-.37,719.37-.27,6.01-.63,13.13-5.41,17.49-4.36,4.79-11.47,5.09-17.49,5.44-11.8,.33-23.65,.53-35.41-.59-7.72-1.21-15.36-8-14.46-16.38-.5-241.56 .13-483.14-.31-724.71-14.32-9.25-26.92-22.22-32.53-38.6-5.97-16.82-6.06-35.89 .9-52.42Z"/>
<path d="m451.45,146.57c41.23-2.18 82.79,2.39 122.63,13.25 45.15,13.28 88.57,31.77 130.87,52.29 18.33,9.62 39.56,12.34 60.02,11.77 30.29-1.99 59.68-10.86 87.65-22.32 27.09-11.13 53.22-24.55 78.34-39.61 9.22-5.23 18.35-10.8 28.27-14.66 15.08-4.75 32.45,2.53 40.64,15.8 7.11,10.14 5.2,23.3 6.12,34.9 .05,128.34-.05,256.67 .04,385.01-.13,15.12 .68,30.36-1.65,45.37-2.39,10.61-10.59,19.23-20.35,23.67-58.58,31.09-120.31,59.55-186.7,68.27-32.91,4.57-67.06,2.87-98.65-7.86-15.22-4.88-29.51-12.21-43.68-19.5-17.28-9.44-35.1-17.87-53.12-25.79-27.16-10.94-55.66-18.8-84.73-22.45-30.55-3.58-61.59-2.17-91.79,3.57-38.47,6.98-75.88,18.81-112.36,32.73-31.67,12.33-62.76,26.45-91.77,44.23-8.71,5.23-19.31,7.46-29.25,4.76-10.78-1.76-19.42-10.14-24.54-19.37-3.73-8.29-3.09-17.78-3.49-26.62 .07-135.01 .11-270.01-.02-405.02 0-8.39 .09-17.35 4.23-24.91 3.29-7.29 9.86-12.38 16.55-16.37 18.87-11.26 38.55-21.08 58.36-30.59 30.82-14.24 61.79-28.46 94.2-38.77 37.08-11.48 75.32-19.86 114.18-21.78m-213.34,144.75c-.18,36-.21,72 .02,107.99 68.28-34.56 141.67-63.09 218.84-67.27 .06-37.42 .05-74.83 0-112.25-77.79,4.21-151.34,34.49-218.86,71.53m566.56,1.28c-30.2,5.81-61.57,6.08-91.69-.29 .23,37.42-.41,74.84 .35,112.25 35.49,9.75 73.22,5.44 108.31-3.95 38.62-11.1 75.49-27.7 110.35-47.57 .02-36.02 .02-72.03 0-108.04-39.86,21.74-82.59,39.06-127.32,47.6m-347.65,40.48c-.04,42.27-.03,84.53-.01,126.8 40.83,.28 82.02,4.4 121.01,17.06 36.69,11.99 72.37,26.99 106.98,44.06 9.1,4.49 18.56,8.2 28,11.91 .07,35.62-.14,71.26 .09,106.89 10.69,4.38 21.99,7.25 33.44,8.76 35.24,3 70.56-3.67 103.77-15.18 28.12-9.98 55.55-22.01 81.71-36.37-.02-34.99 0-69.97-.01-104.96-36.36,17.47-73.97,33.09-113.6,41.38-34.43,7.93-70.95,8.43-105.15-.85-.59-42.56-.09-85.12-.24-127.68-22.24-7.96-42.42-20.45-63.97-29.98-20.77-10.63-42.45-19.27-64.17-27.73-12.32-3.87-25-6.46-37.52-9.55-29.69-5.89-60.19-6.73-90.33-4.56m-219.02,194.91c0,35.31-.01,70.63 0,105.95 68.99-32.37 142.71-56.54 218.97-62.95 .05-36.42 .06-72.82-.01-109.23-76.67,6.43-150.31,32.47-218.96,66.23Z"/>
</svg>
