<svg width="1280" xmlns="http://www.w3.org/2000/svg" height="1280" viewBox="0 0 1024 1024">
<path d="m357.84,73.78c7-.92 14.1-.79 21.16-.87 93.33,.29 186.68-.13 280.01,.2 19.81-.51 36.59,18.5 35.97,37.89-1.14,16.97-14.8,32.97-32.09,34.68-13.62,.79-27.25,.23-40.87,.33-.14,69.99 .15,139.99-.14,209.99 .36,7.96-1.76,16.82 3.34,23.78 90.04,141.96 180.11,283.9 270.14,425.87 12.99,20.62 28.08,41.16 32.16,65.79 5.66,25.36-6.36,54.15-29.53,66.52-11.26,7.01-24.43,9.96-37.44,11.48-21.45,2.27-43.04,1.45-64.55,1.56-201.67,0-403.34-.01-605.01,.01-22.8-.23-47.11-1.63-67.01-13.99-22.21-13.03-33.16-41.03-27.83-65.91 2.62-16.25 10.82-30.88 19.12-44.83 91.61-144.4 183.18-288.82 274.81-433.2 3.46-6.07 8.19-11.44 11.01-17.86 1.3-6.65 .87-13.49 1.02-20.22-.26-69.67-.02-139.34-.12-209.01-13.34-.06-26.67,.38-39.99-.14-18.28-1.31-33.86-18.44-32.98-36.83-.31-16.54 12.72-32.02 28.82-35.24m117.17,72.23c.03,78-.14,156 .11,234-.58,6.24 1.18,13.24-2.33,18.88-54.7,86.31-109.63,172.52-164.12,258.98 135.49,.28 270.98,.1 406.47,.08-54.57-86.4-109.35-172.69-164.18-258.93-1.61-2.37-3.07-5.02-3-7.96 .05-81.68 .06-163.36 .03-245.04-24.33-.06-48.65-.04-72.98-.01Z"/>
</svg>
