<svg width="1280" xmlns="http://www.w3.org/2000/svg" height="1280" viewBox="0 0 1024 1024">
<path d="m223.45,73.6c6.51-.42 13.02-.64 19.55-.65 181.67,.1 363.34,.05 545.01,.03 26.36,0 52.79,6.46 75.96,19.1 36.1,20.45 65.46,53.66 78.62,93.27 7.16,21.78 8.35,44.89 8.45,67.65-.13,176.67 .05,353.34-.09,530.01-.01,29.59-6.7,59.47-21.83,85.08-22.17,36.4-57.38,66.04-99.05,76.9-25.1,6.64-51.34,6.02-77.07,6.03-170-.05-340-.02-510.01-.01-26.04,.21-52.61-4.12-76.01-15.97-18.54-8.59-34.88-21.35-49-36.01-19.4-20.52-34.34-45.73-40.53-73.44-2.86-13.33-4.43-26.94-4.44-40.58-.06-181.67 .06-363.34-.06-545.02-.25-20.11 2.67-40.37 9.64-59.28 21.8-58.23 78.03-103.54 140.86-107.11m113,317.97c-29.38,2.42-56.9,17.64-76.19,39.69-40.42,42.25-40.85,115.18-2.26,158.76 24.89,29.89 64.7,46.82 103.55,42.43 47.59-2.86 90.43-38.14 104.81-83.15 6.47-19.03 6.96-39.64 3.75-59.36-7.45-46.9-46.22-86.71-92.51-96.53-13.44-3.22-27.47-2.78-41.15-1.84m322-.02c-32.75,2.93-62.75,21.52-82.47,47.43-26.21,33.42-30.81,81.03-14.85,119.91 9.54,23.17 27.03,42.46 47.9,56.05 32.53,20.92 75.32,23.52 110.86,8.93 23.17-9.54 42.46-27.03 56.05-47.9 20.65-31.97 23.16-73.58 10.02-108.89-9.81-24.35-27.71-45.21-49.99-59.03-22.78-14.69-50.84-19.4-77.52-16.5Z"/>
</svg>
