<svg width="1280" xmlns="http://www.w3.org/2000/svg" height="1280" viewBox="0 0 1024 1024">
<path d="m54.07,173.06c21.74-35.59 60.57-61.77 102.98-62.76 63.31-.75 126.64-.03 189.96-.35 21.93-.54 43.87,5.3 62.92,16.12 31.17,18.78 56.17,49.74 62.98,86.03 2.86,14.43 1.98,29.25 2.11,43.88 126.66,.03 253.32,.05 379.99-.02 25.91-.29 52.63,5.84 73.97,21.07 33.8,22.31 58.04,60.78 57.93,101.95 .22,138.34 .02,276.69 .1,415.04-1.26,48.89-35.74,93.39-80.31,111.72-21.32,9.21-44.97,8.6-67.7,9.28-208.33-.04-416.67-.01-625-.02-22.16-.05-44.38,.54-66.48-1.49-45.25-5.29-85.19-38.03-102.25-79.81-9-21.01-8.81-44.29-9.29-66.7 .13-175-.15-350.01 .14-525.01-.12-24.01 5.16-48.41 17.95-68.93Z"/>
</svg>
