<svg width="1280" xmlns="http://www.w3.org/2000/svg" height="1280" viewBox="0 0 1024 1024">
<path d="m22.31,130.32c20.36-13.82 45.12-20.84 69.68-20.37 60.01,.13 120.02-.03 180.03,.07 16.31-.21 32.66,2.35 48.02,7.89 40.68,16.36 73.33,53.75 80.64,97.42 2.23,13.4 2.05,27.07 2.49,40.62 100.62,.15 201.23-.02 301.85,.06 21.13,.04 42.79,2.65 61.98,12.02 40.65,19.28 71.09,60.62 73.88,105.98 .46,33.64-.17,67.29 .18,100.93 40.28,.73 80.63-1.24 120.88,1.19 22.63,1.38 44.19,10.35 62.06,24.11v142.11c-53.53,66.01-107.19,131.91-160.74,197.9-26.56,34.81-66.55,57.25-108.3,68.63-19.81,5.55-40.55,5.69-60.95,6.12-195.01,.02-390.01-.04-585.02,.03-20.83,.05-42.17-.65-61.87-8.16-17.84-6.68-33.93-17.69-47.12-31.38v-727.26c7.21-6.24 14.38-12.57 22.31-17.91m45.68,57.66c-12.58,6.18-22.81,17.04-27.86,30.16-3.48,8.13-3.2,17.19-3.22,25.85 .35,160.14-.25,320.28 .3,480.41 46.91-57.48 93.65-115.13 140.4-172.76 27.33-35.3 67.58-59.1 110.32-70.75 17.9-5.01 36.58-5.78 55.07-5.9 141.65,0 283.31,.04 424.97-.01 .12-26-.06-51.99 .1-77.98-.17-10.7 .34-21.66-3.22-31.94-7.94-20.29-28.33-36.42-50.82-35.05-103.34-.02-206.69-.04-310.03,.03-9.62-.15-19.28-.09-28.81-1.57-24.33-2.61-44-24.92-45.76-48.98-1.39-17.26 .68-34.64-1.1-51.88-3.85-25.49-28.7-45.35-54.31-44.63-58.34,0-116.69,.07-175.03-.03-10.5-.2-21.31,.71-31,5.03m249.45,361.57c-21.48,2.94-41.84,12-59.47,24.45-11.93,8.63-21.31,20.16-30.31,31.68-51.28,63.38-102.65,126.68-153.91,190.07-4.94,6.07-9.31,12.76-11.78,20.25-1.87,6.12-.51,13.4 3.9,18.13 6.6,5.69 15.64,7.21 24.1,6.85 206.68,.08 413.36-.05 620.04,.06 13.36,.24 26.84-1.65 39.27-6.69 20.57-7.78 40.6-19.14 54.36-36.69 56.54-69.8 113.14-139.57 169.53-209.49 6.48-7.65 10.46-18.82 6.17-28.51-5.22-9.71-17.56-10.78-27.31-10.67-206.68,0-413.36,.05-620.04-.03-3.64,.15-10.91,.45-14.55,.59Z"/>
</svg>
