<svg width="1280" xmlns="http://www.w3.org/2000/svg" height="1280" viewBox="0 0 1024 1024">
<path d="m120.37,117.39c14.96-5.17 30.8-7.56 46.62-7.39 61.67,0 123.35-.02 185.03,.01 47.33,.27 90.98,31.59 111.59,73.36 11.16,22.45 12.23,48.01 12.48,72.61 126.64,.09 253.28-.09 379.92,.09 23.32-.34 46.78,5.09 66.89,17.06 24,14.43 43.96,36.1 54.97,61.98 9.69,21.59 9.76,45.69 10.15,68.89-.04,115-.02,230-.01,345-.09,19.66 .64,39.45-2.12,58.99-6.9,43.42-38.8,81.23-79.19,97.75-21.01,8.98-44.29,8.8-66.7,9.28-220-.05-440-.01-660.01-.02-20.44-.05-41.36-.83-60.62-8.42-31.66-12.39-58.3-37.61-72.27-68.62-10.61-22.05-10.76-47.04-11.12-70.96 .04-170 .03-340 0-510 .22-13.97 .22-28.02 2.25-41.87 7.62-44.02 40.72-81.86 82.14-97.74m37.06,66.18c-26.26,2.27-48.45,27.05-47.51,53.41 .2,183.35 0,366.7 .1,550.05-1.29,21.45 13.29,40.97 32.07,49.88 13.48,6.2 28.59,3.63 42.91,4.13 225.01-.11 450.02,.01 675.03-.06 28.04,1.46 54.37-23.9 53.99-51.94-.05-135.02 .01-270.05-.03-405.07 1.18-23.15-15.61-44.61-37.06-51.92-9.65-3.25-19.97-1.84-29.93-2.12-123.34,.19-246.67-.02-370,.1-9.63-.14-19.29-.05-28.81-1.58-24.34-2.58-44-24.92-45.75-48.97-1.39-17.26 .67-34.63-1.13-51.87-3.8-25.49-28.7-45.35-54.29-44.63-51.67-.02-103.35,.08-155.02-.01-11.52,.01-23.07-.36-34.57,.6Z"/>
</svg>
