<svg width="1280" xmlns="http://www.w3.org/2000/svg" height="1280" viewBox="0 0 1024 1024">
<path d="m468.99,73c24.59,.01 49.2-.08 73.8,.06 9.88,20.29 18.07,41.33 27.16,61.97 51.62,121.69 104.34,242.91 154.98,365.01 9.11,21.82 17.2,44.04 26.07,65.96 11.68,29.4 23.94,58.57 36.29,87.7 9.16,21.05 18.19,42.18 26.28,63.68 10.59,26.83 19.67,54.26 31.38,80.65 9.22,20.54 18.71,40.97 29.09,60.95 4.03,8.1 9.73,15.81 17.89,20.11 10.92,6.27 23.81,7.32 36.03,9.05 19.13,2.82 37.77,8.32 55.86,15.05 2.87,15.81 3.53,31.86 3.22,47.91-42.4-.81-84.76-2.82-127.04-6.17-51.89-4.47-104.01-2.62-156.01-2.84-53.23,2.18-106.38,6.28-159.63,8.01 .58-14.96 .6-29.95 2.55-44.8 23.54-4.74 47-9.87 70.48-14.88 13.09-2.94 26.38-5.77 38.6-11.46 6.76-3.09 11.63-10.42 11.11-17.94 .48-8.77-2.5-17.23-5.91-25.16-19.4-46.21-38-92.76-56.75-139.24-6.43-16.57-13.61-32.84-19.85-49.48-51.53-.46-103.07,.2-154.6-.31-34.26-1.48-68.56-.69-102.83-.75-22.64,53.6-41.79,108.59-61.71,163.24-5.48,16.21-12.06,32.87-10.01,50.33 .95,5.87 3.78,11.71 8.67,15.26 13.67,10.27 30.9,13.42 47.32,16.56 19.81,3.3 39.7,6.15 59.5,9.59 1.17,16.11 1.96,32.38-.12,48.47-59.02-1.04-117.87-6.17-176.77-9.77-11.95-1.05-24.1-2.64-35.91,.36-40.11,7.64-80.94,10.78-121.73,10.72 .52-15.24 .44-30.5 1.48-45.71 27.99-7.44 56.82-11.03 84.82-18.41 10.5-3.01 21.82-6.13 29.13-14.88 9.22-10.25 16.03-22.51 22.29-34.73 30.46-79.17 61.03-158.3 91.44-237.49 67.48-175.67 135.66-351.06 203.43-526.62m-115.18,502.88c26,2.44 52.15,.29 78.2,1.34 29.5,1.71 59.06-.02 88.58,1.28 11.76,.51 23.54-.19 35.27-1.05-10.23-30.34-21.63-60.26-33.3-90.07-22.88-56.33-44.69-113.22-71.79-167.7-32.62,85.28-64.69,170.78-96.96,256.2Z"/>
</svg>
