<svg width="1280" xmlns="http://www.w3.org/2000/svg" height="1280" viewBox="0 0 1024 1024">
<path d="m74.31,76.32c2.51-4.1 8.33-5.11 12.52-3.16 9.14,4.79 15.65,13.01 22.93,20.08 129.49,129.52 258.99,259.02 388.51,388.51 4.25,4.48 8.09,9.37 11.7,14.4 .03-135.06 .1-270.12-.05-405.18-.55-5.81 1.03-11.75 4.77-16.27 2.64-3.13 7.66-3.5 11.11-1.49 4.37,2.46 8.36,5.54 11.95,9.04 130.51,130.49 260.98,261.02 391.51,391.49 7.02,7.33 15.42,13.82 19.79,23.25 5.89,13.09 3.33,29.81-7.28,39.77-130.53,130.47-261.01,261-391.52,391.49-6.73,6.6-13.07,13.63-20.23,19.78-3.94,3.36-10.21,4.25-14.75,1.69-5.42-4.92-5.11-13.05-5.27-19.69-.07-134.08 .14-268.16-.1-402.23-8.95,11.65-19.86,21.53-30.15,31.95-127.98,128.02-256.04,255.97-383.98,384.03-4.42,4.34-9.93,9.02-16.62,7.07-7.5-2.6-7.88-12.23-8.11-18.81-.13-280.03 .06-560.06-.09-840.08-.05-5.33 .65-10.97 3.36-15.64Z"/>
</svg>
