<svg width="1280" xmlns="http://www.w3.org/2000/svg" height="1280" viewBox="0 0 1024 1024">
<path d="m445.82,95.82c33.36-28.15 85.51-30.79 121.54-6.19 6.56,4.29 12.41,9.53 17.92,15.09 49.92,50.18 100.21,100 150.04,150.26-75.6,75.95-151.41,151.69-227.3,227.34-35.98-35.47-71.45-71.44-107.28-107.06-11.82-11.46-26.65-20.52-43.19-22.78-25.16-5.04-52.3,3.6-70.32,21.75-24.01,24.32-48.69,48-72.01,72.99-21.32,21.06-26.43,55.5-15.35,82.85 5.87,15.4 17.79,27.38 29.36,38.7 48.54,48.46 97.01,96.99 145.52,145.48 22.68,24.62 47.05,47.62 70.47,71.53 12.59,13.14 28.84,22.57 46.36,27.39 20.85,2.96 43.68,.15 61.11-12.49 9.16-6.71 17.09-14.89 25.07-22.92 113.46-113.58 227.11-226.98 340.5-340.62 10.94,11.52 20.65,24.7 25.66,39.95 5.86,17.87 7.58,37.25 3.82,55.75-3.88,20.38-14.97,38.82-29.5,53.4-110.96,111.04-222.02,221.98-332.97,333.03-12.75,12.95-28.59,22.92-46.14,27.83-23.12,5.37-48.29,4.96-70.12-5.1-11.19-5.08-21.53-12.09-30.26-20.75-112.5-112.5-225-225-337.5-337.5-12.61-12.92-22.49-28.99-26.24-46.8-5.22-21.78-4.11-45.31 5.1-65.89 5.94-15.38 17.35-27.65 28.63-39.32 101.03-100.97 202-202 303.01-302.99 11.27-11.06 21.97-22.74 34.07-32.93Z"/>
<path d="m833.78,227.77c8.75-10.07 25.17-12.08 36.16-4.68 5.62,3.54 10.2,8.42 14.86,13.11 19.48,19.85 39.43,39.23 58.88,59.11 10.87,11.3 11.37,31.03-.44,41.92-138.45,138.55-277.03,276.99-415.47,415.54-5.89,6.15-13.99,10.29-22.64,9.96-6.63-.74-13.38-2.89-18.45-7.38-77.62-78.03-155.68-155.68-233.4-233.62-6.64-5.91-9.01-15.08-8.36-23.72-.71-5.81 2.35-10.97 5.62-15.43 9.49-11.5 21.3-20.73 31.73-31.31 13.48-13.53 26.99-27.02 40.44-40.58 10.05-10.5 28.3-9.96 38.49,.1 48.38,48.04 96.34,96.55 144.78,144.53 109.47-108.97 218.45-218.45 327.8-327.55Z"/>
</svg>
