<svg width="1280" xmlns="http://www.w3.org/2000/svg" height="1280" viewBox="0 0 1024 1024">
<path d="m489.45,73.48c78.9-4.34 159.01,12.84 228.62,50.39 40.09,21.41 76.63,49.19 108.67,81.38 51.44,53.58 89.91,119.88 109.25,191.69 18.95,74.72 20.32,154.47 .01,229.06-16.6,63.32-48.58,122.28-91.01,172-62.24,72.51-148.63,124.43-242.4,143.55-66.44,13.2-135.91,12.51-201.58-4.6-77.79-19.81-149.09-62.59-205.17-119.79-50.04-52.48-87.77-116.99-107.12-186.99-23.54-87.2-21.19-181.73 9.53-266.88 31.82-88.12 92.29-165.9 170.69-217.36 39.2-26 82.35-46.28 127.92-58.19 30.22-8.11 61.36-12.56 92.59-14.26m5,73.08c-30.27,1.6-60.41,6.6-89.38,15.6-78.41,24.78-149.48,74.94-195.12,143.81-45.6,67.61-69.7,150.36-62.83,231.98 5.63,80.57 39.67,158.5 93.23,218.71 56.49,62.69 135.45,104.46 218.78,117.14 26.79,4.31 54.04,3.76 81.05,2.53 76.45-5.65 150.18-37.29 208.83-86.32 30.64-26 56.79-57.28 76.97-92.04 34.12-58.01 53.78-125.4 51.08-192.97-.38-78.39-29.32-155.35-76.63-217.41-23.93-31.55-53.58-58.64-86.71-80.29-64.39-42.32-142.03-65.34-219.27-60.74Z"/>
<path d="m359.45,292.51c27.16-3.28 54.44,11.48 68.54,34.53 8.52,12.14 10.75,27.44 10.9,41.95-.85,29.56-22.19,56.54-49.94,65.89-18.22,5.3-38.91,5.15-55.95-3.89-13.53-6.74-24.78-17.74-31.98-31-8.02-14.01-9.56-30.88-7.61-46.66 4.92-31.94 33.35-59.27 66.04-60.82Z"/>
<path d="m651.45,292.52c24.04-2.9 48.97,8.31 63.89,27.15 19.62,23.59 21.51,60.42 4.06,85.71-9.1,12.95-21.6,24.04-36.76,29.18-25,8.1-54.84,3.56-73.9-15.29-21.68-19.16-29.8-51.93-19.39-78.96 9.33-25.9 34.35-46.01 62.1-47.79Z"/>
<path d="m504.45,548.47c53.53-2.47 107.55,16.03 148.43,50.63 32.53,26.24 56.15,62.97 68.01,102.93 3.36,9.6 2.34,20.26-2.78,29.06-9.83,19.04-37.6,24.37-54.06,10.84-9.71-5.76-12.01-17.38-15.93-27.04-15.58-42.4-52.71-75.78-96.08-87.96-20.41-5.82-42.06-6.03-63.03-3.85-44.26,6.96-85.04,35.17-105.88,75.01-6.86,11.38-8.96,24.89-15.73,36.3-9.77,14.03-30.11,19.52-45.39,11.55-11.52-4.57-19.07-16.12-20.91-28.06-1.29-12.99 4.75-24.89 9.1-36.71 23.18-57.53 73.36-102.4 131.88-121.98 20.13-6.6 41.24-9.86 62.37-10.72Z"/>
</svg>
