<svg width="1280" xmlns="http://www.w3.org/2000/svg" height="1280" viewBox="0 0 1024 1024">
<path d="m199.17,224.27c32.21-6.21 65.19-5.26 97.83-5.28 153.34,.04 306.67-.03 460.01,.03 36.94,.22 74.42,3.78 109.32,16.61 66.52,23.15 121.52,73.09 157.67,132.85v285.91c-12.62,23.23-29.63,43.73-47.76,62.85-25.17,25.46-54.56,46.99-87.19,61.86-31.76,14.49-66.29,22.72-101.13,24.59-25.22,.92-50.74,1.01-75.58-4.07-48.2-9.04-94.01-30.79-131.17-62.84-3.36-2.49-6.47-6.25-11.23-5.46-23.3-1.08-46.63,.05-69.94-.31-16.84,.3-33.78-1.08-50.54,.66-4.6,2.42-8.37,6.13-12.43,9.33-33.22,26.82-72.34,46.66-114.09,55.98-23.57,5.41-47.78,7.72-71.94,7.16-35.15,.53-70.24-6.49-102.96-19.16-62.08-24.44-113.55-71.81-148.04-128.43v-288.97c9.52-14.78 18.98-29.7 30.66-42.91 15.8-19.18 34.53-35.71 54.19-50.81 33.67-24.96 73.12-41.97 114.32-49.59m16.24,105.23c-8.36,.65-15.08,9.22-14.25,17.51-.51,36.65 .05,73.31-.17,109.97-37.29,.37-74.61-.57-111.88,.35-8.78-.11-16.19,8.1-16.13,16.63 .05,25-.26,50.02 .19,75.02-1.23,10 8.42,17.92 17.79,18.03 36.67,.12 73.34-.14 110.02,.01 .13,35-.09,70.01 .01,105.01 .38,4.15-.24,8.66 1.34,12.66 3.32,6.81 11.14,10.87 18.64,10.25 23.34,.1 46.68,.34 70.01-.13 6.1,.43 11.93-2.39 15.8-7.02 3.96-4.27 3.01-10.47 3.31-15.76-.1-35-.13-70.01-.08-105.02 34.67-.14 69.35,.13 104.02-.02 5.55-.4 11.96,.29 16.74-3.25 4-3.42 7.92-8.01 7.08-13.75 .39-25 .19-50.03 .11-75.03 .94-9.56-7.52-17.92-16.95-17.85-36.99-.41-73.99,.1-110.99-.13-.08-35.01-.02-70.01 .07-105.01-.15-5.39 .4-11.34-3.27-15.78-3.6-5.48-10.52-7.56-16.8-7.11-24.87,.01-49.77-.69-74.61,.42m614.02,37.04c-22.59,2.75-42.17,18.15-53.3,37.54-10.37,18.35-10.72,41.15-4.03,60.82 6.52,15.72 17.86,29.81 33.01,37.92 22.08,12.74 50.98,12 72.81-.93 22.86-13.49 38.25-40.07 35.88-66.84-.36-27.07-18.47-52-42.81-63.01-12.73-6.55-27.6-7.06-41.56-5.5m-144,145.98c-37.35,3.64-68.24,40.42-63.92,78.03 1.56,33.41 29.79,63.01 62.8,67.07 15.84,1.56 32.64-.49 46.45-8.88 11.56-6.34 20.54-16.43 27.53-27.45 15.91-27.15 11.62-65.27-11.47-87.11-15.42-16.53-38.97-24.98-61.39-21.66Z"/>
</svg>
