<svg width="1280" xmlns="http://www.w3.org/2000/svg" height="1280" viewBox="0 0 1024 1024">
<path d="m496.98,112.89c35.61-4.61 72.2-5.02 107.42,2.67 47.15,9.76 91.22,32.26 128.27,62.8 5.33,4 9.46,10.47 8.94,17.31-1.61,8.05-7.73,14.1-12.56,20.37-17.39,20.67-33.76,42.2-51.3,62.72-4.73,6.24-14.19,8.27-21.03,4.52-10.87-7.65-21.45-15.93-33.7-21.32-23.9-10.92-49.33-20.53-76.01-20.06-28.77-1.48-58.76,7.17-80.25,26.86-18.02,16.08-28.89,40.02-28.69,64.22-.2,42.66-.03,85.33-.05,128 55,.02 110,.09 164.99-.07 8.01-.11 17.41,.44 22.83,7.24 4.69,4.24 3.85,11.16 4.17,16.82 .02,23.35 .09,46.71 .01,70.07 .12,5.96-3.59,11.3-8.12,14.88-4.51,3.43-10.59,2.72-15.87,3.09-56,.05-112.01-.08-168.01,.01-.03,71.99-.05,143.97 .01,215.95 78.64,.05 157.29,.05 235.94,0 .16-33.33-.1-66.67 .01-100-.81-8.22 3.71-17.54 11.87-20.15 8.62-1.35 17.43-.78 26.15-.9 25.01,.33 50.02-.25 75.03,.14 5.42,0 9.93,3.7 13.21,7.7 3.25,4.34 2.31,10.15 2.77,15.21 .05,65.01-.12,130.03 .08,195.04-.65,7.41 1.6,16.68-4.77,22.29-4.12,5.82-11.94,5.81-18.29,5.71-178.35,.02-356.7-.09-535.05,.05-7.3,.22-16.66,.02-21.04-7.02-5.31-6.76-3.34-16.13-4.03-24.03 .46-24.86-.69-49.75 .63-74.58 .48-9.22 9.04-17.19 18.42-16.38 18.33-.39 36.67,.15 55.01-.08 .05-72.99 .05-145.97 0-218.95-18.63-.32-37.28,.55-55.9-.26-9.46-.08-16.55-9.13-16.65-18.13-1.01-21.53-.26-43.11-.43-64.65 .56-7.82-.8-17.43 5.68-23.3 4.57-5.26 12.03-4.96 18.36-5.47 16.31-.56 32.63-.07 48.95-.23 .06-41.66 .01-83.32-.01-124.98-.51-36.64 7.48-73.7 25.06-105.99 12.52-23.65 30.59-43.84 50.55-61.47 35.8-30.57 80.8-49.65 127.4-55.65Z"/>
</svg>
