<svg width="1280" xmlns="http://www.w3.org/2000/svg" height="1280" viewBox="0 0 1024 1024">
<path d="m319.95,129.9c20.28-3.14 41.27-2.74 61.03,3.19 23.99,6.18 44.68,21.79 59.7,41.21 23.78,30.64 47.54,61.29 71.32,91.92 18.77-23.99 37.46-48.05 56.04-72.18 11.44-14.12 21.48-29.73 35.98-41 16-13.14 35.96-20.99 56.43-23.49 22.74-3.36 46.52-1.69 67.95,6.99 40.19,16.31 72.59,53.62 78.94,97.08 3.05,20.51 2.68,41.89-3.93,61.7-7.48,23.96-22.76,45.15-42.17,60.92-19.17,15.74-43.06,24.84-67.63,27.37 80.46,.96 160.95,.05 241.42,.42 9.41,.39 16.8,9.71 15.76,18.99 .46,59.99 .18,120 .13,180 1.03,8.65-4.32,17.72-13.11,19.62-19.91,1.05-39.87,.01-59.79,.38-.11,80 .09,160-.07,240-.77,24.89-20.04,48.14-44.91,52.1-13.95,1.64-28.05,.7-42.04,.89-196.67-.02-393.35-.03-590.02,.01-22.84,.57-44.87-15.4-51.88-37.06-3.42-10.31-3.04-21.26-3.17-31.96 .14-74.66 .06-149.33 .06-223.99-18.35-.2-36.69,.3-55.03-.05-9.08,.85-17.64-6.9-17.63-16.07-.91-56.61 .08-113.26-.45-169.89 .24-8.25-1-16.88 2.43-24.67 2.8-3.56 6.32-7.33 11.11-7.79 16.49-1.28 33.06-.31 49.58-.53 64.79-.19 129.58,.33 194.36-.25-14.41-2.57-29.17-5.11-42.33-11.85-38.56-18.52-68.03-56.84-72.24-99.86-1.33-15.32-1.65-30.99 2.16-46.01 11.05-48.29 52.9-88.37 102-96.14m16.49,71.6c-27.78,2.37-51.15,29.47-48.3,57.45 .32,26.89 24.2,50.67 50.85,51.93 38.39,.31 76.79,.09 115.18,.05-23.33-30.33-47.17-60.27-70.61-90.52-10.88-14.18-29.44-21.67-47.12-18.91m319.61,5.53c-7.96,4.04-13.79,10.96-19.06,17.95-21.91,28.79-44.61,56.98-66.39,85.87 30.79,.39 61.6-.02 92.4,.22 13.05-.22 26.6,.9 39.03-4.01 10.52-4.66 19.73-12.37 25.89-22.11 13.63-20.92 10.03-51.45-8.57-68.31-16.01-16.82-42.95-20.06-63.3-9.61m-235.03,176.98c-.09,134 .09,268-.1,402 .5,7.61-.94,16.49 4.06,23.01 7.47,10.42 20.77,14.11 33,13.96 35.01,.05 70.03,.09 105.04-.03 11.15-.23 23.95-1.33 32.24-9.7 5.23-4.92 8.46-11.97 7.74-19.22 .01-136.67 0-273.34-.01-410.01-60.66-.04-121.32-.02-181.97-.01Z"/>
</svg>
