<svg width="1280" xmlns="http://www.w3.org/2000/svg" height="1280" viewBox="0 0 1024 1024">
<path d="m128.02,109.87c37.74-.68 75.92,6.6 109.98,23.14 24.38,11.62 46.88,26.7 69.2,41.8 12.52,8.66 24.15,18.55 36.69,27.2 1.2,.8 2.76,.19 4.09,.09 67.2-15.57 136.57-21.04 205.44-18.63 42.97,1.48 85.69,7.66 127.52,17.54 34.35-26.22 69.87-51.48 109.12-69.91 33.01-15.34 69.75-21.28 105.96-21.19 33.86,66.46 37.62,146.42 14.82,217.01-1.32,2.92 .67,5.61 2.53,7.72 20.82,25.59 38.01,54.25 49.88,85.07 13.57,34.41 20.63,71.14 23.12,107.97 2.88,64.35-.6,130.34-22.07,191.62-10.81,30.43-27.41,58.87-49.61,82.4-37.94,40.22-87.62,68.39-140.62,83.45-39.6,11.86-80.62,17.97-121.53,23.28-48.63,5.41-97.66,5.89-146.54,5.58-54.5,.56-108.97-3.23-163.03-10-39.41-5.37-78.29-15.06-115.34-29.6-25.81-10.04-51.78-20.5-74.66-36.37-35.98-24.08-65.53-57.8-83.93-97.06-21.77-46.84-28.99-98.89-31.79-150.02-.24-30.82-1.78-61.88 3.14-92.43 8.14-57.79 30.37-114.22 67.7-159.44 2.12-3.35 6.84-6.65 5.07-11.17-11.75-36.27-15.68-74.8-13.88-112.79 2.41-36.53 12.11-72.61 28.74-105.26m166.43,384.72c-20.99,1.68-41.65,8.07-59.4,19.49-20.86,12.37-36.12,32.1-48.33,52.66-15.63,28.66-23.41,61.63-21.81,94.26-.21,25.43 3.87,51.05 13.35,74.72 11.77,28.12 29.62,54.49 54.89,72.14 28,20.37 61.51,31.03 94.75,39.26 55.18,13.79 112.63,12.92 169.1,12.88 63.42-.27 127.69,2.4 190.15-10.78 28.46-6.53 56.84-14.72 82.84-28.27 17.65-9.85 34.59-21.75 47.3-37.68 24.72-29.43 38.98-67.04 41.59-105.27 .36-18.8 .85-37.79-2.59-56.37-5.09-32.52-20.46-63.08-42.58-87.35-26.93-28.97-67.62-43.04-106.73-40.2-42.37,2.37-84.3,9.42-126.39,14.53-45.53,5.11-91.59,4.27-137.13-.18-22.93-3.02-45.82-6.3-68.77-9.13-26.64-2.94-53.38-7.12-80.24-4.71Z"/>
<path d="m319.4,549.48c9.78-.84 20.26-1.44 29.46,2.67 11.23,4.51 20.1,13.17 27.43,22.57 16.42,20.77 23.75,47.25 25.45,73.33 2.28,35.39-6.49,73.1-30.71,99.97-11.64,14.18-30.44,21.97-48.71,19.66-11.25-1.67-22.02-6.88-30.11-14.89-15.86-14.79-26.44-34.73-31.28-55.76-5.39-23.33-7.13-47.99-1.4-71.43 4.59-24.28 16.27-47.68 34.86-64.21 7.51-5.35 15.55-10.96 25.01-11.91Z"/>
<path d="m684.44,549.57c10.52-1.02 21.92-1.72 31.59,3.39 15.52,6.85 26.66,20.68 34.81,35.15 10.18,17.17 14.38,37.1 16.47,56.73 2.67,25.83-2.01,52.24-12.48,75.93-6.8,14-16.17,26.94-28.38,36.71-16.86,12.59-41.75,14.51-59.46,2.52-13.39-8.21-22.44-21.58-29.98-34.99-13.74-26.9-17.1-58.25-13.96-87.98 3.22-20.07 8.85-40.37 20.94-57.04 9.56-13.97 22.97-27.78 40.45-30.42Z"/>
</svg>
