<svg width="1280" xmlns="http://www.w3.org/2000/svg" height="1280" viewBox="0 0 1024 1024">
<path d="m170,87.01c21.52-9.96 45.39-14.01 68.99-14.04 181.67,.03 363.34,.07 545.02-.02 24.68-.34 49.64,4.42 71.97,15.11 37.71,18.22 68.87,50.69 84.13,89.85 7.74,20.06 10.86,41.65 10.89,63.08 .02,180-.04,360.01 .03,540.02 .4,25.33-3.96,51.06-15.01,74-11.7,25.78-31.14,47.42-53.41,64.59-16.9,12.34-36.11,21.83-56.61,26.37-22.88,5.45-46.63,5.05-70,5.06-33.34-.17-66.68,.15-100.02-.09-9.47-.51-19.46-.98-27.66-6.32-8.4-7.47-6.97-19.58-7.4-29.61 .11-45.01 .1-90.01 .09-135.02-.23-27.16-8.67-55.75-29.34-74.44 33.77-3.38 67.86-10.04 98.35-25.5 23.1-10.66 44.07-26.08 60.46-45.59 16.49-20.91 26.34-46.14 33.28-71.61 5.2-21.22 7.22-43.06 8.12-64.84 1.31-27.2-2.94-54.88-14.03-79.86-7.22-17.46-18.66-32.73-30.8-47.05 6.04-15.63 9.3-32.32 9.02-49.09 .88-23.56-5.69-46.55-14.1-68.31-23.22-3.33-45.04,6.62-65.82,15.49-16.94,7.28-32.81,16.69-48.16,26.84-2.74,1.5-5.64,4.03-8.97,3.09-68.66-18.14-142.19-19.41-210.87-.75-2.26,.34-4.76,1.44-6.95,.37-10.02-5.43-19.09-12.45-29.25-17.65-17.61-9.19-36.04-16.78-54.8-23.29-11.35-3.9-23.4-4.81-35.31-4.23-11.34,26.08-16.11,55.06-13.71,83.4 1.42,11.68 4.84,23 8.77,34.05-18.82,21.1-33.49,46.29-39.9,73.97-7.27,30.4-6.12,62.2-1.91,92.98 5.16,32.59 15.95,64.82 34.88,92.07 16.62,23.56 41.21,39.99 67.04,51.95 29.48,14.14 62.06,19.87 94.32,23.35-5.82,6.65-11.75,13.33-15.85,21.23-6.52,11.8-9.53,25.14-11.87,38.31-16.05,6.74-33.21,10.5-50.64,10.91-22.58,2.49-44.61-8.93-59.79-24.98-12.86-12.92-19.18-30.9-32.85-43.14-16.81-15.87-39.68-28.15-63.53-24.03-3.62,.72-9.09,3.51-7.47,8.01 5.75,14.24 21.42,18.41 31.62,28.41 9.59,9.33 17.24,20.48 23.9,32.04 6.75,11.53 9.95,24.75 16.84,36.2 12.75,21.12 36,34.63 60.16,38 12.95,2.03 26.04,3.17 39.15,3.54 14.1,.58 28.05-1.99 41.96-3.98-.12,33.37 .41,66.76-.14,100.14 .38,10.1-6.43,20.74-16.46,23.25-31.34,3.25-62.92,1.18-94.36,1.75-29.11-.62-58.62,2.06-87.4-3.52-27.8-5.06-53.79-18.5-74.76-37.33-21.6-18.66-38.78-42.78-48.11-69.84-6.83-19.29-8.82-39.96-8.77-60.31 .08-170 .02-340 .03-510 .2-22.56-1.39-45.43 3.43-67.65 10.43-50.46 47.22-93.73 93.58-115.34Z"/>
<path d="m228.31,694.87c3.91,1.15 12.02,1.92 11.65,7.87-2.29,3.32-6.75,3.69-9.66,.95-3.33-1.78-2.33-5.82-1.99-8.82Z"/>
<path d="m247.3,711.07c6.61-2.87 15.91,7.71 8.98,12.27-6.29,3.36-15.46-7.67-8.98-12.27Z"/>
<path d="m265.38,733.24c5.57-1.77 8.92,3.57 10.65,7.77 1.93,2.45 .17,5.54-1.73,7.32-7.89,4.91-17.01-10.82-8.92-15.09Z"/>
<path d="m281.22,763.92c2.71-3.03 5.4-7.8 10.47-5.61 4.43,2.35 9.36,6.58 8.08,12.31-1.68,2.38-4.81,5.24-7.88,3.58-4.56-2.24-7.68-6.34-10.67-10.28Z"/>
<path d="m316.36,777.25c4.3-.71 9.04,.1 12.43,2.96 4.19,2.7 .25,8.1-.4,11.84-6.1-.84-11.73-3.34-17.19-6.04 1.35-3.01 1.79-7.28 5.16-8.76Z"/>
<path d="m391.79,778.16c4.52-.25 10.67,4.04 7.54,9.14-3.95,4.96-16.44,8.55-17.68-.14-1.37-5.86 4.98-9.31 10.14-9Z"/>
<path d="m353.42,783.42c4.23-.6 11.88-1.78 13.2,3.94 2.39,5.82-4.97,9.48-9.62,8.66-3.29,.59-7.94-.62-8.66-4.38-1.98-4.05 1.5-7.57 5.08-8.22Z"/>
</svg>
