<svg width="1280" xmlns="http://www.w3.org/2000/svg" height="1280" viewBox="0 0 1024 1024">
<path d="m437.68,89.64c34.07-6.04 68.79-6.42 103.29-5.39 75.68,4.55 150.08,29.45 213.04,71.74 95.67,62.48 165.09,164.1 187.86,276.13 16.26,82.35 11.03,169.57-19.68,248.02-21.99,57.65-57.5,109.54-100.41,153.64-46.46,46.82-103.99,82.53-166.48,103.59-6.17,1.8-12.95,3.98-19.3,1.63-9.67-2.15-15.22-12.64-14.8-22.02-.74-43.31 .35-86.64-.42-129.95-.56-26.03-9.63-52.66-28.81-70.89 33.99-3.8 68.43-10.21 99.05-26.1 23.54-11.22 45.48-26.76 61.44-47.6 29.11-39.72 38.68-90.08 39.55-138.43 1.7-44.47-14.07-89.81-45.18-122 5.96-15.61 9.64-32.22 9.26-49 1.02-21.41-4.71-42.37-11.63-62.41-.97-2.16-1.63-5.06-4.1-5.96-17.73-3.46-34.92,3.34-51.25,9.49-21.82,8.69-42.71,19.65-62.04,33.01-5.29,4.17-12.41,1.27-18.18,.03-41.19-10.51-84.02-12.73-126.35-10.81-24.16,1.59-48.09,5.73-71.54,11.69-3.52,.09-7.54,3.03-10.88,.85-9.18-5.42-17.83-11.69-27.22-16.76-14.91-8.14-30.69-14.49-46.49-20.67-13.39-5.01-27.72-8.85-42.12-7.18-4.8,.85-5.09,6.83-6.82,10.35-9.6,29.49-14.43,62.07-5.34,92.33 1.03,4.98 3.66,9.58 4.21,14.66-2.3,4.1-5.88,7.31-8.66,11.07-20.03,24.75-31.91,55.66-34.78,87.3-3.21,39.02 .96,78.92 14.28,115.86 5.31,13.96 11.05,27.94 19.83,40.13 17.18,26.41 44.02,44.82 72.38,57.57 28.71,13.58 60.37,18.42 91.57,22.56-9.3,10.24-17.45,21.85-21.56,35.19-3.1,7.42-3.19,15.69-6.07,23.16-1.47,1.65-3.69,2.34-5.64,3.25-18.87,7.53-39.54,9.24-59.67,8.14-16.03-2.06-30.42-11.01-42.23-21.65-14.59-13.33-20.98-33.11-35.62-46.38-10.05-9.16-21.79-16.65-34.51-21.49-10.82-2.63-23.13-5.49-33.68-.34-3.61,1.71-3.31,6.32-1,8.99 7.26,13.08 22.46,17.31 32.3,27.72 7.33,7.21 12.81,16.02 18.46,24.54 10.99,17.28 14.62,38.79 29.07,53.94 14.04,14.38 33.12,23.58 53.04,26.06 26.15,3.74 53.24,4.98 79.1-1.35 .05,26.71 .09,53.42 .12,80.13 .61,6.25-1.3,12.76-5.74,17.29-6.87,8.15-19.51,7.82-28.63,4.07-62.52-21.05-120.09-56.67-166.5-103.6-57.56-58.08-100.36-131.62-118.29-211.7-17.18-78.49-14.72-161.8 10.92-238.19 32.32-97.24 99.6-182.55 187.23-235.82 47.39-29.38 100.5-49.7 155.62-58.44Z"/>
</svg>
