<svg width="1280" xmlns="http://www.w3.org/2000/svg" height="1280" viewBox="0 0 1024 1024">
<path d="m490.45,73.48c77.05-4.06 155.31,12.31 223.56,48.49 68.92,35.62 128.31,89.77 169.33,155.69 23.4,36.81 41.34,77.14 52.66,119.28 20.21,77.94 19.99,161.32-2.46,238.76-19.85,66.98-55.8,129.24-104.26,179.58-47.73,50.37-107.88,88.61-173.22,111.79-96.78,32.73-205.06,32.09-300.66-4.54-68.88-26.69-131.28-70.46-179.02-126.9-41.75-49.84-72.89-108.67-89.41-171.61-20.14-80.2-19.04-166.03 6-245.03 29.81-93.33 91.32-176.64 173.05-230.95 38.86-26.71 82.26-46.69 127.64-59.41 31.56-8.69 64.14-13.35 96.79-15.15m-169.94,289.05c-24.22,29.16-27.75,73.69-8.27,106.23 6.82,10.97 15.31,20.76 22.65,31.37 59.87,81.13 119.65,162.33 179.67,243.35 5.74-6.97 11.13-14.21 16.33-21.57 57.77-77.93 115.45-155.91 173.11-233.91 5.52-7.22 11.01-14.5 15.63-22.33 4.54-9.24 7.99-19.1 9.82-29.24 2.16-18.6-.37-37.85-7.88-55.05-12.29-25.71-38.01-44.04-65.88-49.01-15.54-1.27-31.62-.6-46.32,5.04-12.38,5.38-23.66,13.22-33.14,22.81-6.85,6.83-13.34,14.2-21.49,19.54-20.48,12.34-46.61,13.29-68.85,5.37-18.45-6.37-28.7-24.1-43.83-35.21-14.98-11.76-33.92-18.74-53.06-18.07-26.02-1.2-51.55,11.28-68.49,30.68Z"/>
</svg>
