<svg width="1280" xmlns="http://www.w3.org/2000/svg" height="1280" viewBox="0 0 1024 1024">
<path d="m68.21,45.22c14.48-9.01 32.36-8.67 48.78-9.22 263.34-.02 526.68,.04 790.02-.03 16.21,.34 33.59,.45 47.96,9.06 6.4,3.59 13.03,8.78 14.63,16.36 3.39,11.2-1.12,22.79-6.92,32.29-8.84,13.5-20.56,24.75-31.92,36.08-115.22,115.15-230.35,230.39-345.59,345.52-.39,146.23-.08,292.47-.15,438.7 60,.02 120,.08 180.01-.07 18.73-1.3 38.28,13.8 38.9,33.13 3.21,20.36-15.4,40.85-35.89,39.92-170.02,.16-340.05-.11-510.07,.13-16.89,1.16-33.63-11.02-37.56-27.49-6.54-21.46 12.22-45.95 34.61-45.42 61.31-.49 122.64,.01 183.96-.2 .09-138.32-.09-276.65 .09-414.98-.26-7.58 .74-15.28-.41-22.79-4.33-6.48-10.53-11.4-15.9-16.97-112.54-112.46-224.98-225.02-337.53-337.47-12.13-11.81-24.6-24.34-30.36-40.65-2.2-7.83-3.09-16.82 1.09-24.17 2.45-5.31 7.52-8.64 12.25-11.73Z"/>
</svg>
