<svg width="1280" xmlns="http://www.w3.org/2000/svg" height="1280" viewBox="0 0 1024 1024">
<path d="m490.45,73.49c71.81-3.71 144.78,10.04 209.56,41.49 39.48,18.6 76.02,43.36 108.25,72.75 30.63,27.12 56.19,59.59 77.79,94.22 35.48,56.92 57.3,122.22 62.76,189.1 6.67,68.42-3.03,138.41-28.34,202.34-27.72,69.96-73.85,132.42-132.21,179.88-53.28,42.75-116.24,73.84-183.25,87.78-75.3,15.46-154.69,12.7-228.01-11-73.97-23.93-141.3-68-193.11-125.92-44.43-50.34-77.91-110.58-95.58-175.44-23.82-89.53-20.44-186.72 12.97-273.39 32.17-83.64 90-157.58 164.7-207.33 44.86-30.51 95.45-52.72 148.44-64.48 25.02-5.39 50.49-8.64 76.03-10m-34.69,86.25c-1.58,2.25-3.85,5.61-1.73,8.2 7.04,7.64 21.45,5.88 25.7,16.51-5.59,2.34-11.73,3.95-16.47,7.85-1.89,4.48 .44,9.51 .25,14.16-.63,.19-1.89,.56-2.52,.75-2.27-5.24-4.4-10.52-6.38-15.87-10.92,.62-21.88,0-32.76,1.31-5.55,.01-12.2,1.55-16.53-2.97-3.27-4.56-1.03-10.57-.46-15.66-3.32-2.59-6.16-5.97-10-7.75-2.16-.1-4.23,.62-6.24,1.27-16.16,5.93-32,12.87-46.88,21.57 10.78-.75 18.92-8.89 29.28-11.02 5.64-1.7 11.61-2.23 17.47-2.06 4.21,3.55 7.23,8.28 10.66,12.55-10.15-.91-20.76-.9-29.37,5.3 1.18,3.82 2.41,7.63 3.31,11.53-8.23-5.5-15.27-14.78-26.08-14.54-11.18-1.68-19.99,5.98-28.91,11.24-43.17,26.12-79.57,62.45-108.23,103.8-2.28,3.93-5.61,7.48-6.84,11.94 2.22,3.06 5.63,5.02 7.9,8.03 1.38,2.79 1.98,5.93 2.99,8.87 2.5-.72 5.02-1.39 7.55-2.02 .37,3.64 .7,7.29 1.05,10.94 13.03,7.81 27.26,15.04 36.48,27.5 .93,4.42-3.01,6.8-5.15,9.86-3.67-2.8-6.79-7.14-11.52-7.94-1.25,6.52 1.63,12.7 3.99,18.55-5.66,15.95-4.87,33.26-3.55,49.91 .66,9.76 5.21,19.02 12.57,25.48 4.66,11.76 11.77,22.96 22.37,30.22 7.43,5.31 16.61,9.78 20.02,18.86 5.33,13.37 12.23,26.04 20.06,38.11 2.13,3.44 .2,7.81 1.63,11.45 4.76,4.2 10.46,7.28 14.95,11.85 3.29,5.15 1.59,13.72 8.69,15.61-.88-26.73-25.08-44.72-29.16-70.54 4.35,1.48 8.53,3.38 12.74,5.23 .69,4.85 .45,10.11 3.07,14.44 8.86,14.74 24.25,24.66 31.5,40.5 2.82,7.2 10.99,9.63 15.42,15.58 10.09,10.39 8.09,26.03 13.51,38.51 5.6,8.25 15.43,11.64 23.82,16.23 8.67,4.11 16.43,9.88 25.16,13.86 9.62,4.83 20.68-.71 30.72-.64 8.77,2.28 12.97,10.93 19.43,16.45 9.04,9.17 22.48,11.43 34.83,11.04 4.45,10.77 10.09,21.4 18.42,29.68 6.34,3.76 11.47,11.58 19.44,11.8 3.54,5.94 8.38,14.91 16.66,12.47 6.2-3.17 5.63-11.43 7.02-17.26-6.5,1.69-13.77,4.07-19.91-.21-8.01-7.16-13.46-17.22-14.27-28 3.23-1.07 6.5-2.06 9.71-3.22-2.33-12.66-7.67-24.67-16.76-33.93-3.34,2.03-6.81,4.77-11.07,3.46-2.84-1.17-5.5-2.63-8.17-4.1-.45,2.17-.92,4.35-1.38,6.53-2.86-.39-5.62-.68-8.44-.99 .86-5.44 1.5-10.92 2.33-16.36 1.23-11.75 10.06-21.02 11.25-32.81-6.25-3.48-14.47-4.29-20.83-.76-7.8,5.43-7.89,15.85-12.79,23.22-3.22,3.05-7.91,4.36-12.29,3.89-8.51-.03-19.02,.01-24.7-7.51-7.42-9.91-13.32-21.93-12.22-34.68-.43-10.51 3.54-20.82 1.83-31.3 .09-3.92-2.65-8.4-.45-12.14 3.95-6.49 10.84-10.12 17.71-12.77-.59-1.55-1.19-3.09-1.8-4.62 10.1-.64 21.04-5.3 30.71-.35 3.46,1.84 7.43,.99 11.18,.86-.74-4.97-1.58-9.9-2.28-14.86 1.76,2.81 3.49,5.65 5.23,8.49 4.26-.87 8.37-2.46 12.64-3.26 9.6,1.34 19.73,3.65 26.51,11.19 2.41-1.41 4.77-2.88 7.11-4.41 7.44,11.35 8.15,25.69 15.8,36.89 2.22,3.27 6.57,2.7 10,2.89 .95-13.13-1.26-26.2-1.65-39.3-3.75-2.45-9.09-3.72-10.67-8.36-2.29-5.47 1.17-11.24 4.76-15.25 7.26-8.68 19.87-9.23 27.56-17.41 6.73-6.19 5.87-16.77 12.65-22.9-2.81-1.91-5.67-3.81-8.47-5.69-.14-7.9 3.21-14.92 7.29-21.43 2.07,1.23 4.08,2.68 6.43,3.35 2.69-.15 5.22-1.41 7.83-2.07 .18-3.39-.07-6.83 .61-10.17 2.74-3.39 7.49-4.07 11.31-5.6 4.93-1.43 9.52-3.73 14.26-5.68 .6-4.76 1.22-9.51 1.86-14.26 8.16-4.52 16.73-8.26 24.69-13.14 6.26-4.26 14.58-4.2 20.01-9.95 2.51-3.88-.45-8.38-2.63-11.65-1.6-4.53-6.01-6.35-10.09-7.82 3.77-.78 8-.06 11.65-1.62 1.62-1.49 2.28-3.71 3.31-5.6-6.66-3.7-14.7-5.23-21.94-1.94-9.16,2.68-15.14,10.3-22.2,16.13 2.92-6.11 4.86-13.63 11.19-17.19 11.75-8.15 26.46-9.28 40.12-11.71 9.05-1.74 18.24-.02 25.27,5.99 4.49-5.12 9.38-10.02 15.31-13.46 5.33-2.21 10.96-3.71 16.38-5.71 .28-4.17 .62-8.32 .81-12.48-2.96-1.15-6.13-2.04-8.67-4.03-3.39-2.84-3.74-7.74-5.12-11.61-.82,.79-1.63,1.59-2.43,2.39-1.2-1.51-2.44-2.97-3.69-4.42-5.49,1.06-11.62,3.04-16.71-.34-8.34-4.51-7.46-15.78-12.23-22.77-4.53-5.29-9.15-10.55-12.44-16.72-1.26-1.89-2.58-5.1-5.46-4.07-4.17,2.62-6.59,7.33-10.57,10.12-5.52,1.83-10.87,4.08-16.22,6.34-2.03-5.3-7.99-6.53-12.97-7.24 1.17-1.65 2.33-3.31 3.47-4.99-2.36-5.36-3.38-12.1-9.02-15.13-12.85-7.4-27.17-12.46-41.92-14.13-4.54,.4-12.22-2.06-14.09,3.84-1.92,6.72 3.97,13.01 3.6,19.67-1.73,5.21-5.19,9.66-7.1,14.82 5.58,4.76 13.92,8.36 14.68,16.53-2.13,10.11-14.65,12.34-19.72,20.36-3.04,7.54 3.55,14.46 6.64,20.68-2.89,4.57-8.21,7.05-13.12,8.78-6.93,.71-11.05-6.64-13.74-11.8-4.39-8.12-4.15-19.88-13.29-24.78-4.74-2.71-10.33-1.45-15.36-.32-14.23-14.1-35.34-18.74-54.78-16.49-.65-7.14-4.25-14.73-11.91-16.37 2.1-8.62 1.12-18.29 6.48-25.83 4.29-6.35 9.4-12.13 13.22-18.8 9.59-1.01 21.16,.45 28.14-7.75 6.56-6.63 7.65-18.51 17.51-21.61 8.55-.62 15.38,8.09 23.93,5.05 6.32-3.34 3.48-11.43 .99-16.52 1.09-1.16 2.16-2.33 3.23-3.51-1.96-5.39-4.9-11.95-11.31-12.81-3.81,1.07-10.27,.49-11.69,5.27-2.52,8.31-8.19,15.68-15.6,20.19-3.26,.94-6.09-2.18-7.37-4.87-2.42-5.31-4.9-10.61-7.92-15.62-2.91,2.3-5.8,4.62-8.55,7.11-5.5-5.33-12.41-9.03-19.92-10.52 1.55-2.54 3.19-5.21 2.78-8.39-4.61-6.18-12.24-10.16-20.01-10.11-4.01-.04-9.27-.29-11.92,3.44m178.55,549.55c-7.49,5.01-15.18,9.92-21.7,16.21-2.47,3.87-4.15,8.19-5.95,12.41-4.06-1.73-8.14-3.38-12.24-4.99 1.77,14.13 2.63,28.38 5.2,42.42 .52,7.24 1.25,15.57-3.89,21.45-7.06,10-19.77,17.06-20.46,30.52-.72,5.43 3.38,9.6 7.57,12.32-1.82,5.59-4.91,10.63-7.21,16.02-2.35,5.17-1.02,10.95-.94,16.41 9.44-2 18.91-3.88 28.28-6.2 65.93-16.26 126.88-52.22 172.68-102.38-8.67-2.93-17.81-4.6-25.99-8.87-2.08-3.64-3.13-8.01-6.24-10.99-4.91-3.92-10.38-6.99-15.41-10.7-4.82-3.47-9.38-7.83-15.14-9.65-6.58-.28-12.89,2.45-18.24,6.05-11.23-7.03-22.89-13.42-34.95-18.87-11.02-2.13-13.3,12.3-15.13,19.85 .4-4.56 .99-9.1 2.28-13.48 .56-2.44 1.54-5.28-.1-7.51-2.55-4.47-8.74-1.86-12.42-.02Z"/>
</svg>
