<svg width="1280" xmlns="http://www.w3.org/2000/svg" height="1280" viewBox="0 0 1024 1024">
<path d="m181.29,82.34c21.02-7.55 43.57-8.96 65.7-9.34 176.67-.01 353.34,.03 530.01-.02 20.69,0 41.65,1.8 61.33,8.56 18.69,5.8 35.78,15.91 50.93,28.18 17.7,14.83 33.37,32.51 43.76,53.27 10.9,20.05 16.21,42.78 17.44,65.47 1.09,21.48 .4,43 .5,64.5-48.88-.09-97.77,.4-146.64-.24-.79-48.56-.04-97.13-.36-145.69-24.32-.07-48.63-.08-72.94-.01-.1,48.65 .07,97.3-.05,145.95-48.65,.12-97.3-.06-145.94,.06-.07,24.32-.08,48.63-.01,72.95 48.65,.1 97.3-.07 145.95,.05 .12,48.65-.06,97.29 .06,145.94 24.31,.06 48.63,.07 72.95,.01 .1-48.65-.07-97.3 .05-145.95 48.98-.06 97.97-.06 146.95,0-.01,139.99 .11,279.99-.06,419.99 .2,26.76-6.1,53.56-18.63,77.24-21.68,39.04-58.43,70.56-101.95,82.13-16.42,4.2-33.42,5.78-50.34,5.65-87.04-.14-174.09,.08-261.13-.11 34.33-64.27 28.8-148.68-16.54-206.24-26.85-31.18-58.01-58.42-90.7-83.31-15.36-12.3-30.16-26.62-38.03-45.01-6.99-17.59-2.9-37.94 7.41-53.37 13.22-20.33 32-36 49.26-52.73 11.93-12.4 25.41-23.62 34.68-38.3 19.62-29.17 30.73-63.85 32.05-98.96 2.6-33.8-3.71-67.79-15.58-99.38-9.51-24.12-22.82-47.31-42.23-64.83-9.41-7.92-21.99-13.26-26.62-25.6 23.48-.53 46.98,.01 70.47-.13 3.8,.43 7.56-.46 10.94-2.12 23.73-11.35 47.56-22.51 71.38-33.68-81.79-.64-163.58-.07-245.36-.29-48.19-1.26-96.91,5.29-142.41,21.51-41.28,14.5-77.04,42.11-104.5,75.88-.6-36.17 9.86-72.78 30.98-102.31 18.82-27.12 45.71-49.22 77.22-59.72Z"/>
<path d="m227.45,188.57c17.91-2.14 36.22,.28 52.96,6.94 32.34,13.55 57.59,40.74 73.55,71.51 21.23,41.9 34.33,88.03 37.24,134.96 2.06,25.56-.07,51.68-8.07,76.13-7.23,19.68-17.79,39.56-36.14,50.91-21.76,14.65-49.29,16.5-74.69,14.65-33.18-4.69-62.85-24.59-83.74-50.24-37.41-48.5-59.73-109.02-60.61-170.42-.78-27.94 5.8-56.19 19.45-80.63 10.11-17.75 24.24-33.91 42.64-43.31 11.45-6.35 24.52-9.07 37.41-10.5Z"/>
<path d="m73.1,511.82c6.33,6.02 12.35,12.36 18.72,18.35 27.19,24.33 61.82,39.95 97.86,45.18 26.18,4.09 52.93,3.41 79.21,.6-6.03,18.9-13.46,38.29-11.5,58.53 3.66,28.14 18.7,53.21 35.56,75.42-75.25,2.1-152.04,14.18-219.84,48.38-.2-82.15-.16-164.3-.01-246.46Z"/>
<path d="m280.68,744.58c15.28-.56 30.79-1.74 45.93,1.03 3.63,1.81 7.09,4.01 10.42,6.35 26.86,18.79 54.28,37.2 77.77,60.24 14.05,13.05 24.64,29.33 34.18,45.83 12.55,29.03 14.84,62.51 5.87,92.89-73.29,.16-146.58,.07-219.87,.06-62.76,.08-123.6-40.14-147.82-98.1-2.58-6.57-6.42-13.2-5.65-20.45 21.86-38.92 63.51-62.13 105.48-73.48 30.43-8.93 62.07-12.92 93.69-14.37Z"/>
</svg>
