<svg width="1280" xmlns="http://www.w3.org/2000/svg" height="1280" viewBox="0 0 1024 1024">
<path d="m308.86,43.77c35.02-6.24 70.65-7.47 106.14-7.82 75.81,.29 151.62-.33 227.42,.31-21.09,14-43.68,25.62-65.18,38.98-5.09,2.85-10.01,7.01-16.26,6.55-23.69,.72-47.41-.11-71.1,.24 16.16,10.8 31.17,23.7 42.53,39.59 28.83,38.62 42.96,87.38 41.66,135.39-.17,38.58-12.25,77.04-34.5,108.6-10.71,14.43-24.26,26.37-36.88,39.07-16.97,15.34-34.44,30.75-46.64,50.35-6.48,9.72-9.51,21.42-9.9,33.01-.36,12.04 5.11,23.3 11.91,32.9 7.08,10.38 16.1,19.26 25.69,27.31 17.72,15.36 36.77,29.1 54.24,44.76 20.94,19.5 41.73,39.88 55.93,65.02 31.39,56.61 31.64,129.37 .1,185.98-30.34,54.62-81.86,96.15-140.12,117.88-38.24,14.8-79.07,21.7-119.85,24.37-31.16,1.57-62.58,2-93.52-2.68-37.25-5.17-73.73-16.07-107.52-32.6-20.76-10.48-40.66-23.3-56.63-40.35-15.7-17.33-27.89-38.02-34.42-60.52-6.66-25.46-7.45-52.83-.09-78.22 7.18-24.19 17.6-47.78 33.43-67.6 16.31-21.57 38.57-37.72 61.64-51.37 26.62-15.29 56.03-24.96 85.68-32.39 47.82-12.89 97.25-18.89 146.67-20.79-13.06-18.1-25.86-37.08-32.13-58.75-4.56-15.92-6.16-33.44-.49-49.29 2.66-8.68 6.74-16.88 8.76-25.76-29.26,2.35-59.18,4.52-88.01-2.4-36.5-7.55-70.57-25.78-97.75-51.2-24.16-21.6-42.64-49.63-52.21-80.65-16.95-57-8.95-121.11 22.62-171.63 15.26-23.99 33.9-46.03 56.2-63.77 34.68-28.9 78.08-46.26 122.58-52.52m-8.42,34.79c-10.45,1.37-20.96,3.71-30.46,8.42-22.05,10.04-38.69,29.45-49.05,50.99-11.02,21.52-16.45,45.86-16.05,70.02-.8,39.97 8.75,79.7 24.99,116.08 11.62,25.52 26.2,50.07 45.5,70.57 15.99,15.36 34.88,28.37 56.31,34.78 15.78,5.52 32.87,5.24 49.3,3.67 17.49-1.62 34.63-7.77 48.61-18.51 18.75-15.74 29.2-39.18 34.47-62.63 5.33-21.73 4.28-44.39 3.43-66.55-3.31-34.65-11.64-68.86-24.76-101.11-9.06-22.96-20.33-45.5-37.21-63.78-15.36-16.78-34.31-31.01-56.21-37.89-15.59-5.66-32.56-5.28-48.87-4.06m58.02,556c-28.08,1.22-56.22,4.29-83.43,11.54-29.97,7.65-59.58,18.81-84.64,37.31-13.1,10.23-24.26,23.07-32.33,37.62-19.21,33.19-20.75,75.23-6.59,110.58 7.28,17.05 18.15,32.56 31.72,45.2 19.38,19.23 44.73,30.55 69.9,40.14 33.6,11.91 69.24,18.36 104.92,18.05 33.22-.73 66.87-5.35 97.71-18.26 21.64-9.21 43.2-21.3 57.14-40.85 12.28-15.61 19.98-34.6 22.86-54.2 3.76-23.55-.37-47.77-8.43-70-6.66-13.65-15.59-26.12-24.82-38.12-26.12-28.79-58.75-50.44-90.22-72.84-4.38-2.71-8.57-6.56-14.16-5.95-13.17-1.29-26.44-.9-39.63-.22Z"/>
<path d="m768.03,36.02c24.31-.05 48.63-.07 72.95,.01 .1,48.98-.07,97.97 .05,146.95 48.64,.1 97.29-.07 145.94,.05 .06,24.32 .07,48.63 0,72.95-48.65,.1-97.29-.07-145.94,.05-.13,48.65 .07,97.29-.06,145.94-24.32,.07-48.64,.08-72.95,0-.1-48.64 .07-97.29-.05-145.94-48.89-.29-97.77,.4-146.65-.32-.66-24.22-.25-48.46-.29-72.69 48.98-.1 97.97,.07 146.95-.05 .1-48.98-.07-97.97 .05-146.95Z"/>
</svg>
