<svg width="1280" xmlns="http://www.w3.org/2000/svg" height="1280" viewBox="0 0 1024 1024">
<path d="m224.4,73.48c3.65-.13 10.94-.39 14.59-.52 181.67,.06 363.34,.07 545.02,0 26.94-.52 54.11,5.46 77.98,18.07 29.82,16.18 54.95,41.03 70.96,70.98 13.21,24.77 18.07,53.12 18.03,80.98 .02,181.67 .06,363.35-.02,545.02-.1,30.21-8.89,60.29-25.18,85.75-25.22,38.28-65.66,67.88-111.63,74.47-15.93,2.24-32.1,2.2-48.15,2.79-158.33-.04-316.67-.01-475-.02-23.9-.09-47.84,.57-71.7-1.33-31.56-3.19-62.21-15.95-86.27-36.71-13.59-12.11-26.58-25.28-36.04-40.96-16.66-25.67-23.96-56.59-23.98-86.99-.05-181.67 .06-363.34-.06-545.02-.33-25.42 4.47-51.23 16.03-74 25.26-51.21 77.73-89.42 135.42-92.51m20.48,147.4c-14.98,4.98-26.45,20.12-25.73,36.15-.41,166.65 .06,333.32-.23,499.98 .14,10.33-.06,21.94 6.42,30.66 6.33,9.34 17.06,16.5 28.65,16.22 25.01,.29 50.03,.16 75.05,.07 20.15,.81 38.68-18.71 36.01-38.94-.06-60-.08-120-.03-180 97.65-.04 195.3-.03 292.96,0 .03,57.66 .07,115.33-.06,172.99 .19,7.3-.16,14.86 2.17,21.9 3.68,9.2 10.75,17.08 19.91,21.07 7.01,3.89 15.3,2.77 22.99,3.11 21.68-.25 43.36,.15 65.05-.13 19.44,.81 37.47-17.44 36.05-36.93-.23-170.02-.01-340.04-.1-510.06 2.28-20.81-17.89-38.75-37.97-37.89-24.86,.01-49.76-.7-74.58,.45-17.52,1.07-32.69,16.95-33.37,34.44-.23,61.66 .05,123.33-.09,185-97.56-.14-195.14,.44-292.7-.29-.71-60.57-.03-121.14-.29-181.71 2.05-18.96-14.64-36.42-33.15-37.63-18.27-.92-36.56-.08-54.84-.4-10.7,.22-21.64-.69-32.12,1.94Z"/>
</svg>
