<svg width="1280" xmlns="http://www.w3.org/2000/svg" height="1280" viewBox="0 0 1024 1024">
<path d="m397.36,7.35c3.56-2.76 8.41-1.91 12.6-2.36 143.36,.07 286.73-.1 430.09,.08 8.66,2.79 15.02,10.27 21.13,16.75 11.61,13.23 16.53,30.88 16.62,48.21 .5,53.32 .06,106.66 .16,159.98 .09,8.98 .37,18.04 2.26,26.86 8.38,39.44 21.81,77.52 35.38,115.41 15.71,44.61 28.43,90.57 33.35,137.72 3.63,30.53 2.21,61.78-5.39,91.63-6.56,24.33-17.46,47.78-33.9,67.05-15.35,19.4-36.51,33.64-59.43,42.62-22.59,8.76-47.07,10.51-71.01,11.13-10.9,6.72-21.07,14.86-33.02,19.79-18.62,8.33-38.78,13.24-59.2,13.77-11.27,.93-22.54-.71-33.8-.34-7.46,2.32-14.16,6.47-21.5,9.1-14.91,6.07-30.84,8.78-46.63,11.46-.19,31.59-.04,63.19-.02,94.79 .6,25.02-5.98,50.09-18.13,71.92-23.08,39.55-64.15,69.87-110.37,74.5-31.14,4.51-63.68-2.15-90.63-18.32-35.65-21.99-63.98-58.09-71.13-99.95-3.36-22.21-2.8-44.77-2.8-67.15 .02-57.63 0-115.25 .02-172.88-28.17,11.17-59.02,13.2-89.01,11.79-24.71-1.87-49.07-10.1-69.17-24.75-22-16.29-38.02-39.76-47.98-65.05-8.72-21.59-11.86-44.99-12.83-68.1-1.44-21.1 5.15-42.9 19.06-58.96 11.81-14.84 28.15-24.97 43.98-34.98 10.56-6.77 22.03-11.91 32.99-17.98 20.6-11.11 42.56-19.82 61.95-33.09 21.92-14.68 42.17-31.67 62.18-48.82 24.44-20.36 49.34-41.25 66.69-68.27 6.51-9.27 5.82-21.16 6.17-31.9-.04-51.68-.06-103.36-.06-155.03-.04-22.71 13.31-43.65 31.38-56.63m365.06,61.11c-13.78,1.63-25.16,12.64-29.6,25.42-4.95,15.05 1.82,32.76 15.29,40.97 13.59,10.16 34.34,7.28 45.69-5.05 12.74-11.62 13.87-32.77 3.84-46.44-8.19-10.48-21.73-17.54-35.22-14.9m-323.26,145.57c-.1,12.36-.18,24.77-2,37.03-3.43,20.53-12.98,39.85-26.41,55.69-23.33,28.62-52.19,51.93-79.81,76.19-33.53,28.9-69.73,55.12-109.78,74.25-12.62,5.78-24.99,12.1-37.04,18.99-11.26,6.47-23.12,12.3-32.7,21.24-2.65,2.57-5.02,5.81-5.35,9.6 .08,24.8 5.16,51.03 21.22,70.7 12.77,15.09 33.39,21.57 52.72,20.39 24.8,.42 48.87-7.49 70.97-18.15 24.63-12.61 46.08-33.55 74.65-36.83 .86,110.29 .14,220.6 .35,330.9-.59,15.76 6.38,30.85 16.01,42.97 13.1,16.01 32.71,28.58 54.01,28.11 39.27,3.17 75.65-32.19 75.94-71.1 .22-63.38-.08-126.77 .11-190.15 6.19,3.91 12.25,8.11 19,11.04 18.29,8.8 39.51,9.82 59.28,6.43 18.4-3.94 35.41-13.93 47.88-28.02 9.7,4.71 20.05,8.33 30.78,9.64 30.49,2.16 64.8-9.04 81.3-36.39 27.54,3.22 57.24,4.2 82.68-8.62 18.61-9.48 31.28-27.71 37.64-47.23 5.5-15.25 6.83-31.62 6.86-47.71-.21-34.1-6.79-67.91-17-100.36-13.05-40.75-26.46-81.37-40.06-121.94-11.42-34.32-17.58-70.45-16.51-106.67-121.58-.05-243.16-.05-364.74,0Z"/>
</svg>
