<svg width="1280" xmlns="http://www.w3.org/2000/svg" height="1280" viewBox="0 0 1024 1024">
<path d="m495.31,73.27c17.71-.93 36.54-.59 52.69,7.71 18.84,9.16 33,25.57 44.04,42.99 16.17,23.91 28.32,50.17 41.1,75.95 17.81,36.23 44.22,67.2 70.22,97.72 16.75,20.13 34.4,39.82 55.27,55.78 8.03,5.72 16.87,12.35 27.34,11.52 40,.28 80.02-.05 120.03,.03 19.38,.19 38.91-.8 58.17,1.9 31.23,4.55 56.05,32.63 59.83,63.53v382.2c-3.79,30.9-28.55,58.92-59.79,63.53-12.64,1.96-25.47,1.78-38.21,1.92-46.67-.07-93.34-.03-140.01-.11-11.98-.48-23.76,1.93-35.33,4.71-36.98,8.8-72.79,21.76-108.55,34.5-48.22,16.47-98.01,29.96-149.08,33-32.19,2.39-64.93-1.73-95.27-12.87-41.31-15.44-77.6-48.01-91.4-90.6-7.93-21.25-9.14-44.07-9.98-66.48-3.49-8.44-9.91-15.29-14.2-23.33-15.43-26.54-20.93-57.95-19.61-88.36 .18-7.48 2.21-15.92-2.37-22.6-10.12-18.77-15.38-39.72-17.47-60.84-31.58-.22-63.16,0-94.74-.02-24.25,.41-48.82-5.03-70-17.05-36.16-20.15-65.02-55.07-74.13-95.87-1.58-7.19-2.86-14.45-3.86-21.75v-23.76c2.55-19.34 7.06-38.77 16.74-55.88 16.95-29.8 43.43-54.52 75.14-67.9 18.32-7.74 38.29-10.88 58.11-10.75 69.94-.22 139.89-.05 209.83-.04-9.5-26.55-13.88-54.96-12.02-83.13 1.09-21.88 6.09-43.99 16.99-63.15 12.81-23.13 33.82-40.93 57.18-52.83 22.57-11.96 48-17.71 73.34-19.67m-53.05,92.99c-11.55,9.51-18.61,23.63-20.59,38.35-4.27,34.05 6.31,68.18 23.5,97.27 12.18,20.17 28.11,39.71 30.53,64.03-110.24,.25-220.49-.04-330.73,.13-25.58-.79-48.88,15.87-61.87,37.03-12.51,19.84-12.89,45.84-2.95,66.81 12.02,24.12 37.41,42.08 64.84,42.05 63.25,.15 126.51,.1 189.77-.02-15.32,22.45-23.02,50.76-17.34,77.71 3.3,18.85 14.3,35.39 27.72,48.66-2.51,6.51-5.2,12.98-7.16,19.69-5.78,22.52-1.16,46.9 10.06,67.01 5.48,10.58 14.51,18.91 24.42,25.32-2.98,18.88-3.23,38.24 .14,57.09 2.99,17.01 10.59,33.7 23.72,45.27 16.56,14.49 38.34,21.81 59.98,24.01 19.75,.93 39.66,.77 59.24-2.25 41.2-5.58 80.23-20.5 119.55-33.28 38.63-12.44 76.67-27.57 116.92-34.09 17.16-2.86 34.61-2.93 51.97-3.18 .04-121.6 .02-243.19 .01-364.79-18.23-.2-37-.2-54.33-6.63-16.89-5.86-31.92-16.05-45.08-28.01-21.31-18.38-39.46-39.97-57.93-61.11-28.82-32.9-56.54-67.31-76.82-106.26-7.8-14.1-13.71-29.16-21.64-43.19-7.26-12.67-13.76-25.84-22.47-37.61-4.26-4.43-8.83-10.7-15.69-10.33-23.74,.56-48.64,5.36-67.77,20.32m468.16,565.24c-18.96,1.62-35.06,20.29-32.34,39.46 .38,14.86 12.46,27.37 25.98,32.04 14.43,3.99 31.42-1.42 39.9-14.03 7.87-10.19 9.01-24.83 3.47-36.34-6.53-13.41-21.82-23.62-37.01-21.13Z"/>
</svg>
