<svg width="1280" xmlns="http://www.w3.org/2000/svg" height="1280" viewBox="0 0 1024 1024">
<path d="m442.72,108.72c14.89-19.04 36.71-33.84 61.34-35.55 34.19-1.04 69.62,4.18 99.93,20.84 21.36,11.13 40.43,27.31 52.95,48.05 13.14,21.33 18.95,46.59 19.61,71.45 .36,26.61-3.35,53.36-12.28,78.49 66.58,.02 133.16-.02 199.74-.01 22.54,.03 45.62,1.52 66.69,10.26 29.97,12.08 55.05,34.63 72.39,61.68 12.14,18.65 18.38,40.59 20.91,62.54v24.06c-2.8,24.62-10.5,49.14-25.08,69.4-15.36,22.22-36.41,40.59-60.9,52.1-19.48,9.52-41.47,12.9-63,12.93-31.21,.27-62.42-.19-93.62,.1-1.76,19.12-6.45,38.09-15.01,55.33-2.44,5.56-6.32,10.84-5.85,17.23 .19,8.74 1.26,17.45 1.22,26.21-1,27.61-8.66,55.19-23.15,78.8-3.27,5.53-7.91,10.34-10.4,16.32-1.74,10.41-1.14,21.09-2.63,31.56-3.53,24.57-11.33,48.97-25.62,69.49-22.82,33.49-59.41,56.65-98.87,65.06-34.65,7.72-70.65,6.82-105.57,1.45-47.31-7.39-93.22-21.62-138.11-37.97-34.71-11.95-69.6-24.56-106.07-29.83-46.75-1.69-93.57-.25-140.34-.69-22.71-.66-46.72,2.72-68.17-6.78-23.05-10.65-39.66-33.61-42.83-58.79v-381.9c2.6-19.31 12.58-37.51 28.04-49.49 12.92-11.1 30.28-15.65 47.03-15.88 51.65-.47 103.31-.06 154.96-.1 8.05-.37 16.85,.51 23.93-4.18 25.52-15.3 45.25-38.18 64.34-60.61 26.16-31 53.55-61.77 71.54-98.49 15.73-32.03 31.19-64.54 52.88-93.08m57.82,45.84c-20.99,26.82-32.71,59.14-49.56,88.44-25.01,45.72-59.63,85.14-94.33,123.66-21.42,23.35-43.33,47.84-72.7,61.26-19.68,9.92-42.2,11.89-63.92,11.2-.05,121.57-.05,243.13 0,364.7 16.36,.25 32.77,.81 48.99,3.06 39.81,5.38 77.28,20.51 115.29,32.72 41.38,13.4 82.32,29.45 125.65,35.44 18.97,2.91 38.27,2.35 57.37,1.31 21.77-1.96 44.1-8.44 60.63-23.39 16.2-14.36 23.93-36 25.77-57.11 .91-15.26 .1-30.58-2.35-45.65 12.15-7.28 21.95-18.17 27.61-31.19 12.51-25.08 12.36-55.84-.36-80.82 8.11-7.95 15.61-16.78 20.47-27.14 16.19-31.34 10.06-70.89-10.01-99.08 58.63,.09 117.27-.06 175.91,.09 9.11-.15 18.34,.06 27.33-1.71 30.86-6.1 55.79-34.18 58.52-65.47 .88-16.89-3.54-34.24-13.96-47.74-13.45-18.03-34.69-31.98-57.86-31.12-110.15-.12-220.3,.11-330.44-.1 1.08-5.63 1.69-11.38 3.43-16.85 9.07-24.09 27.24-43.3 37.06-67.02 7.8-18.03 13.95-37.2 13.99-57.03 .67-15.51-.94-32.1-9.67-45.39-8.3-13.41-22.52-21.8-37.1-26.9-13.3-4.16-27.28-7.1-41.28-6.59-6.4-1.05-10.82,4.17-14.48,8.42m-395.13,576.92c-13.96,1.52-26.2,12.21-30.56,25.41-3.46,10.72-1.74,23.08 5.2,32.07 10.43,15.71 33.89,20.17 49.37,9.49 7.59-5.56 14.1-13.45 16.13-22.8 .8-8.29 1.18-17.39-3.5-24.69-6.61-13.08-22.01-21.64-36.64-19.48Z"/>
</svg>
