<svg width="1280" xmlns="http://www.w3.org/2000/svg" height="1280" viewBox="0 0 1024 1024">
<path d="m377.96,7.91c6.36-3.66 14.01-2.58 21.03-2.99 26.67,.1 53.35,.1 80.03-.01 6.69,.37 13.99-.63 20.04,2.96 39.23,18.87 71.02,54.71 81.73,97.28 2.95,12.38 4.18,25.12 4.2,37.84 .14,31.53-.12,63.05 .06,94.58 16.25,.95 32.29,4.78 47.33,11.01 6.9,2.95 13.4,6.77 20.38,9.53 3.57,.83 7.29-.2 10.92-.32 30.18-3.01 61.24,2.48 88.34,16.18 9.48,4.3 17.47,11.16 26.56,16.17 10.42,1.65 21.02,1.33 31.46,2.82 25.54,3.55 50.87,11.88 71.9,27.12 20.16,14.46 36.93,33.7 48.09,55.9 12.8,23.93 18.35,51.07 20.19,77.96 1.84,20.87-.34,41.79-2.67,62.52-6.12,42.45-17.58,83.98-31.7,124.42-10.12,28.34-20.21,56.74-28.32,85.73-4.92,18.41-10.01,37.14-9.55,56.38-.02,51.67 .07,103.35 .02,155.02 0,13.63-1.42,27.81-8.02,39.99-9.97,20.06-29.37,35.4-51.56,39.29-11.36,1.96-22.95,1.6-34.42,1.76-114.99-.25-229.98,.23-344.97-.23-37.95,1.06-73.85-32.4-72.99-70.8-.12-53.34-.04-106.69 .03-160.03 .18-8.2-1.08-16.7-5.25-23.87-13.95-22.38-33.45-40.53-53.18-57.75-33.01-27.36-65.01-56.94-103.65-76.35-34.57-17.52-70.63-33.34-100.62-58.42-17.65-15.02-29.48-37.28-30.17-60.63-1.36-37.35 6.99-75.71 27.37-107.36 12.48-19.44 29.42-36.52 50.42-46.6 24.92-12.56 53.52-15.64 81.06-14.28 20.5,.7 40.71,5.28 59.98,12.14-.04-69.96-.05-139.92-.01-209.88-.15-25.32 5.4-50.87 18.05-72.95 15.72-27.35 39.54-50.18 67.89-64.13m19.1,74.17c-18.13,13.26-31.81,34.83-31.03,57.9-.14,110.15 .11,220.32-.11,330.48-7.36-1.47-15.01-2.22-21.83-5.54-16.71-8.02-32.02-18.55-47.77-28.23-23.56-12.06-49.44-21.84-76.33-20.84-13.02-.23-26.49,1.65-37.97,8.17-9.79,5.18-16.99,14.14-22.49,23.56-9.41,17.14-13.42,36.97-13.41,56.41-1.1,5.79 3.65,9.93 7.35,13.55 26.83,21.32 59.52,32.91 88.86,50.1 43.64,23.44 81.36,56.05 118.11,88.89 14.41,12.55 27.95,26.05 41.25,39.77 11.6,12.63 21.56,26.96 28.15,42.86 8.29,18.71 10.05,39.58 9.26,59.82 121.6,.04 243.2,.02 364.81,.01 .2-18.43 .86-36.92 3.87-55.13 5.82-36.34 19.36-70.72 30.62-105.57 15.16-46.85 33.82-93.33 38.19-142.82 1.75-23.44 1.27-47.42-4.99-70.21-4.65-14.37-11.52-28.65-22.98-38.84-10.59-9.73-24.08-15.76-37.96-19.04-19.79-4.46-40.25-2.19-60.23-.29-4.86-7.14-10.22-14.18-17.4-19.16-26.69-19.44-64.69-24.06-93.98-7.7-7.5-6.7-15.03-13.49-23.8-18.49-14.28-8.03-30.75-12.58-47.2-11.46-20.01,1.06-40.08,7.31-56.07,19.65 .07-58.64-.06-117.29 .08-175.93-.04-12.61-.07-25.63-4.42-37.65-5.69-15.4-16.96-28.47-30.67-37.33-23.75-15.66-57.52-14.72-79.91,3.06m362.38,791.47c-17.42,3.6-30.71,22.14-27.86,39.84 1.87,17.91 19.07,33.56 37.43,31.71 12.87,.2 25.08-7.85 31-19.1 7.87-13.94 4.57-33.02-7.42-43.58-8.63-8.44-21.47-11.2-33.15-8.87Z"/>
</svg>
