<svg width="1280" xmlns="http://www.w3.org/2000/svg" height="1280" viewBox="0 0 1024 1024">
<path d="m278.44,146.57c6.51-.45 13.03-.66 19.56-.63 146.67,.17 293.34-.03 440.02,.1 39.95,.75 78.1,28.46 90.35,66.65 34.34,104.45 67.97,209.13 102.11,313.64 8.08,27.14 20.22,53.84 20.43,82.65 .26,56.67-.03,113.35 .13,170.03 .18,12.97-1.58,26.02-5.65,38.36-11.41,30.32-39.46,54.91-72.05,58.91-11.41,1.17-22.88,1.65-34.34,1.74-218.33-.03-436.67-.03-655,0-10.35-.04-20.69-.29-31-1.06-42.43-4.7-78.87-43.03-79.72-86-.73-54.98 0-109.98-.33-164.96 .08-11.96-.47-24 1.29-35.87 2.74-14.61 7.4-28.78 12.15-42.84 36.24-111.39 72.28-222.84 108.7-334.18 11.4-36.07 45.78-63.18 83.35-66.54m-5.72,78.14c-9.44,8.05-11.08,21.18-14.96,32.25-27.79,84.96-55.35,170-83.07,254.98 224.74,.15 449.49-.01 674.24,.08-29.36-90.83-59.23-181.51-88.51-272.36-2.11-5.88-4.8-12.3-10.45-15.61-7.24-5.99-17.28-4.69-25.96-5.11-143.34,.14-286.69,.01-430.04,.07-7.48-.31-15.37,.59-21.25,5.7m-112.3,360.83c-8.58,1.7-15.19,10.71-14.25,19.49-.51,54.98 .1,109.98-.27,164.97 .14,7.02-.24,14.15 .97,21.11 2.45,9.29 12.78,14.75 22.1,12.92 230.02-.1 460.05,.05 690.07-.07 5.88,.74 11.3-2.69 14.66-7.23 4.98-5.25 2.6-13.28 3.4-19.72-.36-58.33 .21-116.67-.26-175 .93-11.26-11.76-18.41-21.81-17.08-228.35,.16-456.71,.04-685.06,.06-2.39,.13-7.16,.41-9.55,.55Z"/>
<path d="m615.41,649.49c25.19-4.76 51.55,16.88 51.73,42.5 .11,8.88-.7,18.61-6.16,26.01-7.94,12.58-21.53,22.51-36.97,22.12-17.94,1.89-35.28-9.12-43.31-24.81-9.75-18.63-4.2-43.39 12.39-56.24 6.58-4.8 13.99-9.07 22.32-9.58Z"/>
<path d="m761.41,649.52c15.43-2.99 31.31,4.1 41.35,15.72 12.94,14.78 14.47,38.59 3.2,54.72-7.83,11.95-21.46,20.22-35.95,20.16-18.17,1.94-35.65-9.58-43.52-25.56-5.27-12.04-6.5-26.56-.39-38.53 6.33-13.98 19.92-24.76 35.31-26.51Z"/>
</svg>
