<svg width="1280" xmlns="http://www.w3.org/2000/svg" height="1280" viewBox="0 0 1024 1024">
<path d="m398.89,122.85c59.12-13.47 120.67-16.65 180.8-8.54 77.2,11.06 151.68,40.16 216.33,83.71 54.78,37.78 101.82,87.15 134.95,145.01 24.41,41.43 42.28,86.92 50.51,134.4 10.29,62.24 6.36,126.6-9.54,187.56-7.32,29.58-18.67,57.98-30.9,85.83-35.17,5.8-70.29,12-105.3,18.73-12.46,49.62-53.46,90.31-102.73,103.43-12.31,3.43-25.11,4.44-37.8,5.26-.84,9.17 1.57,19.34-3.24,27.75-2.88,4.86-8.19,8.18-13.92,8.21-12.79,1.3-25.74,1.2-38.55,.42-6.93-.1-13.81-4.09-16.48-10.59-2.14-7.47-1.83-15.35-2.06-23.02 .04-101.67 .12-203.35-.04-305.02-.05-7.93 .3-16.77 6.22-22.84 3.41-2.48 7.49-4.39 11.86-3.97 13.34-.51 26.7-.48 40.04-.14 4.58,.14 8.64,3.01 11.77,6.15 5.96,8.68 3.49,19.82 4.49,29.67 14.14,.99 28.47,2.23 42.01,6.73 35.66,10.94 66.52,36.1 84.83,68.57 12.5-2.19 25.11-3.86 37.49-6.67 1.72-1.46 2.39-3.72 3.12-5.77 9.75-35 15.08-71.35 14.35-107.72 .66-59.15-21.3-116.94-55.54-164.59-68.97-95.94-185.72-154.58-303.56-155.47-93.24-2.8-186.16,31.95-257.2,91.85-30.94,25.74-56.65,57.42-76.94,92.11-17,30.16-29.52,63.16-34.31,97.56-7.78,48.9-1.73,99.06 11.46,146.48 .82,1.93 1.26,4.58 3.44,5.44 12.29,2.84 24.84,4.4 37.23,6.71 20.73-36.3 57.06-64.19 98.44-71.95 9.47-1.84 19.16-2.07 28.73-3.15 1.19-9.9-3.23-22.36 4.84-30.28 2.16-2.7 5.22-4.82 8.73-5.16 14.81-1.1 29.72-.88 44.56-.33 6.75,.5 13.01,5.72 14.33,12.43 .56,5.09 .82,10.2 .78,15.34-.21,106.68-.03,213.37-.08,320.05-.01,4.28-1.86,8.31-4.15,11.85-6.31,6.26-15.71,5.67-23.84,6.14-10.88-.13-22.01,1.1-32.71-1.4-5.73-1.95-11-6.82-11.72-13.05-.76-7.44-.67-14.9-.7-22.34-24.57-.36-49.28-6.17-70.69-18.42-19.67-11.54-37.47-26.77-50.07-45.91-9.69-13.38-15.56-28.99-20.51-44.61-35.16-5.98-70.2-12.63-105.36-18.58-11.42-27.73-22.99-55.54-30.28-84.7-12.77-49.06-17.24-100.14-14.62-150.71 3.31-44.99 14.96-89.28 33.68-130.3 23.68-52.96 58.03-100.96 99.78-141.18 63.46-59.7 143.55-100.73 228.07-120.98Z"/>
</svg>
