<svg width="1280" xmlns="http://www.w3.org/2000/svg" height="1280" viewBox="0 0 1024 1024">
<path d="m127.98,103.96c44.57-22.79 95.33-31.33 145.04-30.99 29.94,.04 59.6,6.6 87.33,17.69 28.73,10.83 54.79,27.53 79.59,45.41 25.53,18.02 49.98,37.75 71.75,60.22 27.27-26.31 56.58-50.53 88.34-71.26 33.76-23.87 72.46-41.02 113.14-48.78 19.83-3.93 40.18-3.73 60.29-2.79 44.38,2.68 89.3,11.83 128.44,33.67 50.5,27.2 89.17,74.72 106.72,129.2 9.15,27.17 13.35,55.66 15.38,84.17v35.02c-2.76,30.41-9.73,60.55-21.83,88.64-18.67,44.77-46.84,84.95-78.86,121.15-22.92,26.69-49.17,50.18-74.29,74.72-104.29,100.37-208.45,200.88-312.81,301.19-9.1,8.99-23.22,11.38-35.25,7.88-11.48-4.15-19.16-14.18-27.93-22.12-114.2-110.15-228.38-220.31-342.55-330.48-12.72-11.61-24.77-23.99-35.56-37.42-20.6-24.89-39.9-50.97-55.83-79.12-11.76-21.57-20.5-44.63-27.94-67.99-5.99-18.66-8.7-38.14-11.15-57.52v-33.8c2.23-20.64 3.89-41.47 9-61.66 8.58-37.9 26.32-73.77 51.91-103.09 19.1-21.02 41.62-39.17 67.07-51.94Z"/>
</svg>
