<svg width="1280" xmlns="http://www.w3.org/2000/svg" height="1280" viewBox="0 0 1024 1024">
<path d="m213.15,77.17c28.77-4.08 58.09-5.95 87.02-2.41 44.66,5.93 87.06,24.54 123.81,50.27 25.89,17.29 50.84,36.11 73.6,57.4 4.58,4.36 8.85,9.07 13.88,12.93 1.86,.52 2.95-1.8 4.32-2.52 32.44-32.33 69.66-59.51 108.62-83.42 25.63-14.56 53.4-25.62 82.24-31.85 26.51-6.08 54-5.32 80.93-3.06 31.96,3.11 63.96,9.48 93.48,22.44 29.26,12.46 56.14,30.84 77.62,54.36 23.4,24.66 40.43,55.03 50.71,87.36 8.66,26.46 12.62,54.13 14.62,81.82v35.03c-2.76,30.42-9.73,60.55-21.83,88.64-18.67,44.77-46.84,84.95-78.87,121.15-22.91,26.69-49.16,50.18-74.28,74.72-103.73,99.93-207.48,199.84-311.25,299.74-7.44,7.91-18.46,11.82-29.24,10.72-10.63-.29-19.16-7.58-26.37-14.64-116.65-112.69-233.5-225.17-350.11-337.9-12.91-11.75-25.25-24.17-36.23-37.77-31.42-38-60.95-78.91-77.07-125.96-10.1-25.54-15.86-52.51-18.75-79.76v-33.98c3.44-42.95 11.41-86.64 32.94-124.49 15.53-28.77 37.79-53.62 64.12-72.92 33.83-25.18 74.72-39.39 116.09-45.9m-37.26,85.68c-28.11,10.84-53.55,29.39-70.68,54.36-13.91,21.6-22.79,46.22-27.69,71.37-6.01,32.66-6.48,66.75 1.92,99.04 11.5,42.63 35.35,80.88 63.27,114.67 14.4,17.16 29.25,34.09 45.93,49.08 107.62,104.18 215.78,207.8 323.38,312.01 103.41-100.06 207.17-199.73 310.73-299.63 9.95-10.39 21.34-19.34 30.7-30.31 30.12-31.77 58.06-66.48 76.54-106.44 13.52-28.64 22.01-60.16 20.89-92.01-.99-26.13-3.77-52.52-12.61-77.29-7.65-21.41-17.87-42.57-34.44-58.53-15.49-16.18-34.94-28.19-55.72-36.32-30.57-12.94-64.17-17.01-97.12-16.76-31.82,.34-62.3,11.94-89.88,27.07-30.85,16.44-57.51,39.4-83.77,62.19-13.2,12.81-26.31,25.73-38.61,39.4-11.44,13.34-32.75,14.78-47.16,5.7-8.71-6.9-15.18-16.18-23.3-23.72-18.32-19.12-38.48-36.37-59.25-52.75-21.16-16.75-44.07-31.5-68.98-42.03-23.21-10.34-48.47-17.16-74.05-15.92-30.57,1.18-61.75,4.53-90.1,16.82Z"/>
</svg>
