<svg width="1280" xmlns="http://www.w3.org/2000/svg" height="1280" viewBox="0 0 1024 1024">
<path d="m492.03,148.12c22-6.54 47.11-1.8 64.59,13.29 35.12,29.55 70.47,58.82 105.59,88.37 10.86,8.87 21.3,18.25 32.57,26.61 .61-36.8-.1-73.62 .27-110.42-1.17-9.24 6.52-18.74 16.06-18.63 36.61-.81 73.28-.22 109.92-.28 7.13-.48 15.21,2.95 17.97,9.93 2.35,4.27 1.59,9.32 2.02,13.98 .04,75.95-.13,151.9 .04,227.85 41.14,33.52 81.5,67.99 122.59,101.56 4.64,3.82 9.43,9.07 8.53,15.62 1.22,7.7-4.94,13.46-9.33,18.84-10.67,12.05-20.33,24.98-31.14,36.89-6.42,6.59-17.4,6.65-24.37,.91-131.95-109.75-263.62-219.87-395.65-329.52-126.91,105.6-253.57,211.48-380.39,317.19-7.12,5.57-13.45,12.78-22.17,15.87-9.14,3.08-17.63-3.65-22.87-10.44-9.82-12.15-20.11-23.91-29.96-36.02-4.36-4.83-6.47-11.76-4.79-18.13 2.8-9.02 11.93-13.58 18.45-19.64 131.52-109.46 262.97-219.01 394.43-328.54 8.18-6.67 17.09-13.12 27.64-15.29Z"/>
<path d="m186.98,560.98c108.22-89.18 216.29-178.57 324.75-267.47 76.98,63.25 153.81,126.68 230.69,190.05 32.89,26.81 65.29,54.24 98.44,80.73 .38,91.58-.06,183.16 .23,274.74 1.11,16.65-10.08,33.22-26.18,37.84-10.13,2.24-20.61,1.96-30.91,2.17-66.33-.1-132.66,0-198.99-.05-.05-73.33 .03-146.65-.03-219.97-48.65-.04-97.31-.04-145.96,0-.22,73.22 .32,146.44-.25,219.66-72.25,.69-144.52,.22-216.78,.25-13.43,.27-26.93-6.25-34.02-17.89-6.68-9.99-5.29-22.68-5.97-34.03-.07-83.34 .12-166.68-.1-250.03 .13-5.47-.59-12.75 5.08-16Z"/>
</svg>
