<svg width="1280" xmlns="http://www.w3.org/2000/svg" height="1280" viewBox="0 0 1024 1024">
<path d="m351.53,5.66c13.11-1.39 26.32-.53 39.47-.67 88.33-.04 176.67,.15 265.01-.11 5.35,.42 11.1-.65 16.34,.83 8.8,6.26 15.68,15.44 19.27,25.65 3.12,10.89 3.11,22.4 3.39,33.63 .03,49.66-.07,99.33 .01,148.99 61.65,.24 123.31-.35 184.95,.24 18.51,1.07 34.7,18.01 33.98,36.74 .19,238.34-.12,476.69 .15,715.04-.3,11.62 1.71,24.59-5.27,34.81-6.2,8.84-15.52,16.56-26.67,17.44-12.01,1.28-24.12,.69-36.16,.79-233.34-.16-466.68,.12-700.02-.14-18.12-.23-35.59-15.38-36.12-33.88-.68-5.98-.73-12.03-.86-18.01-.01-235.01 .01-470.02-.01-705.02 .4-8.99-.35-18.74 4.19-26.9 5.97-12.26 18.97-21.23 32.83-20.92 60.99-.48 121.99,.02 182.98-.19 .07-55-.04-110 0-165-.25-11.79 3.89-23.56 11.28-32.73 3.24-3.94 6.46-8.45 11.26-10.59m59.17,65.01c-5.54,3.84-9.5,10.37-8.64,17.3-.04,60-.27,120.02 .11,180.02-.65,8.81 5.86,17.81 14.83,18.86 14.84,.46 29.75,.69 44.58-.41 6.35-.65 10.53-6.67 12.75-12.07 1.66-20.05 .21-40.25 .68-60.36 24.32-.05 48.65-.04 72.97,.01 .29,18.29-.59,36.6 .35,54.87-.13,8.54 6.23,16.53 14.69,17.9 14.91,.56 29.88,.69 44.79-.18 7.08-1.95 13.76-8.79 13.03-16.61 .48-58.33-.09-116.68 .26-175.01-.8-6.47 1.54-14.44-3.36-19.75-3.7-4.74-9.76-7.35-15.75-7.08-13.43-.41-26.96-.85-40.34,.55-7.52,2.06-13.09,9.65-13.32,17.4-.96,18.27-.06,36.58-.33,54.88-24.33,.04-48.66,.03-72.98,0-.38-19.52 .8-39.08-.59-58.56-.84-6.44-6.4-11.52-12.28-13.6-11.97-1.58-24.14-.94-36.18-.87-5.09,.42-10.8-.29-15.27,2.71m-227.68,216.34c-.03,219.33-.03,438.65 0,657.97 72.98,.04 145.97,.03 218.96,.01 .12-40.68-.08-81.35 .01-122.02 .32-5.66-.53-12.59 4.17-16.82 4.85-5.67 12.54-8.02 19.82-7.26 56.68,.25 113.37,.02 170.05,.11 7.63-.14 17.72,.34 21.93,8.02 4.86,6.57 3.76,15.33 4.12,22.97-.11,38.33-.11,76.66-.06,114.99 72.98,.04 145.97,.03 218.96,.01 .03-219.33 .04-438.65 0-657.97-48.62-.04-97.24-.04-145.86,0-.37,12.75-.24,25.76-3.91,38.12-4.68,12.16-14.03,22.29-25.16,28.89-12.71,7.34-27.89,6.78-42.04,7.02-75.01-.11-150.02-.03-225.02-.04-12.97-.33-26.47-.17-38.63-5.41-13.53-6.57-24-18.81-28.93-32.97-3.53-11.51-2.16-23.77-2.54-35.61-48.63-.05-97.25-.03-145.87-.01Z"/>
<path d="m274.37,433.43c12.09-.82 24.26-.91 36.35-.14 8.47,.16 16.49,6.7 17.7,15.14 1.1,14.68 1.12,29.48 .06,44.18-1.82,7.29-8.44,13.04-15.89,13.88-13.39,.98-26.88,.98-40.27,.08-6.89-1.2-14.09-6.06-15.65-13.21-1.3-13.42-.87-26.94-.63-40.39-1.33-10.35 8.25-19.61 18.33-19.54Z"/>
<path d="m420.43,433.5c12.06-.87 24.22-.99 36.3-.21 7.82,.45 16.5,5.91 17.72,14.13 1.08,14.77 .95,29.64 .22,44.44-.38,4.49-3.62,8.1-6.91,10.9-8.27,6.14-19.22,3.68-28.76,4.43-9.87-.77-21.23,2.02-29.75-4.46-2.94-2.77-6.15-5.94-6.69-10.15-1.11-14.68-1.08-29.49-.01-44.17 1.36-8.44 9.22-15.18 17.88-14.91Z"/>
<path d="m567.43,433.51c11.73-.9 23.54-.97 35.29-.18 7.18,.6 14.9,4.35 17.21,11.68 3.24,10.3 1.92,21.36 2.21,32.01-.55,7.27 .6,15.72-4.22,21.92-3.73,6.55-12.02,7.95-18.88,8.04-11.54,.34-23.11,.43-34.62-.48-8.64-.93-15.94-8.85-16.05-17.61-.74-12.57-.89-25.22-.17-37.78 .47-9.91 9.25-18.14 19.23-17.6Z"/>
<path d="m713.37,433.43c12.01-.85 24.11-.91 36.13,0 8.68,.32 17.45,7.05 17.87,16.15 1.25,13.37 .97,26.86 .3,40.27-.51,5.89-4.3,11.51-9.4,14.43-10.47,4.46-22.24,2.39-33.28,2.88-7.62-.78-16.63,1.31-22.95-4.21-8.56-5.08-7.42-16.48-8.08-24.92 .23-10.97-1.46-22.42 2.12-33.01 2.31-7.33 10.03-11.23 17.29-11.59Z"/>
<path d="m270.43,580.58c13.15-1.13 26.38-.9 39.56-.42 8.47-.69 17.16,5.84 18.43,14.27 1.13,13.14 .88,26.38 .42,39.56 .69,8.46-5.84,17.16-14.27,18.43-14.68,1.11-29.48,1.11-44.16,.04-8.26-1.2-14.78-9.1-14.24-17.46-.49-13.32-.59-26.67 .04-39.98 1.11-7.09 6.94-13.57 14.22-14.44Z"/>
<path d="m416.43,580.58c14.67-1.12 29.47-1.12 44.16-.04 8.26,1.19 14.78,9.1 14.24,17.46 .48,13.31 .59,26.66-.04,39.98-1.11,7.08-6.94,13.57-14.22,14.44-14.94,1.08-30.02,1.19-44.94-.08-6.3-1.69-12.14-7.12-13.05-13.77-1.09-14.94-1.2-30.02 .08-44.94 1.68-6.3 7.12-12.14 13.77-13.05Z"/>
<path d="m562.42,580.55c13.16-1.08 26.41-.79 39.61-.53 5.97-.85 11.34,2.57 15.31,6.65 5.94,7.35 4.14,17.58 4.83,26.32-.35,9.65 1.08,19.72-2.19,29.03-3,6.33-9.64,11.55-16.99,10.81-13.55,.46-27.15,.69-40.68-.27-7.35-1.59-12.86-8.69-13.8-15.97-.99-13.4-.99-26.88-.08-40.27 1.23-7.11 6.43-14.69 13.99-15.77Z"/>
<path d="m708.42,580.56c14.77-1.13 29.64-.95 44.44-.23 4.49,.38 8.1,3.61 10.9,6.91 6.14,8.27 3.68,19.2 4.43,28.76-.73,9.24 1.67,19.52-3.25,27.97-2.63,3.94-6.35,8.01-11.36,8.48-13.18,1.07-26.42,.78-39.61,.53-9.84,1-19.31-7.7-19.44-17.52-.98-12.36-.99-24.82-.24-37.18 .29-8.02 6.13-16.08 14.13-17.72Z"/>
<path d="m272.41,726.51c13.11-1.01 26.31-.92 39.44-.18 9.11,.88 17.83,9.08 16.99,18.68 .51,11.64 .5,23.32 0,34.98 .26,5.98-2.33,12.06-7.09,15.74-4.27,3.8-10.43,3.59-15.77,4.1-10.56,.42-21.16,.63-31.71-.12-6.67-.34-12.8-4.06-16.3-9.68-2.34-4.24-1.54-9.41-2-14-.15-11.91-.48-23.85 .47-35.72 1.59-7.35 8.69-12.86 15.97-13.8Z"/>
<path d="m710.42,726.54c13.12-1 26.33-1.05 39.47-.19 8.76,.14 16.68,7.43 17.61,16.07 .93,13.12 1,26.33 .15,39.47-.2,7.68-5.55,14.75-13.05,16.63-11.71,2.33-23.78,1.56-35.62,1.5-6.9-.07-14.61-1.24-19.6-6.4-6.39-7.65-5.11-18.38-5.56-27.61 .17-8.91-.5-17.96 1.54-26.7 2.15-6.57 7.95-12.28 15.06-12.77Z"/>
</svg>
