<svg width="1280" xmlns="http://www.w3.org/2000/svg" height="1280" viewBox="0 0 1024 1024">
<path d="m109.86,54.02c268.1-.03 536.2-.03 804.3,0-24.3,273.97-48.64,547.94-73.2,821.89-108.93,31.04-218.15,61.08-327.14,91.9-2.92,.82-6.01,.14-8.82-.71-106.3-30.14-212.7-60.03-319.04-90.06-3.24-.52-4.43-3.95-3.79-7.05-12.48-140.82-25.06-281.63-37.59-422.45-11.46-131.18-23.75-262.3-34.72-393.52m149.2,169.02c2.81,23.99 4.38,48.09 6.65,72.13 6.82,77.27 13.67,154.53 20.39,231.81 116.58,.29 233.17-.48 349.75,.38-4.46,43.51-8.24,87.08-12.88,130.58-35.49,9.39-70.95,18.94-106.34,28.7-3.43,.77-7.04,.78-10.49,.2-35.78-9.49-71.47-19.38-107.23-28.95-3.34-26.54-4.92-53.27-7.91-79.85-33.29-.08-66.59-.07-99.88,0 4.87,52.85 8.3,105.83 12.97,158.7 68.02,18.7 135.97,37.68 204.02,56.28 4.97,1.39 9.78-1.28 14.53-2.4 65.09-18.03 130.16-36.11 195.34-53.83 9.91-103.58 19.06-207.22 28.78-310.81-122.66,.03-245.32,.04-367.97,0-3.25-34.54-6.35-69.12-8.48-103.75 128.24-.57 256.49-.02 384.74-.27 3.4-32.94 6.54-65.92 9.21-98.93-168.4-.04-336.8-.07-505.2,.01Z"/>
</svg>
