<svg width="1280" xmlns="http://www.w3.org/2000/svg" height="1280" viewBox="0 0 1024 1024">
<path d="m267.41,146.6c14.83-1.28 29.73-.46 44.59-.6 145-.03 290.01,.07 435.01-.06 23.07-.51 45.53,14.43 54.32,35.73 44.78,104.16 89.8,208.22 134.59,312.37 11.44,26.02 15.32,54.71 15.11,82.96-.16,88.34 .16,176.69-.14,265.03-.51,15.02-11.03,28.83-25.21,33.65-10.35,2.48-21.13,2.11-31.68,2.36-258.34-.11-516.68,.02-775.02-.06-7.61-.47-15.71,.1-22.84-3.12-11.98-5.17-22.02-16.5-22.71-29.99-1.01-13.27-.34-26.59-.44-39.87 .01-80 .03-160-.02-240.01-.32-13.81 1.8-27.53 4.99-40.93 4.25-19.63 13.25-37.7 21.07-56.06 40.59-94.36 81.42-188.62 121.92-283.03 3.97-9.06 8.68-18.23 16.53-24.53 8.74-6.69 18.82-12.52 29.93-13.84m41.86,109.51c-35.88,84.71-72.27,169.21-108.32,253.86-5.22,12.59-11.39,24.85-15.25,37.97 60.09,.15 120.18,.01 180.27,.06 18.3,36.54 36.08,73.34 54.28,109.93 61.16,.09 122.32,.18 183.48-.05 17.13-37.09 36.26-73.23 54.3-109.88 60.05-.07 120.11,.12 180.17-.08-3.09-9.56-7.14-18.76-11.13-27.96-37.75-87.96-75.05-176.12-112.99-263.99-134.94,.15-269.87-.14-404.81,.14Z"/>
</svg>
