<svg width="1280" xmlns="http://www.w3.org/2000/svg" height="1280" viewBox="0 0 1024 1024">
<path d="m17.47,109.46c12.77-1.36 25.7-.26 38.53-.5 313.34,.1 626.69-.01 940.03,.05 5.66,.26 11.53,.22 17.02,1.98 5.47,2.41 8.37,8.12 10.95,13.2v117.69c-2.52,4.86-5.79,9.84-11,12.09-4.27,2.28-9.36,1.6-13.96,2.04-326.69-.02-653.4,0-980.09-.01-8.49-.17-15.82-6.53-18.95-14.16v-117.55c2.73-7.55 8.86-14.54 17.47-14.83Z"/>
<path d="m14.11,329.27c8.08-2.21 15.38,2.37 20.71,7.89 52.37,52.64 104.9,105.13 157.51,157.54 4.28,4.78 9.72,10.18 8.69,17.25 .83,6.38-3.64,11.19-7.69,15.35-53.65,53.37-107.06,106.99-160.58,160.47-5.18,6.03-14.43,9.14-21.7,5.08-5.44-2.02-8.15-7.39-11.05-12v-337.66c2.99-6.02 6.76-12.84 14.11-13.92Z"/>
<path d="m371.1,334.11c4.04-3.67 9.34-5.8 14.85-5.14 205.03,.06 410.07,.02 615.1,.02 4.99,.38 10.66-.29 14.93,3.01 3.49,2.98 6.05,7.04 8.02,11.19v117.62c-3,5.99-6.72,12.95-14.18,13.73-15.24,1.27-30.56,.33-45.82,.47-191.68-.01-383.37-.03-575.04,.02-11.05,2.18-23.76-6.13-22.77-18.03-.76-31.66 .2-63.34-.35-95.01 .86-9.3-2.22-20.5 5.26-27.88Z"/>
<path d="m370.06,555.06c4.8-7.58 15.16-6.6 22.91-7.13 201.68,.15 403.38,.03 605.06,.06 4.95,.37 10.33-.19 14.94,2.11 5.27,2.14 8.52,7.16 11.03,12.02v118.66c-1.66,3.79-4.14,7.21-7.39,9.81-4.64,4.36-11.64,4.31-17.58,4.49-201.69-.14-403.39-.11-605.08-.01-7.9-.55-17.85,.27-23.34-6.69-6.14-5.73-4.12-14.91-4.77-22.36 .24-30.02 .13-60.03 .04-90.05 .76-6.95-1.36-15.39 4.18-20.91Z"/>
<path d="m0,782.22c2.53-6.55 7.56-13.16 15-14.07 15.32-.76 30.67-.06 46-.15 313.35-.02 626.7,.04 940.04-.03 10.3-1.99 19.92,4.55 22.96,14.25v117.66c-3.12,5.54-6.75,12.34-13.64,13.38-15.08,1.5-30.25,.66-45.36,.77-315.01-.13-630.03,.1-945.03-.11-9.14,1.12-17.09-6.02-19.97-14.19v-117.51Z"/>
</svg>
