<svg width="1280" xmlns="http://www.w3.org/2000/svg" height="1280" viewBox="0 0 1024 1024">
<path d="m439.44,109.53c43.16-1.27 86.38-.13 129.57-.58 10.51,.58 22.15-1.06 31.78,4.28 11.57,5.57 20.2,17.4 20.59,30.43 1.51,31.75 .12,63.56 .7,95.34-.23,9.25 .82,18.9-2.22,27.85-3.24,9.67-10.48,18.05-19.8,22.28-6.72,3.63-14.73,2.47-22.05,2.94-46.68-.22-93.37,.12-140.05-.14-13.41,.41-26.09-8.08-31.97-19.91-5.23-9.41-3.63-20.71-4.09-31.02 .39-31.66-.32-63.33 .28-94.99-.46-19.78 17.52-37.26 37.26-36.48Z"/>
<path d="m356.12,403.14c5.85-1.29 11.91-.96 17.87-1.2 66.67,.05 133.34,.17 200.02-.05 8.64,.14 17.74-.19 25.9,3.19 9.27,4.69 16.82,12.99 20.1,22.91 2,7.49 1.82,15.31 2.04,23-.09,105.68-.04,211.36-.04,317.04 13.34,0 26.69-.39 40.04,.03 16.51,1.49 31.15,15.66 32.36,32.35 1.33,24.83 .44,49.74 .52,74.61 1.13,19.67-15.76,39.26-35.94,38.78-96.66,.46-193.35,.11-290.01,.16-18.97,2.01-38.07-12.87-39.61-32.07-1.09-19.95 .01-39.93-.46-59.89 .29-9.99-1.24-20.3 2.22-29.92 4.47-12.28 15.77-22.28 28.98-23.69 13.94-.94 27.93-.33 41.89-.38 0-73.35 .01-146.69-.01-220.03-13.35-.01-26.69,.37-40.03-.05-16.57-1.22-31.11-15.5-32.6-32.04-1.08-19.94 .02-39.93-.45-59.89 .31-8.66-.95-17.51 1.14-26.02 2.72-12.91 13.49-23.4 26.07-26.84Z"/>
</svg>
