<svg width="1280" xmlns="http://www.w3.org/2000/svg" height="1280" viewBox="0 0 1024 1024">
<path d="m490.45,73.48c77.81-4.15 156.79,12.72 225.58,49.46 40.93,21.4 78.13,49.64 110.71,82.31 46.7,48.52 82.45,107.62 103.42,171.63 22.14,71.04 26.85,147.68 12.46,220.74-14.2,73.86-48.78,143.34-97.63,200.38-45.53,53.11-104.09,94.83-168.86,121.16-67.67,27.93-142.55,35.89-215.08,28.75-128.51-13.89-248.75-88.86-318.03-197.92-35.05-53.68-58.24-115.27-66.08-178.97-6.43-48.68-5.4-98.48 4.44-146.64 19.32-98.77 75.03-189.58 152.91-253.08 36.88-29.62 78.16-53.93 122.5-70.55 42.63-16.49 88.11-24.84 133.66-27.27m-35.03,91.01c-8.3,.25-15.94,7.07-16.39,15.48-.03,31.66-.25,63.35 .13,95.02-.87,9.61 8.27,18.25 17.81,16.99 36.69,.05 73.38,.1 110.07-.02 8.35,.76 16.72-5.74 17.61-14.13 .96-28.26 0-56.57 .44-84.84-.62-7.27 1.28-16.07-4.07-22.03-6.28-7.73-17.14-7.09-26.01-7.06-33.2,.55-66.42-.66-99.59,.59m-82.11,203.84c-3.93,3.03-7.27,7.48-7.25,12.65-.3,28.34 .12,56.69-.15,85.03 .32,5.6-.34,11.44 1.14,16.93 2.48,6.21 9.02,10.89 15.91,10.03 18.59,.38 37.19-.41 55.79,.34 .58,60.89 .12,121.78 .23,182.66-18.62,.36-37.26-.6-55.86,.35-6.08,.25-12.01,3.37-15.14,8.66-3.16,5.13-1.8,11.34-2.12,17.02 .45,28.32-.24,56.66 .27,84.99-1.05,10.16 9.02,18.5 18.82,17.04 81.69,0 163.38-.13 245.06,.06 5.35-.22 10.82,.08 16.11-.95 7.78-1.99 12.69-10.29 11.81-18.12 .16-30.02 .16-60.04 .01-90.06 .99-9.45-6.84-18.21-16.23-18.63-18.87-.98-37.8,.01-56.69-.34-.06-95.67 0-191.35-.01-287.02-.41-4.88 .32-10.27-2.31-14.66-3.21-5.3-9.27-9.25-15.67-8.29-60.02-.08-120.04,.02-180.06-.05-4.52,.46-9.75-.54-13.66,2.36Z"/>
</svg>
