<svg width="1280" xmlns="http://www.w3.org/2000/svg" height="1280" viewBox="0 0 1024 1024">
<path d="m174.45,73.58c6.5-.43 13.02-.64 19.55-.63 215,.11 430.01,.03 645.02,.04 42.5-1.03 82.59,26.36 101.01,63.99 8.5,16.22 10.98,34.9 10.97,53.01 .03,215-.06,430.01 .04,645.02 .62,18.88-3.87,37.84-12.38,54.67-11.82,21.3-29.68,39.53-51.77,50.1-17.77,9.13-38.18,11.2-57.88,11.22-213.34,0-426.68-.01-640.02,.01-17.79-.08-35.91-3.1-51.9-11.16-24.06-12.02-44-32.28-54.99-56.89-6.75-15.35-9.3-32.26-9.11-48.95 .04-216.67-.04-433.35 .04-650.03-.84-55.3 46.28-106.5 101.42-110.4m529.98,97.97c-18.24,2.96-32.26,21.06-31.44,39.43 .11,31.66-.29,63.34 .19,95-.31,19.08 15.97,36.32 34.85,37.84 28.31,.61 56.64-.12 84.97,.26 10.62-.22 21.55,.73 31.93-2.1 14.93-4.87 26.87-19.96 26.1-35.95-.06-31.69 .05-63.38-.05-95.06 2.09-22.45-19.77-42.87-41.96-40.04-34.86,.51-69.76-.74-104.59,.62m-201.98,167.97c-34.66,1.58-68.89,13.21-96.49,34.41-41.96,31.19-71.06,81.96-69.08,135.07-.53,27.69 5.41,55.78 19.07,80.01 11.3,21.59 28.32,39.64 47.06,54.96 37.68,30.38 88.45,42.38 136.02,35.17 55.86-6.68 106.02-43.66 132.11-93.03 21.09-40.27 23.12-89.19 8.7-131.99-10.65-30.4-31.02-56.86-56.16-76.77-33.53-27.65-78.05-40.75-121.23-37.83m-331.43,104.49c-.03,123.01-.04,246.01-0,369.02-2.2,18.92 14.78,37.4 33.94,36.02 203.35-.12 406.71-.01 610.07-.06 18.97,2.45 37.24-14.95 36.02-33.95-.11-123.34-.01-246.68-.06-370.02-25.6-.07-51.2,.01-76.79-.07 12.36,37.3 13.93,77.52 8.04,116.19-9.92,63.88-45.54,123-96.27,162.84-26.11,20.39-55.59,36.73-87.27,46.63-49.73,16.39-103.88,17-154.69,5.33-70.88-16.75-132.49-65.08-169.88-127.04-36.37-60.99-43.19-137.2-23.04-204.84-26.69-.14-53.38-.06-80.07-.05Z"/>
</svg>
