<svg width="1280" xmlns="http://www.w3.org/2000/svg" height="1280" viewBox="0 0 1024 1024">
<path d="m399.25,72.95c56.88,2.09 113.74,5.04 170.62,7.36 32.67,1.72 65.45,2.7 98.14,.64 45.43-1.74 90.82-4.6 136.16-8.02-1.5,15.55-5.31,30.74-9.46,45.76-.78,1.98-1.09,4.79-3.46,5.52-32.26,12.52-66.84,17.27-99.56,28.36-6.03,2.29-12.67,3.45-18.11,7.06-3.37,5.96-4.9,12.77-6.83,19.28-5.65,21.64-10.09,43.6-13.01,65.77-1.86,15.8-6.16,31.15-9.33,46.71-9.45,43.03-18.76,86.1-27.8,129.22-11.19,55.97-21.98,112.01-33.02,168-7.31,38.51-18.3,76.19-26.34,114.54-7.33,39.41-14.41,78.86-21.69,118.28-2.73,17.87-11.25,34.92-8.71,53.38 15.19,2.96 30.28,6.42 45.6,8.66 20.23,3.07 40.69,4.8 60.68,9.26-.85,19.02-5.7,37.42-9.4,55.99-16.48,.16-32.98,3.42-49.41,.96-23.97-3.89-48.15-6.18-72.27-8.89-17.26-2.28-34.69-1.87-52.05-1.79-33.68,.48-67.36-2.48-101.03-.38-43.44,2.06-86.63,7.46-129.99,10.51 3.13-14.14 5.5-28.42 8.58-42.55 .65-2.21 .63-5.83 3.53-6.36 32.76-8.75 66.25-15.53 97.76-28.35 4.76-2.22 10.57-3.75 13.13-8.87 13.34-18.94 18.5-41.99 22.6-64.39 13.63-73.62 29.9-146.71 44.87-220.07 10.15-55.41 20.8-110.87 37.24-164.82 5.02-15.03 6.45-30.94 9.72-46.39 4.88-24.35 8.03-49.1 14.98-73 1.73-6.72 3.34-13.48 4.68-20.29 5-31.59 10.28-63.13 15.38-94.71 1.57-9.72 1.46-19.61 1.67-29.43-32.73-14.94-69.36-13.43-104.26-18.04 3.06-19.71 7.39-39.19 10.39-58.91Z"/>
</svg>
