<svg width="1280" xmlns="http://www.w3.org/2000/svg" height="1280" viewBox="0 0 1024 1024">
<path d="m313.06,71.12c35.17-10.75 72.16-15.51 108.9-13.9 31.58,1.9 63.13,9.6 91,24.85 25.1,13.23 46.4,32.92 63.64,55.3 19.81,26.93 32.59,58.93 36.83,92.09 10.41,71.27-8.79,144.42-45.24,205.75-8.08,14.09-17.59,27.25-26.69,40.68 44.14,44.4 88.52,88.55 132.75,132.86 23.47,23.11 46.25,46.93 70.1,69.65 18.01-18.47 36.35-36.6 54.65-54.78-20.04-19.14-41.35-37.18-58.56-59.04-2.79-4.27-6.45-8.45-7.13-13.7 .33-6.23 5.07-11.26 8.29-16.25 10.37-12.87 22.33-24.37 34.34-35.68 7.74-5.87 15.28-14.68 25.93-13.78 4.66,.78 8.52,3.92 11.87,7.07 24.97,24.37 50.47,48.19 75.04,72.98 25.22,23.1 48.59,48.09 72.24,72.76 10.71,11.7 21.74,23.3 30.33,36.71 3.78,5.5-1.75,11.76-4.39,16.29-12.45,16.96-27.79,31.66-43.91,45.09-5.71,3.55-11.49,9.47-18.86,7.76-8.36-3.28-14.75-9.84-21.53-15.48-17.17-15.44-33.08-32.27-48.24-49.67-19.06,17.61-36.74,36.65-55.4,54.68 42.19,42.68 84.95,84.81 127.17,127.45 15.65,15.81 18.81,41.6 8.79,61.2-7.33,14.74-19.57,26.75-33.22,35.74-17.92,11.98-43.33,12.25-60.82-.71-9.68-7.21-17.58-16.41-26.19-24.79-121.64-121.57-243.15-243.28-364.87-364.78-46.15,33.78-98.7,60.52-155.55,69.91-37.46,6.11-76.38,7.3-113.34-2.36-54.21-12.75-101.49-50.68-127.02-100-19.68-38.64-25.33-83.22-22.18-126.08 4-56.68 25.07-111.14 55.3-158.87 27.33-42.99 61.59-81.86 102.24-112.71 37.13-28.78 78.93-51.85 123.73-66.24m45.05,102.01c-41.91,15.64-72.82,58.71-71.06,103.88-.2,15.95 4.49,31.3 10.09,46.06-11.63-4.07-23.26-8.73-35.66-9.72-19.57-1.41-39.73,1.23-57.66,9.45-34.03,16.17-59.47,50.38-62.66,88.24-1.18,20.68 1.04,42.38 10.9,60.94 11.27,22.25 30.29,40.56 52.99,50.91 26.05,12.28 56.86,12.02 83.85,3 42.28-15.7 73.53-59.32 71.08-104.91 .3-15.67-4.54-30.66-10.05-45.11 13.9,4.94 28.1,10.29 43.07,10.1 18.88,.37 38.19-3.02 54.9-12.12 35.19-18.7 60.23-57.41 58.2-97.85 1.34-36.14-18.36-71.08-48.14-90.95-28.64-20.38-67.1-23.04-99.85-11.92Z"/>
</svg>
