<svg width="1280" xmlns="http://www.w3.org/2000/svg" height="1280" viewBox="0 0 1024 1024">
<path d="m0,191.76c8.75-3.66 17.56-7.86 27.19-8.36 14.92-.88 29.87-.39 44.81-.42 305.01,.1 610.02-.1 915.02,.09 13.01-.66 25.25,3.86 36.98,8.88v639.05c-18.54,12.23-41.92,9.87-63,10.08-308.34-.16-616.68-.08-925.02-.04-12.46-.05-25.25-2.93-35.98-9.41v-639.87m36,64.23c0,170.67-.01,341.34 .01,512.01 316.99,.01 633.99-.01 950.99,.01 0-170.67 .01-341.34-.01-512.01-316.99-.01-633.99,.01-950.99-.01Z"/>
<path d="m115.41,329.54c19.83-1.14 39.74-.68 59.6-.39 4.19,.16 7.88,4.06 7.41,8.42 1.21,16.77 .73,33.63 .43,50.42-.55,4.54 .39,11.85-5.28,13.47-20.17,1.21-40.42,.48-60.61,.55-3.9,.26-7.04-2.87-7.31-6.65-1.37-18.42-.62-36.94-.65-55.39-.01-4.21 1.39-9.92 6.41-10.43Z"/>
<path d="m261.4,329.53c19.83-1.15 39.74-.66 59.6-.36 3.62,.05 7.08,2.71 7.37,6.46 1.32,18.75 .66,37.61 .57,56.4-.36,3.54-1.15,8.63-5.32,9.49-20.19,1.07-40.45,.49-60.67,.46-4.43,.09-7.92-4.11-7.37-8.55-1.08-18.58-1.1-37.29 0-55.86-.36-3.67 2.22-7.38 5.82-8.04Z"/>
<path d="m407.39,329.51c19.85-1.15 39.78-.51 59.66-.48 3.69-.2 7.4,2.47 7.45,6.36 1.11,18.19 .45,36.43 .55,54.65 .56,4.13-.33,10.62-5.44,11.45-20.18,1.1-40.43,.6-60.62,.41-4.87-.1-7.92-5.32-6.85-9.9-.39-18.34-.32-36.7-.11-55.05-.07-3.26 1.89-6.91 5.36-7.44Z"/>
<path d="m553.39,329.5c19.85-1.13 39.77-.51 59.66-.47 3.26-.07 6.9,1.9 7.44,5.36 1.14,19.85 .51,39.78 .48,59.66 .06,3.26-1.9,6.9-5.36,7.44-19.86,1.14-39.78,.51-59.66,.48-3.26,.07-6.91-1.9-7.44-5.36-1.2-18.18-.42-36.43-.54-54.64-.11-4.2-.13-11.52 5.42-12.47Z"/>
<path d="m700.41,329.54c19.82-1.14 39.74-.68 59.6-.39 4.19,.16 7.88,4.06 7.41,8.42 1.21,16.77 .72,33.63 .43,50.42-.56,4.54 .39,11.85-5.28,13.47-20.17,1.21-40.42,.48-60.61,.55-3.9,.26-7.04-2.87-7.31-6.65-1.37-18.42-.63-36.94-.65-55.39-.01-4.21 1.39-9.92 6.41-10.43Z"/>
<path d="m846.39,329.51c18.18-1.21 36.43-.35 54.64-.61 3.96-.08 10-.42 12.02,4.05 1.48,5.15 .66,10.73 1.06,16.04-.24,63.35-.07,126.71-.06,190.06 .36,5.16-3.78,10.32-9.43,9.48-41.52,1.08-83.1,.27-124.64,.42-4.11-.55-10.45-.34-11.49-5.33-1.11-20.19-.47-40.45-.49-60.66-.17-3.82 2.63-7.42 6.62-7.39 22.08-1.39 44.25-.21 66.37-.57 .1-45.01-.11-90.03 .03-135.03-.68-3.96 .71-9.73 5.37-10.46Z"/>
<path d="m116.39,475.51c41.51-1.24 83.1-.17 124.64-.53 5.57-.31 15.23,.51 14.4,8.59 .69,19.95 1.94,40.24-.82,60.07-1.49,5.75-9.17,4.5-13.62,5.21-34.99,.52-69.99-.14-104.99,.25-7.73-.35-15.86,1.05-23.24-1.9-3.74-2.26-3.23-7.56-3.59-11.21-.4-17.01-.39-34.02-.15-51.02-.01-4.32 2.57-9.26 7.37-9.46Z"/>
<path d="m336.4,475.47c16.51-1.01 33.08-.41 49.62-.59 4.52,.17 10.41-.55 13.79,3.31 2.97,3.88 1.55,9.28 2.2,13.78 0,16.54 .6,33.12-.53,49.64-.24,3.97-3.87,7.38-8.05,6.81-18.31,1.13-36.73,.99-55.05,.1-3.15-.35-8.43-.74-8.89-4.9-1.11-20.19-.47-40.45-.49-60.66-.26-4.22 3.18-7.69 7.4-7.49Z"/>
<path d="m482.4,475.52c18.51-1.1 37.09-.6 55.63-.47 3.94,.11 9,1.75 9.43,6.36 1.14,19.83 .68,39.74 .39,59.6-.16,4.19-4.07,7.88-8.42,7.41-18.58,1.09-37.29,1.09-55.86,0-5.74,.67-9.44-5.31-8.42-10.42-.38-18.33-.45-36.68 .02-55 0-3.97 3.21-7.43 7.23-7.48Z"/>
<path d="m628.39,475.51c16.51-1.16 33.08-.4 49.63-.6 4.51,.21 9.8-.41 13.76,2.33 3.4,3.19 1.4,8.68 2.25,12.73-.06,17.34 .35,34.7-.12,52.04 .04,4.38-4.55,6.68-8.48,6.4-18.58,1.1-37.29,1.1-55.86,.01-4.2,.57-7.81-2.84-8.05-6.81-.99-19.71-.99-39.52 0-59.22 .19-3.62 3.25-6.68 6.87-6.88Z"/>
<path d="m118.38,621.47c18.32-.88 36.74-1.03 55.05,.11 5.29-.6 9.58,3.69 8.99,8.99 1.09,18.57 1.09,37.28 .01,55.86 .75,4.81-3.59,8.03-7.83,8.09-18.52,.98-37.1,.57-55.63,.46-4.32,0-9.26-2.57-9.46-7.37-1.13-18.52-.53-37.1-.47-55.63 0-5.21 2.75-11.7 9.34-10.51Z"/>
<path d="m265.38,621.47c14.85-1.08 29.75-.34 44.62-.47 146.67-.04 293.35,.09 440.02-.07 4.87,.08 10.21,.04 14.66,2.38 3.5,3.04 2.46,8.6 3.16,12.7-.06,18.16 1.61,36.6-1.22,54.6-3.23,5.71-11.41,3.56-16.6,4.4-160.01-.01-320.03-.02-480.05,.01-5.57,.31-15.23-.51-14.4-8.59-1.08-18.58-1.08-37.29 .01-55.86-.7-5.78 4.31-9.75 9.8-9.1Z"/>
<path d="m850.38,621.47c18.31-.87 36.74-1.03 55.05,.11 5.73-.67 9.44,5.3 8.42,10.42 .38,18.32 .44,36.67-.02,55-.06,3.62-2.71,7.08-6.46,7.37-15.09,1.32-30.26,.49-45.37,.75-6.15-.44-13.14,1.07-18.66-2.48-3.71-2.91-1.5-8.72-2.37-12.61 .08-17.34-.41-34.71 .15-52.03 .34-4.48 5.06-6.95 9.26-6.53Z"/>
</svg>
