<svg width="1280" xmlns="http://www.w3.org/2000/svg" height="1280" viewBox="0 0 1024 1024">
<path d="m191.45,146.56c3.63-.14 10.9-.44 14.54-.58 205.01,.03 410.02,.04 615.03,0 38.21-1.49 74.68,24.71 87.56,60.33 5.33,13.53 5.3,28.39 5.47,42.69-.16,131.67 .07,263.34-.11,395.02-1.24,36.37-26.75,69.93-60.82,82.13-10.98,3.68-22.57,5.06-34.11,4.89-206.67-.11-413.35,.02-620.03-.06-33.5,.75-64.91-20.69-79.98-49.97-9.07-16.71-10.13-36.41-10.05-55.01 .14-128.34-.05-256.68 .1-385.02-.22-18.13 3.97-36.67 13.95-51.97 15.26-23.05 40.36-40.58 68.45-42.45m5.96,72.97c-5.83,.98-10.97,5.11-13.47,10.43-1.91,5.1-1.74,10.66-1.96,16.01 .01,126.68 .08,253.36-.04,380.04 .47,7.64-.8,15.98 3.08,22.99 3.45,5.71 10.22,9.42 16.94,8.95 196.68,.13 393.36-.01 590.04,.07 11.77-.09 23.61,.56 35.35-.67 6.88-1.53 11.78-8.32 13.04-14.98 1.12-11.76 .56-23.59 .63-35.37-.08-121.68 .05-243.36-.05-365.04 1.74-11.5-7.29-22.95-18.93-22.97-195.01,.02-390.03,.01-585.04,.01-13.2,.11-26.42-.61-39.59,.53Z"/>
<path d="m0,768c341.33,0 682.67,0 1024,0v98.55c-13.2,6.07-27.61,9.33-42.09,10.16-25.93,1.86-51.94,1.22-77.91,1.29-276.67,0-553.34,0-830.01,0-24.89-.11-51.14-.07-73.99-11.4v-98.6m461.39,37.46c-5.36,.96-4.85,8.25-4.04,12.14 1.2,4.95 7.7,5.06 11.67,5.23 30.11,.12 60.27,.79 90.35-.39 8.3-.03 9.63-14.73 2.32-17.06-16.86-1.09-33.8-.1-50.69-.37-16.54,.24-33.1-.73-49.61,.45Z"/>
</svg>
