<svg width="1280" xmlns="http://www.w3.org/2000/svg" height="1280" viewBox="0 0 1024 1024">
<path d="m896.96,118.97c12.56-6.61 26.87-9.91 41.07-8.98 13.76-.2 26.26,7.89 34.58,18.38 18.86,23.48 29.2,52.54 35.38,81.69 7.82,33.03 13.14,66.61 16.01,100.43v37.02c-4.39,78.85-23.25,157.72-61.18,227.36-37.56,69.77-94.85,127.18-158.8,173.13-31.36,22.27-64.59,41.86-99,59.04-64.36,33.05-134.87,54.84-207.11,60.75-56.15,5.31-113.25,1.19-167.92-12.79-19.41-4.9-38.99-10.03-56.98-19.02-23.89-11.57-47.14-24.58-71.99-34.05-6.33-1.86-12.94-4.58-19.67-3.57-5.3,2.2-10.08,5.83-13.85,10.17-22.41,25.8-34.36,59.05-58.2,83.76-7.72,8.52-16.51,16.65-27.6,20.45-22.96,5.49-49.59-3.98-61.68-24.75-7.48-11.94-15.93-23.68-20.02-37.31v-11.15c3.12-18.5 14.88-33.84 27.25-47.28 23.71-26.25 56.62-42.38 78.99-70 2.68-3.77 5.97-7.63 6.42-12.43 .13-4.44-.89-8.78-2.55-12.86-6.26-15.69-13.85-31.15-16.04-48.09-5.3-38.52-3.91-77.93 3.7-116.04 10.92-52.2 34.74-101.46 67.87-143.18 16.5-20.69 35.74-39 55.78-56.22 48.83-41.68 105.68-73.66 166.2-94.94 36.56-13.4 75.7-17.07 114.27-19.78 35.99-2.32 72.05-3.61 108.12-3.99 49.97-2 100.44-1.67 149.59-12.11 27.17-5.69 54.82-13.7 77.13-30.9 20.46-17.13 36.61-39.5 60.23-52.74m-237.56,284.49c-60.82,3.5-121.43,15.62-177.79,39.09-46.28,18.27-89.78,43.42-128.93,74.1-45.16,35.44-86.34,75.73-124.46,118.58-9.79,10.91-11.64,28.1-4.14,40.72 6.38,10.72 18.02,19.42 30.94,19.04 13.63,.88 24.73-8.18 33.8-17.17 25.78-23.53 49.04-49.67 74.95-73.06 34.17-31.07 71.46-58.9 112.09-80.97 64.7-34.9 139.2-48.17 212.17-47.86 6.72-.2 13.7-.38 20.11-2.74 13.85-5.56 24-20.08 23.02-35.2 .16-17.54-14.72-33.5-32.12-34.96-13.21-.43-26.44-.16-39.64,.43Z"/>
</svg>
