<svg width="1280" xmlns="http://www.w3.org/2000/svg" height="1280" viewBox="0 0 1024 1024">
<path d="m554.44,73.52c48.1-3.34 95.06,9.65 141.97,18.05 32.61,5.58 65.89,11.6 99.02,6.96 25.24-3.01 51.84-7.52 76.28,1.84 14.71,4.96 27.18,15.48 35.29,28.65 12.69,20.14 16.81,44.49 17.06,67.97 1.34,31.62-7.79,62.81-4.51,94.44 1.37,11.75 7.1,22.18 10.93,33.18 9.65,25.04 12.43,51.97 15.45,78.43 5.13,45.96 6.18,92.66-1.4,138.42-11.22,67.13-36.62,131.69-72.84,189.24-42.27,66-98.44,123.99-166.47,163.52-25.5,14.61-52.46,26.79-80.54,35.52-53.96,16.17-110.67,19.81-166.67,21.1-65.11,.24-129.05-14.64-194-16.75-26.52-1.47-50.83,11.5-76.63,15.18-14.67,2.77-30.08,1.5-44.07-3.68-21.93-7.17-39.84-23.61-52.1-42.81-15.74-23.59-19.72-53.77-13.67-81.2 4.61-20.6 10.9-41.21 9.46-62.59-1.93-45.27-14.44-89.53-14.06-134.99 .27-43.53 4.35-87.06 12.32-129.86 11.28-56.85 27.21-113.36 53.85-165.08 34.31-65.94 84.37-125.11 148.82-163.15 38.85-22.94 80.65-40.23 122.67-56.4 46.39-17.22 94.25-32.15 143.84-35.99m-8.59,74.22c-32.92,4.11-65.09,13.12-95.99,25.06-43.76,16.79-87.89,33.56-128.08,57.99-35.47,21.39-64.7,51.76-88.75,85.21-29.73,43.52-51.81,92.21-66.04,142.93-12.86,48.13-19,97.88-20.68,147.62-1.67,31.69 2.73,63.23 7.59,94.46 3.52,24.14 7.34,48.47 5.84,72.95-1.36,25.04-13.39,48.57-11.56,73.92 .66,11.73 10.32,22.73 22.22,23.63 33.6,.98 65.39-15.59 99.15-11.99 70.22,3.09 139.41,21.3 210,16.93 39.59-1.26 79.4-4.88 117.79-15.04 69.64-19.8 130.26-64.67 176.07-120.01 51.14-60.77 86.45-135.22 99.28-213.72 7.05-42.61 3.93-85.96-.75-128.64-2.15-17.03-3.99-34.39-10.45-50.44-4.64-11.15-9.18-22.37-11.98-34.15-7.21-28.2-2.77-57.51 .06-85.99 1.89-19.79 3.64-40.64-3.6-59.58-19.73-1.65-39.34,2.71-58.97,3.96-36.25,2.43-72.14-4.82-107.61-11.26-43.9-8.47-88.54-19.49-133.54-13.84Z"/>
</svg>
