<svg width="1280" xmlns="http://www.w3.org/2000/svg" height="1280" viewBox="0 0 1024 1024">
<path d="m557.52,121.52c13.91-16.2 42.4-15.38 55.53,1.42 60.64,73.02 121.48,145.87 182.25,218.78 4.33,5.52 8.45,11.69 9.14,18.88 2.32,13.26-5.64,26.18-15.18,34.66-8.38,7.11-19.95,6.7-30.25,6.82-33.67-.1-67.33-.12-100.99-.07-.04,151.67-.01,303.33-.02,454.99-.11,13.29 .55,26.61-.35,39.89 .02,7.44-5.27,14.57-12.52,16.25-5.32,.96-10.77,.74-16.12,.94-131.66-.31-263.34,.22-395-.26-13.69-1.2-19.96-20.75-10.65-30.48 28.2-34.41 57.06-68.29 85.29-102.68 4.97-5.88 10.44-13.84 19.36-12.49 60.99-.47 121.99,.01 182.98-.18 .01-121.99 .02-243.98 0-365.97-33.34-.06-66.67-.03-100,.05-8.99-.23-18.81,.53-26.88-4.25-14.42-7.86-22.1-25.88-18.11-41.76 3.35-11.07 12.28-19 19.25-27.81 57.46-68.88 114.89-137.78 172.27-206.73Z"/>
</svg>
