<svg width="1280" xmlns="http://www.w3.org/2000/svg" height="1280" viewBox="0 0 1024 1024">
<path d="m224.66,114.66c5.59-6.18 14.8-5.24 22.32-5.68 128.34,.03 256.69,.03 385.04,.01 6.1,.16 12.85,.17 17.96,4.05 7.68,4.2 8.16,14.29 8.02,21.93 .02,162-.04,324.01 .03,486.01 36.52,.36 73.06-.58 109.58,.41 8.29,.02 16.65,2.62 23.09,7.94 9.12,8.14 14.54,20.28 14.16,32.54-.76,7.69-4.84,14.5-9.56,20.41-60.76,72.92-121.62,145.75-182.24,218.78-13.28,17.03-42.28,17.68-56.14,1.04-59.93-72.07-119.98-144.03-179.98-216.04-3.97-4.88-7.81-10.03-10.17-15.9-6.02-17.18 2.96-38.32 19.55-45.81 11.54-3.53 23.74-3.26 35.68-3.4 29.66,.03 59.32,.11 88.98,.03 .02-121.65 .05-243.3-.01-364.95-60-.15-120,.11-179.99-.08-7.08,.53-14.08-3.06-18.45-8.5-29.45-35.53-59.05-70.94-88.61-106.38-7.31-7.05-6.51-19.63 .74-26.41Z"/>
</svg>
