<svg width="1280" xmlns="http://www.w3.org/2000/svg" height="1280" viewBox="0 0 1024 1024">
<path d="m326.03,132.05c71.02-48.82 161.71-70.02 246.58-52.65 48.86,9.85 95.54,30.65 135.42,60.56 50.81,38 86.43,96.68 94.2,159.89 6.86,52.48-4.04,107.69-33.23,152.12-14.38,22.74-34.55,40.87-51.28,61.75-21.23,24.14-38.44,51.55-52.67,80.3-8.11,16.88-13.9,34.92-15.81,53.6 7.3,5.62 14.84,11.4 19.66,19.45 6.69,10.22 7.54,23.05 7,34.9-1.05,11.12-7.23,20.76-13.54,29.63 14.91,17 18.32,43.23 7.33,63.11-4.79,7.74-11.52,14.04-18.62,19.65 5.67,13.33 9.37,28.38 4.89,42.65-3.99,17.49-19.11,30.03-35.59,35.41-8.12,2.45-16.63,3.21-25.03,3.99-7.49,16.63-19.79,31.03-35.44,40.48-15.75,10.63-35.11,14.66-53.91,14.09-33.58-1.79-64.58-23.92-78.36-54.44-15.75-.71-31.95-4.61-44.36-14.8-15.18-11.52-20.64-32.49-17-50.63 1.56-5.69 3.84-11.11 5.88-16.63-10.01-7.69-19.34-17.36-22.86-29.8-3.36-12.96-3.59-27.55 2.9-39.58 2.27-4.82 5.43-9.12 8.52-13.42-3.58-5.31-7.34-10.55-10.02-16.37-5.45-14.85-5.32-32.2 2.37-46.25 5-8.83 12.53-15.92 20.94-21.46-3.07-31.44-17.94-59.99-34-86.6-16.68-28.09-38.73-52.37-60.39-76.63-28.12-29.9-48.39-67.52-56.04-107.97-5.5-28.97-6.47-59-1.14-88.06 11.56-63.2 50.28-120.68 103.6-156.29m49,55c-24.74,14.85-45.61,35.87-60.27,60.71-24.98,40.54-29.58,92.63-12.53,137.04 8.84,23.92 24.83,44.39 42.54,62.43 28.95,29.57 54.23,62.94 73.25,99.76 14.7,28.99 25.71,60.37 28.33,92.95 43.47,.1 86.95,.1 130.43,.01 5.12-56.74 32.75-108.71 66.94-153.22 14.24-19.21 31.56-35.78 47.45-53.56 18.8-20.97 32.1-47.01 37.27-74.75 7.73-41.51-1.72-86.08-26.47-120.4-19.78-30.46-50.67-51.61-83.02-66.93-33.71-15.5-70.66-25.3-107.95-24.21-47.99-.37-95.49,14.76-135.97,40.17Z"/>
<path d="m507.42,238.5c19.68-1.74 39.51,2.13 58.29,7.87 23.18,6.78 44.16,20.84 59.38,39.57 10.01,12.58 14.7,28.75 14.27,44.7 .07,12.27-15.36,21.58-26.05,15.04-6.41-3.04-10.59-9.56-10.22-16.71-.45-12.59-6.71-24.7-17.03-32.01-22.12-14.51-48.56-21.95-74.95-22.28-11.35-.13-20.33-11.91-17.36-22.82 2.26-5.98 6.89-12.41 13.67-13.36Z"/>
</svg>
