<svg width="1280" xmlns="http://www.w3.org/2000/svg" height="1280" viewBox="0 0 1024 1024">
<path d="m224.41,73.5c3.64-.14 10.93-.4 14.58-.53 181.67,.04 363.34,.07 545.02-.02 24.67-.33 49.66,4.38 71.97,15.12 17.42,7.68 32.48,19.72 46.25,32.7 18.1,18.02 32.59,39.97 40.59,64.31 5.87,17.66 8.07,36.37 8.2,54.91-.03,181.67-.05,363.34 .01,545.02 .37,28.78-6.93,57.72-21.43,82.62-22.23,36.67-57.62,66.56-99.62,77.31-20.8,5.79-42.6,5.24-63.98,6.07-173.33-.08-346.67,.11-520.01-.09-26.28,.18-53.08-3.55-76.97-14.98-25-11.17-45.91-29.84-63.01-50.95-22.46-28.1-33.2-64.26-33-99.98-.06-181.67 .06-363.34-.06-545.02-.32-25.41 4.47-51.23 16.03-74 25.26-51.2 77.73-89.44 135.43-92.49m48.05,146.98c-19.81,.45-40.19,7.29-53.85,22.14-14.11,14.01-20.2,34.86-17.75,54.4 2.1,24.86 20,47.32 43.44,55.58 15.59,6.24 33.01,5.29 49.3,2.97 24.79-4.27 46.53-23.42 53.03-47.84 4.49-15.1 2.33-31.58-3.09-46.16-6.25-14.34-17.66-26.41-31.64-33.46-12.32-5.45-25.94-8.4-39.44-7.63m368.39,183.3c-26.45,3.04-51.42,15.2-71.01,33.07-9.28,8.87-16.98,19.18-24.66,29.41-.28-18.41-.17-36.83-.18-55.24-44.02-.04-88.04-.03-132.06-.01 .06,16.34 1.13,32.65 1.09,48.99-.08,70 0,140-.03,210-1.85,45.97-.7,91.99-.99,137.98 43.99,.03 87.98,.04 131.97,0 .06-73.66-.01-147.33 .02-220.99 .43-12.42 .12-25.66 5.92-37.04 7.46-15.24 19.32-28.47 34.1-36.91 18.9-9.44 41.9-9.24 61.28-1.34 15.43,6.68 25.95,21.55 30.6,37.35 8.28,23.38 5.76,48.63 6.11,72.95 .19,61.91-.43,123.82 .31,185.73 43.88,.61 87.77,.12 131.66,.26-.02-81.34 .13-162.68-.06-244.01-1.74-43.79-13.37-90.56-46.12-121.79-32.88-33.12-82.63-45.06-127.95-38.41m-432.52,7.55c-.76,55.21-.12,110.44-.33,165.67 .21,76.91-.43,153.82 .32,230.73 43.88,.62 87.78,.12 131.66,.26 .03-132.33 .04-264.65 0-396.97-43.88,.15-87.78-.43-131.65,.31Z"/>
</svg>
