<svg width="1280" xmlns="http://www.w3.org/2000/svg" height="1280" viewBox="0 0 1024 1024">
<path d="m162.45,93.55c26.78-2.57 55.7,.02 78.54,15.47 26.42,16.43 43.01,46.91 43.03,77.96 3.39,35.04-16.67,70.07-47.22,86.84-15.56,9.35-33.9,12.95-51.85,13.9-23.49,1.66-47.93-2.93-68.01-15.64-16.17-10.02-28.83-25.3-36.43-42.67-11.99-29.99-10.27-66.52 8.48-93.42 16.11-24.6 44.51-39.66 73.46-42.44Z"/>
<path d="m713.81,352.65c49.61-4.1 101.82,5.6 143.22,34.32 23.26,16.4 43.76,37.24 57.8,62.14 18.83,31.72 28.41,68.13 32.5,104.57 3.23,24.3 2.7,48.87 3.67,73.32-.01,101.32 .03,202.65-.02,303.98-62.99,.03-125.97,.04-188.96,0-.04-103.33-.04-206.66 .02-309.99 .29-26.48-4.73-53.39-16.97-77.03-6.23-12.12-15.46-22.66-26.72-30.32-11.74-7.56-25.53-11.55-39.4-12.54-23.51-2.92-48.45,2.1-67.91,15.95-16.99,12.56-30.59,29.61-38.98,49.01-7.89,18.2-7.13,38.52-8.04,57.93-.08,102.33 .04,204.66-.05,306.99-62.68,.03-125.36,.04-188.04,0 1.6-29.98 .97-59.99 1.07-89.98-.01-61.67 .03-123.33-.03-185-.09-19.01 1.47-37.99 1.07-57-.4-45 .8-90.02-.99-134.99-.58-32.99 .91-66.02-.82-98.97 62.59-.08 125.17-.05 187.75-.02 .21,26.79-.31,53.59 .27,80.37 18.43-28.87 42.84-54.26 72.53-71.61 23.61-12.89 50.36-18.96 77.03-21.13Z"/>
<path d="m84.03,365.03c62.65-.06 125.3-.05 187.95-.01 .03,188.65 .05,377.3-.01,565.95-62.65,.05-125.3,.04-187.95,.01-.03-188.65-.05-377.3 .01-565.95Z"/>
</svg>
