<svg width="1280" xmlns="http://www.w3.org/2000/svg" height="1280" viewBox="0 0 1024 1024">
<path d="m433.69,6.65c5.41-2.26 11.58-1.26 17.3-1.74 35.01,.2 70.03-.03 105.05,.08 9.26-.28 17.73,4.35 25.98,7.98 24.99,11.74 45.78,31.43 60.06,54.96 15.32,25.17 26.29,53.26 30.4,82.52 2.92,18.98-.26,38.16 .78,57.23 2.2,37.37 10.16,74.33 22.38,109.67 14.7,39.22 38.61,74.42 66.91,105.09 37.55,39.56 59.77,90.45 77.74,141.25 11.28,33.64 20.13,68.6 20.36,104.27-.37,15.64-2.12,32.03-9.79,45.97-4.65,8.02-14.85,9.4-20.56,16.34-9.18,10.84-16.28,23.5-27.13,32.88-10.56,8.38-22.97,15.11-36.6,16.35-13.39,1.31-28.25,.68-39.54-7.55-11.54-9.12-16.68-23.2-23.36-35.76-4.34-7.54-10.52-16.96-20.53-16.13-6.93,1.92-10.97,8.42-13.46,14.7-8.69,21.34-6.97,45.48-.76,67.25 6.9,23.9 6.64,49.05 5.78,73.67-1.04,23.75-7.84,47.11-5.34,71 2.29,14.67 10.13,28.98 22.69,37.26 8.84,6.37 20.24,8.17 30.92,7.89 17.68-1.05 33.88-9.45 47.45-20.38 22.58-18.31 45.21-37.76 72.71-48.28 25.75-11.22 53.9-17.07 77.88-32.16 5.36-4.41 12.34-8.57 14.35-15.67 2.36-7.63-3.78-14.08-8.61-19.06-9.9-7.74-21.67-12.46-33.38-16.72-7.91-3-15.68-7.17-21.11-13.81-9.42-11.43-14.14-25.96-16.62-40.35-1.61-14.47-2.08-30.83 7.61-42.85 1.93,26.57 7.6,55.45 27.43,74.77 13.77,14.42 34.38,19.38 48.04,33.94 6.72,6.26 10.16,16.53 6.93,25.36-2.89,10.21-11.5,17.21-19.5,23.51-31.54,23.33-70.54,33.67-102.12,56.92-16.84,11.56-32.72,24.47-48.18,37.8-6.88,5.78-12.99,12.67-20.89,17.12-16.17,6.66-34.14,7.49-51.39,6.57-18.48-1.62-38.21-7.94-49.53-23.57-5.07-5.83-7.27-13.72-13.05-18.97-8.35-6.95-19.43-9.2-30.01-9.76-48.78-2.65-97.67-1.08-146.43,1.11-27.23,1.02-54.69,9.79-75.79,27.4-17.89,14.76-41.51,25.58-65.13,19.71-37.08-8.61-71.74-25.1-108.64-34.39-36.84-10.47-75.45-12.77-112.11-23.91-9.24-3.41-19.04-8.21-23.58-17.45-5.25-13.03-.57-26.82 4.22-39.1 3.93-11.65 9.81-22.95 10.1-35.47-.59-22.8-12.25-44.01-10.37-66.99 .66-7.55 6.86-13.98 14.06-15.87 18.96-5.24 39.77-1.44 57.88-10.13 11.29-6.73 23.32-14.8 28.36-27.52 1.99-6.18 2.36-12.73 3.98-19 3.39,15.02 4.6,32.6-5.66,45.27-6.44,9.47-16.93,14.95-27.48,18.58-16.44,4.62-33.81,.97-50.51,3.38-8.51,1.39-11.78,11.04-10.53,18.61 2.34,12.85 8.47,24.54 14.02,36.22 3.65,8.51 5.27,17.93 4.42,27.18-2.17,15.07-12.1,27.36-16.16,41.83-1.74,5.26-2.97,12.2 .76,16.94 5.94,5.57 13.69,8.77 21.58,10.43 34.44,8.4 69.55,13.72 104.03,21.95 33.46,8.42 65.56,22.27 99.86,27.27 22.91,3.31 49.33-3.54 62.93-23.49 6.92-9.79 7.63-22.33 6.37-33.85-3.28-25.94-13.8-50.4-27.78-72.3-20.25-31.57-40.43-63.2-62.4-93.61-14.05-19.93-28.42-40-46.92-56.1-10.13-8.24-22.22-16.25-35.95-14.82-6.85,.8-12.18,5.93-18.9,6.88-3.84-3.68-3.76-9.71-4.75-14.55-1.32-15.14-.61-30.84 5.01-45.13 6.12-17.9 18.42-32.71 25.77-50.03 14.35-36.38 25.55-74.08 42.73-109.31 8.53-17.57 19.62-33.79 32.68-48.31 23.4-30.86 47.21-61.93 64.07-96.98 3.2-6.18 3.27-13.34 2.92-20.13-3.84-40.23-5.8-80.62-7.03-121-1.04-42.33-5.5-86.36 9.97-126.86 10.06-30.06 35.96-51.54 63.11-66.05m137.13,47.04c-5.36,1.49-4.02,8.36-4.43,12.43 .92,7.08-4.08,12.47-7.5,18.01 1.18,1.82 2.35,3.65 3.53,5.48 5.95-3.61 11.18-8.45 17.65-11.16 6.81-1.8 15.71-.84 20-7.68-6.25-4.7-12.52-9.39-18.78-14.07-3.07-1.9-6.72-4.85-10.47-3.01m-31.22,87.84c-14.27,2.65-28.47,10.78-34.6,24.46-9.91,18.05-5.77,39.37-4.81,58.91-11.03-7.52-24.94-6.18-37.56-5.22-2.69-.03-7.46,.04-7.52-3.65-1.1-19.9-1.81-41.44-13.92-58.24-5.71-6.67-13.77-13.13-23.16-11.7-11.72-.61-20.29,9.89-24,19.93-9.83,20.52-8.86,44.77-.89,65.74 2.5,5.23 4.88,12.36 10.93,14.11 5.96-.68 9.11-6.66 11.65-11.41-3.11-1.02-6.4-1.57-9.33-3.04-11.32-11.73-13.87-31.03-6.36-45.4 4.1-7.36 12.82-10.48 20.95-9.06 8.41-.91 13.03,7.59 16,14.05 5.08,9.76 3.76,21.09 4.06,31.69-9.38,5.95-15.85,15.03-23.53,22.81-5.54,5.85-13,9.01-19.49,13.57-7.08,4.55-12.27,12.97-11.58,21.55 .46,4.47 5.35,6.22 8.4,8.61 9.32,5.41 15.16,14.83 22.62,22.3 8.26,6.33 19.01,7.75 29.1,8.03 21.26,.15 42.3-3.93 62.46-10.49 16.33-4.96 33.44-8.71 47.93-18.13 7.08-4.11 10.47-13.22 19.25-14.52 3.91,5.05 5.74,14.33-1.49,17.24-23.03,7.9-45.36,17.68-67.72,27.31-13.89,5.8-28.26,11.02-43.3,12.7-14.7,.92-29.22-2.19-43.9-2.07 10.29,16.44 29.82,26.2 49.18,24.24 25.23-2.17 47.9-14.98 69.39-27.46 10.28-5.65 20.58-12.67 32.71-13.12 1.73,3.28 5.71,7.47 2.17,10.96-7.54,7.5-18.13,10.68-27.23,15.79-28.52,14.04-50.61,38.68-80.18,50.79-9.77,4.06-21.34,1.42-29.04-5.59-13.15-11.83-22.41-27.1-32.71-41.28-3.22-4.06-6.57-8.26-11.34-10.51-.96,7.49-1.16,15.11-2.98,22.47-5.32,19.1-16.17,35.92-25.69,53.11-5.09,9.36-7.86,19.73-9.88,30.13-2.47,11.71 .67,24.03 6.36,34.36-13.04,8.68-20.35,23.08-27.55,36.5-14.2,27.86-26.85,56.88-33.46,87.57-5.39,25.71 .03,52.22-4.02,78.02-1.48,4.91-4.2,13.03-11.12,10.05-8.67-4.03-13.98-12.55-18.29-20.68-7.38-15.13-10-32.26-9.06-48.98-.18-10.75 3.42-21.18 2.56-31.94-8.7,9.87-11,23.64-12.29,36.29-.21,20.6 5.21,41.01 13.73,59.67 4.76,11.86 16.3,18.37 25.22,26.72 35.43,34.94 76.07,63.91 113.8,96.22 6.73,5.58 11.39,13.69 12.67,22.36 1.38,11.62-3.73,23.37-12.47,30.97-5.68,5.58-13.92,6.96-21.22,9.21 9.87,18.1 24.88,33.33 31.35,53.2 5.06,13.74 4.08,28.7 5.12,43.05 5.05-3.64 10.21-7.81 12.42-13.84 1.97-4.64 1.01-9.93 .76-14.75-2.39-14.96-11.11-27.89-20.19-39.63-1.21-1.72-2.53-4.86-.22-6.21 3.63-2.56 7.85-5.08 12.53-4.27 8.48,4.2 14.45,12.11 23.13,16.05 19,9.39 40.93,9.84 61.64,8.41 19.25-1.81 38.59-4.19 57.12-9.95 19.09-5.96 37.9-15.26 50.94-30.86 8.07-8.74 12.54-20.61 22.39-27.66 4.07-3.02 7.78,2.58 8.93,6.04 5.04,18.18-.12,37.33-4.78,55.02-3.43,14.25-11.57,27.66-10.11,42.76 1.07,6.79 8.22,7.88 13.57,9.64 4.72-28.57 11.69-56.76 15.31-85.51 2.13-14.67 .5-29.56-1.73-44.11-3.51-21.1-6.13-42.45-5.23-63.88 .05-15.12 3.81-31.17 14.72-42.27 7.23-6.64 17.33-7.99 26.64-9.26 1.76-6.96 2.87-14.68 8.01-20.12 9.02-10.27 22.95-14.02 35.93-16.06 18.31-1.19 36.56,3.59 52.43,12.65-5.88-12.46-20.23-17.19-31.64-23.05 7.27-24.28 11.84-49.97 7.25-75.25-6.07-28.94-9.14-59.47-24.52-85.42-12.93-22.17-27.35-44.83-49.14-59.29 4.97,7.12 10.91,13.53 15.41,21 15.55,25.11 28.67,51.84 38.28,79.79 9.91,29.03 14.9,60.45 9.14,90.89-2.04,10.36-3.98,22.14-12.74,29.15-5.39,4.95-12.59,7.19-19.8,7.24-5.28-.05-11.45,.48-15.78-3.18-4.54-3.95-5.98-10.25-7-15.89-2.87-16.49-1.88-33.31-2.89-49.95-.97-34.56-9-68.64-21.46-100.8-6.02-15.62-15.22-29.97-27.13-41.74-7.37-28.02-15.02-56.48-29.16-82.02-9.25-14.9-22.6-27.73-26.73-45.32-4.8-14.87 .92-30.3 4.58-44.72 2.19-7.93 2.51-17.23-2.58-24.17-7.54-6.75-17.78-8.15-27.07-11.01-12.75-3.42-23.81-10.97-36.02-15.75-3.71-1.64-8.51-3.05-9.61-7.52-4.18-14.89-2.08-31.56 6.02-44.77 3.97-5.82 10.8-9.46 17.89-9.04 8.53-.89 17.98,1.45 23.45,8.44 7.95,10.24 11.06,24.05 8.68,36.75-1.06,4.84-3.63,9.22-4.62,14.07-.68,3.85 2.63,7.55 6.46,7.65 4.85-.12 10.4,.47 14.69-2.34 4.06-3.58 5.09-9.52 5.2-14.67 .34-13.68 1.13-27.74-2.87-41.01-2.93-12.94-8.96-26.06-20.08-33.91-10.14-7.82-23.74-11.51-36.34-8.55m8.69,44.47c3.93,3.92 9.2,6.76 11.47,12.09 1.69,3.39 2.48,7.11 3.55,10.72 1.65-.73 3.31-1.44 4.99-2.13-.24-8.14-3.15-17.11-10.95-20.95-2.95-.79-6.07,.22-9.06,.27m-131.31,2.31c.9,4.39 4.48,7.04 6.69,10.59 .97,4.61 .31,9.5 1.46,14.09 1.05,2 3.36,2.89 5.11,4.19 .85-8.09 1.97-17.27-3.33-24.13-1.41-4.46-6.2-4.53-9.93-4.74m213.68,122.26c1.32,9.36 8.32,16.62 14.56,23.21 4.92,4.4 10.92,10.22 18.13,8.61 7.63-3.73 9.35-16.05 3.25-21.86-5.5-2.85-11.81-3.85-17.15-7.03-5.56-4.52-9.95-10.26-14.97-15.33-2.28,3.71-5.04,7.74-3.82,12.4m-332.2,170.61c-1.87,4.9-3.35,9.99-5.87,14.62-2.86,5.77-7.12,10.79-9.31,16.91 12.06-.83 17.59-14.58 19.59-24.7 2.72-4.64-1.9-5.34-4.41-6.83Z"/>
<path d="m486.88,229.77c4.25-.22 8.48-.41 12.76-.24 2.85,.53 3.67,3.82 5.14,5.92-1.27,.87-2.52,1.76-3.76,2.66-4.66-2.89-9.25-5.87-14.14-8.34Z"/>
<path d="m435.1,237.11c1.08-5.91 8.35-6.52 12.99-7.64-3.08,3.79-5.36,8.4-9.26,11.4-2.57,1.2-4.61-1.3-3.73-3.76Z"/>
</svg>
