<svg width="1280" xmlns="http://www.w3.org/2000/svg" height="1280" viewBox="0 0 1024 1024">
<path d="m49.39,119.42c17.57-9.49 38.08-10.28 57.59-10.43 270.01,.02 540.03,.02 810.04,0 15.03,.33 30.46,.37 44.9,5.16 16.68,5.27 31.05,16.43 42,29.9 11.48,13.19 17.69,30.24 20.08,47.4v641.13c-3.82,32.19-25.64,61.25-55.26,74.23-12.85,5.39-26.83,7.54-40.72,7.21-280.01-.08-560.03,.05-840.04-.06-34-.28-65.44-22.83-79.84-53.08-4-9.04-6.36-18.74-8.14-28.43v-640.86c1.87-9.71 3.6-19.65 8.07-28.57 8.43-18.6 23.71-33.58 41.32-43.6m38.02,210.13c-9.56,1.68-15.51,12.11-14.37,21.41-.09,155.02-.01,310.05-.04,465.07 .34,5.29-.31,11.37 3.03,15.94 4.11,6.7 12.28,9.91 19.94,9.1 276.69-.17 553.38-.03 830.06-.07 6-.14 12.96,.14 17.69-4.32 6.57-4.64 7.72-13.24 7.3-20.65-.06-155.02 .04-310.05-.06-465.07 1.64-11.01-7.44-22.85-18.98-21.79-271.65-.44-543.32,.02-814.98-.22-9.86,.02-19.76-.37-29.59,.6Z"/>
<path d="m160.41,402.55c13.15-1.11 26.39-.85 39.58-.38 9.47-.66 19.25,6.9 19.21,16.77 1.29,12.53 1.19,25.21 .48,37.78-.24,9.59-8.55,19.27-18.7,18.1-13.54,.45-27.14,.69-40.66-.25-7.34-1.6-12.87-8.69-13.81-15.98-.98-13.12-.92-26.32-.18-39.44 .76-7.58 6.49-15 14.08-16.6Z"/>
<path d="m307.42,402.57c13.16-1.19 26.39-.48 39.58-.58 170.01-.01 340.03,.07 510.04-.04 9.8-1.32 19.44,6.76 20.45,16.45 .96,13.39 .97,26.88 .08,40.28-1.18,6.9-6.08,14.08-13.21,15.67-13.41,1.33-26.92,.51-40.36,.66-170.01,.03-340.02-.1-510.03,.07-5.44,.39-11.42-.51-15.28-4.76-6.93-5.5-6.47-15.35-6.77-23.3 .05-10.33-.68-20.8 1.14-31.02 1.4-6.8 7.54-12.39 14.36-13.43Z"/>
<path d="m162.42,548.53c13.12-.99 26.32-.93 39.46-.26 7.42,.35 15.14,5.61 16.62,13.15 2.51,13.58 1.72,27.57 1.17,41.3-.45,8.12-5.51,16.24-13.87,17.98-13.34,2.35-27.05,1.46-40.51,.97-8.95-.12-18.22-6.84-18.67-16.26-1.23-13.37-.95-26.86-.29-40.26 .75-8.21 7.73-15.9 16.09-16.62Z"/>
<path d="m309.38,548.49c9.84-.88 19.74-.52 29.62-.54 173.33,.22 346.68-.19 520.01,.2 9.02,.03 17.56,7.24 18.49,16.26 .93,13.12 .89,26.32 .23,39.47-.29,6.47-4.26,12.85-10.12,15.68-5.89,2.27-12.41,2.1-18.59,2.41-176.68,.11-353.36-.08-530.04,.1-7.13,.16-14.9-.79-20.6-5.45-3.75-3.59-5.58-8.9-5.95-13.98-.82-12.02-.91-24.12 0-36.13 .29-9.02 7.53-17.87 16.95-18.02Z"/>
<path d="m165.42,694.51c11.99-.83 24.09-1.09 36.07-.06 7.89,.56 15.51,5.7 17.21,13.75 2.35,13.33 1.47,27.04 .97,40.51-.11,8.95-6.84,18.22-16.26,18.67-13.37,1.22-26.86,.95-40.26,.29-5.9-.49-11.5-4.31-14.43-9.4-4.49-10.46-2.31-22.24-2.91-33.27 .38-7.59-1.02-16.58 4.21-22.98 3.14-5.42 9.57-7.19 15.4-7.51Z"/>
<path d="m311.36,694.43c11.52-.85 23.09-.42 34.64-.45 170,.1 340.01-.08 510.01,.08 8.06-.12 17.22,3.7 20.25,11.65 2.74,9.83 1.59,20.21 1.91,30.3-.73,7.91 1.53,17.34-4.23,23.94-4.83,8.11-15.62,8.12-23.91,8.13-178.35-.22-356.7,.02-535.05-.11-8.44,.68-18.32-3.33-21.1-11.86-2.63-10.48-1.86-21.44-2.02-32.13 .06-8.02 .04-17.11 5.52-23.59 3.6-3.75 8.88-5.62 13.98-5.96Z"/>
</svg>
