<svg width="1280" xmlns="http://www.w3.org/2000/svg" height="1280" viewBox="0 0 1024 1024">
<path d="m13.2,110.35c13.11-2.44 26.55-1.17 39.8-1.42 24.87,.55 49.78-.86 74.62,.56 9.14,.1 18.99,7.7 18.14,17.52 .82,33.33-.13,66.68 .4,100.02-.36,8.39 1.11,19.66-7.27,24.84-6.51,5.87-15.98,3.54-23.87,4.26-31.67-.46-63.35,.4-95.01-.34-9.1,.7-16.55-6.06-20.01-13.92v-117.58c2.4-6.02 6.49-12.41 13.2-13.94Z"/>
<path d="m220.15,123.99c.81-10.01 11.88-15.03 20.82-14.93 250.01-.2 500.04,.09 750.05-.14 7.33,.27 14.91-.11 22.03,2.08 5.47,2.4 8.37,8.11 10.95,13.19v117.64c-3.77,9.91-14.42,15.86-24.96,14.18-251.69-.02-503.39-.02-755.08,0-10.71,1.71-23.71-4.77-24.38-16.52-1.63-22.12-.12-44.34-.59-66.49 .25-16.33-1.21-32.79 1.16-49.01Z"/>
<path d="m0,343.22c2.73-7.51 9.27-14.92 18-14.03 33.33-.66 66.69,.07 100.03-.3 6.25,.6 13.12-.69 18.99,2.09 5.43,3.32 9.48,9.43 8.78,16.03 .83,21.65-.09,43.33 .2,64.99-.16,16.52 .85,33.09-.59,49.58-1.51,7.61-8.89,12.87-16.37,13.32-21.67,.67-43.36-.19-65.04,.1-16.78-.16-33.62,.87-50.36-.74-6.88-1.05-10.55-7.83-13.64-13.39v-117.65Z"/>
<path d="m225.63,333.63c3.95-4.06 9.88-5.16 15.33-4.78 255.01,.47 510.03-.2 765.04,.34 8.73-.89 15.26,6.52 18,14.03v117.51c-2.97,8.55-11.52,15.62-20.96,14.29-253.36-.05-506.72,.01-760.08-.03-4.79-.53-10.19,.32-14.46-2.43-5.22-3.51-9.08-9.25-9.14-15.72-1.09-31.6 .06-63.24-.51-94.86 .78-9.37-1.45-21.6 6.78-28.35Z"/>
<path d="m9.04,551.07c6.46-4.39 14.65-2.66 21.94-3.22 31.67,.44 63.34-.32 95,.33 6.38-.5 12.59,2.29 16.57,7.3 4.5,6.19 3.07,14.32 3.61,21.49-.24,30.02-.13,60.04-.05,90.06-.83,6.82 1.46,15.56-4.24,20.85-5.69,7.12-15.6,6.88-23.84,7.16-26.68,.16-53.36-.19-80.04,.08-9.01-.31-18.28,.43-27.04-2.12-5.48-2.41-8.38-8.11-10.95-13.19v-117.65c1.86-4.46 5.02-8.39 9.04-11.09Z"/>
<path d="m223.26,555.24c4.65-6.5 13.38-7.22 20.7-7.33 238.34,.2 476.69,.04 715.04,.08 16.51,.14 33.08-.8 49.57,.61 7.33,1.06 12.38,7.22 15.43,13.53v117.58c-2.79,7.86-9.37,14.85-18.27,14.97-15.88,1.08-31.83,.11-47.73,.32-235.01,.04-470.02-.09-705.02,.07-7.85-.39-16.06,.19-23.58-2.51-8.34-3.79-10.59-14.13-10.42-22.51-.21-30.02 .15-60.05-.07-90.07 .49-8.29-.95-17.61 4.35-24.74Z"/>
<path d="m0,782.22c2.73-7.51 9.27-14.92 18-14.03 33.33-.67 66.69,.07 100.03-.3 6.25,.58 13.12-.69 18.99,2.09 5.43,3.32 9.48,9.43 8.78,16.03 .76,31.66-.19,63.33 .36,95-.84,9.47 2.34,21.09-5.83,28.31-8.78,7.4-20.93,4.07-31.33,4.84-31.51-.83-63.07,.95-94.55-.79-7.3-.61-11.27-7.71-14.45-13.5v-117.65Z"/>
<path d="m225.63,772.63c3.95-4.06 9.88-5.16 15.33-4.78 255.01,.47 510.03-.2 765.04,.34 8.73-.9 15.26,6.52 18,14.03v117.51c-2.41,6.59-7.99,12.8-15.12,13.96-15.28,.94-30.6,.22-45.88,.32-240.01-.03-480.03,.02-720.04-.02-4.79-.54-10.19,.33-14.46-2.43-5.22-3.51-9.08-9.25-9.14-15.72-1.09-31.6 .06-63.25-.51-94.86 .78-9.38-1.45-21.6 6.78-28.35Z"/>
</svg>
