<svg width="1280" xmlns="http://www.w3.org/2000/svg" height="1280" viewBox="0 0 1024 1024">
<path d="m64.01,119.04c25.66-11.94 55.91-11.97 82.61-3.58 22.09,7.33 40.52,23.22 54.09,41.82 20.93,29.98 23.82,70.42 10.84,104.17-8.49,19.35-22.07,36.58-39.64,48.44-28.86,20.86-67.96,23.99-101.08,12.36-25.19-9.34-46-28.82-58.8-52.24-6.94-12.41-10.17-26.49-12.03-40.47v-20.96c2.22-13.45 5.18-27 11.37-39.24 11.74-21.65 30.02-40.17 52.64-50.3Z"/>
<path d="m296.01,154c3.79-6.39 11.95-8.57 18.95-8.08 215.01,.18 430.03,.03 645.04,.08 16.77,.21 33.62-.93 50.35,.75 6.72,1.4 11.13,7.58 13.65,13.55v117.43c-2.73,7.94-9.92,15.39-18.97,14.22-228.35,.2-456.71-.14-685.06,.16-7.54-.56-17.21,1.43-22.34-5.75-6.22-5.68-4.18-14.88-4.79-22.33 .35-31.69-.02-63.39 .13-95.07 .48-5.03-.54-10.77 3.04-14.96Z"/>
<path d="m49.03,420.07c22.63-15.67 51.51-20.88 78.5-16.59 44.89,6.06 83.02,44.01 90.38,88.53 2.32,19.56 1.92,40.07-5.25,58.66-6.8,18.67-19.27,34.87-34.75,47.21-26.33,22.41-63.88,28.12-96.91,20.06-26.36-6.64-49.3-24.24-63.98-46.95-9.79-14.33-14.58-31.42-17.02-48.43v-20.97c.7-5.01 1.69-9.98 2.75-14.91 5.45-27.35 23.59-51.02 46.28-66.61Z"/>
<path d="m304.11,440c12.16-2.01 24.61-.87 36.89-1.06 221.66,.26 443.33-.23 664.98,.24 8.76-.92 15.35,6.52 18.02,14.09v117.43c-2.8,7.09-8.84,13.96-16.98,14.18-230.01,.29-460.04,.03-690.06,.13-7.46,.29-16.87-.72-20.94-8.02-4.73-5.94-2.43-14.06-3.17-20.97 .54-33.33-.42-66.68 .39-99.99-.85-7.26 4.72-13.26 10.87-16.03Z"/>
<path d="m8.89,759.93c17.14-38.77 58.1-67.19 101.11-65.02 52.95-2.22 102.21,41.45 108.39,93.64 1.86,20.69 .75,42.42-8.48,61.4-16.79,36.87-55.03,63.69-95.92,63.97-18.85,.25-38.33-2.67-54.99-11.95-32.48-17.06-55.81-50.69-59-87.43v-20.96c1.95-11.43 4.18-22.99 8.89-33.65Z"/>
<path d="m296.01,739c3.14-5.55 9.92-7.96 16.02-7.8 14.98-.71 29.98-.13 44.97-.2 203.33-.02 406.67,.03 610-.02 14.63,.23 29.43-1.14 43.96,1.14 6.56,1.39 10.09,7.64 13.04,13.06v117.58c-2.33,4.75-4.9,9.83-9.64,12.58-4.4,2.23-9.64,1.24-14.32,1.74-228.36-.18-456.73-.03-685.08-.08-5.37-.37-11.91,.42-15.83-4.14-7.51-5.58-5.98-15.68-6.29-23.83 .35-31.7-.02-63.39 .13-95.07 .48-5.05-.54-10.77 3.04-14.96Z"/>
</svg>
