<svg width="1280" xmlns="http://www.w3.org/2000/svg" height="1280" viewBox="0 0 1024 1024">
<path d="m87.35,5.2c22.21-.37 44.43-.19 66.64-.19 .03,75.33-.02,150.66 .02,225.99 20.32-.02 40.65,.02 60.97,0 .05,19 .04,38 0,56.99-63.65,.01-127.3,.02-190.96,0-.05-19-.04-38-0-56.99 20.32,.02 40.64-.02 60.97,0-.01-48.71 .08-97.41-.05-146.11-8.22,11.86-18.65,21.95-29.57,31.3-13.14-14.89-27.24-28.91-40.32-43.85 24.41-22.04 48.14-44.83 72.3-67.14Z"/>
<path d="m303.41,141.54c14.82-1.23 29.73-.38 44.59-.54 215.01-.03 430.01,.06 645.02-.05 7.09-.08 15.31-.11 20.82,5.21 6.33,6.27 5.73,15.69 6.14,23.82 .16,30.01-.1,60.02 .12,90.03 .18,7.45-.66,15.6-5.48,21.61-3.59,3.75-8.93,5.55-13.99,5.94-14.86,1.02-29.76,.31-44.63,.44-213.34,.01-426.68-.02-640.02,.02-5.69-.28-11.59-.02-17.02-2.01-6.83-3.05-11.3-10.53-10.76-18.02-.59-33.33 .01-66.68-.28-100.02 .54-6.96-.88-15.86 5.2-20.87 2.81-2.73 6.4-4.86 10.29-5.56Z"/>
<path d="m7.54,422.51c16.93-38.46 58.83-62.99 100.45-61.61 28.05-1.68 56.45,9.04 76.75,28.38 26.7,26.59 30.78,72.76 9.19,103.68-12.05,17.37-27.6,32.38-45.87,43.11-17.89,10.28-35.42,21.41-51.06,34.93-7.64,6.41-13.14,15.19-15.47,24.89 24.14,.23 48.28,.08 72.43,.1 .04-11.23-.03-22.45 .27-33.66 20.15-.5 40.3-.56 60.45-.1 .69,30.24 .18,60.5 .31,90.76-69.16-.14-138.33,.34-207.49-.24-3.15-19.72-5.5-40.33 .55-59.73 7.05-27 25.17-50.15 47.07-66.93 20.77-16.06 44.11-28.66 63.49-46.51 8.4-7.42 16.17-17.63 14.51-29.58 .8-10.66-6.47-21.1-16.42-24.68-13.98-5.66-30.24-1.63-41.49,7.88-7.97,5.81-13.27,14.27-18.76,22.27-17.08-9.81-32.18-22.61-48.91-32.96Z"/>
<path d="m301.42,434.56c13.16-1.17 26.39-.48 39.58-.58 220.01,.09 440.03-.08 660.05,.08 7.34-.83 14.07,4.5 16.96,10.91 2.57,8.75 1.8,18.01 2.08,27.03-.22,26.67 .03,53.35-.07,80.02-.32,8.14 .34,18.42-7.3,23.66-4.73,4.45-11.69,4.16-17.69,4.32-228.35,.05-456.71-.1-685.06,.07-8.99,1.35-18.34-4.33-21.1-12.94-1.55-10.29-.79-20.77-.93-31.13 .38-28.34-.4-56.69 .22-85.01-.03-7.57 5.58-15.31 13.26-16.43Z"/>
<path d="m14.01,726.01c63.32-.01 126.64-.02 189.96,0-.3,16.86 .94,33.8-.51,50.61-6.02,9.34-14.02,17.25-20.89,25.99-10.58,13.27-21.98,25.9-32.04,39.58 11.79,3.64 23.8,7.88 33.46,15.83 12.87,10.11 22.17,24.52 26.6,40.25 7.96,33.25-.97,71.99-28.23,94.11-25.41,21.98-60.66,28.97-93.41,25.83-30.64-2.37-60.57-15.11-82.36-37 10.57-16.85 21.5-33.47 32.34-50.15 16.26,13.72 36.09,25.46 58.05,25.05 12.32,.96 25.33-2.05 34.75-10.38 12.06-9.89 11.85-29.46 2.89-41.36-3.99-3.85-8.53-7.45-13.92-9.06-12.82-3.82-26.44-4.83-39.71-3.34-4.9-10.79-11.21-21.08-14.41-32.55 19.6-27.03 39.2-54.35 63.64-77.32-18.41-.42-36.81,.08-55.19,1.02-.02,9.94-.05,19.9-.06,29.86-20.32,.04-40.64,.04-60.96,0-.03-28.99-.02-57.98 0-86.97Z"/>
<path d="m303.41,726.51c14.83-1.13 29.73-.38 44.59-.51 215.01-.03 430.01,.06 645.02-.05 7.09-.09 15.31-.11 20.82,5.21 6.33,6.27 5.73,15.68 6.14,23.82 .16,30-.1,60.02 .12,90.03 .18,7.45-.66,15.6-5.48,21.61-3.59,3.75-8.93,5.54-13.99,5.94-14.86,1.01-29.76,.3-44.63,.44-203.33,.01-406.67-.02-610,.01-13.49-.11-27,.56-40.46-.54-10.03-.03-18.13-9.69-17.34-19.48-.67-31.66 .14-63.33-.32-94.99 .49-7.98-1.62-16.87 3.19-23.96 2.34-4.53 7.5-6.82 12.34-7.53Z"/>
</svg>
