<svg width="1280" xmlns="http://www.w3.org/2000/svg" height="1280" viewBox="0 0 1024 1024">
<path d="m849.98,118.96c7.74-3.56 15.22-8.82 24.07-8.9 20.4-3.22 40.86,15.44 40.08,35.94 .29,5.95-1.79,11.65-4.13,17-121.65,243.34-243.37,486.66-364.98,730.02-3.18,5.84-6.96,11.69-12.57,15.47-14.29,9.18-34.83,7.03-46.76-5.16-8.43-7.94-10.94-20.17-10.68-31.3-.04-108.01 .02-216.01-.02-324.02-110.01-.08-220.02,.09-330.03-.06-18.72,.65-35.71-16.16-35.08-34.94-1.34-14.26 7.61-27.75 20.13-33.97 239.94-120.12 480.03-239.95 719.97-360.08Z"/>
</svg>
