<svg width="1280" xmlns="http://www.w3.org/2000/svg" height="1280" viewBox="0 0 1024 1024">
<path d="m440.37,22.88c47.72,.23 95.43,.12 143.15,.06 2.48,16.22 1.31,32.72 1.48,49.06 0,224-.01,448 .01,671.99 40,.04 80,0 120.01-.05 6.72,.11 14.11,.12 19.84,4.19 6.98,6.86 8.86,19.2 2.07,26.78-66.05,72.94-132.61,145.43-198.74,218.3-5.81,7.63-18.43,9.87-25.82,3.39-6.86-5.8-12.68-12.66-18.73-19.26-61.26-66.4-122.76-132.59-183.92-199.08-6.61-6.08-9.96-16.31-4.79-24.3 4.04-10.23 16.96-9.66 26.05-9.95 39.33-.13 78.67,.08 118.02-.02-.04-235 .09-470-.07-705 .11-5.39 .13-10.85 1.44-16.11Z"/>
</svg>
