<svg width="1280" xmlns="http://www.w3.org/2000/svg" height="1280" viewBox="0 0 1024 1024">
<path d="m494.02,27c4.31-4.93 9.99-9.68 17.03-9 5.57-.47 10.18,3.41 14.03,6.9 62.51,67.81 125.26,135.43 187.78,203.24 5.15,5.52 10.64,10.78 15.18,16.84 6.31,8.73 2.69,22.35-6.67,27.41-4.15,1.91-8.96,1.21-13.34,1.62-41,.08-82-.12-123,.02-.12,238.33 .09,476.66-.11,714.99-.2,9.06-8.74,16.86-17.88,15.94-36.69,.11-73.38,.06-110.07,.02-7.48,.9-15.48-4.31-17.3-11.64-1.42-13.4-.49-26.91-.67-40.34-.01-226.32 .03-452.65-.03-678.97-43.65-.25-87.31,.28-130.95-.18-12.68-.97-19.89-17.45-13.04-27.86 5.88-8 13.16-14.84 19.76-22.23 59.7-65.64 119.58-131.12 179.28-196.76Z"/>
</svg>
