<svg width="1280" xmlns="http://www.w3.org/2000/svg" height="1280" viewBox="0 0 1024 1024">
<path d="m254.49,292.54c6.82-.5 13.3,3.36 17.15,8.81 2.83,4.29 1.93,9.77 2.38,14.62 .06,41-.13,82 .01,123.01 233.32-.01 466.65,.12 699.97-.07 7.86,.74 17.13-2.23 23.96,3.14 7.35,3.74 7.34,12.91 7.83,19.99 .58,31.65-.01,63.32 .27,94.97-.19,8.12 .35,17.68-6.49,23.52-4.5,4.69-11.61,4.36-17.54,4.48-236,0-472-.04-708.01,.02-.17,43.33 .17,86.66-.08,129.99-.31,11.62-14.65,19.39-24.98,15.03-3.69-1.77-6.8-4.48-9.89-7.1-70.4-64.27-140.86-128.49-211.37-192.64-5.08-4.8-10.44-10.81-9.66-18.34-.1-5.45 3.88-9.84 7.27-13.63 71.71-65.96 143.28-132.08 214.95-198.08 4.21-3.4 8.47-7.48 14.23-7.72Z"/>
</svg>
