<svg width="1280" xmlns="http://www.w3.org/2000/svg" height="1280" viewBox="0 0 1024 1024">
<path d="m753.34,299.32c5.21-6.51 14.93-8.87 22.52-5.22 7.29,4.89 13.44,11.24 19.96,17.08 67.45,61.55 134.96,123.05 202.48,184.53 6.41,5.03 8.72,13.8 5.87,21.43-4.51,8.51-12.63,14.08-19.45,20.57-68,62.67-135.93,125.42-204,188.01-6.37,6.52-17.8,7.33-24.63,1.18-7.43-4.56-6.87-14.36-7.11-21.87-.06-40 .12-80-.02-119.99-226.65-.09-453.31-.02-679.96-.03-12.22-.16-24.5,.62-36.69-.41-8.7-1.51-14.77-9.94-14.15-18.61-.42-36.67-.06-73.36-.18-110.03-.05-9.21 8.61-17.88 18.04-16.79 237.65-.42 475.31-.02 712.96-.19 .11-40.01-.06-80.01 0-120.01 .51-6.51-.5-14.43 4.36-19.65Z"/>
</svg>
