<svg width="1280" xmlns="http://www.w3.org/2000/svg" height="1280" viewBox="0 0 1024 1024">
<path d="m172.12,49.07c1.61,.01 4.84,.02 6.46,.03 4.75,14.77 8.2,30.1 13.96,44.49 17.44,8.43 37.02,11.34 55.02,18.46-18.36,5.92-36.89,11.29-55.27,17.14-5.59,18.4-10.91,36.88-16.93,55.14-6.17-17.23-10.53-35.05-16.44-52.35-.71-2.88-3.72-3.86-6.2-4.71-16.46-4.88-32.91-9.78-49.23-15.13 17.16-6.95 35.42-10.75 52.86-16.86 2.04-.76 2.57-3.08 3.25-4.9 4.23-13.75 8.18-27.59 12.52-41.31Z"/>
<path d="m537.51,49.49c1.65-.15 4.95-.43 6.6-.58 4.66,15.26 9.27,30.54 14.08,45.75 18.34,5.84 36.77,11.35 55.15,17.05-17.4,6.42-35.44,10.88-53.02,16.75-1.7,.47-2.68,1.97-3.14,3.58-5.23,16.32-9.62,32.92-15.06,49.17-.1,1.81-2.15,1.81-2.24,0-5.44-16.25-9.83-32.85-15.06-49.17-.48-1.61-1.45-3.11-3.14-3.58-17.58-5.87-35.62-10.33-53.02-16.75 18.44-5.89 37.13-10.96 55.38-17.41 4.41-14.96 9.34-29.77 13.47-44.81Z"/>
<path d="m810.42,54.51c12.09-2.14 24.13,2.88 32.35,11.7 36.92,37.08 74.03,73.99 110.96,111.06 8.01,7.52 11.63,18.83 10.24,29.7 .06,10.18-6.18,19.01-13.2,25.8-237.54,237.45-475.01,474.99-712.52,712.48-8.12,7.87-15.49,16.6-24.62,23.36-12.91,7.99-31.14,7.67-42.98-2.22-7.19-5.78-13.36-12.67-19.91-19.13-26.99-27.02-53.98-54.02-81-81-6.61-6.72-13.83-12.92-19.3-20.66-9.02-13.56-8.02-33.75 3.79-45.35 245.54-245.47 490.99-491.03 736.54-736.49 5.14-5.39 12.25-8.6 19.65-9.25m-31.67,124.24c-43.56,43.65-87.29,87.12-130.74,130.87 20.46,20.12 40.5,40.65 60.99,60.74 55.91-55.67 111.69-111.47 167.38-167.37-20.13-20.3-40.3-40.54-60.66-60.61-12.82,11.61-24.64,24.26-36.97,36.37Z"/>
<path d="m325.21,183.17c10.88-35.56 21.54-71.21 32.69-106.69 12.3,35.37 21.87,71.64 33.57,107.2 .07,3.33 3.06,4.41 5.55,5.25 35.84,10.6 71.5,21.8 107.26,32.65-31.49,9.88-63.07,19.44-94.65,29.03-5.3,1.72-10.9,2.66-15.88,5.2-1.41,.62-1.88,2.16-2.4,3.47-10.96,36.02-21.89,72.05-33.1,108-12.06-36.84-22.72-74.13-34.38-111.1-36.85-12.05-74.24-22.46-111.09-34.51 32.93-10.67 66.11-20.55 99.26-30.54 4.63-1.75 11.74-2.08 13.17-7.96Z"/>
<path d="m906.55,404.78c5.66,16.85 10.62,33.92 15.74,50.94 .79,2.25 1.67,5.01 4.3,5.66 17.49,5.56 35.22,10.43 52.66,16.17-17.03,5.96-34.49,10.57-51.68,16.01-1.75,.65-3.75,1.54-4.3,3.51-5.86,17.63-10.61,35.62-16.63,53.21-5.32-16.76-10.34-33.61-15.38-50.45-.88-2.23-1.56-5.16-4.24-5.82-17.71-5.66-35.64-10.63-53.3-16.43 16.58-4.98 33.07-10.26 49.7-15.07 2.9-1.11 6.75-1.93 7.09-5.85 5.92-17.1 10.67-34.6 16.04-51.88Z"/>
</svg>
