<svg width="1280" xmlns="http://www.w3.org/2000/svg" height="1280" viewBox="0 0 1024 1024">
<path d="m103.43,73.57c13.16-1.09 26.38-.52 39.57-.58 61.68,.04 123.36,0 185.04-.02 16.24-.98 31.02,11.05 35.97,26.03 2.36,9.12 1.86,18.66 2.07,28-.21,66.67 .03,133.34-.11,200.02 .04,11.87-5.12,23.96-15.02,30.89-10.07,8.85-24.56,7.47-36.94,8.09-67.63-.12-135.27,.25-202.89-.18-20.07,.37-39.32-17.07-38.05-37.79-.23-70.01 .07-140.03-.13-210.04 .4-6.94-.42-14.26 2.16-20.87 4.42-12.01 15.51-21.82 28.33-23.55Z"/>
<path d="m688.43,73.57c13.16-1.09 26.38-.52 39.57-.58 61.68,.04 123.36,0 185.04-.02 16.24-.98 31.02,11.05 35.97,26.03 2,7.48 1.82,15.31 2.04,22.99-.07,66.67-.09,133.35 .01,200.02 .02,6.52-.4,13.2-2.58,19.4-4.06,10.39-12.85,19.13-23.6,22.4-10.1,2.35-20.59,2.02-30.88,2.23-65.33-.16-130.67,.11-196-.12-11.28,.1-22.83-3.88-30.3-12.62-8.26-7.64-10.05-19.56-9.77-30.27 .32-71.67-.3-143.34 .3-215-.16-16.73 13.78-32.17 30.2-34.46Z"/>
<path d="m102.43,439.55c11.5-.97 23.05-.56 34.57-.58 63.34,.1 126.68-.03 190.03,.03 19.34-2.11 37.49,14.55 38.37,33.66 1.61,28.4-.15,56.88 .77,85.32 .97,26.16 15.05,50.4 34.18,67.66 21.98,17.55 49.86,25.16 77.09,29.86 27.01,3.54 54.91,4.21 81.5-2.49 24.19-5.3 48.99-13.36 67.53-30.52 16.45-16.05 28.78-37.24 30.62-60.5 2.5-31.05-.56-62.28 1.56-93.34 3.03-16.3 18.08-30.63 35.31-29.6 73.36-.16 146.72,.04 220.08-.1 18.56-.87 35.39,15.4 36.36,33.71 1.26,18.41 .36,36.89 .63,55.34 .24,40.23-2.07,80.81-12.11,119.92-17.35,72.08-56.98,138.35-111.32,188.67-50.05,46.15-112.15,78.2-177.54,96.4-64.27,16.9-131.69,21.28-197.73,14.66-78.65-8.21-156.01-35.15-220.26-81.73-59.76-42.82-106.7-103.31-133.04-171.97-19.63-50.42-27.04-105.05-26.06-158.95 .45-22.12-.84-44.3 .61-66.38 2.89-13.97 14.28-27.06 28.85-29.07Z"/>
</svg>
