<svg width="1280" xmlns="http://www.w3.org/2000/svg" height="1280" viewBox="0 0 1024 1024">
<path d="m500.45,9.55c17.58-1.77 35.54,.05 52.25,5.82 25.49,8.06 47.14,25.7 63.11,46.82 22.29,29.3 28.64,68.89 20.78,104.41-5.29,23.75-18.11,45.54-35.77,62.22-31.97,33.2-83.08,43.89-126.7,30.99-34.52-10.49-63.57-36.43-79.05-68.88-16.55-37.55-15.45-83.46 6.04-118.85 20.62-34.96 58.4-60.22 99.34-62.53Z"/>
<path d="m284.95,291.93c15.92-7.22 33.74-8.94 51.04-8.96 118.34,.07 236.68,0 355.03,.03 22.64-.21 45.86,5.31 64.58,18.42 14.71,10.79 28.11,24.13 36.38,40.59 8.85,16.09 12.27,34.74 12.04,52.98 0,78.34-.09,156.68 .05,235.02 1.21,23.59-15.76,46.06-37.97,53.11-14.89,3.6-31.75,3.15-45.03-5.19-12.13-7.59-22.16-19.67-24.91-33.96-2.01-8.16-2.14-16.61-2.2-24.96 .05-63 .06-126 .02-189-11.99-.06-23.98-.05-35.96,.01-.09,175 .06,350-.06,525-1,23.62-17.46,44.76-38.51,54.54-17.73,7.33-38.77,6.98-55.67-2.38-16.09-9.59-29.76-25.32-32.61-44.31-1.22-6.2-1-12.6-1.21-18.86 .06-86 .06-172 .02-258-11.99-.07-23.98-.05-35.96,.01-.04,76.66-.03,153.32 0,229.98-.06,14.95 .44,29.97-1.27,44.86-2.82,18.41-14.57,34.91-30.31,44.64-19.55,11.91-45.73,12.49-65.33,.37-15.44-9.53-27.47-25.35-30.48-43.45-1.27-8.74-1.53-17.6-1.63-26.41-.02-168.66 .04-337.33-.02-505.99-11.99-.08-23.98-.06-35.96,0-.04,65-.04,130 .03,195 .28,11-1.44,22.35-6.99,32-9.22,17.64-29.03,29.44-49.06,28.11-22.44,1.08-43.19-14.78-50.7-35.42-3.82-10.14-3.2-21.09-3.37-31.71 .17-75 .02-150.01 .07-225.02-.38-18.65 4.62-37.22 13.39-53.61 12.12-20.62 30.45-37.97 52.56-47.44Z"/>
</svg>
