<svg width="1280" xmlns="http://www.w3.org/2000/svg" height="1280" viewBox="0 0 1024 1024">
<path d="m494.45,73.58c41.58-2.74 83.82,3.24 122.76,18.2 35.21,13.43 67.35,34.46 94.54,60.47 48.01,44.43 81.72,105.11 89.56,170.43 5.58,47.93 4.69,98.64-15.17,143.46-66.29,140.72-132.38,281.54-198.69,422.25-4.46,9.21-8.29,18.76-13.51,27.59-12.4,20.54-35.82,34.26-59.93,34.11-28.15,1.91-56.89-14.97-67.98-41.1-65.78-139.28-131.44-278.61-197.21-417.9-7.02-15.16-14.84-30.05-19.69-46.09-8.84-30.77-10.77-63.11-9.92-94.95 2.24-53.01 19.28-105.51 49.89-148.97 39.34-56.07 97.16-100.43 163.83-118.08 20.11-5.27 40.76-8.36 61.52-9.42m8.99,145.91c-55.22,1.7-106.05,39.24-127.28,89.67-14.71,34.83-14.33,75.39-.89,110.54 11.9,29.47 33.83,54.56 60.77,71.27 39.38,24.6 90.73,27.02 133.26,9.29 24.23-10.14 44.63-27.76 60.54-48.43 38.04-49.31 37.68-124.08-.37-173.27-14.8-18.64-32.97-35.1-54.58-45.44-22.18-10.4-46.98-15.32-71.45-13.63Z"/>
</svg>
