<svg width="1280" xmlns="http://www.w3.org/2000/svg" height="1280" viewBox="0 0 1024 1024">
<path d="m39.06,145.98c243.31,.03 486.63,.04 729.94,0 65.57-.2 131.54,25.31 177.78,72.24 19.68,20.59 36.35,44.35 47.22,70.77 20.73,49.58 24.32,105.84 12.02,158.01-30.93,143.53-61.77,287.08-92.55,430.64-63.55,.8-127.11,.21-190.67,.3 14.26-70.25 29.9-140.23 44.72-210.36 18.47-86.83 37.18-173.61 55.7-260.43 2.18-12.16 5.61-24.92 1.74-37.15-2.13-11.43-10.22-20.98-19.52-27.47-13.79-9.42-31.4-9.62-47.44-9.59-28.82,.27-57.64-.35-86.45,.38-33.14,155.8-66.63,311.52-99.94,467.29-5.56,25.78-10.78,51.64-16.72,77.34-63.42,.07-126.84,.12-190.26-.03 6.36-33.83 14.23-67.36 21.19-101.06 31.82-147.92 63.18-295.94 95.14-443.82-54.56-.04-109.12-.12-163.69,.03-38.55,181.67-77.69,363.22-116.49,544.84-63.63,.17-127.26,.11-190.88,.04 38.26-178.45 76.35-356.94 114.66-535.37 .65-4.58 2.16-9.61-.03-14-28.61-60.81-57.03-121.71-85.47-182.6Z"/>
</svg>
