<svg width="1280" xmlns="http://www.w3.org/2000/svg" height="1280" viewBox="0 0 1024 1024">
<path d="m327.86,76.8c10.03-3.27 20.65-3.9 31.13-3.84 103.34,.07 206.68,.05 310.03,.01 14.66-.3 30.3,2.44 41.75,12.26 12.31,9.37 20.07,24.2 20.42,39.74 1.82,31.63 .3,63.35 .83,95.02 30.32,.08 60.64-.07 90.96,.03 .03,243.65 .04,487.31 0,730.96-207.33,.04-414.65,.03-621.97,0-.01-243.65-.03-487.31 .01-730.96 30.32-.1 60.64,.06 90.96-.04 .34-30.82-.54-61.66 .37-92.46 .01-22.09 14.81-43.14 35.51-50.72m38.15,70.21c-.05,24.33-.03,48.65 0,72.97 97.32,.04 194.65,.03 291.98,.01 .04-24.33 .03-48.65 0-72.97-97.32-.04-194.65-.03-291.98-.01m80.75,221.75c-3.99,3.28-7.71,7.78-7.7,13.21-.26,43.34 .09,86.68-.08,130.02-41.34,.14-82.68-.16-124.02,.05-9.17-.81-20.26,3.98-21.79,13.97-.42,38.33-.14,76.69-.13,115.03-1.12,9.25 7.43,17.27 16.34,17.47 43.17,1.24 86.41,.07 129.6,.5 .11,41.01-.06,82.01 .01,123.02 .42,5.21-.6,11.47 3.28,15.73 4.07,5.38 11.18,7.47 17.71,7.16 31.67,.3 63.35-.08 95.03,.16 7.97-.44 17,.98 23.8-4.28 4.7-4.18 7.15-10.5 6.29-16.77-.13-41.67-.14-83.34-.08-125.01 41.66-.23 83.32,.29 124.97-.17 9.25,.85 20.07-4.75 20.96-14.8 .21-36.69-.03-73.39 .08-110.08-.59-4.27 .61-9.22-2.01-12.97-3.9-6.46-11.72-9.37-19-8.93-41.67-.28-83.34,.08-125-.08-.11-41.01 .06-82.02-.01-123.02-.46-4.85 .44-10.31-2.37-14.62-3.56-4.99-9.2-9-15.65-8.19-33.33-.51-66.67,.07-100-.25-6.64,.7-14.39-1.21-20.23,2.85Z"/>
<path d="m104.54,221.49c13.64-2.74 27.63-1.17 41.43-1.49 .05,243.71 .05,487.43 0,731.15-22.96,.23-46.75-.38-68.05-10.02-42.21-18.6-73.82-60.34-77.92-106.61v-497.9c1.24-8.3 2.58-16.63 4.91-24.7 6.18-22.48 19.49-42.71 36.82-58.19 17.01-16.88 39.39-27.73 62.81-32.24Z"/>
<path d="m878.02,219.98c19.19-.06 38.94-.93 57.34,5.58 27.17,8.6 50.16,27.46 66.62,50.43 12.61,17.73 19.59,38.97 22.02,60.48v497.91c-2.55,18.27-6.94,36.88-17.12,52.53-17,28.57-44.85,50.93-77,59.88-16.83,4.87-34.53,4.16-51.85,4.29-.06-243.7-.04-487.4-.01-731.1Z"/>
</svg>
