<svg width="1280" xmlns="http://www.w3.org/2000/svg" height="1280" viewBox="0 0 1024 1024">
<path d="m489.45,73.48c78.9-4.34 159.01,12.84 228.62,50.39 40.09,21.41 76.63,49.19 108.67,81.38 49.77,51.85 87.41,115.59 107.31,184.73 10.22,36.26 15.37,73.85 16.43,111.48 2.32,69.71-12.97,139.85-43.53,202.52-30.66,62.12-75.6,117.33-131.13,158.85-47.8,35.81-102.7,62.38-160.92,76.03-75.88,17.42-156.34,15.97-231-6.62-71.12-21.57-136.11-62.06-188.06-115.08-53.4-56-92.8-125.76-110.77-201.18-19.49-83.44-15.93-172.65 13.44-253.38 31.87-87.84 92.24-165.34 170.43-216.67 39.2-26 82.35-46.28 127.92-58.19 30.22-8.11 61.36-12.57 92.59-14.26m5,73.08c-86.72,3.72-170.81,40.81-234.15,99.75-57.82,55.1-96.65,129.53-109.84,208.23-10.58,67.45-1.95,137.94 25.43,200.56 16.08,37.14 37.72,72.05 64.93,102.09 31.24,34.43 69.14,62.9 111.16,82.84 36.3,18.18 75.74,29.97 116.01,34.97 23.92,3.14 48.15,2.31 72.19,1.33 71.77-5.21 140.95-33.64 197.83-77.31 35.37-27.7 65.41-62.19 87.97-101.04 34.12-58.02 53.78-125.41 51.08-192.98-.18-33.17-5.57-66.26-15.03-98.02-24.15-77.42-72.66-148.1-140-194.06-65.99-45.91-146.98-71.15-227.58-66.36Z"/>
<path d="m359.45,292.51c27.16-3.28 54.44,11.48 68.54,34.53 8.52,12.14 10.76,27.44 10.9,41.95-.85,29.56-22.19,56.54-49.94,65.89-18.22,5.3-38.91,5.15-55.95-3.89-13.53-6.74-24.78-17.74-31.98-31-8.02-14.01-9.57-30.88-7.61-46.66 4.92-31.94 33.35-59.27 66.04-60.82Z"/>
<path d="m652.45,292.49c31.8-3.54 63.8,17.7 74.64,47.48 7.28,21.53 5.35,46.57-7.55,65.61-8.43,11.2-18.89,21.39-31.91,27.02-14.9,6.66-32.01,6.74-47.78,3.65-28.13-6.84-50.93-32.23-54.2-61.08-3.39-22.99 5.13-47.49 22.53-63 11.7-11.73 27.77-18.65 44.27-19.68Z"/>
<path d="m323.41,585.55c13.16-1.16 26.39-.45 39.59-.56 105-.04 210,.12 315-.08 10.35,.28 21.26-1.3 31.04,3.03 9.66,4.52 17.9,12.72 20.91,23.13 2.16,9.96 2,21.13-4.18,29.72-6.61,9.74-17.61,17.41-29.79,17.05-121.66,.44-243.34-.06-365.01,.24-16.26,1.24-31.43-10.27-36.7-25.26-2.73-9.01-2.11-19.04 1.99-27.54 5.81-9.75 15.32-18.72 27.15-19.73Z"/>
</svg>
