<svg width="1280" xmlns="http://www.w3.org/2000/svg" height="1280" viewBox="0 0 1024 1024">
<path d="m443,43.96c8.39-3.97 18.01-2.65 27-3.06 31.67,.31 63.35-.13 95.03,.15 5.65-.38 11.04,1.47 16.09,3.78 46.63,19.86 85.68,58.9 102.35,107.12-118.05,118.16-236.13,236.3-354.34,354.31-.24-101.75-.18-203.52-.04-305.27 2.03-34.12 14.15-67.76 35.06-94.87 20.19-27.17 47.51-49.2 78.85-62.16Z"/>
<path d="m825.75,155.74c5.67-6.64 15.69-10.02 23.57-5.05 5.4,3.83 9.75,8.91 14.45,13.54 12.05,12.62 25.94,23.42 37.23,36.78 5.59,5.78 7.73,15.15 3.22,22.21-5.73,7.54-12.83,13.84-19.46,20.54-59.04,58.96-117.96,118.04-177.04,176.96-4.01,4.27-8.91,7.87-12.15,12.8-1.66,26.43 .23,52.97-.79,79.44-.59,24.48-6.04,48.99-16.79,71.04-12.92,28.37-34.57,52-58.98,70.98-47.72,36.16-113.68,43.42-169.63,23.9-17.96,18.56-36.58,36.49-54.6,54.99 55.19,28.75 120.89,36.63 181.22,21.15 59.69-14.34 111.51-53.55 146.96-103.02 21.46-30.36 36.1-65.62 41.5-102.46 6.19-38.87 2.32-78.37 3.77-117.51-.17-19.05 17.72-36.01 36.75-35 19.36-.4 36.95,17.45 35.97,36.93 .3,25.01-.11,50.03 .09,75.04 .37,67.75-21.18,135.77-62,190-27.15,36.59-60.92,68.61-100.21,91.87-39.66,23.66-84.64,37.78-130.49,42.58-.71,25.16-.25,50.34-.31,75.52 48.33,.1 96.67-.01 145.01-.01 18.4-.95 37.3,14.16 37.88,33.08 2.46,13.96-5.97,27.21-17.08,34.83-6.97,4.73-15.66,5.26-23.81,5.21-120.02-.16-240.05-.08-360.07-.04-19.82,1.4-38.17-16.37-37.79-36.07-.57-15.95 11.11-31.01 26.22-35.53 6.39-1.63 13.05-1.36 19.6-1.52 45.66,.12 91.33,.11 137,.06 .02-25.22 .08-50.43-.04-75.63-47.51-4.07-93.24-21.27-133.93-45.72-47.42,47.04-94.47,94.46-141.78,141.61-4.61,4.63-10.24,9.33-17.28,8.75-8.19,.45-13.73-6.8-19.26-11.68-13.44-13.9-27.61-27.09-40.74-41.27-4.88-5.13-6.45-13.23-3.7-19.77 5.73-9.04 14.08-15.93 21.49-23.52 228.67-228.66 457.34-457.34 686-686.01Z"/>
<path d="m192.66,408.67c10.98-12.91 31.81-15.69 45.74-6.1 6.37,4.66 11.97,10.69 14.96,18.09 4.09,12.65 2.22,26.27 2.7,39.34 .51,33.13-2.75,66.93 5.52,99.4 .59,4.94 4.77,11.69-.81,15.37-18.11,18.07-36.18,36.2-54.33,54.23-13.02-32.52-21.28-67.02-23.14-102.05-1.67-28.29-1.32-56.64-1.36-84.96-.12-11.81 1.61-24.84 10.72-33.32Z"/>
</svg>
