<svg width="1280" xmlns="http://www.w3.org/2000/svg" height="1280" viewBox="0 0 1024 1024">
<path d="m450.46,41.66c33.13-1.68 66.37-.07 99.54-.74 9.23,.52 19.09-1.47 27.9,2.17 22.3,8.93 42.8,22.22 59.88,39.13 33.75,31.5 55.46,76.31 56.11,122.76 .3,101.67-.03,203.35 .15,305.03 .69,27.47-6.71,54.71-18.84,79.21-26.12,49.11-74.04,88.14-129.62,97.29-32.63,5.42-66.85,3.69-97.95-8.11-45.93-17.42-84.12-54.02-104.22-98.77-10.45-23.36-14.79-49.13-14.46-74.63 .2-102-.14-204 .16-306 2.39-30.56 12.46-60.7 29.89-86 17.85-25.57 41.24-47.54 69.01-61.96 7.25-3.57 14.45-7.79 22.45-9.38Z"/>
<path d="m192.66,408.67c10.98-12.91 31.81-15.7 45.74-6.1 5.53,4.12 10.6,9.13 13.69,15.38 3.63,6.69 3.55,14.64 3.89,22.03 .2,23.33-.07,46.68-.03,70.02-1.07,64.46 25.94,128.22 71.27,173.78 27.72,29.31 62.25,52.36 100.43,65.58 52.98,17.31 111.56,18.22 164.71,1.03 28.29-9.52 55.02-23.9 77.96-43.06 43.18-34.89 76.85-82.9 89.68-137.33 11.82-44.9 4.98-91.74 7.36-137.51 .56-16.88 14.17-32.85 31.05-35.04 20.05-4.21 40.75,12.94 42.06,32.99 1.24,24.82 .27,49.71 .49,74.57-.04,35.79-5.28,71.61-16.35,105.68-20.56,62.22-61.32,116.93-112.63,157.3-46.82,36.97-104.4,59.4-163.64,65.45-.72,25.16-.25,50.34-.3,75.52 48.33,.12 96.66,0 145,0 16.95-.98 33.28,11.5 37.01,28 4.12,15.27-3.58,32.2-17.08,40.01-7.02,4.65-15.8,5.08-23.94,5.1-108.34-.16-216.69-.03-325.03-.07-13.29-.12-26.61,.52-39.88-.33-19.33-1.57-34.61-21.39-31.74-40.47 1.95-17.36 17.92-32.41 35.64-32.05 48.98-.46 97.98,.05 146.96-.18-.1-25.13 .42-50.26-.34-75.38-34.72-3.85-68.97-12.85-100.75-27.43-35.93-15.92-67.83-39.84-95.65-67.4-22.33-22.92-42.11-48.5-57.35-76.7-21.56-38.89-33.76-82.62-37.2-126.87-1.78-32.71-1.96-65.47-1.68-98.21 .42-10.24 2.81-21.06 10.65-28.31Z"/>
</svg>
