<svg width="1280" xmlns="http://www.w3.org/2000/svg" height="1280" viewBox="0 0 1024 1024">
<path d="m260.4,110.47c3.65-.12 10.94-.38 14.59-.5 158.34,.04 316.67,.07 475.01-.01 29.43-.51 58.87,7.77 84.02,23 38.53,23.91 68.47,63.11 76.83,108.15 2.11,11.16 3.06,22.52 3.14,33.88 .03,160-.02,320.01 .03,480.02-.49,40.93-17.71,81.37-47.21,109.8-19.9,21.12-45.65,36.81-73.74,44.2-20.54,5.56-41.98,5.29-63.07,6-145-.01-290-.03-435,.01-20.91-.45-42.25,.24-62.57-5.54-33.49-8.08-63.2-28.49-85.22-54.69-22.74-26.48-36.33-60.82-37.16-95.78-1.66-26.31-.93-52.68-1.05-79.01-.03-125 .05-250-.03-375 .23-26.07-.82-52.75 7.12-77.95 7.63-26.38 22.75-50.43 42.59-69.38 26.52-27.65 63.45-44.85 101.72-47.2m5.04,73.07c-44.83,2.81-83.58,44.44-82.51,89.45 .19,160.01-.04,320.02 .12,480.03-.23,22.56 9.53,44.63 25.6,60.32 15.37,16.18 36.77,27.24 59.33,27.63 151.67,.08 303.35,0 455.02,.04 13.19-.09 26.42,.54 39.59-.57 38.48-4.75 71.3-37.34 77.35-75.46 1.92-11.56 .83-23.34 1.09-34.98-.03-145-.09-290 .03-435-.15-17.26 .95-35.29-5.49-51.69-12.62-34.99-48.12-60.84-85.56-60.35-155,.05-310.01,.08-465.01-.01-6.53-.02-13.05,.18-19.56,.59Z"/>
<path d="m274.43,475.5c13.16-.96 26.38-.46 39.57-.51 133.33,.01 266.67,.02 400,0 12.15,.09 24.34-.5 36.49,.44 7.83,.18 15.87,5.98 16.94,14 1.1,13.16 .79,26.4 .51,39.59 .25,5.9-1.62,12.74-6.89,16.04-5.26,4.45-12.7,3.47-19.03,3.96-153.34-.04-306.7-.04-460.04,0-6.35-.49-13.77,.48-19.03-3.96-5.08-3.04-6.84-9.51-6.77-15.08-.45-13.54-.69-27.14 .26-40.65 1.63-8.26 9.53-14.34 17.99-13.83Z"/>
</svg>
