<svg width="1280" xmlns="http://www.w3.org/2000/svg" height="1280" viewBox="0 0 1024 1024">
<path d="m223.45,73.6c6.5-.42 13.02-.64 19.55-.65 181.67,.09 363.34,.07 545.01,.01 27.63-.3 55.21,7.21 79.22,20.81 39.13,23.38 70.5,62 79.68,107.24 3.3,15.08 4.08,30.59 4.14,45.99-.12,180-.01,360-.06,540.01-.02,33.38-10.32,66.86-30.12,93.84-23.1,31.42-56.44,56.52-94.87,65.16-17.29,4.32-35.28,4.61-53,5.01-178.33-.12-356.67,.12-535.01-.11-32.57,.13-65.18-9.27-92.01-27.89-35.7-24.83-63.55-63.13-70.28-106.65-3.67-20.24-2.61-40.92-2.7-61.37-.02-171.67 .06-343.34-.05-515.01-.33-25.42 4.47-51.23 16.03-74 25.14-50.89 77.06-89.17 134.47-92.39m24.97,365.94c-17.22,2.99-30.03,20.15-29.33,37.45-.01,24.85-.7,49.74 .44,74.58 .6,13.25 10.14,24.48 21.56,30.34 6.55,2.78 13.86,3.05 20.88,3.16 168.35-.2 336.71,.05 505.07-.12 16.26,.61 31.8-11.31 36.09-26.83 1.43-10.31 .83-20.76 .92-31.12-.44-19.86 .75-39.75-.6-59.58-2.79-16.2-18.92-29.3-35.42-28.45-160.01,.06-320.02,.02-480.03,.02-13.19,.08-26.42-.53-39.58,.55Z"/>
</svg>
