<svg width="1280" xmlns="http://www.w3.org/2000/svg" height="1280" viewBox="0 0 1024 1024">
<path d="m489.41,73.45c64.63-3.36 130.2,7.07 189.97,32.13 76.96,31.99 145.18,85.78 192.44,154.61 40.81,57.87 67.59,125.81 75.6,196.27 9.31,74.6 .23,151.79-28.6,221.37-26.83,65.3-69.5,124.04-123.4,169.63-52.91,44.09-115.71,76.69-183,92.02-74.68,16.55-153.67,15.22-227.08-6.91-71.48-21.24-136.77-61.85-189.01-114.89-58.42-61.21-100.3-138.85-115.65-222.31-7.37-41.65-10.03-84.28-5.82-126.42 9.48-109.03 63.32-212.67 144.85-285.25 54.69-48.22 121.07-83.69 192.36-99.66 25.38-5.94 51.35-8.99 77.34-10.59m-204.96,366.18c-10.69,1.73-19.35,10.1-24.64,19.14-4.39,7.25-3.58,16.11-3.88,24.22 .18,21.68-.16,43.36 .11,65.05-.66,15.83 10.61,30.81 25.6,35.35 6.63,1.78 13.55,1.51 20.35,1.69 143.33-.31 286.67,.21 429.99-.25 20.18,.57 37.56-18.98 36.08-38.81-.14-23.35 .13-46.71-.1-70.06 .86-20.37-18.31-39.48-38.94-36.93-135-.08-270.01,.01-405.02-.04-13.18,.09-26.41-.6-39.55,.64Z"/>
</svg>
