<svg width="1280" xmlns="http://www.w3.org/2000/svg" height="1280" viewBox="0 0 1024 1024">
<path d="m157.43,402.53c3.64-.14 10.92-.43 14.56-.57 221.67,.06 443.34,.09 665.01-.02 15.9,.44 33.46-2.12 47.87,6.26 16.94,8.63 28.75,26.68 28.95,45.82 .37,38.32 .25,76.67 .06,115 .04,26.9-23.85,51.55-50.85,51.89-233.34,.26-466.7-.07-700.05,.16-22.1,1.1-42.05-15.16-50.21-34.92-4.01-12.96-3.68-26.74-3.82-40.15 .17-28.34-.12-56.68 .1-85.01 .54-11.69 2.08-24.14 9.01-33.93 8.77-13.3 23.36-22.99 39.37-24.53Z"/>
</svg>
