<svg width="1280" xmlns="http://www.w3.org/2000/svg" height="1280" viewBox="0 0 1024 1024">
<path d="m0,146c341.33,0 682.67,0 1024,0v732c-341.33,0-682.67,0-1024,0v-732m182.39,73.32c.01,26.91-6.82,53.91-21.47,76.63-26.14,42.32-74.52,70.75-124.68,69.53-.55,97.43-.11,194.87-.22,292.31 14.75,.69 29.61,2.09 43.75,6.57 35.83,10.9 66.09,36.86 84.81,69.02 11.73,21.52 18.47,45.99 17.63,70.61 219.52,.01 439.04,.04 658.56-.02 .33-12.09 1.27-24.23 4.23-35.98 9.37-39.7 37.7-73.36 72.99-93 21.07-11.52 45.06-16.94 68.99-17.25 .04-97.52 .03-195.03 .01-292.55-21.25-.11-42.87-3.59-62.01-13.14-24.85-11.44-45.35-30.86-60.99-53.04-15.48-23.57-23.84-51.75-23.21-79.99-219.46,.17-438.94-.43-658.39,.3Z"/>
<path d="m499.45,274.55c14.74-1.03 29.74-.65 44.17,2.82 30.77,6.25 58.31,23.74 80.46,45.55 20.34,20.69 34.77,46.43 46.07,72.96 24.1,56.85 31.58,121.52 16.36,181.7-7.83,33.35-21.31,65.37-39.53,94.37-27.82,43.21-75.63,75.76-127.99,77.11-28.18,2.04-56.71-4.93-81.22-18.82-26.36-15.29-49.26-36.91-64.64-63.33-33.55-55.42-49.77-121.73-42.7-186.34 5.35-44.3 20.45-87.4 43.63-125.52 26.93-43.53 73.29-77.19 125.39-80.5m-20.06,75.85c-27,25-53.98,50.02-80.98,75.01 14.6,15.24 29.22,30.48 43.93,45.62 11.83-9.78 22.28-21.06 32.44-32.52 .51,54.82 .09,109.65 .21,164.48-24.32,.05-48.64-.04-72.96,.03-.06,18.32-.08,36.64-.01,54.97 72.99,.01 145.97,.03 218.95-.01 .06-18.32 .07-36.65 .01-54.97-24.33-.06-48.65,.04-72.97-.03-.05-85.32 .03-170.64-.03-255.96-19.99,.21-39.99-.54-59.97,.17-3.49-.89-6.27,1.15-8.62,3.21Z"/>
</svg>
