<svg width="1280" xmlns="http://www.w3.org/2000/svg" height="1280" viewBox="0 0 1024 1024">
<path d="m514.37,73.39c9.68-.59 19.67,2.73 26.47,9.78 8.56,9.74 13.18,23.23 10.51,36.17-2.1,7.3-6.67,13.7-12.32,18.69-58.46,52.46-94.82,128.55-99.24,206.95-3.33,41.88 2.73,84.24 16.38,123.89 23.77,66.1 69.77,124.42 129.93,161.02 47.45,30.25 103.71,45.99 159.9,46.2 45.47,1.49 90.83-9.25 132.12-27.98 8.11-3.11 16.98-6.35 25.75-3.94 14.17,3.91 26.12,16.55 27.57,31.44 1.52,8.36-.91,16.73-4.59,24.17-34.18,72.83-89.17,135.71-156.84,179.24-59.52,39.4-128.84,64.06-200.07,69.79-75.29,7.4-152.31-6.1-220.86-37.95-56.1-25.26-106.64-62.49-147.48-108.49-32.18-36.48-57.63-78.66-76.54-123.41-30.03-70.48-39.37-149.1-29.98-224.93 7.9-60.82 29.29-119.59 60.84-172.1 23.67-40.14 54.85-75.57 90.29-105.71 66.76-55.06 149.54-91.35 235.83-100.16 10.75-1.17 21.53-2.09 32.33-2.67m-261.73,200.27c-56.96,65.2-89.59,151.59-87.74,238.34-.88,86.63 32.5,172.09 88.06,238.05 26.26,30.76 58,56.77 92.97,77.04 55.05,31.74 118.2,51.04 182.07,50.01 108.23,2.16 215.7-48.48 284.11-132.15-49.45,6.99-100.23,5.94-149.03-5.05-68.52-15.34-131.84-51.11-182.36-99.62-33.86-33.88-61.98-73.67-81.54-117.45-36.15-79.04-42.66-170.59-20.83-254.51 9.74-37.75 26.38-73.39 46.62-106.61-66.73,19.44-127.69,58.59-172.33,111.95Z"/>
</svg>
