<svg width="1280" xmlns="http://www.w3.org/2000/svg" height="1280" viewBox="0 0 1024 1024">
<path d="m875.98,39.95c9.48-3.41 19.78-3.46 29.7-2.56 22.15,3.47 41,22.46 44.1,44.73 .85,4.91 1.26,9.86 1.23,14.86-.01,210.01-.03,420.02 .01,630.03 .37,16.43-3.96,33.13-13.17,46.82-13.57,18.73-32.49,33.39-53.88,42.14-51.4,21.79-109.22,31.47-164.43,20.56-28.55-5.43-56.65-14.22-82.53-27.55-16.35-9.99-32.01-22.46-41.73-39.27-14.59-24.38-14.01-57.48 2.75-80.68 15.37-23.12 40.23-37.85 65.87-47.13 67.81-26.1 146.27-28.05 213.16,1.9-.16-102.24 .01-204.48-.08-306.72-87.65,27.57-175.58,54.25-263.33,81.49-58.2,17.83-116.27,36.1-174.54,53.72-.3,133.24 .04,266.49-.16,399.73 .22,14.82-2.33,30.02-10.03,42.9-13.35,22.59-35.53,38.73-59.52,48.54-51.16,21.04-108.4,30.01-163.07,19.15-25.56-5.01-50.65-12.74-74.31-23.68-17.96-9.26-34.71-21.91-46.14-38.78-16.06-23.25-17.47-55.87-2.86-80.15 14.59-24.59 39.64-41.23 66.11-50.8 61.39-24.02 131.33-29.02 194.19-7.59 7.32,2.55 14.53,5.4 21.71,8.32-.1-179.98 .05-359.96-.08-539.94 .07-12.84 .29-26.59 7.19-37.9 6.59-12.7 18.4-22.45 31.96-26.88 157.28-48.46 314.62-96.73 471.88-145.26Z"/>
</svg>
