<svg width="1280" xmlns="http://www.w3.org/2000/svg" height="1280" viewBox="0 0 1024 1024">
<path d="m471.15,5.05c9.94-.1 19.89-.42 29.83,.2 6.99-.1 12.96,3.85 19.07,6.65 32.6,16.34 63.37,38.35 84.49,68.51 18.69,27.75 32.73,59.81 34.15,93.62 .7,25.89 1.56,52.16-4.16,77.61-4.84,20.82-11.22,41.28-18.56,61.35-2.91,8-8.9,15.14-8.74,24.02-.72,21.38-.09,42.78-.15,64.17 18.54-29.22 39.37-57.75 66.64-79.47 26.75-21.42 57.07-39.34 90.69-47.27 42.09-8.76 86.48-5.27 126.93,9.18-1.02,35.18-7.1,70.47-20.62,103.08-14.74,36.92-42.59,67.87-75.94,89.09-10.16,6.44-21.03,11.85-32.48,15.59-32.19,11.29-66.02,19.07-100.3,18.71-22.33,.24-44.86-.36-66.79-4.93-8.69,54.79-22.63,108.71-41.33,160.93 12.01-13.2 26.3-23.97 40.3-34.91 24.24-18.68 50.5-35.27 79.46-45.55 33.04-12.99 68.81-20.21 104.37-17.67 49.09,5.33 96.13,25.82 134.18,57.2-12.82,32.3-29.7,63.22-52.18,89.85-12.64,15.34-27.12,29.37-43.99,40.01-32.17,20.82-69.86,33.97-108.38,34.47-38.88-.54-78.35-4.95-114.78-19.27-24.12-9.49-48.73-18.32-70.71-32.3-18.81,36.16-39.15,71.72-64.28,103.94-49.47,64.83-113.51,120.41-189.57,151.4-33.88,13.74-69.93,21.73-106.34,24.65-10.08,.76-20.25,1.6-30.33,.5-11.55-2.26-21.16-13.43-20.43-25.42-.57-8.79 4.79-17.17 12.14-21.63 5.28-3.19 11.7-3.03 17.64-3.31 62.49-.86 124.03-22.22 175.02-58.05 62.92-43.25 112.44-104.06 148.23-171.1-11.81,3.49-23.24,8.21-35.23,11.1-23.8,6.3-48.42,9.18-73,9.75-63.92,.78-125.87-31.88-165.4-81.38-26.72-33.48-47.34-71.52-62.82-111.38 39.85-16.94 82.06-28.84 125.26-32.85 32.63-3.29 66.24-3.47 97.97,5.89 34.66,9.56 66.1,28.36 93.21,51.74 23.14,19.07 40.07,44.21 55.51,69.61 21.5-53.18 35.75-109.06 45-165.61-44.03,4.07-88.94,4.47-132.31-5.22-30.93-6.03-61.06-17.12-87.44-34.51-22.71-14.66-43.42-33.08-57.9-56.1-20.57-32.64-30.98-70.78-34.21-109.01 37.91-15.66 78.99-24.68 120.14-22.85 14.67,.3 28.93,4.23 42.98,8.09 19.82,6.16 39.03,14.78 55.94,26.93 10.79,7.31 19.7,16.93 28.83,26.14 18.2,19.01 34.5,40.11 46.25,63.75 9.05,18.23 18.67,36.46 23.81,56.28 3.9-33.96 6.02-68.14 7.25-102.29-.4-2.76 1.01-7.12-2.03-8.99-20.43-14.93-38.81-32.53-55.82-51.2-23.87-25.73-42.17-56.28-55.21-88.79-14.75-35.78-18.65-76.3-9.02-113.93 6.02-28.48 18.85-55.07 35.16-79.02Z"/>
</svg>
