<svg width="1280" xmlns="http://www.w3.org/2000/svg" height="1280" viewBox="0 0 1024 1024">
<path d="m315.45,75.53c60.23-4.53 121.64,18.01 164.77,60.25 115.6,115.4 230.97,231.04 346.57,346.44 4.99,5.22 10.79,11.5 8.89,19.45-2.58,8.15-8.66,14.52-14.36,20.64-6.59,6.78-13.52,13.43-21.75,18.2-4.92,2.62-11.29,2.82-16.14-.02-6.22-4.32-11.42-9.85-16.72-15.2-23.85-24.15-48.09-47.91-71.89-72.11-13.58-15.06-28.33-29-42.57-43.43-73.49-73.51-147.01-146.98-220.48-220.51-16.96-16.17-36.98-29.57-59.46-36.63-39.31-12.12-84.22-7.86-119.11,14.58-27.18,17.49-48.68,43.77-59.78,74.19-14.19,41.32-10.94,89.27 12.65,126.57 9.36,15.18 21.97,27.93 34.68,40.31 145,144.99 290.02,289.97 434.99,435.01 24.87,24.91 61.91,37.23 96.69,31.22 31.09-5.37 58.11-30.48 64.58-61.54 8.03-35.77-4.18-74.32-29.76-100.2-111.99-112.01-224.03-223.97-335.98-336.03-9.12-9.3-22.23-14.57-35.28-13.86-19.42-1.09-37.79,16.59-37.1,36.12-1.39,13.51 5.32,26.26 14.34,35.78 77.54,77.46 154.99,155.01 232.53,232.47 5.05,4.71 8.82,11.91 6.48,18.92-3.28,7.79-9.18,14.11-14.91,20.17-7.19,7.24-14.51,15.04-24.22,18.83-3.54,.95-7.63,1.58-10.93-.35-8.13-4.97-14.18-12.48-20.94-19.04-74-74.01-147.97-148.04-222.02-221.99-17.3-17.4-29.45-40.21-32.37-64.73-2.85-21.58-.98-44.16 7.98-64.16 15.09-33.3 47.03-59.35 83.61-64.41 35.55-6.03 74.09,4.56 99.81,30.28 114.51,114.49 228.98,229.01 343.51,343.49 26.44,27.52 44.14,63.61 48.51,101.62 4.8,33.52 .52,68.93-15.25,99.15-21.97,42.4-64.19,74.59-111.87,81.23-24.63,3.21-50.03,3.19-74.18-3.18-33.99-8.55-65.07-27.55-89.25-52.78-43.43-43.57-86.98-87.02-130.47-130.52-24.11-22.21-46.65-46.03-70-69.01-81-81-161.99-162.01-243-242.99-27.06-27.36-47.61-61.36-57.42-98.68-13.46-53.92-7.82-113.16 19.16-162.11 19.78-34.5 48.31-64.19 82.8-84.17 28.58-16.98 61.63-25.35 94.66-27.27Z"/>
</svg>
