<svg width="1280" xmlns="http://www.w3.org/2000/svg" height="1280" viewBox="0 0 1024 1024">
<path d="m103.43,73.57c9.83-.87 19.71-.63 29.57-.63 90,.23 180.01-.15 270.01,.17 15.71-.43 30.09,11.78 34.32,26.55 2.81,13.58 1.37,27.58 1.7,41.34-.07,256.67-.01,513.35-.02,770.02 1.37,18.87-13.7,37.9-32.86,39.26-13.68,1.28-27.44,.63-41.15,.74-83.34,0-166.68-.1-250.01,.06-10.72,.46-22.16-2.31-29.81-10.26-6.08-5.19-10.61-12.36-11.49-20.43-1.4-13.42-.56-26.94-.7-40.39 .02-245 0-490 .01-735 .11-13.29-.55-26.61 .35-39.88 1.35-15.64 14.61-29.37 30.08-31.55Z"/>
<path d="m615.43,73.57c9.82-.87 19.71-.63 29.57-.63 90,.23 180.01-.15 270.01,.17 19.78-.48 36.69,18.45 35.78,37.92 .5,266.65 .06,533.33 .22,799.99 1.13,16.59-10.12,33.09-25.98,38.02-7.51,1.91-15.35,1.81-23.02,2-93.34-.11-186.69,.01-280.03-.05-20.95,.03-39.68-19.73-36.99-40.96 .05-266.69-.07-533.38 .06-800.07-.8-17.45 13.19-34.01 30.38-36.39Z"/>
</svg>
