<svg width="1280" xmlns="http://www.w3.org/2000/svg" height="1280" viewBox="0 0 1024 1024">
<path d="m224.41,73.5c3.64-.14 10.93-.4 14.58-.53 181.67,.04 363.34,.07 545.02-.02 21.9-.31 44,3.4 64.31,11.73 28.18,11.24 52.3,31.41 70.64,55.34 22.09,28.62 32.49,65.05 32.04,100.97-.02,181.67 .03,363.35-.02,545.02-.02,25.18-5.36,50.56-16.91,73.02-9.23,19.26-23.31,35.73-38.85,50.19-18.61,16.66-40.95,29.51-65.24,35.72-20.8,5.79-42.6,5.24-63.98,6.07-173.34-.08-346.67,.11-520.01-.09-26.28,.19-53.08-3.55-76.97-14.98-23.72-10.55-43.68-27.98-60.34-47.63-18.28-21.9-30.02-49.04-33.81-77.29-2.74-18.53-1.72-37.36-1.88-56.02 0-171.67 .06-343.34-.04-515.01-.26-20.39 2.76-40.92 9.92-60.06 22.18-58.11 78.68-103.09 141.54-106.43m396.85,164.75c-18.12,18.08-36.27,36.13-54.23,54.37 54.99,54.67 109.57,109.75 164.61,164.36 17.37-17.74 35.19-35.05 52.58-52.77 16.11-15.54 20.17-41.2 11.03-61.42-3.22-8.14-9.46-14.44-15.46-20.58-26.59-26.41-53.02-52.98-79.53-79.47-6.79-6.87-14.82-12.72-23.93-16.06-18.63-6.27-40.84-2.36-55.07,11.57m-90.89,90.8c-99.84,99.94-199.67,199.87-299.68,299.63-5.25,5.81-14.05,11.1-11.83,20.29 .3,51.67 .05,103.34 .16,155.01 55.04,.13 110.08-.16 165.13,.15 103.8-103.39 207.33-207.06 310.82-310.75-54.99-54.65-109.53-109.76-164.6-164.33Z"/>
<path d="m533.21,406.54c8.66,.24 15.06,11.76 7.37,18.07-54.55,55.41-110.06,109.93-164.75,165.22-3.86,3.54-7.53,8.06-12.87,9.22-9.17-.25-15.52-13.3-7.18-19.26 56.2-56.46 112.75-112.61 168.92-169.11 2.3-2.23 5.22-4.04 8.51-4.14Z"/>
<path d="m274.26,663.17c8.83-11.13 19.85-20.31 29.69-30.53 29.04,28.68 57.85,57.6 86.61,86.56-9.34,10.05-18.58,20.4-29.07,29.24-10.8,1.13-21.67,.55-32.5,.55 .06-18-.04-36 .01-54-18.23-.02-36.45,.2-54.67-.2-.31-10.54-.92-21.11-.07-31.62Z"/>
</svg>
