<svg width="1280" xmlns="http://www.w3.org/2000/svg" height="1280" viewBox="0 0 1024 1024">
<path d="m716.67,81.69c15.06-3.68 31.48-4.34 46.03,1.72 12,4.06 21.98,12.22 30.6,21.29 23.92,24.08 47.92,48.07 71.98,72.02 17.94,16.37 34.69,33.97 52.01,50.99 10.79,10.7 21.06,23.16 24.56,38.32 4.96,18.23 3.65,38.53-5.64,55.19-5.4,9.55-13.2,17.4-20.92,25.07-28.87,28.58-57.37,57.53-86.28,86.07-79.51-79.21-158.8-158.63-238.1-238.04 33.25-30.86 64.54-63.73 96.85-95.57 8.13-7.79 17.91-14.25 28.91-17.06Z"/>
<path d="m553.59,231.77c26.39,24.8 51.33,51.1 77.16,76.48 53.75,53.81 107.62,107.49 161.29,161.38-147.76,147.37-295.16,295.11-442.79,442.62-9.03,8.97-18,18-26.89,27.11-2.91,2.62-5.68,6.66-10.37,5.45-77.65,.47-155.32,.06-232.98,.18-.1-76.68 .16-153.35-.15-230.02 .68-3.04-.92-7.02 1.67-9.55 6.32-7.61 13.85-14.08 20.73-21.16 150.74-150.86 301.69-301.52 452.33-452.49m14.84,97.65c-3.31,.93-5.69,3.64-8.19,5.81-101.45,101.56-203.04,202.99-304.48,304.55-6.38,4.92-9.07,15.48-3.28,21.74 6.28,5.77 16.77,2.97 21.78-3.24 96.46-96.54 192.99-193.02 289.49-289.53 5.94-6.04 12.32-11.68 17.83-18.14 4.82-5.15 5.06-14.13 .07-19.24-3.65-2.96-8.89-2.55-13.22-1.95m-364.84,356.35c-17.09,17.51-34.71,34.48-51.71,52.08 .19,20.04 .05,40.09 .14,60.14 24.32,.06 48.64-.05 72.97,.02 .06,24.32-.04,48.65 .02,72.97 18.99-.19 38,.52 56.98-.16 4.22,1.32 6.73-2.17 9.34-4.48 15.48-15.66 30.98-31.31 46.71-46.71-19.5-19.73-39.21-39.23-58.79-58.88-25.33-24.88-49.77-50.68-75.66-74.98Z"/>
</svg>
