<svg width="1280" xmlns="http://www.w3.org/2000/svg" height="1280" viewBox="0 0 1024 1024">
<path d="m268.45,110.55c6.48-.26 13.21-1.54 19.56,.45 7.1,1.53 11.45,8.03 15.57,13.4 8.85,13.26 15.49,27.81 23.47,41.59 17.18,30.44 32.81,61.8 51.79,91.18 8.57,13.66 20.79,26.33 22.95,43 .78,5.09-.35,10.33-2.93,14.74-9.91,16.9-25.11,29.6-39.86,42.09-15.82,12.04-31.45,24.4-45.65,38.34-7.39,8.16-16.45,17.6-14.31,29.64 3.49,15.84 12.89,29.26 21.01,42.99 22.83,40.78 49.21,79.73 80.45,114.57 43.12,48.97 96.32,88.18 153.1,119.91 16.79,9.46 33.07,22.97 53.34,22.53 11.05-3.17 19.29-11.97 27.16-19.88 24.79-25.61 42.17-58.59 72.47-78.58 8.22-5.73 19.37-5.29 28.28-1.35 14.47,6.33 26.38,17.04 39.88,25.08 26.21,15.85 53.42,29.96 80.14,44.94 16.6,9.7 34.6,17.18 49.78,29.19 4.56,3.33 8.14,8.34 8.89,14.03 2.02,17.82-2.46,35.39-6.56,52.58-4.48,17.74-8.95,36.54-21.39,50.62-16.94,19.47-39.43,32.9-61.78,45.23-26.12,13.92-54.73,23.62-84.26,26.57-15.81,.9-31.75,1.26-47.51-.49-29.1-4.64-57.24-13.77-84.68-24.31-26.5-10.09-53.49-18.95-79.34-30.66-68.19-30.09-127.22-77.12-181.65-127.33-32.96-32.08-65.67-64.55-94.64-100.35-31.12-38.09-59.42-78.82-80.69-123.29-12.28-25.46-21.52-52.21-31.31-78.69-14.72-39.63-30.68-80.29-29.84-123.29-1.28-34.46 9.16-68.29 24.23-98.95 12.79-24.62 27.48-48.9 48.19-67.72 10.35-9.05 23.49-13.85 36.5-17.63 16.29-4.49 32.8-8.44 49.64-10.15Z"/>
</svg>
