<svg width="1280" xmlns="http://www.w3.org/2000/svg" height="1280" viewBox="0 0 1024 1024">
<path d="m224.4,73.49c3.65-.13 10.94-.39 14.59-.53 181.67,.06 363.34,.07 545.02,0 26.94-.52 54.11,5.45 77.98,18.07 43.04,23.37 77.16,65.26 85.79,114.1 2.52,14.13 3.16,28.54 3.25,42.87-.1,180 .04,360.01-.07,540.01-.1,30.45-9.04,60.77-25.57,86.36-21.51,32.08-53.3,58.15-90.63,69.25-22.2,7.08-45.75,6.54-68.76,7.39-170-.02-340-.02-510,0-19.37-.32-39.05-.07-57.94-5.02-29.46-6.83-56.58-22.78-77.38-44.67-23.7-22.8-39.91-53.25-45.12-85.75-3.52-19.99-2.46-40.38-2.56-60.57-.02-171.67 .06-343.34-.05-515.01-.33-25.42 4.47-51.23 16.03-74 25.26-51.2 77.73-89.42 135.42-92.5m111.01,145.89c-21.57,2.11-43.77,6.79-62.08,18.95-12.39,9.49-21.19,22.7-28.95,36.03-13.03,25.44-23.56,52.88-25.2,81.68 .2,26.21 5.8,52.19 15.19,76.61 9.55,24.91 17.91,50.33 29.69,74.32 28.49,56.98 68.69,107.46 114.21,151.76 31.35,29.76 64.6,57.9 101.68,80.31 26.53,16.7 55.17,29.89 84.73,40.26 29.63,10.81 59.31,23.76 91.33,24.62 24.1,1.31 47.87-4.79 70-13.91 21.21-8.68 42.67-19.56 57.47-37.56 9.81-11.77 13.91-26.96 17.59-41.49 3.2-12.47 4.07-25.6 2.24-38.3-5.47-8.25-15.04-12.52-23.09-17.86-21.74-12.86-44.12-24.55-66.23-36.73-9.6-4.72-18.41-10.83-27.22-16.83-8.24-5.39-17.75-11.16-28.05-8.53-13.02,5.42-21.59,17.14-30.7,27.32-10.19,11.17-19.52,23.11-29.79,34.21-5.36,4.99-11.01,11.1-18.56,12.4-8.91-.08-16.98-4.63-24.61-8.74-23.93-13.55-47.64-27.68-69.46-44.47-29.06-21.98-54.84-48.19-76.77-77.26-17.53-22.54-31.58-47.48-45.73-72.21-4.4-8.5-9.06-19.88-2.6-28.42 16.5-22.63 42.99-34.84 61.17-55.86 5.13-5.97 11.2-13.05 10.23-21.54-.98-10.06-7.63-18.01-12.9-26.13-4.87-7.01-9.11-14.43-12.99-22.01-7.16-14.28-15.54-27.89-23.11-41.94-7.81-14.52-15.82-29.03-25.75-42.23-4.62-7.26-14.11-7.25-21.74-6.45Z"/>
</svg>
