<svg width="1280" xmlns="http://www.w3.org/2000/svg" height="1280" viewBox="0 0 1024 1024">
<path d="m24.62,77.61c17.39-6.22 36.28-4.33 54.38-4.66 295.01,.12 590.02,.03 885.02,.04 9.69,.14 19.54,.47 28.93,3.14 11.43,2.35 21.32,8.87 31.05,14.97v840.77c-8.75,6.53-18.33,12.41-29.03,15.06-18.14,5.28-37.32,3.9-55.97,4.12-266.67-.11-533.33-.02-800-.05-29.86-.35-59.75,.71-89.59-.47-17.81-.75-35.18-7.01-49.41-17.71v-841.71c7.36-5.89 15.82-10.22 24.62-13.5m26.8,68.89c-5.66,.24-9.87,4.65-13.06,8.87-3.28,7.06-2.12,15.09-2.47,22.62 .36,226.66-.17,453.34 .27,679.99-.81,10.08 8.25,20.71 18.8,19.09 305.01-.26 610.02,.17 915.02-.21 9.26,.89 16.4-8.3 16.96-16.83 .18-223.34-.04-446.69 .1-670.03-.17-10.37 .65-20.85-.88-31.14-2.76-8.13-11.4-14.11-20.13-12.88-291.67,.05-583.35,.01-875.03,.01-13.19,.09-26.41-.51-39.58,.51Z"/>
<path d="m209.46,219.54c14.88-1.23 30.08-.17 44.23,4.86 20.38,5.98 37.83,19.45 51.25,35.64 31.78,37.9 32.22,98.4 .68,136.6-19.95,26.18-52.53,42.59-85.61,41.49-53.61,2.97-103.89-41.58-109.57-94.51-1.06-16.34-1.49-33.32 4.18-48.94 12.82-40.9 51.81-72.56 94.84-75.14Z"/>
<path d="m383.67,603c97.29-97.57 194.73-195.01 292.29-292.3 78.71,78.07 156.74,156.83 235.35,234.98 3.63,3 2.12,8.2 2.72,12.28-.09,82 .04,164-.07,246.01-268.3,.04-536.61,.07-804.91-.02-.12-35.01-.01-70.01-.12-105.01-.43-4.85 3.89-8.01 6.75-11.25 58.93-58.51 117.34-117.54 176.31-176 30.81,30.19 60.9,61.1 91.68,91.31Z"/>
</svg>
