<svg width="1280" xmlns="http://www.w3.org/2000/svg" height="1280" viewBox="0 0 1024 1024">
<path d="m381.99,91.98c89.46-26.63 187.52-25.9 275.69,5.42 60.69,21.49 116.38,56.56 162.44,101.49 43.15,42.8 77.44,94.56 100.04,150.98 20.35,51.07 30.43,106.18 29.91,161.13 1.68,75.66-18.6,151.36-56.09,216.98-37.24,66.04-91.85,122.19-157.09,160.87-103.26,63.12-233.62,78.35-349.3,43.73 17.65-30.05 35.41-60.64 44.41-94.58 10.36-39.66 20.43-79.4 30.39-119.15 5.92,8.18 11.84,16.57 19.79,22.96 21.49,17.66 48.5,28.64 76.27,30.64 47.9,3.34 96.94-10.83 135.46-39.55 49.12-35.35 81.1-90.08 97.47-147.57 10-35.16 14.63-71.8 14.72-108.33 2.82-63.42-23.9-126.19-67.4-171.71-23.91-24.46-52.7-43.82-83.5-58.52-58.8-26.91-125.84-31.55-189.18-21.67-42.91,7.37-85.1,21.6-122.1,44.82-64.08,41.74-113.48,109.12-125.35,185.52-8.12,51.52-1.83,106.84 24.43,152.56 13.7,23.79 35,43 60.25,53.85 4.52,1.85 9.51,2.43 14.37,1.87 3.99-1.83 6.97-5.61 8.23-9.78 3.57-12.93 7.1-25.88 10.05-38.96 1.32-5.58 .97-11.87-2.09-16.84-5.58-8.96-12.74-16.87-17.68-26.23-11.67-20.56-15.25-44.64-15.89-67.96 .16-35.83 9.05-71.75 26.74-102.98 14.56-25.35 34.44-47.54 57.4-65.56 19.65-14.34 41.83-25.29 65.27-31.83 19.99-5.44 40.68-7.71 61.34-8.48 36.81-1.1 74.49,5.3 107.27,22.62 36.41,20.39 64.63,55.59 74.84,96.24 8.95,35.08 6.81,71.89 2.48,107.51-7.6,50.89-25.04,102.32-60.02,141.12-22.14,24.77-56.5,38.35-89.57,33.45-27.3-4.25-51.53-26.11-56.36-53.61-3.21-16.78 1.64-33.68 5.99-49.76 9.64-34.24 21.74-67.8 29.64-102.51 4.36-20.99 7.03-43.78-1.37-64.13-3.98-9.24-9.71-17.95-17.61-24.31-9.47-7.92-22.13-10.87-34.26-10.79-22.83-1.98-45,10.74-58.84,28.26-15.16,18.26-23.85,41.28-26.38,64.75-1.72,22.06-2.01,44.62 4.16,66.08 1.29,8.72 6.45,16.27 8.47,24.67-18.59,81.54-38.62,162.8-57.47,244.3-4.17,20.38-5.87,41.19-6.25,61.96-.73,11.03-.59,22.09 .36,33.11-79.41-34.29-147.62-93.19-194.06-166.07-37.75-57.52-61.03-124.46-66.87-193.04-8.94-86.86 8.48-176.49 50.83-252.97 23.21-42.51 53.4-81.18 88.95-114.06 47.98-43.42 105.19-76.82 167.07-95.94Z"/>
</svg>
