<svg width="1280" xmlns="http://www.w3.org/2000/svg" height="1280" viewBox="0 0 1024 1024">
<path d="m208.43,75.45c10.09-1.72 20.33-2.47 30.56-2.48 181.67,.05 363.34,.06 545.02-.01 27.93-.55 56.11,5.92 80.6,19.47 39.32,22.38 70.99,60.1 81.41,104.62 4.03,16.66 4.93,33.87 5.01,50.95-.06,178.33-.03,356.67-.01,535.01 .3,25.42-4.59,51.17-15.97,74.02-9.93,21.31-25.46,39.57-43.05,54.97-15.34,13.44-33.42,23.64-52.64,30.36-22.94,7.78-47.38,8.58-71.36,8.69-132.03-.14-264.07,.04-396.1-.09 23.73-35.2 46.74-71.79 59.5-112.6 11.27-42.11 21.63-84.46 32.12-126.76 6.53,9.24 13.5,18.39 22.62,25.27 17.52,13.2 38.02,22.72 59.7,26.46 53.37,7.76 109.84-6.71 152.12-40.38 46.11-36.62 77.11-89.81 92.85-146.07 11.65-43.87 15.51-89.71 12.35-134.94-7.56-61.51-40.45-118.69-87.35-158.75-27.03-22.45-58.87-38.6-92.06-49.79-40.13-12.62-82.78-16.18-124.62-13.13-48.85,3.59-97.24,16.94-140.26,40.53-34.38,19.9-64.19,47.39-87.93,79.15-24.8,32.91-42.15,71.67-48.4,112.5-4.07,26.25-4.46,53.15-.29,79.41 5.31,29.88 15.07,59.79 33.75,84.12 12.55,16.66 29.4,30 48.36,38.64 4.98,1.57 10.45,4.64 15.65,2.42 4.86-1.81 8.97-5.83 9.78-11.11 3.39-13.07 7.12-26.09 9.51-39.39 1.88-8.3-3.45-15.51-8.14-21.7-16.93-21.12-25.77-48-26.89-74.88-3.18-51.92 14.27-104.91 48.47-144.21 25.45-30.85 60.57-53.51 99.17-63.97 20.24-5.26 41.15-8.15 62.09-7.88 36.41-1.36 73.9,5.23 105.91,23.22 35.52,19.74 61.83,54.6 72.1,93.81 6.1,24.51 7.15,50.02 5.27,75.14-2.39,45.32-13.01,90.66-34.29,130.93-11.14,21.02-25.92,40.54-45.05,54.89-19.79,14.84-45.48,21.13-69.92,18.09-26.08-3.75-49.07-23.27-56.38-48.64-2.81-12.99-2.51-26.7 1.16-39.49 6.66-26.57 15.93-52.38 23.35-78.73 6.84-24.5 14.43-49.38 13.72-75.08-.51-20.07-9.63-40.93-26.9-52.03-12.06-8.17-27.41-8.83-41.43-7.56-24.02,3.55-43.66,21.13-55.42,41.64-12.95,21.12-17.84,46.35-17.25,70.91-.5,19.18 2,38.53 8.63,56.59 1.46,3.79 3.21,7.48 4.19,11.45-1.03,8.81-3.74,17.32-5.67,25.96-14.35,60.66-28.7,121.33-43.05,181.99-4.04,17.54-8.91,34.97-11.2,52.87-5.69,40.16-3.97,80.89 .3,121.11-33.36,.03-66.72,.11-100.08-.02-24.95,.08-50.41-3.96-73-14.94-30.72-14.12-56.43-38.27-73.93-67.06-15.53-25.01-22.02-54.72-22.05-83.94-.06-181.67 .06-363.34-.05-545.02-.45-27.67 5.51-55.71 19.1-79.96 23.85-43.25 67.05-76.89 116.37-84.58Z"/>
</svg>
