<svg width="1280" xmlns="http://www.w3.org/2000/svg" height="1280" viewBox="0 0 1024 1024">
<path d="m814.05,119.06c19.18-6.33 40-9.61 59.97-5.13 8.88,2.35 17.41,6.6 24.2,12.85 9.51,11.03 13.97,25.77 13.82,40.21 .86,18.64-4.58,36.76-11.02,54.02-11.48,28.93-27.92,56.02-49.35,78.68-31.93,34.37-66.09,66.6-98.94,100.08-1.3,1.16-1.55,2.91-1.15,4.54 30.39,131.42 60.51,262.92 90.72,394.37 2.67,7.65-1.73,15.36-7.83,19.79-23.45,17.54-46.94,35.03-70.27,52.74-6.96,6.12-18.48,6.43-25.27-.12-4.22-5.11-6.88-11.27-10.04-17.03-40.4-73.3-80.54-146.74-120.93-220.05-10.62-19.15-20.75-38.57-31.82-57.46-49.55,49.05-98.57,98.64-148.05,147.76 9.67,33.77 18.47,67.78 27.99,101.6 1.97,7.91 5.68,18.36-1.22,24.97-14.32,16.28-30.63,30.7-45.57,46.41-6.52,5.99-12.25,15-22.16,15.07-8.19,1.02-14.77-5.18-19.19-11.3-32.97-44.33-66.34-88.37-99.32-132.69-7.15-9.97-18.01-16.06-27.47-23.51-40.89-30.81-82.06-61.26-122.78-92.27-9.66-6.55-8.45-21.94 .39-28.8 18.11-17.57 34.66-36.69 53.09-53.94 5.89-5.57 14.93-5.72 22.2-3.05 35.17,9.93 70.55,19.05 105.67,29.14 49.07-49.53 98.66-98.53 147.74-148.04-89.9-50.08-180.39-99.11-270.47-148.86-7.78-4.51-16.38-7.86-23.18-13.87-6.5-5.5-8.07-16.3-2.66-23.05 4.23-5.7 9.61-10.38 14.57-15.4 19.07-18.93 38.04-37.97 56.98-57.04 4.68-4.34 10.16-9.99 17.24-8.51 11.8,1.91 23.31,5.29 34.95,7.97 100.33,24.02 200.68,47.98 301.01,71.99 15.86,3.78 31.67,7.82 47.67,11.04 24.32-24.88 49.17-49.23 73.67-73.93 11.9-12.12 24.33-23.69 37.07-34.92 23.57-19.44 50.74-34.58 79.74-44.26Z"/>
</svg>
