<svg width="1280" xmlns="http://www.w3.org/2000/svg" height="1280" viewBox="0 0 1024 1024">
<path d="m498.41,73.4c85.14-2.97 171.23,19.41 243.5,64.69 97.92,59.67 170.61,159.36 196.95,271.01 17.5,76.42 16.01,157.55-7.16,232.62-21.64,70.5-61.95,134.88-114.54,186.44-54.02,51.5-120.81,90-193.18,108.77-68.8,17.38-141.84,19.21-211.09,3.22-76.87-17.21-148.1-56.8-205.13-110.9-52.72-50.63-92.55-114.6-114.78-184.22-26.01-84.42-27.09-176.71-1.39-261.34 28.06-91.33 86.45-173.33 164.49-228.6 40.88-29.01 86.41-51.83 134.75-65.35 34.98-10.01 71.27-14.86 107.58-16.34m-99.99,219.1c-16.93,1.86-33.11,16.77-32.4,34.47-.02,123.35-.06,246.72 .02,370.07-.77,16.77 13.13,30.97 28.98,33.91 8.88,2.04 18.29-.33 25.98-4.96 103.12-60.51 206.08-121.31 309.23-181.78 11.2-6.09 19.91-17.98 18.9-31.2 1.41-12.97-6.03-25.64-17.22-31.87-101.36-59.67-202.82-119.17-304.08-179-8.78-5.42-18.6-11.54-29.41-9.64Z"/>
</svg>
