<svg width="1280" xmlns="http://www.w3.org/2000/svg" height="1280" viewBox="0 0 1024 1024">
<path d="m490.45,73.5c72.58-3.86 146.23,10.47 211.57,42.47 77.22,37.13 143.48,97.11 186.91,171.09 40.78,66.99 62,145.56 61.15,223.94 2.44,107.5-39.79,214.05-111.26,293.81-44.43,50.04-100.9,88.94-162.69,114.36-68.24,28.09-143.73,36.06-216.82,28.53-100-11.14-194.69-59.41-264.38-131.64-56.07-58.97-96.44-133.31-112.8-213.18-11.28-57.31-12.7-116.83-1.61-174.28 17.17-92.75 66.5-178.64 136.01-242.1 60.78-54.6 136.5-93.27 217.33-106.75 18.72-3.2 37.62-5.33 56.59-6.25m4.01,128.08c-78.43,3.2-154.08,39.21-208.09,95.77-31.14,33.52-55.89,73.32-70.02,116.95-14.38,42.48-18.39,88.17-13.29,132.65 7.15,73.14 43.09,142.39 96.72,192.27 28.97,27.07 63.2,48.45 100.12,62.89 55.15,21.69 116.47,25.3 174.45,14.28 68.26-13.69 131.5-51.54 175.88-105.16 46.56-55.4 73.77-127.61 71.87-200.23 .54-28.13-3.57-56.18-10.7-83.34-20.33-71.98-67.41-136.21-130.39-176.66-54.57-36.22-121.23-53.7-186.55-49.42Z"/>
<path d="m395.45,292.51c11.84-2.74 23.05,3.08 32.63,9.36 96.94,57.1 193.94,114.09 290.9,171.16 9.81,6.04 21.92,10.8 26.95,22.03 3.87,6.94 3.06,15.3 3.07,22.94-1.24,10.42-8.1,19.72-17.25,24.72-103.22,60.81-206.5,121.53-309.78,182.24-15.21,10.71-37.86,6.92-49.16-7.76-7.62-9.29-7.43-21.85-7.79-33.18-.08-113.35 .05-226.69-.06-340.03 .19-10.28-.05-20.83 3.4-30.67 5.07-10.57 15.47-18.8 27.09-20.81Z"/>
</svg>
