<svg width="1280" xmlns="http://www.w3.org/2000/svg" height="1280" viewBox="0 0 1024 1024">
<path d="m437.31,113.3c10.09-3.76 21.11-3.18 31.69-3.38 33.33,.3 66.68-.2 100.01,.19 24.65,.05 47.8,19.9 51.39,44.34 1.48,10.11 1.58,20.34 1.64,30.55-.07,72.33-.06,144.66-.02,216.99 75,.03 149.99,.01 224.99-.02 12.26,.02 24.96,.55 36.29,5.75 12.37,6.44 22.74,17.11 27.54,30.35 4.16,11.52 2.96,23.92 3.23,35.93-.26,31.67 .13,63.34-.12,95.01 .48,21.73-15.17,41.16-34.62,49.32-9.05,3.41-18.78,3.71-28.32,3.71-76.33-.05-152.66-.07-228.99-.02-.04,75-.03,149.99 .01,224.99-.14,13.9-.52,28.81-8.04,40.99-7.22,10.09-16.64,19.35-28.6,23.47-12.77,3.72-26.22,3.46-39.39,3.58-26.67-.11-53.34,0-80.01-.03-12.67,0-25.95-1.21-36.96-8.06-11.11-6.07-19.2-16.62-23.75-28.27-3.14-8.49-3.2-17.75-3.34-26.68 .09-76.66 .09-153.32 .03-229.98-78.33-.09-156.66,0-234.99-.02-10.42,.41-20.86-1.88-29.91-7.11-16.81-9.09-27.23-27.77-27.5-46.71-1.32-30.37-.18-60.8-.62-91.19 .05-16.11-.63-33.72 8.06-48 7.21-10.09 16.64-19.35 28.6-23.47 11.13-3.28 22.86-3.44 34.38-3.56 74,.03 148,.06 222,.01 .08-80-.09-160 .05-240 .66-21.37 15.62-40.91 35.27-48.68Z"/>
</svg>
