<svg width="1280" xmlns="http://www.w3.org/2000/svg" height="1280" viewBox="0 0 1024 1024">
<path d="m224.4,73.48c3.65-.13 10.94-.39 14.59-.52 181.67,.06 363.34,.07 545.02,0 26.94-.52 54.11,5.46 77.98,18.07 29.82,16.18 54.95,41.03 70.96,70.98 13.21,24.77 18.07,53.12 18.03,80.98 .02,181.67 .06,363.35-.02,545.02-.09,30.95-9.34,61.75-26.37,87.6-23.19,34.02-58.14,61.01-98.64,70.4-17.98,4.35-36.59,4.08-54.94,4.94-170,.14-340.01-.03-510.01,.08-22.4-.27-45.26,.25-66.98-6.09-26.53-6.87-51.04-21.19-70.33-40.63-18.34-17.31-33.27-38.64-41.38-62.62-6.56-18.13-9.16-37.47-9.3-56.68-.05-181.67 .06-363.34-.06-545.02-.33-25.42 4.47-51.23 16.03-74 25.26-51.21 77.73-89.42 135.42-92.51m232.17,151.05c-10.01,6.17-17.84,17.36-17.49,29.45-.25,61.67 .04,123.34-.1,185-61.34,.12-122.69-.1-184.02,.06-18.13-.4-34.26,15.28-35.6,33.12-.96,18.26-.08,36.56-.43,54.84 .23,10.69-.68,21.63 1.95,32.12 5.15,15.74 21.5,27.02 38.1,25.94 60-.08 120-.09 180-.04 .12,61-.11,122.01 .06,183.02-.86,15.23 10.25,28.67 23.84,34.12 6.7,2.56 14.09,1.5 21.11,1.92 21.68-.24 43.37,.16 65.05-.12 18.46,.4 34.99-15.64 35.92-33.92 .17-61.67-.06-123.35 .06-185.02 60.98-.21 121.98,.28 182.96-.19 15.44,.35 29.81-10.77 34.74-25.14 1.6-5.72 1.03-11.82 1.36-17.67-.16-21.69 .06-43.37-.09-65.05 2.5-21.13-18.15-40.47-38.97-38.01-60,.04-120,.07-180,.02-.13-61.01 .1-122.02-.06-183.02 .77-18.87-15.63-35.3-33.99-36.79-21.66-.56-43.33,.02-64.98-.25-9.89,.21-20.84-.14-29.42,5.61Z"/>
</svg>
