<svg width="1280" xmlns="http://www.w3.org/2000/svg" height="1280" viewBox="0 0 1024 1024">
<path d="m260.4,110.47c3.64-.12 10.94-.38 14.59-.5 158.34,.04 316.67,.07 475.01-.01 31.88-.57 63.69,9.24 90.18,26.88 24.13,17.01 45.19,39.24 57.86,66.14 11.24,22.19 15.87,47.26 15.95,72.01 .04,153.33-.04,306.67 .04,460.01-.13,13.13 .71,26.39-1.59,39.41-3.78,28.75-16.05,56.17-34.54,78.47-15.77,18.13-33.96,34.79-55.89,45.12-20.93,10.84-44.55,15.77-68.01,16.19-16.32,1-32.67,.9-49,.82-138.34-.03-276.67,.01-415.01-.02-17.84-.51-35.98-.04-53.42-4.48-25-5.54-48.51-17.42-67.85-34.2-31.33-25.93-53.4-63.65-57.75-104.33-2.83-32.25-1.82-64.65-1.97-96.98 0-116.67 0-233.33 0-350 .04-18.69-.32-37.39 .58-56.06 .53-33.82 12.4-67.4 33.39-93.95 15.7-19.44 34.7-36.51 57.02-47.99 18.72-9.62 39.46-14.95 60.41-16.53m5.04,73.07c-44.83,2.81-83.58,44.44-82.51,89.45 .13,151.67 .07,303.34 .04,455.01 .33,15.64-1.42,31.76 3.06,46.99 4.87,19.28 17.79,35.63 33.16,47.82 15.05,12.13 34.45,18.85 53.8,18.25 150-.13 300-.03 450.01-.05 19.83-.31 40.55,2.19 59.39-5.57 32.57-12.72 57.32-45.11 58.56-80.43 .13-158.34-.01-316.68 .07-475.02-.1-12.36-.86-25.06-5.45-36.68-12.62-34.99-48.12-60.84-85.56-60.35-155,.05-310.01,.08-465.01-.01-6.53-.02-13.05,.18-19.56,.59Z"/>
<path d="m481.11,260.12c3.75-2.63 8.27-4.2 12.91-3.95 13.26-.46 26.56-.59 39.82,.16 4.5,.39 8.14,3.56 11.2,6.61 4.32,5.61 3.42,13.42 3.97,20.04 .03,64-.07,128 .01,192.01 65,.04 130,0 195-.02 7.16-.11 15.2,.99 20,6.99 4.27,4.54 3.74,11.27 4,17.01 .06,12.13 .63,24.34-.62,36.42-1.73,9.85-12.48,13.9-21.42,13.46-65.65,.41-131.31-.02-196.97,.17-.05,65 0,130 .02,195 .17,7.03-1.17,14.51-6.14,19.86-3.75,2.62-8.28,4.19-12.91,3.95-13.78,.34-27.65,.85-41.37-.43-9.85-1.73-13.9-12.48-13.46-21.42-.41-65.65 .02-131.31-.17-196.97-65-.05-130.01,0-195,.02-7.04,.17-14.52-1.17-19.86-6.14-2.63-3.75-4.2-8.28-3.95-12.91-.35-13.78-.86-27.65 .43-41.37 1.72-9.85 12.48-13.9 21.42-13.46 65.65-.41 131.31,.02 196.97-.17 .04-65 0-130.01-.02-195-.18-7.04 1.17-14.52 6.14-19.86Z"/>
</svg>
