<svg width="1280" xmlns="http://www.w3.org/2000/svg" height="1280" viewBox="0 0 1024 1024">
<path d="m490.45,73.48c70.36-3.73 141.68,9.65 205.6,39.4 68.38,32.18 129.42,81.1 172.86,143.2 41.79,57.81 69.45,126.03 78.08,196.94 9.09,69.29 2.59,140.86-21.24,206.69-20.29,56.52-52.5,108.71-93.5,152.54-47.5,50.67-107.19,89.88-172.59,113.26-36.81,13.34-75.61,20.8-114.59,23.77-41.33,2.22-83.1,1.11-123.66-7.73-65.95-13.48-128.38-43.15-181.15-84.81-91.8-71.48-153.42-181.2-164.68-297.2-6.9-61.33-.67-124.04 18.06-182.84 30.19-92.34 91.29-174.82 172.39-228.66 35.09-24.17 73.95-42.73 114.57-55.56 35.56-11.18 72.67-16.96 109.85-19m-26.09,183.93c-13.2,4.92-24.77,16.85-25.32,31.55-.18,50 .06,100.01-.05,150.02-49.01,.14-98.02-.14-147.03,.07-14.29-1.07-26.62,9-32.86,21.04-4.32,8.59-2.67,18.65-3.19,27.91 .45,21.62-.57,43.26 .44,64.87 1.58,18.34 19.5,32.81 37.64,32.04 48.32,.28 96.66-.05 144.99,.1 .11,48.01-.09,96.01 .04,144.02-1.91,19.07 14.4,37.5 33.37,38.47 26.36,.88 52.82,.9 79.18-.03 18.61-1.16 34.61-18.67 33.48-37.43-.03-48.34-.11-96.68-.03-145.02 45.33-.05 90.66-.06 135.99,.06 9.01-.24 18.71,.12 26.96-4.15 10.79-6.09 19.34-17.23 19.96-29.92 .4-20-.18-40.01 .17-60.01-.29-11.36 1.38-23.92-5.14-33.97-6.54-11.47-19.67-18.92-32.93-18.12-48.34,.14-96.67,.11-145.01,.07-.15-48.67 .14-97.35-.07-146.02 .83-18.1-14.09-35.04-32.07-36.62-21.61-.99-43.26,.01-64.88-.43-7.86,.33-15.97-.56-23.64,1.5Z"/>
</svg>
