<svg width="1280" xmlns="http://www.w3.org/2000/svg" height="1280" viewBox="0 0 1024 1024">
<path d="m476.47,41.63c23.4-1.26 46.95-.81 70.38-.33 13.21,6.18 23.24,18.09 30.19,30.67 6.96,11.7 8.05,25.72 8.01,39.02-.1,120.01-.05,240.02-.03,360.03 .46,28.25-18.64,54.45-43.72,66.27-12.44,5.93-26.66,6.55-40.17,5.47-34.03-4.99-63.26-36.76-62.08-71.74-.16-121.68 .07-243.36-.11-365.03-1.45-22.6 10.29-44.53 27.67-58.41 3.01-2.33 6.03-5.09 9.86-5.95Z"/>
<path d="m283.43,178.51c20.65-2.76 43.03,3.18 57.92,18.13 9.5,9.12 16.9,20.48 21.13,32.97 6.39,21.94 2.6,47.14-11.63,65.28-8.31,11.05-20.17,18.52-30.43,27.55-32.35,27.25-57.85,62.18-75.4,100.58-31.67,70.17-34.74,153.32-6.04,224.99 17.9,46.99 48.3,88.95 86.97,121.04 24.44,19.6 51.75,35.77 81.05,46.96 32.91,13.47 68.58,19.06 104,19.83 67.63,.63 134.55-24.46 186.84-66.98 57.66-47.24 95.93-117.52 104.51-191.53 2.53-24.67 2.61-49.69-.43-74.3-5.9-40.39-19.8-79.77-41.63-114.32-19.27-31.1-44.88-57.97-73.91-80.12-27.27-20-36.33-60.87-20.37-90.62 7.07-12.33 16.17-24.19 29.05-30.89 23.26-12.86 53.97-12.66 75.96,2.9 36.31,26.08 68.55,57.88 95.15,93.84 43.09,59.32 71.91,129.29 80.82,202.2 9.05,68.47 1.94,139.14-21.92,204.03-23.63,64.84-61.65,124.66-111.89,172.13-47.94,45.11-106.4,78.59-168.8,99.24-73.82,23.34-154.01,27.38-229.49,9.72-76.54-18.06-148.65-56.07-205.66-110.37-48.64-45.88-85.27-103.72-108.91-166.1-31.28-83.38-35.9-176.55-13.29-262.67 24.66-94.49 81.76-180.51 160.55-238.44 10.46-7.89 22.7-13.7 35.85-15.05Z"/>
</svg>
