<svg width="1280" xmlns="http://www.w3.org/2000/svg" height="1280" viewBox="0 0 1024 1024">
<path d="m228.61,73.73c13.41-1.41 26.93-.63 40.39-.75 116.67,.01 233.34,.08 350.01-.04 17.41-.59 34.57,4.03 50.62,10.47 16.61,6.83 32.82,15.53 45.64,28.31 29.45,29.55 58.99,59.02 88.49,88.52 12,11.95 19.69,27.33 26.31,42.72 6.36,15.2 10.83,31.44 10.85,48.02 .26,48.99-.05,97.99 .1,146.99 26.13,.62 53.74-2.22 78.37,8.57 34.85,14.74 62.5,48.08 66.92,86.13 2.25,22.03 1.65,44.21 1.69,66.33-.02,60.01 0,120.02 .03,180.03 .52,9.9-3.02,22.48-14.23,24.57-44.14,1.2-88.33-.28-132.48,.64-.95,31.91 .28,63.84-.53,95.74-.54,20.9-15.66,39.55-34.64,47.24-10.03,3.27-20.68,3.84-31.14,3.83-176.67-.09-353.35-.07-530.03-.01-11.55-.02-23.79-1.05-33.92-7.14-15.63-8.82-27.38-25.67-27.84-43.92-.84-31.88 .42-63.78-.55-95.65-41.89-.76-83.81-.17-125.71-.23-9.73,1.47-20.62-6.85-19.78-17.11-.48-79.99 .03-160-.24-240-1.56-42.85 27.8-82.82 66.16-99.89 25.04-11.13 53.23-8.45 79.88-9.15 .01-103.32 .08-206.64-.04-309.97-1.13-26.07 19.85-50.83 45.67-54.25m27.41,72.29c-.04,121.99-.02,243.98-.01,365.96 170.66,.03 341.31,.03 511.97,0 .03-73.32 .03-146.64 0-219.96-28.67-.08-57.33,0-85.99,.06-9.06-.19-18.65,0-26.97-4.12-20.32-8.23-34.53-29.91-33.06-51.94-.05-30 .14-60 .02-90-121.99-.03-243.98-.03-365.96,0m614.41,366.48c-19.02,3.54-33.73,24.37-28.39,43.51 3.54,19.3 24.88,33.25 44,28.06 11.81-2.78 21.5-11.86 26.16-22.92 2.57-7.08 1.99-14.97 .96-22.28-4.97-17.7-24.19-31-42.73-26.37m-614.41,218.52c-.04,48.65-.02,97.31-.01,145.96 170.66,.03 341.31,.03 511.97,0 .04-48.66 .02-97.31 .01-145.96-170.66-.03-341.31-.03-511.97,0Z"/>
</svg>
