<svg width="1280" xmlns="http://www.w3.org/2000/svg" height="1280" viewBox="0 0 1024 1024">
<path d="m311.02,70.02c7.93-4.24 17.36-2.61 25.98-3.13 28.6,.57 57.25-.66 85.82,.52 26.77,10.15 49.16,33.91 54.26,62.57 3.29,18.81 3.36,38.77-3.16,56.93-5.4,15.01-13.54,29.01-23.71,41.29-16.22,18.64-30.26,40.71-33.58,65.64-1.99,14.34-.09,29.54 7.44,42.09 7.65,12.35 20.69,20.24 34.24,24.68 19.2,6.95 40.03,6.73 60.15,6.02 59.12-2.76 117.39-14.55 176.48-17.73-8.63,54.09-18.01,108.26-20.17,163.1-1.51,24.52-1.62,50.71 10.19,73.03 5.93,12.09 16.31,21.25 27.24,28.77 13.03,9.07 30.16,13.87 45.67,9.07 21.3-6.59 38.57-21.2 57.11-32.91 33.25-19.09 75.03-27.98 111.73-13.73 24.83,9.63 42.12,32.36 51.61,56.53 8.89,22.02 9.85,46.26 8.14,69.68-2.45,25.16-13.6,49.57-31.67,67.34-18.46,17.74-45.24,24.37-70.26,22.91-24.92-1.81-48.12-13.43-67.44-28.77-19.89-17.21-43.58-32.61-70.54-34.38-19.59-2.11-40.98,3.54-54.34,18.68-8.64,10.87-12.27,24.65-13.65,38.22-4.68,50.05 18.07,97.59 16.75,147.46-31.65,1.18-62.96,6.22-94.35,10.09-35.5,4.32-71.14,8.56-106.97,8.07-12.98,.16-25.79-2.88-38.01-7-12.49-4.91-24.87-12.32-31.86-24.15-7.26-11.48-8.56-25.63-8.04-38.89 1.58-17.75 9.37-34.23 18.95-49.01 6.09-9.69 14.49-17.62 20.87-27.09 11.21-15.57 19.91-33.41 22.5-52.58 1.43-17.53 1.48-35.82-5.52-52.29-10.37-27.09-35.98-45.66-63.16-53.62-28.06-7.36-58.28-6.86-85.84,2.43-17.9,6.8-35.05,16.69-47.58,31.43-15.23,16.89-20.92,40.43-20.28,62.71-.15,25.62 8.99,50.4 21.56,72.39 12.41,19.62 29.07,38.15 33.1,61.76 3.66,24.21-12.11,46.03-29.68,60.85-19.06,14.93-44.81,16.25-68,16.76-43.53-1.12-86.89-6.14-129.86-13.01-15.57-2.64-31.32-4.06-46.8-7.2-.79-83.51-.12-167.03-.34-250.55 .18-111.61-.35-223.22 .26-334.82 61.92,9.13 123.9,20.8 186.74,19.92 20.23,.41 41.42-3.94 57.88-16.26 17.79-14.25 32.75-35.95 30.01-59.82-2.99-20.05-15.79-36.72-26.88-53-21.01-29.78-32.25-67.29-26.67-103.7 2.51-12.09 6.21-24.28 13.65-34.33 9.58-14.79 24.43-25.29 40.03-32.97Z"/>
</svg>
