<svg width="1280" xmlns="http://www.w3.org/2000/svg" height="1280" viewBox="0 0 1024 1024">
<path d="m108.99,109.99c122.01,.01 244.01,.01 366.01,0 0,122.01 0,244.01 .01,366.01-116.68,.06-233.35-.14-350.02,.12-4.86-1.11-11.6,1.72-15.67-1.51-.1-2.39-.3-7.18-.4-9.57 .16-118.35 .05-236.7 .07-355.05m74.01,73.01c0,73 0,146 0,219 73-.01 146,0 219,0-.01-73 0-146 0-219-73,0-146,0-219,0Z"/>
<path d="m547.99,109.99c122.01,.01 244.01,.01 366.01,0 0,122.01-.01,244.01 .01,366.01-116.68,.06-233.35-.14-350.02,.12-4.87-1.11-11.61,1.72-15.67-1.51-.84-13.19-.26-26.41-.34-39.61 .04-108.34 .01-216.67 .01-325.01m74.01,73.01c0,73 0,146 0,219 73-.01 146,0 219,0-.01-73 0-146 0-219-73,0-146,0-219,0Z"/>
<path d="m256,255.99c24.33,.02 48.67,.02 73,0-.01,24.67-.01,49.34 0,74.02-24.33-.02-48.67-.02-73,0 .01-24.68 .01-49.35 0-74.02Z"/>
<path d="m695.57,256.69c23.78-1.48 47.67-.71 71.49-.56 2,24.22 .83,48.64 .81,72.93-24.22,2-48.65,.83-72.93,.81-2.01-24.22-.84-48.65-.81-72.93 .36-.06 1.08-.19 1.44-.25Z"/>
<path d="m108.99,548.99c122.01,.01 244.01,.01 366.01,0 0,122.01 0,244.01 .01,366.01-116.68,.06-233.35-.15-350.02,.12-4.86-1.12-11.6,1.71-15.67-1.51-.84-13.19-.26-26.41-.34-39.61 .05-108.34 .01-216.67 .01-325.01m74.01,73.01c0,73 0,146 0,219 73-.01 146,0 219,0-.01-73 0-146 0-219-73,0-146,0-219,0Z"/>
<path d="m547.99,548.99c73.34,.01 146.68,.01 220.01,0 0,24.34 0,48.68 0,73.02 24.33-.02 48.66-.02 73,0-.01-24.34 0-48.68 0-73.02 24.33,.02 48.66,.02 73,0 0,73.01-.01,146.01 0,219.01-73,0-146-.01-219,0 0-24.34-.01-48.67 0-73.01-24.34,.02-48.67,.02-73,0-.28,73.33 .56,146.68-.41,220-24.22-.25-48.45,.48-72.65-.12-.95-5.24-.85-10.6-1.02-15.86 .16-116.67 .05-233.34 .07-350.02Z"/>
<path d="m255.99,694.99c24.34,.02 48.68,.02 73.02,0-.02,24.34-.02,48.67 0,73.02-24.34-.02-48.68-.02-73.02,0 .02-24.34 .02-48.68 0-73.02Z"/>
<path d="m694.13,841.94c24.53-2.25 49.26-.37 73.87-.94-.19,24.65 .45,49.33-.42,73.98-24.21-.23-48.44,.49-72.64-.11-2.01-24.22-.84-48.65-.81-72.93Z"/>
<path d="m841,840.99c24.33,.02 48.66,.02 73,0-.01,24.67-.01,49.34 0,74.02-24.34-.03-48.67-.03-73,0 .01-24.68 .01-49.35 0-74.02Z"/>
</svg>
