<svg width="1280" xmlns="http://www.w3.org/2000/svg" height="1280" viewBox="0 0 1024 1024">
<path d="m500.45,146.46c37.2-2.68 74.58,4.48 109.25,17.82 57.79,22.44 111.27,61.56 141.11,116.93 26.92,46.47 32.97,104.81 14.83,155.49-6.68,19.3-15.66,38.22-29.44,53.49-19.31,20.75-41.69,38.72-66.42,52.59-17.4,10.04-36.06,19.1-49.49,34.5-9.46,11.01-17.72,23.29-23.32,36.72-4.75,10.29-2.44,22.57-8.6,32.35-4.23,5.99-10.23,12.54-18.38,11.49-45.01,.37-90.03,.14-135.03,.11-10.07,1.23-16.39-8.38-19.44-16.54-4.99-16.63-3.76-34.29-2.45-51.37 1.23-16.94 6.7-33.36 14.66-48.29 19.69-33.82 49.13-61.28 82.27-81.72 21.06-12.29 45.04-19.92 63.26-36.76 15.01-12.65 20.81-33.09 20.51-52.14-1.08-14.68-10.41-27.4-21.79-36.11-25.59-20.72-60.96-25.9-92.66-19.69-16.61,3.06-32.45,10.66-44.94,22.06-19.62,17.85-35.83,38.95-52.86,59.16-7.28,9.75-22.55,9.73-31.66,2.57-30.31-23-60.5-46.17-90.83-69.14-6.55-4.43-11.55-11.81-10.92-19.99-.37-6.73 3.61-12.47 6.91-17.96 18.96-29.49 41.02-57.45 68.23-79.77 38.69-32.98 87.01-54.17 137.21-61.71 13.23-2.14 26.59-3.47 39.99-4.09Z"/>
<path d="m429.4,695.53c46.51-1.29 93.1-.15 139.63-.56 14.5-2.54 28.52,11.5 26,26 .04,41.68-.15,83.36 .07,125.04-.19,8.13 .97,17.33-5.41,23.69-6.62,8.52-18.12,7.75-27.67,8.24-38.34,.22-76.69-.08-115.03,.13-9.59,.04-20.54,.18-27.84-7.23-8.23-8.06-6.67-20.44-7.2-30.83 .26-40.3-.32-80.61 .27-120.89-.32-10.55 6.72-21.09 17.18-23.59Z"/>
</svg>
