<svg width="1280" xmlns="http://www.w3.org/2000/svg" height="1280" viewBox="0 0 1024 1024">
<path d="m490.44,73.48c84.17-4.51 169.79,15.61 242.34,58.73 104.43,59.84 181.66,164.88 207.71,282.37 15.59,72.54 14.16,148.97-6.63,220.35-31.21,107.2-105.03,201.43-201.96,256.94-50.32,29.61-106.87,48.54-164.86,55.27-27.83,3.74-55.99,3.1-83.99,2.62-62.09-3.77-123.41-20.94-178.1-50.65-37.46-19.86-71.59-45.59-102.08-74.99-54.06-53.89-94.3-121.78-114.56-195.43-25.63-96.15-19.7-201.31 20.85-292.55 24.17-55.08 59.78-105.16 103.73-146.24 40.47-37.1 87.66-67.12 138.81-87.18 44.11-17.72 91.37-26.74 138.74-29.24m22.01,145.99c-43.42,1.67-87.18,13.03-123.45,37.54-32.75,21.43-58.74,51.9-78.6,85.37-4.31,6.74-2.71,16.57 4.03,21.16 24.95,19.45 50.48,38.19 75.56,57.48 7.43,6.1 19.88,5.95 25.98-2.02 11.58-14.33 22.96-28.95 36.3-41.72 8.81-8.19 18.4-16.12 30.03-19.87 28.41-9.78 62.4-6.13 85.99,13.31 8.83,6.84 15.96,16.81 16.72,28.26 .01,13.17-2.62,27.21-11.72,37.31-11.24,11.5-25.58,19.44-40.19,25.84-27.94,12.77-51.9,33.1-71.11,56.88-12.25,15.88-21.36,34.76-22.91,54.98-.29,11.77-.71,23.62 .6,35.36 1.57,5.91 7.1,11.09 13.34,11.48 34.99,.55 70-.1 104.99,.27 7.99-.33 17.52,1.36 23.29-5.79 5.38-8.53 3.62-19.61 8.74-28.28 6.45-11.94 14.84-23.04 25.62-31.4 16.2-12.76 35.77-20.29 52.03-32.96 17.45-13.32 34.87-27.96 45.32-47.66 9.6-18.64 16.88-38.94 17.83-60.04 .6-16.38 .53-33.07-3.81-48.99-7.63-31.77-26.6-59.69-49.3-82.71-43.41-42.25-104.49-67.04-165.28-63.8m-59.03,439.03c-8.75,.68-15.46,9.9-14.37,18.48-.26,33.34 .13,66.69-.15,100.03 .56,6.62-1.17,14.22 3.1,19.98 2.87,5.18 9.41,7.08 14.96,6.94 33.35,.3 66.7-.11 100.05,.16 6.43-.68 13.79,1.06 19.64-2.45 4.65-3.39 8.57-8.61 8.37-14.61 .1-33.35-.15-66.7 .07-100.04-.57-6.29 .86-13.16-2.08-19-3.08-7.69-12.28-10.78-19.98-10.07-36.54,.47-73.11-.66-109.61,.58Z"/>
</svg>
