<svg width="1280" xmlns="http://www.w3.org/2000/svg" height="1280" viewBox="0 0 1024 1024">
<path d="m146.4,109.42c69.86-.96 139.74-.19 209.61-.39 22.41-.18 45.49,3.17 64.91,15.05 25.33,15.28 45.29,40.3 51.63,69.48 3.09,13.57 2.39,27.62 2.51,41.44-.16,133.34 .03,266.68-.1,400.01-1.46,40.64-12.49,80.81-30.91,117.02-14.09,29.17-33.59,55.66-56.75,78.27-23.2,23.53-51.29,41.77-80.98,56.02-27.1,12.66-56.05,21.56-85.78,25.12-25.02,3.27-50.34,2.89-75.51,2.33-19.26,.05-37.15-18.15-35.02-37.74 .03-25-.3-50.01 .17-75-.4-8.18 4.07-15.62 9.46-21.38 6.11-6.36 14.21-11.76 23.39-11.42 25.97-1.11 52.63,2.13 77.97-5.26 22.61-5.73 43.44-17.58 60.3-33.65 20.08-18.29 35.54-41.92 42.74-68.22 5.13-20.26 5.44-41.36 4.93-62.12-1.2-21.24-16.43-40.48-36.26-47.69-9.63-2.86-19.72-3.36-29.7-3.33-40.01,.02-80.02,.07-120.03,.06-38.39,.74-74.34-23.2-93.12-55.92-11.78-19.46-13.65-42.86-13.83-65.09-.11-63.34 .05-126.67-.07-190.01 .17-15.72-.15-31.73 4.01-47.03 9.18-33.54 35.36-62 67.93-74.11 12.32-4.51 25.48-5.86 38.5-6.44Z"/>
<path d="m658.4,109.42c63.19-1 126.4-.1 189.6-.45 22.94,.21 46.88-1.16 68.68,7.38 39.99,15.13 70.57,55.24 70.24,98.63 .22,133.34-.03,266.68 .11,400.02 2.53,67.57-21.61,134.98-63.08,187.96-35.98,46.12-86.63,80.01-142.25,97.67-35.25,11.7-72.8,14.2-109.7,13.48-10.01-.57-20.97,1.25-30.02-4.13-7.07-3.9-13.63-9.48-16.89-17.03-3.79-6.64-2.79-14.64-3.17-21.93 .15-21.69-.06-43.37 .08-65.05-1.91-16.57 10.82-32.07 26.08-36.91 18.34-2.51 36.96-.14 55.39-1.38 27.72-1.58 55.26-10.84 77.37-27.83 22.29-17.08 40.93-39.61 50.97-66.03 9.42-23.7 9.66-49.75 9.16-74.84-1.2-21.24-16.43-40.48-36.26-47.69-9.64-2.86-19.72-3.36-29.7-3.33-40.01,.02-80.02,.07-120.03,.06-38.39,.74-74.34-23.2-93.12-55.92-11.78-19.46-13.65-42.86-13.83-65.09-.12-61.67 .05-123.34-.07-185.01 0-12.63-.05-25.29 1.28-37.87 4.66-39.22 33.24-74.02 69.91-87.99 12.53-4.73 25.97-6.13 39.25-6.72Z"/>
</svg>
