<svg width="1280" xmlns="http://www.w3.org/2000/svg" height="1280" viewBox="0 0 1024 1024">
<path d="m329.45,109.59c16.91-.26 34.62-2.82 50.91,3.02 12.42,6.1 22.4,18.94 21.59,33.35 .11,25.02 .24,50.04-.07,75.06 .15,17.39-15.11,33.04-32.29,34.41-24.66,2.2-49.92-2.22-74.19,3.98-42.56,9.3-78.83,40.15-98.39,78.59-14.02,27.65-15.46,59.54-13.7,89.89 2.01,19.16 15.82,36.05 33.37,43.43 8.69,3.45 18.08,3.75 27.31,3.73 40-.03 80.01-.11 120.03-.04 24.68-.43 49.76,7.3 68.99,23 25.55,19.4 42.13,50.65 41.91,82.97 .2,76.68 .01,153.36 .09,230.04-.94,43.9-33.14,83.97-74.33,97.64-12.49,3.94-25.6,5.48-38.67,5.35-73.34-.05-146.68,.06-220.03-.05-40.83-.51-79.21-27.02-95.96-63.98-9.97-20.48-9.59-43.76-10.04-65.98 .05-121.67 0-243.33 .02-365 .43-21.87 .53-43.87 4.44-65.46 7.39-44.15 25.79-86.09 51.43-122.65 53.74-75.24 145.04-122.09 237.58-121.3Z"/>
<path d="m841.45,109.59c16.9-.26 34.62-2.82 50.91,3.02 12.42,6.1 22.4,18.94 21.59,33.35 .11,25.02 .24,50.04-.07,75.06 .15,17.39-15.11,33.04-32.29,34.41-24.66,2.2-49.92-2.22-74.19,3.98-42.56,9.3-78.83,40.15-98.39,78.59-14.02,27.65-15.47,59.54-13.7,89.89 2.01,19.16 15.81,36.05 33.37,43.43 8.69,3.45 18.07,3.75 27.31,3.73 40-.03 80.01-.11 120.03-.04 24.68-.43 49.76,7.3 68.99,23 25.55,19.4 42.13,50.65 41.91,82.97 .2,76.68 .01,153.36 .09,230.04-.94,43.9-33.14,83.97-74.33,97.64-12.49,3.94-25.61,5.48-38.67,5.35-73.34-.05-146.68,.06-220.03-.05-40.83-.51-79.21-27.02-95.96-63.98-9.97-20.48-9.59-43.76-10.04-65.98 .15-125-.2-250.01 .17-375.01 .03-31.07 3.58-62.28 12.99-91.98 19.16-60.87 57.37-116.31 110.04-152.85 28.32-20.01 60.08-35.21 93.48-44.55 25-6.8 50.91-9.79 76.79-10.02Z"/>
</svg>
