<svg width="1280" xmlns="http://www.w3.org/2000/svg" height="1280" viewBox="0 0 1024 1024">
<path d="m805.2,72.03c-1.2-9.68 8.16-18.66 17.77-17.2 7.55-.59 13.28,5.13 18.33,9.86 57.42,57.59 114.9,115.12 172.53,172.5 4.05,4.13 7.56,8.82 10.17,14.01v8.6c-2.61,5.19-6.12,9.87-10.17,14.01-53.64,53.36-107.06,106.96-160.57,160.45-6.77,6.52-12.75,14.01-20.45,19.49-7.19,5.08-17.73,3.58-23.49-3.05-4.79-4.06-3.97-11.1-4.32-16.66-.22-35 .19-70.01-.03-105.01-50-.06-99.99-.04-149.99-.04-25.92-.34-52.13,7.49-73.01,22.98-21.35,16.87-38.17,38.75-51.94,62.07-24.44,41.42-43.07,85.88-61.99,129.99-15.13,33.9-29.65,68.11-47.2,100.85-18.02,34.05-37.94,67.44-63.65,96.32-21.89,24.17-44.91,48.15-73.6,64.33-37.67,20.89-80.22,32.97-123.26,34.84-41.76,1.47-83.56,.14-125.34,.76-8.9-.76-18.82,1.51-26.93-3.22-4.29-2.25-5.95-7.14-8.06-11.18v-118.42c2.62-8.09 10.43-14.41 19.17-14.03 44.93-.94 89.9,.25 134.85-.41 25.31-.23 50.76-8.39 70.66-24.21 20.08-16.47 36.19-37.34 49.39-59.59 44.89-76.87 71.17-162.81 114.51-240.47 15.99-29.68 33.77-58.6 55.77-84.25 22.57-25.82 47.11-50.68 77.05-67.92 27.42-15.07 57.37-25.32 88.11-30.98 21.59-3.91 43.61-4.06 65.48-4.43 43.33-.12 86.65,.09 129.98-.05 .36-36.65-.47-73.3 .23-109.94Z"/>
<path d="m11.59,183.64c8.24-2.51 16.94-1.56 25.41-1.77 44.81,.57 89.68-.96 134.45,1.81 46.29,3.43 91.61,19.5 129.46,46.43 31.35,21.63 57.77,49.85 79.46,81.02-31.12,49.01-54.53,102.29-78.07,155.2-17.31-33.96-34.59-68.72-60.54-97.09-25.76-27.46-64.23-42.36-101.76-40.33-36.67,.13-73.35,.07-110.02,.19-7.3-.55-15.37,.88-21.92-3.19-4.29-2.25-5.95-7.14-8.06-11.18v-118.42c1.93-5.58 6-10.45 11.59-12.67Z"/>
<path d="m502.19,556.68c11.08,21.38 21.36,43.29 34.87,63.29 12.74,19.32 26.58,38.82 46.16,51.81 21.33,13.53 46.15,23.18 71.77,22.3 49.99-.18 99.98,0 149.98-.11 .36-36.65-.47-73.31 .23-109.94-1.2-9.68 8.17-18.67 17.78-17.21 7.54-.56 13.27,5.13 18.32,9.87 57.42,57.59 114.9,115.12 172.53,172.5 4.05,4.13 7.56,8.81 10.17,14v8.56c-4.8,10.94-14.73,18.09-22.74,26.51-53.99,54.02-108.1,107.92-161.94,162.07-3.39,3.07-6.71,6.63-11.36,7.69-10.61,3.93-23.86-5.54-22.78-17.03-.67-36.65 .15-73.31-.21-109.96-17,.01-33.98-.13-50.97-.09-25.01-.1-50.01,1.85-75,.33-32.77,.19-65.3-4.44-97.35-10.91-13.46-3.04-26.38-8.09-38.67-14.32-13.16-6.66-26.73-12.72-38.88-21.17-16.26-10.69-29.72-24.9-43.37-38.6-13.27-13.4-24.9-28.3-36.1-43.44 30.13-49.8 54.31-102.87 77.56-156.15Z"/>
</svg>
