<svg width="1280" xmlns="http://www.w3.org/2000/svg" height="1280" viewBox="0 0 1024 1024">
<path d="m488.99,74.07c81.54-5.07 163.71,15.57 235.07,54.79 32.71,17.77 62.47,40.46 90.01,65.41 16.54-15.85 32.07-32.76 49.05-48.15 9.4-8.6 17.87-18.14 27.15-26.85 9.92-9.45 25.38-11.7 37.92-6.54 13.3,6.32 23.21,20.26 22.61,35.3 .43,84.98 .17,169.99 .13,254.99-.46,19.08-17.34,36.79-36.89,35.93-85.02,.15-170.05-.03-255.08,.09-15.99,1.07-30.43-10.67-35.79-25.17-1.65-6.33-1.42-13.09-.77-19.53 2.88-13.16 14.6-21.34 23.34-30.6 21.78-22.11 44.28-43.53 65.6-66.08-24.42-21.59-51.35-40.61-81.26-53.8-36.36-16.28-76.32-23.84-116.08-23.94-94.81-2.31-188.65,46.91-241.98,125.1-18.56,25.39-27.8,55.82-41.12,83.95-2.61,6.33-8.94,10.72-15.92,9.85-34.99,.57-69.99-.12-104.99,.3-4.69-.32-9.59,.51-14.15-.9-8-3.06-13.83-11.35-12.6-20.09 6.48-29.62 16.5-58.42 28.76-86.13 43.26-98.53 124.54-179.66 222.92-223.14 48.5-21.42 101.21-32.38 154.07-34.79Z"/>
<path d="m105.83,585.67c7.03-.71 14.11-.68 21.17-.74 78.34,.16 156.68,.02 235.02,.06 9.45-.34 19.05,2.5 26.38,8.57 15.56,11.81 18.94,37.45 4.8,51.64-26.62,27-53.72,53.55-80.36,80.55 30.54,28.83 67.57,50.45 107.25,64.04 61.4,20.36 129.72,20.18 190.6-2.06 63.17-22.72 118.32-67.74 152.16-125.84 10.58-20.12 18.86-41.35 27.79-62.23 1.64-3.53 3.62-6.94 6.05-9.98 6.7-5.84 16.14-4.32 24.3-4.76 30.01,.12 60.02,.08 90.04-.01 7.79-.11 17.38,.93 21.83,8.25 4.18,5.05 3.27,11.77 2.15,17.78-16.54,67.93-47.44,132.81-92.75,186.31-44.75,52.84-101.58,96.03-165.86,122.21-58.14,24.1-121.74,33.12-184.4,31.37-104.85-4.33-207.52-48.26-283.03-121.14-24.9,24.53-49.48,49.38-74.18,74.1-5.68,5.88-13.52,10.08-21.83,10.13-20.91,3.44-40.8-16.24-39.9-36.88-.23-81.68 .12-163.37-.16-245.05 .16-8.56-.52-17.75 3.51-25.63 5.97-10.74 16.75-19.88 29.42-20.69Z"/>
</svg>
