<svg width="1280" xmlns="http://www.w3.org/2000/svg" height="1280" viewBox="0 0 1024 1024">
<path d="m291.96,128.94c44.94-26.18 94.8-43.38 145.98-52.2 .14,66.75 .02,133.5 .06,200.26-.17,41.29 .9,82.65-2.26,123.86-4.42,50.21-15.96,99.93-35.32,146.52-29.59,71.15-75.12,136.13-134,186.08-27.4,23.25-57.93,42.6-90.16,58.42-25.77-31.52-48.7-65.6-65.37-102.84-29.58-64.47-41.05-136.51-37.2-207.09 5.31-101.78 48.92-200.57 118.77-274.52 28.99-30.94 63.02-56.98 99.5-78.49Z"/>
<path d="m586.05,76.85c34.23,6.02 67.99,15.35 99.89,29.27 78.65,33.88 147.21,91.2 193.79,163.13 33.46,51.73 56.86,110.31 65.58,171.43 11.23,75.2 4.71,153.59-22.82,224.72-17.2,46.04-43.62,88.15-74.82,125.96-32.91-14.3-62.64-35.1-90.27-57.79-34.87-28.94-64.57-63.74-89.37-101.59-39.49-59.67-66.09-127.95-76.18-198.85-4.07-28.18-6.08-56.66-5.89-85.13 .13-90.38-.06-180.76 .09-271.15Z"/>
<path d="m501.33,650.29c3.42-9.75 5.27-19.98 9.02-29.61 15.77,64.34 49.22,123.56 93.11,172.9 33.76,38.57 73.27,72.03 116.71,99.26-57.38,32.19-122.49,50.19-188.16,53.14-80.17,4.9-161.24-14.23-231.51-52.9 73-46.77 136.99-109.87 177.4-187.14 9.39-17.83 16.97-36.58 23.43-55.65Z"/>
</svg>
