<svg width="1280" xmlns="http://www.w3.org/2000/svg" height="1280" viewBox="0 0 1024 1024">
<path d="m305.25,64.24c6.89-7.06 16.94-11.68 26.92-9.53 16.7,1.65 32.45,15.33 33.5,32.59 1.04,14.43 .2,28.94 .16,43.41-45.05,44.98-90.05,90.02-135.08,135.04-12.3,12.37-24.9,24.46-36.62,37.39-18.29,19.04-37.45,37.23-55.86,56.14-13.45,12.51-13.66,36.19-.54,48.96 76.05,76.01 152.04,152.09 228.12,228.06-.32,17.74 2.04,35.94-2.15,53.37-5.86,17.05-26.56,27.06-43.74,22.39-11.94-2.78-19.29-13.34-27.75-21.27-93.43-93.57-186.95-187.07-280.51-280.51-5.69-5.74-10.06-12.83-11.7-20.79v-10.98c1.69-7.67 5.62-14.77 11.19-20.31 98.12-97.88 196.03-195.99 294.06-293.96Z"/>
<path d="m522.24,66.22c7.38-7.31 17.44-13.45 28.26-11.74 11.55,1.5 23.64,6.89 29.49,17.52 4.93,6.89 4.58,15.89 5.06,23.95 .03,48.4-.17,96.8-.02,145.2 21.44,1.64 42.85,3.65 64.14,6.61 75.52,10.08 151.29,30.07 216.6,70.46 30.82,18.79 58.16,43.1 80.88,71.11 24.26,30.54 42.17,65.88 54,102.99 14.99,45.18 20.91,92.8 23.35,140.18v40.91c-4.67,46.45-15.86,91.99-30.4,136.27-16.78,48.65-36.52,96.32-59.46,142.39-3.25,6.35-6.42,13.75-13.71,16.42-7.94,1.83-17.96-.11-22.12-7.82-3.84-6.55-1.57-14.55-1.35-21.67 3.36-28.87 4.47-57.95 4.12-87 .63-37.09-2.95-74.26-10.56-110.56-7.52-32.46-18.63-64.71-37.54-92.43-15.14-23.32-35.88-42.7-59.04-57.91-24.19-16.28-51.48-27.41-79.3-35.78-42.19-12.34-85.87-18.76-129.61-22.35-.08,44.68-.09,89.37 .11,134.05-.29,10.89 .28,23.1-7.02,32.1-9.04,11.41-25.03,16.46-39.05,12.75-7.43-1.3-12.99-6.73-18.34-11.58-95.97-96.04-191.94-192.09-288.04-288-7.25-7.4-13.64-16.62-13.36-27.44-.35-10.47 4.47-20.42 11.86-27.64 97.11-96.91 194.06-193.97 291.05-290.99Z"/>
</svg>
