<svg width="1280" xmlns="http://www.w3.org/2000/svg" height="1280" viewBox="0 0 1024 1024">
<path d="m166.1,187.18c9.21-5.12 20.53-4.8 30.34-1.68 11.28,4.28 18.01,14.81 25.44,23.64 53.76,64.56 107.53,129.12 161.36,193.62 6.86,8.57 15.73,16.55 18.37,27.6 .5,7.82 1.25,16.45-2.68,23.59-2.85,6.38-8.06,11.32-13.51,15.5-8.5,6.08-19.48,5.48-29.4,5.69-33.34-.19-66.67-.18-100-.12-.04,73.32-.04,146.64 0,219.96 109.98,.21 219.98-.29 329.95,.22 6.31-.88 11.39,3.19 15.01,7.81 28.47,34.21 56.85,68.5 85.53,102.53 3.34,4.46 7.21,9.13 8.13,14.81 1.59,11.75-9.89,22.75-21.6,20.74-180.02-.2-360.05-.03-540.08-.09-6.7,.09-15.5,.11-18.91-7.04-4.65-5.18-3.86-12.56-4.11-18.93 .11-113.34 .05-226.68 .05-340.02-36.66-.05-73.33,.01-109.99-.01v-93.17c50.66-61.24 101.83-122.07 152.51-183.3 3.86-4.49 8.18-8.78 13.59-11.35Z"/>
<path d="m329.05,201.87c-.55-9.66 8.03-19.39 17.98-18.65 14.97-.76 29.98-.14 44.97-.22 166.68-.01 333.36,.01 500.04-.02 4.91,.57 10.94-.63 15.06,2.91 5.89,5.6 7.3,14.3 6.91,22.08 .02,113.34-.05,226.68 0,340.02 36.66,.05 73.32-.01 109.99,.01v94.32c-50.76,60.5-101.21,121.27-151.73,181.96-4.8,5.2-9.69,10.76-16.32,13.64-8.33,4.22-18.23,3.58-27,1.2-7.54-2.65-13.31-8.72-18.54-14.5-54.5-65.51-109.1-130.93-163.63-196.41-7.68-9.38-16.28-18.14-22.23-28.79-3.69-7.24-2.52-15.85-1.81-23.61 3.93-15.64 19.25-27.36 35.31-27.63 36.64-.61 73.29,.09 109.94-.19 .01-73 .02-145.99 0-218.98-96.33-.02-192.66-.02-288.99,0-14.85-.11-29.74,.71-44.55-.6-4.8-.44-8.15-4.37-11.07-7.77-29.18-35.16-58.4-70.29-87.78-105.28-3.39-3.79-5.64-8.49-6.55-13.49Z"/>
</svg>
