<svg width="1280" xmlns="http://www.w3.org/2000/svg" height="1280" viewBox="0 0 1024 1024">
<path d="m265.11,151.17c7.74-4.72 17.06-5.17 25.87-5.22 60,0 120,.2 180-.07-7.38,4.35-14.53,10.96-15.15,20.02-2.93,34.32-5.29,68.71-8.21,103.04-1.06,6.57-.07,13.78 4.53,18.9 4.29,3.78 10.11,5.63 15.81,5.18 26.68,.21 53.37-.12 80.07,.1 7.86-.38 16.85,.86 23.31-4.78 3.93-4.01 5.74-9.93 5.17-15.49-3.24-35.25-5.61-70.57-8.49-105.84 0-9.02-6.32-16.14-13.92-20.17 60.97,.08 121.96,.68 182.92-.39 9.44-.11 19.22,1.68 26.76,7.77 12.37,8.58 16.91,23.46 22.22,36.78 7.87,19.52 15.33,39.21 23.28,58.7 58.58,146.45 117.23,292.88 175.57,439.43 12.97,32.88 26.58,65.53 39.15,98.56v82.76c-5.23,2.67-10.1,6.64-16.13,7.08-16.6,1.26-33.26,.3-49.87,.47-116.63,.11-233.25-.23-349.88,.17 3.97-2.93 8.78-5.37 10.72-10.24 3.22-5.81 1.32-12.72 1.19-18.92-3.69-43.55-6.95-87.14-10.27-130.71-.47-5.32-1.19-11.02-4.89-15.2-4.61-8.36-15.66-7.74-23.82-8.17-48.34,.25-96.69-.27-145.02,.25-6.89-.61-13.47,2.92-17.58,8.3-2.94,4.1-3.2,9.33-3.84,14.17-3.57,47.26-7.21,94.53-11.19,141.76-.7,8.31 5.54,15.11 12.46,18.76-131.64-.4-263.29-.07-394.94-.15-7.77,.52-14.99-2.87-20.94-7.57v-82.76c9.24-24.7 19.51-49.01 29.15-73.56 41.95-104.5 83.42-209.2 125.29-313.73 29.44-73.85 59.27-147.55 88.36-221.53 4.2-11.26 11.34-22.11 22.31-27.7m190.29,215.37c-8.71,1.67-15.73,9.65-16.14,18.57-4.48,57.66-8.61,115.35-13.08,173.01 .07,6.22-.82,12.73 .87,18.82 2.78,5.32 8.96,8.5 14.96,7.88 43.32,.53 86.67-.07 130,.27 7.26-.83 16.93,1.75 22.29-4.8 6.37-5.92 2.87-15.38 3.15-22.85-4.49-57.67-8.58-115.38-13.08-173.04-.08-12.11-13.15-20.08-24.35-18.51-34.87,.59-69.78-.74-104.62,.65Z"/>
</svg>
