<svg width="1280" xmlns="http://www.w3.org/2000/svg" height="1280" viewBox="0 0 1024 1024">
<path d="m755.88,70.82c62.28-18.1 127.45-24.52 192.12-24.98 8.06,.61 18.1-1.98 24.32,4.84 7.19,5.44 5.56,15.41 5.83,23.31-.05,64.82-8.29,129.9-27.1,192.03-22.12,72.18-62.13,137.9-110.82,195.2-15.62,18.96-32.66,36.65-49.53,54.49-33.62,32.45-68.07,64.09-104.07,93.91-2.22,2.3-5.52,3.85-6.88,6.88-1.69,8.04-1.55,16.29-2.01,24.47-2.94,57.83-6.16,115.64-9.05,173.48-.59,8.16-.09,16.58-2.81,24.46-2.38,5.13-6.83,8.66-11.64,11.32-70.77,41.22-141.51,82.48-212.22,123.8-5.87,3.82-13.87,5.46-20.34,2.28-9.36-6.1-16.46-14.88-24.44-22.55-6.36-6.63-13.53-12.58-19.06-19.94-4.42-5.25-3.29-12.32-1.87-18.47 15.91-51.68 31.97-103.31 47.64-155.06-52.89-52.54-105.49-105.37-158.19-158.09-1.68-2.06-4.35-2.04-6.66-1.19-50.35,15.75-100.82,31.13-151.2,46.79-5.17,1.16-11.14,2.27-15.82-.89-10.73-7.43-18.89-17.78-28.36-26.63-6.65-7.06-15.24-13.22-18.1-22.94-1.68-5.2 1.17-9.93 3.45-14.31 40.25-68.76 80.37-137.6 120.45-206.45 4.8-8.16 9.63-18.39 20.11-19.92 72.7-4.26 145.5-7.28 218.18-11.85 32.16-38.65 65.79-76.11 100.91-112.09 43.42-42.84 90.09-82.86 142.22-114.79 32.75-20.14 67.96-36.42 104.94-47.11m29.53,103.69c-25.11,3.58-45.57,28.08-44.48,53.49-.97,20.2 11.12,39.92 29.02,49.04 20.04,10.97 47.01,7.28 63.37-8.71 10.82-10.35 17.49-25.23 16.75-40.33 1.07-23.16-15.68-44.62-37.14-51.97-8.88-2.77-18.39-2.41-27.52-1.52Z"/>
</svg>
