<svg width="1280" xmlns="http://www.w3.org/2000/svg" height="1280" viewBox="0 0 1024 1024">
<path d="m224.4,73.49c3.65-.13 10.94-.39 14.59-.52 181.67,.04 363.34,.07 545.02-.02 24.68-.36 49.64,4.43 71.97,15.11 16.13,7.1 30.22,18 43.17,29.81 22.63,21.24 39.74,48.78 46.86,79.12 3.98,16 5.12,32.56 5.04,49.01-.13,180 .01,360.01-.07,540.01-.01,25.18-5.36,50.56-16.91,73.02-9.33,19.46-23.61,36.11-39.38,50.66-23.97,21.54-54.52,36.03-86.71,39.35-32.25,2.8-64.65,1.81-96.98,1.96-151.67,.01-303.33-.02-455,.01-19.37-.32-39.05-.07-57.94-5.02-28.75-6.68-55.32-22.04-75.88-43.17-18.66-17.87-33.45-40.11-41.11-64.87-6.29-18.6-8.21-38.41-8.11-57.95 .11-181.67 0-363.34 .05-545.02 .19-24.51 5.55-49.21 16.97-70.99 25.62-50.18 77.48-87.47 134.42-90.5m9.02,165.04c-5,.48-8.74,4.55-11.35,8.5-4.31,6.87-2.69,15.31-3.16,22.96 .39,19.96-.54,39.95 .42,59.89 0,8.96 7.28,16.59 16,17.65 15.94,1.33 31.97,1.87 47.81,4.25 97.9,12.45 189.77,60.31 259.65,129.43 31.54,32.37 58.92,68.89 80.33,108.73 31.59,58.41 49.56,124.08 52.43,190.41 .71,4.51 .1,9.53 2.37,13.71 3.13,7.12 11.45,11.11 19.05,10.04 21.68-.14 43.37,0 65.06-.09 5.04-.39 10.81,.37 15.21-2.75 5.1-3.65 10.07-9.4 8.41-16.18-2.19-56.41-11.8-112.74-30.78-165.99-27.19-79.92-73.6-153.06-133.51-212.45-30.27-30.81-63.91-58.38-100.3-81.68-82.37-52.35-178.68-82.27-276.11-86.83-3.85-.08-7.7,.05-11.53,.4m2.88,218.89c-5.59,.24-10.67,3.66-13.86,8.08-4.82,7.99-3.32,17.66-3.55,26.5 .48,19.86-.63,39.75 .61,59.58 .25,4.37 2.96,8.01 5.64,11.26 7.57,5.43 17.25,4.58 25.99,5.99 44.18,5.1 86.47,23.92 120.26,52.76 24.29,21.41 45.87,46.41 60.61,75.41 12.82,25.95 21.24,54.16 23.88,83.03 1.11,5.62 .3,12.21 4.08,17 3.6,6.07 11.51,7.51 18.01,7.1 23.34-.34 46.69,.24 70.02-.29 5.89,.33 11.94-2.78 14.99-7.84 4.59-5.48 2.55-13.14 2.58-19.59-2.36-23.74-5.85-47.47-12.48-70.43-10.5-37.44-28.17-72.68-50.9-104.16-39.05-52.92-91.96-96.31-153.29-120.69-35.92-13.84-74.1-22.36-112.59-23.71m48.08,200.97c-19.88,1.94-38.39,12.7-50.26,28.7-19.75,24.31-19.66,61.94-1.05,86.85 14.44,20.39 39.87,32.62 64.88,29.91 27.06-.74 51.03-19.92 61.93-43.98 6.08-13.02 5.86-28.05 4.36-42.03-5.62-36.59-43.11-64.64-79.86-59.45Z"/>
</svg>
