<svg width="1280" xmlns="http://www.w3.org/2000/svg" height="1280" viewBox="0 0 1024 1024">
<path d="m139.43,110.53c3.64-.11 10.93-.34 14.57-.46 133.85,7.5 265.41,49.84 379,120.95 44.6,27.9 86.31,60.33 124.71,96.27 23.65,23.39 47.5,46.65 68.74,72.3 113.21,134.33 181.31,306.63 187.49,482.41-1.71,17.18-17.33,31.97-34.74,32.37-18.7,1.36-37.48,.33-56.2,.66-13.9-.39-28.35,1.69-41.67-3.42-8.72-3.58-15.94-10.61-19.68-19.28-3.23-8.73-2.35-18.28-3.46-27.39-11.44-152.03-79.74-298.25-185.93-407.2-71.28-72.08-159.97-126.16-255.53-159.52-53.76-18.45-109.99-29.61-166.69-33.38-8.17-.78-16.85-1.16-23.84-6.04-9.3-6.12-16.01-16.47-16.35-27.78-1.75-22.62-.47-45.36-.92-68.02 .06-12.02-.68-25.37 6.19-35.91 5.79-8.01 14.16-15.31 24.31-16.56Z"/>
<path d="m146.35,402.49c28.92,1.36 57.53,6.82 85.64,13.55 51.05,12.81 100.14,33.47 145.02,60.94 41.24,25.08 78.19,56.71 111.06,91.95 72.31,78.6 119.15,180.39 131.31,286.54 1.09,11.56 4.22,23.64 .12,34.95-3.33,7.97-8.95,15.2-16.56,19.5-6.82,4.26-15.23,4.24-22.99,4.8-21.65,.64-43.31,.18-64.97,.31-10.76-.02-22.66-1.4-30.69-9.33-8.25-6.1-11.95-16.34-12.66-26.27-4.51-44.93-16.66-89.34-37.6-129.45-18.58-37.02-44.51-70.06-74.26-98.74-50.65-48.89-115.84-82.94-185.39-94.6-12.69-2.64-25.76-2.79-38.38-5.76-9.46-1.85-17.06-8.92-21.94-16.93-5.13-7.95-4.31-17.93-4.96-26.93-.18-22.3-.33-44.61 .09-66.9 .06-11.6 5.2-23.32 14.78-30.15 6.03-5.61 14.48-6.99 22.38-7.48Z"/>
<path d="m209.45,695.54c14.89-1.22 30.09-.18 44.25,4.86 20.38,5.97 37.82,19.46 51.24,35.64 30.19,36.06 32.2,92.6 4.98,130.89-18.88,27.66-51.01,46.89-84.9,47.1-30.7,2.52-62.21-9.25-83.34-31.71-22.27-20.9-33.88-51.95-31.8-82.34-.11-53.41 46.46-101.47 99.57-104.44Z"/>
</svg>
