<svg width="1280" xmlns="http://www.w3.org/2000/svg" height="1280" viewBox="0 0 1024 1024">
<path d="m292.29,64.27c46.65-18.7 96.99-27.81 147.22-27.54 49.36-.67 98.73,9.04 144.61,27.11 76.82,29.74 145.11,82.69 189.86,152.17 20.71,32.03 37.36,66.7 48.86,103.07 19.38,62.59 23.32,129.9 11.63,194.35-9.98,55.02-32.56,107.42-64.29,153.37 63.67,63.33 126.96,127.05 190.62,190.4 9.53,8.85 17.74,19.42 22.37,31.67 4.45,13.61 5.24,28.51 2.3,42.52-7.23,29.65-34.51,54.36-65.52,55.45-19.16,2.17-39.37-3.96-53.16-17.62-17.85-17.48-35.21-35.47-53.11-52.9-13.76-12.21-26.31-25.69-39.43-38.57-35.82-35.86-71.72-71.63-107.47-107.55-51.48,35.57-111.18,59.71-173.46,67.15-59.53,8.3-120.88,2.96-178-15.76-76.13-24.87-145.62-71.68-194.36-135.57-24.8-32.16-44.2-68.3-58.8-106.14-17.31-45.08-25.54-93.48-25.43-141.71-.89-54.96 11.44-109.78 33.43-160.03 21.09-48.94 51.9-93.7 90.24-130.72 37.94-36.03 83.28-63.98 131.89-83.15m127.16,119.26c-31.26,2.15-62.33,9.47-90.48,23.42-33.5,15.97-63.07,39.77-86.83,68.19-28.64,33.19-48.17,74.21-55.61,117.43-9.11,56.19-1.83,116.04 25.53,166.41 19.85,36.13 48.5,67.05 81.84,91.14 26.94,18.89 57.72,32.36 89.94,39.11 37.29,8.05 76.25,6.99 113.49-.87 58.15-12.55 109.65-48.55 145.62-95.41 38.08-47.74 55.7-110.34 51.18-170.98-1.92-32.48-9.55-64.8-24.08-94-14.8-30.9-36.61-58.15-62.05-80.97-25.53-22.92-55.5-41.27-88.3-51.67-32.14-10.97-66.49-14.11-100.25-11.8Z"/>
<path d="m270.43,402.55c2.39-.14 7.16-.42 9.54-.56 106.68-.04 213.37,.13 320.06-.09 6.77-1.05 13.48,2.17 17.73,7.34 6.19,8.26 3.63,19.2 4.41,28.76-.61,10.99 2.45,24.75-7.31,32.84-4.24,4.7-11.18,3.88-16.83,4.17-108.36-.01-216.73-.04-325.09,.02-7.84-.37-15.4-6.52-16.37-14.47-1.04-14.93-1.15-30 .07-44.92 1.69-6.31 7.15-12.13 13.79-13.09Z"/>
</svg>
