<svg width="1280" xmlns="http://www.w3.org/2000/svg" height="1280" viewBox="0 0 1024 1024">
<path d="m334.93,49.98c46.47-12.37 95.08-15.61 142.93-11.75 86.78,8.65 170.46,46.28 234.76,105.16 29.99,27.6 55.54,60.03 75.21,95.72 30.7,53.55 49.02,114.19 52.37,175.87 4.6,70.44-9.52,142.33-42.16,205.04-7.98,16.34-17.77,31.7-27.88,46.78 65.67,65.34 131.03,131 196.61,196.44 23.07,22.58 27.28,61.47 10.07,88.64-11.96,19.71-33.51,34.19-56.89,34.96-19.15,2.17-39.36-3.95-53.16-17.62-21.95-21.38-42.91-43.79-65.52-64.49-44.87-44.82-89.74-89.63-134.5-134.55-29.21,19.88-60.67,36.77-94.11,48.34-39.56,14.42-81.67,21.01-123.65,22.38-62.22,2-124.68-11.52-180.94-38.04-79.72-36.54-146.97-100.18-186.1-178.84-30.07-57.38-46.08-122.18-45.06-187.02-1.07-51 9.98-101.86 29.1-149 30.18-74.91 82.57-141.52 150.99-184.98 36.23-23.7 76.27-41.38 117.93-53.04m84.52,133.55c-38.46,2.39-76.34,13.64-109.41,33.5-32.34,19.13-60.05,45.61-81.95,76.04-26.25,36.86-42.1,81.12-44.65,126.33-3.58,53.18 7.7,108.27 36.8,153.37 21.17,33.26 49.7,61.78 82.66,83.36 24.47,15.58 51.7,26.88 80.09,32.92 38.09,8.34 77.95,7.24 115.95-1.05 62.01-13.85 116.09-54.29 152.07-106.02 35.33-49.57 49.15-112.85 42-172.96-3.2-32.55-13.14-64.4-29.1-92.97-18.86-33.91-45.78-63.03-76.88-86.1-47.67-35.45-108.58-51.27-167.58-46.42Z"/>
<path d="m402.33,272.16c.71-9.11 9.43-16.87 18.69-15.98 13.27-.46 26.58-.6 39.85,.11 3.91,.55 7.01,3.44 9.97,5.86 4.65,4.23 3.9,11.17 4.17,16.82 .07,41-.1,82.01 .01,123.01 41.67,.1 83.34-.05 125.01,0 10.59-1.25 21.71,7.01 21.63,18.14 .7,12.23 .82,24.55 .11,36.79 .08,9.92-8.69,18.86-18.73,18.05-42.57,.36-85.15-.41-127.72,.29-.85,43.59 .05,87.2-.37,130.8-.74,8.43-8.33,14.48-16.36,15.44-13.3,.94-26.72,1.07-40.01-.09-9.64-.47-17.07-10.02-16.42-19.42-.49-42.32 .06-84.65-.18-126.97-43.34-.13-86.68,.14-130.01-.04-8.8-.59-16.43-9.11-15.81-17.98-.42-13.55-.67-27.14 .29-40.66 2-9.44 12.1-15.49 21.51-14.3 41.33-.19 82.68,.1 124.02-.05 .34-43.27-.53-86.56 .35-129.82Z"/>
</svg>
