<svg width="1280" xmlns="http://www.w3.org/2000/svg" height="1280" viewBox="0 0 1024 1024">
<path d="m394.05,39.06c41.72-4.12 84.25-3.39 125.34,5.52 43.5,8.69 85.05,25.64 123.52,47.53 35.08,20.19 66.78,46.05 94.17,75.81 55.43,62.35 92.05,141.83 101.2,224.92 7.44,63.99-.07,129.9-23.46,190.03-11.46,29.63-26.7,57.74-44.64,83.93 63.67,63.33 126.96,127.05 190.62,190.4 9.34,8.67 17.36,18.98 22.09,30.9 4.1,11.12 4.66,23.12 3.94,34.85-3.72,31.66-30.5,59.4-62.24,63.52-13.66,1.59-28.13,.82-40.59-5.49-13.84-5.83-23.17-18.15-33.75-28.23-22.64-23.38-46.81-45.18-69.5-68.5-37.99-38.03-76.06-75.97-113.98-114.06-29.86,20.42-62.18,37.48-96.46,49.16-33.8,12.16-69.5,18.27-105.24,20.88-64.9,4.51-130.8-7.45-190.07-34.23-72.5-31.78-135.59-85.37-176.89-153.08-23.83-39.22-42.26-82.01-52.07-126.93-9.14-41.55-11.25-84.5-7.81-126.84 12.3-121.03 80.98-236.8 185.49-300.42 51.48-31.99 109.93-53.32 170.33-59.67m25.4,144.47c-36.53,2.29-72.53,12.51-104.4,30.58-65.56,37.37-115.93,103.38-128.52,178.46-10.28,62.98 .28,131.04 36.5,184.41 18.01,27.62 41.61,51.3 67.93,71.04 27.85,20.16 59.99,34.43 93.67,41.38 37.06,7.86 75.73,6.76 112.7-1.04 58.15-12.55 109.66-48.55 145.61-95.41 38.09-47.74 55.71-110.33 51.19-170.98-1.92-32.47-9.54-64.8-24.08-94-14.8-30.9-36.61-58.15-62.05-80.97-25.53-22.92-55.5-41.27-88.3-51.67-32.14-10.97-66.49-14.11-100.25-11.8Z"/>
</svg>
