<svg width="1280" xmlns="http://www.w3.org/2000/svg" height="1280" viewBox="0 0 1024 1024">
<path d="m224.4,73.49c3.65-.13 10.94-.39 14.59-.52 181.67,.04 363.34,.07 545.02-.02 24.67-.33 49.66,4.38 71.97,15.12 17.42,7.67 32.48,19.72 46.25,32.7 18.1,18.01 32.59,39.97 40.59,64.31 5.87,17.65 8.07,36.37 8.21,54.91-.04,181.67-.06,363.34 0,545.02 .24,21.53-3.67,43.17-11.89,63.1-9.81,24.94-27.1,46.37-47.13,63.9-25.42,22.22-58.28,35.94-92.05,37.67-12.98,.67-25.97,1.41-38.96,1.36-171.67-.16-343.34,.11-515.01-.13-26.28,.2-53.08-3.55-76.97-14.97-23.72-10.55-43.67-27.99-60.34-47.63-18.28-21.9-30.03-49.04-33.81-77.28-2.75-18.54-1.73-37.37-1.88-56.03-.01-171.67 .06-343.34-.04-515.01-.32-25.41 4.47-51.23 16.03-74 25.26-51.2 77.73-89.43 135.42-92.5m363.44,112.39c-3.5,8.24-2.88,17.38-2.96,26.12 .19,26.66 .14,53.32 .09,79.98-16.95,1.29-33.98,.73-50.91,2.2-29.62,2.29-59.18,6.08-88.14,12.77-33.84,7.81-67.4,18.63-97.34,36.59-31.56,18.22-57.88,44.47-79.13,73.87-22.32,31.39-34.46,68.75-41.91,106.19-6.08,27.03-7.47,54.81-8.36,82.41-.66,29.62 2.63,59.44 10.95,87.93 16.21,55.92 46.8,106.4 80.63,153.3 3.77,5.1 8.64,10.73 15.26,11.77 8.02,.46 17.66-3.32 20.57-11.37 1.06-11.13-1.12-22.17-2.12-33.22-3.95-36.45-5.66-73.2-3.97-109.84 1.91-29.69 5.23-59.66 15.09-87.89 6.42-19.1 16.45-37.12 30.17-51.93 18.9-19.54 43.97-31.85 69.84-39.28 42.06-11.45 85.98-13.97 129.38-13.49 .42,31.95-.7,63.94 .43,95.87 .7,19.63 21.39,33.53 39.92,31.56 10.26-.69 18.93-7.12 25.94-14.15 60.96-61.04 121.98-122.01 182.98-183.02 8.08-8.27 17.46-15.74 22.66-26.33 2.68-5.55 2.28-11.92 2.03-17.89-.02-10.13-7.03-18.41-13.67-25.3-47.04-46.96-94.01-93.99-141.02-140.98-20.42-19.92-39.85-40.89-60.91-60.12-17.15-15-46.72-5.89-55.5,14.25Z"/>
</svg>
