<svg width="1280" xmlns="http://www.w3.org/2000/svg" height="1280" viewBox="0 0 1024 1024">
<path d="m704.88,77.93c16.98,.41 34-.66 50.95,.39 6.95,4.86 12.34,11.56 18.43,17.42 66.49,66.51 132.96,133.04 199.52,199.48 6.89,6.86 13.45,15.59 13.13,25.82 1.75,11.38-3.56,22.5-11.68,30.18-71.91,72.08-144.04,143.97-215.95,216.06-5.31,5.38-11.74,10.14-19.25,11.75-19.27,4.9-42.83-8.41-44.63-29.16-1.07-38.59-.03-77.24-.41-115.85-41.67,.09-83.34-.28-125,.17-45.69,1.95-91.71,7.66-135.1,22.67-27.02,9.53-53.08,23.15-73.69,43.34-16.28,15.36-27.92,34.96-36.66,55.41-17.74,43.7-21.21,91.7-20.6,138.39-.16,29.15 3.87,58.09 6.64,87.03 2.16,14.38-17.87,23.73-28.56,14.93-8.56-7.74-13.93-18.27-20.09-27.9-17.53-29.82-34.2-60.23-48.07-91.94-14.99-36.67-26.44-75.16-30.28-114.69-1.53-30.77-.58-61.76 3.61-92.3 4.56-27.3 10.48-54.73 21.96-80.06 16.2-35.79 40.07-68.49 71.15-92.75 28.8-21.89 61.19-38.98 95.4-50.68 43.08-15.34 88.59-22.12 133.88-27.05 61.63-5.74 123.59-4.51 185.41-4.6-.01-33.33 .11-66.66-.11-99.99 .15-8.4-.74-17.26 2.99-25.1 2.11-3.79 4.56-7.4 7.01-10.97Z"/>
<path d="m190.44,141.52c51.5-1.06 103.04-.47 154.54-.34 8.19-.87 15.99,4.44 18.95,11.91 2.07,6.72 1.26,14.81-3.72,20.1-3.13,2.73-7.46,3.42-11.17,5.01-21,6.95-41.42,15.63-61,25.9-6.13,3.1-11.82,7.38-18.47,9.3-27.13,2.02-54.43-1-81.54,1.66-42.43,5.48-78.65,44.6-77.99,87.92-.11,160.01 .02,320.02-.06,480.04-1.03,34.69 22.58,66.23 52.81,81.23 20.25,9.96 43.39,7.65 65.21,7.77 150-.01 300.01-.09 450.01,.04 37.13,.94 71.64-25.26 84.57-59.41 3.68-10.47 5.26-21.57 5.33-32.63 .4-40.02-.23-80.04 .17-120.05-.58-6.28 2.16-12.92 7.65-16.23 9.49-5.7 19.5-10.79 27.83-18.21 3.98-3.35 7.82-7.1 12.53-9.43 11-4.46 25.72,4.45 24.75,16.9 .47,48.33-.06,96.67 .22,145 .67,29.45-6.29,59.27-21.35,84.69-22.22,36.65-57.73,66.43-99.63,77.31-20.54,5.56-41.99,5.31-63.08,6.01-146.67-.03-293.34,.01-440-.02-15.97-.49-32.12-.07-47.85-3.26-67.81-12.57-124.74-72.57-131.38-141.58-2.54-29.65-1.66-59.43-1.77-89.15-.01-130 .01-260-.01-390 .32-16.25 .21-32.67 3.38-48.68 9.9-53 48.92-98.62 98.02-119.86 16.78-7.19 34.9-10.76 53.05-11.94Z"/>
</svg>
