<svg width="1280" xmlns="http://www.w3.org/2000/svg" height="1280" viewBox="0 0 1024 1024">
<path d="m176.44,73.56c11.49-1 23.04-.55 34.56-.58 210,.09 420.01-.07 630.02,.07 11.98-.53 23.26,6.31 29.85,16.05 8.15,9.97 6.21,23.99 7.13,35.89 .01,135-.03,270.01 .02,405.01-.42,22.86-.33,46-5.58,68.39-4.38,22.36-12.03,43.93-21.43,64.63-12.57,28.46-28.87,55.31-48.61,79.36-30.12,37.06-65.44,69.57-102.7,99.31-26.5,21.41-55.07,40.1-84.11,57.85-24.08,14.28-48.3,28.39-73.58,40.47-8.9,4.04-17.46,9.71-27.45,10.49-6.09,.81-12.18-.85-17.69-3.32-36.91-16.25-71.64-36.96-105.89-58.14-36.11-22.36-69.97-48.14-101.65-76.38-36.42-31.7-69.88-67.43-95.39-108.6-28.17-46.71-48.03-99.91-47.93-155.05 .05-146.67-.16-293.35 .1-440.02-.46-17.06 13.53-33.09 30.33-35.43m335.58,109.46c-.05,216.35-.02,432.7-.01,649.04 63.24-33.22 122.76-74.13 174.15-123.91 19.89-20.69 39.22-42.33 53.74-67.23 16.8-27.98 28.01-60.03 28.1-92.91-.02-121.66 .04-243.32-.03-364.98-85.31-.06-170.63-.04-255.95-.01Z"/>
</svg>
