<svg width="1280" xmlns="http://www.w3.org/2000/svg" height="1280" viewBox="0 0 1024 1024">
<path d="m49.94,117.94c10.29-9.43 25.15-8.51 38.05-8.95 40.01-.01 80.02,.02 120.03-.01 11.18-.05 23.27,.55 32.75,7.23 9.09,5.98 13.14,16.81 16.07,26.79 3.38,13.04 5.19,26.42 7.67,39.65 100.16,.83 200.33,.11 300.49,.35 128.34-.06 256.69,.12 385.03-.09 15.96-1.11 30.87,10.37 35.8,25.22 1.46,5.81 .92,11.92 1.24,17.86-.1,95.01-.14,190.03 .02,285.04 1.15,18.15-13.67,35.9-32.03,37.08-198.93,23.41-397.93,46.38-596.86,69.88 2.42,11.89 5.74,23.63 7.17,35.71 .93,15.07-8,27.86-13.27,41.33 174.98-.12 349.95,.09 524.92-.11 19.44-1.41 37.73,16.73 37.13,36.08 .61,17.94-14.29,35.11-32.27,36.64-10.05,.72-20.11,.41-30.16,.5 26.61,4.1 50.2,23.67 58.93,49.17 4.19,14.03 4.83,29.34 1.21,43.56-8.31,28.4-34.7,51.97-64.9,52.98-24.05,2.64-48.66-8.44-63.35-27.49-19.91-24.21-21.11-61.99-2.45-87.24 11.12-16.71 29.52-27.46 49.11-30.96-163.52-.29-327.03-.22-490.55-.04 26.6,4.14 50.21,23.68 58.93,49.19 4.2,14.03 4.83,29.34 1.21,43.56-8.31,28.4-34.7,51.97-64.9,52.98-24.05,2.64-48.66-8.44-63.35-27.49-19.91-24.21-21.11-61.99-2.45-87.24 11.12-16.7 29.51-27.47 49.11-30.95-14.79-1.18-31.54,3.14-44.69-5.7-13.41-7.89-20.81-25.14-16.23-40.19 7.23-21.92 18.6-42.13 29.77-62.22 1.54-3.15 4.1-6.44 3.15-10.18-33.61-155.57-66.93-311.21-100.49-466.79-38.25-.42-76.51,.32-114.75-.27-13.14,.43-26.44-6.29-32.97-17.86-9.61-14.63-6.02-36.31 7.88-47.02Z"/>
</svg>
