<svg width="1280" xmlns="http://www.w3.org/2000/svg" height="1280" viewBox="0 0 1024 1024">
<path d="m598.42,146.53c2.39-.13 7.16-.4 9.55-.54 58.34-.04 116.69,.08 175.03-.04 28-.67 56.33,5.6 80.89,19.19 41.4,23.17 74.03,63.72 83.31,110.72 4.19,22.44 3.84,45.41 3.82,68.14-.08,121.67 .06,243.34-.06,365.01 .36,28.76-6.16,57.7-20.03,82.97-22.97,39.97-61.9,71.56-107.34,81.57-16.93,3.67-34.35,3.71-51.58,4.4-53.34,.18-106.68-.1-160.02,.14-6.07,.07-12.52-.23-18.01-3.07-4.2-2.84-7.75-7.28-8.33-12.45-1.2-16.49-4.05-33.8 2.31-49.61 3.37-9.08 15.14-8.83 23.02-8.94 60.01-.09 120.03,.01 180.04,0 47.07-.64 88.85-44.8 86.01-92.01-.09-135.01 .02-270.02-.05-405.03 .49-31.67-19.55-61.12-46.56-76.45-15.28-9.43-33.82-11.51-51.41-11.54-56.68,.02-113.36-.04-170.03,.09-7.52,.39-15.67-1.21-20.78-7.27-3.68-4.31-2.78-10.54-3.54-15.73-.73-13.05-1.69-26.54 2.16-39.23 1.85-4.96 6.05-9.76 11.6-10.32Z"/>
<path d="m370.99,181.99c7.8-13.85 25.47-20.81 40.68-16.63 6.6,1.89 12.22,6.14 17.11,10.85 103.39,103.61 207.06,206.97 310.44,310.59 9.15,8.52 11.98,21.95 9.41,33.86-2.08,7.9-7.19,14.43-12.85,20.11-102.57,102.43-204.98,205.03-307.56,307.46-10.32,10.89-27.65,14.02-41.22,7.75-12.74-6.47-22.62-20.14-20.99-34.95-.1-54.34 .07-108.68-.03-163.02-85.01-.02-170.01-.04-255.02,.03-20.14,1.29-38.91-16.73-37.92-37-.16-70.02 .07-140.04-.1-210.06 .33-7.72-.28-15.87 2.89-23.13 3.87-8.55 11.07-15.45 19.51-19.48 9.07-3.51 19.12-2.95 28.65-3.38 80.66-.01 161.33,.05 242-.01 .01-53.34 .06-106.68-.07-160.01-.07-7.86 .49-16.3 5.07-22.98Z"/>
</svg>
