<svg width="1280" xmlns="http://www.w3.org/2000/svg" height="1280" viewBox="0 0 1024 1024">
<path d="m882.69,78.69c6.86-7.1 17.44-5.47 26.29-5.82 28.35,.19 56.69,.1 85.04,.02 7.27,.55 15.37-.86 21.91,3.22 4.27,2.24 5.94,7.09 8.07,11.12v849.54c-2.44,7.16-8.18,13.32-16.01,14.07-22.32,.83-44.67-.2-66.99,.16-16.79-.17-33.64,.88-50.37-.72-8.32-1.76-13.73-10.99-12.72-19.22 .2-278.36 .04-556.74 .08-835.1 .29-5.89-.46-13.05 4.7-17.27Z"/>
<path d="m671.39,366.52c33.17-1.4 66.41,0 99.61-.63 9.25,.68 19.88-1.79 27.89,4.24 6.24,6.33 5.7,15.7 6.09,23.85 .08,176.67-.05,353.36 .06,530.04-.17,7.82 .1,16.9-6.48,22.51-4.48,4.73-11.63,4.25-17.53,4.47-33.35,.12-66.7-.13-100.05,.11-6.33,.56-13.01-.93-17.83-5.27-5.03-5.28-5.19-13.01-5.15-19.81-.05-176.68 .1-353.36-.08-530.04 .4-8.18-1.01-17.56 4.73-24.34 2.51-2.17 5.34-4.55 8.74-5.13Z"/>
<path d="m454.41,585.51c33.16-1.33 66.4-.05 99.6-.61 7.64,.46 16.07-1.09 22.98,3.14 3.63,2.27 6.99,5.92 7.47,10.37 1.2,14.82 .39,29.72 .54,44.59 .05,93.34-.11,186.67 .09,280.01-.66,7.41 1.6,16.68-4.77,22.29-4.11,5.83-11.95,5.76-18.29,5.71-33.35,.1-66.7-.13-100.05,.1-7.96,.74-17.76-2.02-20.98-10.1-2.32-4.27-1.64-9.37-2.01-13.98-.03-106.69 .1-213.37-.07-320.06-1.23-9.73 4.88-20.84 15.49-21.46Z"/>
<path d="m232.41,732.54c38.17-1.32 76.43-.18 114.64-.58 8.81-1.32 17.12,5.98 18.36,14.46 1.19,13.15 .52,26.38 .61,39.58-.03,45-.06,90.01 .06,135.01-.37,8.34 1.04,18.14-5.23,24.84-6.35,6.24-15.77,4.95-23.84,5.24-33.35-.23-66.7,.05-100.05-.08-9.68,.04-18.32-8.76-17.38-18.66-1.26-60.09-.4-120.24-.45-180.34-.25-8.28 4.33-18.18 13.28-19.47Z"/>
<path d="m0,818.22c2.93-7.62 10.28-14.35 18.97-13.14 31.67-.48 63.36,.22 95.04-.24 9.26,.73 20.47-1.97 27.82,5.33 5.25,6.29 3.78,15.21 4.32,22.8-.2,30.02-.13,60.04-.04,90.06-.67,7.68 1.53,18-5.81,23.28-5.45,5.93-14.12,4.75-21.29,4.87-30.01-.31-60.02-.13-90.04-.06-6.95-.61-14.74,.91-20.92-3.19-4.22-2.31-5.93-7.14-8.05-11.16v-118.55Z"/>
</svg>
