<svg width="1280" xmlns="http://www.w3.org/2000/svg" height="1280" viewBox="0 0 1024 1024">
<path d="m215.4,146.49c61.51-1.23 123.07-.03 184.61-.59 7.1,.75 15.75-1.75 21.71,3.42 5.67,3.92 8.3,10.99 8.09,17.71 .32,15.5 3.75,32.8-5.08,46.7-3.85,5.71-11.73,5.14-17.7,5.28-60.02,.06-120.03-.12-180.05,.03-35.1-.22-67.95,23.12-82.29,54.64-6.17,13.5-7.79,28.61-7.7,43.31 .06,133.34-.08,266.68 .07,400.02 1.19,36.65 26.96,70.77 61.6,82.45 11.87,4.54 24.81,4.61 37.34,4.61 53.33-.18 106.67,.03 160.01-.13 6.88,.09 13.91-.18 20.67,1.46 6.75,2.37 13.41,7.75 12.89,15.73 .65,15.11 3.07,30.88-1.9,45.56-1.87,4.35-5.07,9.03-10.07,9.87-10.06,2.03-20.42,1.3-30.6,1.51-53.15-.37-106.31,.39-159.46-.37-41.02,0-82.14-15.84-111.33-44.91-18.95-17.65-34.61-39.38-42.85-64.08-7.3-19.66-9.5-40.86-9.41-61.71 .09-131.67 .05-263.34 .02-395.01-.13-24.34 4.25-49.04 15.04-71 24.88-52.21 77.93-91.37 136.39-94.5Z"/>
<path d="m582.17,181.11c6.75-10.23 18.47-17.15 30.87-17.04 10.75-.15 20.32,5.86 27.71,13.18 101.52,101.48 202.97,203.03 304.53,304.48 6.51,6.93 13.62,14.67 14.3,24.68 2.31,12.07-3.09,24.17-11.79,32.37-99.57,99.43-199.03,198.97-298.53,298.48-8.1,7.95-15.63,17.91-27.28,20.67-15.47,4.67-33-3.19-40.95-16.96-4.64-7.05-5.16-15.78-5.11-23.94 .12-53.01 .1-106.01 .06-159.02-85-.02-170.01-.03-255.02,.03-19,1.14-36.65-15.65-37.42-34.48-.67-8.17-.61-16.38-.61-24.56 .27-65.66-.17-131.32 .19-196.97 .16-17.86 14.82-34.91 32.91-36.05 7.94-1.01 15.97-.89 23.97-1.03 78.66,.08 157.32,.07 235.98,.02 .03-51.66 .08-103.32-.06-154.98 .19-9.74-.41-20.89 6.25-28.88Z"/>
</svg>
