<svg width="1280" xmlns="http://www.w3.org/2000/svg" height="1280" viewBox="0 0 1024 1024">
<path d="m246.86,77.83c28.91-5.06 58.88-6.45 87.76-.48 31.62,5.8 61.5,19.73 87.28,38.78 4.66,5.05 11.41,1.15 16.98,.76 65.01-12.17 133.03-8.18 195.96,12.31 67.31,22.21 129.65,60.97 176.87,114.08 30.63,34.31 55,74.12 72.33,116.69 23.08,54.9 32.31,115.13 29.64,174.49-1.26,18.76-3.22,37.54-7.38,55.91-1.09,3.9-2.04,8.66 1.69,11.63 18.32,24.62 31.68,53.01 37.88,83.12 8.84,43.84 5.95,90.61-11.84,131.91-13.27,32.04-35.32,59.97-61.45,82.53-17.7,15.31-38.01,27.49-59.63,36.4-53.84,20.68-116.03,20.61-168.96-2.96-15.84-6.54-30.27-15.96-44.15-25.92-3.64-3.05-8.64,.13-12.71,.07-60.48,11.35-123.69,9.56-182.98-7.34-35.7-10.11-70-25.11-101.81-44.17-60.26-35.97-110.49-88.62-143.42-150.62-15.82-28.83-27.85-59.68-36.5-91.38-15.46-61.09-16.99-125.76-3.82-187.41-22.38-28.94-37.97-63.33-43.03-99.69-5.29-35.33-2.72-72 8.99-105.84 11.32-33.5 31.87-63.44 57.56-87.58 28.63-28 65.43-47.57 104.74-55.29m236.59,164.74c-45.18,2.59-90.42,13.99-129.4,37.47-38.86,23.11-64.81,66.68-65.98,111.96-1.1,28.53 2.77,58.44 17.46,83.42 9.51,16.89 24.52,29.95 40.51,40.52 21.99,15.08 47.46,23.98 72.97,31.02 42.91,10.88 86.05,20.85 128.84,32.22 12.33,3.7 25,7.15 36.12,13.84 17.13,10.56 21.89,35.08 12.27,52.22-7.93,12.95-21.39,21.64-35.56,26.4-37.31,11.42-79.54,7.53-113.58-11.78-30.71-16.94-47.78-51.29-80.14-65.76-14.68-6.46-31.84-5.03-46.71,.05-21.81,8.71-33,33.37-32.24,55.85-.75,27.35 15.98,51.9 36.72,68.29 32.43,25.62 71.72,41.38 111.85,50.2 35.67,8.11 72.52,9.84 108.97,7.95 50.79-3.49 101.67-19.36 142.53-50.35 34.87-28.38 56.45-72.91 54.99-118.1 1.04-41.32-20.54-82.33-55.13-104.93-29.06-19.48-62.12-32.52-95.96-40.97-35.49-9.01-71.33-16.5-106.9-25.16-13.01-3.48-26.27-7.14-37.87-14.16-13.68-9.33-21.04-27.9-15.31-43.86 3.14-11.07 12.96-18.56 23.14-22.84 21.88-9.13 46.17-9.97 69.51-8.5 20.7,1.43 41.21,7.8 58.48,19.42 19.21,13.65 33.94,33.94 56.58,42.46 21.23,7.16 48.03,2.95 62.66-15.19 18.86-19.92 21.8-52.57 7.23-75.7-11.29-18.6-29.99-30.9-48.24-41.83-19.03-10.05-39.4-17.49-60.26-22.71-38.26-9.97-78.12-13.45-117.55-11.45Z"/>
</svg>
