<svg width="1280" xmlns="http://www.w3.org/2000/svg" height="1280" viewBox="0 0 1024 1024">
<path d="m489.45,73.48c78.9-4.34 159.01,12.84 228.62,50.39 40.09,21.41 76.63,49.19 108.67,81.38 51.44,53.58 89.91,119.88 109.25,191.69 18.95,74.72 20.32,154.47 .01,229.06-18.26,69.47-54.86,133.78-103.78,186.22-41.99,44.96-93.69,80.66-150.26,104.73-67.58,28.67-142.54,38.46-215.43,31.63-71.97-6.97-141.99-32.56-201.52-73.6-103.95-69.76-175.64-186.32-188.94-311.03-11.4-92.36 7.24-188.36 53.77-269.07 25.84-44.96 59.24-85.67 98.93-119.1 42.26-34.91 90.49-62.9 142.51-80.41 38.11-12.78 78.05-19.8 118.17-21.89m5,73.08c-69.6,2.99-137.59,27.47-194.36,67.55-39.94,27.5-73.44,63.95-98.75,105.22-39.98,64.95-60.65,142.32-54.22,218.62 5.63,80.57 39.67,158.5 93.23,218.71 56.49,62.69 135.45,104.46 218.78,117.14 26.79,4.31 54.04,3.77 81.05,2.53 72.25-5.25 141.88-34.01 198.97-78.2 34.87-27.55 64.52-61.71 86.83-100.15 34.12-58.02 53.78-125.41 51.08-192.98-.36-76.97-28.3-152.55-74.05-214.01-24.15-32.58-54.24-60.63-88.1-82.9-64.62-42.83-142.74-66.16-220.46-61.53Z"/>
<path d="m359.45,292.51c27.16-3.28 54.44,11.48 68.54,34.53 8.52,12.14 10.76,27.44 10.9,41.95-.85,29.56-22.19,56.54-49.94,65.89-18.22,5.3-38.91,5.15-55.95-3.89-13.53-6.74-24.78-17.74-31.98-31-8.02-14.01-9.56-30.89-7.61-46.66 4.92-31.94 33.35-59.27 66.04-60.82Z"/>
<path d="m651.45,292.52c24.04-2.9 48.97,8.31 63.89,27.15 19.62,23.59 21.51,60.42 4.06,85.71-9.1,12.95-21.6,24.04-36.76,29.18-24.32,7.82-53.3,3.9-72.33-13.89-22.77-19.01-31.66-52.65-20.96-80.36 9.34-25.9 34.35-46.01 62.1-47.79Z"/>
<path d="m335.45,566.53c10.03-1.31 19.82,3.4 27.29,9.75 6.36,5.46 8.87,13.81 11.68,21.4 14.62,44.53 53.46,79.16 98.25,91.66 18.49,5.32 37.97,5.36 57.02,4.27 48.84-5.61 93.81-37.86 114.3-82.61 4.97-10.01 7.09-21.33 13.36-30.69 11.55-14.82 34.48-18.17 49.86-7.5 10.35,7 16.14,19.78 15.67,32.14-1.26,10.38-5.62,19.99-9.31,29.67-20.57,51.32-62.68,92.57-112.97,114.9-51.29,22.1-110.97,24.31-163.62,5.54-45.67-16.88-86.3-48.58-111.64-90.39-10-16.19-17.6-33.79-22.98-52.02-2.72-9.98-1.38-21.15 4.62-29.68 5.67-10.16 17.29-15.4 28.47-16.44Z"/>
</svg>
