<svg width="1280" xmlns="http://www.w3.org/2000/svg" height="1280" viewBox="0 0 1024 1024">
<path d="m225.79,5.03c47.91-.11 95.83,.05 143.75-.09 2.46,16.24 1.32,32.71 1.46,49.06 .01,248.33-.03,496.65 .02,744.98 31.66,.04 63.32,.07 94.99-.09 7.64,.19 15.55-.38 22.92,2.18 10.32,4.19 13.63,19.68 5.89,27.79-5.94,7.64-13.32,13.99-20.07,20.89-53.48,53.52-107.05,106.96-160.46,160.55-3.7,3.38-7.47,7.54-12.73,8.22-9.04,2.41-16.88-4.42-22.85-10.22-37.91-38.09-75.98-76.03-113.96-114.05-17.78-17.89-35.92-35.43-53.05-53.95-5.04-5.88-12.58-10.42-14.88-18.18-2.08-6.8 1.43-13.53 5.85-18.45 5.61-4.77 13.43-4.46 20.3-4.66 34.01-.16 68.01,.11 102.02-.02 .03-245-.01-489.99 .02-734.99 .09-19.66-.6-39.34 .78-58.97Z"/>
<path d="m700.9,7.79c6.14-3.37 13.35-2.55 20.08-2.88 28.35,.12 56.69,.09 85.04,.01 6.99,.32 14.56-.37 20.96,3.07 46.53,21.24 79.47,66.08 91.99,115.01 8.42,31.38 9.19,64.19 7.55,96.46-4.6,62.33-28.81,124.84-74.43,168.62-20.13,18-44.46,31.18-70.39,38.63-38.33,9.84-79.87,10.27-117.43-3.05-7.15-2.39-14.3-4.76-21.26-7.66 7.47-21.39 14.57-42.91 22.31-64.21 20.04,7.56 41.02,13.95 62.68,13.23 20.4,.57 40.85-5.89 57.6-17.44 30.94-23.79 48.14-61.25 55.19-98.87-16.3,14.02-36.41,23.22-57.64,26.56-31.43,5.89-65,2.06-93.41-12.99-38.45-21.48-65.7-62.28-69.78-106.27-3.53-29 1.35-59.13 14.96-85.05 14.53-27.32 37.81-50.17 65.98-63.17m51.53,56.74c-17.75,1.88-33.44,13.34-42.36,28.52-14.51,24.83-15.79,57.13-3.02,82.92 12.81,25.58 42,39.61 69.96,38.15 22.81,1.14 46.91-7.58 61.26-25.84 7.21-9.01 9.74-20.96 8.81-32.3 .02-23.28-10.58-45.24-25.22-62.83-9.68-11.72-22.36-21.22-36.74-26.29-10.48-3.69-21.79-3.37-32.69-2.33Z"/>
<path d="m738.65,586.65c3.22-2.9 6.17-7.58 11.36-6.43 21.98-.76 43.98,.02 65.97-.2 .2,124.55-.3,249.11 .24,373.66 31.25,.73 62.51,.11 93.76,.33 .05,21.65 .04,43.31-.01,64.97-89.32,.04-178.63,.02-267.95,.01-.06-21.66-.05-43.32 .01-64.97 31.98-.08 63.96,.03 95.95-.04 .24-92.46-.41-184.93 .38-277.39-6.55,9.55-13.08,19.21-21.68,27.07-11.34,10.13-22.09,20.89-33.59,30.84-16.04-16.02-31.66-32.47-46.99-49.17 21.79-19.92 42.45-41.04 64.1-61.12 12.52-12.83 26.17-24.5 38.45-37.56Z"/>
</svg>
