<svg width="1280" xmlns="http://www.w3.org/2000/svg" height="1280" viewBox="0 0 1024 1024">
<path d="m138.19,5.31c47.98-.7 95.97-.14 143.96-.3 1.23,7.93 1.79,15.95 1.88,23.98-.06,257-.02,514-.02,771 36.66,.23 73.33-.37 109.99,.19 10.4-1.28 19,9.33 17.54,19.25-.5,6.74-5.57,11.57-9.76,16.34-58.04,57.97-116.05,115.96-174.01,174.01-4.96,4.54-10.43,9.98-17.81,9.22-6.52,.33-11.86-4.47-16.26-8.68-59.85-60.16-120.02-120.01-179.94-180.09-10.67-10.07-2.3-32 13.2-30.16 36.67-.32 73.36,.09 110.04-.07 .01-258.34 0-516.68 0-775.01 .16-6.57 .53-13.14 1.19-19.68Z"/>
<path d="m504.52,4.91c58.51,.18 117.02,.1 175.53,0 1.54,.25 3.87-.37 4.56,1.52 2.26,5.49 .91,11.79 1.49,17.56-.31,33.35 .17,66.7-.18,100.05-.5,9.02-8.33,17.97-17.92,16.78-48.34,.51-96.69-.05-145.04,.28-10.24,1.58-20.98-7.49-19.78-18.1-.67-29.99 .19-60-.29-90 .12-9.35-.74-18.93 1.63-28.09Z"/>
<path d="m515.44,288.65c11.47-1.24 23.04-.63 34.56-.69 76.69,.12 153.38-.01 230.06,.02 8.4,.22 15.28,8.16 15.43,16.4 1.36,31.51 0,63.09 .62,94.62-.48,9.21 1.58,19.85-4.2,27.93-4.79,7.58-15.11,6.87-22.88,7.15-81.69-.17-163.38-.04-245.06-.06-5.91,.52-12.1-1.51-16.29-5.7-5.77-6.4-4.45-15.44-4.77-23.31 .23-33.35-.09-66.7 .1-100.05-.03-7.35 5.11-14.71 12.43-16.31Z"/>
<path d="m517.4,580.55c14.83-1.24 29.73-.4 44.6-.55 106.67-.06 213.35,.13 320.02-.11 7.21-.66 15.11,1.43 19.72,7.35 3.87,4.28 2.79,10.48 3.27,15.73-.03,35.02 .1,70.05-.04,105.07 .83,5.91-2.45,11.48-6.86,15.1-4.24,3.34-10.11,2.42-15.08,2.87-120.02,.04-240.05-.12-360.07,.08-8.3,1.05-17.68-4.15-19.25-12.74-1.19-10.08-.73-20.24-.78-30.35 .28-28.35-.16-56.7 .06-85.04 .14-8.19 5.93-16.33 14.41-17.41Z"/>
<path d="m516.41,873.56c13.16-1.17 26.39-.49 39.59-.58 146.68,.09 293.36-.08 440.03,.08 6.74-.95 12.89,2.98 16.61,8.29 2.79,4.32 1.87,9.75 2.37,14.62 .1,33.35-.13,66.7 .1,100.05 .56,6.51-1.02,13.58-5.79,18.3-5,4.51-11.95,4.78-18.29,4.7-156.69-.03-313.38-.02-470.07-.01-4.91-.11-9.79-2.31-13.28-5.69-5.77-6.4-4.45-15.45-4.77-23.31 .22-33.35-.05-66.7 .08-100.05-.01-7.54 5.87-15.21 13.42-16.4Z"/>
</svg>
