<svg width="1280" xmlns="http://www.w3.org/2000/svg" height="1280" viewBox="0 0 1024 1024">
<path d="m175.79,5.04c47.67,.16 95.4-.47 143.05,.21 2.88,3.9 1.58,9.24 2.19,13.72-.06,260-.03,520.01-.02,780.02 33.34,.03 66.67,.04 100-.09 6.91,.36 15.24-.89 20.91,4.18 5.83,3.94 8.07,11.63 6.59,18.32-1.6,5.93-6.13,10.5-10.19,14.9-58.64,58.37-117.04,116.99-175.57,175.46-4.69,5.3-12.04,8.66-19.14,6.71-9.32-3.12-15.58-11.1-22.4-17.68-40.36-40.64-81.08-80.92-121.4-121.6-15.21-17.09-32.23-32.45-48-49.01-5.16-4.59-6.88-12.22-4.38-18.61 2.62-8.16 11.25-12.94 19.57-12.39 35.99-.57 72,.05 107.99-.19 0-256.67 .05-513.33-.03-769.99 .05-7.99 .22-15.99 .83-23.96Z"/>
<path d="m596.01,5.01c107.99-.02 215.97-.02 323.96,0-.58,13.86 1.7,28.31-1.17,41.85-59.49,86.37-119.96,172.07-179.67,258.3-16.05,21.85-29.8,45.56-48.68,65.21 33.41-3.36 67.02-2.2 100.55-2.37 22.33,0 44.66,.02 67-.01 0-22.66-.01-45.32 .01-67.97 22.88,.04 45.78-.28 68.67,.21 .58,44.47 .44,88.97 .08,133.45-111.24,.74-222.49,.12-333.73,.31 .12-16.67-.55-33.35 .13-50.01 .27-3.23 2.98-5.63 4.33-8.42 67.22-96.15 134.29-192.41 201.48-288.58 6.88-10.37 14.41-20.35 23.48-28.93-10.18,.12-20.25,2.08-30.44,1.91-42.67,.17-85.34-.06-128.01,.05 0,21.99-.01,43.98-.01,65.97-22.66,.04-45.32,.04-67.98,0-.02-40.32-.03-80.64 0-120.97Z"/>
<path d="m713.38,580.13c30.86-.26 61.72-.13 92.58-.09 44.18,125.8 87.62,251.87 131.45,377.8 13.42,.18 26.84,.06 40.27,.49 .55,20.21 .31,40.43 .29,60.66-54.98,.02-109.97,.02-164.95,0-.05-20.33-.05-40.65 0-60.97 14.31-.06 28.64,.01 42.96-.05-6.4-17.36-11.36-35.18-17.37-52.67-3.17-9.62-6.71-19.12-9.28-28.93-46.44-.83-92.89-.17-139.34-.36-9,27.31-17.74,54.72-26.89,81.99 14.29,.03 28.59-.04 42.89,.01 .03,20.32 .03,40.65-.01,60.98-54.65,.02-109.31,.02-163.96,0-.05-20.32-.04-40.64 0-60.95 13.45-.06 26.91,.07 40.36-.42 43.31-125.95 87.37-251.65 131-377.49m38.17,105.58c-13.8,42.55-28.78,84.7-42.72,127.21 33.77,.14 67.53,.13 101.3,0-11.17-33.88-22.78-67.61-33.52-101.63-7.44-20.16-12.63-41.01-17.04-62.01-3.38,11.98-4.44,24.49-8.02,36.43Z"/>
</svg>
