<svg width="1280" xmlns="http://www.w3.org/2000/svg" height="1280" viewBox="0 0 1024 1024">
<path d="m175.78,5.03c48.03,.07 96.06-.31 144.09,.19 .81,7.9 1.11,15.84 1.19,23.78-.13,256.66-.04,513.32-.05,769.99 33.34,.07 66.68-.03 100.01-.06 8.53,.18 18.95-.3 24.47,7.59 6.36,8.16 3.26,20.3-4.28,26.67-59.38,59.62-119,119.03-178.46,178.57-4.69,5.3-12.04,8.66-19.14,6.72-9.32-3.13-15.58-11.11-22.4-17.69-42.35-42.65-85.09-84.91-127.38-127.61-13.51-15.14-28.5-28.85-42.53-43.48-8.19-7.55-5.64-22.21 3.7-27.68 6.63-3.94 14.66-2.64 21.99-3.1 32.67,.08 65.33,.11 98,.07-.01-256.66 .06-513.33-.03-769.99 .04-8 .26-15.99 .82-23.97Z"/>
<path d="m708.07,10.07c1.28-2.78 2.03-7.44 6.91-5.01 31.55-.23 63.1-.07 94.65,.07 42.58,122.58 85.36,245.09 127.76,367.73 13.52,.18 27.05,.12 40.58,.17 .02,20.21 .27,40.44-.29,60.65-54.89,.73-109.78,.13-164.66,.31-.05-20.32-.05-40.65 0-60.97 14.31-.02 28.62-.01 42.95-.05-9.17-27.25-17.99-54.63-26.86-81.98-46.41,.01-92.82,.01-139.24,0-8.76,27.39-17.86,54.67-26.76,82.01 14.28,.01 28.58,0 42.88,.01 .04,20.32 .03,40.65-.01,60.98-54.65,.02-109.31,.01-163.96,0-.05-20.31-.05-40.63 0-60.94 13.44-.04 26.89,.03 40.34-.43 41.51-120.99 84.08-241.61 125.71-362.55m42.35,94.31c-13.65,41.25-28.01,82.26-41.59,123.54 33.77,.14 67.54,.14 101.32,0-11.2-33.58-22.5-67.12-33.28-100.84-7.53-20.42-12.86-41.53-17.29-62.82-3.59,13.25-4.9,27.03-9.16,40.12Z"/>
<path d="m596.01,580.01c107.99-.02 215.97-.01 323.96,0-.47,17.04 1.32,34.35-.83,51.23-21.49,32.29-44.18,63.78-66.27,95.66-46.64,67.33-93.75,134.32-140.27,201.73-6.61,9.65-14.65,18.15-22.08,27.15 21.72-2.74 43.65-1.62 65.48-1.78 33.89-.15 67.79,.33 101.68-.27 .59-22.57 .23-45.15 .33-67.72 22.99-.04 45.98-.03 68.98,0 .02,44.32 .02,88.65 0,132.98-111.32,.01-222.64,.02-333.96,0 .14-16.67-.59-33.34 .17-49.99 .4-3.47 3.16-6.12 4.72-9.07 61.97-88.12 123.31-176.68 185.09-264.92 12.96-17.44 23.42-36.96 39.43-51.95-9.83,.35-19.58,1.99-29.43,1.9-43,.17-86.01-.06-129.01,.05 .01,21.99-.01,43.98-.01,65.97-22.66,.04-45.32,.04-67.98,.01-.02-43.66-.03-87.32 0-130.98Z"/>
</svg>
