<svg width="1280" xmlns="http://www.w3.org/2000/svg" height="1280" viewBox="0 0 1024 1024">
<path d="m225.81,5.04c47.66,.15 95.38-.46 143.01,.21 2.95,3.87 1.59,9.25 2.21,13.72-.05,260-.04,520.01-.01,780.01 35,.13 70-.11 105,.03 5.47,.31 11.4,.49 15.87,4.12 6.01,3.93 8.03,11.79 6.8,18.55-2.52,8.49-10.07,13.94-15.89,20.12-53.59,53.41-107.07,106.93-160.51,160.49-6.22,5.77-11.47,13.48-19.93,16.11-8.51,2.65-16.33-3.11-22.11-8.64-58.02-57.98-115.94-116.07-174.06-173.96-4.87-5.36-10.88-11.46-9.63-19.38 .16-4.88 3.06-9.18 6.09-12.77 6.14-5.14 14.92-4.01 22.33-4.63 33.33-.17 66.66,.1 100-.04 .06-246.66-.01-493.32 .03-739.98 .03-17.99-.55-36.01 .8-53.96Z"/>
<path d="m733.26,7.24c2.99-3.15 7.9-1.51 11.7-2.25 23.67-.19 47.34,.11 71.02,.03 .06,120.99-.02,241.98 .04,362.97 31.32,.07 62.64-.06 93.96,.03 .05,21.98 .05,43.97 0,65.96-89.22-.12-178.45,.34-267.66-.23-.49-21.8-.56-43.62-.09-65.42 31.91-.75 63.83-.11 95.75-.35 .06-81.66-.01-163.32 .02-244.98-.11-10.54 .57-21.07 .73-31.6-6.59,9.07-12.83,18.52-21.15,26.16-11.54,10.59-22.62,21.71-34.58,31.83-16.12-15.91-31.46-32.58-46.99-49.06 32.85-30.56 64.71-62.19 97.25-93.09Z"/>
<path d="m723.01,585.05c29.08-7.19 60.22-7.12 88.83,2.16 45.52,14.6 81.17,52.34 98.91,96.07 12.19,29.92 16.67,62.57 16.37,94.72 1.13,53.51-12.5,107.67-40.89,153.23-16.5,25.44-37.11,49.31-64.28,63.68-34.16,19.93-74.87,26.82-114,23.27-22.57-1.34-44.18-8.66-64.96-17.12 7.47-21.34 14.66-42.77 22.27-64.06 26.75,10.51 56.1,17.13 84.74,10.98 22.14-4.27 42.21-17.24 55.97-35 18.59-22.69 29.46-50.68 34.81-79.29-13.26,11.85-29.4,20.39-46.78,24.26-40.66,10.75-86.89,4.72-120.7-21.28-16.71-13.46-31.23-30.09-40.33-49.65-14.55-29.97-17.33-65-10.4-97.37 11-49.69 50.97-91.99 100.44-104.6m29.42,64.47c-21.82,2.54-39.89,19.25-47.67,39.28-12.11,30.31-7.76,69.41 17.53,91.89 16.14,15.07 39.31,19.61 60.73,18.39 21.86-.05 44.41-9.7 56.93-28.12 6.27-8.54 7.8-19.65 7.13-29.98-.07-22.02-9.34-43.1-23.02-60.03-9.95-13.02-23.41-23.64-38.94-29.09-10.48-3.69-21.79-3.37-32.69-2.34Z"/>
</svg>
