<svg width="1280" xmlns="http://www.w3.org/2000/svg" height="1280" viewBox="0 0 1024 1024">
<path d="m519.44,55.52c17.81-1.79 36.1,.49 52.7,7.28 30.59,13.2 55.89,40.26 64.13,72.9 5.28,20.94 5.12,43.39-1.62,63.98-12.91,38.49-48.51,69.39-89.31,73.72-14.73,1.14-29.85,1.4-44.2-2.58-39.59-10.59-72.4-45.18-78.93-85.93-4.94-29.71 .86-61.94 19.8-85.88 18.26-24.47 46.74-41.36 77.43-43.49Z"/>
<path d="m262.44,174.55c20.78-2.72 42.16,1.5 60.48,11.54 11.76,7.13 22.56,16.06 31.06,26.93 24.27,30.23 27.39,75.12 9.08,109.02-15.88,28.54-45.44,50.04-78.5,52.43-32.85,4.15-66.65-10.03-87.58-35.45-15.48-17.78-24.01-41.4-23.11-65.01-2.15-49.28 39.72-95.3 88.57-99.46Z"/>
<path d="m777.44,229.55c16.26-3.25 33.81,2.95 44.04,16.01 13.81,16.39 14.03,43.11-1.15,58.75-13.43,16.51-39.18,20.75-57.27,9.61-11.23-7.05-20.49-18.4-22.12-31.92-4.94-23.49 12.94-48.75 36.5-52.45Z"/>
<path d="m154.44,439.49c24.19-2.91 49.19,4.55 67.78,20.26 25.87,20.4 38.43,55.4 32.33,87.69-3.46,18.97-13.55,36.4-27.7,49.4-21.4,21.96-54.84,29.54-84.23,22.64-26.02-6.68-49.11-25.08-60.64-49.47-8.01-15.44-10.01-33.31-8.51-50.45 4.28-40.98 39.78-76.49 80.97-80.07Z"/>
<path d="m885.43,476.54c10.83-1.11 22.53-1.42 32.55,3.53 16.05,7.69 29.57,22.96 31.71,41.09 3.63,18.03-3.07,37.53-16.85,49.68-12.24,12.2-30.59,16.13-47.28,13.69-23.84-4.31-44.06-25.94-44.42-50.58-2.86-26.67 17.78-53.43 44.29-57.41Z"/>
<path d="m265.44,704.5c41.7-5.81 84.26,26.41 89.9,68.11 1.07,11.96 1.68,24.44-1.72,36.12-9.34,33.23-41.6,59.67-76.6,59.38-25.6,1.82-51.2-10.08-67-30.12-18.74-22.23-23.09-54.9-12.84-81.83 10.97-27.96 38.02-49.41 68.26-51.66Z"/>
<path d="m781.45,722.53c25.94-2.71 51.4,13.41 62.57,36.45 12.57,25.78 4.87,59.55-18.02,77-22.07,18.87-57.98,19.08-79.99-.01-20.73-15.87-29.13-45.27-20.94-69.89 8.25-23.69 30.83-42.63 56.38-43.55Z"/>
<path d="m519.41,823.54c25.82-4.56 52.75,6.93 68.56,27.49 10.01,11.88 15.13,27.48 15.09,42.95 2.03,25.78-13.08,51.08-34.7,64.41-23.36,14.73-55.55,14.32-78.33-1.44-12.64-8.35-22.5-20.7-28.33-34.64-7.54-21.2-6.21-46.2 6.41-65.21 11.18-17.88 30.22-30.97 51.3-33.56Z"/>
</svg>
