<svg width="1280" xmlns="http://www.w3.org/2000/svg" height="1280" viewBox="0 0 1024 1024">
<path d="m223.45,73.6c6.51-.43 13.02-.64 19.55-.65 183.33,.13 366.68-.01 550.01,.07 68.31,.97 131.08,51.26 150.82,116 5.95,19.37 7,39.84 7.2,59.98-.1,178.33 .03,356.67-.06,535.01 .21,28.84-6.61,57.85-21.11,82.88-21.7,36.67-56.8,66.3-98.21,77.73-19.04,5.44-38.99,6.06-58.65,6.41-176.67-.08-353.34,.01-530.01-.05-27.55,.3-55.61-4.73-80.02-17.92-30.48-15.6-55.49-41.15-71.93-71.07-12.69-23.51-17.96-50.41-18.03-76.98-.06-181.67 .06-363.34-.06-545.02-.36-26.16 4.8-52.73 17.03-76 25.43-49.93 76.84-87.19 133.47-90.39Z"/>
</svg>
