<svg width="1280" xmlns="http://www.w3.org/2000/svg" height="1280" viewBox="0 0 1024 1024">
<path d="m248.98,74.93c14.85-2.62 30.01-1.83 45.02-1.97 153.34,.13 306.68-.06 460.02,.09 48.64-1.25 93.1,35.45 106.62,81.22 7.04,23.57 3.66,48.5 4.33,72.71-235.65,.03-471.29,.04-706.94,0 .57-23.6-2.42-47.86 4.19-70.87 11.36-39.91 45.44-73.74 86.76-81.18Z"/>
<path d="m158.03,269.03c235.65-.05 471.3-.04 706.95-.01 .03,48.65 .05,97.3-.01,145.95-235.65,.05-471.3,.04-706.95,.01-.03-48.65-.05-97.3 .01-145.95Z"/>
<path d="m158.03,456.03c235.65-.05 471.3-.04 706.95-.01 .03,48.65 .05,97.3-.01,145.95-235.65,.05-471.3,.04-706.95,.01-.03-48.65-.05-97.3 .01-145.95Z"/>
<path d="m158.03,643.02c235.65-.03 471.3-.04 706.94,0-.83,24.96 3.27,50.79-5.12,74.91-12.67,38.98-47.11,71.59-88.3,77.59-16.9,2.78-34.23,.2-51.11,1.99-39.11,40.18-77.88,80.73-117.03,120.88-10.01,11.02-20.63,21.47-31.29,31.87-.31-51.08 0-102.16-.14-153.24-100-.02-199.99-.07-299.99,.03-23.54,.68-47.36-6.65-66.18-20.87-18.28-13.37-32.73-32.11-40.65-53.34-9.6-25.5-6.86-53.18-7.13-79.82Z"/>
</svg>
