<svg width="1280" xmlns="http://www.w3.org/2000/svg" height="1280" viewBox="0 0 1024 1024">
<path d="m759.22,9.85c28.41-6.97 57.78-4.58 86.75-4.83 19.61,112.12 38.96,224.28 58.46,336.42 2.86,17.18 6.2,34.28 8.72,51.52-28.24,5.38-56.65,9.8-84.91,15.07-22.62-132.79-45.88-265.48-69.02-398.18Z"/>
<path d="m514.49,127.51c23.97-15.89 47.4-32.56 71.27-48.59 75.48,111.47 151.81,222.36 226.73,334.2-23.32,16.55-46.81,32.93-70.91,48.33-65.77-97.44-132.58-194.19-198.61-291.45-9.51-14.16-19.9-27.74-28.48-42.49Z"/>
<path d="m380,267.98c115.81,68.54 231.6,137.11 347.52,205.47-13.96,25.19-29.21,49.66-43.67,74.56-115.99-68.61-232.04-137.12-347.98-205.81 14.85-24.66 29.34-49.53 44.13-74.22Z"/>
<path d="m286.37,467.79c8.36,1.41 16.49,3.87 24.66,6.1 121.96,32.87 244.07,65.21 365.99,98.24-7.51,27.71-14.83,55.46-22.2,83.21-130.05-34.66-260.05-69.54-390.04-104.45 6.59-27.86 14.99-55.25 21.59-83.1Z"/>
<path d="m110.02,598.01c22.99-.03 45.98-.04 68.97,0 .04,117.66-.02,235.32 .02,352.98 176.66,.01 353.31,.03 529.97-.01 .06-117.66-.02-235.32 .03-352.97 22.99-.03 45.98-.04 68.98,0 .02,140.32 .02,280.65-.01,420.97-201.66,.04-403.32,.01-604.98,.01-20.99-.17-42.01,.7-62.97-.84-.06-140.05-.04-280.09-.01-420.14Z"/>
<path d="m248.05,648.06c134.06,12.09 268.08,24.62 402.1,37.06-2.1,28.66-4.81,57.28-7.28,85.91-134.3-12.53-268.61-24.84-402.92-37.19 2.48-28.61 5.07-57.22 8.1-85.78Z"/>
<path d="m566,796.02c24-.23 48-1.85 72.01-.97 2.68,.17 5.04,2.51 3,5.93 .03,25 .1,50.02-.03,75.03 2.86,8.4-6.89,5.29-10.96,6.08-131.33-.21-262.67-.02-394.01-.1-.03-28.66-.04-57.32 .01-85.97 109.99-.04 219.99-.03 329.98,0Z"/>
</svg>
