<svg width="1280" xmlns="http://www.w3.org/2000/svg" height="1280" viewBox="0 0 1024 1024">
<path d="m733.63,64.62c4.13-3.85 9.88-5.19 15.26-6.2 .24,255.15 .07,510.31 .09,765.47-85.6,45.14-171.39,89.95-256.96,135.14-11.23,5.79-26.57,10.06-37.31,1.26-11.12-10.93-9.42-27.99-6.49-41.94 15.93-93 32.32-185.94 47.78-279.02-55-53.44-110.07-106.79-164.9-160.42-14.23-12.75-27-27.03-41.2-39.82-7.64-7.92-15.83-17.43-15.72-29.11-.42-5.38 1.93-10.52 5.14-14.67 5.82-6.62 14.75-9.16 23.09-10.84 96.81-14.52 193.82-27.82 290.59-42.62 21.02-43.44 43.14-86.34 63.98-129.86 20.13-39.44 39.13-79.43 58.98-119.01 5-9.93 9.35-20.65 17.67-28.36Z"/>
</svg>
