<svg width="1280" xmlns="http://www.w3.org/2000/svg" height="1280" viewBox="0 0 1024 1024">
<path d="m504.72,59.76c5.65-1.07 12.04-1.76 17.26,1.27 8.17,3.52 13.03,11.44 17.01,18.96 7.65,14.85 14.91,29.89 22.03,45 15.67,31.67 31.87,63.07 46.97,95.02 20.54,40.37 40.14,81.2 60.32,121.75 90.16,13.32 180.38,26.21 270.56,39.43 12.93,1.94 26.66,2.76 38.06,9.89 6.11,3.76 10.35,10.67 10.06,17.96 .89,9.04-4.52,17.26-10.35,23.61-24.71,25.96-51.32,50-76.43,75.56-17.68,15.64-33.26,33.44-50.86,49.16-12.06,11.27-23.1,23.57-35.33,34.65-14.9,13.43-28.11,28.6-43.19,41.84-2.08,2.47-6.38,4.74-5.4,8.54 16.04,93.01 31.92,186.06 48.06,279.06 1.94,11.16 2.87,23.6-3.37,33.65-2.97,6.47-10.25,10.03-17.17,9.91-8.52,1.05-16.51-2.39-23.93-6.08-78.82-41.55-157.76-82.9-236.61-124.42-6.33-3.38-12.53-7.04-19.15-9.81-1.82-.96-3.78,.28-5.38,1.06-84.13,44.28-168.31,88.46-252.44,132.74-9,5.24-19.75,7.85-30.12,6.15-8.2-1.96-13.38-9.84-15.49-17.53-2.63-14.71 1.1-29.37 3.5-43.81 15.14-87.99 30.31-175.98 45.41-263.97-14.15-12.2-26.38-26.39-40.28-38.84-12.24-11.07-23.2-23.46-35.43-34.53-13.36-11.97-25.18-25.54-38.63-37.4-11.46-10.53-21.85-22.15-33.35-32.63-14.38-12.94-27.21-27.48-41.71-40.3-10.55-10.44-22.21-20.28-29.63-33.35-4.03-8.54-4.82-20.03 2.47-27.13 6.24-6.55 15.29-9.4 23.97-10.9 96.48-14.43 193.15-27.7 289.58-42.48 19.69-41.95 41.45-82.9 61.26-124.8 23.14-45.43 45.01-91.49 68.01-137 4.21-8.53 10.29-17.13 19.72-20.23Z"/>
</svg>
