<svg width="1280" xmlns="http://www.w3.org/2000/svg" height="1280" viewBox="0 0 1024 1024">
<path d="m504.71,59.77c5.66-1.02 12.06-1.79 17.28,1.26 11.72,5.34 16.42,18.31 22.08,28.94 16.96,35.18 34.4,70.12 51.92,105.04 15.32,32.66 32.16,64.58 47.91,97.03 7.72,16.78 16.34,33.13 24.39,49.75 95.12,13.94 190.27,27.64 285.39,41.54 10.06,1.62 20.77,4.36 28.15,11.84 5.13,5.44 5.98,13.41 4.8,20.49-2.75,10.81-11.29,18.51-18.83,26.14-10.83,10.5-21.18,21.49-32.23,31.75-14.41,12.92-27.26,27.44-41.57,40.45-14.66,13.33-27.82,28.22-42.6,41.42-12.8,11.85-24.49,24.84-37.36,36.62-15.26,13.72-28.73,29.3-44.28,42.72-2.08,2.01-5.25,4.28-4.3,7.63 15.24,88.82 30.52,177.65 45.83,266.46 2.41,13.75 5.78,28.27 1.65,42.03-1.61,6.35-6.64,11.29-12.79,13.32-8.85,1.88-18.25,1.28-26.33-3-14.52-6.91-28.41-15.07-42.81-22.23-70.94-37.46-142.07-74.56-212.96-112.09-3.1-1.68-6.91-3.81-10.14-1.09-84.35,44.33-168.7,88.64-253.02,133.02-8.4,4.79-18.21,7.09-27.87,6.15-5.95-.72-11.06-4.89-13.84-10.07-6.4-10-4.15-22.65-2.95-33.76 16.29-93.9 32.28-187.86 48.54-281.77-13.63-11.71-25.46-25.31-38.72-37.41-12.85-11.47-24.29-24.39-37.03-35.97-13.33-11.99-25.19-25.52-38.62-37.4-11.09-10.23-21.23-21.43-32.3-31.67-14.77-13.21-27.93-28.11-42.76-41.26-10.41-10.25-21.76-19.98-29.29-32.68-4.35-8.63-5.34-20.52 2.14-27.79 6.45-6.79 15.88-9.58 24.84-11.09 96.22-14.25 192.58-27.66 288.75-42.27 16.01-34.3 33.44-67.9 50.19-101.83 14.68-31.32 30.8-61.93 45.97-93.02 10.19-21.9 21.37-43.32 32.02-65 4.49-9.13 10.53-18.88 20.75-22.2m-45.74,238.21c-18.52,36.87-36.78,73.86-54.99,110.88-80.36,12.04-160.75,23.87-241.18,35.39 26.42,25.9 53.29,51.33 79.51,77.44 15.7,13.94 29.69,29.66 45.41,43.59 16.2,16.74 33.63,32.2 49.94,48.83-14.09,80.03-27.97,160.11-41.67,240.21 70.81-36.85 141.3-74.36 212.01-111.39 5.49-3.97 10.93,2.3 15.92,4.18 67.7,35.78 135.35,71.66 203.17,107.21-13.41-80.05-27.3-160.03-40.96-240.04 29.45-29.27 59.78-57.63 89.18-86.97 15.22-13.42 28.65-28.7 43.88-42.12 13.77-13.9 27.93-27.4 42.05-40.95-80.39-11.88-160.78-23.8-241.21-35.39-10.44-20.08-20.21-40.48-30.03-60.85-26.57-52.22-51.58-105.2-78.31-157.33-16.78,36.15-35.9,71.17-52.72,107.31Z"/>
</svg>
