<svg width="1280" xmlns="http://www.w3.org/2000/svg" height="1280" viewBox="0 0 1024 1024">
<path d="m222.34,76.34c5.65-7.66 17.17-2.94 21.87,3.43 131.08,130.92 262,262.02 393.05,392.97 7.26,7.44 15.55,14.22 20.71,23.41 .05-128.39 .05-256.79-.01-385.19-.77-14.79 8.47-29.2 22.01-35.02 9.46-4.04 20.01-2.77 30.03-3.05 20.01,.38 40.03-.27 60.04,.16 16.51,.96 31.75,14.42 33.58,31.07 .96,13.27 .26,26.59 .38,39.88 .02,256.68-.03,513.35 .02,770.03 .97,18.09-14.64,35.22-32.68,36.33-20.08,1.45-40.24,.3-60.34,.73-11.62-.41-24.41,1.24-34.72-5.39-8.61-5.89-16.53-14.45-17.58-25.31-1.42-13.42-.58-26.94-.71-40.39-.01-117.37 .07-234.74-.04-352.11-8.21,11.63-18.63,21.39-28.71,31.35-123.47,123.53-247.01,246.99-370.47,370.53-7.11,6.88-13.6,14.66-22.07,19.93-4.08,1.78-10,2.67-12.99-1.42-5.17-5.28-4.21-13.55-4.73-20.26-.02-273.34 .14-546.68-.08-820.02 .53-10.46-1.65-22.01 3.44-31.66Z"/>
</svg>
