<svg width="1280" xmlns="http://www.w3.org/2000/svg" height="1280" viewBox="0 0 1024 1024">
<path d="m788.21,73.22c3.31-1.72 7.88-1.86 10.62,.97 5.1,5.22 5.16,12.99 5.17,19.78 .03,278.35-.07,556.7 .05,835.05-.02,6.89 .22,14.76-4.75,20.26-3.03,2.3-7.42,2.24-10.97,1.36-8.62-5.08-15-13-22.09-19.88-125.97-126.03-252-252-377.99-378.01-7.91-8.12-16.64-15.54-23.21-24.86-.06,128.38-.1,256.76 .03,385.13 1.37,18.72-14.75,36.66-33.5,37.42-24.82,1.16-49.71,.56-74.55,.4-11.05,.4-21.77-4.58-28.84-13.01-7.49-7.07-9.44-17.94-9.19-27.8 .06-266.69-.07-533.38 .06-800.07-.8-18.04 14.08-35.08 32.06-36.6 19.94-1.08 39.93,.04 59.89-.44 10.69,.28 21.92-1.44 32.04,3.03 12.63,5.73 22.87,18.55 21.9,33.01 .14,129.03 .03,258.06 .05,387.09 8.41-12.4 19.88-22.15 30.26-32.8 122.98-123.02 246.02-245.98 368.98-369.02 7.61-7.39 14.53-15.84 23.98-21.01Z"/>
</svg>
