<svg width="1280" xmlns="http://www.w3.org/2000/svg" height="1280" viewBox="0 0 1024 1024">
<path d="m154.94,110.4c13.25-20.94 35.74-36.78 61.1-37.35 29.7-2.23 58.47,16.68 70.37,43.59 11.08,25.72 6.81,58.33-13.15,78.62-18.03,21.02-48.93,29.19-75.17,20.65-5.27-1.71-10.21-4.24-15.15-6.71 .11,69.93 .06,139.87 .03,209.8 .12,13.32-.62,26.73 1.12,39.99 3.45,20.34 12.05,39.79 25.03,55.87 19.47,24.96 46.43,43.49 75.57,55.44 28.88,11.59 60.4,15.21 91.32,14.63 35.36-1.53 70.73-11.12 100.77-30.15 18.25-11.87 35.5-25.98 48.1-43.92 14.08-19.3 22.98-42.79 23.05-66.84 .22-78.27-.06-156.55 .13-234.83-21.03,12.24-48.63,13.84-70.09,1.84-14.61-7.78-26.7-20.48-33.51-35.59-5.44-12.65-6.4-26.73-5.22-40.3 4.61-31.6 32.04-59.04 64.21-61.64 17.35-2.33 35.31,2.47 49.56,12.49 9.47,6.25 16.59,15.27 22.99,24.5 7.27,.15 15.1-1.62 21.98,1.55 7.48,2.73 13.77,8.25 18.05,14.92 6.54,10.05 5.34,22.65 5.98,34.03-.02,88.34 .01,176.68-.02,265.02-.43,18.68-.71,37.6-5.11,55.86-5.73,25.19-16.47,49.33-31.89,70.1-35.58,49.8-90.5,84.6-150,98.01-10.88,2.57-21.99,3.92-32.97,5.96 .04,26.69-.25,53.38 .1,80.06 .3,20.15 6.65,39.85 16.64,57.24 12.66,21 30.69,38.49 51.29,51.68 29.97,20.21 65.92,30.79 101.93,31.99 20.58,.51 41.47,.51 61.6-4.36 30.83-6.43 59.99-20.64 84.05-40.95 16.1-13.1 29.52-29.65 38.71-48.27 9.11-19.05 11.64-40.43 11.66-61.32-.02-71.98 .04-143.95-.03-215.93-29.55-11.64-55.01-34.79-66.35-64.78-7.21-17.05-7.48-35.97-6.31-54.14 4.14-37.07 29.93-69.86 63.4-85.43 32.07-14.01 70.99-12.78 101.21,5.36 22.68,13.76 41.26,35.36 48.98,60.97 10.35,32.26 5.44,69.53-14.86,96.95-12.72,18.73-31.84,32.45-52.84,40.49-.54,76.5 .05,153.01-.27,229.52-.2,38.92-13.09,77.52-35.83,109.07-34.66,47.48-86.35,81.9-143.06,96.97-62.2,15.4-129.74,13.16-189.13-11.95-34.53-14.38-65.42-36.84-91.1-63.91-15.98-17.85-29.86-37.9-38.74-60.24-10.41-24.53-14.37-51.44-14.13-77.96 .03-23.66 .17-47.31 .03-70.96-34.47-4.64-68.49-14.27-99.22-30.77-54.45-30.08-101.12-79.98-115.26-141.84-4.77-21.11-5.2-42.88-5.51-64.43 .05-88.34 .01-176.68 .01-265.02 .2-7.03 .05-14.43 3.02-20.97 4.01-10.51 13.15-18.96 23.97-22.05 6.24-1.13 12.65-.6 18.96-.56m641.49,256.09c-16.43,3.15-29.84,19.64-28.53,36.53-.27,20.04 19.4,38.06 39.42,35.39 17.96-1.03 33.44-17.54 33.57-35.48 .81-15.24-9.88-29.58-23.75-35.13-6.49-2.83-13.89-1.84-20.71-1.31Z"/>
</svg>
