<svg width="1280" xmlns="http://www.w3.org/2000/svg" height="1280" viewBox="0 0 1024 1024">
<path d="m103.43,73.57c14.82-1.17 29.71-.45 44.57-.57 255.01-.03 510.03,.05 765.04-.04 16.43-.89 31.89,11.07 36.29,26.7 1.68,6.98 1.54,14.2 1.73,21.33-.13,263.34-.03,526.69-.05,790.03 1.15,16.87-10.53,33.73-26.84,38.24-13.86,2.79-28.14,1.48-42.17,1.78-255.01-.06-510.01-.08-765.02,.01-9.25,.18-19.1-.61-26.9-6.14-5.77-4.54-11.58-9.75-14.35-16.74-2.33-5.73-2.59-12.06-2.74-18.14 .02-255.01 .01-510.02 .01-765.03 .11-13.29-.56-26.61 .35-39.88 1.35-15.64 14.61-29.37 30.08-31.55Z"/>
</svg>
