<svg width="1280" xmlns="http://www.w3.org/2000/svg" height="1280" viewBox="0 0 1024 1024">
<path d="m371.05,98.1c43-17.63 89.82-23.29 135.94-24.98 30.88-1.39 61.54,3.56 92.01,7.91 40.27,5.85 79.25,17.99 117.99,30.08 11.71,49.01 15.94,99.42 19.47,149.56 .33,16.07 2.3,32.75-2.5,48.38-7.97,2.67-16.28,1.17-24.42,.64-12.73-1.16-25.6-1.21-38.17-3.71-10.07-29.4-21.08-58.73-36.55-85.78-23.93-43.85-69.56-75.53-119.27-81.68-31.45-3.98-64.22-.88-93.6,11.4-32.04,13.45-59.43,40.77-68.05,75.02-3.8,16.36-5.62,33.77-1.1,50.19 5.44,24.18 20.78,44.81 38.05,62.01 19.09,16.85 42.09,28.51 65.2,38.8 28.39,12.09 57.69,21.96 87.27,30.72 23.6,6.8 46.67,15.3 69.38,24.62 29.98,12.11 59.54,25.76 86.72,43.4-138.48,.83-276.97-.07-415.45,.46-2.96-.68-7.82,1.11-9.84-2.25-22.57-29.21-39.01-63.18-48.09-98.97-17.2-68.66-.51-144.82 44.01-199.88 26.09-33.74 61.18-60.54 101-75.94Z"/>
<path d="m0,526.3c2.17-9.18 11.45-15.95 20.96-14.39 326.69,.21 653.39,.03 980.08,.09 5.18,.51 11.44-.48 15.77,3.2 3.22,3.01 5.75,6.82 7.19,11.01v44.55c-2.14,4.03-3.82,8.86-8.05,11.16-4.66,3.28-10.56,2.77-15.91,3.09-325.02,.03-650.05-.11-975.08,.07-4.97-.43-10.4,.46-14.95-2.11-5.4-1.96-7.67-7.47-10.01-12.2v-44.47Z"/>
<path d="m567.65,622.31c77.76-.7 155.53-.14 233.29-.29 5.08,38 5.44,76.92-2.33,114.59-5.72,27.93-14.11,55.7-28.5,80.47-12.39,19.94-27.96,38.14-46.77,52.29-30.34,23.77-63.4,44.52-99.39,58.59-29.84,12.02-61.86,17.49-93.77,20.33-42.61,3.38-85.67,3.72-128.05-2.48-30.42-4.55-59.54-14.79-89.13-22.81-22-6.74-44.85-11.35-65.72-21.28-5.74-2.46-10.04-8.2-9.11-14.72-.18-36.67-.86-73.34-2.03-109.99-.82-24.37 2.5-48.63 1.91-72.99 19.3-.03 38.64,.35 57.91-1.1 10.82,24.83 20.86,50 30.99,75.12 6.33,15.81 16.82,29.46 27.47,42.57 15.33,18.97 35.06,34.08 56.63,45.3 44.53,22.11 96.52,30.04 145.31,19.47 23.12-5.31 46.19-12.28 66.87-24.16 24.2-14.18 43.72-35.93 55.79-61.2 9.58-18.83 12.59-40.61 10.47-61.49-4.72-31.39-24.33-58.78-48.32-78.69-22.4-16.2-48.23-26.74-73.52-37.53Z"/>
</svg>
