<svg width="1280" xmlns="http://www.w3.org/2000/svg" height="1280" viewBox="0 0 1024 1024">
<path d="m76.01,182.01c52.62,0 105.24-.08 157.86,.04 24.2,39.81 48.46,79.57 72.73,119.33 7.16,11.67 13.33,23.91 20.46,35.59 2.19,3.42 4.05,7.04 5.58,10.79 .46,0 1.38-.01 1.84-.01 5.24-11.14 12.15-21.34 18.34-31.95 27.28-44.66 54.7-89.24 82.17-133.8 49-.01 98-.02 147,.01 .02,31.99 .03,63.98 0,95.97-23.96,.07-47.91-.07-71.87,.08-34.2,50.43-69.21,100.3-103.58,150.61-2.25,2.54 1.65,5.23 2.39,7.35 37.91,54.53 75.31,109.41 113.18,163.96 20.62,0 41.25,.05 61.88,.02 .02,31.66 .03,63.32 0,94.99-47.28-.01-94.56,.08-141.84-.05-23.58-38.03-47.79-75.66-71.5-113.61-8.25-13.12-16.85-26.03-24.42-39.56-5.05-9.23-11.27-17.79-15.71-27.35-10.94,24.94-26.35,47.44-40.52,70.58-22.72,36.64-45.45,73.28-68.16,109.92-49.28,.18-98.56,.05-147.83,.07-.02-31.66-.03-63.31-0-94.97 24.32-.07 48.64,.03 72.96-.04 36.97-53.81 73.18-108.15 110.16-161.94 .89-1.37 1.76-2.78 2.28-4.33-.7-2.9-3-5.17-4.32-7.75-33.68-49.12-66.9-98.57-100.52-147.74-26.18-.47-52.37-.11-78.56-.23-.03-31.99-.03-63.98 0-95.98Z"/>
<path d="m779.03,415.94c21.58-1.55 43.75-2.4 64.91,3 20.67,4.69 40.57,13.52 56.84,27.27 27.47,21.68 42.22,57.1 41.29,91.78 1.37,27.68-8.43,55.13-25.04,77.06-13.74,18.14-30.49,34.15-50.01,45.99-31.46,22.12-67.19,38.1-95.93,64.03-13.4,11.08-24.34,26.2-26.5,43.85 44.13,.18 88.26,.05 132.4,.07-.04-15 .05-29.99 .02-44.98 23.99-.03 47.99-.04 71.98,0 .02,39.33 .02,78.65 0,117.98-97.84-.14-195.69,.33-293.52-.23-3.17-25.58-6.46-52.08-.17-77.44 7.24-31.04 24.38-59.66 48.08-80.92 29.2-24.78 60.53-46.99 93.42-66.59 17.27-10.3 33.99-22.84 45.2-39.8 10.03-14.09 12.03-33.45 5.31-49.33-13.06-25.23-45.75-35.05-72.04-27.28-23.11,6.48-42.5,22.53-56.68,41.51-20.27-17.35-40.31-34.99-60.12-52.87 28.42-38.85 71.91-68.33 120.56-73.1Z"/>
</svg>
