<svg width="1280" xmlns="http://www.w3.org/2000/svg" height="1280" viewBox="0 0 1024 1024">
<path d="m319.12,81.18c11.9-8.04 27.09-7.81 40.87-8.2 103.34,.02 206.68,.06 310.02-.02 11.79-.09 23.99,1.74 34.35,7.67 14.22,9.37 26.37,24.66 26.43,42.39 .84,31.94-.4,63.91 .36,95.84 1.46,.27 4.39,.79 5.85,1.05 22.65,.46 45.32-.15 67.99,.11 .01,243.65 .03,487.31-.01,730.96-195.32,.03-390.64,.03-585.96,0-.03-243.65-.03-487.31 0-730.96 24.69-.38 49.4,.68 74.08-.5-.02-31.85-.34-63.7-.01-95.54-.09-17.68 11.54-33.61 26.03-42.8m46.89,65.83c-.04,24.32-.03,48.65-.01,72.97 97.33,.04 194.66,.02 291.99,.01 .04-24.33 .02-48.65 .01-72.97-97.33-.04-194.66-.02-291.99-.01Z"/>
<path d="m93.99,224.01c22.99-7.03 47.37-3.12 70.99-3.97 .04,243.65 .02,487.29 .01,730.93-23.35-.18-47.13,1.66-70.02-3.98-50.58-13.38-90.32-60.3-94.97-112.47v-497.9c3.06-29.36 15.47-58.07 37.15-78.47 15.44-16.26 35.12-28.39 56.84-34.14Z"/>
<path d="m859.02,220.03c26.18,.46 53.49-2.8 78.63,6.4 26.2,8.78 48.28,27.36 64.29,49.59 12.69,17.67 19.62,38.96 22.06,60.45v497.91c-2.77,24.18-11.2,47.87-26.82,66.81-18.71,23.43-45.08,41.4-74.72,47.32-20.84,4.45-42.32,1.93-63.44,2.45-.04-243.64-.03-487.28 0-730.93Z"/>
</svg>
