<svg width="1280" xmlns="http://www.w3.org/2000/svg" height="1280" viewBox="0 0 1024 1024">
<path d="m495.16,5.05c11.23-.08 22.46-.08 33.7-.01 34.03,46.09 67.07,92.9 101.21,138.91 54.17-18.14 108.77-34.98 163.01-52.91 5.97-1.85 12.99-3.42 18.55,.34 8.35,4.86 9.82,15.83 9.36,24.6 .11,55.33-.1,110.66 .05,165.99 37.31,13.19 75.24,24.53 112.65,37.45 18.03,5.94 36.29,11.27 54.12,17.82 11.02,2.74 15.6,17.77 9.01,26.64-7.57,12.18-16.54,23.42-24.89,35.05-26.01,36.04-52.29,71.88-78.19,107.99 34.41,47.06 68.47,94.39 102.79,141.52 6.1,8.33 3.75,22.73-6.33,26.73-42.46,15.09-85.62,28.17-128.28,42.7-13.51,4.77-27.33,8.57-40.85,13.3-.32,58.27 .25,116.55-.23,174.82 .37,11.98-12.63,22.33-24.11,17.37-55.92-17.47-111.45-36.21-167.41-53.55-33.42,46.99-67.63,93.42-101.38,140.17-5.56,9.26-19.44,12.19-27.65,4.71-7.6-7.9-13.03-17.56-19.84-26.11-28.39-39.73-57.61-78.88-85.77-118.77-55.65,17.4-111.03,35.64-166.54,53.44-6.62,2.13-14.58,1.61-19.45-3.94-6.02-5.28-5.34-14.08-5.71-21.28-.05-55.62 .14-111.23-.05-166.84-55.42-18.23-110.9-36.31-166.25-54.75-5.71-1.73-10.96-6.19-11.77-12.41-2.81-6.98 1.2-13.57 4.99-19.09 33.47-46.02 66.98-92 100.29-138.13-31.67-43.96-63.55-87.77-95.43-131.59-3.61-5.17-7.55-10.22-9.9-16.12-2.59-8.18 1.59-18.42 9.89-21.38 34.32-11.98 69.17-22.41 103.53-34.35 21.7-6.71 43.24-13.94 64.73-21.32 .06-56.69-.13-113.38 .04-170.07-.15-7.06 1.58-14.97 7.59-19.37 5.13-4.18 12.69-4.59 18.69-2.08 54.77,18.11 109.89,35.18 164.64,53.37 34.13-45.99 67.13-92.81 101.19-138.85m-8.75,173.48c-62.02,4.63-122.12,27.96-172.01,64.89-76.41,56.56-125.16,148.18-131.04,242.9-1.74,36.8 1.64,74.05 11.82,109.53 20.51,71.41 64.64,136.48 125.89,179.06 61.43,43.26 137.72,66.31 212.94,60.21 65.78-3.93 129.62-29.29 181.58-69.55 86.79-67.72 136.03-181.41 123.82-291.12-6.13-66.89-34.51-131.01-77.58-182.29-46.81-54.54-112.08-92.56-182.24-107.7-30.53-6.9-62.04-7.66-93.18-5.93Z"/>
</svg>
