<svg width="1280" xmlns="http://www.w3.org/2000/svg" height="1280" viewBox="0 0 1024 1024">
<path d="m791.99,116.03c42.12-2.9 87.31,8.48 117.37,39.62 28.66,27.96 37.43,71.38 30.1,109.75-4.71,25.92-18.55,49.53-36.73,68.33-11.9,11.35-25.59,20.54-38.92,30.09-22.67,16.09-46.34,30.72-70.43,44.58-22.42,14.32-45.14,33.86-49.74,61.52 44.45,.19 88.9,.01 133.36,.09-.01-15.01 .01-30.02 0-45.03 24,.04 48,.02 72.01,.01-.29,38.95 .45,77.92-.21,116.85-4.88,2.07-10.66,.7-15.79,1.29-92.65-.29-185.3-.05-277.95-.13-2.21-20.91-5.98-41.96-3.13-63.02 5.43-39.41 26.29-76.79 57.77-101.29 25.61-21.21 52.98-40.27 81.28-57.72 18.79-11.04 37.34-23.89 49.9-42.05 12.13-16.49 14.36-41.42 1.03-57.87-16.15-21.26-46.81-26.92-71.21-18.42-21.71,6.91-38.99,22.89-53.01,40.31-19.88-17.63-39.87-35.15-60.06-52.44 30.57-43.11 80.96-73.18 134.36-74.47Z"/>
<path d="m76.98,394.98c51.69,.19 103.39-.24 155.07,.12 2.51-.25 3.66,2.3 4.87,4.02 22.1,36.81 44.69,73.33 66.92,110.07 10.91,16.99 19.59,35.29 30.44,52.32 13.67-24.72 28.94-48.53 43.55-72.7 19.11-31.24 38.5-62.33 57.37-93.72 48.94-.22 97.88-.02 146.81-.1-.02,32.01-.03,64.02 .01,96.04-23.67-.14-47.33,.05-70.99-.02-35.38,50.75-70.26,101.84-105.41,152.74 29.51,41.81 58.12,84.26 87.32,126.29 9.87,14.22 19.9,28.35 29.38,42.84 20.89,.01 41.8,.31 62.7,.07-.03,31.69-.05,63.38 0,95.08-47.36-.04-94.72-.06-142.08,0-22.23-34.83-44.07-69.9-66.21-104.77-11.7-18.71-23.93-37.11-34.51-56.49-3.96-6.12-6.69-13.18-11.65-18.56-5.14,9.44-8.96,19.57-14.69,28.71-30.9,50.42-62.52,100.42-93.28,150.92-49.21,.36-98.41,.05-147.62,.17 .03-31.68 .04-63.35 0-95.02 24.3,.08 48.6-.03 72.9-.03 37.38-55.67 75.33-110.96 112.53-166.75-35.29-51.62-70.34-103.41-105.41-155.18-26.01-.03-52.01-.06-78.02-.03 .03-32.01 .03-64.01 0-96.02Z"/>
</svg>
