<svg width="1280" xmlns="http://www.w3.org/2000/svg" height="1280" viewBox="0 0 1024 1024">
<path d="m263.39,110.47c14.85-1.01 29.74-.36 44.61-.47 146.67-.03 293.34,.06 440.01-.05 33.68-1.52 65.79,19.12 81.88,48.13 9.37,15.84 11.17,34.87 11.15,52.91-.08,193.34-.04,386.67-.02,580.01-.27,20.92 1.81,42.6-5.45,62.7-11.13,30.67-39.44,55.53-72.24,59.6-19.36,2.21-38.89,1.69-58.33,1.71-140-.03-280.01,.01-420.01-.02-14.75-.05-29.82-.77-43.72-6.2-21.69-8.76-40.23-25.56-50.25-46.79-9.19-17.8-8.47-38.55-9.04-58 .04-196.67 .01-393.34 .02-590.01 .11-9.14 .16-18.36 1.51-27.43 6.04-39.12 40.33-72.32 79.88-76.09m7.02,73.07c-8.18,1.19-15.01,9.06-14.26,17.46-.37,181.67-.02,363.36-.17,545.03-2.53,10.94 6.54,22.93 17.98,21.92 158.35,.08 316.72,.1 475.08-.01 9.88,.99 18.89-8.02 17.9-17.9 .17-181.68-.02-363.38 .09-545.07-.6-4.26 .59-9.21-2-12.98-4.19-6.64-12.34-9.88-20-9.06-143.35,.16-286.69,.02-430.03,.07-14.86,.16-29.76-.68-44.59,.54m236,621.87c-17.61,2-32.23,18.75-31.4,36.54-.13,19.29 17.61,36.84 36.96,35.96 10.86,.09 21.56-5.19 28.11-13.85 9.51-11.22 10.62-28.58 2.9-41.03-7.25-12.44-22.18-20.21-36.57-17.62Z"/>
</svg>
