<svg width="1280" xmlns="http://www.w3.org/2000/svg" height="1280" viewBox="0 0 1024 1024">
<path d="m128.44,109.55c6.51-.34 13.03-.53 19.56-.56 245,.02 490,.01 735.01,.01 16.14,.04 32.8,.58 47.85,7.1 28.56,12.26 51.61,39.24 55.42,70.57 2.11,19.7 1.76,39.54 1.74,59.33-.1,190 .1,380.01-.1,570.01 .11,19.21-3.42,39.29-14.51,55.37-9.41,14.04-22.12,26.19-37.42,33.59-13.74,7.26-29.66,9.09-44.98,9.05-255.01-.04-510.02-.01-765.03-.02-34.39,.3-66.52-22.27-81.17-52.82-8.98-17.94-8.25-38.66-8.82-58.18 .01-188.33 .03-376.67-.01-565 .1-16.63-.48-33.31 1.27-49.87 3.87-30.93 25.56-58.4 53.78-71.08 11.6-5.64 24.7-6.91 37.41-7.5m-6.03,147.01c-7.97,1.57-13.05,9.5-12.33,17.4-.38,33.35 .18,66.7-.2,100.05 .48,6.94-1.21,14.83 3.24,20.85 3.5,5.54 10.58,7.66 16.85,7.14 56.68,.09 113.36-.13 170.04,.09 6.97-.52 14.77,.99 20.96-3.13 6.73-3.9 8.74-12.7 8.14-19.94-.23-33.35 0-66.7-.1-100.05-.46-5.04 .47-10.87-2.77-15.21-3.44-4.34-8.44-7.98-14.2-7.78-53.35-.07-106.69,.15-160.04-.04-9.86,.02-19.76-.38-29.59,.62m293-.02c-7.64,1.16-12.82,9.09-13.33,16.43-.35,33.34 .11,66.69-.17,100.04 .54,6.26-.84,13.15 2.09,19 2.91,7.32 11.55,10.62 18.97,10.01 56.68,.04 113.36-.13 170.04,.07 5.35-.2 10.81,.04 16.12-.96 7.62-2 13.15-10.2 11.92-18.1-.05-35.02-.03-70.04-.02-105.06-.48-5.04 .63-10.81-3.04-14.97-3.51-6.16-11.5-7.5-17.96-7.13-58.36,.28-116.71,.04-175.06,.12-2.39,.14-7.17,.41-9.56,.55m292,.02c-7.97,1.57-13.06,9.5-12.33,17.4-.19,36.69-.15,73.39-.02,110.08-.84,9.02 6.94,17.61 15.91,17.87 55,.33 110.02-.14 165.03,.18 8.44-.05 16.94,.25 25.35-.79 7.97-1.73 13.61-10.23 12.69-18.25-.02-35.03-.02-70.06-.02-105.08 .38-6.74-.59-15.18-7-18.99-5.81-4.19-13.38-2.52-20.01-3.08-46.67,.17-93.34,.09-140.01,.09-13.2,.11-26.43-.64-39.59,.57m-582.98,219.01c-8.68,.85-15.66,9.7-14.47,18.38 .03,35.03 .01,70.05 .03,105.08 .38,5.2-.47,11.42 3.33,15.67 3.29,3.42 7.69,6.46 12.64,6.34 58.34,.04 116.7-.2 175.05,.08 6.26-.58 13.23,1.08 18.98-2.15 5.67-2.6 8.93-8.86 9-14.93 .18-33.35-.14-66.71 .1-100.05-.56-6.29 .84-13.15-2.09-19-2.75-6.98-10.84-10.4-17.97-9.93-53.34-.26-106.69,.14-160.03-.15-8.19,.01-16.41-.13-24.57,.66m291.98-.03c-9.22,1.19-15.17,10.57-14.35,19.43 .06,36.64-.55,73.31 .29,109.93-.02,8.56 7.96,16.64 16.65,15.93 58.33,.5 116.68-.08 175.01,.26 7.4-.71 16.72,1.63 22.32-4.76 6.79-5.83 4.24-15.56 4.8-23.33-.41-33.35 .16-66.7-.19-100.04 .79-8.68-6.37-17.16-15.08-17.61-19.94-.97-39.91-.1-59.86-.35-43.19,.42-86.43-.82-129.59,.54m293.02,.03c-8.68,.85-15.67,9.7-14.47,18.38 .03,35.03 0,70.05 .03,105.08 .21,5.61-.4,12.56 4.31,16.7 5.7,6.84 14.93,4.91 22.69,5.37 56.68-.23 113.36-.02 170.04-.09 5.6-.25 12.57,.42 16.69-4.31 7.17-5.97 4.97-15.63 5.4-23.69-.36-33.35 .15-66.71-.18-100.05 1.14-10.76-9.84-19.01-19.92-17.87-53.34-.33-106.68,.13-160.02-.18-8.2,.01-16.42-.13-24.57,.66m-587.01,220c-7.76,1.27-13.29,9.72-12.39,17.4-.07,36.68-.13,73.38 .03,110.07-1.15,10.76 9.84,19.01 19.92,17.87 55,.33 110.01-.14 165.02,.2 7.02-.2 14.18,.28 21.13-.97 7.78-1.74 12.69-9.48 12.88-17.1 .13-33.35-.14-66.71 .08-100.05-.39-7.88 1.24-17.75-5.52-23.56-5.61-5.69-14.37-4.08-21.56-4.53-46.67,.16-93.34,.09-140.01,.09-13.19,.09-26.42-.62-39.58,.58m292.01,.04c-7.14,1.8-12.27,9.09-12.27,16.38-.55,33.33 .09,66.68-.25,100.02 .51,6.96-.99,14.77 3.13,20.96 3.89,6.73 12.69,8.73 19.94,8.14 58.35-.3 116.71,.06 175.06-.16 7.16,.3 15.66-1.93 18.91-8.98 2.97-4.44 1.78-9.99 2.17-14.95-.34-35.02 .12-70.05-.18-105.06 1.17-9.36-7.7-17.9-16.95-16.79-54.99-.53-109.99,.11-164.99-.27-8.19,.02-16.42-.23-24.57,.71m292.99-.04c-7.76,1.27-13.3,9.72-12.39,17.4-.07,36.68-.14,73.38 .03,110.07-1.15,10.76 9.84,19.01 19.92,17.87 56.67,.29 113.35-.07 170.03,.16 6.56-.53 13.72,.67 19.9-2.18 5.88-3.31 10.12-9.9 9.13-16.84-.03-35.03-.01-70.06-.03-105.08-.47-5.03 .48-10.83-2.87-15.08-3.41-4.17-8.55-7.39-14.14-6.74-54.99-.48-110,.12-165-.24-8.21,0-16.43-.2-24.58,.66Z"/>
</svg>
