<svg width="1280" xmlns="http://www.w3.org/2000/svg" height="1280" viewBox="0 0 1024 1024">
<path d="m143.44,79.56c13.16-1.05 26.37-.51 39.56-.57 66.67-.01 133.33,.08 200-.05 29.58-1.49 58.43,7.87 84.98,20.11 19.51,8.89 37.13,21.56 52.27,36.69 127.99,128.02 256.01,256 384,384.01 12.9,13.21 28.02,25.27 35.08,42.93 6.18,16.82 7.89,36.04 1.25,53.01-3.38,10.45-9.98,19.51-17.79,27.1-13.87,13.8-27.93,27.42-41.06,41.94-79.47,79.53-158.96,159.04-238.51,238.5-26.3,27.27-75.28,29.2-101.98,1.54-136.97-137.03-273.99-274.02-410.99-411.01-21.9-22.21-35.33-51.14-44.55-80.57-4.2-15.36-6.86-31.21-6.7-47.18-.01-78.34 .02-156.69-.02-235.03-.21-35.25 29.46-67.82 64.46-71.42m106.99,109.99c-34.85,4.45-63.54,38.25-61.52,73.46-.31,23.26 12.04,45.87 31.21,58.83 25.4,18.74 63.57,17.29 87.59-3.14 17.89-14.38 29.15-37.54 27.09-60.65-.36-27.06-18.46-52-42.81-63.01-12.75-6.51-27.57-7.23-41.56-5.49Z"/>
</svg>
