<svg width="1280" xmlns="http://www.w3.org/2000/svg" height="1280" viewBox="0 0 1024 1024">
<path d="m0,88.88c10.91-6.23 23.28-10.36 35.97-9.93 78.35,.12 156.71,0 235.06,.06 18.07-.23 35.99,3.23 53.14,8.78 27.83,9.49 55.16,22.88 76.1,43.94 127.95,128.05 256.01,255.99 383.97,384.03 10.97,10.68 23.17,20.39 31.73,33.26 15.87,21.64 17.34,52.37 4.99,75.97-6.85,13.22-18.48,22.79-28.71,33.26-84.49,84.51-169.02,168.98-253.48,253.52-9.44,9.29-18.33,19.87-30.73,25.3-26.5,13.68-61.54,8.76-82.8-12.31-77.48-77.52-154.99-155.01-232.49-232.51-34.8-35.2-70.49-69.53-104.48-105.52-20.54-20.46-41.01-40.99-61.52-61.48-9.25-9.27-18.96-18.21-26.75-28.79v-407.58m135.46,100.62c-35.61,4.07-64.36,38.74-62.25,74.42 .31,19.2 8.68,38.03 22.96,50.92 22.4,22.69 60.64,26.66 87.59,9.91 22.45-13.37 37.46-39.35 35.36-65.77 .39-32.15-25.01-61.25-55.74-68.5-9.09-2.48-18.65-1.56-27.92-.98Z"/>
<path d="m377.79,79.08c37.74-.19 75.49-.06 113.24-.07 27.41-.39 54.14,7.79 78.84,19.13 18,8.6 35.53,19.06 49.42,33.57 29.91,30.09 59.99,60.01 89.95,90.05 29.48,27.5 57.31,56.69 86.01,84.99 76.25,76.24 152.48,152.51 228.75,228.73v109.95c-47.11,47.74-95.39,94.35-141.73,142.84-40.04,39.96-80.03,79.97-120.01,119.99-9.7,9.65-19.06,20.04-31.04,26.93-15.16,8.83-33.56,11.53-50.73,8.28-20.36-3.13-35.81-18.56-49.76-32.47 83.94-84.48 168.39-168.46 252.52-252.75 9.12-9.52 19.63-17.99 26.77-29.22 10.84-16.5 12.02-37.46 8.34-56.38-3.52-13.66-11.01-26.1-21.09-35.92-97.54-97.46-195.03-194.97-292.5-292.5-40.25-38.06-78.53-78.13-118.07-116.91-8.26-8-17.81-14.52-27.73-20.27-24.99-14.32-52.61-24.09-81.18-27.97Z"/>
</svg>
