<svg width="1280" xmlns="http://www.w3.org/2000/svg" height="1280" viewBox="0 0 1024 1024">
<path d="m13.91,117.9c7.56-6.8 18.29-8.06 28.06-7.96 313.36,.1 626.72,.11 940.08-.01 7.44,.14 15.26,.43 22.03,3.96 10.38,5.18 17.07,15.62 19.92,26.61v158.01c-2.62,9.53-7.97,18.61-15.95,24.57-10.14,7.26-23.22,6.55-35.03,6.93-310.01-.04-620.02,.03-930.03-.04-10.09,.16-20.72-1.59-28.67-8.31-7.6-5.56-11.98-14.28-14.32-23.19v-157.97c2.36-8.62 6.68-17.08 13.91-22.6m717.12,65.13c-.09,24.3-.08,48.61 .01,72.92 73.31,.1 146.62,.06 219.93,.02 .08-24.31 .07-48.62-.01-72.92-73.31-.1-146.62-.06-219.93-.02Z"/>
<path d="m21.07,406.13c8.19-4.42 17.91-3.93 26.91-4.19 308.35,.13 616.7,.03 925.04,.05 10.62,.56 22.31-.49 31.9,5.12 10.03,5.3 16.32,15.66 19.08,26.4v157.99c-2.85,10.99-9.54,21.43-19.92,26.61-6.77,3.53-14.59,3.81-22.03,3.96-303.35-.15-606.7-.05-910.05-.05-14.66-.25-29.46,1.08-44.02-1.1-14.42-2.79-24.6-15.7-27.98-29.42v-157.94c2.47-11.71 10.14-22.27 21.07-27.43m344.96,69.9c-.08,24.3-.08,48.61 .01,72.92 194.98,.09 389.96,.05 584.93,.02 .08-24.31 .07-48.62-.01-72.92-194.98-.09-389.96-.05-584.93-.02Z"/>
<path d="m28.29,696.02c16.13-2.18 32.49-.72 48.71-1.02 301.68-.04 603.37,.09 905.05-.07 7.44,.13 15.26,.42 22.03,3.96 10.38,5.18 17.07,15.62 19.92,26.61v157.99c-2.76,10.74-9.05,21.1-19.08,26.4-9.59,5.61-21.28,4.55-31.9,5.12-310.01-.04-620.02,.03-930.03-.04-10.78,.26-22.22-1.97-30.25-9.7-6.82-5.46-10.74-13.51-12.74-21.83v-157.94c3.39-13.83 13.73-26.82 28.29-29.48m556.74,72.01c-.09,24.3-.07,48.62 0,72.93 121.98,.07 243.96,.05 365.94,.01 .08-24.31 .06-48.62 0-72.93-121.98-.08-243.96-.05-365.94-.01Z"/>
</svg>
