<svg width="1280" xmlns="http://www.w3.org/2000/svg" height="1280" viewBox="0 0 1024 1024">
<path d="m70.24,214.23c4.84-4.15 9.7-9.94 16.8-9.27 6.79-1.06 12.12,4.13 16.72,8.28 84.5,84.49 168.94,169.06 253.53,253.47 6.39,6.82 15.35,12.91 15.63,23.3-.74,10.17-9.87,15.94-16.13,22.78-86.08,85.93-172.06,171.96-258.02,258-4.92,4.67-13.12,5.72-19.05,2.46-7.09-5.13-12.72-11.94-18.98-18-6.02-6.29-12.79-11.91-18.25-18.72-5.05-7.8-1.71-17.6 4.73-23.3 74.4-74.39 148.9-148.67 223.13-223.23-74.56-74.9-149.42-149.49-224.12-224.25-3.75-3.95-6.62-9.14-6.19-14.78-.17-5.74 4.36-10.09 7.74-14.17 7.31-7.7 14.92-15.1 22.46-22.57Z"/>
<path d="m411.45,746.64c14.8-1.43 29.7-.45 44.55-.64 165-.07 330,.14 495-.11 8.98,.3 19.16-1.74 26.88,4.25 7.36,7.73 5.55,19.19 6.26,28.85-.36,9.65 .85,19.75-2.02,29.12-3.26,9.12-13.4,11.91-22.09,10.9-180.02,.03-360.04-.1-540.06,.06-9.78,1.32-20.91-5.06-21.37-15.64-1.15-13.67-1.05-27.46-.21-41.13 .27-7.34 5.89-14.19 13.06-15.66Z"/>
</svg>
