<svg width="1280" xmlns="http://www.w3.org/2000/svg" height="1280" viewBox="0 0 1024 1024">
<path d="m73,75.05c15.23,.29 30.46-.73 45.67-.42 8.37,2.38 15.48,7.77 23.28,11.47 9.32,5.61 20.61,4.83 31.08,5.57 30.99,.27 61.96,1.86 92.97,1.33 30.67-.53 61.45,1.39 92.04-1.55 46.98-1.42 93.97-.21 140.96-.45 98.33,.01 196.67-.01 295,0 27.34,.09 54.69-.47 82.02,.8 8.67,1.11 17.58-1.92 23.83-7.97 3.69-2.87 6.67-6.73 10.76-9.1 12.95-1.56 26.05-.74 39.07-.5 .8,51.92 0,103.85 .38,155.78 .37,16.47 1.45,32.95 .6,49.44-1.17,16.43 .58,33.1-2.76,49.35-12.51,4.87-25.57,8.09-38.75,10.44-12.88-22.98-22.04-47.78-30.63-72.62-8.68-26.71-12.35-54.68-16.86-82.31-.77-11.18-12.03-19.11-22.67-19.28-23.6-2.02-47.35-.81-71-.91-42.96,1.9-85.98,.17-128.96,1.15-17.86,.99-35.87,.03-53.58,3-1.95,24.55-4.87,49.07-4.5,73.73 .13,19.99-.25,39.98 .36,59.97 1.77,39.65-.49,79.38 1.6,119.02 .3,61.68-.1,123.35 .14,185.03-.13,11.94 3.23,23.48 5.92,35 16.81,8.02 34.24,14.98 52.6,18.5 17.41,4.77 34.56,10.46 52.07,14.87 11.94,2.99 23.68,6.86 34.83,12.12 1.85,14.97 3.61,30.13 1.38,45.18-29.3,.71-58.64,.58-87.89-1.41-20.96-1.02-41.69-4.59-62.64-5.63-69.03-3.81-138.33-4.06-207.28,1.54-26.02,1.45-51.85,5.36-77.92,5.93-.54-9.86-1.46-19.71-1.56-29.58-1.3-6.7 4.47-11.21 8.65-15.31 10.08-8.76 22.73-13.99 35.47-17.56 27.29-7.67 54.72-15.02 81.49-24.39 4.35-1.97 10.18-3.25 11.8-8.33 3.64-10.48 4.62-21.64 5.41-32.62 1.23-23.76 1.6-47.55 1.84-71.34 1.72-30.96 .08-61.98 1.09-92.96 1.13-24 .68-48.03 .68-72.04 .14-12.07-2.95-23.9-2.85-35.97-.61-51.9 .82-103.84-1.59-155.7-.59-3.14-1.61-6.55-4.59-8.29-6.82-4.22-15.33-3.21-22.91-4.3-37.79-2.13-75.79-3.12-113.5,.7-35.09,3.47-70.26,6.84-104.98,13.1-8.47,2.09-18.48,2.46-25.05,9-7.2,8.33-10.71,19-13.73,29.39-6.94,22.18-11.37,45.06-18.54,67.18-3.09,11.88-7.81,24.52-18.28,31.86-2.79,2.17-6.88,5.3-10.37,2.54-10.53-6.72-21.93-13.36-29.26-23.68-.84-72.9-.08-145.85-.34-218.77Z"/>
<path d="m196.82,734.72c7.25-2.39 16.27,1.01 19.22,8.25 3.16,5.08 2.6,11.29 2.94,17 .24,15-.02,30.01 .01,45.03 195.34,0 390.68,0 586.02-.01 .09-16.68-.35-33.35 .08-50.02-.39-8.42 3.81-17.9 12.54-20.37 7.82-2.13 15.28,2.03 21.51,6.27 29.84,23.16 59.56,46.47 89.48,69.52 6.51,5.07 13.11,10.66 16.78,18.24 3.6,9.31 3.72,20.55-1.52,29.3-3.83,6.91-10.43,11.66-16.44,16.54-29.13,22.51-58.07,45.28-87.23,67.74-6.79,5.21-16.89,10.7-25.23,5.8-5.56-2.15-8.36-8.14-9.35-13.65-1.4-18.42-.4-36.91-.62-55.36-195.34,0-390.68,0-586.02,.01-.11,16.65 .42,33.32-.18,49.98 .22,5.65-1.78,11.21-5.14,15.69-5.35,5.9-14.48,6.2-21.28,2.87-6.78-3.59-12.72-8.47-18.75-13.15-27.42-21.64-55.14-42.87-82.62-64.42-8.95-6.77-16.06-17.2-14.91-28.93-.37-11.23 6.89-20.94 15.3-27.61 27.56-21.46 55.19-42.83 82.7-64.35 7.05-5.48 14.07-11.63 22.71-14.37Z"/>
</svg>
