<svg width="1280" xmlns="http://www.w3.org/2000/svg" height="1280" viewBox="0 0 1024 1024">
<path d="m690.03,75.24c13.26-3.51 27.36-2.55 40.96-1.47 .13,46.75-.19,93.5 .13,140.24 1.4,34.27 1.35,68.61-.47,102.86-.37,3.71-.85,7.42-1.49,11.09-12.57,4.92-25.64,8.63-39.06,10.27-11.98-20.83-20.13-43.51-28.39-65.98-10.32-28.58-13.91-58.94-19.2-88.7-.3-9.26-8.31-15.75-16.4-18.61-17.23-2.75-34.75-1.82-52.1-1.15-24.95,.7-49.91-.36-74.85,.6-19.72,1.02-39.58-.3-59.16,2.73-5.48,44.73-6.08,89.89-4.09,134.87 .27,98.34-.09,196.68 .17,295.02 1.95,43.07 .15,86.2 1.32,129.29-.6,32.23-.55,64.47-.26,96.71-.03,12.52 3.03,24.73 6,36.8 13.98,6.2 27.95,12.68 42.94,16.14 20.56,4.73 40.53,11.67 60.95,16.93 12.07,3.02 23.82,7.15 35.34,11.83 2.11,15 3.44,30.21 1.93,45.35-27.09,2.15-54.25,.36-81.34-.75-26.4-1.03-52.51-5.62-78.92-6.6-39.31-2.41-78.69-1.59-118.04-1.74-52.84,.04-105.26,7.61-157.97,10.13-.64-11.65-1.66-23.33-.81-34.98 .62-2.86 3.13-4.84 4.91-6.98 10.73-11.51 25.96-17.13 40.69-21.44 26.99-7.61 54.19-14.66 80.6-24.15 3.99-1.64 9.12-2.94 10.54-7.6 5.23-15.74 5.85-32.53 6.3-48.95 3.05-85.64 3.19-171.33 2.51-257-1.7-32.33 .12-64.71-1.41-97.04-.96-29.97 .38-59.98-1.19-89.95-.38-51.67-.13-103.34-.1-155.01-.27-12.95 1.2-26.34-3.26-38.79-7.8-6.85-19.24-5.07-28.77-6.46-36.84-1.29-74.38-4.86-110.66,3.62-17,3.85-34.51,7.1-50.28,14.85-11.05,5.29-14.61,18.01-18.31,28.62-8.58,27.26-14.29,55.35-23.36,82.46-3.18,9.7-9.32,18.64-18.07,24.11-1.93,1.14-4.46,2.17-6.55,.78-9.54-5.46-18.34-12.2-26.63-19.38-4.04-3.36-2.77-9.21-3.22-13.78 .21-69.9-.26-139.8 .25-209.69 15.17-.25 30.39-1.17 45.53,.21 11.24,3.6 20.82,11.1 32.11,14.57 18.23,2.87 36.78,1.43 55.14,2.66 41.67,.54 83.34,.04 125.01,.26 14.39,.33 28.61-2.36 43-2.09 108.33,.13 216.67-.02 325,.07 12.66-.06 25.31,1.42 37.97,.82 10.34-1.07 17.41-9.53 25.06-15.6Z"/>
<path d="m888.97,87.93c10.07-12.27 29.67-15.95 42.99-6.87 7.32,4.22 11.92,11.5 17.05,17.95 20.99,27 41.98,54 63.02,80.97 5.72,7.66 12.29,16.43 9.68,26.72-2.23,6.41-8.44,11.04-15.15,11.68-18.38,1.41-36.84,.17-55.24,.93-.74,80.22-.11,160.46-.32,240.69 .15,114.9-.29,229.8 .21,344.69 18.44,.76 36.93-.48 55.36,.91 5.66,.61 10.83,4.13 14.02,8.78 2.53,6.2 2.07,13.88-1.74,19.52-5.39,9.01-12.35,16.93-18.73,25.24-18.08,23.24-36.18,46.46-54.21,69.74-4.63,5.67-8.96,12.11-15.87,15.2-13.32,7.55-31.43,3.72-41.1-8-23.78-30.25-47.25-60.75-70.97-91.06-4.84-6.56-10.94-13.36-10.93-22.07-1.43-8.95 7.02-16.48 15.39-17.34 18.48-1.38 37.04-.36 55.56-.61 .02-195.33 .01-390.67 0-586-18.28-.22-36.58,.62-54.83-.42-8.6-.77-17.57-8.26-16.13-17.53 .11-10.44 8.4-18.05 14.06-25.93 22.7-29.01 45.19-58.18 67.88-87.19Z"/>
</svg>
