<svg width="1280" xmlns="http://www.w3.org/2000/svg" height="1280" viewBox="0 0 1024 1024">
<path d="m31.38,114.41c12.77-5.55 26.97-5.44 40.61-5.48 48.34,.1 96.68,.13 145.02-.01 13.43,.03 27.13,.09 40.14,3.87 19.66,7.26 34.22,26.67 35.39,47.69 1.27,27.14 .02,54.35 .52,81.52-.34,16.87 1.21,34.18-3.46,50.62-7.35,21.26-29,36.76-51.57,36.4-56.68,.06-113.36-.14-170.04,.07-7.94-.26-16.01,.19-23.86-1.27-22.8-3.69-40.35-23.97-44.13-46.27v-124.02c2.91-18.27 14.54-35.12 31.38-43.12Z"/>
<path d="m394.09,116.15c10.38-6.44 23.04-6.77 34.89-7.15 173.34-.04 346.69,.07 520.03-.05 10.71,.1 21.52,.09 32.12,1.97 22.51,3.85 39.54,24.47 42.87,46.5v124.06c-4,26.61-28.68,48.86-55.97,47.53-180.02,.02-360.04-.07-540.05,.04-5.68-.21-11.4-.09-17.02-.97-25.06-3.68-45.96-27.52-45.03-53.05 .27-38.34-.32-76.68 .26-115.01 .37-18.4 12.17-35.05 27.9-43.87Z"/>
<path d="m0,449.53c3.68-24.48 24.93-45.91 50-47.32 56.66-.64 113.34,.1 170-.3 13.04,.3 26.62-.94 39.01,4.05 12.98,5.45 23.37,16.16 29.24,28.86 4.71,10.7 4.54,22.71 4.8,34.16 .08,23.34-.17,46.68 .03,70.02-.15,15.75 .78,31.88-3.84,47.17-5.78,14.77-18.2,26.44-32.82,32.32-8.12,2.96-16.93,2.46-25.41,2.64-56.68-.22-113.36-.2-170.03,0-8.18-.1-16.47-.4-24.38-2.67-19.34-6.61-33.67-24.78-36.6-44.88v-124.05Z"/>
<path d="m368.29,439.33c6.86-20.65 26.79-36.38 48.68-37.33 181.68-.04 363.37,.07 545.05-.06 13.41-.24 28.11,1.4 38.84,10.25 12.41,8.65 20.65,22.44 23.14,37.29v123.98c-2.71,18.15-14.17,34.78-30.98,42.54-8.47,4.92-18.51,4.96-27.99,5.04-180.02-.04-360.04-.11-540.06,.03-9.61,.12-19.47-.64-28.31-4.73-18.25-9.03-31.53-28.63-30.78-49.31 .05-31.68 .28-63.36-.01-95.03 .2-10.89-.48-22.06 2.42-32.67Z"/>
<path d="m0,742.54c3.35-25.78 26.49-48.09 52.96-47.58 58.35-.05 116.7,.2 175.05-.09 8.97,.19 18.14-.11 26.92,2.15 12.67,4.25 23.16,13.55 30.43,24.62 8.94,15.13 7.48,33.5 7.73,50.36-.62,30.68 .95,61.43-.87,92.08-1.23,27.8-27.55,51.23-55.19,49.97-58.35-.05-116.7-.08-175.05,.01-13.42,.23-28.11-1.4-38.84-10.25-12.41-8.66-20.65-22.44-23.14-37.29v-123.98Z"/>
<path d="m394.1,701.16c8.56-5.38 19.03-6.18 28.88-6.25 181.69,.19 363.38,.06 545.07,.06 27.62-2.11 52.34,20.76 55.95,47.45v124.05c-3.71,24.84-25.54,46.39-50.98,47.42-181.67,.32-363.36-.08-545.04,.2-6.89-.25-13.87,.03-20.59-1.72-23.66-4.92-42.28-28.12-41.46-52.34-.04-33.35 .24-66.69-.07-100.04 .21-9.48-.47-19.25 2.77-28.33 3.76-13.15 14-23.6 25.47-30.5Z"/>
</svg>
