<svg width="1280" xmlns="http://www.w3.org/2000/svg" height="1280" viewBox="0 0 1024 1024">
<path d="m100.43,110.55c6.51-.46 13.04-.67 19.57-.62 93.34,.13 186.68,.08 280.02,.02 38.93-2.13 75.95,32.88 74.97,72.03 .08,73.34-.08,146.69 .07,220.03 1.47,28.5-17.82,55.03-42.74,67.31-14.14,6.39-30.09,6.71-45.32,6.73-90-.09-180.01-.06-270.01-.01-10.91,.15-22.01-.95-32.32-4.7-17.82-6.82-32.62-20.78-41.23-37.73-7.36-14.34-6.8-30.94-7.41-46.6-.11-63.34 .05-126.68-.07-190.01 .03-15.56 .42-32 8.05-46 10.91-21.34 32.28-37.86 56.42-40.45Z"/>
<path d="m612.43,110.55c6.51-.46 13.03-.67 19.57-.62 93.34,.13 186.68,.08 280.02,.02 38.93-2.13 75.95,32.88 74.97,72.03 0,75.01 .07,150.03-.03,225.04 .07,15.09-6.83,29.32-15.98,40.95-10.39,12.68-24.68,23.01-41.09,25.86-11.79,2.49-23.93,2.07-35.89,2.23-91.66-.29-183.32,.27-274.97-.27-31.11-.88-59.61-24.14-67.97-53.88-3.17-14.73-2.89-29.93-3.1-44.91 .15-63.34-.1-126.68 .11-190.01 .19-15.52 3.46-31.41 12.76-44.16 11.77-17.2 30.63-30.08 51.6-32.28Z"/>
<path d="m99.42,549.59c14.83-1.23 29.72-.47 44.58-.59 85-.06 170,.12 255-.09 39.35-2.94 77.26,32.41 75.95,72.07 .17,73.34-.07,146.69 .11,220.03 1.53,30.04-19.94,58.02-47.21,68.86-14.62,5.39-30.53,4.68-45.85,5.16-90.29-.21-180.58,.28-270.87-.25-29.63,.71-57.79-18.78-69.18-45.8-5.92-13.52-5.36-28.55-5.91-42.97-.13-63.34 .04-126.68-.08-190.01 .08-14.83 .29-30.46 7.08-44 10.34-22.11 31.9-39.35 56.38-42.41Z"/>
<path d="m611.42,549.59c11.49-1.04 23.05-.6 34.58-.63 91.67,.14 183.35-.08 275.02,.09 27.45,2.13 51.66,22.02 61.8,47.21 3.7,9.46 4.35,19.67 4.22,29.73-.05,71.67-.09,143.35 .02,215.02 1.53,30.04-19.94,58.02-47.21,68.86-14.62,5.39-30.54,4.68-45.85,5.16-90.29-.21-180.59,.28-270.87-.25-29.63,.71-57.79-18.78-69.18-45.8-5.92-13.52-5.36-28.55-5.91-42.97-.14-63.34 .04-126.68-.08-190.01 .08-14.83 .29-30.46 7.08-44 10.34-22.11 31.9-39.35 56.38-42.41Z"/>
</svg>
