<svg width="1280" xmlns="http://www.w3.org/2000/svg" height="1280" viewBox="0 0 1024 1024">
<path d="m31.38,114.4c12.77-5.54 26.97-5.43 40.61-5.47 48.34,.1 96.68,.13 145.02-.01 13.43,.04 27.13,.08 40.13,3.87 19.67,7.26 34.23,26.67 35.4,47.68 1.27,27.15 .02,54.36 .52,81.53-.34,16.87 1.21,34.18-3.46,50.62-7.35,21.26-29,36.76-51.57,36.4-56.68,.06-113.36-.14-170.04,.07-7.94-.26-16.01,.19-23.85-1.27-22.81-3.69-40.37-23.97-44.14-46.27v-124.02c2.91-18.27 14.54-35.12 31.38-43.13Z"/>
<path d="m421.39,109.37c54.86-.91 109.74-.05 164.61-.42 15.79,.11 33.38-.35 46.93,9.13 9.9,6.4 17.82,15.88 21.91,26.98 4.16,11.53 2.95,23.94 3.24,35.94-.27,31.67 .13,63.34-.13,95.01 .48,21.73-15.16,41.16-34.62,49.32-10.65,4.05-22.15,3.63-33.33,3.74-56.67-.16-113.35-.02-170.02-.05-20.42,.27-40.65-12.26-49.05-30.98-6.1-12.04-5.49-25.94-5.93-39.03 .03-30.34-.13-60.68 .07-91.01 .78-11.21 1.96-23.02 8.35-32.61 7.05-9.62 16.05-18.42 27.44-22.61 6.62-2.17 13.61-2.89 20.53-3.41Z"/>
<path d="m767.59,112.54c10.2-2.75 20.84-3.72 31.39-3.6 48.34,.06 96.68,.12 145.02-.01 12.38,.1 24.88-.15 37.13,1.99 22.51,3.85 39.54,24.47 42.87,46.5v124.05c-3.84,24.44-24.91,45.91-50.05,47.26-54.98,.78-109.97-.1-164.95,.37-12.64-.21-25.49,.66-37.91-2.16-21.7-6.17-38.92-26.6-39.64-49.42-1.2-30.49-.03-61.02-.55-91.52 .19-17.58-1.01-37.3 9.68-52.41 6.72-9.37 16.04-17.23 27.01-21.05Z"/>
<path d="m0,449.54c3.67-24.49 24.93-45.91 50-47.33 56.66-.64 113.34,.1 170-.3 13.04,.3 26.62-.93 39.01,4.05 12.98,5.45 23.37,16.16 29.24,28.85 5.35,12.29 4.51,26.1 4.83,39.18-.23,28.34 .16,56.69-.15,85.03-.5,12.19-.94,25.44-8.14,35.83-6.29,10.59-16.44,18.5-27.64,23.35-8.29,3.28-17.42,2.75-26.14,2.93-56.68-.22-113.36-.19-170.03,0-8.18-.1-16.47-.39-24.38-2.67-19.34-6.61-33.67-24.78-36.6-44.88v-124.04Z"/>
<path d="m413.43,402.53c63.17-1.27 126.4-.13 189.59-.57 23.21-.71 45.68,15.52 52.46,37.69 3.26,9.09 2.38,18.88 2.61,28.35-.28,33.34 .1,66.68-.12,100.02 .43,27.25-23.55,52.55-50.94,52.9-63.34,.19-126.71,.05-190.06,.07-21.14,.37-39.71-15.4-47.91-34.07-4.42-13.13-3.91-27.26-4.11-40.92 .16-28.34-.11-56.68 .11-85.01 .52-11.69 2.07-24.13 9-33.93 8.77-13.31 23.36-22.99 39.37-24.53Z"/>
<path d="m731.78,451.92c1.23-27.81 27.55-51.23 55.19-49.97 58.35,.05 116.7,.08 175.05-.01 13.41-.24 28.11,1.4 38.84,10.25 12.41,8.65 20.65,22.44 23.14,37.29v123.98c-3.36,25.78-26.48,48.08-52.95,47.59-58.36,.03-116.71-.21-175.06,.08-8.99-.22-18.15,.12-26.92-2.15-13.16-4.4-24.05-14.12-31.11-25.93-8.32-14.87-6.73-32.68-7.05-49.05 .61-30.69-.95-61.43 .87-92.08Z"/>
<path d="m0,742.54c3.35-25.78 26.49-48.09 52.96-47.58 58.35-.05 116.7,.2 175.05-.09 8.97,.19 18.14-.12 26.92,2.15 12.67,4.25 23.16,13.55 30.43,24.62 8.94,15.13 7.48,33.5 7.73,50.36-.62,30.68 .95,61.43-.87,92.08-1.23,27.81-27.55,51.23-55.19,49.97-58.35-.06-116.7-.08-175.05,.01-13.42,.24-28.11-1.4-38.84-10.25-12.41-8.66-20.65-22.44-23.14-37.29v-123.98Z"/>
<path d="m410.41,695.59c13.16-1.19 26.39-.51 39.59-.6 51.68,.01 103.35,.05 155.03-.07 21.93-.43 42.1,15.03 49.82,35.14 3.63,9.91 3.05,20.56 3.23,30.94-.2,33.34 .01,66.68-.05,100.03 .12,23.41-17.46,45.18-39.93,51.06-8.86,2.2-18.06,1.83-27.1,1.99-56.67-.19-113.35-.04-170.02-.05-25.57,.98-50.67-18.96-54.38-44.47-2.15-15.09-1.54-30.38-1.63-45.56 .18-23.67-.19-47.34 .1-71 .79-11.42 1.86-23.52 8.92-33.02 8.33-12.21 21.3-22.73 36.42-24.39Z"/>
<path d="m764.03,699.07c8.87-4.62 19.27-4.07 28.96-4.2 56.68,.21 113.35,.19 170.03,0 8.16,.08 16.46,.38 24.38,2.67 19.34,6.61 33.67,24.78 36.6,44.88v124.04c-3.71,24.85-25.54,46.4-50.98,47.43-63.32,.11-126.66,.4-189.97-.15-27.02-.22-50.8-24.44-51.53-51.27-1.31-26.8-.12-53.65-.58-80.47 .24-13.92-.78-27.99 1.53-41.78 1.77-18.24 15.58-33.41 31.56-41.15Z"/>
</svg>
