<svg width="1280" xmlns="http://www.w3.org/2000/svg" height="1280" viewBox="0 0 1024 1024">
<path d="m306.05,40.12c12.25-3.83 25.25-3.66 37.94-4.1 113.34-.04 226.68-.03 340.02-.01 15.1-.21 30.77,1.39 44.22,8.77 15.28,8.59 27.89,22.23 34.6,38.48 5.15,15.35 7.15,32.52 1.54,48.06-4.12,14.68-14.43,26.55-25.76,36.28-12.22,10.24-28,14.16-43.53,15.64-.16,97.16-.1,194.31-.03,291.46 21.57,.67 43.01,7.25 60.93,19.34 23.8,15.51 42.42,37.83 57.06,61.93 14.07,24.03 23.71,50.88 26.3,78.7 .71,11.14 3.2,22.72 .07,33.7-4.45,13.44-16.9,24.89-31.44,25.66-7.95,.96-15.99,.88-23.97,1.01-74.96-.05-149.93-.09-224.89,.01-9.11,86.85-18.42,173.68-27.45,260.54-.96,7.34-.83,15.17-4.19,21.95-5.36,11.06-22.73,13.18-30.26,3.26-5.15-7.88-4.66-17.75-6.46-26.65-13.71-86.35-26.76-172.8-40.85-259.08-76.58-.35-153.17,.34-229.74-.32-18.9,.45-37.09-15.5-37.39-34.71-1.23-34.14 7.8-68.25 24.03-98.18 17.14-29.55 39.72-57.37 70.29-73.74 15.74-8.96 33.93-12.31 51.83-13.44 .15-97.11 .11-194.22 .02-291.33-11.35-.82-22.82-2.96-32.94-8.36-15.66-8.43-28.54-22.18-35.38-38.65-4.68-11.78-5.39-24.69-4.38-37.2 3.92-26.88 24.21-50.33 49.81-59.02m127.38,143.33c-9.62,1.48-14.2,12.74-13.39,21.51-.17,80.01 .1,160.04-.12,240.05 .41,8.48-1.18,18.81 5.76,25.31 5.06,5.63 13.51,5.5 20.27,3.65 8.01-3.31 12.03-12.62 11.12-20.94-.16-81.69-.02-163.37-.07-245.06-.03-6.96-.05-15.18-5.68-20.29-4.44-5.07-11.73-5.32-17.89-4.23Z"/>
</svg>
