<svg width="1280" xmlns="http://www.w3.org/2000/svg" height="1280" viewBox="0 0 1024 1024">
<path d="m594.8,84.79c6.41-7.01 15.6-11.74 25.23-11.61 23.27-1.19 46.71,3.47 68.08,12.66 13.57,5.57 25.79,14.69 34.51,26.53 10.66,14.84 19.52,31.44 22.14,49.76 6.1,34.58 8,70.79-1.75,104.88-6.27,27.61-20.33,52.5-33.92,77.04-3.51,6.63-5.56,13.9-8,20.97 51.64,.06 103.28-.18 154.92,.08 20.55,.2 41.57,4.56 58.96,15.95 18.88,11.76 34.64,28.63 44.23,48.77 14.6,31.77 12.44,69.83-2.27,101.16-4.38,10.01-11.58,18.32-17.39,27.48-2.67,2.75 .05,6.6 .39,9.55 11.36,35.15 7.78,75.84-13.29,106.67-1.83,3.03-4.86,6.04-4.12,9.91 1.31,8.44 3.72,16.74 3.51,25.39 1.38,18.37-2.81,36.64-9.3,53.71-4.28,10.4-9.53,20.56-17.05,29.01-2.6,3.33-5.9,6.17-7.95,9.9-1.75,15.69 .35,31.72-2.92,47.27-4.06,20.84-12.9,40.94-26.87,57.05-11.28,13.96-26.78,23.78-43.05,30.96-26.13,10.95-54.88,13.02-82.89,13.16-37.91-.24-76.06,1.47-113.68-4.32-31.58-4.93-62.88-11.75-93.67-20.28-28.68-9.11-57.41-18.11-85.74-28.3-21.71-7.21-43.42-14.75-65.95-19-8.24-1.29-16.69-1.76-24.62-4.55-12.25-4.75-21.82-16.47-22.98-29.7-.84-11.62-.35-23.27-.38-34.89 .1-111.67-.09-223.35 .08-335.02-.81-18.44 15.29-34.55 33.1-36.64 6.11-.99 11.9-3.61 16.78-7.4 17.05-12.44 30.43-28.98 44.38-44.63 33.97-38.56 62.8-81.44 98.4-118.59 12.78-12.67 19.79-29.72 25.68-46.42 8.43-26.06 11.4-53.43 18.05-79.93 5.99-20.46 14.68-40.79 29.35-56.58Z"/>
<path d="m83.44,439.65c8.16-.86 16.37-.74 24.56-.75 48.34,.24 96.68,.03 145.02,.07 20.83-2.47 41.47,16.86 38.96,38.01 0,121.68 .1,243.38-.04,365.06 .36,14.16-9.35,27.37-22.27,32.58-10.79,3.86-22.41,3.27-33.67,3.45-45-.19-90.01,.04-135.02-.1-7.64-.53-15.82,.34-22.97-2.97-7.47-2.79-13.71-8.35-18.04-14.95-6.67-10.01-5.3-22.69-5.97-34.04-.04-113.34 .06-226.68-.04-340.03-.25-12.03 1.23-25.18 9.43-34.62 5.46-5.48 12.17-10.63 20.05-11.71m76.99,291.78c-8.47,.56-16.31,4.84-22.27,10.72-14.38,13.39-13.74,38.9 .56,52.13 10.67,10.62 27.77,12.53 41.32,6.8 12.19-6.58 22.18-19.61 20.87-34.05 .33-20.63-20.18-38.44-40.48-35.6Z"/>
</svg>
