<svg width="1280" xmlns="http://www.w3.org/2000/svg" height="1280" viewBox="0 0 1024 1024">
<path d="m538.43,44.53c52.92-9.6 106.98-8.92 160.54-8.29 28.74,.47 57.93,5.3 84.03,17.76 25.77,11.58 48.56,30.15 64.37,53.63 13.15,19.31 20.78,42.02 23.97,65.05 1.79,11.59 1.26,23.42 3.31,34.99 6.34,11.49 14.47,22.03 19.46,34.27 12.17,27.71 15.78,58.8 12.38,88.75-.59,5.4 3.17,9.87 5.18,14.54 12.62,24.7 16.89,52.95 16.08,80.46-.1,10.64-4.59,20.91-3.79,31.53 8.42,15.21 16.87,30.72 20.98,47.79 6.92,28.15 8.58,58.43-.54,86.29-7.26,24.19-22.05,45.58-40.17,62.93-16.77,15.83-36.95,28.45-59.23,34.77-17.48,5.2-35.9,5.82-54,6.03-28.99,.01-57.97-.08-86.95-.03 14.41,30.82 25.08,63.84 26.73,98.03 1.05,30.62-.47,61.8-9.39,91.31-8.87,31.39-28.28,60.51-56.45,77.61-30.08,18.42-66.01,25.52-100.96,25.08-10.82,.11-21.39-3.24-30.97-8.07-19.97-10.83-34.14-29.94-44.07-49.93-8.58-17.94-14.92-37.02-18.19-56.66-3.57-23.84-7.94-47.83-16.85-70.33-6.32-16.67-20.7-27.85-31.75-41.2-28.62-32.63-53.39-68.38-81.75-101.23-10.52-12.1-20.8-24.58-33.12-34.93-3.55-3.31-8.86-2.28-13.25-2.71-48.34-.11-96.7,.27-145.04-.1-12.61-.12-25.33-2.51-36.6-8.31-18.18-9.88-32.45-27.32-37.43-47.52-1.76-7.88-1.82-16.01-1.98-24.03 .02-120.01 .06-240.02-.02-360.03-.46-28.09 17.71-54.54 42.89-66.18 15.74-6.98 33.31-6.48 50.15-6.82 46.67,.02 93.34,0 140.01,.08 12.46,.74 24.31-3.41 36.08-6.84 64.96-20.74 129.11-45.05 196.34-57.69m-92.16,99.83c-33.8,11.14-66.74,25.09-101.4,33.49-16.96,4.11-34.43,5.67-51.86,5.32-.02,121.55-.02,243.1 .01,364.65 10.11,.36 20.53-.46 30.28,2.82 17.95,5.18 31.49,18.91 44.89,31.17 16.35,15.07 30.46,32.3 44.42,49.54 26.2,33.38 51.2,67.78 80.09,98.95 15.15,15.89 26.23,35.44 32.67,56.4 8.33,27.36 14.52,55.31 20.61,83.23 3.36,15.97 9.56,31.58 20.1,44.21 21.22-.77 44.16-2.18 61.93-15.14 10.33-6.69 16.14-18.26 20.59-29.36 8.62-24.18 10.61-50.35 8.71-75.8-4.02-33.98-19.42-65.03-33.34-95.81-10.33-24.45-20.41-49.89-20.86-76.77 67.64-.66 135.28-.01 202.91-.29 22.67,.75 43.44-12.66 56.8-30.15 8.43-11.1 14.55-24.64 14.25-38.81 1.11-21.75-7.24-42.63-18.03-61.04-5.07-8.71-14.12-14.14-23.75-16.35 4.34-6.04 8.36-12.4 11.02-19.38 5.89-15.61 10.37-32.41 7.74-49.22-1.88-22.33-13.73-42.44-29.28-58.07 4.13-8.59 7.97-17.43 9.21-26.97 3.1-23.43-3.65-47.65-16.97-67.01-4.83-7.23-12.08-12.19-18.94-17.27 2.29-16.5 2.68-33.25 1.2-49.85-2.2-18.7-9.21-37.79-23.47-50.65-12.92-13.13-30.72-19.9-48.38-23.73-14.87-3.58-30.29-2.28-45.42-2.51-26.66,.31-53.32-.44-79.97,.31-53.26,3.74-105.1,17.86-155.76,34.09m-270.83,39.14c-10.19,1.71-19.23,8.7-24.38,17.54-8.39,13.41-5.81,32.39 5.57,43.32 10.34,11.66 28.61,15.01 42.34,7.58 11.26-5.89 20.24-17.9 20.03-30.94 2.33-22.62-21.42-43.11-43.56-37.5Z"/>
</svg>
