<svg width="1280" xmlns="http://www.w3.org/2000/svg" height="1280" viewBox="0 0 1024 1024">
<path d="m529.73,41.85c24.99-2.13 50.19-.17 75.27-.93 11.52,.57 23.92-1.86 34.74,3.26 25.52,9.59 48.52,26.72 63.31,49.79 21.87,32.91 26.88,73.41 27.96,112.02 1.87,40.91-9.64,81.29-27.23,117.91 33.4,.24 66.81,.05 100.22,.05 24.23-.69 48.43,5.86 69.62,17.47 21.44,12.32 39.65,29.98 53.76,50.21 31.22,46.06 29.95,109.31 3.39,157.22-2.84,5.86-8.43,11.14-6.86,18.25 2.7,16.46 5.42,33.25 3.35,49.96-2,22.35-8.79,44.15-19.33,63.95-2.93,5.18-.86,11.28-.71,16.82 2.49,28.41-3,57.44-15.22,83.18-4.49,10.27-11.34,19.19-16.94,28.83-2.63,9.84-1.62,20.16-3.01,30.2-3.22,25.95-11.78,51.56-26.99,73.01-12.93,19.23-31.19,34.33-51.15,45.82-28.73,16.28-62.13,22.79-94.9,23.13-26.67,.09-53.34-.08-80.01,.04-36.04,.35-72-4.58-106.99-13.07-42.78-10.5-84.82-23.83-126.34-38.49-19.36-6.7-38.85-13.05-58.59-18.5-11.69-3.6-24.02-2.95-36.08-3.06-45,.21-90-.06-135,.17-8.73-.1-17.62,.51-26.14-1.82-19.66-3.87-36.46-17.52-46.84-34.3-8.33-12.55-10.17-28.25-10.07-42.96 .05-118.34 .14-236.68-.04-355.01-.62-15.68 2.75-32.11 12.08-44.99 10.22-15.21 25.96-27.17 44.06-31.03 9.14-2.21 18.62-1.91 27.95-2.06 45.01,.16 90.01,0 135.02,.17 4.27-.69 9.49,1.05 13.2-1.87 18.17-14.81 32.77-33.35 47.78-51.22 22.88-28.15 44.29-57.49 68.13-84.86 7.69-9.27 16.03-17.99 23.78-27.22 7.22-8.56 10.59-19.5 13.88-29.99 4.17-16.03 6.74-32.42 10.71-48.5 7.33-29.09 13.51-59.65 31.64-84.34 7.9-10.41 16.54-21.51 28.59-27.24m36.37,63.02c-12.44,13.75-17.91,31.96-21.5,49.74-4.69,22.99-10.48,45.74-16.69,68.37-4.38,16.16-10.47,32.05-19.92,45.99-7.49,11.58-17.45,21.22-26.32,31.71-17.68,20.75-35.08,41.76-51.24,63.73-16.98,21.88-33.87,43.94-53.21,63.82-16.03,14.49-31.18,31.3-51.84,39.2-10.34,3.93-21.58,2.35-32.36,2.68-.04,121.94-.03,243.87-.01,365.81 13.83,.02 27.77-.12 41.38,2.7 33.05,6.17 64.15,19.39 95.92,29.98 46.9,16.13 94.87,29.81 144.01,37.04 33.66,5.07 67.78,2.9 101.68,3.41 18.38,.21 36.97-.12 55-4.15 18.2-3.89 36.14-12.05 48.6-26.27 8.38-9.99 14.55-21.94 17.42-34.69 5.59-20.36 2.59-41.69 .99-62.4 18.24-10.73 29.38-30.4 34.01-50.6 5.77-20.27 1.96-42.27-7.21-60.95 14.51-14.46 26.01-32.71 28.93-53.29 3.6-25.52-3.7-51.85-18.1-73.01 10.8-2.09 19.83-9.34 25.13-18.91 12-21.49 20.53-46.74 14.73-71.48-8.33-31.63-39.21-57.3-72.48-56.27-66.71-.14-133.43,.08-200.14-.07 1.98-34.79 16.49-67 30.93-98.14 10.87-23.94 20.53-48.9 23.87-75.13 .91-24.51-.91-49.51-8.37-73.01-5.15-13.74-13.03-27.44-26.4-34.59-17.18-9.58-37.47-11.6-56.81-11.22m-390.66,658.64c-10.19,1.72-18.95,8.96-24.45,17.46-8.32,13.47-6.05,32.6 5.68,43.36 12.57,14.86 37.66,15.32 51.13,1.46 10.74-9.59 14.1-25.51 9.4-38.92-6.22-16.28-24.27-27.44-41.76-23.36Z"/>
</svg>
