<svg width="1280" xmlns="http://www.w3.org/2000/svg" height="1280" viewBox="0 0 1024 1024">
<path d="m536.06,95.11c47.69-12.23 96.45-22.62 145.94-22.16 21.66,.08 43.33,.04 65,0 28.48-.28 57.67,4.52 83.01,18.05 32.56,17.19 54.74,51.15 59.51,87.44 2.33,13.99 .76,28.26 1.82,42.34 9.87,11.5 19.69,23.49 25.02,37.89 11.04,26.42 12.22,56.07 5.82,83.8 21.12,26.77 27.92,62.73 22.32,95.96-1.45,7.55-4.08,14.8-5.82,22.28-1.1,4.23 3.35,7.14 5.17,10.43 14.8,18.14 22.68,41.14 24.58,64.3 6.51,49.02-25.7,98.38-71.19,115.87-13.11,5.1-27.24,6.88-41.23,6.71-51.76,.06-103.52-.18-155.27,.08 3.59,12.15 9.43,23.4 15.75,34.32 8.52,17.54 17.75,34.88 23.4,53.64 12.29,38.08 12.57,79.31 4.48,118.29-3.97,19.96-14.1,38.38-27.41,53.62-19.18,19.75-46.88,28.49-73.63,31.34-12.98,.52-27.64,4.44-39.27-3.4-16.29-10.37-25-28.47-32.37-45.59-8.48-19.63-10.55-41.08-15.21-61.74-2.95-12.6-5.15-25.42-9.36-37.69-3.37-8.76-6.74-17.57-11.15-25.88-6.65-12.48-17.29-21.97-26.6-32.36-29.5-33.41-55.05-70.06-84.5-103.51-14.9-17.01-29.46-34.74-47.88-48.12-8.18-6.02-19.14-5.43-27.99-10.02-12.23-5.95-20.41-19.32-19.95-32.96-.16-120.02 .06-240.04-.11-360.06 0-7.39 .25-15.38 4.2-21.89 6.01-10.02 16.28-18.47 28.28-19.43 25.12-2.09 48.99-10.8 72.88-18.26 33.77-11.53 67.44-23.44 101.76-33.29Z"/>
<path d="m86.4,146.52c51.5-1.33 103.07-.03 154.6-.61 9.61,.56 20.05-1.38 29,3.12 9.92,4.54 18.45,13.03 21.07,23.86 1.99,9.9 1.8,20.05 1.97,30.11-.08,110-.05,220.01-.01,330.01-.26,8.1 .06,16.37-1.63,24.36-4.19,15.84-19.75,28.23-36.36,27.57-55.02,.15-110.05,.04-165.07,.05-13.71-.42-26.61-9.4-32.02-21.95-2.84-6.28-2.94-13.28-3.03-20.01 .22-120.02-.05-240.05 .13-360.07-.8-17.75 13.68-34.68 31.35-36.44m74.04,72.93c-17.79,1.11-32.74,17.88-32.4,35.57-1.27,20.82 19.1,40.25 39.92,36.88 10.36,.08 19.4-6.51 25.67-14.24 7.81-9.46 9.46-23.21 5.27-34.59-5.43-15.33-22.3-25.88-38.46-23.62Z"/>
</svg>
