<svg width="1280" xmlns="http://www.w3.org/2000/svg" height="1280" viewBox="0 0 1024 1024">
<path d="m609.44,31.53c15.01-1.53 31.04-.93 44.6,6.42 12.91,6.02 22.29,16.97 32.22,26.79 19.24,19.46 38.87,38.55 57.97,58.16-11.81,13.43-22.77,28.51-27.22,46.1-8.83,31.32-4.52,66.78 14.28,93.72 11.82,16.17 27.15,30.22 45.56,38.48 34.65,15.09 77.34,12.23 108.29-10.08 5.16-3.88 10.07-8.09 14.94-12.34 21.54,20.83 42.19,42.56 63.81,63.31 9.04,7.76 16.79,17.06 22.39,27.6 12.44,26.8 8.15,61.3-13.05,82.54-130.46,130.53-260.97,261.03-391.5,391.5-39.91,42.06-81.75,82.25-122.45,123.55-11.71,12.41-26.64,22.85-43.93,25.09-12.12,1.05-24.77,1.71-36.46-2.25-10.19-3.46-19.69-9.05-27.15-16.86-24.28-24.42-48.81-48.6-72.97-73.14 15.03-15.17 25.9-34.67 29.62-55.78 1.92-11.32 1.9-22.88 1.5-34.3-3.57-38.55-30.29-73.14-65.49-88.52-33.09-13.74-73.21-11.43-103.31,8.59-6.4,4.24-12.04,9.49-18.06,14.25-22.96-22.5-45.46-45.48-68.31-68.08-11.02-10.61-19.99-24.1-22.61-39.39-3.76-17.77-1.33-37.08 8-52.8 5.86-9.83 14.73-17.25 22.64-25.35 169-169 338.02-337.97 506.98-507.01 10.64-10.79 24.58-18.34 39.71-20.2m-33.01,164.95c-7.85,1.29-14.62,6.31-20.19,11.76-108.46,108.54-217.03,216.97-325.47,325.53-8.36,9.31-17.24,18.1-25.99,27.02-12.01,11.33-12.93,31.58-3.15,44.57 5.39,6.89 12.01,12.67 18.12,18.89 64.51,64.49 129,129 193.5,193.51 13.08,13.6 37.34,13.37 50.52,.01 117.45-117.55 235.01-235 352.48-352.53 9.54-8.78 14.19-22.6 10.79-35.28-1.7-8.01-7.01-14.67-12.76-20.24-68.1-67.91-135.97-136.05-204.07-203.95-8.76-8.85-21.81-11.46-33.78-9.29Z"/>
<path d="m584.35,258.1c60.44,59.96 120.56,120.25 180.65,180.57-109.19,108.69-217.81,217.95-326.98,326.66-60.27-59.95-120.38-120.07-180.34-180.32 108.69-109.17 217.87-217.86 326.67-326.91Z"/>
</svg>
