<svg width="1280" xmlns="http://www.w3.org/2000/svg" height="1280" viewBox="0 0 1024 1024">
<path d="m292.85,173.82c9.67-1.25 19.76-1.72 29.22,1.13 8.58,2.86 16.19,8.07 22.68,14.29 55.77,55.67 111.32,111.57 167.24,167.08 57-56.44 113.37-113.52 170.32-169.99 14.1-13.76 36.08-16.37 54.4-11.04 13,4.27 22.68,14.48 32.07,23.93 20.95,21.05 41.94,42.06 63.02,62.99 11.72,10.98 20.41,26.23 19.29,42.79 .99,15.75-6.74,30.57-17.81,41.27-55.26,55.02-110.16,110.4-165.55,165.29 22.81,24.39 47.13,47.35 70.52,71.19 31.52,31.48 62.96,63.04 94.54,94.46 9.94,9.71 17.89,22.55 18.13,36.83 1.5,15.11-3.06,31.02-14.15,41.72-24.48,24.52-49.09,48.91-73.47,73.54-8.06,8.58-17.28,17.01-28.95,20.09-14.39,3.13-30.51,2.59-43.27-5.47-7.98-4.78-14.37-11.61-20.86-18.14-52.5-52.78-105.4-105.15-157.78-158.05-24.39,22.81-47.35,47.13-71.19,70.52-31.48,31.52-63.04,62.96-94.46,94.54-8.69,8.77-19.68,16.24-32.2,17.7-10.52,1.07-21.81,1.09-31.57-3.53-8.42-3.6-15.34-9.85-21.79-16.18-22.98-23.03-45.94-46.07-69.03-68.99-6.94-6.68-12.92-14.61-16.42-23.64-6.09-18.85-3.48-41.89 11.05-56.32 56.29-56.8 113.2-113.01 169.49-169.82-56.47-56.97-113.46-113.44-170.05-170.29-18.67-20.47-18.14-55.27 1.55-74.9 24.77-25.22 50.06-49.94 74.88-75.13 8.2-8.45 18.44-15.54 30.15-17.87Z"/>
</svg>
