<svg width="1280" xmlns="http://www.w3.org/2000/svg" height="1280" viewBox="0 0 1024 1024">
<path d="m490.45,73.49c74.81-3.98 150.76,11.4 217.57,45.47 73.14,36.5 136.06,93.65 178.27,163.76 36.63,58.6 58.14,126.35 62.89,195.26 2.06,39.85 1.6,80.23-6.72,119.42-14.14,74.38-49.26,144.24-98.49,201.57-45.74,53.36-104.91,94.73-169.96,121.05-67.42,27.34-141.8,35.03-213.87,27.79-108.26-11.91-210.48-67.18-281.38-149.57-41.71-49.22-73.53-107.18-90.45-169.55-23.08-86.79-20.63-180.74 9.94-265.4 32.62-90.39 95.43-169.88 176.76-221.27 63.87-41.87 139.24-65.16 215.44-68.53m4,128.09c-88.55,3.69-173.88,48.98-227.86,119.02-29.87,38.18-50.87,83.35-60.05,130.98-6.61,32.85-6.98,66.75-2.98,99.96 8.14,71.46 43.73,138.83 96.22,187.68 51.02,47.7 118.42,77.96 188.26,82.54 22.77,.52 45.7,1.1 68.28-2.42 39.67-5.34 78.33-18.74 112.65-39.38 84.6-48.66 143.32-139.67 152.17-236.95 3.06-40.23 .34-81.19-11.09-120.02-21.04-70.08-67.42-132.42-129.04-171.99-54.57-36.23-121.24-53.7-186.56-49.42Z"/>
<path d="m409.27,322.27c3.6-3.9 9.36-4.85 14.41-3.97 5,1.3 9.01,4.84 12.63,8.38 25.03,25.2 50.11,50.35 75.32,75.36 24.35-24.79 49.17-49.11 73.55-73.86 5.21-4.93 10.99-10.93 18.86-10.14 6.14,.04 11.07,4.63 15.27,8.64 26.84,27.16 54.02,53.99 80.92,81.09 6.81,6.8 6.86,19.43-.61,25.87-25.62,26.6-52.57,51.93-78,78.71 24.95,24.39 49.32,49.36 74.2,73.84 4.07,4.52 10.1,8.9 9.26,15.86 1.4,7.92-4.89,14.03-9.78,19.24-25.08,24.93-50.06,49.96-75.02,75-4.66,4.48-10.26,9.61-17.28,8.85-5.64,1.16-10.04-2.89-13.78-6.35-25.73-25.72-51.32-51.59-77.21-77.15-22.39,22.07-44.52,44.39-66.73,66.64-5.93,5.74-11.24,12.58-18.9,16.13-4.09,.42-8.8,1.71-12.73-.06-7.61-4.87-13.55-11.78-19.92-18.08-22.94-23.07-46.01-46-69-69.01-5.75-4.97-8.67-13.82-5.37-20.93 5.14-8.58 12.96-15.02 19.88-22.09 20.93-20.96 41.98-41.81 62.79-62.88-25.74-25.4-51.19-51.07-76.79-76.61-5.91-5.05-9.42-14.04-5.85-21.4 4.68-7.71 11.49-13.81 17.84-20.12 24.87-22.76 47.91-47.42 72.04-70.96Z"/>
</svg>
