<svg width="1280" xmlns="http://www.w3.org/2000/svg" height="1280" viewBox="0 0 1024 1024">
<path d="m508.44,91.45c11.37-1.43 22.39,3.43 31.89,9.22 9.35,5.81 16.19,15.1 19.21,25.65 15.01,49.7 37.01,96.99 61.45,142.69 36.67,72.02 84.39,137.55 130.04,203.99 29.3,41.34 47.74,90.48 51.75,141.06 5.82,60.64-7.12,123.5-39.21,175.55-36.15,58.71-92.03,106.01-157.65,128.2-33.74,11.07-69.46,15.6-104.9,14.35-43.44-.58-86.67-11.8-125.04-32.12-27.52-14.47-52.15-33.99-74.08-55.93-26.61-27.75-49.29-59.91-63.06-95.98-13.56-33.29-19.03-69.35-19.84-105.12-1.11-55.88 15.92-111.41 45.32-158.7 39.37-57.84 80.76-114.49 115.82-175.13 32.59-58.23 63.77-117.91 83.07-182.05 5.8-19.77 24.97-33.95 45.23-35.68m-73.99,485.03c-5.77,.81-7.73,7.04-9.2,11.78-9.98,31.07-29.89,57.47-47.65,84.37-15.06,21.85-16.45,52.19-3.57,75.36 13.13,24.88 41.73,40.97 69.92,37.85 27.2-.93 51.62-20.24 62.24-44.71 8.15-21.14 6.96-46.66-5.5-65.93-12.95-20.69-28.26-40.02-38.75-62.17-5.09-9.82-8.9-20.2-12.47-30.63-2.25-5.7-9.5-7.78-15.02-5.92Z"/>
</svg>
