<svg width="1280" xmlns="http://www.w3.org/2000/svg" height="1280" viewBox="0 0 1024 1024">
<path d="m357.31,103.29c16.03-17.85 39.26-30.49 63.67-30.27 60.01-.09 120.02,.03 180.04-.04 21.55-.9 42.03,9.22 58.03,22.96 9.07,7.29 15.41,17.37 20.19,27.85 13.22,31.75 26.58,63.44 39.78,95.19 56.67,.02 113.33,.09 169.99-.08 6.95,.02 15.28,.11 20.18,5.9 3.59,3.35 4.63,8.49 4.61,13.21 .5,13.54 .76,27.15-.27,40.67-1.11,7.97-8.6,13.34-16.36,13.63-18.68,1.49-37.45,.43-56.16,.68 0,173.34-.04,346.67 .02,520.01-.23,14.14 .83,28.43-1.47,42.47-3.41,21.34-11.15,42.34-24.67,59.39-11.5,15.83-27.85,29.05-47.21,33.48-11,2.75-22.44,2.51-33.68,2.7-151.67-.11-303.35,.02-455.02-.07-16.19,.16-32.86-3.23-46.36-12.55-31.16-20.82-49.24-58.28-49.51-95.4-.26-183.34-.02-366.69-.12-550.03-18.48-.19-36.99,.62-55.45-.45-9.08,.29-17.77-7.22-17.74-16.5-1.12-14.27-1.84-28.84 .27-43.05 1.81-9.95 12.61-14.76 21.89-13.93 57.59-.26 115.19,.13 172.79-.13 10.55-26.32 21.83-52.35 32.68-78.56 5.43-12.92 9.95-26.73 19.88-37.08m52.48,53.55c-8.42,20.79-17.25,41.41-25.81,62.15 85.14-.05 170.28,.17 255.41-.12-8.01-20.84-16.97-41.3-25.07-62.11-2.06-6-7.76-10.93-14.27-10.8-58.35,.18-116.71-.23-175.05,.21-7.19-1.09-12.95,4.41-15.21,10.67m-153.78,136.17c-.01,180.34-.02,360.68 0,541.01-.11,15.56 4.89,31.73 15.88,43.06 160.05-.17 320.1-.06 480.15-.06 10.44-12.17 16.16-27.96 15.95-44 .02-180 .01-360.01 0-540.01-170.66-.01-341.32-.02-511.98,0Z"/>
<path d="m343.42,402.52c14.68-1.01 29.47-1 44.17-.02 4.62,.18 8.28,3.41 11.22,6.69 3.69,4.35 2.76,10.54 3.2,15.78-.01,108.36-.01,216.72 0,325.07-.17,7.94-5.54,15.98-13.83,17.18-12,1.41-24.16,.96-36.22,.85-6.31-.2-13.82-.6-18.17-5.85-6.16-6-4.3-15.54-4.87-23.21 .18-106.68 .03-213.37 .06-320.05-.01-7.87 6.39-15.87 14.44-16.44Z"/>
<path d="m489.41,402.55c14.77-1.11 29.65-1 44.45-.17 8.27,.99 14.79,9.31 14.07,17.57 .05,110.01 .26,220.04-.1,330.05 1.05,8.65-6.19,16.24-14.46,17.37-11.76,1.12-23.61,.88-35.41,.71-6.72-.13-14.93-.88-18.89-7.15-5.59-6.26-3.44-15.35-4.15-22.92 .23-105.01-.08-210.03 .15-315.04-.74-9.05 4.52-19.29 14.34-20.42Z"/>
<path d="m635.42,402.59c15.04-1.13 30.21-1.12 45.27-.13 9.64,1.41 14.93,11.43 14.16,20.54 .41,106.67-.07,213.35 .24,320.03-.08,6.9-.47,15.14-6.07,20-4.38,4.39-11.21,4.54-16.98,4.94-11.54,.35-23.12,.48-34.63-.49-6.38-.73-12.51-5.01-14.63-11.17-1.82-7.28-1.65-14.87-1.82-22.3 .04-101.67 .12-203.35-.04-305.02-.06-5.16 .17-10.42 1.7-15.39 2.12-5.39 6.8-10.34 12.8-11.01Z"/>
</svg>
