<svg width="1280" xmlns="http://www.w3.org/2000/svg" height="1280" viewBox="0 0 1024 1024">
<path d="m103.43,73.57c14.82-1.16 29.71-.47 44.57-.57 255.01,0 510.02,.01 765.03-.01 21.53-1.24 40.75,19.5 37.97,40.98 .01,265.02-.02,530.04 .02,795.05 1.92,17.23-9.47,34.89-26,40.01-9.15,2.27-18.69,1.84-28.02,2.05-261.66-.31-523.33,.22-784.98-.27-15.28,.75-30.01-8.87-36.24-22.65-2.42-6.41-2.74-13.39-2.84-20.13 .17-265.02-.03-530.04 .1-795.05-1.97-18.4 12.01-36.93 30.39-39.41m77.98,90.92c-10.03,.35-17.69,9.65-17.35,19.48-.16,191.68 0,383.37-.08,575.06 .2,7.86 .1,16.79 6.14,22.82 4.85,3.57 10.95,4.71 16.86,4.26 88.35-.25 176.7-.03 265.05-.11 4.62-.44 9.7,.25 13.99-1.96 6.15-3.02 9.66-10.27 9.01-16.99-.07-193.36-.02-386.72-.02-580.08-.32-5.8 .55-13.22-4.72-17.26-4.84-5.32-12.57-5.82-19.27-5.78-75.01,.13-150.01,.05-225.02,.06-14.86,.11-29.75-.53-44.59,.5m383.98,.01c-9.85,.1-18.14,9.66-16.49,19.46 .27,121.69-.06,243.39 .16,365.08-1.26,10.54 9.25,18.13 18.91,17.9 88.35,.17 176.71-.01 265.06,.08 7.2-.4 15.99,.3 21.29-5.7 4.05-3.49 5.23-9.17 4.78-14.28-.27-121.7 .05-243.4-.16-365.08 1.25-10.55-9.25-18.13-18.91-17.9-81.67-.22-163.36,.09-245.03-.12-9.88,.01-19.77-.32-29.61,.56Z"/>
</svg>
