<svg width="1280" xmlns="http://www.w3.org/2000/svg" height="1280" viewBox="0 0 1024 1024">
<path d="m347.17,146.02c-.42-19.6 17.84-38.16 37.8-36 195.02-.01 390.05-.07 585.07,.03 19.37-.44 36.98,18.53 34.94,37.92 .12,190.01-.12,380.02 .11,570.03-.42,10.97 1.68,23-4.11,32.99-4.38,5.97-10.69,10.43-17.36,13.55-16.67,4.81-34.25,3.05-51.36,3.55 .03,21.21-4.24,42.58-13.47,61.75-12.85,27.01-34.17,49.82-59.79,65.16-35.49,20.84-80.1,24.5-119.12,12.15-41.87-13.96-76.38-47.98-91.73-89.27-5.92-15.93-7.73-32.98-8.34-49.85-73.18-.05-146.36-.07-219.54,.01 .07,23.94-5.49,48.03-17.16,69-14.62,26.62-37.44,48.71-64.45,62.58-41.67,20.01-93.09,19.76-133.92-2.35-36.23-20.61-65.46-55.84-73.67-97.28-2.48-10.46-2.79-21.27-3.29-31.95-23.55-.31-47.11,.38-70.65-.28-7.53-.7-15.82-1.02-22.08-5.82-5.45-3.73-11.67-7.4-13.99-13.97-5.46-13.32-3.94-29.96 6.2-40.71 6.43-8.47 17.1-12.19 27.39-12.84 .84-51.8 .08-103.61 .37-155.42 .89-35.76-4.59-72.07 3.67-107.33 4.65-16.55 14.93-30.96 27.04-42.94 38.08-37.9 75.72-76.3 114.69-113.27 16.38-11.78 36.24-19.33 56.56-19.41 29.99-.27 59.99,.13 89.98-.09 .29-36.64-.33-73.3 .21-109.94m-98.99,185.15c-2.71,1.91-5.08,4.25-7.47,6.53-34.94,35.07-69.93,70.09-105.02,105-3.01,3.34-6.94,6.64-7.46,11.42-.49,6.93-.31,13.89-.32,20.85 73.02,.05 146.04,.05 219.06,0 .05-48.65 .06-97.29-.01-145.93-28.33-.04-56.66-.11-84.99-.06-4.55,.48-9.78-.56-13.79,2.19m14.26,364.36c-28.01,3.93-51.82,26.56-59.32,53.55-6.49,24.46 .54,52.23 19.05,69.75 18.4,19.81 48.58,27.58 74.16,18.6 30.3-9.94 53.18-41.08 50.5-73.38-.87-29.83-22.91-56.68-50.72-66.17-10.79-3.85-22.44-3.4-33.67-2.35m512,0c-23.04,2.98-42.81,19.29-53.54,39.41-10.34,19.4-10.39,43.54-1.24,63.38 8.57,17.23 23.37,31.73 41.64,38.27 16.83,6.79 36.35,5.69 52.93-1.34 27.25-11.94 47.13-40.98 44.61-71.2-.98-28.47-20.74-54.54-47-64.86-11.78-4.96-24.9-5.02-37.4-3.66Z"/>
</svg>
