<svg width="1280" xmlns="http://www.w3.org/2000/svg" height="1280" viewBox="0 0 1024 1024">
<path d="m420.07,73.05c41.64-.11 83.27-.06 124.91-.03 .08,73.99-.04,147.98 .04,221.97 69.32,.05 138.64-.03 207.97,.03 .02,45.99 .03,91.98-.01,137.97-69.32,.05-138.64-.04-207.97,.03-.04,71.66 .02,143.32-.02,214.98-.16,28.02 .08,56.11 2.97,84.01 1.7,14.31 4.98,29.26 14.46,40.61 12.51,15.42 31,24.48 49.65,30.2 25.38,6.52 52.2,6.24 77.77,.89 33.05-6.31 63.86-21 92.02-39.06 .27,46.04 .16,92.1 .06,138.15-26.01,11.91-52.47,22.99-79.9,31.24-38.2,11.29-78.08,16.24-117.87,16.34-61.24,1.28-124.7-12.37-175.16-48.4-20.76-14.99-39.01-33.94-51.54-56.37-15.27-27.84-17.19-60.54-18.42-91.6-.1-106.99 .03-213.99-.05-320.99-32.33-.1-64.65,.06-96.97-.04 .04-41.56-.16-83.13 .1-124.69 32.64-10.69 63.73-26.84 89.77-49.4 28.49-24.61 50.72-56.33 64.84-91.18 12.54-30.2 18.33-62.53 23.35-94.66Z"/>
</svg>
