<svg width="1280" xmlns="http://www.w3.org/2000/svg" height="1280" viewBox="0 0 1024 1024">
<path d="m666.04,147.08c43.56-4.66 89.4,5.8 124.92,31.94 10.35,7.26 19.71,15.81 28.44,24.94 41.68-6.52 81.17-23.28 117.72-43.91-9.13,27.15-23.58,52.76-44.31,72.76-10.25,11.14-22.98,19.4-35.23,28.1 18.47-.9 36.44-5.69 54.3-10.1 17.09-4.84 33.91-10.73 50.16-17.94-24.81,36.81-56.2,69.06-91.99,95.26 .39,33.25-.06,66.65-5.33,99.56-6.77,42.38-17.59,84.27-34.16,123.92-33.05,79.91-85.1,151.89-150.34,208.61-54.05,47.12-120.07,79-188.83,98.26-46.02,12.37-93.73,18.76-141.39,18.58-101.1,2.59-202.63-26.75-287.3-81.93 17.77,.74 35.5,2.48 53.31,1.88 33.84-.97 67.59-6.12 100.02-15.94 43.15-13.24 83.65-34.86 119.05-62.83-21.47-.77-42.97-4.36-62.99-12.32-51.1-19.94-93.14-63.17-109.3-115.88 27.36,3.95 55.74,4.54 82.47-3.34-27.12-6.17-53.41-17.27-75.24-34.73-25.43-20.42-46.68-46.65-58.83-77.1-9.47-22.5-12.56-47.05-13.18-71.27 14.48,6.98 29.21,13.82 44.99,17.37 12.45,3.38 25.33,4.54 38.13,5.77-13-9.78-25.82-20.03-36.38-32.49-22.22-26.02-38.14-57.9-43.08-91.92-2.56-19.22-3.57-38.81-.33-58.01 3.52-22.72 11.48-44.69 23.25-64.43 35.04,43.51 77.4,80.98 124.48,111.02 46.56,29.52 97.41,52.55 150.93,66.09 34.32,9.03 69.65,13.69 105.03,15.98-4.63-23.48-5.46-47.7-2.6-71.45 8-56.53 45.57-106.69 95.16-134 20.91-11.84 44.6-18.23 68.45-20.45Z"/>
</svg>
