<svg width="1280" xmlns="http://www.w3.org/2000/svg" height="1280" viewBox="0 0 1024 1024">
<path d="m224.4,73.49c3.65-.13 10.94-.39 14.59-.52 181.67,.05 363.34,.06 545.02-.01 27.69-.55 55.61,5.81 79.96,19.12 37,20.91 67.09,55.23 79.62,96.17 6.16,19.6 7.24,40.34 7.44,60.75-.1,178.34 .03,356.67-.06,535.01 .09,20.05-3.13,40.12-9.92,59.01-21.36,56-74.43,100.63-134.9,106.22-20.02,1.42-40.09,2.06-60.15,1.79-151.67-.07-303.33-.01-455-.03-26-.13-52.09,.83-77.99-2.09-29.32-4.16-57.53-16.58-79.98-35.95-13.6-12.11-26.57-25.28-36.04-40.95-16.66-25.68-23.96-56.6-23.98-87-.06-181.67 .06-363.34-.06-545.02-.33-25.42 4.47-51.23 16.03-74 25.27-51.21 77.72-89.42 135.42-92.5m321.4,248.3c-15.9,14.18-29.12,31.99-35.43,52.51-7.62,20.99-6.98,43.87-3.33,65.61-35.17-2.4-70.22-8.97-103.17-21.72-56.04-21.27-106.44-57.22-144.46-103.61-19.2,30.11-20.71,68.86-10.28,102.35 7.64,23.97 24.94,43.48 45.1,57.94-19.61-1.11-38.7-6.49-56.43-14.81-1.11,33.6 14.55,66.52 39.47,88.66 15.91,15.48 36.6,25.18 58.1,30.07-16.23,5.68-33.59,4.78-50.31,2.21 7.78,24.53 23.92,46.19 44.96,60.96 18.9,14.51 42.67,21.6 66.29,22.55-48.96,39.61-114.27,57.5-176.66,49.7 53.15,34.25 116.13,53.02 179.37,53.55 41.88-.32 84.21-5.58 123.64-20.24 32.91-11.81 64.3-28.28 91.62-50.24 31.81-25.99 59-57.56 80.28-92.68 18.76-31.56 33.69-65.67 41.41-101.67 7.57-30.24 9.9-61.59 9.11-92.69 23.17-16.66 43.23-37.57 58.98-61.36-21.97,8.9-44.79,15.95-68.36,18.98 7.74-5.57 15.96-10.63 22.62-17.54 13.87-13.3 23.92-30.29 29.84-48.51-23.85,12.11-48.56,23.69-75.18,27.99-5.22-1.54-8.15-7.21-12.43-10.32-42.58-37.43-113.13-35.87-154.75,2.31Z"/>
</svg>
