<svg width="1280" xmlns="http://www.w3.org/2000/svg" height="1280" viewBox="0 0 1024 1024">
<path d="m475.14,90.02c.72-17.3 15.08-34.37 32.89-34.93 19.54-3.52 39.24,13.41 40.12,32.89 1.64,19.66 .62,39.42 .83,59.12-24.65-.97-49.33-1.82-73.97-.01 .17-19.02-.44-38.05 .13-57.07Z"/>
<path d="m488.45,164.58c85.79-4.21 172.33,13.14 250.55,48.42 63.37,28.19 121.2,69.95 165.07,123.93 39.16,47.23 67.81,103.23 82.08,162.96 .59,5 1.97,10.64-1.15,15.11-2.4,5.4-8.22,8.1-13.62,9.49-6.17,1.07-11.68-3.12-16.29-6.57-21.62-19.23-44.84-38.53-73.16-46.73-23.75-6.2-49.24-7.04-72.93-.16-19.15,4.97-36.69,14.7-52.44,26.51-22.15,16.83-41.32,37.91-54.62,62.44-4.64,7.35-8.49,16.13-16.25,20.7-6.53,2.22-15.1,2.19-19.94-3.43-6.46-6.93-10.67-15.47-15.49-23.52-17.89-29.24-43.06-54.31-73.26-70.73-34.74-19.28-78.29-22.31-115.11-7.16-31.12,12.95-57.41,35.67-77.91,62.12-9.29,11.82-15.04,25.95-24.36,37.73-5.73,8.06-19.3,8.95-25.93,1.62-4.52-4.37-7.38-10.06-10.56-15.4-15.78-28.27-37.93-53.2-65.14-70.9-36.58-25.54-86.06-32.41-127.71-15.77-16.08,6.89-30.75,16.72-44.24,27.8-8.14,6.51-15.33,14.24-24.22,19.78-8.38,4.45-19.29-.15-23.43-8.2-2.86-7.66-.49-16.17 1.53-23.71 10.26-35.98 24.56-70.95 44.01-102.97 22.09-37.24 51.15-69.87 83.01-99 43.58-38.81 94.23-69.84 149.06-89.95 55.04-21 113.65-32.02 172.45-34.41Z"/>
<path d="m475.03,491c23.77-8.14 50.23-8.59 73.92,.06 .11,104.98 .03,209.96 .04,314.94-.4,17.17-.09,34.62-4.57,51.36-11.25,45.01-45.62,82.99-88.09,100.98-18.07,7.6-37.86,10.2-57.33,10.45-28.6-.36-56.86-10.08-80.02-26.77-19.57-14.72-36.76-33.08-47.97-55.01-10.34-20.29-15.36-43.24-14.83-65.98-.05-18.69 17.08-35.54 35.82-35.17 17.9-.79 35.31,14.22 36.36,32.28 .67,14.54 3.7,29.31 11.87,41.61 12.79,18.41 32.57,34.15 55.79,35.11 28.44,3.89 55.79-14.14 69.76-38.01 7.61-11.35 9.67-25.43 9.27-38.84-.08-109-.07-218.01-.02-327.01Z"/>
</svg>
