<svg width="1280" xmlns="http://www.w3.org/2000/svg" height="1280" viewBox="0 0 1024 1024">
<path d="m660.1,73.01c53.98-1.16 107.84,3.19 161.74,5.41 22.73,1.36 45.5,.35 68.2-1.18 19.28-.74 38.38-4.7 57.73-3.49 1.93,15.67 4.83,31.61 1.28,47.3-13.22,2.96-26.53,5.89-40.09,6.64-14.64,.81-29.02,3.87-43.33,6.85-5.21,1.29-11.25,3.17-13.63,8.46-8.24,13.5-3.61,30.28-3.28,45.05 6.97,63.41 8.09,127.26 11.1,190.94 2.55,63.9 4.96,128.24-3.02,191.87-4.33,31.04-11.24,62.29-25.56,90.38-30.45,52.75-81.6,91.34-137.85,113.22-70.9,28.16-148.85,32.6-224.23,28.21-44.57-3.31-89.21-12.32-130.11-30.75-30.32-13.06-58.74-31.41-81.23-55.74-16.97-18.94-29.94-41.33-38.96-65.07-18.38-46.67-21.79-97.48-23.7-147.1-.39-61.67-.04-123.34-.16-185.01-.16-24.66 .55-49.35-.74-73.99-.51-24.58-.4-49.27-3.6-73.7-1.37-7.88-2.22-16.29-6.99-23.02-6.34-7.88-16.12-11.86-25.69-14.21-27.01-7.3-55.27-5.74-82.84-8.96-.39-16.76-.73-33.54-1.8-50.27 25.01-1.76 50.11-.84 75.11,.58 64.74,4.44 129.7,6.13 194.55,3.53 46.92-1.61 93.84-3.08 140.78-4.02-.94,16.51 .49,33.02-.04,49.54-23.27,3.19-46.71,4.78-70.19,4.92-15.92,.51-35.28,1.36-45.87,15.31-3.85,7.58-4.17,16.43-5.11,24.73-2.49,30.12-1.57,60.38-1.34,90.57 2.35,52.64-1.32,105.43 2.53,158.03 1.97,40 4.04,79.99 5.95,120 1.28,35.73 6.95,71.92 21.44,104.82 9.12,21.19 23.75,39.85 41.56,54.44 11.82,9.59 25.63,16.2 39.36,22.55 28.13,12.72 59.09,18.77 89.93,18.2 33.47-.37 66.97-5.21 99.01-15 23.33-7.03 45.49-18.14 64.38-33.64 14.12-10.8 27.44-23.11 36.22-38.78 11.22-17.99 19.97-37.45 26.23-57.69 8.93-32.17 10.53-65.75 11.97-98.93 .43-43.24 1.02-86.59-3.15-129.69-5.5-54.65-10.53-109.36-13.91-164.18-.91-16.08-2.56-32.37-8.22-47.57-4.55-12.36-16.12-20.17-27.56-25.52-6.75-3.41-14.53-3.83-21.94-4.05-16.04-.37-32.07,0-48.08,.58-6.07,.33-12.1-.2-18.04-1.33 0-16.42 1.11-32.82 1.19-49.24Z"/>
<path d="m90.42,877.49c2.39-.12 7.17-.36 9.56-.48 276.68-.03 553.37,.01 830.05-.02 6.08,.21 12.24,1.93 16.85,6.12 6.73,9.55 3.29,22.03 4.33,32.89-.78,9.58 1.97,20.59-4.35,28.88-3.55,2.93-7.73,5.31-12.44,5.52-13.44,1.23-26.96,.49-40.42,.62-266.68-.04-533.36-.02-800.03-.01-5.5-.29-11.41-1.45-15.29-5.7-4.45-4.11-5.41-10.57-5.53-16.32-.43-11.8-.73-23.66 .47-35.41 .36-8.75 8.3-15.67 16.8-16.09Z"/>
</svg>
