<svg width="1280" xmlns="http://www.w3.org/2000/svg" height="1280" viewBox="0 0 1024 1024">
<path d="m667.41,117.44c52.91-12.34 109.92-10.1 160.43,10.73 37.41,15 70.06,40.28 96.74,70.23 18.97,21.55 34.75,46.07 45.17,72.88 12.96,31.48 17.68,65.85 17.31,99.72-.11,46.67-.08,93.35 .02,140.02 .9,12.76-6.28,25.41-17.05,32.04-7.17,5.18-16.49,5.72-25,5.95-11.64,.2-23.28,.36-34.89-.33-17.51-1.75-32.52-17.78-32.49-35.52-1.62-54.02-.04-108.12-.75-162.16-4.05-49.93-37.24-95.22-81.87-117.06-20.55-10.63-44.05-14.53-67.03-14.05-22.36-.47-44.46,5.82-64.33,15.77-42.63,23.13-74.66,67.21-77.87,116.28-1.8,41.31-.35,82.71-.78,124.05 19.98,.27 39.98-.45 59.96,.21 19.92,.4 37.48,14.74 45.56,32.36 4.12,9.89 4.57,20.85 4.53,31.43-.23,106.67 .11,213.35-.17,320.02 .45,25.81-20.18,50.67-46.09,53.44-9.52,1.53-19.2,1.42-28.81,1.58-173.33-.06-346.67-.03-520.01-.01-12.92-.01-26.47-1.24-37.6-8.45-9.81-7.18-18.86-16.45-22.85-28.18-3.45-12.49-3.45-25.55-3.57-38.39 .1-100-.04-200.01 .06-300.02 .53-12.14 .48-25.21 7.08-35.92 9.45-16.92 28.11-29.06 47.86-28.05 128.01-.05 256.01,.03 384.02-.03 .1-36.66-.11-73.33 .05-109.99 .19-33.44 6.18-67.01 19.06-97.94 14.37-35.3 37.88-66.42 65.83-92.12 30.4-27.78 67.32-48.81 107.48-58.49Z"/>
</svg>
