<svg width="1280" xmlns="http://www.w3.org/2000/svg" height="1280" viewBox="0 0 1024 1024">
<path d="m430.24,80.26c6.61-2.47 13.81-2.05 20.74-2.32 40.01,.04 80.02,.16 120.03-.05 6.41,.34 13.14-.59 19.32,1.7 31.4,9.62 60.42,26.44 85.27,47.83 27.39,23.07 50.52,51.41 66.44,83.56 16.47,32.25 24.17,68.44 25.47,104.48 .86,9.38 .19,19.67-5.52,27.55-6.15,10.29-17.91,17.12-29.95,16.93-13.35,.32-26.72,.31-40.06-.06-12.1,.43-22.93-7.96-28.94-17.89-7.13-10.21-3.96-23.38-5.96-35-4.82-52.13-41.58-98.6-89.35-118.77-18.19-7.63-38.05-10.89-57.73-10.35-58.04-1.84-112.74,37.86-134.34,90.81-9.76,23.06-10.68,48.65-10.71,73.32 .29,54.89-.33,109.79 .29,164.68 140.26,.76 280.53,.09 420.79,.32 29.21-1.78 55.53,25.06 54.82,54.02 .29,109.99 .19,220 .05,329.99 .35,22.89-15.54,44.58-37.2,51.67-12.3,3.2-25.09,3.24-37.7,3.36-173.33-.08-346.67-.04-520.01-.02-12.92-.02-26.47-1.24-37.59-8.45-9.81-7.19-18.88-16.44-22.86-28.18-3.45-12.49-3.45-25.55-3.58-38.39 .11-100-.03-200.01 .07-300.02 .56-11.42 .39-23.65 6.02-33.97 6.08-11.73 16.29-21.45 28.54-26.48 12.4-5.15 26.04-3.06 39.09-3.79 .73-60.24 .15-120.49 .28-180.74-1.55-41.63 8.8-83.29 27.77-120.25 31.42-57.64 83.96-104.49 146.51-125.49Z"/>
</svg>
