<svg width="1280" xmlns="http://www.w3.org/2000/svg" height="1280" viewBox="0 0 1024 1024">
<path d="m501.31,56.26c6.67-1.74 13.85-1.58 20.58-.15 11.63,3.26 19.59,12.99 27.89,21.11 80.42,80.58 161.02,160.99 241.45,241.55 6.74,7.22 14.08,15.76 13.7,26.29-.11,14.98-8.59,31.23-23.28,36.57-7.22,2.64-15.1,2.22-22.64,2.45-45.66-.11-91.33-.12-136.99-.05-.09,85 .05,170-.04,254.99 .03,15.6-10.5,30.67-25.3,35.64-12,2.82-24.47,2.15-36.68,2.4-40.23-.36-80.47,.44-120.69-.38-13.87,.13-27.08-8.39-33.33-20.65-4.49-7.87-3.79-17.32-4.06-26.02 .15-81.99 .09-163.99 .05-245.98-48.34-.12-96.67,.04-145-.02-12.07,.42-24.92-5.22-31-16.01-5.41-8.14-8.08-18.1-6.78-27.86 1.92-8.2 7.33-14.96 13.06-20.89 80.48-80.51 161.03-160.97 241.48-241.52 8.3-8.11 16.11-17.81 27.58-21.47Z"/>
<path d="m72.61,679.54c12.49-3.46 25.54-3.45 38.39-3.58 74.65,.1 149.3-.02 223.96,.06 12.28,32.08 38.93,58.91 72.09,68.89 17.68,5.86 36.58,5.11 54.95,5.13 41.65-.26 83.31,.29 124.96-.22 36.05-.51 70.72-20.55 89.99-50.84 4.88-7.19 8.58-15.09 12.18-22.96 78.3-.06 156.59,.01 234.88-.04 11.17,.2 22.95,.58 32.97,6.1 12.24,6.22 21.98,17.13 27.25,29.77 3.75,12.67 3.61,26.05 3.81,39.15-.1,51.67 .01,103.34-.05,155.02-.25,12.29-.94,25.47-7.91,36.05-7.24,12.14-19.03,21.6-32.76,25.25-6.97,1.65-14.21,1.56-21.31,1.74-278.34-.11-556.69-.08-835.03-.02-26.93,.95-52.49-22.03-54.04-49.02-1.02-8.3-.94-16.69-1-25.02 .13-51.67 .03-103.34 .04-155.01 .01-12.92 1.24-26.47 8.45-37.59 7.18-9.82 16.44-18.87 28.18-22.86m651.84,143.97c-16.71,2.98-30.3,19.44-29.6,36.49-.05,16.29 12.31,31.4 28.11,35.07 13.05,3.32 27.64-1.56 36.02-12.09 10.39-11.02 12.03-29.14 3.88-41.88-7.5-13.11-23.44-20.8-38.41-17.59m146.01,.06c-16.64,3.19-30.25,19.22-29.37,36.39-.35,11.7 6.34,22.64 15.68,29.27 15.24,11.8 39.37,7.55 50.23-8.22 7.5-8.49 8.14-20.52 6.16-31.13-4.93-17.8-24.19-30.79-42.7-26.31Z"/>
</svg>
