<svg width="1280" xmlns="http://www.w3.org/2000/svg" height="1280" viewBox="0 0 1024 1024">
<path d="m496.44,73.52c33.02-2.54 66.63,2.34 97.38,14.7 28.86,11.26 54.41,29.92 75.97,51.99 19.48,19.86 35.26,43.4 45.8,69.16 10.92,26.76 15.73,55.8 15.52,84.63 .35,30.14-5.93,60.36-18.26,87.86-12.47,28.41-32.15,53.2-54.71,74.26-18.9,16.71-40.27,30.96-63.76,40.31-59.95,23.37-130.67,20.91-187.29-10.56-19.84-10.95-37.82-25.13-53.39-41.57-28.16-28.24-48.3-64.55-56.31-103.68-6.66-34.12-7.16-69.84 1.58-103.64 8.96-35.84 27.86-68.93 53.71-95.29 22.31-23.85 49.72-43.16 80.36-54.69 20.2-7.97 41.81-11.86 63.4-13.48Z"/>
<path d="m233.02,492.05c11.23-5.27 23.07-9.16 35.11-12.13-8.26,21.33-12.17,44.22-12.15,67.07-.09,39.17 .2,78.34-.09,117.52-17.66,6.33-34.25,16.56-46.34,31.07-16.11,18.97-26.71,43.24-26.54,68.4-2.33,30.79 10.74,61.88 33.16,82.85 19.74,19.89 47.75,31.31 75.83,30.33 45.12,2.25 88.01-29 103.41-70.79 9.71-27.88 9.21-59.88-4.4-86.39-12.45-25.55-34.86-46.25-61.86-55.44-.36-38.18-.02-76.37-.2-114.54-.47-18.94 2.7-38.9 13.98-54.59 28.98,22.25 61.67,40.03 96.99,49.78 57.74,15.44 120.86,12.59 175.9-11.38 23.44-9.62 44.78-23.52 65.11-38.47 17.9,26.11 13.18,59.64 14.06,89.43-23.97,.12-48.08,5.57-69.24,16.96-36.49,20.71-66.11,56.1-74.17,97.92-5.57,27.25-2.75,55.2-3.93,82.79-9.75,10.15-17.61,23.08-17.46,37.6-2.64,27.9 20.76,55.53 48.83,56.88 14.12,1.62 28.76-2.02 39.86-11.02 23.07-16.94 28.19-53.47 9.81-75.6-2.74-4.3-8.3-7.46-7.45-13.33-.55-18.93-.93-37.97 1.08-56.83 3.63-25.82 23.26-48.28 47.3-57.56 18.53-6.49 40.02-6.41 57.42,3.35 22.33,11.34 38.82,34.27 40.42,59.51 .72,18.38 1.27,36.88 .03,55.24-4.81,7.46-11.22,13.99-14.44,22.4-3.9,10.75-3.91,22.62-1.89,33.78 6.19,23.32 29.08,42.21 53.84,40.29 13.88,.62 27.53-5.09 37.31-14.84 17.5-15.84 21.89-43.82 10.91-64.54-2.97-5.76-8.1-9.96-11.49-15.38-2.47-23.86 1.36-48.03-2.28-71.81-6.4-43.6-33.36-83.49-71.43-105.71-.66-41.71 3.91-85.63-12.85-125.09 20.8,4.73 40.76,13.46 58,26.08 24.53,18.94 45.44,43.04 58.8,71.15 14.31,30.34 23.96,62.73 30.45,95.6 8.12,37.56 10.51,76.05 11.57,114.38 .22,19.24 .26,38.8-4.4,57.61-4.73,20.55-13.8,40.32-27.6,56.38-15.64,18.64-36.74,32.38-59.63,40.38-26.41,9.02-54.75,9.62-82.36,9.69-158.34-.15-316.68,.05-475.01-.1-24.77-.11-49.89-3.33-72.83-13.12-25.43-10.72-47.91-29.09-62.1-52.89-15.03-24.3-20.32-53.29-20.49-81.52 .35-28.31 .61-56.69 3.91-84.85 3.22-29.89 9.94-59.29 17.88-88.24 7.4-25.13 17.04-49.84 30.72-72.25 17.68-27.39 41.68-51.23 70.94-66.03Z"/>
<path d="m289.45,731.48c19.93-2.39 39.71,15.44 39.52,35.56 .58,12.74-6.63,24.93-17.15,31.79-10.47,6.73-24.39,7.31-35.54,1.91-9.95-6.06-19.18-15.66-20.13-27.87-3.38-20.05 13.3-40.09 33.3-41.39Z"/>
</svg>
