<svg width="1280" xmlns="http://www.w3.org/2000/svg" height="1280" viewBox="0 0 1024 1024">
<path d="m78.2,170.18c25.46-16.15 55.69-24.3 85.78-24.19 131.68-.01 263.35,.06 395.03-.03 13.65,.05 27.4,.61 40.84,3.23 48.25,8.86 89.64,42.41 113.13,84.81 11.13,21.53 18.31,45.59 18.04,69.98 .25,33.56-.5,67.13 .31,100.69 31.48-30.28 61.85-61.71 92.92-92.42 43.97-44.03 88.07-87.94 131.95-132.06 7.87-7.73 17.18-15.94 28.95-15.75 18.03-1.12 35.73,11.94 38.85,29.93v634.29c-2.07,8.36-5.74,17.17-13.06,22.23-13.75,11.25-36.4,11.33-48.7-2.12-72.96-73.04-146.02-145.99-218.97-219.04-3.92-3.85-7.9-7.61-11.94-11.31-.8,33.52-.06,67.06-.31,100.6 .16,22.93-5.9,45.66-15.81,66.24-21.22,41.23-59.06,74.71-104.31,86.67-20.77,5.72-42.54,5.33-63.89,6.05-125.01-.04-250.01,.17-375.01-.1-24.44-.04-49.32-3.1-71.83-13.07-29.3-12.24-53.8-34.21-72.22-59.77-16.7-22.94-24.68-50.83-27.95-78.7v-428.87c2.9-26.21 10.24-52.36 25.06-74.43 13.51-21.3 32.13-39.06 53.14-52.86Z"/>
</svg>
