<svg width="1280" xmlns="http://www.w3.org/2000/svg" height="1280" viewBox="0 0 1024 1024">
<path d="m229.44,73.55c6.51-.37 13.03-.56 19.56-.58 178.33,.09 356.67-.03 535.01,.06 23.6-.01 47.46,4.08 68.97,14.04 26.64,11.59 49.02,31.45 66.61,54.32 15.95,21.42 26.59,46.99 29.52,73.6 1.42,11.28 1.87,22.64 1.92,34.01-.09,178.33 .04,356.67-.07,535.01 .34,31.99-8.13,64.28-25.93,91.01-22.83,34.52-58.02,61.86-98.68,71.37-26.65,6.34-54.22,4.36-81.35,4.6-168.34,.05-336.67-.05-505.01,.06-22.18,.29-44.57-3.34-65.1-11.9-40.76-17.32-74.22-51.15-90.91-92.18-7.73-19.67-10.99-40.9-11.01-61.96 .05-181.67 .05-363.34 0-545.02-.56-28.87 6.33-58.06 20.9-83.08 18.75-31.57 47.2-57.69 81.28-71.77 17.17-7.32 35.74-10.6 54.29-11.59m445.01,189.05c-9.95,1.15-19.53,4.36-28.74,8.17-26.57,12.08-51.08,28.63-72.47,48.47-24.64,24.42-44.12,54.45-54.61,87.62 19.82,.55 40.97-1.94 59.42,7.05 9.34,4.25 15.46,13.29 18.1,22.97 5.67,20.51 2.05,42.43-3.69,62.5-10.9,32.36-26.34,63.22-45.89,91.22-5.93,8.2-12.03,16.69-20.64,22.29-7.58,4.81-17.03,8.06-25.95,5.12-6.02-.99-10.88-4.85-15.6-8.4-12.41-10.63-21.18-25.01-26.66-40.3-5.75-15.4-10.29-31.31-12.45-47.62-3.89-27.94-5.99-56.09-9.96-84.01-4.41-26.38-9.27-52.7-15.12-78.8-4.96-23.39-15.12-45.99-31.24-63.83-8.46-9.36-20.14-16.27-32.94-16.98-23.52-2.32-46.53,6.39-66.02,18.92-51.52,32.59-92.45,78.66-141.48,114.51-1.37,1.1-3.53,2.96-1.97,4.8 4.39,3.95 9.07,7.73 12.1,12.92 3.73,5.59 7.48,12.92 14.68,14.45 22.1,2.53 41.57-12.9 63.67-10.61 9.1-.23 16.9,5.99 21.73,13.21 9.83,14.74 15.66,31.74 20.16,48.76 4.01,15.48 9.6,30.47 14.49,45.68 12.55,41.4 22.96,83.4 33.45,125.36 9.9,34.62 17.66,70.57 36.27,101.86 8.27,14.72 19.29,27.99 32.83,38.15 9.53,7.16 21.36,10.15 33.08,10.83 22.77,.93 45.13-6.17 65.03-16.82 28.15-15.79 54.07-35.42 77.65-57.42 43.22-40.88 79.35-88.67 111.34-138.66 37.89-59.2 67.31-123.44 91.71-189.25 9.59-27.51 19.58-56.11 17.12-85.74-.62-11.84-3.72-23.78-10.03-33.9-8.24-14.86-23.47-24.83-39.5-29.56-21.85-7.31-45.36-5.75-67.87-2.96Z"/>
</svg>
