<svg width="1280" xmlns="http://www.w3.org/2000/svg" height="1280" viewBox="0 0 1024 1024">
<path d="m362.38,207.4c24.04-6.05 48.95-7.33 73.63-8.19 40.55-.51 81.56-1.57 121.56,6.27 7.4,1.59 14.96,3.38 21.34,7.68 14.27,7.89 18.54,25.32 20.57,40.24 2.03,34.51-1.07,69.06-1.34,103.59 .02,33.36-2.62,66.75-.36,100.09 1.4,11.78 2.66,24.4 9.81,34.32 4.35,5.89 10.16,11.77 17.95,12.24 9,1.63 16.34-5.16 22.78-10.3 28.39-24.05 47.9-56.3 67.75-87.27 30.58-48.08 55.82-99.42 76.42-152.51 3.65-8.08 7.93-16.57 15.66-21.44 4.61-2.33 9.86-3.08 14.97-3.64 47.29-.82 94.59-.35 141.89-.47 19.67,.07 39.31-2.56 58.99-1.18v101.57c-31.17,52.31-69.81,99.61-106.56,148.02-12.25,16.28-24.64,32.54-34.93,50.15-7.42,12.19-10.58,28.04-4.45,41.41 3.81,9.72 10.97,17.45 18.15,24.81 16.02,15.98 31.85,32.18 48.78,47.22 28.23,26.75 55.47,54.78 79.01,85.81v94.14c-22.81,3.12-45.91,1.57-68.83,2.4-28.39,1.2-56.81,.03-85.17,1.73-11.54-.08-23.29,2.17-34.68-.45-19.05-4.45-37.44-12.18-53.28-23.74-22.69-16.73-41-38.36-59.78-59.16-17.64-20.22-34.15-42.36-57.36-56.61-7.82-5.2-17.88-7.64-27.09-5.38-9.69,4.71-16.93,13.34-23.15,21.9-11.13,17.86-14.28,39.39-15.98,60-1.49,14.97 1.8,31.83-6.91,45.21-6.38,10.61-19.65,14.29-31.16,15.67-24.84,1.28-49.74,.09-74.61,.53-38.5,1.26-76.57-8.07-112.3-21.76-30.04-11.19-57.04-28.81-83.68-46.33-37.44-24.95-71.35-55.46-98.7-91.28-40.71-51.51-78.97-105.07-112.39-161.63-19.41-33.25-38.1-66.93-55.94-101.05-7.85-15.14-16.12-30.1-22.99-45.72v-127.29c45.34-.19 90.7,.67 136.02-1.01 13.76-.87 28.02,2.57 39.11,10.94 11.57,8.79 15.23,23.41 20.82,36.11 11.96,27.81 25.29,55.02 39.18,81.9 15.14,26.74 27.43,55.05 43.81,81.1 15,24.36 31.67,49.17 56.37,64.66 7.82,5.13 17.85,6.36 26.66,3.18 5.51-.34 7.4-6.03 10.05-9.85 11.26-19.76 12.48-42.91 15.07-64.97 2.76-23.24 3.69-46.7 2.11-70.07-1.34-26.48-2.7-53.43-11.56-78.68-2.89-8.73-8.14-16.83-15.67-22.24-12.27-9.59-27.98-12.57-42.76-16.06 6.81-18.19 25.01-29.84 43.17-34.61Z"/>
</svg>
