<svg width="1280" xmlns="http://www.w3.org/2000/svg" height="1280" viewBox="0 0 1024 1024">
<path d="m573.3,166.28c13.49-3.84 29.67-.47 38.73,10.71 5.78,6.15 9.15,14.47 8.92,22.97 .14,206.68-.03,413.38 .09,620.06 1.37,11.1-3.53,21.99-11.71,29.31-10.77,11.18-29.56,13.13-42.67,5.02-8.7-5.8-15.52-13.82-22.92-21.09-57.63-57.7-115.37-115.31-172.96-173.04-2.95-3.25-8-1.51-11.75-2.25-46.69-.09-93.38,.2-140.07-.02-16.96,.64-33.44-13.26-35.55-30.11-1.57-8.85-1.32-17.9-1.46-26.84 .08-63.34 .09-126.67-.01-190.01-.19-10.97 1.61-22.63 8.52-31.5 6.73-8.05 16.72-13.89 27.5-13.44 50.05-.11 100.1-.13 150.15,.09 59.79-59.22 119.07-118.95 178.63-178.4 8.24-7.8 15.39-17.68 26.56-21.46Z"/>
<path d="m730.45,375.57c7.03-.94 14.56-1.08 21.2,1.79 25.62,9.87 48.11,27.85 62.99,50.97 26.89,38.76 33.76,90.89 16.72,135.02-9.69,25.76-26.57,48.8-48.32,65.67-16.74,11.08-36.85,25.27-57.96,17.86-20.33-6.55-30.89-33.71-18.92-51.77 12.56-18.73 37.5-24.14 49.88-43.07 8.67-11.74 11.71-26.67 11.11-41.04 .97-16.39-4.65-33.2-15.95-45.21-11.15-12.67-28.08-18.09-39.54-30.45-9.95-8.81-13.02-23.86-8.42-36.15 4.06-11.95 14.86-21.24 27.21-23.62Z"/>
</svg>
