<svg width="1280" xmlns="http://www.w3.org/2000/svg" height="1280" viewBox="0 0 1024 1024">
<path d="m698.44,106.54c17.34-3.68 32.74,6.17 47.64,13.35 76.57,37.6 140.41,99.37 182.79,173.21 38.67,65.55 59.09,141.79 58.21,217.9 1.61,73.16-17.73,146.2-52.84,210.24-26.69,47.78-61.14,91.61-103.24,126.76-31.96,27.38-68.53,49.09-106.94,66.12-12.76,6.04-29.18,5.4-40.14-4.03-13.55-10.47-18.51-31.43-8.8-46.02 8.54-15.55 26.75-20.17 41.55-27.45 60.7-31.76 112.97-80.19 147.18-139.73 32.21-54.13 49.89-116.86 50.22-179.89 2.13-72.02-19.67-144.03-58.76-204.3-37.69-58.43-92.56-105.84-156.3-133.76-11.19-5.18-22.48-12.92-26.92-24.98-7.74-19.51 6.15-43.36 26.35-47.42Z"/>
<path d="m436.44,164.52c19.81-2.19 39.01,15.53 38.52,35.44 .12,206.68-.04,413.38 .08,620.06 2.42,20.14-15.86,39.8-36.03,39.07-11.94,.94-22.52-6.48-30.31-14.78-60.84-61.16-122.05-121.95-182.89-183.11-2.93-4.19-8.47-2.76-12.78-3.24-46.68-.07-93.37,.22-140.05-.03-15.84,.73-30.21-11.32-34.93-25.93-2.41-11.83-1.89-24.01-2.11-36 .22-63.99-.15-127.98 .17-191.97-.13-13.84 7.38-27.69 19.81-34.14 8.1-4.88 18.01-4.19 27.06-4.79 46.7-.21 93.41-.16 140.12,.04 63.8-63.2 127.07-126.96 190.64-190.41 5.93-6.1 14.15-9.92 22.7-10.21Z"/>
<path d="m642.44,240.51c14.18-2.85 27.29,4.56 39.58,10.44 63.54,31.58 112.89,88.42 138.96,154.05 24.86,63.25 27.07,135.56 4.92,199.92-26.21,78.07-86.04,145.21-162.8,176.22-8.05,2.83-17.04,4.02-25.23,1.04-13.11-4.74-24.22-16.74-25.19-31.05-2.2-13.85 5.31-28.18 17.45-34.94 18.65-10.92 38.87-19.5 55.49-33.59 46.24-36.17 76.33-92.18 81.3-150.64 8.81-81.46-33.8-166.09-104.85-207.05-13.74-8.63-29.96-13.64-41.38-25.6-13.42-14.46-10.14-39.61 5.38-51.27 4.83-3.6 10.23-6.94 16.37-7.53Z"/>
<path d="m584.44,375.49c8.65-1.23 17.75-.66 25.53,3.56 45.52,18.96 76.82,64.58 83.21,112.81 8.75,56.51-20.07,117.06-69.57,145.71-10.16,5.35-20.69,11.52-32.56,11.41-17.35-.08-33.67-14.22-35.44-31.59-1.82-7.98 .76-16.18 4.76-23.04 12.51-18.24 36.92-23.28 49.24-41.72 9.02-11.8 12.13-27.03 11.54-41.62 1.1-18.76-6.44-38.04-20.92-50.22-13.93-11.95-33.47-18.71-42.14-35.83-9.66-19.94 4.77-46.13 26.35-49.47Z"/>
</svg>
