<svg width="1280" xmlns="http://www.w3.org/2000/svg" height="1280" viewBox="0 0 1024 1024">
<path d="m668.75,175.74c7.03-7.26 16.95-11.98 27.26-10.83 18.52-.35 35.48,16.44 34.91,35.05 .2,206.68-.01,413.37 .11,620.06 2.51,20.79-17.13,41.15-38.03,38.97-10.81,.59-20.06-6.46-27.29-13.68-60.84-61.17-122.11-121.92-182.88-183.16-2.36-2.25-5.03-5.07-8.84-3.94-48.33-.7-96.69,.18-145.03-.28-16.97,.65-33.43-13.22-35.54-30.08-1.58-8.86-1.35-17.9-1.48-26.85 .16-65.01-.02-130.02 .07-195.03 .35-12.56 4.8-26.02 15.7-33.26 7.04-5.79 16.44-7.02 25.27-6.78 48.4,.16 96.81-.08 145.22,.2 63.69-63.29 127.01-126.95 190.55-190.39Z"/>
</svg>
