<svg width="1280" xmlns="http://www.w3.org/2000/svg" height="1280" viewBox="0 0 1024 1024">
<path d="m736.45,97.55c32.63-2.31 65.41,2.78 96.56,12.4 65.21,19.79 120.58,67.06 153.94,126.07 26.52,46.92 37.11,101.9 33.64,155.45-1.73,19.78-5.76,39.38-11.99,58.23-2.78,9.55-8.92,18.27-17.5,23.42-11.49,7.58-27.17,7.53-39.08,.86-16.41-8.3-25.06-29.45-18.77-46.82 6.96-21.54 10.15-44.22 9.5-66.85-1.83-30.14-9.72-60.12-24.52-86.54-14.19-23.87-32.67-45.45-55.21-61.8-39.7-29.27-91.06-40.69-139.71-34.66-8.11,1.1-16.08,3.28-24.29,3.53-11.24-.46-21.43-6.89-28.76-15.08-10.51-12.96-11.58-33.35-1.18-46.7 5.05-7.07 12.31-13.1 20.98-14.91 15.14-3.96 30.83-5.36 46.39-6.6Z"/>
<path d="m410.44,214.57c17.9-1.29 37.01-1.53 53.53,6.5 10.93,4.47 20.1,12.33 27.59,21.33 14.09,18.1 17.31,42.25 15.36,64.55-.91,17.27-6.11,33.87-10.24,50.54-1.64,4.95-1.24,11.83 4.75,13.12 12.43,1.56 23.61-5.21 34.86-9.34 40.45-16.12 83.38-27.67 127.19-27.64 20.86-.36 42.24,3.27 60.85,13.05 12.2,6.91 23.29,16.55 29.87,29.09 7.2,13.1 8.49,28.57 7.83,43.24-.13,21.13-10.07,40.39-14.41,60.67-3.7,9.38 7.47,12.31 13.7,14.84 31.15,10.42 62.55,23.44 86.45,46.7 22.13,21.96 39.08,50.67 41.65,82.23 2.88,25.78-2.58,51.77-12.51,75.51-13.11,32.23-34.44,60.54-59.11,84.84-22.19,22.25-47.49,41.14-73.87,58.11-30.47,19.5-63.08,35.7-97.27,47.6-74.79,27.04-154.78,38.25-234.12,37.18-78.55-1.79-156.9-17.61-229.55-47.67-34.73-14.53-68.52-32.3-97.61-56.44-31.23-25.25-57.54-57.31-73.62-94.29-4.83-12.24-10.07-24.85-9.73-38.26 .14-28.29-.62-56.6 .41-84.87 2.4-15.4 8.06-30.06 13.05-44.76 22.39-58.38 58.57-110.49 99.74-157.18 35.3-39.7 74.03-76.54 116.74-108.24 43.32-31.66 91-58.24 142.68-73.41 11.76-3.11 23.66-5.91 35.79-7m14.01,245.96c-47.99,1.38-95.99,8.91-141.52,24.4-55.79,19.73-108.46,51.62-146.38,97.64-19.86,24.26-33.76,54.01-36.43,85.46-.6,16.04 .01,32.32 4.02,47.94 5.39,22.56 17.38,43.05 32.25,60.65 25.12,27.89 57.08,49.27 91.91,63.09 76.8,31.91 163.05,34.97 244.09,19.68 65.04-12.32 128.32-39.56 177.77-84.23 23.92-21.57 45.18-47.34 56.08-78.01 13.96-37.57 10.84-80.94-8.2-116.17-13.32-25.43-34.52-45.73-57.44-62.55-25.58-17.79-54.17-31.02-83.94-40.1-42.66-13.26-87.57-19.14-132.21-17.8Z"/>
<path d="m741.45,236.56c46.92-4.07 94.81,20.49 119.52,60.49 11.24,17.33 17.88,37.44 20.06,57.94 2.29,19.12 .34,39.06-7.14,56.91-6.72,17.63-30.73,26.02-46.81,15.95-10.6-5.78-17.88-17.59-17.08-29.84-.18-8.74 3.82-16.81 4.47-25.46 2.73-18.38-5.83-36.61-18.64-49.38-11.89-13.36-29.92-20.45-47.68-19.92-7.09,.56-14.03,2.32-21.14,2.56-16.55-1.08-32.22-15.41-31.09-32.79-1.25-10.45 4.41-20.36 11.86-27.22 9.48-7.63 22.13-7.91 33.67-9.24Z"/>
<path d="m382.45,543.58c28.69-3.07 57.9,1.51 84.52,12.48 14.09,5.45 26.95,13.75 38.43,23.51 31.55,27.4 49.03,71.31 41.11,112.86-6.84,32.59-23.48,63.38-48.32,85.76-28.22,25.54-64.72,41.24-102.16,46.98-39.13,5.89-80.14-2.97-114.02-23.19-44.32-26.54-68.48-82.8-56.21-133.14 6.91-26.29 20.58-50.94 39.87-70.17 18.45-19.47 42.09-33.43 66.95-43.12 15.89-6.45 32.77-10.3 49.83-11.97m35.95,93.83c-11.63,.96-20.98,11.39-22.1,22.74-.2,4.53 1.98,9.19 5.79,11.75 12.95,11.76 37.07,.34 36.87-16.89 1.15-10.9-10.35-19.37-20.56-17.6m-78.95,24.07c-19,1.21-37.88,10.18-49.32,25.66-9.3,12.19-14.93,28.69-9.99,43.81 4.69,19.9 25.05,33.01 44.85,33.08 24.89,.27 50.78-13.74 61.02-37.01 6.97-13.02 5.84-29.33-.72-42.28-9.02-15.75-27.94-24.73-45.84-23.26Z"/>
</svg>
