<svg width="1280" xmlns="http://www.w3.org/2000/svg" height="1280" viewBox="0 0 1024 1024">
<path d="m305,41.04c22.63-26.7 61.26-38.31 94.91-28.85 34.94,9.74 63.78,41.54 66.56,78.25 6.45,45.2-27.71,91.25-72.15,99.84-8.37,1.71-16.96,1.33-25.44,1.13 4.98,43.48 11.08,86.83 16.44,130.27 1.47,11.44 2.82,22.89 4.7,34.27 80.55,.31 161.11-.36 241.66,.33 .54,24.46 .5,48.93 .07,73.4-77.58,.77-155.18,.06-232.78,.35 3.06,24.3 6.04,48.62 9.15,72.91 86.64,.13 173.28,.04 259.92,.02 13.92-.89 27.34,7.28 32.88,20.07 43.54,86.56 86.64,173.34 130.1,259.94 37.91-18.6 75.31-38.25 113.48-56.29 10.8,21.68 22.33,43 32.62,64.94-49.18,24.17-98.05,48.97-147.12,73.38-11.31,4.8-25.4,4.86-35.81-2.2-7.15-4.66-11.42-12.4-15.23-19.77-44.32-89.02-89.03-177.84-133.29-266.89-89.9-.39-179.81,.05-269.71-.19-16.31,.36-32.64-11.71-35.82-27.95-2.4-11.36-3.06-22.98-4.57-34.46-16.27-131.18-32.32-262.39-48.55-393.57-1.2-10.52-3.38-21.03-2.69-31.66 2.64-17.17 9.53-33.86 20.67-47.27Z"/>
<path d="m170.27,428.27c27.79-22.03 59.11-39.74 92.57-51.58 3.63,24.72 6.16,49.59 10,74.28-24.01,11.38-46.98,25.26-66.8,43.07-52.33,46.35-85.45,114.73-86.1,184.95-1.64,37.68 5.57,75.71 20.9,110.16 14.92,33.64 37.94,63.26 65.08,87.93 22.59,19.91 48.22,36.77 76.46,47.5 28.4,11.31 59.11,16.5 89.62,16.53 92.79,3.51 184.09-50.81 228.03-132.11 24.14-41.91 34.25-91.13 31.23-139.23 18.17,35.61 35.68,71.56 53.84,107.18 1.23,3.23 3.66,6.36 3.68,9.94-19.97,63.49-60.44,120.3-113.78,160.11-25.84,19.61-54.26,36.1-84.79,47.23-41.36,15.88-86.15,21.68-130.26,20.19-100.88-3.75-197.94-58.43-254.76-141.61-18.93-26.95-33.7-56.8-43.84-88.13-13.67-44.2-17.56-91.18-12.92-137.14 9.37-85.47 55.25-165.42 121.84-219.27Z"/>
</svg>
