<svg width="1280" xmlns="http://www.w3.org/2000/svg" height="1280" viewBox="0 0 1024 1024">
<path d="m970.86,38.82c5.36-.72 10.72-1.35 16.1-1.96 .08,151.05 .03,302.09 .03,453.13-172.66,.01-345.32,.02-517.98,0 0-127.3-.06-254.61 .03-381.91 167.25-23.26 334.56-46.11 501.82-69.26Z"/>
<path d="m208.68,143.69c72.44-9.88 144.83-20.11 217.28-29.85 .08,125.38 .03,250.76 .03,376.15-130,.02-259.98,.02-389.97-.01-.06-107.4 .02-214.81-.04-322.22 57.48-8.56 115.15-15.9 172.7-24.07Z"/>
<path d="m35.97,538.63c7-.36 14.01-.59 21.03-.66 122.99,.08 245.99-.01 368.99,.04 .01,124.04 .04,248.07-.02,372.11-130.03-17.71-260.05-35.56-390.01-53.81 .07-105.89 .05-211.78 .01-317.68Z"/>
<path d="m469.01,538.01c172.66-.01 345.32-.02 517.98,0 .01,149.69 .03,299.37-.01,449.06-50.02-6.18-99.88-13.63-149.83-20.3-122.69-17.06-245.44-33.66-368.1-50.87-.11-125.97-.04-251.93-.04-377.89Z"/>
</svg>
