<svg width="1280" xmlns="http://www.w3.org/2000/svg" height="1280" viewBox="0 0 1024 1024">
<path d="m701.57,43.6c22.95-1.39 46.23-1.59 68.89,2.85 28.34,5.21 56.73,13.37 81.34,28.75 5.24,4.07 12.71,7.93 13.74,15.23 1.97,6.71-.96,13.62-6.23,17.87-7.41,5.97-16.18,9.88-24.3,14.74-48.57,28.19-97.27,56.17-145.96,84.16-.1,42.56-.08,85.12-.02,127.68 36.97,20.37 73.92,40.8 110.8,61.35 48.93-30.16 97.69-60.7 148.14-88.28 5.66-2.79 11.39-6.4 17.99-5.94 4.25,1.04 8.81,2.9 11.07,6.96 5.69,8.13 3.73,18.66 2.81,27.9-4.93,28.33-14.5,55.79-27.58,81.37-33.95,63.68-96,111.57-165.91,129.14-54.89,12.64-114.33,8.79-165.76-14.89-27.35-12.14-51.66-30.29-73.29-50.79-29.43-28.84-52.86-64.28-65.3-103.7-20.58-66.51-15.39-141.87 19.14-202.9 22.04-38.68 53.82-71.77 91.49-95.49 32.53-20.95 70.5-32.74 108.94-36.01Z"/>
<path d="m83.25,776.25c123.55-123.46 246.91-247.1 370.58-370.44 28.15,70.65 84.58,129.49 154.16,160.21 3.52,1.53 7.04,3.08 10.48,4.79-50.04,50.52-100.49,100.62-150.74,150.92-17.76,16.22-34.4,33.59-51.48,50.52-63.5,63.5-127,127-190.5,190.51-26.55,25.51-73.05,24.39-98.97-1.53-18.52-18.49-37.3-36.73-55.06-55.95-9.62-9.23-19.47-19.16-24.11-31.94-6.97-19.43-6.38-41.93 3.58-60.23 7.84-14.54 20.69-25.22 32.06-36.86m124.18-1.77c-13.24,2.22-24.62,12.64-28.65,25.38-4.59,13.87 .91,30.1 12.52,38.82 13.41,12.47 36.36,10.41 48.5-2.88 13.54-12.38 14.14-35.89 1.5-49.1-8.04-9.85-21.36-14.74-33.87-12.22Z"/>
</svg>
