<svg width="1280" xmlns="http://www.w3.org/2000/svg" height="1280" viewBox="0 0 1024 1024">
<path d="m223.44,73.6c6.51-.42 13.03-.63 19.56-.64 183.34,.11 366.68-.03 550.02,.07 71.38,.98 136.75,55.92 153.21,124.84 3.79,16.75 4.68,34 4.8,51.13-.09,178.34 .03,356.67-.06,535.01 .24,29.57-7,59.3-22.19,84.77-21.85,35.73-56.4,64.63-97.13,75.83-19.04,5.45-38.99,6.08-58.65,6.41-170-.02-340-.05-510,.01-17.57-.1-35.28,.47-52.69-2.33-57.1-8.75-106.74-51.18-127.34-104.69-7.7-20.36-10.11-42.36-10.01-64.01 .1-181.67 0-363.34 .05-545.02 .2-24.51 5.55-49.21 16.98-70.99 25.41-49.93 76.82-87.19 133.45-90.39m472.99,72.97c-11.62,.81-19.03,11.22-24.54,20.34-77.57,137.45-155.02,274.98-232.58,412.43-1.54,2.45-.76,5.34 .57,7.68 48.75,89.29 97.35,178.67 146.06,267.99 5.88,12.03 17.62,23.75 32.04,22.1 33.35-.17 66.7-.12 100.05-.03 6.12-.25 14.8,.7 17.96-6.08 5.34-6.08 1.06-13.94-2.1-19.92-47.98-87.7-95.76-175.51-143.82-263.16-1.44-2.75-3.78-6.01-1.03-8.85 76.5-135.21 153.05-270.39 229.43-405.66 4.6-6.33 7.14-16.6 .76-22.65-5.69-6.87-15.56-4.15-23.22-4.87-33.19,.61-66.42-.77-99.58,.68m-445.02,144.96c-3.28,.24-6.1,2.22-8.13,4.71-3.95,5.29-2.36,12.59 .35,18.1 22.58,38.51 44.74,77.28 67.24,115.84 1.06,2.95 4.74,6.08 2.71,9.38-37.43,65.64-74.59,131.46-111.79,197.23-4.99,9.1 2.54,21.06 12.54,21.77 30.2,1.18 60.45-.01 90.67,.54 11.8-.28 25.44,1.38 35.08-7.02 8.99-8.6 13.95-20.25 20.22-30.77 33.94-60.08 67.86-120.18 101.89-180.2 2.1-2.52 1.78-5.77 .06-8.33-22.64-39.71-45.33-79.39-67.79-119.2-4.34-7.98-10.01-15.6-18.43-19.61-7.52-4.68-16.71-2.65-25.03-3.08-33.19,.65-66.43-.77-99.59,.64Z"/>
</svg>
