<svg width="1280" xmlns="http://www.w3.org/2000/svg" height="1280" viewBox="0 0 1024 1024">
<path d="m735.39,43.4c3.85-2.97 9.05-2 13.58-2.43 51.68,.08 103.38-.04 155.07,.04 6.95-.22 10.06,8.24 9.97,14.02 .67,5.37-2.08,10.08-4.33,14.67-99.35,175.36-198.33,350.94-297.65,526.33-1.19,2.14-2.7,4.8-1.29,7.23 60.75,111.24 121.5,222.5 182.33,333.7 4.35,8.53 10.44,16.43 11.88,26.16 .6,8.77-6.15,16.69-14.61,18.21-8.41,.97-16.9,.7-25.34,.75-38.35-.25-76.69,.07-115.03-.1-10.43,.64-21.38-2.55-28.78-10.17-7.4-6.4-11.57-15.41-16.3-23.75-62.84-115.76-126.24-231.22-188.91-347.07 40.37-72.79 81.67-145.06 122.37-217.67 57.87-102.48 115.58-205.05 173.41-307.56 6.52-11.64 12.73-24.14 23.63-32.36Z"/>
<path d="m179.39,223.5c44.84-1.25 89.75-.06 134.63-.58 12.23-.7 24.88,3.61 33.17,12.88 8.43,9.37 14.1,20.76 20.4,31.57 27.69,48.29 54.97,96.81 83.09,144.85-44.03,78.98-88.74,157.59-133.08,236.41-9.48,15.71-16.41,34.06-31.95,44.98-9.27,6.52-20.96,5.31-31.65,5.49-41.66-.37-83.33,.24-124.98-.26-10.22,.91-19.88-8.7-19.17-18.85-.94-5.94 2.76-10.93 5.26-15.9 47.27-83.72 94.3-167.57 141.94-251.08-23.61-41.91-48.18-83.27-71.89-125.12-7.5-13.19-15.97-25.87-22.37-39.64-5.64-11.1 4.57-25.04 16.6-24.75Z"/>
</svg>
