<svg width="1280" xmlns="http://www.w3.org/2000/svg" height="1280" viewBox="0 0 1024 1024">
<path d="m421.92,146.55c26.34-1.09 52.72-.36 79.08-.55 31.81,.21 63.64-.54 95.44,.52 99.77,1.37 199.77,3.41 299.06,14.04 40.96,4.01 77.58,31.14 97.02,66.85 11.43,20.55 15.25,44.04 19.15,66.91 5.29,33.01 7.92,66.37 10.19,99.7 2.04,27.79 .19,55.69 2.14,83.49v68.98c-1.99,27.46-.02,55.02-2.17,82.48-2.39,35.29-5.07,70.66-11.3,105.51-4.15,21.76-8.21,44.12-19.59,63.48-13.29,22.85-32.76,42.83-56.91,54.08-15.35,7.99-32.82,10.57-49.85,12.24-90.1,9.06-180.71,10.81-271.18,12.73-34.65,.19-69.3-.51-103.94,.56-41.51-1.37-83.05,.17-124.56-.98-86.27-1.82-172.73-3.92-258.55-13.58-47.85-5.79-89.69-42.07-104.35-87.67-7.59-23.73-10.49-48.58-13.8-73.17-3.81-29.48-5.19-59.19-7.8-88.78v-202.74c3.86-50.28 6.77-100.97 18.5-150.2 1.36-5.67 3.32-11.18 5.22-16.68 15.82-43.87 56.86-78.28 103.6-83.43 97.8-10.6 196.31-12.25 294.6-13.79m-24.51,145.92c-18.31,1.87-33.67,18.88-32.42,37.5-.03,118.35 .1,236.7-.06,355.04 .23,7.59-.11,15.48 2.31,22.8 6.46,19.39 31.66,28.84 49.67,20.01 6.99-3.38 13.21-8.09 19.86-12.06 89.44-55.87 178.85-111.8 268.31-167.66 5.96-3.97 12.83-6.88 17.6-12.41 10.56-12.14 11.25-31.51 2.4-44.75-7-8.67-17.28-13.6-26.46-19.55-92.49-57.88-185.11-115.54-277.63-173.37-6.87-4.63-15.34-6.62-23.58-5.55Z"/>
</svg>
