<svg width="1280" xmlns="http://www.w3.org/2000/svg" height="1280" viewBox="0 0 1024 1024">
<path d="m228.63,5.12c19.84-.22 39.67-.14 59.51-.12 13.15,46.33 24.82,93.08 38.16,139.36 12.16-46.38 23.96-92.84 35.93-139.26 19.3-.17 38.6-.16 57.9-.05-21.25,70.36-42.63,140.69-63.97,211.01-2.12,7.46-2.23,15.24-2.26,22.93 .17,46.33 .1,92.66 .08,138.99-18.99,.05-37.98,.05-56.97,0-.09-50 .09-100-.02-150 .24-8.17-2.25-16.03-4.01-23.91-16.31-67.89-42.55-132.76-64.35-198.95Z"/>
<path d="m490.45,89.52c22.2-2.58 46.47,3.18 62.37,19.65 14.56,13.53 20.58,33.45 22.44,52.67 3.2,35.63 1.17,71.45 1.77,107.16-.29,26.26 .28,54.4-13.03,78.01-12.7,22.82-39.21,35.77-65,34.15-26.11,1.4-52.31-13.76-64.04-37.13-8.46-15.87-10.2-34.35-10.9-52.01-.22-36.68 .06-73.35-.11-110.02-.28-16.39 1.97-32.96 7.52-48.41 9.35-24.32 32.84-42.28 58.98-44.07m6.95,45.89c-5.71,.21-10.68,3.48-14.42,7.56-7.45,10.75-7.78,24.44-7.98,37.02 0,36.67-.08,73.35 .03,110.03 .64,12.27 .24,25.77 7.63,36.3 5.84,8.73 18.68,10.64 27.71,6.07 10.37-6.67 13.92-19.7 13.65-31.37 .02-41.68-.07-83.36 .03-125.03-.35-10.02 .28-20.99-5.23-29.88-3.72-7.85-13.02-11.91-21.42-10.7Z"/>
<path d="m619.02,92.03c17.32-.06 34.64-.06 51.97-.01 .02,63.33 .03,126.65-.01,189.98 .08,13.45-.54,26.94 .65,40.36 .52,5.16 3.45,10.97 9.02,11.99 10.23,1.74 18.76-5.5 25.6-12.09 3.14-3.77 7.04-7.22 8.95-11.85 1.5-11.41 .72-22.95 .85-34.41-.1-61.33-.05-122.65-.03-183.98 17.21-.05 34.44-.19 51.66,.25 .59,95.13 .42,190.27 .09,285.4-17.25,.53-34.5,.36-51.74,.3-.02-10.39-.05-20.77-.16-31.15-12.22,12.36-24.8,25.48-41.53,31.55-10.66,3.35-22.58,4.25-33.25,.49-8.79-3.18-15.55-10.84-18.11-19.76-3.73-13.69-3.96-28.01-4.04-42.1 .14-74.99 0-149.98 .08-224.97Z"/>
<path d="m440.45,429.6c24.83-1.17 49.7-.41 74.55-.6 26.32,.22 52.68-.66 78.99,.78 71.01,.55 142.09,2.46 212.87,8.47 18.68,1.63 38.12,3.19 55.13,11.8 21.24,10.47 39.47,27.61 49.83,49.05 7.15,13.84 9.86,29.37 12.57,44.57 6.93,41.74 8.92,84.1 10.48,126.32 .09,61.33 1.55,122.81-4.07,183.96-2.39,24.17-4.82,48.45-10.78,72.06-8.47,36.28-37.22,67.53-73.3,77.56-8.72,2.46-17.74,3.43-26.72,4.4-83.4,8.2-167.28,9.48-251,11.06-116.02,.07-232.24,.44-347.95-9.24-17.96-1.97-36.47-2.42-53.46-9.29-23.02-9.71-43.13-27.15-54.51-49.54-8.71-16.15-11.61-34.55-14.51-52.43-9.04-59.19-9.42-119.24-10.09-178.96 .76-62.17 1.16-124.9 12.87-186.19 3.25-18.44 10.07-36.53 21.66-51.38 11.74-15.57 27.95-27.78 46.09-34.89 14.75-6.01 30.8-7.06 46.48-8.53 74.79-6.16 149.86-8.25 224.87-8.98m-288.43,98.41c-.06,17.99-.05,35.98 .01,53.98 19.98-.01 39.97,.02 59.95,.02 .06,108.32-.01,216.65 .03,324.97 18.99,.05 37.98,.05 56.97-.01 .06-108.32-.02-216.64 .04-324.96 20.32-.01 40.64-.02 60.96-.01 .06-18 .05-36 0-53.99-59.32-.02-118.64-.02-177.96,0m377,0c-.03,126.33-.03,252.65 0,378.97 16.98,.04 33.96,.05 50.95,.01 .04-9.04 .03-18.07 .1-27.09 9.47,11.02 20.44,21.23 33.96,27.05 17.98,8.27 42.65,4.42 53.57-13.32 9.04-15.54 10.67-34.02 11.29-51.61 .31-31.68 .01-63.35 .11-95.02-.15-27.19 .98-54.52-2.52-81.55-1.74-11.86-5.32-24.17-14.11-32.82-10.57-11.5-27.91-13.83-42.37-9.6-16.45,3.77-29.02,16.02-39.89,28.2-.29-41.07 0-82.14-.13-123.21-16.99-.05-33.98-.05-50.96-.01m255.95,93.78c-24.8,2.36-47.77,18.79-57.48,41.8-6.49,16.28-8.7,33.96-8.52,51.4 .01,31.67 .07,63.34-.03,95.01 .03,18.89 1.08,38.3 7.81,56.16 9.73,24.68 34.31,42.28 60.64,44.42 17.59,1.22 36.52-.68 51.64-10.56 12.73-7.56 21.79-20.14 27.47-33.61 7.49-18.13 5.24-38.31 5.5-57.39-17.28-.06-34.56-.06-51.83,.01-.6,14.33 .64,29.21-4.07,43-4.05,12.15-19.37,14.09-30.04,10.93-10.52-4.5-15.01-16.32-15.98-26.94-.44-20.33 .07-40.67-.07-61.01 33.99-.06 67.98,.04 101.97-.02-.22-24.53 .66-49.08-.48-73.58-1.6-17.39-3.97-35.86-14.55-50.37-15.45-22.98-45.13-33.48-71.98-29.25m-446.95,3.23c-.07,74.99 .04,149.99-.06,224.98 .17,14.07 .21,28.58 4.97,42.01 4.88,13.63 20.35,20.34 34.04,18.85 23.38-1.04 41.38-18.57 56.66-34.44 .31,10.17 .4,20.36 .46,30.56 16.63,.04 33.26,.04 49.9,.01 .02-93.99 .03-187.98-.01-281.97-16.66-.05-33.31-.05-49.96-.01-.01,67-.1,134 .07,201.01-.45,6.65 1.11,14.67-4.28,19.78-8.01,9.8-19.42,21.01-33.4,17.83-4.55-1.36-6.78-6.26-7.25-10.64-.88-12.64-1.12-25.33-1.17-37.99 0-63.33 .04-126.65-.01-189.98-16.66-.05-33.31-.05-49.96,0Z"/>
<path d="m580.05,679.09c8.08-5.91 16.86-12.8 27.57-11.64 8.42,.07 14.8,7.09 17.3,14.58 3.38,10.65 3.12,21.92 3.17,32.97-.18,36.67-.07,73.34-.03,110.01 .06,11.15-.68,23.28-7.39,32.67-7.43,8.94-21.59,8.22-30.64,2.27-4.78-3.12-11.54-6.96-9.98-13.9-.14-55.65-.05-111.31 0-166.96Z"/>
<path d="m774.9,678.91c4.93-9.89 17.52-13.85 27.73-10.59 6.99,1.77 12.34,7.68 14.73,14.34 5.71,16.14 3.1,33.57 3.64,50.33-17,.04-33.99,.03-50.98-.01 1.06-17.87-3.45-37.4 4.88-54.07Z"/>
</svg>
