<svg width="1280" xmlns="http://www.w3.org/2000/svg" height="1280" viewBox="0 0 1024 1024">
<path d="m224.41,73.5c6.52-.4 13.05-.59 19.59-.56 181.67,.17 363.34-.02 545.01,.09 25.56-.04 51,6.53 73.62,18.35 42.03,23.44 75.8,64.49 84.63,112.46 3.13,16.18 3.65,32.72 3.78,49.16-.12,176.67 .05,353.34-.09,530.01-.08,28.81-6.22,57.99-20.82,83.05-25.42,43.98-70.92,77.69-122.16,82.97-23.59,2.18-47.31,2.11-70.97,1.98-160-.02-320-.01-480-.01-12.01-.04-24.02-.53-36.01-1.11-33.56-3.11-66.2-16.96-91.15-39.74-11.43-10.62-22.52-21.86-30.9-35.11-17.94-26.29-25.96-58.43-25.92-90.03-.08-181.67 .05-363.34-.07-545.02-.26-20.39 2.76-40.92 9.91-60.06 22.19-58.11 78.68-103.09 141.55-106.43m75.12,53.61c15.56,46.99 32.7,93.52 46.14,141.21 2.54,10.75 6.76,21.43 6.38,32.66-.01,36.67-.1,73.34-.05,110.01 14.33,.02 28.66,.03 42.99,0-.01-31.67 .11-63.33-.11-94.99-.01-9.84-.19-19.86 2.71-29.37 16.32-53.15 32.37-106.39 48.56-159.59-14.27-.09-28.55-.08-42.82,.05-9.45,36.8-19.13,73.55-28.97,110.24-2.33-5.93-3.92-12.11-5.58-18.25-8.25-30.7-16.76-61.33-25-92.03-14.76-.09-29.51-.14-44.25,.06m195.91,70.38c-16.36,1.26-31.61,11.1-39.37,25.55-7.11,12.34-9.32,26.88-9.11,40.95 .13,28.34-.16,56.69 .13,85.03 .29,17.72 3.86,36.92 17.07,49.82 12.86,13.48 32.9,17.68 50.74,14.1 16.48-2.45 30.95-14.14 38-29.04 10.25-22.53 6.36-47.99 7.1-71.9-.81-26.85 2.84-54.61-5.44-80.66-4.73-12.08-13.84-22.47-25.37-28.47-10.24-5.53-22.35-6.55-33.75-5.38m95.57,2.5c.03,56.35-.11,112.69 .04,169.03 .96,12.65-.32,27.09 8.37,37.55 5.71,6.57 15.23,7.9 23.44,7.19 16.31-1.92 29.03-13.68 40.04-24.91 .05,7.38 .1,14.76 .15,22.15 12.64,0 25.29,.01 37.94,0 .02-70.33 .01-140.67 .01-211-12.67,0-25.33-.01-37.99-.01-.05,50.68 .02,101.36 .03,152.04-.49,4.63 .76,10.33-3.11,13.88-6.05,6.96-14.84,15.74-25,12.2-6.2-2.58-4.64-10.94-5.75-16.23-.47-53.95-.02-107.92-.18-161.88-12.67,0-25.34-.01-37.99-.01m-176.59,250.47c-44.89,1.05-89.78,2.91-134.46,7.37-6.55,.61-13.01,1.96-19.33,3.77-26.54,8.66-46.94,32.7-51.99,60.06-10.69,48.96-10.68,99.48-10.65,149.34-.34,42.85 .8,85.94 7.62,128.33 2.2,13.96 5.17,28.23 12.52,40.5 9.02,15.37 23.25,27.7 39.84,34.25 16.77,5.98 34.83,5.91 52.35,7.62 87.09,6.02 174.44,5.46 261.69,5.23 58.47-1.59 117.11-2.23 175.32-8.58 33.26-3.33 61.29-31.02 67.65-63.42 8.78-38.29 9.51-77.84 10.87-116.92 .54-49.69 .11-99.58-5.83-148.98-2.04-15.72-4.08-31.76-10.68-46.35-11.6-23.97-35.65-41.83-62.29-44.74-50.82-5.49-101.99-6.43-153.05-7.91-59.86,.21-119.73-.6-179.58,.43Z"/>
<path d="m499.43,231.45c4.61-1.12 9.81-.67 13.46,2.68 7.21,4.59 7.43,13.99 8.57,21.52 1.26,21.75 .22,43.57 .56,65.35-.27,13.31 .87,26.75-1.12,39.97-.93,6.14-4.01,12.15-9,15.94-6.98,3.99-16.79,2.52-21.66-4.13-5.84-8.34-4.9-19.14-5.31-28.77 .29-30.33-.32-60.67 .26-90.99 .69-8.59 4.44-20.01 14.24-21.57Z"/>
<path d="m244.22,522.32c44.25-.72 88.52-.15 132.78-.31 .01,13.65 .01,27.31-.01,40.98-15.33-.04-30.65,.06-45.98,.02-.04,80.32 .02,160.65-.02,240.98-14,.02-27.99,.02-41.98,0-.03-80.33 .01-160.66-.02-241-14.89,.09-29.78,.08-44.66-.2-.46-13.49-.5-26.99-.11-40.47Z"/>
<path d="m524.27,522.3c12.79-.42 25.61-.41 38.42-.07 .69,30.59 .14,61.19 .3,91.78 7.06-8.01 14.93-16.23 25.29-19.76 9.54-3.39 20.82-3.61 29.7,1.75 7.95,4.08 11.69,12.78 14.13,20.89 4.65,20.67 3.73,42.07 3.92,63.11-.38,28.99 .87,58.02-1.13,86.97-1.29,12.48-4.33,26.1-14.28,34.61-7.2,6.08-17.49,5.81-26.29,5.04-12.88-2.87-22.49-12.55-31.17-21.84-.09,6.38-.14,12.81-.21,19.22-12.99,.01-25.97,0-38.94,0 .16-93.9-.36-187.8 .26-281.7m38.76,111.72c-.08,40 .02,80-.11,120.01 .66,4.44-1.67,10.92 4.08,12.99 6.32,5.39 17.25,7.8 24,1.98 7.04-7.42 7.18-18.42 7.08-27.99-.2-28.35 .08-56.69-.12-85.03-.36-9.7-.28-21.64-8.91-28.05-8.88-5.53-18.62,1.29-26.02,6.09Z"/>
<path d="m683.31,606.32c14.12-13.69 35.59-16.99 54.3-12.99 11.89,2.4 22.09,10.16 29.38,19.64 7.31,9.3 9.94,21.21 11.39,32.69 1.35,20.08 .38,40.22 .6,60.33-25.32,.04-50.64-.02-75.95,.02 .04,13.99-.42,27.98 .1,41.97 .84,8.39 3.04,18.45 11.11,22.81 7.07,2.55 16.5,2.36 21.53-4.02 7.29-10.01 3.18-23.35 4.3-34.78 12.99-.01 25.99,0 38.99,.01 .22,17.38 1.45,36.97-9.14,51.93-9.34,15.21-27.17,24.04-44.91,23.19-21.05,1.54-42.74-9.92-52.04-29.1-7.78-15.84-6.9-33.86-7.8-51.01-.32-26.67-.64-53.38 .96-80.02 1.21-14.86 5.86-30.31 17.18-40.67m23.46,29.4c-5.76,12.06-3.11,26.17-3.53,39.05 12.59,.29 25.18,.27 37.78,.25-.76-13.68 2.47-28.99-4.56-41.47-6.22-11.23-25.08-9.73-29.69,2.17Z"/>
<path d="m383.01,594.99c12.66-.01 25.32,0 37.99,.01 .02,55.01 0,110.03-.05,165.04-1.12,5.35 2.01,13.94 9.06,11.95 8.93,.39 15.25-7.3 20.63-13.35 3.07-3.41 1.79-8.51 2.38-12.61 .03-50.34-.08-100.69-.01-151.03 12.99-.02 25.98-.01 38.98,0 .02,69.67 .01,139.34 0,209-12.98,.01-25.96,0-38.94,0-.05-7.06-.11-14.1-.16-21.13-9.56,9.23-19.45,19.92-32.94,22.93-7.81,1.73-16.83,2.77-23.9-1.87-5.11-2.5-8.53-7.59-10-12.96-2.71-9.07-3.17-18.57-3.12-27.96 .15-56.01 .02-112.01 .08-168.02Z"/>
</svg>
